<?xml version="1.0" encoding="utf-8" standalone="no"?>
<!DOCTYPE svg PUBLIC "-//W3C//DTD SVG 1.1//EN" "http://www.w3.org/Graphics/SVG/1.1/DTD/svg11.dtd">
<svg version="1.1" width="120pt" height="120pt" viewBox="0 0 120 120" overflow="visible" xmlns="http://www.w3.org/2000/svg">
  <path d="M59.18293,50.36819 L59.18293,53.23624 L58.67564,52.97569 L58.67564,51.03142 L58.67564,50.08987 z" stroke="Black" stroke-width="0" fill="#B09278" fill-opacity="1" />
  <path d="M61.64436,48.98252 L61.64436,51.83479 L59.18293,53.23624 L59.18293,50.36819 z" stroke="Black" stroke-width="0" fill="#B09278" fill-opacity="1" />
  <path d="M35.60092,54.43242 L35.37787,54.57257 L34.3475,53.98238 L34.49554,53.78498 z" stroke="Black" stroke-width="0" fill="#B09278" fill-opacity="1" />
  <path d="M51.3466,42.36014 L48.88517,43.74383 L48.37788,43.46551 L49.1398,43.03323 L50.83931,42.07195 z" stroke="Black" stroke-width="0" fill="#B09278" fill-opacity="1" />
  <path d="M74.74457,39.84343 L74.92814,39.79408 L75.85784,42.84966 C75.85784,42.84966 76.83886,47.29485 77.02441,48.9233 L78.3627,56.18523 C78.04096,55.41344 77.67974,54.79758 77.25732,54.39886 L77.62447,53.15926 L76.96716,53.04872 L76.80333,53.28164 L76.70464,51.7578 L75.83613,47.02245 C75.83613,47.02245 74.96564,44.02412 74.94393,42.76281 C74.92222,41.50347 74.50967,38.9611 74.50967,38.9611 z" stroke="Black" stroke-width="0" fill="#828C8D" fill-opacity="1" />
  <path d="M48.88517,43.74383 L48.88517,46.61386 L48.37788,46.35331 L48.37788,44.40903 L48.37788,43.46551 z" stroke="Black" stroke-width="0" fill="#B09278" fill-opacity="1" />
  <path d="M49.1398,43.03323 L48.37788,43.46551 L48.37788,44.40903 L47.82519,44.13071 L47.82519,43.22865 L48.04824,43.08652 L48.60685,42.73518 z" stroke="Black" stroke-width="0" fill="#B09278" fill-opacity="1" />
  <path d="M36.43785,55.08973 L36.43785,57.95778 L35.93056,57.69723 L35.93056,55.75295 L35.93056,54.80943 z" stroke="Black" stroke-width="0" fill="#B09278" fill-opacity="1" />
  <path d="M38.89928,53.70406 L38.89928,56.55632 L36.43785,57.95778 L36.43785,55.08973 z" stroke="Black" stroke-width="0" fill="#B09278" fill-opacity="1" />
  <path d="M70.36697,29.6641 L69.60504,30.09639 L69.60504,31.03793 L69.05038,30.75961 L69.05038,29.85755 L69.27343,29.7174 L69.83204,29.36407 z" stroke="Black" stroke-width="0" fill="#B09278" fill-opacity="1" />
  <path d="M69.13873,58.67627 C69.13873,58.67627 70.8797,57.85316 72.59501,58.42756 L73.43588,58.83813 C75.36437,60.11918 75.34858,61.70816 76.27235,61.95292 L76.47567,61.92134 L76.40263,62.93592 L76.24275,63.47084 L74.92419,67.97919 C74.92419,67.97919 75.0071,68.35423 74.75642,68.60491 L74.9163,69.15958 C72.62856,69.98861 69.43481,70.95581 67.72938,70.62617 C64.87711,70.07546 65.52653,68.01077 65.19096,67.77391 C64.85738,67.53902 64.93633,67.20345 64.93633,67.20345 L66.62795,59.92772 L67.2063,60.58107 C67.2063,60.58107 67.4866,60.2613 67.607,59.09079 L67.63858,58.79668 L67.84386,58.93682 C67.85374,58.92695 68.35905,58.2361 69.12689,58.69601 z" stroke="Black" stroke-width="0" fill="#343A3C" fill-opacity="1" />
  <path d="M48.04824,43.08652 L47.82519,43.22865 L46.79482,42.63845 L46.94286,42.44107 z" stroke="Black" stroke-width="0" fill="#B09278" fill-opacity="1" />
  <path d="M38.89928,53.70406 L36.43785,55.08973 L35.93056,54.80943 L36.69445,54.37715 L38.39397,53.41587 z" stroke="Black" stroke-width="0" fill="#B09278" fill-opacity="1" />
  <path d="M73.57011,32.34859 C73.79908,35.11795 74.39914,37.82414 74.92814,39.79408 L74.74457,39.84343 L74.51363,38.9611 C73.9787,36.87471 73.45562,34.51789 73.39838,33.07695 C73.37469,32.46899 73.17533,31.87683 72.80029,31.39915 L72.55553,31.18005 C72.29301,31.11885 71.86665,34.54947 71.86665,34.54947 L70.51453,33.95928 L71.3712,29.7174 C71.56859,28.77783 72.09561,28.387 72.60488,28.85678 C73.11414,29.32657 73.57011,32.34859 73.57011,32.34859 z" stroke="Black" stroke-width="0" fill="#828C8D" fill-opacity="1" />
  <path d="M58.346,49.71089 L58.12295,49.85103 L57.09258,49.26084 L57.24062,49.06345 z" stroke="Black" stroke-width="0" fill="#B09278" fill-opacity="1" />
  <path d="M61.64436,48.98252 L59.18293,50.36819 L58.67564,50.08987 L59.43756,49.65759 L61.13707,48.69434 z" stroke="Black" stroke-width="0" fill="#B09278" fill-opacity="1" />
  <path d="M72.57179,28.98904 L72.57179,31.8413 L70.11036,33.24276 L70.11036,30.3747 z" stroke="Black" stroke-width="0" fill="#B09278" fill-opacity="1" />
  <path d="M72.57179,28.98904 L70.11036,30.3747 L69.60504,30.09639 L70.36697,29.6641 L72.06648,28.70085 z" stroke="Black" stroke-width="0" fill="#B09278" fill-opacity="1" />
  <path d="M69.27343,29.7174 L69.05038,29.85755 L68.02199,29.26933 L68.16805,29.06997 z" stroke="Black" stroke-width="0" fill="#B09278" fill-opacity="1" />
  <path d="M36.69445,54.37715 L35.93056,54.80943 L35.93056,55.75295 L35.37787,55.47463 L35.37787,54.57257 L35.60092,54.43242 L36.15953,54.07909 z" stroke="Black" stroke-width="0" fill="#B09278" fill-opacity="1" />
  <path d="M70.11036,30.3747 L70.11036,33.24276 L69.60504,32.98221 L69.60504,31.03793 L69.60504,30.09639 z" stroke="Black" stroke-width="0" fill="#B09278" fill-opacity="1" />
  <path d="M59.43756,49.65759 L58.67564,50.08987 L58.67564,51.03142 L58.12295,50.7531 L58.12295,49.85103 L58.346,49.71089 L58.90461,49.35756 z" stroke="Black" stroke-width="0" fill="#B09278" fill-opacity="1" />
  <path d="M71.86665,34.54947 L68.71435,52.62631 L67.75307,58.092 L67.32276,57.74262 L67.52805,52.97569 L67.6366,51.91374 L70.51453,33.95928 z" stroke="Black" stroke-width="0" fill="#828C8D" fill-opacity="1" />
  <path d="M51.3466,42.36014 L51.3466,45.2124 L48.88517,46.61386 L48.88517,43.74383 z" stroke="Black" stroke-width="0" fill="#B09278" fill-opacity="1" />
  <path d="M78.36468,56.19115 C79.06145,57.86895 79.57269,60.28301 80.13722,62.83722 C80.96429,66.57378 77.58105,68.1075 77.58105,68.1075 L74.9163,69.15958 L74.75642,68.60491 C75.0071,68.35423 74.92419,67.97919 74.92419,67.97919 L76.24275,63.47084 L76.40263,62.93592 L76.47567,61.92134 L76.27235,61.95292 C75.34858,61.70816 75.36437,60.11918 73.43588,58.83813 L72.59501,58.42756 C72.59501,58.42559 73.03716,57.45838 73.26613,57.42483 C73.44772,57.39719 75.05842,57.12282 75.95456,57.31627 C75.96246,57.27876 75.49662,55.30093 76.48553,54.40281 L76.80333,53.28164 L76.96716,53.04872 L77.62447,53.15926 L77.25732,54.39886 C77.67974,54.79758 78.04096,55.41344 78.3627,56.18523 z" stroke="Black" stroke-width="0" fill="#343A3C" fill-opacity="1" />
  <path d="M67.63858,58.79668 L67.607,59.09079 C67.4866,60.2613 67.2063,60.58107 67.2063,60.58107 L66.63387,59.92179 C66.51939,59.78954 66.78783,59.56452 66.86285,59.10263 L67.32276,57.74262 L67.75307,58.092 z" stroke="Black" stroke-width="0" fill="#343A3C" fill-opacity="1" />
  <path d="M48.04826,43.08655 L47.82521,43.22867 L46.79485,42.63848 L46.94289,42.44109 L48.03445,43.06484 z" stroke="#FFFFFF" stroke-width="0.24" fill="none" />
  <path d="M70.11038,30.37473 L70.11038,33.24278 L72.57182,31.84132 L72.57182,28.98906 z" stroke="#FFFFFF" stroke-width="0.24" fill="none" />
  <path d="M67.32276,57.74262 L66.86285,59.10263 C66.78783,59.56452 66.51939,59.78954 66.51939,59.78954 L67.2063,60.58107 C67.2063,60.58107 67.4866,60.2613 67.607,59.09079 L67.63858,58.79668 L67.75307,58.092 z" stroke="#FFFFFF" stroke-width="0.24" fill="none" />
  <path d="M69.60506,30.09641 L70.11038,30.37473" stroke="#FFFFFF" stroke-width="0.24" fill="none" />
  <path d="M67.32276,57.74262 L67.52805,52.97569 L67.6366,51.91374 L70.51453,33.95928 L71.86665,34.54947 L68.71435,52.62631 L67.75307,58.092" stroke="#FFFFFF" stroke-width="0.24" fill="none" />
  <path d="M35.93058,54.80946 L36.43787,55.08975" stroke="#FFFFFF" stroke-width="0.24" fill="none" />
  <path d="M67.63858,58.79668 L67.84386,58.93682 L68.1439,59.30199 L68.64921,60.05207" stroke="#FFFFFF" stroke-width="0.24" fill="none" />
  <path d="M51.34663,42.36016 L51.34663,45.21243 L48.88519,46.61388 L48.88519,43.74385 z" stroke="#FFFFFF" stroke-width="0.24" fill="none" />
  <path d="M74.74457,39.84343 L74.92814,39.79408 L75.85784,42.84966 C75.85784,42.84966 76.83886,47.29485 77.02441,48.9233 L78.3627,56.18523 C78.04096,55.41344 77.67974,54.79758 77.25732,54.39886 L77.62447,53.15926 L76.96716,53.04872 L76.80333,53.28164 L76.70464,51.7578 L75.83613,47.02245 C75.83613,47.02245 74.96564,44.02412 74.94393,42.76281 C74.92222,41.50347 74.50967,38.9611 74.50967,38.9611 z" stroke="#FFFFFF" stroke-width="0.24" fill="none" />
  <path d="M78.36468,56.19115 C79.06145,57.86895 79.57269,60.28301 80.13722,62.83722 C80.96429,66.57378 77.58105,68.1075 77.58105,68.1075 L74.9163,69.15958 L74.75642,68.60491 C75.0071,68.35423 74.92419,67.97919 74.92419,67.97919 L76.24275,63.47084 L76.40263,62.93592 L76.47567,61.92134 L76.27235,61.95292 C75.34858,61.70816 75.36437,60.11918 73.43588,58.83813 L72.59501,58.42756 C72.59501,58.42559 73.03716,57.45838 73.26613,57.42483 C73.44772,57.39719 75.05842,57.12282 75.95456,57.31627 C75.96246,57.27876 75.49662,55.30093 76.48553,54.40281 L76.80333,53.28164 L76.96716,53.04872 L77.62447,53.15926 L77.25732,54.39886 C77.67974,54.79758 78.04096,55.41344 78.3627,56.18523 z" stroke="#FFFFFF" stroke-width="0.24" fill="none" />
  <path d="M48.35817,44.40905 L47.82521,44.13074 L47.82521,43.22867 L48.04826,43.08655 L48.60687,42.7352 L49.12403,43.00562" stroke="#FFFFFF" stroke-width="0.24" fill="none" />
  <path d="M58.33221,49.6892 L58.34602,49.71091 L58.12297,49.85106 L57.09261,49.26086 L57.24065,49.06348 z" stroke="#FFFFFF" stroke-width="0.24" fill="none" />
  <path d="M48.88519,43.74385 L48.88519,46.61388 L48.3779,46.35333 L48.3779,44.40905 L48.3779,43.46554 z" stroke="#FFFFFF" stroke-width="0.24" fill="none" />
  <path d="M67.85374,58.92695 C67.85374,58.92695 68.35905,58.2361 69.12689,58.69601 L69.35389,58.85984 C70.24806,59.62176 70.5698,59.65532 70.5698,59.65532" stroke="#FFFFFF" stroke-width="0.24" fill="none" />
  <path d="M51.34663,42.36016 L50.83934,42.07198 L49.13982,43.03326 L48.3779,43.46554 L48.3779,44.40905 L48.3779,46.35333 L48.88519,46.61388" stroke="#FFFFFF" stroke-width="0.24" fill="none" />
  <path d="M72.57182,28.98906 L70.11038,30.37473 L69.60506,30.09641 L70.36699,29.66413 L72.06651,28.70087 z" stroke="#FFFFFF" stroke-width="0.24" fill="none" />
  <path d="M36.43787,55.08975 L36.43787,57.95781 L35.93058,57.69725 L35.93058,55.75298 L35.93058,54.80946 z" stroke="#FFFFFF" stroke-width="0.24" fill="none" />
  <path d="M69.13873,58.67627 C69.13873,58.67627 70.8797,57.85316 72.59501,58.42756 L73.43588,58.83813 C75.36437,60.11918 75.34858,61.70816 76.27235,61.95292" stroke="#FFFFFF" stroke-width="0.24" fill="none" />
  <path d="M36.43787,55.08975 L36.43787,57.95781 L38.89931,56.55635 L38.89931,53.70408 z" stroke="#FFFFFF" stroke-width="0.24" fill="none" />
  <path d="M69.25964,29.69571 L69.27345,29.71742 L69.05041,29.85757 L68.02201,29.26935 L68.16808,29.06999 z" stroke="#FFFFFF" stroke-width="0.24" fill="none" />
  <path d="M72.57182,28.98906 L72.57182,31.84132 L70.11038,33.24278 L70.11038,30.37473 z" stroke="#FFFFFF" stroke-width="0.24" fill="none" />
  <path d="M61.64439,48.98255 L61.1371,48.69436 L59.43758,49.65762 L58.67566,50.0899 L58.67566,51.03144 L58.67566,52.97572 L59.18295,53.23627" stroke="#FFFFFF" stroke-width="0.24" fill="none" />
  <path d="M67.32276,57.74262 L67.75307,58.092 L67.63858,58.79668 L67.607,59.09079 C67.4866,60.2613 67.2063,60.58107 67.2063,60.58107 L66.63387,59.92179 C66.51939,59.78954 66.78783,59.56452 66.86285,59.10263 z" stroke="#FFFFFF" stroke-width="0.24" fill="none" />
  <path d="M73.57011,32.34859 C73.79908,35.11795 74.39914,37.82414 74.92814,39.79408 L74.74457,39.84343 L74.51363,38.9611 C73.9787,36.87471 73.45562,34.51789 73.39838,33.07695 C73.37469,32.46899 73.17533,31.87683 72.80029,31.39915 L72.55553,31.18005 C72.29301,31.11885 71.86665,34.54947 71.86665,34.54947 L70.51453,33.95928 L71.3712,29.7174 C71.56859,28.77783 72.09561,28.387 72.60488,28.85678 C73.11414,29.32657 73.57011,32.34859 73.57011,32.34859 z" stroke="#FFFFFF" stroke-width="0.24" fill="none" />
  <path d="M51.34663,42.36016 L48.88519,43.74385 L48.3779,43.46554 L49.13982,43.03326 L50.83934,42.07198 z" stroke="#FFFFFF" stroke-width="0.24" fill="none" />
  <path d="M38.89931,53.70408 L38.39399,53.41589 L36.69447,54.37717 L35.93058,54.80946 L35.93058,55.75298 L35.93058,57.69725 L36.43787,57.95781" stroke="#FFFFFF" stroke-width="0.24" fill="none" />
  <path d="M58.67566,50.0899 L59.18295,50.36821" stroke="#FFFFFF" stroke-width="0.24" fill="none" />
  <path d="M35.58712,54.41073 L34.49557,53.78501 L34.34753,53.9824 L35.37789,54.57259" stroke="#FFFFFF" stroke-width="0.24" fill="none" />
  <path d="M59.18295,50.36821 L59.18295,53.23627 L58.67566,52.97572 L58.67566,51.03144 L58.67566,50.0899 z" stroke="#FFFFFF" stroke-width="0.24" fill="none" />
  <path d="M70.51453,33.95928 L71.3712,29.7174 C71.56859,28.77783 72.09561,28.387 72.60488,28.85678 C73.11414,29.32657 73.57011,32.34859 73.57011,32.34859 C73.79908,35.11795 74.39914,37.82414 74.92814,39.79408 L75.85784,42.84966 C75.85784,42.84966 76.83886,47.29485 77.02441,48.9233 L78.3627,56.18523" stroke="#FFFFFF" stroke-width="0.24" fill="none" />
  <path d="M76.24275,63.47084 C76.24275,63.47084 77.27904,63.18068 76.98493,59.35134" stroke="#FFFFFF" stroke-width="0.24" fill="none" />
  <path d="M61.64439,48.98255 L61.64439,51.83481 L59.18295,53.23627 L59.18295,50.36821 z" stroke="#FFFFFF" stroke-width="0.24" fill="none" />
  <path d="M72.59501,58.42559 C72.59501,58.42559 73.03716,57.45838 73.26613,57.42483 C73.44772,57.39719 75.05842,57.12282 75.95456,57.31627 L76.45988,57.56102 C76.95927,58.15122 77.30075,58.27755 77.30075,58.27755" stroke="#FFFFFF" stroke-width="0.24" fill="none" />
  <path d="M61.64439,48.98255 L59.18295,50.36821 L58.67566,50.0899 L59.43758,49.65762 L61.1371,48.69436 z" stroke="#FFFFFF" stroke-width="0.24" fill="none" />
  <path d="M58.65593,51.03144 L58.12297,50.75312 L58.12297,49.85106 L58.34602,49.71091 L58.90464,49.35759 L59.42179,49.62801" stroke="#FFFFFF" stroke-width="0.24" fill="none" />
  <path d="M72.57182,28.98906 L72.06651,28.70087 L70.36699,29.66413 L69.60506,30.09641 L69.60506,31.03795 L69.60506,32.98223 L70.11038,33.24278" stroke="#FFFFFF" stroke-width="0.24" fill="none" />
  <path d="M69.13873,58.67627 C69.13873,58.67627 70.8797,57.85316 72.59501,58.42756 L73.43588,58.83813 C75.36437,60.11918 75.34858,61.70816 76.27235,61.95292 L76.47567,61.92134 L76.40263,62.93592 L76.24275,63.47084 L74.92419,67.97919 C74.92419,67.97919 75.0071,68.35423 74.75642,68.60491 L74.9163,69.15958 C72.62856,69.98861 69.43481,70.95581 67.72938,70.62617 C64.87711,70.07546 65.52653,68.01077 65.19096,67.77391 C64.85738,67.53902 64.93633,67.20345 64.93633,67.20345 L66.62795,59.92772 L67.2063,60.58107 C67.2063,60.58107 67.4866,60.2613 67.607,59.09079 L67.63858,58.79668 L67.84386,58.93682 C67.85374,58.92695 68.35905,58.2361 69.12689,58.69601 z" stroke="#FFFFFF" stroke-width="0.24" fill="none" />
  <path d="M38.89931,53.70408 L38.89931,56.55635 L36.43787,57.95781 L36.43787,55.08975 z" stroke="#FFFFFF" stroke-width="0.24" fill="none" />
  <path d="M69.58533,31.03795 L69.05041,30.75964 L69.05041,29.85757 L69.27345,29.71742 L69.83206,29.3641 L70.3512,29.63452" stroke="#FFFFFF" stroke-width="0.24" fill="none" />
  <path d="M38.89931,53.70408 L36.43787,55.08975 L35.93058,54.80946 L36.69447,54.37717 L38.39399,53.41589 z" stroke="#FFFFFF" stroke-width="0.24" fill="none" />
  <path d="M69.25964,29.69571 L68.16808,29.06999 L68.02201,29.26935 L69.05041,29.85757" stroke="#FFFFFF" stroke-width="0.24" fill="none" />
  <path d="M36.67868,54.34954 L36.69447,54.37717 L35.93058,54.80946 L35.93058,55.75298 L35.91282,55.75298 L35.37789,55.47466 L35.37789,54.57259 L35.60094,54.43245 L36.15955,54.07912 z" stroke="#FFFFFF" stroke-width="0.24" fill="none" />
  <path d="M58.33221,49.6892 L57.24065,49.06348 L57.09261,49.26086 L58.12297,49.85106" stroke="#FFFFFF" stroke-width="0.24" fill="none" />
  <path d="M35.58712,54.41073 L35.60094,54.43245 L35.37789,54.57259 L34.34753,53.9824 L34.49557,53.78501 z" stroke="#FFFFFF" stroke-width="0.24" fill="none" />
  <path d="M75.96246,57.27876 C75.96246,57.27876 75.49662,55.30093 76.48553,54.40281 L76.80333,53.28164 L76.96716,53.04872 L77.62447,53.15926 L77.25732,54.39886 C77.67974,54.79758 78.04096,55.41344 78.3627,56.18523" stroke="#FFFFFF" stroke-width="0.24" fill="none" />
  <path d="M35.91282,55.75298 L35.37789,55.47466 L35.37789,54.57259 L35.60094,54.43245 L36.15955,54.07912 L36.67868,54.34954" stroke="#FFFFFF" stroke-width="0.24" fill="none" />
  <path d="M71.86665,34.54947 L68.71435,52.62631 L67.75307,58.092 L67.32276,57.74262 L67.52805,52.97569 L67.6366,51.91374 L70.51453,33.95928 z" stroke="#FFFFFF" stroke-width="0.24" fill="none" />
  <path d="M59.18295,50.36821 L59.18295,53.23627 L61.64439,51.83481 L61.64439,48.98255 z" stroke="#FFFFFF" stroke-width="0.24" fill="none" />
  <path d="M48.03445,43.06484 L46.94289,42.44109 L46.79485,42.63848 L47.82521,43.22867" stroke="#FFFFFF" stroke-width="0.24" fill="none" />
  <path d="M70.3512,29.63452 L70.36699,29.66413 L69.60506,30.09641 L69.60506,31.03795 L69.58533,31.03795 L69.05041,30.75964 L69.05041,29.85757 L69.27345,29.71742 L69.83206,29.3641 z" stroke="#FFFFFF" stroke-width="0.24" fill="none" />
  <path d="M71.86665,34.54947 C71.86665,34.54947 72.29301,31.11885 72.55553,31.18005 L72.80029,31.39915 C73.17533,31.87683 73.37469,32.46899 73.39838,33.07695 C73.45562,34.51789 73.9787,36.87471 74.51363,38.9611 L74.74457,39.84343 L75.72164,43.27799" stroke="#FFFFFF" stroke-width="0.24" fill="none" />
  <path d="M76.79149,53.27769 L76.70464,51.7578 L75.83613,47.02245 C75.83613,47.02245 74.96564,44.02412 74.94393,42.76281 C74.92222,41.50347 74.50967,38.9611 74.50967,38.9611" stroke="#FFFFFF" stroke-width="0.24" fill="none" />
  <path d="M49.12403,43.00562 L49.13982,43.03326 L48.3779,43.46554 L48.3779,44.40905 L48.35817,44.40905 L47.82521,44.13074 L47.82521,43.22867 L48.04826,43.08655 L48.60687,42.7352 z" stroke="#FFFFFF" stroke-width="0.24" fill="none" />
  <path d="M74.86103,59.01775 C74.86103,59.01775 76.27828,60.39158 76.47567,61.92134 L76.40263,62.93592 L76.24275,63.47084 L74.92419,67.97919 C74.92419,67.97919 75.0071,68.35423 74.75642,68.60491" stroke="#FFFFFF" stroke-width="0.24" fill="none" />
  <path d="M78.36468,56.19115 C79.06145,57.86895 79.57269,60.28301 80.13722,62.83722 C80.96429,66.57378 77.58105,68.1075 77.58105,68.1075 L74.9163,69.15958 C72.62856,69.98861 69.43481,70.95581 67.72938,70.62617 C64.87711,70.07546 65.52653,68.01077 65.19096,67.77391 C64.85738,67.53902 64.93633,67.20345 64.93633,67.20345 L66.62795,59.92772" stroke="#FFFFFF" stroke-width="0.24" fill="none" />
  <path d="M59.42179,49.62801 L59.43758,49.65762 L58.67566,50.0899 L58.67566,51.03144 L58.65593,51.03144 L58.12297,50.75312 L58.12297,49.85106 L58.34602,49.71091 L58.90464,49.35759 z" stroke="#FFFFFF" stroke-width="0.24" fill="none" />
  <path d="M48.3779,43.46554 L48.88519,43.74385 L48.88519,46.61388 L51.34663,45.21243 L51.34663,42.36016 L48.88519,43.74385" stroke="#FFFFFF" stroke-width="0.24" fill="none" />
  <path d="M70.11038,30.37473 L70.11038,33.24278 L69.60506,32.98223 L69.60506,31.03795 L69.60506,30.09641 z" stroke="#FFFFFF" stroke-width="0.24" fill="none" />
  <path d="M46.6437,84.02489 C46.6437,84.02489 47.53392,85.37109 47.11743,86.55739 C46.70291,87.7437 44.78429,89.42545 44.78429,89.42545 L44.42505,86.67188 C44.43689,86.66991 44.62046,86.77847 44.94615,86.46462 L45.60148,85.73626 L45.5324,84.84011 L46.12456,83.84132 C45.92323,83.77224 45.95284,83.1781 45.95876,83.08533 C46.17786,83.08335 46.52921,82.98071 46.60422,83.61038 z" stroke="Black" stroke-width="0" fill="#49674E" fill-opacity="1" />
  <path d="M46.12456,83.84132 L45.5324,84.84011 L45.42581,83.01624 L45.02708,77.96507 C45.11196,78.35195 45.92323,82.15958 45.79295,82.79911 C45.74163,83.05177 45.82651,83.0873 45.95876,83.08533 C45.95284,83.1781 45.92323,83.77224 46.11272,83.82948 z" stroke="Black" stroke-width="0" fill="#49674E" fill-opacity="1" />
  <path d="M34.93855,83.13665 C34.8063,80.5173 34.82012,76.21028 35.01948,71.48086 C35.30372,64.76373 36.55122,60.66396 36.55122,60.44683 C36.55122,60.23168 36.4841,59.31382 37.09206,56.73396 C37.69804,54.15409 37.19865,54.09882 37.96847,53.28952 C38.73828,52.47826 39.17056,53.78892 39.17056,53.78892 C39.17056,53.78892 40.36674,57.70116 40.73783,58.36241 C41.10892,59.02564 42.30115,63.76493 42.30115,63.76493 C42.30115,63.76493 43.20124,66.41389 43.65128,69.06087 L44.89483,75.12662 L44.97576,77.21696 L45.02708,77.9552 L45.42581,83.01624 L45.5324,84.84011 L45.58372,85.71849 L44.94615,86.46462 C44.62046,86.77847 44.43689,86.66991 44.43689,86.66991 L44.77245,89.42742 L45.03893,92.52248 C45.06853,94.53979 45.68044,97.93092 45.95481,98.60402 C46.22918,99.27711 46.88056,101.1681 43.72037,103.5782 L43.65721,103.8703 C43.47758,104.5928 42.73935,105.0744 42.32878,105.2935 L42.04652,105.4277 C39.60087,106.3693 39.00081,103.7065 39.00081,103.7065 C39.00081,103.7065 38.89027,102.6801 38.30403,101.9833 C37.71581,101.2865 37.77108,100.9865 37.77108,100.9865 C37.77108,100.9865 36.29461,98.32175 35.84259,96.24522 C35.39255,94.16672 36.08933,92.71986 36.08933,92.71986 L37.08219,92.41391 C37.30524,92.49484 37.61712,92.54419 37.94675,92.41193 L38.62972,91.8632 C38.63762,91.86912 39.44888,92.07046 39.83774,91.66581 C40.22462,91.25919 39.46862,88.19374 39.46862,88.19374 C39.39756,88.60431 37.93491,88.82934 37.93491,88.82934 C37.93491,88.82934 37.30327,88.57076 36.60649,88.82934 L35.85246,88.98724 L35.62547,88.96948 C35.58796,88.88855 35.17147,87.99833 34.9879,87.05481 C34.79446,86.0659 34.93066,83.13665 34.93066,83.13665 z" stroke="Black" stroke-width="0" fill="#49674E" fill-opacity="1" />
  <path d="M42.33668,105.3073 C41.82742,106.1679 41.16024,106.3594 40.39437,106.0396 C39.63048,105.7218 37.83227,103.0156 37.83227,103.0156 L35.63533,100.724 C35.23661,100.2621 35.29977,99.49818 35.29977,99.49818 L35.15765,98.82904 C34.96619,98.44611 35.15765,97.96842 35.15765,97.96842 L35.41031,91.1526 C35.46756,91.61646 35.24253,92.59354 36.09328,92.63103 C36.08933,92.71986 35.39255,94.16672 35.84259,96.24522 C36.29461,98.32175 37.77108,100.9865 37.77108,100.9865 C37.77108,100.9865 37.71581,101.2865 38.30403,101.9833 C38.89027,102.6801 39.00081,103.7065 39.00081,103.7065 C39.00081,103.7065 39.60087,106.3693 42.04652,105.4277 z" stroke="Black" stroke-width="0" fill="#49674E" fill-opacity="1" />
  <path d="M35.62547,88.96948 L35.85246,88.98724 L36.60649,88.82934 C37.30327,88.57076 37.93491,88.82934 37.93491,88.82934 C37.93491,88.82934 39.39756,88.60431 39.4548,88.32204 C39.46862,88.19374 40.22462,91.25919 39.83774,91.66581 C39.44888,92.07046 38.63762,91.86912 38.63762,91.86912 L37.94675,92.41193 C37.61712,92.54419 37.30524,92.49484 37.08219,92.41391 L36.09328,92.63103 C35.24253,92.59354 35.46756,91.61646 35.41031,91.1526 L35.06686,88.70695 C35.10041,88.81947 35.24451,88.92408 35.62547,88.96948 z" stroke="Black" stroke-width="0" fill="#49674E" fill-opacity="1" />
  <path d="M35.33614,88.26751 L35.62547,88.96948 C35.24451,88.92408 35.10041,88.81947 35.0708,88.70695 C35.01952,88.50756 35.32149,88.27862 35.32149,88.27862 z" stroke="Black" stroke-width="0" fill="#49674E" fill-opacity="1" />
  <path d="M46.6437,84.02489 C46.6437,84.02489 47.53392,85.37109 47.11743,86.55739 C46.70291,87.7437 44.78429,89.42545 44.78429,89.42545 L44.42505,86.67188 C44.43689,86.66991 44.62046,86.77847 44.94615,86.46462 L45.60148,85.73626 L45.5324,84.84011 L46.12456,83.84132 C45.92323,83.77224 45.95284,83.1781 45.95876,83.08533 C46.17786,83.08335 46.52921,82.98071 46.60422,83.61038 z" stroke="#FFFFFF" stroke-width="0.24" fill="none" />
  <path d="M46.12456,83.84132 L45.5324,84.84011 L45.42581,83.01624 L45.02708,77.96507 C45.11196,78.35195 45.92323,82.15958 45.79295,82.79911 C45.74163,83.05177 45.82651,83.0873 45.95876,83.08533 C45.95284,83.1781 45.92323,83.77224 46.11272,83.82948 z" stroke="#FFFFFF" stroke-width="0.24" fill="none" />
  <path d="M34.93855,83.13665 C34.8063,80.5173 34.82012,76.21028 35.01948,71.48086 C35.30372,64.76373 36.55122,60.66396 36.55122,60.44683 C36.55122,60.23168 36.4841,59.31382 37.09206,56.73396 C37.69804,54.15409 37.19865,54.09882 37.96847,53.28952 C38.73828,52.47826 39.17056,53.78892 39.17056,53.78892 C39.17056,53.78892 40.36674,57.70116 40.73783,58.36241 C41.10892,59.02564 42.30115,63.76493 42.30115,63.76493 C42.30115,63.76493 43.20124,66.41389 43.65128,69.06087 L44.89483,75.12662 L44.97576,77.21696 L45.02708,77.9552 L45.42581,83.01624 L45.5324,84.84011 L45.58372,85.71849 L44.94615,86.46462 C44.62046,86.77847 44.43689,86.66991 44.43689,86.66991 L44.77245,89.42742 L45.03893,92.52248 C45.06853,94.53979 45.68044,97.93092 45.95481,98.60402 C46.22918,99.27711 46.88056,101.1681 43.72037,103.5782 L43.65721,103.8703 C43.47758,104.5928 42.73935,105.0744 42.32878,105.2935 L42.04652,105.4277 C39.60087,106.3693 39.00081,103.7065 39.00081,103.7065 C39.00081,103.7065 38.89027,102.6801 38.30403,101.9833 C37.71581,101.2865 37.77108,100.9865 37.77108,100.9865 C37.77108,100.9865 36.29461,98.32175 35.84259,96.24522 C35.39255,94.16672 36.08933,92.71986 36.08933,92.71986 L37.08219,92.41391 C37.30524,92.49484 37.61712,92.54419 37.94675,92.41193 L38.62972,91.8632 C38.63762,91.86912 39.44888,92.07046 39.83774,91.66581 C40.22462,91.25919 39.46862,88.19374 39.46862,88.19374 C39.39756,88.60431 37.93491,88.82934 37.93491,88.82934 C37.93491,88.82934 37.30327,88.57076 36.60649,88.82934 L35.85246,88.98724 L35.62547,88.96948 C35.58796,88.88855 35.17147,87.99833 34.9879,87.05481 C34.79446,86.0659 34.93066,83.13665 34.93066,83.13665 z" stroke="#FFFFFF" stroke-width="0.24" fill="none" />
  <path d="M42.33668,105.3073 C41.82742,106.1679 41.16024,106.3594 40.39437,106.0396 C39.63048,105.7218 37.83227,103.0156 37.83227,103.0156 L35.63533,100.724 C35.23661,100.2621 35.29977,99.49818 35.29977,99.49818 L35.15765,98.82904 C34.96619,98.44611 35.15765,97.96842 35.15765,97.96842 L35.41031,91.1526 C35.46756,91.61646 35.24253,92.59354 36.09328,92.63103 C36.08933,92.71986 35.39255,94.16672 35.84259,96.24522 C36.29461,98.32175 37.77108,100.9865 37.77108,100.9865 C37.77108,100.9865 37.71581,101.2865 38.30403,101.9833 C38.89027,102.6801 39.00081,103.7065 39.00081,103.7065 C39.00081,103.7065 39.60087,106.3693 42.04652,105.4277 z" stroke="#FFFFFF" stroke-width="0.24" fill="none" />
  <path d="M35.62547,88.96948 L35.85246,88.98724 L36.60649,88.82934 C37.30327,88.57076 37.93491,88.82934 37.93491,88.82934 C37.93491,88.82934 39.39756,88.60431 39.4548,88.32204 C39.46862,88.19374 40.22462,91.25919 39.83774,91.66581 C39.44888,92.07046 38.63762,91.86912 38.63762,91.86912 L37.94675,92.41193 C37.61712,92.54419 37.30524,92.49484 37.08219,92.41391 L36.09328,92.63103 C35.24253,92.59354 35.46756,91.61646 35.41031,91.1526 L35.06686,88.70695 C35.10041,88.81947 35.24451,88.92408 35.62547,88.96948 z" stroke="#FFFFFF" stroke-width="0.24" fill="none" />
  <path d="M45.02708,77.96507 L45.42581,83.01624 L45.5324,84.84011 L45.58372,85.71849" stroke="#FFFFFF" stroke-width="0.24" fill="none" />
  <path d="M35.17739,85.45202 L34.93855,83.13665 C34.8063,80.5173 34.82012,76.21028 35.01948,71.48086 C35.30372,64.76373 36.55122,60.66396 36.55122,60.44683 C36.55122,60.23168 36.4841,59.31382 37.09206,56.73396 C37.69804,54.15409 37.19865,54.09882 37.96847,53.28952 C38.73828,52.47826 39.17056,53.78892 39.17056,53.78892 C39.17056,53.78892 40.36674,57.70116 40.73783,58.36241 C41.10892,59.02564 42.30115,63.76493 42.30115,63.76493 C42.30115,63.76493 43.20124,66.41389 43.65128,69.06087 L44.89483,75.12662 L44.97576,77.21696 L45.02708,77.9552" stroke="#FFFFFF" stroke-width="0.24" fill="none" />
  <path d="M34.93066,83.13665 C34.93066,83.13665 34.79446,86.0659 34.9879,87.05481 C35.17147,87.99833 35.58796,88.88855 35.62547,88.96948" stroke="#FFFFFF" stroke-width="0.24" fill="none" />
  <path d="M39.06397,88.53325 C39.06397,88.53325 39.3798,84.76115 39.36401,80.70482 L39.41138,74.1456 C39.41138,74.1456 39.34624,68.67794 38.76987,63.89916 C38.19349,59.12038 38.21718,57.87881 38.21718,57.87881 C38.21718,57.87881 37.99413,57.61628 38.11059,56.65697 C38.22507,55.69964 38.00992,55.13708 38.40667,54.95549" stroke="#FFFFFF" stroke-width="0.24" fill="none" />
  <path d="M35.06686,88.70695 L35.41031,91.1526 C35.46756,91.61646 35.24253,92.59354 36.09328,92.63103 L37.08219,92.41391 L37.08219,92.41391 C37.30524,92.49484 37.61712,92.54419 37.94675,92.41193 L38.62972,91.8632 L39.12319,91.32827" stroke="#FFFFFF" stroke-width="0.24" fill="none" />
  <path d="M39.46862,88.19374 C39.46862,88.19374 40.22462,91.25919 39.83774,91.66581 C39.44888,92.07046 38.63762,91.86912 38.63762,91.86912" stroke="#FFFFFF" stroke-width="0.24" fill="none" />
  <path d="M36.67952,92.8304 C36.67952,92.8304 35.13002,95.24841 36.90652,95.6274 C38.68104,96.00441 39.77852,95.19117 39.77852,95.19117" stroke="#FFFFFF" stroke-width="0.24" fill="none" />
  <path d="M35.41031,91.1526 L35.15765,97.96842 C35.15765,97.96842 34.96619,98.44611 35.15765,98.82904 L35.29977,99.49818 C35.29977,99.49818 35.23661,100.2621 35.63533,100.724 L37.83227,103.0156 C37.83227,103.0156 39.63048,105.7218 40.39437,106.0396 C41.16024,106.3594 41.82742,106.1679 42.33668,105.3073" stroke="#FFFFFF" stroke-width="0.24" fill="none" />
  <path d="M36.08933,92.71986 C36.08933,92.71986 35.39255,94.16672 35.84259,96.24522 C36.29461,98.32175 37.77108,100.9865 37.77108,100.9865 C37.77108,100.9865 37.71581,101.2865 38.30403,101.9833 C38.89027,102.6801 39.00081,103.7065 39.00081,103.7065 C39.00081,103.7065 39.60087,106.3693 42.04652,105.4277 L42.32878,105.2935 C42.73935,105.0744 43.47758,104.5928 43.65721,103.8703 L43.71445,103.5782 C43.8842,102.457 43.74998,100.4496 43.74998,100.4496 C43.74998,100.4496 43.54272,93.81734 42.98806,92.10796 C42.4334,90.39857 41.25499,88.43456 41.2767,87.34695 C41.29841,86.32053 40.68059,81.61478 40.61348,81.10749" stroke="#FFFFFF" stroke-width="0.24" fill="none" />
  <path d="M45.02708,77.96507 C45.11196,78.35195 45.92323,82.15958 45.79295,82.79911 C45.74163,83.05177 45.82651,83.0873 45.95876,83.08533 C46.17786,83.08335 46.52921,82.98071 46.60422,83.61038 L46.62988,84.02489 C46.63185,84.79472 46.40091,85.31384 46.60422,85.78561 L46.86082,86.47844" stroke="#FFFFFF" stroke-width="0.24" fill="none" />
  <path d="M46.6437,84.02489 C46.6437,84.02489 47.53392,85.37109 47.11743,86.55739 C46.70291,87.7437 44.78429,89.42545 44.78429,89.42545" stroke="#FFFFFF" stroke-width="0.24" fill="none" />
  <path d="M42.52025,72.6415 C42.52025,72.6415 42.90516,73.15471 42.77685,73.53962 C42.64855,73.92452 43.29006,77.61767 43.46969,78.07955" stroke="#FFFFFF" stroke-width="0.24" fill="none" />
  <path d="M39.89498,100.9174 C39.89498,100.9174 41.39513,96.15047 40.83258,92.62315 C40.27002,89.09383 40.42003,86.42909 40.42003,86.42909 L40.42003,82.03719 L40.61348,81.10749 L40.90759,79.82249 L41.0576,78.09732 C41.20761,77.30776 40.57005,75.43257 40.98259,74.56801" stroke="#FFFFFF" stroke-width="0.24" fill="none" />
  <path d="M42.83804,76.81429 L42.89923,77.97494 C42.89923,78.46446 42.68408,78.25128 42.77685,79.38034 C42.86765,80.51138 44.21384,84.08806 44.27503,85.2487 L44.42505,86.67188 L44.77245,89.42742 L45.03893,92.52248 C45.06853,94.53979 45.68044,97.93092 45.95481,98.60402 C46.22918,99.27711 46.88056,101.1681 43.72037,103.5782" stroke="#FFFFFF" stroke-width="0.24" fill="none" />
  <path d="M44.43689,86.66991 C44.43689,86.66991 44.62046,86.77847 44.94615,86.46462 L45.60148,85.73626 L46.04956,85.47965" stroke="#FFFFFF" stroke-width="0.24" fill="none" />
  <path d="M45.95876,83.08533 C45.95284,83.1781 45.92323,83.77224 46.11272,83.82948" stroke="#FFFFFF" stroke-width="0.24" fill="none" />
  <path d="M45.5324,84.84011 L46.12456,83.84132 L46.31406,83.68736" stroke="#FFFFFF" stroke-width="0.24" fill="none" />
  <path d="M35.32149,88.27862 C35.32149,88.27862 35.01948,88.50759 35.0708,88.70695 C35.10041,88.81947 35.24451,88.92408 35.62547,88.96948 L35.85246,88.98724 L36.60649,88.82934 C37.30327,88.57076 37.93491,88.82934 37.93491,88.82934 C37.93491,88.82934 39.39756,88.60431 39.4548,88.32204 L39.18438,87.89568" stroke="#FFFFFF" stroke-width="0.24" fill="none" />
</svg>