<?xml version="1.0" encoding="utf-8" standalone="no"?>
<!DOCTYPE svg PUBLIC "-//W3C//DTD SVG 1.1//EN" "http://www.w3.org/Graphics/SVG/1.1/DTD/svg11.dtd">
<svg version="1.1" width="120pt" height="120pt" viewBox="0 0 120 120" overflow="visible" xmlns="http://www.w3.org/2000/svg">
  <path d="M57.5862,74.24271 C57.02058,73.50018 55.98651,72.57824 54.91257,71.71361 L55.07204,71.01343 L57.26975,72.91711 L57.36693,73.66962 z" stroke="Black" stroke-width="0" fill="#C6C8B9" fill-opacity="1" />
  <path d="M60.57628,66.36884 L61.53311,69.8174 L60.59372,69.80992 L60.24986,68.2476 L59.83125,66.35139 z" stroke="Black" stroke-width="0" fill="#C6C8B9" fill-opacity="1" />
  <path d="M69.60632,66.84725 C69.83805,67.23846 69.81313,67.62467 69.77327,68.07817 L69.58639,68.96274 L68.81893,70.75678 L68.24334,72.08238 L66.80312,72.3191 L65.92852,72.4387 L65.19845,72.50847 C66.19514,71.0533 66.31225,68.93034 66.24747,68.34479 L66.18766,68.03332 C66.25993,67.7966 66.44431,67.19111 66.83302,66.76254 C67.02239,66.55323 67.44599,66.08727 68.12374,66.05737 C68.72674,66.02997 69.31728,66.35638 69.60632,66.84725 z" stroke="Black" stroke-width="0" fill="#7D8E7F" fill-opacity="1" />
  <path d="M62.19591,81.14481 C62.21335,81.21209 62.46003,82.17639 62.06385,82.40314 C61.21416,82.33337 60.31216,82.10662 59.38523,81.69798 C58.90433,81.48369 58.43339,81.18717 57.82292,80.61407 C58.59286,80.25776 59.46746,79.81174 60.58874,79.48034 L61.37862,79.26356 L61.85454,79.6423 C61.94674,79.91141 61.91185,80.60162 62.19342,81.13983 z" stroke="Black" stroke-width="0" fill="#A48A7B" fill-opacity="1" />
  <path d="M68.8887,80.83584 C68.41528,81.21957 67.39616,81.85745 65.70177,82.23619 L64.37866,82.45297 C64.1569,82.02689 64.18929,80.68634 64.20673,80.27022 L64.34628,78.98946 L65.89114,79.2511 C66.57139,79.43798 67.64782,79.82918 68.79401,80.71126" stroke="Black" stroke-width="0" fill="#A48A7B" fill-opacity="1" />
  <path d="M55.65012,81.28186 L54.33947,82.4156 L52.11436,84.21712 L51.37431,82.8392 C50.5047,81.03268 49.96648,79.91639 50.12346,78.56089 C50.21566,77.76104 50.52214,77.10073 50.85105,76.60239 L51.7979,75.53094 C52.05206,75.32164 52.54293,74.92046 53.14843,74.69123 C53.6094,74.51681 54.13515,74.43956 54.67835,74.61897 L54.85775,74.68874 C55.58285,75.00768 55.96408,75.67048 56.09864,75.93211 C56.46243,75.20702 57.07789,74.6713 57.68089,74.41714 C57.96495,74.81581 58.35615,75.16216 58.82459,75.34157 L59.7565,75.46616 L59.84869,75.97447 L59.82627,76.44292 L59.53972,77.22034 L59.08871,77.89061 L58.42841,78.68797 L57.15513,79.93633 L56.73403,80.31756 z" stroke="Black" stroke-width="0" fill="#7D8E7F" fill-opacity="1" />
  <path d="M55.07204,71.01343 L54.89762,71.70364 L54.63848,72.04002 C53.92585,72.93456 53.31537,73.17625 52.84443,74.08574 L53.14843,74.69123 C52.54293,74.92046 52.05206,75.32164 51.7979,75.53094 L50.85105,76.60239 L47.15332,78.06503 C44.29779,79.15392 43.45808,79.59745 43.17402,79.25359 C42.71803,78.70042 43.94646,76.86402 44.67404,75.83493 C45.34183,74.89056 47.15332,72.79253 49.79954,71.48686 C50.80869,70.98602 52.11436,70.53502 53.16836,70.38053 L54.19246,70.34066 C54.53383,70.38053 54.79546,70.49017 54.935,70.69199 z" stroke="Black" stroke-width="0" fill="#7D8E7F" fill-opacity="1" />
  <path d="M58.64519,59.4169 L60.06548,64.53243 L59.31297,63.9992 L58.19169,58.92603 z" stroke="Black" stroke-width="0" fill="#C6C8B9" fill-opacity="1" />
  <path d="M64.23913,73.50765 L64.14195,74.72113 C63.96255,74.91299 63.46171,75.50104 63.49908,76.26601 C63.524,76.76435 63.76819,77.21037 64.12949,77.60157 L63.26735,78.63813 C63.36204,78.22948 63.09044,77.25273 62.96835,76.76186 L62.91851,75.43376 L63.28978,74.6389 z" stroke="Black" stroke-width="0" fill="#E18D68" fill-opacity="1" />
  <path d="M56.15595,73.48523 C56.23568,73.83906 55.52554,74.29504 54.8727,74.65884 L54.67835,74.61897 C54.13515,74.43956 53.6094,74.51681 53.14843,74.69123 L52.84443,74.08574 C52.95656,73.95617 54.38682,72.93207 55.40095,73.08656 C55.49813,73.1015 56.08867,73.19121 56.15595,73.48523 z" stroke="Black" stroke-width="0" fill="#7D8E7F" fill-opacity="1" />
  <path d="M66.8679,62.95267 L63.60374,65.65372 L62.5896,66.70772 L62.05637,67.31321 C61.89441,67.09892 61.55304,66.58562 61.60038,65.96767 C61.69507,65.31982 62.05139,64.9037 62.70173,64.45768 L64.63282,63.53076 L66.74581,62.96015" stroke="Black" stroke-width="0" fill="#7D8E7F" fill-opacity="1" />
  <path d="M59.46995,70.07654 L59.04137,70.29082 L57.19749,66.38379 L56.82622,65.51667 L57.36195,65.71352 z" stroke="Black" stroke-width="0" fill="#C6C8B9" fill-opacity="1" />
  <path d="M67.69765,74.29504 C67.48087,74.18291 66.28733,73.37808 65.92852,72.44119 L66.80312,72.3191 L68.24334,72.08238 L68.81893,70.75678 L69.58639,68.96274 L70.33889,69.01506 C71.41033,69.15459 72.36467,69.56573 72.92033,69.80494 C76.31905,71.26759 77.80661,74.21033 78.10562,74.84322 C78.77341,76.26849 78.94782,77.7436 79.01511,78.58331 C76.33898,78.13231 74.20606,78.26437 72.70604,78.48614 L71.04405,78.80508 L69.86795,79.08166 C68.81644,79.31837 67.93686,79.433 66.78319,79.09911 C66.12537,78.90724 65.30061,78.55092 64.64279,78.05257 L64.12949,77.60157 C63.76819,77.21037 63.524,76.76435 63.49908,76.26601 C63.46171,75.50104 63.96255,74.91299 64.14195,74.72113 L64.94678,74.16796 C65.73167,73.82909 66.74083,73.854 67.69765,74.29504 z" stroke="Black" stroke-width="0" fill="#7D8E7F" fill-opacity="1" />
  <path d="M57.70082,71.6862 L57.58371,71.93288 L57.41427,72.39883 L52.98896,68.62635 L53.5172,68.4619 z" stroke="Black" stroke-width="0" fill="#C6C8B9" fill-opacity="1" />
  <path d="M56.82622,65.51667 L54.32951,64.30817 L53.50973,63.7899 L50.91085,62.14785 C50.52214,61.90366 49.94406,61.54983 49.14421,61.50996 L48.01795,61.66196 L48.09021,60.96926 C48.1824,60.48337 48.38922,59.84549 48.85766,59.22504 C49.08441,58.92105 49.94904,57.85957 51.27464,57.66522 C52.49061,57.48581 52.62766,58.25576 56.21077,60.18436 C57.39932,60.82224 58.23904,61.196 58.51064,62.1005 C58.68505,62.68606 58.54801,63.24421 58.40847,63.62046 L59.31297,63.9992 L60.06049,64.53991 L60.55884,65.11799 L60.9027,65.95023 L60.8429,66.1695 L60.56881,66.33894 L59.8761,66.33645 L58.55798,66.07481 L57.6186,65.80073 L57.36195,65.71352 z" stroke="Black" stroke-width="0" fill="#7D8E7F" fill-opacity="1" />
  <path d="M71.38541,68.04328 L71.22096,67.78165 L71.10385,67.52251 C71.07146,67.4353 70.65534,66.23927 71.41532,65.37713 C71.94107,64.78161 72.93279,64.51997 73.1097,64.5125 C72.59889,64.37296 71.85137,64.10884 71.06897,63.5781 C70.4859,63.1869 69.82559,62.74088 69.47426,62.19519 L71.27827,61.57973 L73.23179,60.72008 L73.29658,59.14281 L74.62467,58.92603 C75.28249,58.68683 75.78582,58.2732 76.17702,57.79728 C77.60728,58.11871 78.66376,58.72919 78.91792,58.8762 C80.4628,59.76824 81.00849,60.75497 82.68792,61.08886 C83.66717,61.28571 84.5293,61.15863 85.10739,61.02158 C85.07749,61.88871 84.93297,63.88209 83.6572,65.4469 C82.91965,66.34891 82.02013,67.05656 80.56496,67.87634 C78.69118,68.93283 76.29413,69.99182 73.66286,69.31905 C73.21435,69.20443 72.0233,68.90044 71.38541,68.04328 z" stroke="Black" stroke-width="0" fill="#7D8E7F" fill-opacity="1" />
  <path d="M64.25408,78.45872 L64.34628,78.98946 L64.20673,80.27022 C64.18929,80.68634 64.1569,82.02689 64.37368,82.40314 L62.05886,82.43803 C62.46003,82.17639 62.21335,81.21209 62.19591,81.14481 C61.91185,80.60162 61.94674,79.91141 61.85454,79.6423 L61.38111,79.25858 L59.0937,77.8931 L59.53972,77.22034 L60.94755,77.97284 C60.78808,77.42964 59.83374,76.44292 59.83374,76.44292 L59.84869,75.97447 L59.7565,75.47114 L61.03476,75.26433 L61.98411,76.12398 L61.92431,75.38144 L62.1087,75.46616 L62.72665,75.96201 L62.91851,75.43376 L62.96835,76.76186 C63.09044,77.25273 63.36204,78.22948 63.26735,78.63813 L64.12949,77.60157 L64.64279,78.05257 z" stroke="Black" stroke-width="0" fill="#C6C8B9" fill-opacity="1" />
  <path d="M69.47426,62.19519 L67.33884,62.80317 L66.86292,62.93025 L64.63282,63.53076 C64.70509,62.75084 64.99661,61.7093 65.47253,60.74998 C66.06059,59.56641 66.79813,58.85627 67.45097,58.23832 C68.41776,57.32385 68.87375,56.9177 69.60133,56.74826 C69.79569,56.70341 71.27578,56.38447 72.42696,57.40608 C72.90787,57.83216 73.19193,58.46507 73.29658,59.14281 L73.23179,60.72008 L71.27827,61.57973 z" stroke="Black" stroke-width="0" fill="#7D8E7F" fill-opacity="1" />
  <path d="M61.37862,79.26356 L60.58874,79.48034 C59.46746,79.81174 58.59286,80.25776 58.00731,80.60411 L57.15762,79.93882 L58.42841,78.68797 L59.08871,77.89061 z" stroke="Black" stroke-width="0" fill="#E18D68" fill-opacity="1" />
  <path d="M61.92431,75.38144 L61.99408,76.12398 L61.03725,75.28675 z" stroke="Black" stroke-width="0" fill="#E18D68" fill-opacity="1" />
  <path d="M66.86292,62.93025 L67.33884,62.80317 C67.27655,62.96762 66.55145,64.8738 65.91357,67.34311 L65.55227,66.82732 z" stroke="Black" stroke-width="0" fill="#C6C8B9" fill-opacity="1" />
  <path d="M58.54558,66.07173 L60.27153,68.34519 L60.59123,69.785 L60.31963,69.83982 L57.6161,65.81069 z" stroke="Black" stroke-width="0" fill="#C6C8B9" fill-opacity="1" />
  <path d="M54.32452,64.31565 C54.02801,64.67446 53.45242,65.01334 52.68247,65.30238 L51.82781,65.04075 C51.32946,64.91118 49.90917,64.3929 47.62924,65.00088 C45.39664,65.59641 44.54447,66.48097 44.15576,67.54992 L43.97636,68.17784 L41.93812,68.52419 C40.07929,68.72602 38.51448,68.57402 37.10914,68.43199 C35.34001,68.25259 34.95379,68.07568 33.63317,68.09312 L31.17134,68.3398 L31.11154,68.06322 L33.87986,66.00256 C36.74036,63.93193 38.17062,62.89537 39.1698,62.3721 C42.41404,60.67523 45.75546,60.65779 48.08024,60.96676 L48.01795,61.66196 L49.14421,61.50996 C49.94406,61.54983 50.52214,61.90366 50.91085,62.14785 L53.50973,63.7899 z" stroke="Black" stroke-width="0" fill="#7D8E7F" fill-opacity="1" />
  <path d="M52.57034,67.04908 C52.80207,66.94692 55.1144,65.96518 56.44001,66.43612 L56.67672,66.60805 C56.81875,66.92699 55.91674,67.44776 54.96241,67.89378 L53.5172,68.4619 L52.98896,68.62137 L52.12682,68.82818 L51.67332,68.91041 L51.23976,68.98516 L48.61347,69.66042 C46.78703,70.33817 44.63916,71.68371 44.63916,71.68371 C44.41739,71.20529 44.14081,70.4802 44.01871,69.56324 L43.97636,68.17784 L44.15576,67.54992 C44.54447,66.48097 45.39664,65.59641 47.62924,65.00088 C49.90917,64.3929 51.32946,64.91118 51.82781,65.04075 L52.67749,65.31733 C53.10357,65.49673 53.52219,65.75837 53.53215,66.09973 C53.5471,66.57565 52.76968,66.9544 52.57034,67.04908 z" stroke="Black" stroke-width="0" fill="#7D8E7F" fill-opacity="1" />
  <path d="M62.91851,75.43376 L62.72665,75.96201 L62.1087,75.46616 L61.92431,75.38144 L61.03476,75.26433 L59.7565,75.46616 L58.82459,75.34157 C58.35615,75.16216 57.96495,74.81581 57.69833,74.40717 L57.59617,74.23773 L57.36693,73.66962 L57.30962,72.9221 L57.41427,72.39883 L57.58371,71.93288 L57.70082,71.6862 C58.05215,71.01094 58.56794,70.59731 58.89935,70.38053 L59.46995,70.07654 L60.31963,69.84232 L60.59372,69.80992 L61.52812,69.84481 L62.01401,69.95195 C62.02398,69.53832 62.1984,68.18531 63.05306,67.26088 L63.20008,67.10639 C63.52898,66.77499 64.23165,66.15954 64.8521,66.35139 L65.55227,66.82732 L65.91357,67.34311 L66.18766,68.03332 L66.24747,68.34479 C66.31225,68.93034 66.19514,71.0533 65.18349,72.4985 L64.96671,72.78256 L64.22667,73.49519 L63.28978,74.6389 z" stroke="Black" stroke-width="0" fill="#7D8E7F" fill-opacity="1" />
  <path d="M69.87045,79.09163 C69.77077,79.53017 69.57393,80.06091 69.18522,80.55677 L68.8887,80.83584 C67.64782,79.82918 66.57139,79.43798 65.89114,79.2511 L64.38365,78.98698 L64.25408,78.45872 L64.6378,78.06005 C65.30061,78.55092 66.12537,78.90724 66.78319,79.09911 C67.93686,79.433 68.81644,79.31837 69.86795,79.08166 z" stroke="Black" stroke-width="0" fill="#E18D68" fill-opacity="1" />
  <path d="M60.85785,54.78976 C62.05388,56.55391 62.16102,57.51073 62.18594,57.92187 C62.21335,58.38782 62.2881,59.64365 61.62032,59.95263 C61.14938,60.16941 60.36448,59.91276 59.76149,59.27488 C60.53392,60.54317 61.29141,61.43023 61.88444,62.03572 C62.36285,62.52659 63.02565,63.12959 62.87117,63.69272 L62.49492,64.12878 C61.93926,64.13874 61.37862,63.23673 60.54638,62.03572 L58.65017,59.41192 L58.19169,58.92603 C57.09035,57.93433 56.55213,58.17353 54.61605,57.18182 C52.82948,56.26736 52.49559,55.65439 50.60437,54.30387 C49.43824,53.46914 47.71395,52.38025 45.37422,51.36861 L46.56527,50.40431 L47.80117,49.40014 C48.99221,48.67255 50.42995,48.91924 50.92082,49.00146 L52.09442,49.33785 L53.25557,49.66426 C54.71822,49.99317 55.45328,49.81128 56.51226,50.195 C57.48653,50.55132 58.25648,51.49319 59.79886,53.37695 z" stroke="Black" stroke-width="0" fill="#7D8E7F" fill-opacity="1" />
  <path d="M60.94755,77.97284 L59.54221,77.22034 L59.82627,76.44292 C59.83374,76.44292 60.78808,77.42964 60.94755,77.97284 z" stroke="Black" stroke-width="0" fill="#E18D68" fill-opacity="1" />
  <path d="M71.38541,68.04328 L70.34138,68.98516 L69.59137,68.96523 L71.19854,67.79411 z" stroke="Black" stroke-width="0" fill="#C6C8B9" fill-opacity="1" />
  <path d="M64.97169,72.78754 L64.93681,74.14304 L64.14195,74.72113 L64.23913,73.50765 z" stroke="Black" stroke-width="0" fill="#C6C8B9" fill-opacity="1" />
  <path d="M71.04405,78.81006 L71.04405,86.6939 C71.04405,86.6939 70.36131,94.07192 63.16519,94.07192 C55.96907,94.07192 55.65012,87.24209 55.65012,87.24209 L55.65012,81.28186 L56.73403,80.31756 L57.15513,79.93633 L57.82292,80.61407 C58.43339,81.18717 58.90433,81.48369 59.38523,81.69798 C60.31216,82.10662 61.21416,82.33337 62.05886,82.43803 L64.37866,82.45297 L65.70177,82.23619 C67.39616,81.85745 68.41528,81.21957 68.8887,80.83584 L69.18522,80.55677 C69.57393,80.06091 69.77077,79.53017 69.87045,79.09163 z" stroke="Black" stroke-width="0" fill="#E18D68" fill-opacity="1" />
  <path d="M78.52174,51.42592 C78.46941,52.80634 77.62222,55.06634 77.35062,55.70422 C77.089,56.3147 76.74513,57.11953 76.17951,57.79728 C75.78582,58.2732 75.28249,58.68683 74.62467,58.92603 L73.319,59.14032 C73.19193,58.46507 72.90787,57.83216 72.42696,57.40608 C71.27578,56.38447 69.79569,56.70341 69.60133,56.74826 C68.87375,56.9177 68.41776,57.32385 67.57307,58.1237 L66.94515,57.95675 C66.46923,57.63282 66.50163,56.91521 66.51657,56.56138 L66.79565,55.37283 C67.35379,54.06466 68.55231,53.18508 68.74667,53.04555 C69.93274,52.20085 71.70187,51.57044 73.52084,51.7623 C74.81404,51.89935 75.64379,52.40019 77.0566,52.05633 z" stroke="Black" stroke-width="0" fill="#7D8E7F" fill-opacity="1" />
  <path d="M66.37704,53.03309 C66.60129,54.2366 66.53401,54.89441 66.34714,55.318 L66.12537,55.67931 C65.71922,56.17516 65.05143,56.43929 64.44594,56.42184 C63.74826,56.40191 63.28728,56.01071 62.55721,55.39525 C62.1685,55.06634 61.48576,54.50321 60.98243,53.77562 L60.98243,54.30885 L60.85785,54.78976 L59.79886,53.37695 C58.25648,51.49319 57.48653,50.55132 56.51226,50.195 C55.45328,49.81128 54.71822,49.99317 53.25557,49.66426 L52.95407,48.62272 C52.58778,46.58448 53.68166,45.4931 53.42501,43.77132 C53.3353,43.16832 53.11853,41.4241 52.14177,40.41744 L54.35442,41.97727 C56.87107,43.5047 58.00481,43.42746 60.2399,44.69575 C61.27895,45.28629 62.78645,46.16089 64.14943,47.86274 C65.76905,49.88354 66.1453,51.77975 66.37704,53.03309 z" stroke="Black" stroke-width="0" fill="#7D8E7F" fill-opacity="1" />
  <path d="M53.16587,70.36807 L51.24225,68.99762 L51.67332,68.91041 L52.12634,68.82828 L54.19246,70.3307 z" stroke="Black" stroke-width="0" fill="#C6C8B9" fill-opacity="1" />
  <path d="M45.37422,51.36861 L46.56527,50.40431" stroke="#FFFFFF" stroke-width="0.05" fill="none" />
  <path d="M68.24334,72.08238 L66.80312,72.3191" stroke="#FFFFFF" stroke-width="0.05" fill="none" />
  <path d="M61.92431,75.38144 L62.1087,75.46616" stroke="#FFFFFF" stroke-width="0.05" fill="none" />
  <path d="M58.19169,58.92603 C57.09035,57.93433 56.55213,58.17353 54.61605,57.18182" stroke="#FFFFFF" stroke-width="0.05" fill="none" />
  <path d="M57.41427,72.39883 L57.58371,71.93288" stroke="#FFFFFF" stroke-width="0.05" fill="none" />
  <path d="M54.67835,74.61897 L54.85775,74.68874" stroke="#FFFFFF" stroke-width="0.05" fill="none" />
  <path d="M47.80117,49.40014 C48.99221,48.67255 50.42995,48.91924 50.92082,49.00146" stroke="#FFFFFF" stroke-width="0.05" fill="none" />
  <path d="M65.91357,67.34311 L65.55227,66.82732" stroke="#FFFFFF" stroke-width="0.05" fill="none" />
  <path d="M51.7979,75.53094 C52.05206,75.32164 52.54293,74.92046 53.14843,74.69123" stroke="#FFFFFF" stroke-width="0.05" fill="none" />
  <path d="M62.05886,82.43803 L64.37866,82.45297" stroke="#FFFFFF" stroke-width="0.05" fill="none" />
  <path d="M47.62924,65.00088 C45.39664,65.59641 44.54447,66.48097 44.15576,67.54992" stroke="#FFFFFF" stroke-width="0.05" fill="none" />
  <path d="M62.19591,81.14481 C62.21335,81.21209 62.46003,82.17639 62.06385,82.40314" stroke="#FFFFFF" stroke-width="0.05" fill="none" />
  <path d="M66.37704,53.03309 C66.1453,51.77975 65.76905,49.88354 64.14943,47.86274" stroke="#FFFFFF" stroke-width="0.05" fill="none" />
  <path d="M66.51657,56.56138 L66.79565,55.37283" stroke="#FFFFFF" stroke-width="0.05" fill="none" />
  <path d="M71.27827,61.57973 L69.47426,62.19519" stroke="#FFFFFF" stroke-width="0.05" fill="none" />
  <path d="M52.12682,68.82818 L52.98896,68.62137" stroke="#FFFFFF" stroke-width="0.05" fill="none" />
  <path d="M72.70604,78.48614 C74.20606,78.26437 76.33898,78.13231 79.01511,78.58331" stroke="#FFFFFF" stroke-width="0.05" fill="none" />
  <path d="M59.38523,81.69798 C58.90433,81.48369 58.43339,81.18717 57.82292,80.61407" stroke="#FFFFFF" stroke-width="0.05" fill="none" />
  <path d="M59.79886,53.37695 L60.85785,54.78976" stroke="#FFFFFF" stroke-width="0.05" fill="none" />
  <path d="M57.59617,74.23773 L57.69833,74.40717" stroke="#FFFFFF" stroke-width="0.05" fill="none" />
  <path d="M61.53313,69.81742 L60.57631,66.36887" stroke="#FFFFFF" stroke-width="0.05" fill="none" />
  <path d="M56.73403,80.31756 L55.65012,81.28186" stroke="#FFFFFF" stroke-width="0.05" fill="none" />
  <path d="M68.79401,80.71126 C67.64782,79.82918 66.57139,79.43798 65.89114,79.2511" stroke="#FFFFFF" stroke-width="0.05" fill="none" />
  <path d="M53.50973,63.7899 L54.32951,64.30817" stroke="#FFFFFF" stroke-width="0.05" fill="none" />
  <path d="M66.80312,72.3191 L68.24334,72.08238" stroke="#FFFFFF" stroke-width="0.05" fill="none" />
  <path d="M71.27827,61.57973 L73.23179,60.72008" stroke="#FFFFFF" stroke-width="0.05" fill="none" />
  <path d="M62.72665,75.96201 L62.1087,75.46616" stroke="#FFFFFF" stroke-width="0.05" fill="none" />
  <path d="M61.99408,76.12398 L61.92431,75.38144" stroke="#FFFFFF" stroke-width="0.05" fill="none" />
  <path d="M52.57034,67.04908 C52.76968,66.9544 53.5471,66.57565 53.53215,66.09973" stroke="#FFFFFF" stroke-width="0.05" fill="none" />
  <path d="M58.65017,59.41192 L58.19169,58.92603" stroke="#FFFFFF" stroke-width="0.05" fill="none" />
  <path d="M64.63282,63.53076 L66.74581,62.96015" stroke="#FFFFFF" stroke-width="0.05" fill="none" />
  <path d="M54.61605,57.18182 C52.82948,56.26736 52.49559,55.65439 50.60437,54.30387" stroke="#FFFFFF" stroke-width="0.05" fill="none" />
  <path d="M60.06049,64.53991 L59.31297,63.9992" stroke="#FFFFFF" stroke-width="0.05" fill="none" />
  <path d="M64.96671,72.78256 L65.18349,72.4985" stroke="#FFFFFF" stroke-width="0.05" fill="none" />
  <path d="M52.95407,48.62272 C52.58778,46.58448 53.68166,45.4931 53.42501,43.77132" stroke="#FFFFFF" stroke-width="0.05" fill="none" />
  <path d="M62.05886,82.43803 L64.37866,82.45297" stroke="#FFFFFF" stroke-width="0.05" fill="none" />
  <path d="M60.58874,79.48034 L61.37862,79.26356" stroke="#FFFFFF" stroke-width="0.05" fill="none" />
  <path d="M44.67404,75.83493 C43.94646,76.86402 42.71803,78.70042 43.17402,79.25359" stroke="#FFFFFF" stroke-width="0.05" fill="none" />
  <path d="M63.60374,65.65372 L62.5896,66.70772" stroke="#FFFFFF" stroke-width="0.05" fill="none" />
  <path d="M62.96835,76.76186 L62.91851,75.43376" stroke="#FFFFFF" stroke-width="0.05" fill="none" />
  <path d="M44.15576,67.54992 L43.97636,68.17784" stroke="#FFFFFF" stroke-width="0.05" fill="none" />
  <path d="M53.16836,70.38053 C52.11436,70.53502 50.80869,70.98602 49.79954,71.48686" stroke="#FFFFFF" stroke-width="0.05" fill="none" />
  <path d="M57.69833,74.40717 C57.96495,74.81581 58.35615,75.16216 58.82459,75.34157" stroke="#FFFFFF" stroke-width="0.05" fill="none" />
  <path d="M58.65017,59.41192 L58.19169,58.92603" stroke="#FFFFFF" stroke-width="0.05" fill="none" />
  <path d="M62.01401,69.95195 L61.52812,69.84481" stroke="#FFFFFF" stroke-width="0.05" fill="none" />
  <path d="M64.62534,63.50335 C64.70509,62.75084 64.99661,61.7093 65.47253,60.74998" stroke="#FFFFFF" stroke-width="0.05" fill="none" />
  <path d="M60.98243,54.30885 L60.98243,53.77562" stroke="#FFFFFF" stroke-width="0.05" fill="none" />
  <path d="M59.83374,66.32897 L58.55798,66.07481" stroke="#FFFFFF" stroke-width="0.05" fill="none" />
  <path d="M82.68792,61.08886 C83.66717,61.28571 84.5293,61.15863 85.10739,61.02158" stroke="#FFFFFF" stroke-width="0.05" fill="none" />
  <path d="M60.59126,69.78503 L60.24989,68.24763" stroke="#FFFFFF" stroke-width="0.05" fill="none" />
  <path d="M56.15595,73.48523 C56.08867,73.19121 55.49813,73.1015 55.40095,73.08656" stroke="#FFFFFF" stroke-width="0.05" fill="none" />
  <path d="M56.82625,65.51669 L57.19751,66.38381" stroke="#FFFFFF" stroke-width="0.05" fill="none" />
  <path d="M52.12682,68.82818 L51.67332,68.91041" stroke="#FFFFFF" stroke-width="0.05" fill="none" />
  <path d="M50.85105,76.60239 L51.7979,75.53094" stroke="#FFFFFF" stroke-width="0.05" fill="none" />
  <path d="M43.96141,68.17535 L41.93812,68.52419" stroke="#FFFFFF" stroke-width="0.05" fill="none" />
  <path d="M60.59123,69.785 L60.27153,68.34519" stroke="#FFFFFF" stroke-width="0.05" fill="none" />
  <path d="M73.66286,69.31905 C76.29413,69.99182 78.69118,68.93283 80.56496,67.87634" stroke="#FFFFFF" stroke-width="0.05" fill="none" />
  <path d="M64.94678,74.16796 L64.14195,74.72113" stroke="#FFFFFF" stroke-width="0.05" fill="none" />
  <path d="M59.8761,66.33645 L60.56881,66.33894" stroke="#FFFFFF" stroke-width="0.05" fill="none" />
  <path d="M56.73403,80.31756 L57.15513,79.93633" stroke="#FFFFFF" stroke-width="0.05" fill="none" />
  <path d="M58.42841,78.68797 L59.08871,77.89061" stroke="#FFFFFF" stroke-width="0.05" fill="none" />
  <path d="M73.319,59.14032 L74.62467,58.92603" stroke="#FFFFFF" stroke-width="0.05" fill="none" />
  <path d="M55.65012,81.28186 L56.73403,80.31756" stroke="#FFFFFF" stroke-width="0.05" fill="none" />
  <path d="M71.19856,67.79414 L69.59139,68.96525" stroke="#FFFFFF" stroke-width="0.05" fill="none" />
  <path d="M71.22096,67.78165 L71.38541,68.04328" stroke="#FFFFFF" stroke-width="0.05" fill="none" />
  <path d="M54.96241,67.89378 C55.91674,67.44776 56.81875,66.92699 56.67672,66.60805" stroke="#FFFFFF" stroke-width="0.05" fill="none" />
  <path d="M56.51226,50.195 C57.48653,50.55132 58.25648,51.49319 59.79886,53.37695" stroke="#FFFFFF" stroke-width="0.05" fill="none" />
  <path d="M54.32951,64.30817 L53.50973,63.7899" stroke="#FFFFFF" stroke-width="0.05" fill="none" />
  <path d="M55.65012,81.28186 L56.73403,80.31756" stroke="#FFFFFF" stroke-width="0.05" fill="none" />
  <path d="M73.23179,60.72008 L73.29658,59.14281" stroke="#FFFFFF" stroke-width="0.05" fill="none" />
  <path d="M48.01795,61.66196 L48.09021,60.96926" stroke="#FFFFFF" stroke-width="0.05" fill="none" />
  <path d="M64.14198,74.72115 L64.23915,73.50768" stroke="#FFFFFF" stroke-width="0.05" fill="none" />
  <path d="M66.79565,55.37283 C67.35379,54.06466 68.55231,53.18508 68.74667,53.04555" stroke="#FFFFFF" stroke-width="0.05" fill="none" />
  <path d="M58.42841,78.68797 L57.15513,79.93633" stroke="#FFFFFF" stroke-width="0.05" fill="none" />
  <path d="M59.38523,81.69798 C60.31216,82.10662 61.21416,82.33337 62.05886,82.43803" stroke="#FFFFFF" stroke-width="0.05" fill="none" />
  <path d="M59.08871,77.89061 L59.53972,77.22034" stroke="#FFFFFF" stroke-width="0.05" fill="none" />
  <path d="M64.64279,78.05257 L64.12949,77.60157" stroke="#FFFFFF" stroke-width="0.05" fill="none" />
  <path d="M64.6378,78.06005 L64.25159,78.45624" stroke="#FFFFFF" stroke-width="0.05" fill="none" />
  <path d="M68.81893,70.75678 L69.58639,68.96274" stroke="#FFFFFF" stroke-width="0.05" fill="none" />
  <path d="M66.12537,55.67931 L66.34714,55.318" stroke="#FFFFFF" stroke-width="0.05" fill="none" />
  <path d="M43.97636,68.17784 L44.01871,69.56324" stroke="#FFFFFF" stroke-width="0.05" fill="none" />
  <path d="M61.03476,75.26433 L61.92431,75.38144" stroke="#FFFFFF" stroke-width="0.05" fill="none" />
  <path d="M48.01795,61.66196 L49.14421,61.50996" stroke="#FFFFFF" stroke-width="0.05" fill="none" />
  <path d="M64.20673,80.27022 C64.18929,80.68634 64.1569,82.02689 64.37368,82.40314" stroke="#FFFFFF" stroke-width="0.05" fill="none" />
  <path d="M71.04405,78.80508 L69.86795,79.08166" stroke="#FFFFFF" stroke-width="0.05" fill="none" />
  <path d="M66.34714,55.318 C66.53401,54.89441 66.60129,54.2366 66.37704,53.03309" stroke="#FFFFFF" stroke-width="0.05" fill="none" />
  <path d="M55.07454,71.01343 L57.26975,72.91711" stroke="#FFFFFF" stroke-width="0.05" fill="none" />
  <path d="M67.69765,74.29504 C67.48087,74.18291 66.28733,73.37808 65.92852,72.44119" stroke="#FFFFFF" stroke-width="0.05" fill="none" />
  <path d="M69.59137,68.96523 L70.33889,69.01506" stroke="#FFFFFF" stroke-width="0.05" fill="none" />
  <path d="M83.6572,65.4469 C84.93297,63.88209 85.07749,61.88871 85.10739,61.02158" stroke="#FFFFFF" stroke-width="0.05" fill="none" />
  <path d="M48.09021,60.96926 L48.01795,61.66196" stroke="#FFFFFF" stroke-width="0.05" fill="none" />
  <path d="M57.36195,65.71352 L56.82622,65.51667" stroke="#FFFFFF" stroke-width="0.05" fill="none" />
  <path d="M66.78319,79.09911 C67.93686,79.433 68.81644,79.31837 69.86795,79.08166" stroke="#FFFFFF" stroke-width="0.05" fill="none" />
  <path d="M62.72665,75.96201 L62.91851,75.43376" stroke="#FFFFFF" stroke-width="0.05" fill="none" />
  <path d="M65.18349,72.4985 C66.19514,71.0533 66.31225,68.93034 66.24747,68.34479" stroke="#FFFFFF" stroke-width="0.05" fill="none" />
  <path d="M57.15513,79.93633 L58.42841,78.68797" stroke="#FFFFFF" stroke-width="0.05" fill="none" />
  <path d="M57.58371,71.93288 L57.41427,72.39883" stroke="#FFFFFF" stroke-width="0.05" fill="none" />
  <path d="M67.69765,74.29504 C66.74083,73.854 65.73167,73.82909 64.94678,74.16796" stroke="#FFFFFF" stroke-width="0.05" fill="none" />
  <path d="M39.1698,62.3721 C42.41404,60.67523 45.75546,60.65779 48.08024,60.96676" stroke="#FFFFFF" stroke-width="0.05" fill="none" />
  <path d="M61.37862,79.26356 L60.58874,79.48034" stroke="#FFFFFF" stroke-width="0.05" fill="none" />
  <path d="M56.82622,65.51667 L57.36195,65.71352" stroke="#FFFFFF" stroke-width="0.05" fill="none" />
  <path d="M53.14843,74.69123 C52.54293,74.92046 52.05206,75.32164 51.7979,75.53094" stroke="#FFFFFF" stroke-width="0.05" fill="none" />
  <path d="M74.62467,58.92603 C75.28249,58.68683 75.78582,58.2732 76.17702,57.79728" stroke="#FFFFFF" stroke-width="0.05" fill="none" />
  <path d="M60.31963,69.84232 L59.46995,70.07654" stroke="#FFFFFF" stroke-width="0.05" fill="none" />
  <path d="M52.84443,74.08574 C53.31537,73.17625 53.92585,72.93456 54.63848,72.04002" stroke="#FFFFFF" stroke-width="0.05" fill="none" />
  <path d="M73.29658,59.14281 L73.23179,60.72008" stroke="#FFFFFF" stroke-width="0.05" fill="none" />
  <path d="M69.58639,68.96274 L68.81893,70.75678" stroke="#FFFFFF" stroke-width="0.05" fill="none" />
  <path d="M59.79886,53.37695 L60.85785,54.78976" stroke="#FFFFFF" stroke-width="0.05" fill="none" />
  <path d="M47.62924,65.00088 C49.90917,64.3929 51.32946,64.91118 51.82781,65.04075" stroke="#FFFFFF" stroke-width="0.05" fill="none" />
  <path d="M50.91085,62.14785 C50.52214,61.90366 49.94406,61.54983 49.14421,61.50996" stroke="#FFFFFF" stroke-width="0.05" fill="none" />
  <path d="M57.30962,72.9221 L57.36693,73.66962" stroke="#FFFFFF" stroke-width="0.05" fill="none" />
  <path d="M77.35062,55.70422 C77.62222,55.06634 78.46941,52.80634 78.52174,51.42592" stroke="#FFFFFF" stroke-width="0.05" fill="none" />
  <path d="M67.55811,58.10875 L66.94515,57.95675" stroke="#FFFFFF" stroke-width="0.05" fill="none" />
  <path d="M64.37866,82.45297 L62.05886,82.43803" stroke="#FFFFFF" stroke-width="0.05" fill="none" />
  <path d="M54.32951,64.30817 L53.50973,63.7899" stroke="#FFFFFF" stroke-width="0.05" fill="none" />
  <path d="M57.6186,65.80073 L57.36195,65.71352" stroke="#FFFFFF" stroke-width="0.05" fill="none" />
  <path d="M61.38111,79.25858 L61.85454,79.6423" stroke="#FFFFFF" stroke-width="0.05" fill="none" />
  <path d="M60.31963,69.83982 L60.59372,69.80992" stroke="#FFFFFF" stroke-width="0.05" fill="none" />
  <path d="M47.15332,78.06503 L50.84607,76.59989" stroke="#FFFFFF" stroke-width="0.05" fill="none" />
  <path d="M67.33884,62.80317 C67.27655,62.96762 66.55145,64.8738 65.91357,67.34311" stroke="#FFFFFF" stroke-width="0.05" fill="none" />
  <path d="M68.24334,72.08238 L68.81893,70.75678" stroke="#FFFFFF" stroke-width="0.05" fill="none" />
  <path d="M73.1097,64.5125 C72.93279,64.51997 71.94107,64.78161 71.41532,65.37713" stroke="#FFFFFF" stroke-width="0.05" fill="none" />
  <path d="M62.05886,82.43803 C61.21416,82.33337 60.31216,82.10662 59.38523,81.69798" stroke="#FFFFFF" stroke-width="0.05" fill="none" />
  <path d="M67.57307,58.1237 C68.41776,57.32385 68.87375,56.9177 69.60133,56.74826" stroke="#FFFFFF" stroke-width="0.05" fill="none" />
  <path d="M62.19591,81.14481 C62.21335,81.21209 62.46003,82.17639 62.06385,82.40314" stroke="#FFFFFF" stroke-width="0.05" fill="none" />
  <path d="M69.60632,66.84725 C69.83805,67.23846 69.81313,67.62467 69.77327,68.07817" stroke="#FFFFFF" stroke-width="0.05" fill="none" />
  <path d="M69.60133,56.74826 C69.79569,56.70341 71.27578,56.38447 72.42696,57.40608" stroke="#FFFFFF" stroke-width="0.05" fill="none" />
  <path d="M37.10914,68.43199 C35.34001,68.25259 34.95379,68.07568 33.63317,68.09312" stroke="#FFFFFF" stroke-width="0.05" fill="none" />
  <path d="M72.42696,57.40608 C72.90787,57.83216 73.19193,58.46507 73.29658,59.14281" stroke="#FFFFFF" stroke-width="0.05" fill="none" />
  <path d="M73.23179,60.72008 L71.27827,61.57973" stroke="#FFFFFF" stroke-width="0.05" fill="none" />
  <path d="M54.67835,74.61897 C54.13515,74.43956 53.6094,74.51681 53.14843,74.69123" stroke="#FFFFFF" stroke-width="0.05" fill="none" />
  <path d="M62.87117,63.69272 L62.49492,64.12878" stroke="#FFFFFF" stroke-width="0.05" fill="none" />
  <path d="M58.82459,75.34157 L59.7565,75.46616" stroke="#FFFFFF" stroke-width="0.05" fill="none" />
  <path d="M59.31546,77.59161 L62.01899,79.28848" stroke="#FFFFFF" stroke-width="0.05" fill="none" />
  <path d="M61.61284,65.85305 C61.69507,65.31982 62.05139,64.9037 62.70173,64.45768" stroke="#FFFFFF" stroke-width="0.05" fill="none" />
  <path d="M61.85454,79.6423 C61.94674,79.91141 61.91185,80.60162 62.19342,81.13983" stroke="#FFFFFF" stroke-width="0.05" fill="none" />
  <path d="M69.18522,80.55677 L68.8887,80.83584" stroke="#FFFFFF" stroke-width="0.05" fill="none" />
  <path d="M66.80312,72.3191 L65.92852,72.4387" stroke="#FFFFFF" stroke-width="0.05" fill="none" />
  <path d="M64.25408,78.45872 L64.34628,78.98946" stroke="#FFFFFF" stroke-width="0.05" fill="none" />
  <path d="M64.8521,66.35139 C64.23165,66.15954 63.52898,66.77499 63.20008,67.10639" stroke="#FFFFFF" stroke-width="0.05" fill="none" />
  <path d="M68.8887,80.83584 C68.41528,81.21957 67.39616,81.85745 65.70177,82.23619" stroke="#FFFFFF" stroke-width="0.05" fill="none" />
  <path d="M62.91851,75.42878 L63.28978,74.6389" stroke="#FFFFFF" stroke-width="0.05" fill="none" />
  <path d="M57.36693,73.66962 L57.59617,74.23773" stroke="#FFFFFF" stroke-width="0.05" fill="none" />
  <path d="M57.36693,73.66962 L57.59617,74.23773" stroke="#FFFFFF" stroke-width="0.05" fill="none" />
  <path d="M51.67332,68.91041 L51.23976,68.98516" stroke="#FFFFFF" stroke-width="0.05" fill="none" />
  <path d="M52.98898,68.62637 L57.38689,72.39138" stroke="#FFFFFF" stroke-width="0.05" fill="none" />
  <path d="M59.84869,75.97447 L59.82627,76.44292" stroke="#FFFFFF" stroke-width="0.05" fill="none" />
  <path d="M51.7979,75.53094 L50.85105,76.60239" stroke="#FFFFFF" stroke-width="0.05" fill="none" />
  <path d="M59.7565,75.47114 L59.84869,75.97447" stroke="#FFFFFF" stroke-width="0.05" fill="none" />
  <path d="M58.40847,63.62046 L59.31297,63.9992" stroke="#FFFFFF" stroke-width="0.05" fill="none" />
  <path d="M53.14843,74.69123 C52.54293,74.92046 52.05206,75.32164 51.7979,75.53094" stroke="#FFFFFF" stroke-width="0.05" fill="none" />
  <path d="M57.59617,74.23773 L57.36693,73.66962" stroke="#FFFFFF" stroke-width="0.05" fill="none" />
  <path d="M66.21507,68.02584 C66.25993,67.7966 66.44431,67.19111 66.83302,66.76254" stroke="#FFFFFF" stroke-width="0.05" fill="none" />
  <path d="M60.94757,77.97286 L62.04892,78.56341" stroke="#FFFFFF" stroke-width="0.05" fill="none" />
  <path d="M50.92082,49.00146 L52.09442,49.33785" stroke="#FFFFFF" stroke-width="0.05" fill="none" />
  <path d="M58.82459,75.34157 L59.7565,75.46616" stroke="#FFFFFF" stroke-width="0.05" fill="none" />
  <path d="M33.63317,68.09312 L31.17134,68.3398" stroke="#FFFFFF" stroke-width="0.05" fill="none" />
  <path d="M59.54224,77.22036 L60.94757,77.97286" stroke="#FFFFFF" stroke-width="0.05" fill="none" />
  <path d="M68.81893,70.75678 L68.24334,72.08238" stroke="#FFFFFF" stroke-width="0.05" fill="none" />
  <path d="M64.64279,78.05257 C65.30061,78.55092 66.12537,78.90724 66.78319,79.09911" stroke="#FFFFFF" stroke-width="0.05" fill="none" />
  <path d="M68.81893,70.75678 L68.24334,72.08238" stroke="#FFFFFF" stroke-width="0.05" fill="none" />
  <path d="M57.36195,65.71352 L57.6186,65.80073" stroke="#FFFFFF" stroke-width="0.05" fill="none" />
  <path d="M50.91085,62.14785 C50.52214,61.90366 49.94406,61.54983 49.14421,61.50996" stroke="#FFFFFF" stroke-width="0.05" fill="none" />
  <path d="M65.55227,66.82732 L64.8521,66.35139" stroke="#FFFFFF" stroke-width="0.05" fill="none" />
  <path d="M58.55798,66.07481 L57.6186,65.80073" stroke="#FFFFFF" stroke-width="0.05" fill="none" />
  <path d="M60.85785,54.78976 C62.05388,56.55391 62.16102,57.51073 62.18594,57.92187" stroke="#FFFFFF" stroke-width="0.05" fill="none" />
  <path d="M56.73403,80.31756 L57.15513,79.93633" stroke="#FFFFFF" stroke-width="0.05" fill="none" />
  <path d="M50.60437,54.30387 C49.43824,53.46914 47.71395,52.38025 45.37422,51.36861" stroke="#FFFFFF" stroke-width="0.05" fill="none" />
  <path d="M71.10385,67.52251 L71.22096,67.78165" stroke="#FFFFFF" stroke-width="0.05" fill="none" />
  <path d="M52.98896,68.62137 L53.5172,68.4619" stroke="#FFFFFF" stroke-width="0.05" fill="none" />
  <path d="M61.85454,79.6423 C61.94674,79.91141 61.91185,80.60162 62.19342,81.13983" stroke="#FFFFFF" stroke-width="0.05" fill="none" />
  <path d="M46.56527,50.40431 L47.80117,49.40014" stroke="#FFFFFF" stroke-width="0.05" fill="none" />
  <path d="M65.92852,72.4387 L65.19845,72.50847" stroke="#FFFFFF" stroke-width="0.05" fill="none" />
  <path d="M59.46995,70.07654 L59.04137,70.29082 C58.56794,70.59731 58.05215,71.01094 57.70082,71.6862 L57.58371,71.93288" stroke="#FFFFFF" stroke-width="0.05" fill="none" />
  <path d="M53.5172,68.4619 L52.98896,68.62137" stroke="#FFFFFF" stroke-width="0.05" fill="none" />
  <path d="M64.20673,80.27022 C64.18929,80.68634 64.1569,82.02689 64.37368,82.40314" stroke="#FFFFFF" stroke-width="0.05" fill="none" />
  <path d="M53.25557,49.66426 C54.71822,49.99317 55.45328,49.81128 56.51226,50.195" stroke="#FFFFFF" stroke-width="0.05" fill="none" />
  <path d="M66.18766,68.03332 L66.24747,68.34479" stroke="#FFFFFF" stroke-width="0.05" fill="none" />
  <path d="M49.79954,71.48686 C47.15332,72.79253 45.34183,74.89056 44.67404,75.83493" stroke="#FFFFFF" stroke-width="0.05" fill="none" />
  <path d="M59.7565,75.46616 L61.03476,75.26433" stroke="#FFFFFF" stroke-width="0.05" fill="none" />
  <path d="M64.14943,47.86274 C62.78645,46.16089 61.27895,45.28629 60.2399,44.69575" stroke="#FFFFFF" stroke-width="0.05" fill="none" />
  <path d="M48.85766,59.22504 C48.38922,59.84549 48.1824,60.48337 48.09021,60.96926" stroke="#FFFFFF" stroke-width="0.05" fill="none" />
  <path d="M61.03725,75.28675 L61.98411,76.12398" stroke="#FFFFFF" stroke-width="0.05" fill="none" />
  <path d="M44.15576,67.54992 C44.54447,66.48097 45.39664,65.59641 47.62924,65.00088" stroke="#FFFFFF" stroke-width="0.05" fill="none" />
  <path d="M62.96835,76.76186 L62.91851,75.43376" stroke="#FFFFFF" stroke-width="0.05" fill="none" />
  <path d="M73.1097,64.5125 C72.59889,64.37296 71.85137,64.10884 71.06897,63.5781" stroke="#FFFFFF" stroke-width="0.05" fill="none" />
  <path d="M59.79886,53.37695 C58.25648,51.49319 57.48653,50.55132 56.51226,50.195" stroke="#FFFFFF" stroke-width="0.05" fill="none" />
  <path d="M61.92431,75.38144 L62.1087,75.46616" stroke="#FFFFFF" stroke-width="0.05" fill="none" />
  <path d="M64.23913,73.50765 L64.14195,74.72113" stroke="#FFFFFF" stroke-width="0.05" fill="none" />
  <path d="M44.63916,71.68371 C44.63916,71.68371 46.78703,70.33817 48.61347,69.66042" stroke="#FFFFFF" stroke-width="0.05" fill="none" />
  <path d="M54.8727,74.65884 C55.52554,74.29504 56.23568,73.83906 56.15595,73.48523" stroke="#FFFFFF" stroke-width="0.05" fill="none" />
  <path d="M67.33884,62.80317 L69.47426,62.19519" stroke="#FFFFFF" stroke-width="0.05" fill="none" />
  <path d="M60.56881,66.33894 L59.8761,66.33645" stroke="#FFFFFF" stroke-width="0.05" fill="none" />
  <path d="M52.67749,65.31733 L51.82781,65.04075" stroke="#FFFFFF" stroke-width="0.05" fill="none" />
  <path d="M59.46995,70.07654 L59.04137,70.29082" stroke="#FFFFFF" stroke-width="0.05" fill="none" />
  <path d="M64.95177,72.8 L64.22667,73.49519" stroke="#FFFFFF" stroke-width="0.05" fill="none" />
  <path d="M54.85775,74.68874 L54.67835,74.61897" stroke="#FFFFFF" stroke-width="0.05" fill="none" />
  <path d="M71.22096,67.78165 L71.38541,68.04328" stroke="#FFFFFF" stroke-width="0.05" fill="none" />
  <path d="M65.18349,72.4985 C66.19514,71.0533 66.31225,68.93034 66.24747,68.34479" stroke="#FFFFFF" stroke-width="0.05" fill="none" />
  <path d="M60.55884,65.11799 L60.9027,65.95023 L60.8429,66.1695" stroke="#FFFFFF" stroke-width="0.05" fill="none" />
  <path d="M49.14421,61.50996 L48.01795,61.66196" stroke="#FFFFFF" stroke-width="0.05" fill="none" />
  <path d="M57.41427,72.39883 L57.30962,72.9221" stroke="#FFFFFF" stroke-width="0.05" fill="none" />
  <path d="M63.28978,74.6389 L64.22667,73.49519" stroke="#FFFFFF" stroke-width="0.05" fill="none" />
  <path d="M61.98411,76.12398 L61.03725,75.28675" stroke="#FFFFFF" stroke-width="0.05" fill="none" />
  <path d="M64.38365,78.98698 L65.89114,79.2511" stroke="#FFFFFF" stroke-width="0.05" fill="none" />
  <path d="M64.63282,63.53076 L66.74581,62.96015" stroke="#FFFFFF" stroke-width="0.05" fill="none" />
  <path d="M55.40095,73.08656 C54.38682,72.93207 52.95656,73.95617 52.84443,74.08574" stroke="#FFFFFF" stroke-width="0.05" fill="none" />
  <path d="M64.12949,77.60157 L64.64279,78.05257" stroke="#FFFFFF" stroke-width="0.05" fill="none" />
  <path d="M56.09864,75.93211 C56.46243,75.20702 57.07789,74.6713 57.68089,74.41714" stroke="#FFFFFF" stroke-width="0.05" fill="none" />
  <path d="M70.33889,69.01506 C71.41033,69.15459 72.36467,69.56573 72.92033,69.80494" stroke="#FFFFFF" stroke-width="0.05" fill="none" />
  <path d="M65.70177,82.23619 C67.39616,81.85745 68.41528,81.21957 68.8887,80.83584" stroke="#FFFFFF" stroke-width="0.05" fill="none" />
  <path d="M59.0937,77.8931 L61.38111,79.25858" stroke="#FFFFFF" stroke-width="0.05" fill="none" />
  <path d="M49.14421,61.50996 C49.94406,61.54983 50.52214,61.90366 50.91085,62.14785" stroke="#FFFFFF" stroke-width="0.05" fill="none" />
  <path d="M55.07204,71.01343 L54.89762,71.70364" stroke="#FFFFFF" stroke-width="0.05" fill="none" />
  <path d="M59.53972,77.22034 L59.82627,76.44292" stroke="#FFFFFF" stroke-width="0.05" fill="none" />
  <path d="M60.94755,77.97284 L59.54221,77.22034" stroke="#FFFFFF" stroke-width="0.05" fill="none" />
  <path d="M56.09864,75.93211 C55.96408,75.67048 55.58285,75.00768 54.85775,74.68874" stroke="#FFFFFF" stroke-width="0.05" fill="none" />
  <path d="M56.51226,50.195 C55.45328,49.81128 54.71822,49.99317 53.25557,49.66426" stroke="#FFFFFF" stroke-width="0.05" fill="none" />
  <path d="M64.14195,74.72113 C63.96255,74.91299 63.46171,75.50104 63.49908,76.26601" stroke="#FFFFFF" stroke-width="0.05" fill="none" />
  <path d="M66.18766,68.03332 L65.91357,67.34311" stroke="#FFFFFF" stroke-width="0.05" fill="none" />
  <path d="M52.67749,65.31733 L51.82781,65.04075" stroke="#FFFFFF" stroke-width="0.05" fill="none" />
  <path d="M55.65012,81.28186 L55.65012,87.24209" stroke="#FFFFFF" stroke-width="0.05" fill="none" />
  <path d="M71.04405,86.6939 L71.04405,78.81006" stroke="#FFFFFF" stroke-width="0.05" fill="none" />
  <path d="M57.61613,65.81071 L60.31218,69.79998" stroke="#FFFFFF" stroke-width="0.05" fill="none" />
  <path d="M51.27464,57.66522 C49.94904,57.85957 49.08441,58.92105 48.85766,59.22504" stroke="#FFFFFF" stroke-width="0.05" fill="none" />
  <path d="M63.49908,76.26601 C63.524,76.76435 63.76819,77.21037 64.12949,77.60157" stroke="#FFFFFF" stroke-width="0.05" fill="none" />
  <path d="M57.82292,80.61407 L57.15762,79.93882" stroke="#FFFFFF" stroke-width="0.05" fill="none" />
  <path d="M65.91357,67.34311 L65.55227,66.82732" stroke="#FFFFFF" stroke-width="0.05" fill="none" />
  <path d="M60.06049,64.53991 L60.55884,65.11799" stroke="#FFFFFF" stroke-width="0.05" fill="none" />
  <path d="M77.0566,52.05633 L78.52174,51.42592" stroke="#FFFFFF" stroke-width="0.05" fill="none" />
  <path d="M53.52221,68.47438 L57.69088,71.68124" stroke="#FFFFFF" stroke-width="0.05" fill="none" />
  <path d="M76.17951,57.79728 C76.74513,57.11953 77.089,56.3147 77.35062,55.70422" stroke="#FFFFFF" stroke-width="0.05" fill="none" />
  <path d="M66.8679,62.95267 L63.60374,65.65372" stroke="#FFFFFF" stroke-width="0.05" fill="none" />
  <path d="M71.04405,78.80508 L72.70604,78.48614" stroke="#FFFFFF" stroke-width="0.05" fill="none" />
  <path d="M65.89114,79.2511 C66.57139,79.43798 67.64782,79.82918 68.79401,80.71126" stroke="#FFFFFF" stroke-width="0.05" fill="none" />
  <path d="M78.91792,58.8762 C80.4628,59.76824 81.00849,60.75497 82.68792,61.08886" stroke="#FFFFFF" stroke-width="0.05" fill="none" />
  <path d="M52.84443,74.08574 L53.14843,74.69123" stroke="#FFFFFF" stroke-width="0.05" fill="none" />
  <path d="M53.25557,49.65928 L52.95407,48.62272" stroke="#FFFFFF" stroke-width="0.05" fill="none" />
  <path d="M65.70177,82.23619 L64.37866,82.45297" stroke="#FFFFFF" stroke-width="0.05" fill="none" />
  <path d="M64.12949,77.60157 L64.64279,78.05257" stroke="#FFFFFF" stroke-width="0.05" fill="none" />
  <path d="M60.85785,54.78976 L59.79886,53.37695" stroke="#FFFFFF" stroke-width="0.05" fill="none" />
  <path d="M62.91851,75.43376 L62.72665,75.96201" stroke="#FFFFFF" stroke-width="0.05" fill="none" />
  <path d="M68.74667,53.04555 C69.93274,52.20085 71.70187,51.57044 73.52084,51.7623" stroke="#FFFFFF" stroke-width="0.05" fill="none" />
  <path d="M59.31297,63.9992 L60.06049,64.53991" stroke="#FFFFFF" stroke-width="0.05" fill="none" />
  <path d="M65.89114,79.2511 L64.38365,78.98698" stroke="#FFFFFF" stroke-width="0.05" fill="none" />
  <path d="M62.72665,75.96201 L62.91851,75.43376" stroke="#FFFFFF" stroke-width="0.05" fill="none" />
  <path d="M58.51064,62.1005 C58.23904,61.196 57.39932,60.82224 56.21077,60.18436" stroke="#FFFFFF" stroke-width="0.05" fill="none" />
  <path d="M56.44001,66.43612 C55.1144,65.96518 52.80207,66.94692 52.57034,67.04908" stroke="#FFFFFF" stroke-width="0.05" fill="none" />
  <path d="M57.70082,71.6862 L57.58371,71.93288" stroke="#FFFFFF" stroke-width="0.05" fill="none" />
  <path d="M62.1087,75.46616 L61.92431,75.38144" stroke="#FFFFFF" stroke-width="0.05" fill="none" />
  <path d="M57.36693,73.66962 L57.30962,72.9221" stroke="#FFFFFF" stroke-width="0.05" fill="none" />
  <path d="M71.38544,68.04331 L70.34141,68.98518" stroke="#FFFFFF" stroke-width="0.05" fill="none" />
  <path d="M52.11436,84.21712 L54.33947,82.4156" stroke="#FFFFFF" stroke-width="0.05" fill="none" />
  <path d="M65.89114,79.2511 C66.57139,79.43798 67.64782,79.82918 68.79401,80.71126" stroke="#FFFFFF" stroke-width="0.05" fill="none" />
  <path d="M64.20673,80.27022 L63.87534,80.83584" stroke="#FFFFFF" stroke-width="0.05" fill="none" />
  <path d="M71.06897,63.5781 C70.4859,63.1869 69.82559,62.74088 69.47426,62.19519" stroke="#FFFFFF" stroke-width="0.05" fill="none" />
  <path d="M66.94515,57.95675 C66.46923,57.63282 66.50163,56.91521 66.51657,56.56138" stroke="#FFFFFF" stroke-width="0.05" fill="none" />
  <path d="M58.00731,80.60411 C58.59286,80.25776 59.46746,79.81174 60.58874,79.48034" stroke="#FFFFFF" stroke-width="0.05" fill="none" />
  <path d="M61.94674,76.91136 L61.99408,76.12398" stroke="#FFFFFF" stroke-width="0.05" fill="none" />
  <path d="M64.94678,74.16796 L64.14195,74.72113" stroke="#FFFFFF" stroke-width="0.05" fill="none" />
  <path d="M60.2399,44.69575 C58.00481,43.42746 56.87107,43.5047 54.35442,41.97727" stroke="#FFFFFF" stroke-width="0.05" fill="none" />
  <path d="M64.34628,78.98946 L64.20673,80.27022" stroke="#FFFFFF" stroke-width="0.05" fill="none" />
  <path d="M64.22667,73.49519 L64.95177,72.8" stroke="#FFFFFF" stroke-width="0.05" fill="none" />
  <path d="M67.57307,58.1237 C68.41776,57.32385 68.87375,56.9177 69.60133,56.74826" stroke="#FFFFFF" stroke-width="0.05" fill="none" />
  <path d="M59.08871,77.89061 L59.53972,77.22034" stroke="#FFFFFF" stroke-width="0.05" fill="none" />
  <path d="M57.19751,66.38381 L58.87694,70.31078" stroke="#FFFFFF" stroke-width="0.05" fill="none" />
  <path d="M53.25557,49.66426 C54.71822,49.99317 55.45328,49.81128 56.51226,50.195" stroke="#FFFFFF" stroke-width="0.05" fill="none" />
  <path d="M66.80312,72.3191 L65.92852,72.4387" stroke="#FFFFFF" stroke-width="0.05" fill="none" />
  <path d="M53.14843,74.69123 L52.84443,74.08574" stroke="#FFFFFF" stroke-width="0.05" fill="none" />
  <path d="M60.8429,66.1695 L60.56881,66.33894" stroke="#FFFFFF" stroke-width="0.05" fill="none" />
  <path d="M55.65012,87.24209 C55.65012,87.24209 55.96907,94.07192 63.16519,94.07192 C70.36131,94.07192 71.04405,86.6939 71.04405,86.6939" stroke="#FFFFFF" stroke-width="0.05" fill="none" />
  <path d="M53.42501,43.77132 C53.3353,43.16832 53.11853,41.4241 52.14177,40.41744" stroke="#FFFFFF" stroke-width="0.05" fill="none" />
  <path d="M56.21077,60.18436 C52.62766,58.25576 52.49061,57.48581 51.27464,57.66522" stroke="#FFFFFF" stroke-width="0.05" fill="none" />
  <path d="M62.19591,81.14481 L62.47498,81.94715" stroke="#FFFFFF" stroke-width="0.05" fill="none" />
  <path d="M62.18594,57.92187 C62.21335,58.38782 62.2881,59.64365 61.62032,59.95263" stroke="#FFFFFF" stroke-width="0.05" fill="none" />
  <path d="M64.25408,78.45872 L64.34628,78.98946" stroke="#FFFFFF" stroke-width="0.05" fill="none" />
  <path d="M69.58639,68.96274 L68.81893,70.75678" stroke="#FFFFFF" stroke-width="0.05" fill="none" />
  <path d="M53.53215,66.09973 C53.52219,65.75837 53.10357,65.49673 52.67749,65.31733" stroke="#FFFFFF" stroke-width="0.05" fill="none" />
  <path d="M54.67835,74.61897 C54.13515,74.43956 53.6094,74.51681 53.14843,74.69123" stroke="#FFFFFF" stroke-width="0.05" fill="none" />
  <path d="M69.77327,68.07817 L69.58639,68.96274" stroke="#FFFFFF" stroke-width="0.05" fill="none" />
  <path d="M66.74581,62.96015 L64.63282,63.53076" stroke="#FFFFFF" stroke-width="0.05" fill="none" />
  <path d="M53.5172,68.4619 L54.96241,67.89378" stroke="#FFFFFF" stroke-width="0.05" fill="none" />
  <path d="M72.42696,57.40608 C72.90787,57.83216 73.19193,58.46507 73.29658,59.14281" stroke="#FFFFFF" stroke-width="0.05" fill="none" />
  <path d="M64.64279,78.05257 C65.30061,78.55092 66.12537,78.90724 66.78319,79.09911" stroke="#FFFFFF" stroke-width="0.05" fill="none" />
  <path d="M41.93812,68.52419 C40.07929,68.72602 38.51448,68.57402 37.10914,68.43199" stroke="#FFFFFF" stroke-width="0.05" fill="none" />
  <path d="M64.44594,56.42184 C65.05143,56.43929 65.71922,56.17516 66.12537,55.67931" stroke="#FFFFFF" stroke-width="0.05" fill="none" />
  <path d="M66.83302,66.76254 C67.02239,66.55323 67.44599,66.08727 68.12374,66.05737" stroke="#FFFFFF" stroke-width="0.05" fill="none" />
  <path d="M62.55721,55.39525 C63.28728,56.01071 63.74826,56.40191 64.44594,56.42184" stroke="#FFFFFF" stroke-width="0.05" fill="none" />
  <path d="M73.29658,59.14281 L73.23179,60.72008" stroke="#FFFFFF" stroke-width="0.05" fill="none" />
  <path d="M73.52084,51.7623 C74.81404,51.89935 75.64379,52.40019 77.0566,52.05633" stroke="#FFFFFF" stroke-width="0.05" fill="none" />
  <path d="M66.24747,68.34479 C66.31225,68.93034 66.19514,71.0533 65.18349,72.4985" stroke="#FFFFFF" stroke-width="0.05" fill="none" />
  <path d="M51.82781,65.04075 C51.32946,64.91118 49.90917,64.3929 47.62924,65.00088" stroke="#FFFFFF" stroke-width="0.05" fill="none" />
  <path d="M60.59372,69.80992 L60.31963,69.83982" stroke="#FFFFFF" stroke-width="0.05" fill="none" />
  <path d="M59.31297,63.9992 L60.06049,64.53991" stroke="#FFFFFF" stroke-width="0.05" fill="none" />
  <path d="M61.38111,79.25858 L61.85454,79.6423" stroke="#FFFFFF" stroke-width="0.05" fill="none" />
  <path d="M63.26735,78.63813 C63.36204,78.22948 63.09044,77.25273 62.96835,76.76186" stroke="#FFFFFF" stroke-width="0.05" fill="none" />
  <path d="M58.19169,58.92603 L58.65017,59.41192" stroke="#FFFFFF" stroke-width="0.05" fill="none" />
  <path d="M54.85775,74.68874 L54.67835,74.61897" stroke="#FFFFFF" stroke-width="0.05" fill="none" />
  <path d="M62.91851,75.42878 L63.28978,74.6389" stroke="#FFFFFF" stroke-width="0.05" fill="none" />
  <path d="M72.92033,69.80494 C76.31905,71.26759 77.80661,74.21033 78.10562,74.84322" stroke="#FFFFFF" stroke-width="0.05" fill="none" />
  <path d="M59.08871,77.89061 L58.42841,78.68797" stroke="#FFFFFF" stroke-width="0.05" fill="none" />
  <path d="M59.83374,76.44292 C59.83374,76.44292 60.78808,77.42964 60.94755,77.97284" stroke="#FFFFFF" stroke-width="0.05" fill="none" />
  <path d="M57.15762,79.93882 L57.82292,80.61407" stroke="#FFFFFF" stroke-width="0.05" fill="none" />
  <path d="M60.85785,54.78976 L60.98243,54.30885" stroke="#FFFFFF" stroke-width="0.05" fill="none" />
  <path d="M60.0655,64.53246 L58.64521,59.41693" stroke="#FFFFFF" stroke-width="0.05" fill="none" />
  <path d="M57.82292,80.61407 C58.43339,81.18717 58.90433,81.48369 59.38523,81.69798" stroke="#FFFFFF" stroke-width="0.05" fill="none" />
  <path d="M52.09442,49.33785 L53.25557,49.66426" stroke="#FFFFFF" stroke-width="0.05" fill="none" />
  <path d="M54.935,70.69199 C54.79546,70.49017 54.53383,70.38053 54.19246,70.34066" stroke="#FFFFFF" stroke-width="0.05" fill="none" />
  <path d="M80.56496,67.87634 C82.02013,67.05656 82.91965,66.34891 83.6572,65.4469" stroke="#FFFFFF" stroke-width="0.05" fill="none" />
  <path d="M61.52812,69.84481 L60.59372,69.80992" stroke="#FFFFFF" stroke-width="0.05" fill="none" />
  <path d="M65.92852,72.4387 L66.80312,72.3191" stroke="#FFFFFF" stroke-width="0.05" fill="none" />
  <path d="M54.89762,71.70364 L55.07204,71.01343" stroke="#FFFFFF" stroke-width="0.05" fill="none" />
  <path d="M73.319,59.14032 L74.62467,58.92603" stroke="#FFFFFF" stroke-width="0.05" fill="none" />
  <path d="M51.37431,82.8392 L52.11436,84.21712" stroke="#FFFFFF" stroke-width="0.05" fill="none" />
  <path d="M64.34628,78.98946 L64.20673,80.27022" stroke="#FFFFFF" stroke-width="0.05" fill="none" />
  <path d="M71.27827,61.57973 L73.23179,60.72008" stroke="#FFFFFF" stroke-width="0.05" fill="none" />
  <path d="M54.33947,82.4156 L55.65012,81.28186" stroke="#FFFFFF" stroke-width="0.05" fill="none" />
  <path d="M71.38541,68.04328 L71.22096,67.78165" stroke="#FFFFFF" stroke-width="0.05" fill="none" />
  <path d="M59.0937,77.8931 L61.38111,79.25858" stroke="#FFFFFF" stroke-width="0.05" fill="none" />
  <path d="M64.38365,78.98698 L65.89114,79.2511" stroke="#FFFFFF" stroke-width="0.05" fill="none" />
  <path d="M60.98243,53.77562 C61.48576,54.50321 62.1685,55.06634 62.55721,55.39525" stroke="#FFFFFF" stroke-width="0.05" fill="none" />
  <path d="M65.56224,66.81985 L66.8679,62.95267" stroke="#FFFFFF" stroke-width="0.05" fill="none" />
  <path d="M60.24989,68.24763 L59.83128,66.35143" stroke="#FFFFFF" stroke-width="0.05" fill="none" />
  <path d="M60.58874,79.48034 C59.46746,79.81174 58.59286,80.25776 58.00731,80.60411" stroke="#FFFFFF" stroke-width="0.05" fill="none" />
  <path d="M59.84869,75.97447 L59.7565,75.47114" stroke="#FFFFFF" stroke-width="0.05" fill="none" />
  <path d="M69.86795,79.08166 L71.04405,78.80508" stroke="#FFFFFF" stroke-width="0.05" fill="none" />
  <path d="M71.38541,68.04328 C72.0233,68.90044 73.21435,69.20443 73.66286,69.31905" stroke="#FFFFFF" stroke-width="0.05" fill="none" />
  <path d="M65.55227,66.82732 L65.91357,67.34311" stroke="#FFFFFF" stroke-width="0.05" fill="none" />
  <path d="M72.42696,57.40608 C71.27578,56.38447 69.79569,56.70341 69.60133,56.74826" stroke="#FFFFFF" stroke-width="0.05" fill="none" />
  <path d="M64.12949,77.60157 L63.26735,78.63813" stroke="#FFFFFF" stroke-width="0.05" fill="none" />
  <path d="M57.35447,65.73345 L59.45002,70.03168" stroke="#FFFFFF" stroke-width="0.05" fill="none" />
  <path d="M51.7979,75.53094 L50.85105,76.60239 C50.52214,77.10073 50.21566,77.76104 50.12346,78.56089" stroke="#FFFFFF" stroke-width="0.05" fill="none" />
  <path d="M59.82627,76.44292 L59.84869,75.97447" stroke="#FFFFFF" stroke-width="0.05" fill="none" />
  <path d="M52.98896,68.62137 L53.5172,68.4619" stroke="#FFFFFF" stroke-width="0.05" fill="none" />
  <path d="M63.05306,67.26088 C62.1984,68.18531 62.02398,69.53832 62.01401,69.95195" stroke="#FFFFFF" stroke-width="0.05" fill="none" />
  <path d="M54.32452,64.31565 C54.02801,64.67446 53.45242,65.01334 52.68247,65.30238" stroke="#FFFFFF" stroke-width="0.05" fill="none" />
  <path d="M61.62032,59.95263 C61.14938,60.16941 60.36448,59.91276 59.76149,59.27488" stroke="#FFFFFF" stroke-width="0.05" fill="none" />
  <path d="M64.14195,74.72113 C63.96255,74.91299 63.46171,75.50104 63.49908,76.26601" stroke="#FFFFFF" stroke-width="0.05" fill="none" />
  <path d="M61.52812,69.84481 L60.59372,69.80992" stroke="#FFFFFF" stroke-width="0.05" fill="none" />
  <path d="M61.03476,75.26433 L61.92431,75.38144" stroke="#FFFFFF" stroke-width="0.05" fill="none" />
  <path d="M60.54638,62.03572 L58.65017,59.41192" stroke="#FFFFFF" stroke-width="0.05" fill="none" />
  <path d="M57.58371,71.93288 L57.41427,72.39883" stroke="#FFFFFF" stroke-width="0.05" fill="none" />
  <path d="M44.01871,69.56324 C44.14081,70.4802 44.41739,71.20529 44.63916,71.68371" stroke="#FFFFFF" stroke-width="0.05" fill="none" />
  <path d="M69.47426,62.19519 L71.27827,61.57973" stroke="#FFFFFF" stroke-width="0.05" fill="none" />
  <path d="M60.58874,79.48034 L61.37862,79.26356" stroke="#FFFFFF" stroke-width="0.05" fill="none" />
  <path d="M51.82781,65.04075 L52.67749,65.31733" stroke="#FFFFFF" stroke-width="0.05" fill="none" />
  <path d="M53.18029,70.37876 L54.19246,70.34066" stroke="#FFFFFF" stroke-width="0.05" fill="none" />
  <path d="M57.5862,74.24271 C57.02058,73.50018 55.98651,72.57824 54.91257,71.71361" stroke="#FFFFFF" stroke-width="0.05" fill="none" />
  <path d="M66.24747,68.34479 L66.18766,68.03332" stroke="#FFFFFF" stroke-width="0.05" fill="none" />
  <path d="M74.62467,58.92603 C75.28249,58.68683 75.78582,58.2732 76.17702,57.79728" stroke="#FFFFFF" stroke-width="0.05" fill="none" />
  <path d="M61.92431,75.38144 L61.99408,76.12398" stroke="#FFFFFF" stroke-width="0.05" fill="none" />
  <path d="M63.26735,78.63813 C63.36204,78.22948 63.09044,77.25273 62.96835,76.76186" stroke="#FFFFFF" stroke-width="0.05" fill="none" />
  <path d="M61.03476,75.26433 L59.7565,75.46616" stroke="#FFFFFF" stroke-width="0.05" fill="none" />
  <path d="M43.97636,68.17784 L44.15576,67.54992" stroke="#FFFFFF" stroke-width="0.05" fill="none" />
  <path d="M62.83628,64.36798 L64.63282,63.53076" stroke="#FFFFFF" stroke-width="0.05" fill="none" />
  <path d="M49.14421,61.50996 L48.01795,61.66196" stroke="#FFFFFF" stroke-width="0.05" fill="none" />
  <path d="M56.82622,65.51667 L54.32951,64.30817" stroke="#FFFFFF" stroke-width="0.05" fill="none" />
  <path d="M58.00731,80.60411 C58.59286,80.25776 59.46746,79.81174 60.58874,79.48034" stroke="#FFFFFF" stroke-width="0.05" fill="none" />
  <path d="M54.19246,70.34066 L53.16836,70.38053" stroke="#FFFFFF" stroke-width="0.05" fill="none" />
  <path d="M78.10562,74.84322 C78.77341,76.26849 78.94782,77.7436 79.01511,78.58331" stroke="#FFFFFF" stroke-width="0.05" fill="none" />
  <path d="M53.50973,63.7899 L50.91085,62.14785" stroke="#FFFFFF" stroke-width="0.05" fill="none" />
  <path d="M58.40847,63.62046 C58.54801,63.24421 58.68505,62.68606 58.51064,62.1005" stroke="#FFFFFF" stroke-width="0.05" fill="none" />
  <path d="M60.31963,69.84232 L59.46995,70.07654" stroke="#FFFFFF" stroke-width="0.05" fill="none" />
  <path d="M60.56881,66.33894 L59.8761,66.33645" stroke="#FFFFFF" stroke-width="0.05" fill="none" />
  <path d="M69.87045,79.09163 C69.77077,79.53017 69.57393,80.06091 69.18522,80.55677" stroke="#FFFFFF" stroke-width="0.05" fill="none" />
  <path d="M69.86795,79.08166 L71.04405,78.80508" stroke="#FFFFFF" stroke-width="0.05" fill="none" />
  <path d="M33.87986,66.00256 C36.74036,63.93193 38.17062,62.89537 39.1698,62.3721" stroke="#FFFFFF" stroke-width="0.05" fill="none" />
  <path d="M51.82781,65.04075 C51.32946,64.91118 49.90917,64.3929 47.62924,65.00088" stroke="#FFFFFF" stroke-width="0.05" fill="none" />
  <path d="M62.1087,75.46616 L62.72665,75.96201" stroke="#FFFFFF" stroke-width="0.05" fill="none" />
  <path d="M62.4077,64.13874 C61.93926,64.13874 61.37862,63.23673 60.54638,62.03572" stroke="#FFFFFF" stroke-width="0.05" fill="none" />
  <path d="M59.7565,75.46616 L61.03476,75.26433" stroke="#FFFFFF" stroke-width="0.05" fill="none" />
  <path d="M71.41532,65.37713 C70.65534,66.23927 71.07146,67.4353 71.10385,67.52251" stroke="#FFFFFF" stroke-width="0.05" fill="none" />
  <path d="M59.04137,70.29082 L59.46995,70.07654" stroke="#FFFFFF" stroke-width="0.05" fill="none" />
  <path d="M59.76149,59.27488 C60.53392,60.54317 61.29141,61.43023 61.88444,62.03572" stroke="#FFFFFF" stroke-width="0.05" fill="none" />
  <path d="M57.3545,65.73347 L59.45004,70.03172" stroke="#FFFFFF" stroke-width="0.05" fill="none" />
  <path d="M59.84869,75.97447 L59.7565,75.47114" stroke="#FFFFFF" stroke-width="0.05" fill="none" />
  <path d="M50.91085,62.14785 L53.50973,63.7899" stroke="#FFFFFF" stroke-width="0.05" fill="none" />
  <path d="M59.82627,76.44292 L59.84869,75.97447" stroke="#FFFFFF" stroke-width="0.05" fill="none" />
  <path d="M68.8887,80.83584 L69.18522,80.55677" stroke="#FFFFFF" stroke-width="0.05" fill="none" />
  <path d="M54.63848,72.04002 L54.89762,71.70364" stroke="#FFFFFF" stroke-width="0.05" fill="none" />
  <path d="M64.25159,78.45624 L64.6378,78.06005" stroke="#FFFFFF" stroke-width="0.05" fill="none" />
  <path d="M68.12374,66.05737 C68.72674,66.02997 69.31728,66.35638 69.60632,66.84725" stroke="#FFFFFF" stroke-width="0.05" fill="none" />
  <path d="M73.29658,59.14281 C73.19193,58.46507 72.90787,57.83216 72.42696,57.40608" stroke="#FFFFFF" stroke-width="0.05" fill="none" />
  <path d="M51.23976,68.98516 L51.67332,68.91041" stroke="#FFFFFF" stroke-width="0.05" fill="none" />
  <path d="M56.51226,50.195 C57.48653,50.55132 58.25648,51.49319 59.79886,53.37695" stroke="#FFFFFF" stroke-width="0.05" fill="none" />
  <path d="M54.89762,71.70364 L55.07204,71.01343" stroke="#FFFFFF" stroke-width="0.05" fill="none" />
  <path d="M60.59372,69.80992 L61.52812,69.84481" stroke="#FFFFFF" stroke-width="0.05" fill="none" />
  <path d="M70.33889,69.01506 L69.59137,68.96523" stroke="#FFFFFF" stroke-width="0.05" fill="none" />
  <path d="M66.78319,79.09911 C67.93686,79.433 68.81644,79.31837 69.86795,79.08166" stroke="#FFFFFF" stroke-width="0.05" fill="none" />
  <path d="M74.62467,58.92603 L73.319,59.14032" stroke="#FFFFFF" stroke-width="0.05" fill="none" />
  <path d="M68.24334,72.08238 L66.80312,72.3191" stroke="#FFFFFF" stroke-width="0.05" fill="none" />
  <path d="M64.12949,77.60157 L63.26735,78.63813" stroke="#FFFFFF" stroke-width="0.05" fill="none" />
  <path d="M66.24747,68.34479 L66.18766,68.03332" stroke="#FFFFFF" stroke-width="0.05" fill="none" />
  <path d="M44.15576,67.54992 L43.97636,68.17784" stroke="#FFFFFF" stroke-width="0.05" fill="none" />
  <path d="M69.60133,56.74826 C68.87375,56.9177 68.41776,57.32385 67.57307,58.1237" stroke="#FFFFFF" stroke-width="0.05" fill="none" />
  <path d="M58.54558,66.07173 L57.6186,65.80073 L56.82622,65.51667" stroke="#FFFFFF" stroke-width="0.05" fill="none" />
  <path d="M53.50973,63.7899 L50.91085,62.14785" stroke="#FFFFFF" stroke-width="0.05" fill="none" />
  <path d="M62.1087,75.46616 L62.72665,75.96201" stroke="#FFFFFF" stroke-width="0.05" fill="none" />
  <path d="M64.97169,72.78754 L64.93681,74.14304" stroke="#FFFFFF" stroke-width="0.05" fill="none" />
  <path d="M63.20008,67.10639 L63.05306,67.26088" stroke="#FFFFFF" stroke-width="0.05" fill="none" />
  <path d="M63.49908,76.26601 C63.524,76.76435 63.76819,77.21037 64.12949,77.60157" stroke="#FFFFFF" stroke-width="0.05" fill="none" />
  <path d="M43.17402,79.25359 C43.45808,79.59745 44.29779,79.15392 47.15332,78.06503" stroke="#FFFFFF" stroke-width="0.05" fill="none" />
  <path d="M65.47253,60.74998 C66.06059,59.56641 66.79813,58.85627 67.45097,58.23832" stroke="#FFFFFF" stroke-width="0.05" fill="none" />
  <path d="M55.07204,71.01343 L54.935,70.69199" stroke="#FFFFFF" stroke-width="0.05" fill="none" />
  <path d="M62.01899,79.28848 C62.1087,79.46539 62.12115,80.02602 62.51983,80.23284" stroke="#FFFFFF" stroke-width="0.05" fill="none" />
  <path d="M64.37866,82.45297 L65.70177,82.23619" stroke="#FFFFFF" stroke-width="0.05" fill="none" />
  <path d="M67.33884,62.80317 L66.86292,62.93025" stroke="#FFFFFF" stroke-width="0.05" fill="none" />
  <path d="M48.09021,60.96926 L48.01795,61.66196" stroke="#FFFFFF" stroke-width="0.05" fill="none" />
  <path d="M63.28978,74.6389 L64.22667,73.49519" stroke="#FFFFFF" stroke-width="0.05" fill="none" />
  <path d="M64.14195,74.72113 L64.94678,74.16796" stroke="#FFFFFF" stroke-width="0.05" fill="none" />
  <path d="M64.22667,73.49519 L64.95177,72.8" stroke="#FFFFFF" stroke-width="0.05" fill="none" />
  <path d="M62.05637,67.31321 C61.89441,67.09892 61.55304,66.58562 61.60038,65.96767" stroke="#FFFFFF" stroke-width="0.05" fill="none" />
  <path d="M59.82627,76.44292 L59.53972,77.22034" stroke="#FFFFFF" stroke-width="0.05" fill="none" />
  <path d="M62.5896,66.70772 L62.05637,67.31321" stroke="#FFFFFF" stroke-width="0.05" fill="none" />
  <path d="M76.17702,57.79728 C75.78582,58.2732 75.28249,58.68683 74.62467,58.92603" stroke="#FFFFFF" stroke-width="0.05" fill="none" />
  <path d="M50.12346,78.56089 C49.96648,79.91639 50.5047,81.03268 51.37431,82.8392" stroke="#FFFFFF" stroke-width="0.05" fill="none" />
  <path d="M59.313,63.99923 L58.19172,58.92606" stroke="#FFFFFF" stroke-width="0.05" fill="none" />
  <path d="M69.47426,62.19519 L71.27827,61.57973" stroke="#FFFFFF" stroke-width="0.05" fill="none" />
  <path d="M66.86292,62.93025 L67.33884,62.80317" stroke="#FFFFFF" stroke-width="0.05" fill="none" />
  <path d="M31.11154,68.06322 L33.87986,66.00256" stroke="#FFFFFF" stroke-width="0.05" fill="none" />
  <path d="M60.94755,77.97284 C60.78808,77.42964 59.83374,76.44292 59.83374,76.44292" stroke="#FFFFFF" stroke-width="0.05" fill="none" />
  <path d="M63.49161,79.79928 L64.25159,78.45624" stroke="#FFFFFF" stroke-width="0.05" fill="none" />
  <path d="M51.67332,68.91041 L52.12682,68.82818" stroke="#FFFFFF" stroke-width="0.05" fill="none" />
  <path d="M61.88444,62.03572 C62.36285,62.52659 63.02565,63.12959 62.87117,63.69272" stroke="#FFFFFF" stroke-width="0.05" fill="none" />
  <path d="M66.86292,62.93025 L67.33884,62.80317" stroke="#FFFFFF" stroke-width="0.05" fill="none" />
  <path d="M57.30962,72.9221 L57.36693,73.66962" stroke="#FFFFFF" stroke-width="0.05" fill="none" />
  <path d="M47.62924,65.00088 C45.39664,65.59641 44.54447,66.48097 44.15576,67.54992" stroke="#FFFFFF" stroke-width="0.05" fill="none" />
  <path d="M76.20941,57.82469 C77.60728,58.11871 78.66376,58.72919 78.91792,58.8762" stroke="#FFFFFF" stroke-width="0.05" fill="none" />
  <path d="M59.7565,75.46616 L58.82459,75.34157" stroke="#FFFFFF" stroke-width="0.05" fill="none" />
  <path d="M54.35442,41.97727 L52.14177,40.41744" stroke="#FFFFFF" stroke-width="0.05" fill="none" />
  <path d="M58.82459,75.34157 C58.35615,75.16216 57.96495,74.81581 57.69833,74.40717" stroke="#FFFFFF" stroke-width="0.05" fill="none" />
  <path d="M69.60133,56.74826 C69.79569,56.70341 71.27578,56.38447 72.42696,57.40608" stroke="#FFFFFF" stroke-width="0.05" fill="none" />
  <path d="M57.69833,74.40717 C57.96495,74.81581 58.35615,75.16216 58.82459,75.34157" stroke="#FFFFFF" stroke-width="0.05" fill="none" />
  <path d="M59.53972,77.22034 L59.08871,77.89061" stroke="#FFFFFF" stroke-width="0.05" fill="none" />
  <path d="M56.67672,66.60805 L56.44001,66.43612" stroke="#FFFFFF" stroke-width="0.05" fill="none" />
  <path d="M57.15513,79.93633 L56.73403,80.31756" stroke="#FFFFFF" stroke-width="0.05" fill="none" />
  <path d="M69.18522,80.55677 C69.57393,80.06091 69.77077,79.53017 69.87045,79.09163" stroke="#FFFFFF" stroke-width="0.05" fill="none" />
  <path d="M69.59137,68.96523 L70.33889,69.01506" stroke="#FFFFFF" stroke-width="0.05" fill="none" />
  <path d="M48.61347,69.66042 L51.23976,68.98516" stroke="#FFFFFF" stroke-width="0.05" fill="none" />
  <path d="M53.14843,74.69123 C53.6094,74.51681 54.13515,74.43956 54.67835,74.61897" stroke="#FFFFFF" stroke-width="0.05" fill="none" />
  <path d="M57.58371,71.93288 L57.70082,71.6862" stroke="#FFFFFF" stroke-width="0.05" fill="none" />
  <path d="M62.96835,76.76186 C63.09044,77.25273 63.36204,78.22948 63.26735,78.63813 L64.12949,77.60157 C63.76819,77.21037 63.524,76.76435 63.49908,76.26601 C63.46171,75.50104 63.96255,74.91299 64.14195,74.72113 L64.23913,73.50765 L63.28978,74.6389 L62.91851,75.42878 z" stroke="#FFFFFF" stroke-width="0.2" fill="none" />
  <path d="M55.07454,71.01343 L57.26975,72.91711 L57.41427,72.39883 L52.98896,68.62635 L52.12671,68.82832 L54.2081,70.34254 L54.935,70.69199 z" stroke="#FFFFFF" stroke-width="0.2" fill="none" />
  <path d="M85.10739,61.02158 C85.07749,61.88871 84.93297,63.88209 83.6572,65.4469 C82.91965,66.34891 82.02013,67.05656 80.56496,67.87634 C78.69118,68.93283 76.29413,69.99182 73.66286,69.31905 C73.21435,69.20443 72.0233,68.90044 71.38541,68.04329 L70.34138,68.98516 C71.41033,69.15459 72.36467,69.56573 72.92033,69.80494 C76.31905,71.26759 77.80661,74.21033 78.10562,74.84322 C78.77341,76.26849 78.94782,77.7436 79.01511,78.58331 C76.33898,78.13231 74.20606,78.26437 72.70604,78.48614 L71.04405,78.80508 L71.04405,86.6939 C71.04405,86.6939 70.36131,94.07192 63.16519,94.07192 C55.96907,94.07192 55.65012,87.24209 55.65012,87.24209 L55.65012,81.28186 L54.33947,82.4156 L52.11436,84.21712 L51.37431,82.8392 C50.5047,81.03268 49.96648,79.91639 50.12346,78.56089 C50.21566,77.76104 50.52214,77.10073 50.85105,76.60239 L47.15332,78.06503 C44.29779,79.15392 43.45808,79.59745 43.17402,79.25359 C42.71803,78.70042 43.94646,76.86402 44.67404,75.83493 C45.34183,74.89056 47.15332,72.79253 49.79954,71.48686 C50.80869,70.98602 52.11436,70.53502 53.16836,70.38053 L51.22719,68.98743 L48.61347,69.66042 C46.78703,70.33817 44.63916,71.68371 44.63916,71.68371 C44.32788,71.01622 44.11634,70.29324 44.01871,69.56324 L43.97636,68.17784 L41.93812,68.52419 C40.07929,68.72602 38.51448,68.57402 37.10914,68.43199 C35.34001,68.25259 34.95379,68.07568 33.63317,68.09312 L31.17134,68.3398 L31.11154,68.06322 L33.87986,66.00256 C36.74036,63.93193 38.17062,62.89537 39.1698,62.3721 C42.41404,60.67523 45.75546,60.65779 48.08024,60.96676 C48.20504,60.34432 48.4745,59.73191 48.85766,59.22504 C49.08441,58.92105 49.94904,57.85957 51.27464,57.66522 C52.49061,57.48581 52.62766,58.25576 56.21077,60.18436 C57.39932,60.82224 58.23904,61.196 58.51064,62.1005 C58.68505,62.68606 58.54801,63.24421 58.40847,63.62046 L59.31297,63.9992 L58.19169,58.92603 C57.09035,57.93433 56.55213,58.17353 54.61605,57.18182 C52.82948,56.26736 52.49559,55.65439 50.60437,54.30387 C49.43824,53.46914 47.71395,52.38025 45.37422,51.36861 L46.56527,50.40431 L47.80117,49.40014 C48.99221,48.67255 50.42995,48.91924 50.92082,49.00146 L52.09442,49.33785 L53.25557,49.66426 L52.95407,48.62272 C52.58778,46.58448 53.68166,45.4931 53.42501,43.77132 C53.3353,43.16832 53.11853,41.4241 52.14177,40.41744 L54.35442,41.97727 C56.87107,43.5047 58.00481,43.42746 60.2399,44.69575 C61.27895,45.28629 62.78645,46.16089 64.14943,47.86274 C65.76905,49.88354 66.1453,51.77975 66.37704,53.03309 C66.60129,54.2366 66.53401,54.89441 66.34714,55.318 L66.12537,55.67931 C65.71922,56.17516 65.05143,56.43929 64.44594,56.42184 C63.74826,56.40191 63.28728,56.01071 62.55721,55.39525 C62.1685,55.06634 61.48576,54.50321 60.98243,53.77562 L60.98243,54.30885 L60.85785,54.78976 C62.05388,56.55391 62.16102,57.51073 62.18594,57.92187 C62.21335,58.38782 62.2881,59.64365 61.62032,59.95263 C61.14938,60.16941 60.36448,59.91276 59.76149,59.27488 C60.53392,60.54317 61.29141,61.43023 61.88444,62.03572 C62.36285,62.52659 63.02565,63.12959 62.87117,63.69272 L62.49492,64.12878 C61.93926,64.13874 61.37862,63.23673 60.54638,62.03572 L58.65017,59.41192 L60.06548,64.53243 L60.55884,65.11799 L60.9027,65.95023 L60.8429,66.1695 L60.56881,66.33894 L61.53311,69.8174 L62.01401,69.95195 C62.02398,69.53832 62.1984,68.18531 63.05306,67.26088 L63.20008,67.10639 C63.52898,66.77499 64.23165,66.15954 64.8521,66.35139 L65.55227,66.82732 L66.8679,62.95267 L63.60374,65.65372 L62.5896,66.70772 L62.05637,67.31321 C61.89441,67.09892 61.55304,66.58562 61.60038,65.96767 C61.69507,65.31982 62.05139,64.9037 62.70173,64.45768 L64.63282,63.53076 C64.70509,62.75084 64.99661,61.7093 65.47253,60.74998 C66.06059,59.56641 66.79813,58.85627 67.45097,58.23832 L66.94515,57.95675 C66.46923,57.63282 66.50163,56.91521 66.51657,56.56138 L66.79565,55.37283 C67.35379,54.06466 68.55231,53.18508 68.74667,53.04555 C69.93274,52.20085 71.70187,51.57044 73.52084,51.7623 C74.81404,51.89935 75.64379,52.40019 77.0566,52.05633 L78.52174,51.42592 C78.46941,52.80634 77.62222,55.06634 77.35062,55.70422 C77.089,56.3147 76.74513,57.11953 76.17951,57.79728 C77.60728,58.11871 78.66376,58.72919 78.91792,58.8762 C80.4628,59.76824 81.00849,60.75497 82.68792,61.08886 C83.66717,61.28571 84.5293,61.15863 85.10739,61.02158 z" stroke="#FFFFFF" stroke-width="0.2" fill="none" />
  <path d="M57.82292,80.61407 C58.43339,81.18717 58.90433,81.48369 59.38523,81.69798 C60.23064,82.07278 61.14106,82.32478 62.05886,82.43803 C62.46003,82.17639 62.21335,81.21209 62.19591,81.14481 C61.91185,80.60162 61.94674,79.91141 61.85454,79.6423 L61.38111,79.25858 L59.0937,77.8931 L58.42841,78.68797 L57.15513,79.93633 z" stroke="#FFFFFF" stroke-width="0.2" fill="none" />
  <path d="M52.84443,74.08574 C52.95656,73.95617 54.38682,72.93207 55.40095,73.08656 C55.49813,73.1015 56.08867,73.19121 56.15595,73.48523 C56.23568,73.83906 55.52554,74.29504 54.8727,74.65884 C55.58285,75.00768 55.96408,75.67048 56.09864,75.93211 C56.46243,75.20702 57.07789,74.6713 57.68089,74.41714 L57.59617,74.23773 C57.02058,73.50018 55.98651,72.57824 54.91257,71.71361 L54.63848,72.04002 C53.92585,72.93456 53.31537,73.17625 52.84443,74.08574 z" stroke="#FFFFFF" stroke-width="0.2" fill="none" />
  <path d="M60.94755,77.97284 C60.78808,77.42964 59.83374,76.44292 59.83374,76.44292 L59.53972,77.22034 z" stroke="#FFFFFF" stroke-width="0.2" fill="none" />
  <path d="M59.83374,66.32897 L58.55798,66.07481 L60.27153,68.34519 z" stroke="#FFFFFF" stroke-width="0.2" fill="none" />
  <path d="M68.8887,80.83584 L69.18522,80.55677 C69.57393,80.06091 69.77077,79.53017 69.87045,79.09163 C68.81644,79.31837 67.93686,79.433 66.78319,79.09911 C66.12537,78.90724 65.30061,78.55092 64.64278,78.05258 L64.25159,78.45624 L64.34628,78.98946 L64.20673,80.27022 C64.18929,80.68634 64.1569,82.02689 64.37368,82.40314 L65.70177,82.23619 C67.39616,81.85745 68.41528,81.21957 68.8887,80.83584 z" stroke="#FFFFFF" stroke-width="0.2" fill="none" />
  <path d="M61.03725,75.28675 L61.98411,76.12398 L61.92431,75.38144 z" stroke="#FFFFFF" stroke-width="0.2" fill="none" />
  <path d="M71.06897,63.5781 C70.4859,63.1869 69.82559,62.74088 69.47426,62.19519 L67.33884,62.80317 C67.27655,62.96762 66.55145,64.8738 65.91357,67.34311 L66.18766,68.03332 C66.25993,67.7966 66.44431,67.19111 66.83302,66.76254 C67.02239,66.55323 67.44599,66.08727 68.12374,66.05737 C68.72674,66.02997 69.31728,66.35638 69.60632,66.84725 C69.83805,67.23846 69.81313,67.62467 69.77327,68.07817 L69.58639,68.96274 L71.19854,67.79411 L71.10385,67.52251 C71.07146,67.4353 70.65534,66.23927 71.41532,65.37713 C71.94107,64.78161 72.93279,64.51997 73.1097,64.5125 C72.38731,64.31759 71.68851,63.99762 71.06897,63.5781 z" stroke="#FFFFFF" stroke-width="0.2" fill="none" />
  <path d="M57.6186,65.80073 L57.36195,65.71352 L59.45002,70.03168 L60.31963,69.84232 z" stroke="#FFFFFF" stroke-width="0.2" fill="none" />
  <path d="M67.69765,74.29504 C67.48087,74.18291 66.28733,73.37808 65.92852,72.44119 L65.19845,72.50847 L64.96671,72.78256 L64.93681,74.14304 C65.73167,73.82909 66.74083,73.854 67.69765,74.29504 z" stroke="#FFFFFF" stroke-width="0.2" fill="none" />
  <path d="M57.70082,71.6862 C58.05215,71.01094 58.56794,70.59731 58.89935,70.38053 L57.19749,66.38379 L56.82622,65.51667 L54.32951,64.30817 C54.02801,64.67446 53.45242,65.01334 52.68247,65.30238 C53.10357,65.49673 53.52219,65.75837 53.53215,66.09973 C53.5471,66.57565 52.76968,66.9544 52.57034,67.04908 C52.80207,66.94692 55.1144,65.96518 56.44001,66.43612 L56.67672,66.60805 C56.81875,66.92699 55.91674,67.44776 54.96241,67.89378 L53.5172,68.4619 z" stroke="#FFFFFF" stroke-width="0.2" fill="none" />
</svg>