<?xml version="1.0" encoding="utf-8" standalone="no"?>
<!DOCTYPE svg PUBLIC "-//W3C//DTD SVG 1.1//EN" "http://www.w3.org/Graphics/SVG/1.1/DTD/svg11.dtd">
<svg version="1.1" width="120pt" height="120pt" viewBox="0 0 120 120" overflow="visible" xmlns="http://www.w3.org/2000/svg">
  <path d="M54.53424,81.51492 L54.69288,79.55831 L54.48136,77.65459 L54.53424,76.06815 L55.26009,76.83823 L55.61227,77.31848 L56.50873,77.35049 L57.30914,76.87025 L57.88544,76.16589 L57.99826,75.51967 L58.39458,75.75085 L59.66373,77.39017 L59.50509,79.08238 L58.23594,80.82747 L58.28881,82.41391 L56.80814,83.31289 L55.27458,83.41866 L54.11119,82.62543 z" stroke="Black" stroke-width="0" fill="#D9D9D9" fill-opacity="1" />
  <path d="M53.45115,75.54887 L52.22704,76.13033 L51.89042,77.17081 L51.92102,78.24191 L51.06414,79.00697 L49.68702,79.03757 L48.55473,78.54794 L48.37111,77.35443 L48.76894,76.22214 L48.95256,74.50838 L48.86075,72.64162 L48.79955,71.90717 L49.40107,72.51601 L49.88132,72.83617 L50.64971,73.15633 L51.73827,73.02827 L52.3786,72.38794 L52.31885,71.72355 L53.26753,71.66234 L54.09381,72.42741 L54.24682,73.80453 z" stroke="Black" stroke-width="0" fill="#D9D9D9" fill-opacity="1" />
  <path d="M59.67144,58.33315 L59.02916,62.47763 L58.87051,66.65526 L59.1878,68.92916 L58.3417,74.11153 L57.76,75.38068 L57.99826,75.51967 L57.88544,76.16589 L57.30914,76.87025 L56.50873,77.35049 L55.61227,77.31848 L55.26009,76.83823 L54.53424,76.06815 L54.74577,70.88577 L54.74577,67.23695 L53.89966,63.05933 L53.05356,63.95831 L52.89492,66.44373 L52.84203,68.55899 L52.1017,71.15018 L52.31885,71.72355 L52.3786,72.38794 L51.73827,73.02827 L50.64971,73.15633 L49.88132,72.83617 L49.40107,72.51601 L48.79955,71.90717 L49.01377,71.72355 L48.95256,70.34643 L48.43232,68.23485 L48.64653,65.87844 L49.19738,63.1548 L49.68702,60.40057 L49.77883,59.08466 L48.98317,57.18729 L48.15689,54.61667 L47.94267,52.38268 L47.78966,51.40339 L49.68272,51.77956 L51.02742,52.20218 L52.98682,52.89373 L55.21517,53.62371 L56.8288,53.66213 L59.13399,53.08583 L60.40184,52.20218 L60.91024,51.68097 L60.76804,52.08511 L60.43651,54.94136 z" stroke="Black" stroke-width="0" fill="#5394BD" fill-opacity="1" />
  <path d="M60.17237,35.98926 L60.92105,36.68178 L63.11424,37.67637 L64.26184,39.92056 L64.28734,41.85873 L64.61887,44.05192 L65.23092,45.76057 L65.38393,47.72424 L65.07791,49.56039 L64.10883,49.84092 L63.01223,49.35638 L61.94114,47.74974 L61.25258,46.75515 L60.69153,46.70415 L60.48751,48.84633 L60.71703,49.89192 L61.25258,50.70799 L60.91024,51.68097 L60.40184,52.20218 L59.13399,53.08583 L56.8288,53.66213 L55.21517,53.62371 L52.98682,52.89373 L51.02742,52.20218 L49.68272,51.77956 L47.78966,51.40339 L46.84098,51.06676 L46.47375,50.24049 L46.84098,49.13879 L47.91207,46.35395 L48.30991,43.90574 L48.40171,42.2226 L47.39183,43.32429 L45.76989,43.59972 L44.23975,43.63032 L43.50529,43.4467 L43.44408,41.33512 L43.6583,40.29463 L46.16772,36.86713 L47.42243,34.60254 L48.2181,33.47024 L49.50711,32.62466 L50.79242,32.59406 L52.62858,32.96129 L53.76088,32.9919 L54.09037,33.84315 L54.9356,34.45787 L55.8961,34.88049 L56.24188,34.99574 L56.54924,36.41728 L57.20237,38.06933 L57.42682,42.26262 L59.08495,41.21976 L59.78033,39.62725 L59.98588,37.44886 L60.14437,36.41344 z" stroke="Black" stroke-width="0" fill="#D6594A" fill-opacity="1" />
  <path d="M55.26041,31.98201 L55.07679,30.7579 L54.74952,29.64317 L54.69851,28.01103 L54.90253,26.96544 L55.97362,25.23129 L57.07022,24.31321 L58.29432,23.67566 L59.36541,23.57365 L60.66603,23.87968 L61.81363,25.02728 L62.34917,26.12387 L62.42568,27.80701 L62.32367,29.66868 L62.11965,30.22972 L61.09956,31.47933 L60.64053,31.78536 L60.23249,32.16789 L60.25799,34.69261 L60.14437,36.41344 L59.98588,37.44886 L59.78033,39.62725 L59.08495,41.21976 L57.42682,42.26262 L57.20237,38.06933 L56.54924,36.41728 L56.24188,34.99574 L56.20346,33.65105 L56.01136,32.65213 L55.62716,32.38319 z" stroke="Black" stroke-width="0" fill="#272423" fill-opacity="1" />
  <path d="M56.20346,33.65105 L56.24188,34.99574 L55.8961,34.88049 L54.9356,34.45787 L54.09037,33.84315 L53.76088,32.9919 L54.95438,32.37984 L55.26041,31.98201 L55.62716,32.38319 L56.01136,32.65213 z" stroke="Black" stroke-width="0" fill="#623B28" fill-opacity="1" />
  <path d="M54.69851,28.01103 L54.74952,29.64317 L54.31598,29.51566 L54.29048,28.47007 z" stroke="Black" stroke-width="0" fill="#623B28" fill-opacity="1" />
  <path d="M61.09956,31.47933 L62.11965,30.22972 L62.27267,30.53575 L62.06865,31.35182 L61.4821,31.83636 z" stroke="Black" stroke-width="0" fill="#623B28" fill-opacity="1" />
  <path d="M53.76091,32.99192 L54.09039,33.84317 L54.93563,34.45789 L55.89612,34.88051 L56.2419,34.99577" stroke="#FFFFFF" stroke-width="0.24" fill="none" />
  <path d="M53.89968,63.05935 L54.04296,60.76522 L53.97658,59.50383 L53.97658,57.37939 L53.91019,55.85244" stroke="#FFFFFF" stroke-width="0.24" fill="none" />
  <path d="M55.26043,31.98203 L55.62718,32.38322 L56.01138,32.65216 L56.20348,33.65107 L56.2419,34.99577 L56.54926,36.4173 L57.2024,38.06936 L57.42684,42.26264 L59.08497,41.21978 L59.78036,39.62728 L59.9859,37.44888 L60.25801,34.69263" stroke="#FFFFFF" stroke-width="0.24" fill="none" />
  <path d="M59.32188,29.03811 L59.83392,30.05559 L60.23251,32.16792" stroke="#FFFFFF" stroke-width="0.24" fill="none" />
  <path d="M62.11968,30.22975 L61.09959,31.47936" stroke="#FFFFFF" stroke-width="0.24" fill="none" />
  <path d="M48.40174,42.22262 L48.97971,40.46352 L48.64777,39.24639 L48.42647,37.80796" stroke="#FFFFFF" stroke-width="0.24" fill="none" />
  <path d="M52.31888,71.72357 L52.37863,72.38796 L51.7383,73.02829 L50.64973,73.15636 L49.88134,72.83619 L49.40109,72.51603 L48.79957,71.90719" stroke="#FFFFFF" stroke-width="0.24" fill="none" />
  <path d="M54.69854,28.01106 L54.74954,29.6432" stroke="#FFFFFF" stroke-width="0.24" fill="none" />
  <path d="M56.01138,32.65216 L56.19175,31.39259 L56.9294,30.24001 L57.1495,28.59847" stroke="#FFFFFF" stroke-width="0.24" fill="none" />
  <path d="M61.2526,46.75518 L60.87437,45.99592 L60.65308,45.22138 L60.59776,43.94893" stroke="#FFFFFF" stroke-width="0.24" fill="none" />
  <path d="M60.91026,51.68099 L60.40187,52.2022 L59.13401,53.08586 L56.82883,53.66216 L55.21519,53.62374 L52.98685,52.89376 L51.02744,52.2022 L49.68275,51.77959 L47.78968,51.40342" stroke="#FFFFFF" stroke-width="0.24" fill="none" />
  <path d="M57.99829,75.51969 L57.88546,76.16591 L57.30917,76.87027 L56.50875,77.35052 L55.61229,77.3185 L55.26011,76.83826 L54.53426,76.06817" stroke="#FFFFFF" stroke-width="0.24" fill="none" />
  <path d="M60.25801,34.69263 L60.23251,32.16792 L60.64055,31.78538 L61.09959,31.47936 L61.48212,31.83639 L62.06867,31.35184 L62.27269,30.53578 L62.11968,30.22975 L62.3237,29.6687 L62.4257,27.80704 L62.3492,26.12389 L61.81365,25.0273 L60.66605,23.8797 L59.36544,23.57367 L58.29435,23.67568 L57.07024,24.31324 L55.97364,25.23132 L54.90255,26.96547 L54.69854,28.01106 L54.2905,28.47009 L54.316,29.51569 L54.74954,29.6432 L55.07682,30.75793 L55.26043,31.98203 L54.95441,32.37987 L53.76091,32.99192 L52.62861,32.96132 L50.79245,32.59409 L49.50714,32.62469 L48.21812,33.47026 L47.42245,34.60256 L46.16774,36.86716 L43.65833,40.29465 L43.44411,41.33514 L43.50531,43.44673 L44.23978,43.63034 L45.76991,43.59974 L47.39185,43.32431 L48.40174,42.22262 L48.30993,43.90577 L47.91209,46.35398 L46.841,49.13882 L46.47377,50.24051 L46.841,51.06678 L47.78968,51.40342 L47.9427,52.3827 L48.15692,54.61669 L48.98319,57.18731 L49.77886,59.08468 L49.68705,60.40059 L49.19741,63.15483 L48.64656,65.87846 L48.43234,68.23487 L48.95259,70.34645 L49.01379,71.72357 L48.79957,71.90719 L48.86078,72.64165 L48.95259,74.50841 L48.76897,76.22216 L48.37114,77.35445 L48.55475,78.54796 L49.68705,79.03761 L51.06417,79.007 L51.92104,78.24194 L51.89044,77.17085 L52.22707,76.13035 L53.45118,75.5489 L54.24684,73.80455 L54.09383,72.42743 L53.26756,71.66236 L52.31888,71.72357 L52.10172,71.1502 L52.84206,68.55901 L52.89494,66.44376 L53.05359,63.95833 L53.89968,63.05935 L54.74579,67.23698 L54.74579,70.88579 L54.53426,76.06817 L54.48138,77.65461 L54.69291,79.55833 L54.53426,81.51495 L54.11121,82.62546 L55.2746,83.41868 L56.80816,83.31291 L58.28884,82.41393 L58.23596,80.82749 L59.50511,79.08241 L59.66376,77.3902 L58.3946,75.75088 L57.76003,75.38071 L58.34172,74.11156 L59.18782,68.92918 L58.87054,66.65528 L59.02918,62.47765 L59.67147,58.33318 L60.43653,54.94138 L60.76806,52.08514 L61.2526,50.70802 L60.71706,49.89195 L60.48754,48.84636 L60.69156,46.70417 L61.2526,46.75518 L61.94116,47.74976 L63.01225,49.3564 L64.10885,49.84094 L65.07793,49.56042 L65.38396,47.72426 L65.23095,45.76059 L64.6189,44.05194 L64.28736,41.85875 L64.26186,39.92059 L63.11426,37.67639 L60.92107,36.6818 L60.1724,35.98928" stroke="#FFFFFF" stroke-width="0.48" fill="none" />
</svg>