<?xml version="1.0" encoding="utf-8" standalone="no"?>
<!DOCTYPE svg PUBLIC "-//W3C//DTD SVG 1.1//EN" "http://www.w3.org/Graphics/SVG/1.1/DTD/svg11.dtd">
<svg version="1.1" width="120pt" height="120pt" viewBox="0 0 120 120" overflow="visible" xmlns="http://www.w3.org/2000/svg">
  <path d="M66.87877,61.58541 L67.3733,61.46331 L68.04182,61.59457 L70.57552,62.36994 L75.92986,64.69606 L76.18934,64.79985 L84.35822,69.19566 L92.50269,74.21116 L95.30807,76.24728 L93.32995,77.39201 L89.5813,79.61434 L86.06465,81.73288 L83.45464,83.39046 L82.34042,84.26658 L81.36053,85.27395 L80.42641,86.80027 L79.65104,89.12639 L79.15957,92.1302 L78.97946,95.54305 L78.95504,98.90401 L79.18399,101.6697 L78.1003,102.265 L77.24861,102.4695 L76.08555,102.5245 L74.79123,102.0299 L69.43994,99.03223 L53.1266,89.5965 L47.77531,86.41564 L46.48098,85.35332 L45.29045,84.08647 L44.67076,82.5632 L44.60361,82.09309 L44.46318,81.11319 L44.38687,77.70338 L44.41129,75.2979 L44.5914,74.72706 L45.08287,74.15621 L47.40899,72.34599 L52.29628,68.93619 L59.38147,64.84869 L59.61652,64.72048 L64.50076,62.47373 L66.75056,61.61899" stroke="Black" stroke-width="0" fill="#E8DDD4" fill-opacity="1" />
  <path d="M111.6336,94.7402 L111.6336,94.11747 L111.9725,94.22431 L112.3876,94.60894 L112.3876,95.46368 L111.9725,95.85137 L111.3009,96.08337 L110.5255,96.08337 L109.8509,95.85137 L109.4632,95.46368 L109.4632,94.66084 L110.1867,94.22736 L110.1867,94.73715 C110.3729,94.9539 110.6415,95.076 110.9254,95.076 z" stroke="Black" stroke-width="0" fill="#B09278" fill-opacity="1" />
  <path d="M87.61539,107.9948 L87.61539,108.5199 C87.16666,108.9411 86.54086,108.9442 86.08907,108.5992 L86.08907,108.004 L86.08907,107.4362 L86.42487,107.4362 L87.61539,107.0454 z" stroke="Black" stroke-width="0" fill="#B09278" fill-opacity="1" />
  <path d="M79.18399,101.6697 L78.95504,98.90401 L78.97946,95.54305 L79.15957,92.1302 L79.65104,89.12639 L80.42641,86.80027 L81.36053,85.277 L82.34042,84.26658 L83.45464,83.39046 L86.0616,81.73288 L89.5813,79.61434 L93.32995,77.39201 L95.30807,76.24728 L97.07861,75.21853 L100.8517,73.09695 L104.3958,71.15852 L107.0852,69.71156 L109.3869,68.80798 L110.7819,68.3165 L113.0836,68.02955 L115.2052,68.3165 L116.8323,69.19566 L117.919,70.56325 L118.4624,72.60547 L118.6425,75.37421 L118.6669,78.71076 L118.6669,82.3312 L118.5906,85.71658 L118.1968,88.14649 L118.151,88.43039 L116.8048,89.98113 L115.6173,90.9885 L112.5922,92.82619 L111.6336,93.38178 L110.1867,94.22736 L109.4571,94.64863 L108.5077,95.20421 L104.1363,97.73791 L99.74051,100.2716 L95.34775,102.8053 L91.21142,105.1589 L88.08245,106.8928 L87.61539,107.0454 L86.42792,107.4362 L86.08907,107.427 L85.10612,107.4087 L83.11885,106.4502 L81.17737,105.1314 L80.78968,104.7468 L79.7823,103.66 L79.33968,102.1856 z" stroke="Black" stroke-width="0" fill="#E8DDD4" fill-opacity="1" />
  <path d="M87.61539,108.5199 L87.61539,107.9948 L88.15877,108.3123 L88.36635,108.7519 L88.36635,109.1395 L88.15877,109.5547 L87.59097,109.8905 L86.84003,109.9943 L86.08907,109.8905 L85.5457,109.5547 L85.33813,109.1395 L85.33813,108.7519 L85.5457,108.3123 L86.08907,108.004 L86.08907,108.5199 C86.54086,108.9442 87.16666,108.9411 87.61539,108.5962 z" stroke="Black" stroke-width="0" fill="#B09278" fill-opacity="1" />
  <path d="M8.264902,63.66121 C8.713641,64.00311 9.342486,64.00311 9.791225,63.66121 L9.791225,63.08121 L10.3346,63.37732 L10.54218,63.8169 L10.54218,64.20458 L10.3346,64.64417 L9.766805,64.95554 L9.015853,65.05933 L8.264902,64.95554 L7.724584,64.64417 L7.513951,64.20458 L7.513951,63.8169 L7.724584,63.37732 L8.264902,63.06594 z" stroke="Black" stroke-width="0" fill="#B09278" fill-opacity="1" />
  <path d="M8.264902,62.63858 L7.541425,62.62637 L5.602994,61.69836 L3.688985,60.40404 L3.276878,60.04078 L2.242031,58.95403 L1.802449,57.45518 L1.69866,56.93929 L1.518553,54.14611 L1.49108,50.73325 L1.49108,47.14029 L1.49108,43.83122 L1.567396,41.11436 L1.851292,39.20341 L2.370242,38.11666 L3.63709,36.95055 L6.662263,35.0396 L10.77418,32.58222 L15.14252,29.99663 L19.53833,27.46293 L23.93414,24.98418 L28.07047,22.68249 C28.07047,22.67638 32.52734,20.25258 34.97861,21.17142 L46.58172,27.35914 L104.3958,60.73983 L112.8791,65.80722 L117.0399,68.72861 L118.1236,70.09924 L118.6669,72.11399 L118.8501,74.88274 L118.8745,78.21928 L118.8745,81.83972 L118.7982,85.22511 L118.3555,87.96638 L118.2029,88.14649 L118.5906,85.71658 L118.6669,82.3312 L118.6669,78.71076 L118.6425,75.37421 L118.4624,72.60547 L117.919,70.56325 L116.8323,69.19566 L115.2052,68.3165 L113.0836,68.02955 L110.7819,68.3165 L109.3869,68.80798 L107.0852,69.71156 L104.3958,71.15852 L100.8517,73.09695 L97.07861,75.21853 L95.30807,76.24728 L92.50269,74.21116 L84.35822,69.19566 L76.18934,64.79985 L75.92986,64.69606 L70.57552,62.36994 L68.04182,61.59457 L67.3733,61.46331 L66.87877,61.58541 L66.75056,61.17941 L66.23161,60.53225 L63.64602,58.3374 L58.27031,54.45748 L50.12585,49.41451 L41.95391,45.04617 L41.72191,44.91491 L36.3462,42.61321 L33.8125,41.81342 L33.16534,41.70963 L32.51818,41.86531 L30.26838,42.72006 L25.38109,44.94238 L25.14909,45.07059 L18.06695,49.15504 L13.17661,52.57095 L10.85049,54.40559 L10.35902,54.94896 L10.17891,55.51675 L10.15144,57.94666 L10.23081,61.35952 L10.34986,62.19289 L10.17891,62.29057 L9.791225,62.40047 L8.860168,62.65384 z" stroke="Black" stroke-width="0" fill="#E8DDD4" fill-opacity="1" />
  <path d="M10.34986,62.19289 L10.23081,61.35952 L10.15144,57.94666 L10.17891,55.52286 L10.35902,54.94896 L10.85049,54.40559 L13.17661,52.57095 L18.06695,49.15504 L25.14909,45.07059 L25.38109,44.94238 L30.26838,42.72006 L32.51818,41.86531 L33.16534,41.70963 L33.8125,41.81342 L36.3462,42.61321 L41.72191,44.91491 L41.95391,45.04617 L50.12585,49.41451 L58.27031,54.45748 L63.64602,58.3374 L66.23161,60.53225 L66.75056,61.17941 L66.87877,61.58541 L64.50076,62.47373 L59.61652,64.72048 L59.38147,64.84869 L52.29628,68.93619 L47.40899,72.34599 L45.08287,74.15621 L44.5914,74.72706 L44.41129,75.29485 L44.38687,77.70338 L44.46318,81.11319 L44.60361,82.09309 L43.86792,82.51131 L43.01623,82.69141 L41.85317,82.76773 L40.55885,82.25183 L35.20756,79.25413 L18.89116,69.83977 L13.53988,66.65891 L12.24555,65.59964 L11.05807,64.33279 L10.43839,62.80647 z" stroke="Black" stroke-width="0" fill="#E8DDD4" fill-opacity="1" />
  <path d="M8.264902,62.63858 L8.860168,62.65384 L9.791225,62.40047 L9.791225,63.08121 L9.791225,63.58184 C9.342486,64.00311 8.713641,64.00311 8.264902,63.66121 L8.264902,63.06594 z" stroke="Black" stroke-width="0" fill="#B09278" fill-opacity="1" />
  <path d="M111.6458,94.74937 L110.9254,95.076 C110.6415,95.076 110.3729,94.9539 110.1897,94.73715 L110.1867,94.22736 L111.6336,93.38178 L111.6336,94.11747 z" stroke="Black" stroke-width="0" fill="#B09278" fill-opacity="1" />
  <path d="M8.264902,62.63858 L7.541425,62.62637 L5.602994,61.69836 L3.688985,60.40404 L3.276878,60.04078 L2.242031,58.95403 L1.802449,57.45518 L1.69866,56.93929 L1.518553,54.14611 L1.49108,50.73325 L1.49108,47.14029 L1.49108,43.83122 L1.567396,41.11436 L1.851292,39.20341 L2.370242,38.11666 L3.63709,36.95055 L6.662263,35.0396 L10.77418,32.58222 L15.14252,29.99663 L19.53833,27.46293 L23.93414,24.98418 L28.07047,22.68249 C28.07047,22.67638 32.52734,20.25258 34.97861,21.17142 L46.58172,27.35914 L104.3958,60.73983 L112.8791,65.80722 L117.0399,68.72861 L118.1236,70.09924 L118.6669,72.11399 L118.8501,74.88274 L118.8745,78.21928 L118.8745,81.83972 L118.7982,85.22511 L118.3555,87.96638 L118.2029,88.14649 L118.5906,85.71658 L118.6669,82.3312 L118.6669,78.71076 L118.6425,75.37421 L118.4624,72.60547 L117.919,70.56325 L116.8323,69.19566 L115.2052,68.3165 L113.0836,68.02955 L110.7819,68.3165 L109.3869,68.80798 L107.0852,69.71156 L104.3958,71.15852 L100.8517,73.09695 L97.07861,75.21853 L95.30807,76.24728 L92.50269,74.21116 L84.35822,69.19566 L76.18934,64.79985 L75.92986,64.69606 L70.57552,62.36994 L68.04182,61.59457 L67.3733,61.46331 L66.87877,61.58541 L66.75056,61.17941 L66.23161,60.53225 L63.64602,58.3374 L58.27031,54.45748 L50.12585,49.41451 L41.95391,45.04617 L41.72191,44.91491 L36.3462,42.61321 L33.8125,41.81342 L33.16534,41.70963 L32.51818,41.86531 L30.26838,42.72006 L25.38109,44.94238 L25.14909,45.07059 L18.06695,49.15504 L13.17661,52.57095 L10.85049,54.40559 L10.35902,54.94896 L10.17891,55.51675 L10.15144,57.94666 L10.23081,61.35952 L10.34986,62.19289 L10.17891,62.29057 L9.791225,62.40047 L8.860168,62.65384 z" stroke="#FFFFFF" stroke-width="0.24" fill="none" />
  <path d="M111.6336,94.7402 L111.6336,94.11747 L111.9725,94.22431 L112.3876,94.60894 L112.3876,95.46368 L111.9725,95.85137 L111.3009,96.08337 L110.5255,96.08337 L109.8509,95.85137 L109.4632,95.46368 L109.4632,94.66084 L110.1867,94.22736 L110.1867,94.73715 C110.3729,94.9539 110.6415,95.076 110.9254,95.076 L111.6458,94.74937 L110.9254,95.076 C110.6415,95.076 110.3729,94.9539 110.1897,94.73715 L110.1867,94.22736 L111.6336,93.38178 L111.6336,94.11747 z" stroke="#FFFFFF" stroke-width="0.24" fill="none" />
  <path d="M87.61539,108.5199 L87.61539,107.9948 L88.15877,108.3123 L88.36635,108.7519 L88.36635,109.1395 L88.15877,109.5547 L87.59097,109.8905 L86.84003,109.9943 L86.08907,109.8905 L85.5457,109.5547 L85.33813,109.1395 L85.33813,108.7519 L85.5457,108.3123 L86.08907,108.004 L86.08907,108.5199 C86.54086,108.9442 87.16666,108.9411 87.61539,108.5962 z" stroke="#FFFFFF" stroke-width="0.24" fill="none" />
  <path d="M87.61539,107.9948 L87.61539,108.5199 C87.16666,108.9411 86.54086,108.9442 86.08907,108.5992 L86.08907,108.004 L86.08907,107.4362 L86.42487,107.4362 L87.61539,107.0454 z" stroke="#FFFFFF" stroke-width="0.24" fill="none" />
  <path d="M8.264902,63.66121 C8.713641,64.00311 9.342486,64.00311 9.791225,63.66121 L9.791225,63.08121 L10.3346,63.37732 L10.54218,63.8169 L10.54218,64.20458 L10.3346,64.64417 L9.766805,64.95554 L9.015853,65.05933 L8.264902,64.95554 L7.724584,64.64417 L7.513951,64.20458 L7.513951,63.8169 L7.724584,63.37732 L8.264902,63.06594 z" stroke="#FFFFFF" stroke-width="0.24" fill="none" />
  <path d="M9.791225,63.08121 L9.791225,63.58184 C9.342486,64.00311 8.713641,64.00311 8.264902,63.66121 L8.264902,63.06594 L8.264902,62.63858 L8.860168,62.65384 L9.791225,62.40047 z" stroke="#FFFFFF" stroke-width="0.24" fill="none" />
  <path d="M28.07047,22.67638 C28.07047,22.67638 32.52734,20.25258 34.97861,21.17142 L46.58172,27.35914" stroke="#FFFFFF" stroke-width="0.24" fill="none" />
  <path d="M110.1897,94.73715 C110.3729,94.9539 110.6415,95.076 110.9254,95.076 L111.6458,94.74937" stroke="#FFFFFF" stroke-width="0.24" fill="none" />
  <path d="M86.08907,108.5992 C86.54086,108.9442 87.16666,108.9411 87.61539,108.5962" stroke="#FFFFFF" stroke-width="0.24" fill="none" />
  <path d="M8.264902,63.66121 C8.713641,64.00311 9.342486,64.00311 9.791225,63.66121" stroke="#FFFFFF" stroke-width="0.24" fill="none" />
  <path d="M95.22197,62.2431 C95.22197,62.2431 94.21851,57.9784 92.21159,60.94697 C90.20467,63.91553 84.64383,73.36478 84.64383,73.36478" stroke="#FFFFFF" stroke-width="0.24" fill="none" />
  <path d="M100.6156,70.39622 C100.6156,70.39622 101.619,68.68197 99.77935,68.22205 C97.93967,67.76213 95.22197,62.2431 95.22197,62.2431" stroke="#FFFFFF" stroke-width="0.24" fill="none" />
  <path d="M96.33954,75.64795 C99.311,70.88543 100.6156,70.39622 100.6156,70.39622" stroke="#FFFFFF" stroke-width="0.24" fill="none" />
  <path d="M84.64383,73.36478 C84.64383,73.36478 84.60202,75.41351 86.31627,76.29154 C87.284,76.78722 87.73208,78.77526 88.29235,80.39017" stroke="#FFFFFF" stroke-width="0.24" fill="none" />
  <path d="M39.77195,30.8169 C39.77195,30.8169 34.41826,30.07537 32.506,28.99176 C30.59375,27.90814 29.51014,27.65318 29.57388,28.80053 C29.63762,29.94788 31.03994,35.68465 30.27504,38.55304 C29.51014,41.42142 26.51427,45.18219 29.06395,44.736 C31.61362,44.2898 36.20303,43.90735 40.91993,45.56464 C45.63683,47.22193 45.8918,47.73186 45.38186,46.01083 C44.87193,44.2898 44.48948,38.23433 45.19064,35.68465 C45.8918,33.13498 47.03915,30.77653 44.80819,30.90401 C42.57722,31.0315 39.77195,30.8169 39.77195,30.8169 z" stroke="#FFFFFF" stroke-width="0.24" fill="none" />
  <path d="M8.264902,62.63858 L7.541425,62.62637 L5.602994,61.69836 L3.688985,60.40404 L3.276878,60.04078 L2.242031,58.95403 L1.802449,57.45518 L1.69866,56.93929 L1.518553,54.14611 L1.49108,50.73325 L1.49108,43.83122 L1.567396,41.11436 L1.851292,39.20341 L2.370242,38.11666 L3.63709,36.95055 L6.662263,35.0396 L10.77418,32.58222 L15.14252,29.99663 L19.53833,27.46293 L23.93414,24.98418 L28.07047,22.68249 C28.07047,22.67638 32.52734,20.25258 34.97861,21.17142 L46.58172,27.35914 L104.3958,60.73983 L112.8791,65.80722 L117.0399,68.72861 L118.1236,70.09924 L118.6669,72.11399 L118.8501,74.88274 L118.8745,78.21928 L118.8745,81.83972 L118.7982,85.22511 L118.3555,87.96638 L118.2029,88.14649 L118.151,88.43039 L116.8048,89.98113 L115.6173,90.9885 L112.5922,92.82619 L111.6336,93.38178 L111.6336,94.11747 L111.9725,94.22431 L112.3876,94.60894 L112.3876,95.46368 L111.9725,95.85137 L111.3009,96.08337 L110.5255,96.08337 L109.8509,95.85137 L109.4632,95.46368 L109.4632,94.66084 L108.5077,95.20421 L104.1363,97.73791 L99.74051,100.2716 L95.34775,102.8053 L91.21142,105.1589 L88.08245,106.8928 L87.61539,107.0454 L87.61539,107.9948 L88.15877,108.3123 L88.36635,108.7519 L88.36635,109.1395 L88.15877,109.5547 L87.59097,109.8905 L86.84003,109.9943 L86.08907,109.8905 L85.5457,109.5547 L85.33813,109.1395 L85.33813,108.7519 L85.5457,108.3123 L86.08907,108.004 L86.08907,107.427 L85.10612,107.4087 L83.11885,106.4502 L81.17737,105.1314 L80.78968,104.7468 L79.7823,103.66 L79.33968,102.1856 L79.18704,101.6941 L78.1003,102.265 L77.24861,102.4695 L76.08555,102.5245 L74.79123,102.0299 L69.43994,99.03223 L53.1266,89.5965 L47.77531,86.41564 L46.48098,85.35332 L45.29045,84.08647 L44.67076,82.5632 L44.60361,82.09309 L43.86792,82.51131 L43.01623,82.69141 L41.85317,82.76773 L40.55885,82.25183 L35.20756,79.25413 L18.89116,69.83977 L13.53988,66.65891 L12.24555,65.59964 L11.05807,64.33279 L10.43839,62.80647 L10.34986,62.19289 L10.17891,62.29057 L9.791225,62.40047 L9.791225,63.08121 L10.3346,63.37732 L10.54218,63.8169 L10.54218,64.20458 L10.3346,64.64417 L9.766805,64.95554 L9.015853,65.05933 L8.264902,64.95554 L7.724584,64.64417 L7.513951,64.20458 L7.513951,63.8169 L7.724584,63.37732 L8.264902,63.06594 z" stroke="#FFFFFF" stroke-width="0.48" fill="none" />
  <path d="M79.18401,101.6697 L78.95506,98.90405 L78.97948,95.54308 L79.15959,92.13022 L79.65107,89.12641 L80.42644,86.8003 L81.36055,85.27703 L82.34045,84.2666 L83.45467,83.39049 L86.06162,81.7329 L89.58133,79.61436 L93.32998,77.39204 L95.30809,76.2473 L97.07863,75.21856 L100.8517,73.09697 L104.3958,71.15854 L107.0852,69.71159 L109.3869,68.808 L110.782,68.31652 L113.0836,68.02957 L115.2052,68.31652 L116.8323,69.19569 L117.919,70.56327 L118.4624,72.60549 L118.6425,75.37424 L118.6669,78.71078 L118.6669,82.33122 L118.5906,85.71661 L118.1968,88.14651 L118.151,88.43041 L116.8048,89.98116 L115.6173,90.98853 L112.5922,92.82622 L111.6336,93.38181 L110.1867,94.22739 L109.4571,94.64865 L108.5077,95.20424 L104.1363,97.73793 L99.74053,100.2716 L95.34778,102.8053 L91.21144,105.1589 L88.08247,106.8928 L87.61543,107.0454 L86.42794,107.4362 L86.0891,107.427 L85.10615,107.4087 L83.11887,106.4502 L81.17739,105.1314 L80.7897,104.7468 L79.78233,103.6601 L79.3397,102.1856 L79.18707,101.6942 z" stroke="#FFFFFF" stroke-width="0.24" fill="none" />
  <path d="M66.87879,61.58544 L67.37332,61.46333 L68.04185,61.59459 L70.57555,62.36997 L75.92989,64.69608 L76.18937,64.79987 L84.35825,69.19569 L92.50271,74.21118 L95.30809,76.2473 L93.32998,77.39204 L89.58133,79.61436 L86.06467,81.7329 L83.45467,83.39049 L82.34045,84.2666 L81.36055,85.27397 L80.42644,86.8003 L79.65107,89.12641 L79.15959,92.13022 L78.97948,95.54308 L78.95506,98.90405 L79.18401,101.6697 L78.10032,102.265 L77.24863,102.4695 L76.08557,102.5245 L74.79125,102.03 L69.43996,99.03225 L53.12662,89.59652 L47.77533,86.41566 L46.48101,85.35334 L45.29048,84.08649 L44.67079,82.56322 L44.60363,82.09312 L44.46321,81.11322 L44.38689,77.70341 L44.41132,75.29793 L44.59142,74.72708 L45.0829,74.15623 L47.40901,72.34602 L52.2963,68.93621 L59.38149,64.84872 L59.61655,64.7205 L64.50078,62.47376 L66.75058,61.61901 z" stroke="#FFFFFF" stroke-width="0.24" fill="none" />
  <path d="M10.34988,62.19291 L10.23083,61.35954 L10.15146,57.94668 L10.17894,55.52288 L10.17894,55.51678 L10.35904,54.94898 L10.85052,54.40561 L13.17663,52.57097 L18.06698,49.15506 L25.14911,45.07062 L25.38112,44.94241 L30.2684,42.72008 L32.5182,41.86534 L33.16536,41.70966 L33.81253,41.81345 L36.34622,42.61324 L41.72194,44.91493 L41.95393,45.0462 L50.12587,49.41454 L58.27033,54.45751 L63.64604,58.33742 L66.23164,60.53227 L66.75058,61.17944 L66.87879,61.58544 L66.75058,61.61901 L64.50078,62.47376 L59.61655,64.7205 L59.38149,64.84872 L52.2963,68.93621 L47.40901,72.34602 L45.0829,74.15623 L44.59142,74.72708 L44.41132,75.29487 L44.38689,77.70341 L44.46321,81.11322 L44.60363,82.09312 L44.59142,82.09617 L43.86794,82.51133 L43.01625,82.69144 L41.8532,82.76775 L40.55888,82.25185 L35.20758,79.25416 L18.89119,69.83979 L13.5399,66.65894 L12.24558,65.59967 L11.0581,64.33282 L10.43841,62.8065 z" stroke="#FFFFFF" stroke-width="0.24" fill="none" />
  <path d="M8.264926,62.6386 L7.541448,62.62639" stroke="#FFFFFF" stroke-width="0.24" fill="none" />
  <path d="M10.17894,62.2906 L9.791249,62.40049" stroke="#FFFFFF" stroke-width="0.24" fill="none" />
  <path d="M33.16536,41.70966 L32.5182,41.86534" stroke="#FFFFFF" stroke-width="0.24" fill="none" />
  <path d="M59.61655,64.7205 L66.75058,61.61901" stroke="#FFFFFF" stroke-width="0.24" fill="none" />
  <path d="M8.264926,62.6386 L9.791249,62.40049" stroke="#FFFFFF" stroke-width="0.24" fill="none" />
  <path d="M87.591,109.8905 L88.15879,109.5547 L88.36637,109.1396 L88.36637,108.7519 L88.15879,108.3123" stroke="#FFFFFF" stroke-width="0.24" fill="none" />
  <path d="M85.54573,108.3123 L86.0891,108.004" stroke="#FFFFFF" stroke-width="0.24" fill="none" />
  <path d="M87.591,109.8905 L86.84005,109.9943 L86.0891,109.8905 L85.54573,109.5547 L85.33815,109.1396 L85.33815,108.7519 L85.54573,108.3123" stroke="#FFFFFF" stroke-width="0.24" fill="none" />
  <path d="M111.9725,95.85139 L112.3876,95.46371" stroke="#FFFFFF" stroke-width="0.24" fill="none" />
  <path d="M111.6336,94.11749 L112.3876,94.60897" stroke="#FFFFFF" stroke-width="0.24" fill="none" />
  <path d="M109.4632,95.46371 L109.8509,95.85139 L110.5255,96.0834 L111.3009,96.0834 L111.9725,95.85139" stroke="#FFFFFF" stroke-width="0.24" fill="none" />
  <path d="M9.766827,64.95556 L10.33462,64.64419 L10.5422,64.20461 L10.5422,63.81692 L10.33462,63.37734" stroke="#FFFFFF" stroke-width="0.24" fill="none" />
  <path d="M9.766827,64.95556 L9.015876,65.05935 L8.264926,64.95556 L7.724607,64.64419 L7.513975,64.20461 L7.513975,63.81692 L7.724607,63.37734" stroke="#FFFFFF" stroke-width="0.24" fill="none" />
  <path d="M1.698685,56.93931 L1.802472,57.45521 L2.242054,58.95406 L3.2769,60.0408 L3.689009,60.40406" stroke="#FFFFFF" stroke-width="0.24" fill="none" />
  <path d="M5.603019,61.69838 L7.541448,62.62639" stroke="#FFFFFF" stroke-width="0.24" fill="none" />
  <path d="M3.689009,60.40406 L5.603019,61.69838" stroke="#FFFFFF" stroke-width="0.24" fill="none" />
  <path d="M1.491103,47.14031 L1.491103,50.73328 L1.518576,54.14614 L1.698685,56.93931" stroke="#FFFFFF" stroke-width="0.24" fill="none" />
  <path d="M10.35904,62.18986 L10.17894,62.2906" stroke="#FFFFFF" stroke-width="0.24" fill="none" />
  <path d="M10.17894,55.51678 L10.17894,49.80527 L10.2583,47.09147 L10.5422,45.17746 L11.06115,44.09377 L12.328,42.92766 L15.35012,41.0167 L19.46203,38.55932 L23.83037,35.97373 L28.22618,33.44004 L32.62199,30.95823 L33.16536,30.61634" stroke="#FFFFFF" stroke-width="0.24" fill="none" />
  <path d="M79.18707,101.6697 L78.10032,102.265 L77.24863,102.4695 L76.08557,102.5245" stroke="#FFFFFF" stroke-width="0.24" fill="none" />
  <path d="M44.41132,75.29793 L44.38689,77.70341" stroke="#FFFFFF" stroke-width="0.24" fill="none" />
  <path d="M53.12662,89.59652 L47.77533,86.41566" stroke="#FFFFFF" stroke-width="0.24" fill="none" />
  <path d="M44.38689,77.70341 L44.46321,81.11322" stroke="#FFFFFF" stroke-width="0.24" fill="none" />
  <path d="M74.79125,102.03 L69.43996,99.03225" stroke="#FFFFFF" stroke-width="0.24" fill="none" />
  <path d="M47.77533,86.41566 L46.48101,85.35334" stroke="#FFFFFF" stroke-width="0.24" fill="none" />
  <path d="M75.92989,64.69608 L70.57555,62.36997 L68.04185,61.59459 L67.37332,61.46333" stroke="#FFFFFF" stroke-width="0.24" fill="none" />
  <path d="M92.50271,74.21118 L95.3203,76.2534" stroke="#FFFFFF" stroke-width="0.24" fill="none" />
  <path d="M52.2963,68.93621 L59.38149,64.84872" stroke="#FFFFFF" stroke-width="0.24" fill="none" />
  <path d="M76.18937,64.79987 L84.35825,69.19569 L92.50271,74.21118" stroke="#FFFFFF" stroke-width="0.24" fill="none" />
  <path d="M45.0829,74.15623 L52.2963,68.93621" stroke="#FFFFFF" stroke-width="0.24" fill="none" />
  <path d="M45.0829,74.15623 L44.59142,74.72708 L44.41132,75.29487" stroke="#FFFFFF" stroke-width="0.24" fill="none" />
  <path d="M59.61655,64.7205 L59.38149,64.84872" stroke="#FFFFFF" stroke-width="0.24" fill="none" />
  <path d="M76.18937,64.79987 L75.92989,64.69608" stroke="#FFFFFF" stroke-width="0.24" fill="none" />
  <path d="M44.67079,82.56322 L45.29048,84.08649 L46.48101,85.35334" stroke="#FFFFFF" stroke-width="0.24" fill="none" />
  <path d="M76.08557,102.5245 L74.79125,102.03" stroke="#FFFFFF" stroke-width="0.24" fill="none" />
  <path d="M44.59142,82.09617 L43.86794,82.51133 L43.01625,82.69144 L41.8532,82.76775" stroke="#FFFFFF" stroke-width="0.24" fill="none" />
  <path d="M10.17894,55.51678 L10.15146,57.94668" stroke="#FFFFFF" stroke-width="0.24" fill="none" />
  <path d="M18.89119,69.83979 L13.5399,66.65894" stroke="#FFFFFF" stroke-width="0.24" fill="none" />
  <path d="M10.15146,57.94668 L10.23083,61.35954" stroke="#FFFFFF" stroke-width="0.24" fill="none" />
  <path d="M40.55888,82.25185 L35.20758,79.25416" stroke="#FFFFFF" stroke-width="0.24" fill="none" />
  <path d="M13.5399,66.65894 L12.24558,65.59967" stroke="#FFFFFF" stroke-width="0.24" fill="none" />
  <path d="M41.72194,44.91493 L36.34622,42.61324 L33.81253,41.81345 L33.16536,41.70966" stroke="#FFFFFF" stroke-width="0.24" fill="none" />
  <path d="M32.5182,41.86534 L25.38112,44.94241" stroke="#FFFFFF" stroke-width="0.24" fill="none" />
  <path d="M58.27033,54.45751 L63.64604,58.33742" stroke="#FFFFFF" stroke-width="0.24" fill="none" />
  <path d="M18.06698,49.15506 L25.14911,45.07062" stroke="#FFFFFF" stroke-width="0.24" fill="none" />
  <path d="M41.95393,45.0462 L50.12587,49.41454 L58.27033,54.45751" stroke="#FFFFFF" stroke-width="0.24" fill="none" />
  <path d="M10.85052,54.40561 L13.17663,52.57097" stroke="#FFFFFF" stroke-width="0.24" fill="none" />
  <path d="M63.64604,58.33742 L66.23164,60.53227" stroke="#FFFFFF" stroke-width="0.24" fill="none" />
  <path d="M13.17663,52.57097 L18.06698,49.15506" stroke="#FFFFFF" stroke-width="0.24" fill="none" />
  <path d="M10.35904,54.94898 L10.17894,55.51678" stroke="#FFFFFF" stroke-width="0.24" fill="none" />
  <path d="M66.88184,61.59459 L66.75058,61.17944" stroke="#FFFFFF" stroke-width="0.24" fill="none" />
  <path d="M10.35904,54.94898 L10.85052,54.40561" stroke="#FFFFFF" stroke-width="0.24" fill="none" />
  <path d="M66.23164,60.53227 L66.75058,61.17944" stroke="#FFFFFF" stroke-width="0.24" fill="none" />
  <path d="M25.38112,44.94241 L25.14911,45.07062" stroke="#FFFFFF" stroke-width="0.24" fill="none" />
  <path d="M41.95393,45.0462 L41.72194,44.91493" stroke="#FFFFFF" stroke-width="0.24" fill="none" />
  <path d="M10.43841,62.8065 L11.0581,64.33282 L12.24558,65.59967" stroke="#FFFFFF" stroke-width="0.24" fill="none" />
  <path d="M41.8532,82.76775 L40.55888,82.25185" stroke="#FFFFFF" stroke-width="0.24" fill="none" />
  <path d="M118.2029,88.14651 L118.3556,87.96641" stroke="#FFFFFF" stroke-width="0.24" fill="none" />
  <path d="M118.8745,78.21931 L118.8501,74.88277 L118.6669,72.11401 L118.1236,70.09927 L117.0399,68.72863" stroke="#FFFFFF" stroke-width="0.24" fill="none" />
  <path d="M118.3556,87.96641 L118.7982,85.22514 L118.8745,81.83974 L118.8745,78.21931" stroke="#FFFFFF" stroke-width="0.24" fill="none" />
  <path d="M104.3958,60.73985 L112.8791,65.80724 L117.0399,68.72863" stroke="#FFFFFF" stroke-width="0.24" fill="none" />
  <path d="M79.3397,102.1856 L79.78233,103.6601 L80.7897,104.7468 L81.17739,105.1314 L83.11887,106.4502 L85.10615,107.4087" stroke="#FFFFFF" stroke-width="0.24" fill="none" />
  <path d="M79.3397,102.1856 L79.18707,101.6942" stroke="#FFFFFF" stroke-width="0.24" fill="none" />
  <path d="M118.151,88.43041 L116.8048,89.98116" stroke="#FFFFFF" stroke-width="0.24" fill="none" />
  <path d="M117.919,70.56327 L118.4624,72.60549 L118.6425,75.37424" stroke="#FFFFFF" stroke-width="0.24" fill="none" />
  <path d="M113.0836,68.02957 L115.2052,68.31652" stroke="#FFFFFF" stroke-width="0.24" fill="none" />
  <path d="M118.6425,75.37424 L118.6669,78.71078" stroke="#FFFFFF" stroke-width="0.24" fill="none" />
  <path d="M116.8323,69.19569 L117.919,70.56327" stroke="#FFFFFF" stroke-width="0.24" fill="none" />
  <path d="M110.782,68.31652 L113.0836,68.02957" stroke="#FFFFFF" stroke-width="0.24" fill="none" />
  <path d="M115.2052,68.31652 L116.8323,69.19569" stroke="#FFFFFF" stroke-width="0.24" fill="none" />
  <path d="M118.6669,78.71078 L118.5906,85.71661" stroke="#FFFFFF" stroke-width="0.24" fill="none" />
  <path d="M88.08247,106.8928 L91.21144,105.1589" stroke="#FFFFFF" stroke-width="0.24" fill="none" />
  <path d="M115.6173,90.98853 L112.5922,92.82622" stroke="#FFFFFF" stroke-width="0.24" fill="none" />
  <path d="M93.32998,77.39204 L86.06467,81.7329" stroke="#FFFFFF" stroke-width="0.24" fill="none" />
  <path d="M109.3869,68.808 L107.0852,69.71159 L104.3958,71.15854 L100.8517,73.09697 L97.07863,75.21856" stroke="#FFFFFF" stroke-width="0.24" fill="none" />
  <path d="M91.21144,105.1589 L108.5077,95.20424" stroke="#FFFFFF" stroke-width="0.24" fill="none" />
  <path d="M78.95506,98.90405 L78.97948,95.54308 L79.15959,92.13022 L79.65107,89.12641 L80.42644,86.8003 L81.36055,85.27703 L82.34045,84.2666 L83.45467,83.39049 L86.06162,81.7329" stroke="#FFFFFF" stroke-width="0.24" fill="none" />
  <path d="M109.3869,68.808 L110.782,68.31652" stroke="#FFFFFF" stroke-width="0.24" fill="none" />
  <path d="M87.61543,107.0454 L87.61543,108.5199" stroke="#FFFFFF" stroke-width="0.24" fill="none" />
  <path d="M87.591,107.9765 L88.15879,108.3123" stroke="#FFFFFF" stroke-width="0.24" fill="none" />
  <path d="M86.0891,107.4362 L86.0891,108.5199" stroke="#FFFFFF" stroke-width="0.24" fill="none" />
  <path d="M110.1867,94.22433 L110.1867,94.73717" stroke="#FFFFFF" stroke-width="0.24" fill="none" />
  <path d="M111.6336,94.74023 L111.6336,93.36959" stroke="#FFFFFF" stroke-width="0.24" fill="none" />
  <path d="M9.791249,62.39439 L9.791249,63.58187" stroke="#FFFFFF" stroke-width="0.24" fill="none" />
  <path d="M9.766827,63.06597 L10.33462,63.37734" stroke="#FFFFFF" stroke-width="0.24" fill="none" />
  <path d="M7.724607,63.37734 L8.264926,63.06597 L8.264926,63.58187" stroke="#FFFFFF" stroke-width="0.24" fill="none" />
  <path d="M44.46321,81.11322 L44.67079,82.56322" stroke="#FFFFFF" stroke-width="0.24" fill="none" />
  <path d="M67.37332,61.46333 L66.75058,61.61901" stroke="#FFFFFF" stroke-width="0.24" fill="none" />
  <path d="M10.23083,61.35954 L10.43841,62.8065" stroke="#FFFFFF" stroke-width="0.24" fill="none" />
  <path d="M85.10615,107.4087 L86.42489,107.4362" stroke="#FFFFFF" stroke-width="0.24" fill="none" />
  <path d="M78.95506,98.90405 L79.18707,101.6942" stroke="#FFFFFF" stroke-width="0.24" fill="none" />
  <path d="M118.5906,85.71661 L118.151,88.43041" stroke="#FFFFFF" stroke-width="0.24" fill="none" />
  <path d="M97.07863,75.21856 L93.32998,77.39204" stroke="#FFFFFF" stroke-width="0.24" fill="none" />
  <path d="M108.5077,95.20424 L112.5922,92.82622" stroke="#FFFFFF" stroke-width="0.24" fill="none" />
  <path d="M88.08247,106.8928 L86.42794,107.4362" stroke="#FFFFFF" stroke-width="0.24" fill="none" />
  <path d="M112.3876,95.46371 L112.3876,94.60897" stroke="#FFFFFF" stroke-width="0.24" fill="none" />
  <path d="M109.4632,95.46371 L109.4632,94.66087" stroke="#FFFFFF" stroke-width="0.24" fill="none" />
  <path d="M53.12662,89.59652 L69.43996,99.03225" stroke="#FFFFFF" stroke-width="0.24" fill="none" />
  <path d="M18.89119,69.83979 L35.20758,79.25416" stroke="#FFFFFF" stroke-width="0.24" fill="none" />
  <path d="M46.58175,27.35916 L104.3958,60.73985" stroke="#FFFFFF" stroke-width="0.24" fill="none" />
  <path d="M115.6173,90.98853 L116.8048,89.98116" stroke="#FFFFFF" stroke-width="0.24" fill="none" />
  <path d="M39.77195,30.8169 C39.77195,30.8169 42.57722,31.0315 44.80819,30.90401 C47.03915,30.77653 45.8918,33.13498 45.19064,35.68465 C44.48948,38.23433 44.87193,44.2898 45.38186,46.01083 C45.8918,47.73186 45.63683,47.22193 40.91993,45.56464 C36.20303,43.90735 31.61362,44.2898 29.06395,44.736 C26.51427,45.18219 29.51014,41.42142 30.27504,38.55304 C31.03994,35.68465 29.63762,29.94788 29.57388,28.80053 C29.51014,27.65318 30.59375,27.90814 32.506,28.99176 C34.41826,30.07537 39.77195,30.8169 39.77195,30.8169 z" stroke="Black" stroke-width="0" fill="#525DB1" fill-opacity="1" />
  <path d="M84.64383,73.36478 C84.64383,73.36478 90.20467,63.91553 92.21159,60.94697 C94.21851,57.9784 95.22197,62.2431 95.22197,62.2431 C95.22197,62.2431 97.93967,67.76213 99.77935,68.22205 C101.619,68.68197 100.6156,70.39622 100.6156,70.39622 C100.6156,70.39622 99.311,70.88543 96.33954,75.64795 L95.30807,76.24728 L93.32995,77.39201 L89.5813,79.61434 L88.29235,80.39017 C87.73208,78.77526 87.284,76.78722 86.31627,76.29154 C84.60202,75.41351 84.64383,73.36478 84.64383,73.36478 z" stroke="Black" stroke-width="0" fill="#525DB1" fill-opacity="1" />
</svg>