<?xml version="1.0" encoding="utf-8" standalone="no"?>
<!DOCTYPE svg PUBLIC "-//W3C//DTD SVG 1.1//EN" "http://www.w3.org/Graphics/SVG/1.1/DTD/svg11.dtd">
<svg version="1.1" width="120pt" height="120pt" viewBox="0 0 120 120" overflow="visible" xmlns="http://www.w3.org/2000/svg">
  <path d="M62.98649,59.29645 L61.02356,59.63842 L59.48875,59.72458 L57.55275,59.5738 C57.61198,58.83601 57.91356,58.26517 58.4117,57.78857 L59.56953,57.17465 L60.63851,57.05079 C61.28744,57.0858 61.83673,57.29044 62.26217,57.67818 L62.85994,58.5102 z" stroke="Black" stroke-width="0" fill="#CFD3A7" fill-opacity="1" />
  <path d="M58.4117,57.78857 C57.91356,58.26517 57.61198,58.83601 57.55544,59.53879 L55.65713,59.10527 L54.62585,58.67176 L53.8396,58.30825 L52.82178,57.54354 L52.97257,57.02117 C53.16105,56.49342 53.51379,56.10567 53.97692,55.79871 L55.08091,55.37059 C55.36633,55.68024 55.52788,56.0599 55.5602,56.49611 L55.82407,56.49611 L55.48749,55.39482 C56.24413,55.35174 56.90382,55.49714 57.47735,55.94412 C58.01319,56.35878 58.36054,56.87038 58.36323,57.57316 z" stroke="Black" stroke-width="0" fill="#CFD3A7" fill-opacity="1" />
  <path d="M55.82407,56.49611 L55.5602,56.49611 C55.52788,56.0599 55.36633,55.68024 55.11322,55.34635 L54.95704,55.15787 C54.81164,54.99631 54.9005,54.93438 55.03782,54.84821 L55.48749,55.39482 z" stroke="Black" stroke-width="0" fill="#CFD3A7" fill-opacity="1" />
  <path d="M68.23983,55.61292 L68.00826,56.46649 L66.72388,58.88987 L65.91339,60.42467 C65.66566,60.94973 65.35063,61.41556 64.90365,61.78714 C64.16318,62.40645 63.30692,62.79419 62.38873,63.05807 C61.519,63.30848 60.62505,63.4135 59.7284,63.40811 L57.59314,63.18732 C56.5107,62.93959 55.49288,62.57878 54.62316,61.86254 L54.15194,61.47211 L53.44109,60.35735 L51.87666,57.35506 L51.33275,56.25916 L52.56867,57.30928 L52.73561,57.47623 L53.8396,58.30825 L54.62585,58.67176 L55.65713,59.10527 L57.52582,59.5361 L59.48875,59.72458 L61.02356,59.63842 L62.98649,59.29645 L64.44859,58.81985 C64.91442,58.5856 65.42872,58.45366 65.84069,58.10361 L66.7858,57.37122 z" stroke="Black" stroke-width="0" fill="#48595F" fill-opacity="1" />
  <path d="M60.78661,57.41161 C60.40425,57.69972 60.05421,58.00668 60.11075,58.55598 L59.84687,58.58021 L59.82803,58.34056 C59.90342,57.9259 60.09729,57.58393 60.44733,57.33352 C60.63582,57.19619 60.65197,57.1935 60.78661,57.41161 z" stroke="Black" stroke-width="0" fill="#CFD3A7" fill-opacity="1" />
  <path d="M61.0451,52.68872 L62.24332,52.76142 C62.9461,52.93105 63.49002,53.30264 63.7512,54.00542 C63.89391,54.39585 63.86968,54.78897 63.72966,55.17941 L63.10228,56.94847 C62.96764,57.31467 62.64183,57.47084 62.31602,57.62163 C61.83673,57.29044 61.28744,57.0858 60.63851,57.05079 L59.56953,57.17465 L58.53017,55.60754 L58.34977,54.70012 C58.43324,53.94887 58.83983,53.41034 59.53722,53.09261 L60.68698,52.73449 L60.47157,52.08826 L60.37463,51.89708 L60.87815,52.30367 z" stroke="Black" stroke-width="0" fill="#CFD3A7" fill-opacity="1" />
  <path d="M68.13482,54.09966 C68.20752,54.60049 68.44986,55.08247 68.23983,55.61292 L66.7858,57.37122 L65.84069,58.10361 C65.42872,58.45366 64.91442,58.5856 64.44859,58.81985 L63.04304,59.28568 L62.85994,58.5102 L62.26217,57.67818 C62.64183,57.47084 62.96764,57.31467 63.10228,56.94847 L63.72966,55.17941 C63.86968,54.78897 63.89391,54.39585 63.7512,54.00542 C63.49002,53.30264 62.9461,52.93105 62.24332,52.76142 L61.0451,52.68872 L60.87815,52.30367 L60.59004,51.75437 L60.47157,52.08826 L60.71929,52.72641 L59.53722,53.09261 C58.83983,53.41034 58.43324,53.94887 58.34977,54.70012 L58.53017,55.60754 L59.56145,57.14234 L58.48171,57.76703 L58.36323,57.57316 C58.36054,56.87038 58.01319,56.35878 57.47735,55.94412 C56.90382,55.49714 56.24413,55.35174 55.53596,55.37059 L55.03782,54.84821 C54.9005,54.93438 54.81164,54.99631 54.95704,55.15787 L55.11322,55.34635 L53.97692,55.79871 C53.51379,56.10567 53.16105,56.49342 52.97257,57.02117 L52.85409,57.50046 L52.56867,57.30928 L51.39737,56.24569 C51.21158,55.58869 50.97732,55.1094 51.17119,54.57626 C51.30313,54.21275 51.28967,53.7927 51.55893,53.47766 L52.60368,52.26867 C53.4734,51.58204 54.4239,51.05967 55.46864,50.73655 C56.34644,50.4646 57.2404,50.21687 58.17205,50.1711 L59.60992,50.05262 L60.18346,50.10109 C60.98586,50.1711 61.79634,50.15495 62.5799,50.38382 L64.2278,50.82541 C64.91711,51.14314 65.65759,51.35586 66.24728,51.87016 C66.65656,52.22558 67.17624,52.45984 67.46435,52.9499 C67.69053,53.33226 68.0675,53.62845 68.13482,54.09966 z" stroke="Black" stroke-width="0" fill="#D3B1AC" fill-opacity="1" />
  <path d="M59.56953,57.17465 L60.63851,57.05079" stroke="#FFFFFF" stroke-width="0.24" fill="none" />
  <path d="M60.18346,50.10109 C60.98586,50.1711 61.79634,50.15495 62.5799,50.38382" stroke="#FFFFFF" stroke-width="0.24" fill="none" />
  <path d="M55.08091,55.37059 L53.97692,55.79871" stroke="#FFFFFF" stroke-width="0.24" fill="none" />
  <path d="M60.11075,58.55598 C60.05421,58.00668 60.40425,57.69972 60.78661,57.41161" stroke="#FFFFFF" stroke-width="0.24" fill="none" />
  <path d="M65.91339,60.42467 C65.66566,60.94973 65.35063,61.41556 64.90365,61.78714" stroke="#FFFFFF" stroke-width="0.24" fill="none" />
  <path d="M53.44109,60.35735 L51.87666,57.35506" stroke="#FFFFFF" stroke-width="0.24" fill="none" />
  <path d="M62.24332,52.76142 C62.9461,52.93105 63.49002,53.30264 63.7512,54.00542" stroke="#FFFFFF" stroke-width="0.24" fill="none" />
  <path d="M61.0451,52.68872 L62.24332,52.76142" stroke="#FFFFFF" stroke-width="0.24" fill="none" />
  <path d="M52.60368,52.26867 L51.55893,53.47766" stroke="#FFFFFF" stroke-width="0.24" fill="none" />
  <path d="M63.72966,55.17941 L63.10228,56.94847" stroke="#FFFFFF" stroke-width="0.24" fill="none" />
  <path d="M58.34977,54.70012 C58.43324,53.94887 58.83983,53.41034 59.53722,53.09261" stroke="#FFFFFF" stroke-width="0.24" fill="none" />
  <path d="M52.82178,57.54354 L53.8396,58.30825" stroke="#FFFFFF" stroke-width="0.24" fill="none" />
  <path d="M66.72388,58.88987 L68.00826,56.46649" stroke="#FFFFFF" stroke-width="0.24" fill="none" />
  <path d="M58.45209,57.75088 L58.36323,57.57316" stroke="#FFFFFF" stroke-width="0.24" fill="none" />
  <path d="M52.56867,57.30928 L52.73561,57.47623" stroke="#FFFFFF" stroke-width="0.24" fill="none" />
  <path d="M62.98649,59.29645 L61.02356,59.63842" stroke="#FFFFFF" stroke-width="0.24" fill="none" />
  <path d="M59.82803,58.34056 L59.84687,58.58021" stroke="#FFFFFF" stroke-width="0.24" fill="none" />
  <path d="M53.97692,55.79871 C53.51379,56.10567 53.16105,56.49342 52.97257,57.02117" stroke="#FFFFFF" stroke-width="0.24" fill="none" />
  <path d="M61.00202,52.69949 L61.1178,53.28648" stroke="#FFFFFF" stroke-width="0.24" fill="none" />
  <path d="M60.78661,57.41161 C60.65197,57.1935 60.63582,57.19619 60.44733,57.33352" stroke="#FFFFFF" stroke-width="0.24" fill="none" />
  <path d="M55.82407,56.49611 L55.48749,55.39482" stroke="#FFFFFF" stroke-width="0.24" fill="none" />
  <path d="M67.46435,52.9499 C67.17624,52.45984 66.65656,52.22558 66.24728,51.87016" stroke="#FFFFFF" stroke-width="0.24" fill="none" />
  <path d="M62.38873,63.05807 C61.519,63.30848 60.62505,63.4135 59.7284,63.40811" stroke="#FFFFFF" stroke-width="0.24" fill="none" />
  <path d="M68.23983,55.61292 C68.44986,55.08247 68.20752,54.60049 68.13482,54.09966" stroke="#FFFFFF" stroke-width="0.24" fill="none" />
  <path d="M60.63851,57.05079 C61.28744,57.0858 61.83673,57.29044 62.26217,57.67818" stroke="#FFFFFF" stroke-width="0.24" fill="none" />
  <path d="M53.44109,60.35735 L54.15194,61.47211" stroke="#FFFFFF" stroke-width="0.24" fill="none" />
  <path d="M63.7512,54.00542 C63.89391,54.39585 63.86968,54.78897 63.72966,55.17941" stroke="#FFFFFF" stroke-width="0.24" fill="none" />
  <path d="M64.2278,50.82541 L62.5799,50.38382" stroke="#FFFFFF" stroke-width="0.24" fill="none" />
  <path d="M62.31602,57.62163 C62.64183,57.47084 62.96764,57.31467 63.10228,56.94847" stroke="#FFFFFF" stroke-width="0.24" fill="none" />
  <path d="M64.2278,50.82541 C64.91711,51.14314 65.65759,51.35586 66.24728,51.87016" stroke="#FFFFFF" stroke-width="0.24" fill="none" />
  <path d="M61.30898,53.26225 L60.59004,53.38073" stroke="#FFFFFF" stroke-width="0.24" fill="none" />
  <path d="M57.47735,55.94412 C56.90382,55.49714 56.24413,55.35174 55.53596,55.37059" stroke="#FFFFFF" stroke-width="0.24" fill="none" />
  <path d="M58.34977,54.70012 L58.53017,55.60754" stroke="#FFFFFF" stroke-width="0.24" fill="none" />
  <path d="M52.60368,52.26867 C53.4734,51.58204 54.4239,51.05967 55.46864,50.73655" stroke="#FFFFFF" stroke-width="0.24" fill="none" />
  <path d="M58.53017,55.60754 L59.56145,57.14234" stroke="#FFFFFF" stroke-width="0.24" fill="none" />
  <path d="M55.82407,56.49611 L55.5602,56.49611" stroke="#FFFFFF" stroke-width="0.24" fill="none" />
  <path d="M55.11322,55.34635 C55.36633,55.68024 55.52788,56.0599 55.5602,56.49611" stroke="#FFFFFF" stroke-width="0.24" fill="none" />
  <path d="M54.62316,61.86254 L54.15194,61.47211" stroke="#FFFFFF" stroke-width="0.24" fill="none" />
  <path d="M59.48875,59.72458 L57.55275,59.5738" stroke="#FFFFFF" stroke-width="0.24" fill="none" />
  <path d="M63.04304,59.28568 L62.85994,58.5102" stroke="#FFFFFF" stroke-width="0.24" fill="none" />
  <path d="M60.68698,52.73449 L59.53722,53.09261" stroke="#FFFFFF" stroke-width="0.24" fill="none" />
  <path d="M59.60992,50.05262 L58.17205,50.1711" stroke="#FFFFFF" stroke-width="0.24" fill="none" />
  <path d="M68.23983,55.61292 L66.7858,57.37122" stroke="#FFFFFF" stroke-width="0.24" fill="none" />
  <path d="M55.03782,54.84821 C54.9005,54.93438 54.81164,54.99631 54.95704,55.15787" stroke="#FFFFFF" stroke-width="0.24" fill="none" />
  <path d="M51.17119,54.57626 C50.97732,55.1094 51.21158,55.58869 51.29506,56.08952" stroke="#FFFFFF" stroke-width="0.24" fill="none" />
  <path d="M64.90365,61.78714 C64.16318,62.40645 63.30692,62.79419 62.38873,63.05807" stroke="#FFFFFF" stroke-width="0.24" fill="none" />
  <path d="M54.95704,55.15787 L55.11322,55.34635" stroke="#FFFFFF" stroke-width="0.24" fill="none" />
  <path d="M66.7858,57.37122 L65.84069,58.10361" stroke="#FFFFFF" stroke-width="0.24" fill="none" />
  <path d="M55.48749,55.39482 L55.03782,54.84821" stroke="#FFFFFF" stroke-width="0.24" fill="none" />
  <path d="M51.87666,57.35506 L51.33275,56.25916" stroke="#FFFFFF" stroke-width="0.24" fill="none" />
  <path d="M60.71929,52.72641 L60.47157,52.08826" stroke="#FFFFFF" stroke-width="0.24" fill="none" />
  <path d="M60.44733,57.33352 C60.09729,57.58393 59.90342,57.9259 59.82803,58.34056" stroke="#FFFFFF" stroke-width="0.24" fill="none" />
  <path d="M62.85994,58.5102 L62.26217,57.67818" stroke="#FFFFFF" stroke-width="0.24" fill="none" />
  <path d="M58.36323,57.57316 C58.36054,56.87038 58.01319,56.35878 57.47735,55.94412" stroke="#FFFFFF" stroke-width="0.24" fill="none" />
  <path d="M59.63147,50.05262 L60.18346,50.10109" stroke="#FFFFFF" stroke-width="0.24" fill="none" />
  <path d="M57.52582,59.5361 L55.65713,59.10527" stroke="#FFFFFF" stroke-width="0.24" fill="none" />
  <path d="M60.47157,52.08826 L60.37463,51.89708" stroke="#FFFFFF" stroke-width="0.24" fill="none" />
  <path d="M58.17205,50.1711 C57.2404,50.21687 56.34644,50.4646 55.46864,50.73655" stroke="#FFFFFF" stroke-width="0.24" fill="none" />
  <path d="M65.91339,60.42467 L66.72388,58.88987" stroke="#FFFFFF" stroke-width="0.24" fill="none" />
  <path d="M64.44859,58.81985 L63.04304,59.28568" stroke="#FFFFFF" stroke-width="0.24" fill="none" />
  <path d="M54.62316,61.86254 C55.49288,62.57878 56.5107,62.93959 57.59314,63.18732" stroke="#FFFFFF" stroke-width="0.24" fill="none" />
  <path d="M59.48875,59.72458 L61.02356,59.63842" stroke="#FFFFFF" stroke-width="0.24" fill="none" />
  <path d="M68.00826,56.46649 L68.23983,55.61292" stroke="#FFFFFF" stroke-width="0.24" fill="none" />
  <path d="M65.84069,58.10361 C65.42872,58.45366 64.91442,58.5856 64.44859,58.81985" stroke="#FFFFFF" stroke-width="0.24" fill="none" />
  <path d="M68.13482,54.09966 C68.0675,53.62845 67.69053,53.33226 67.46435,52.9499" stroke="#FFFFFF" stroke-width="0.24" fill="none" />
  <path d="M52.85409,57.50046 L52.97257,57.02117" stroke="#FFFFFF" stroke-width="0.24" fill="none" />
  <path d="M61.00202,52.69949 L60.87815,52.30367" stroke="#FFFFFF" stroke-width="0.24" fill="none" />
  <path d="M60.82969,53.33495 L60.71929,52.72641" stroke="#FFFFFF" stroke-width="0.24" fill="none" />
  <path d="M53.8396,58.30825 L54.62585,58.67176" stroke="#FFFFFF" stroke-width="0.24" fill="none" />
  <path d="M58.48171,57.76703 L59.56953,57.17465" stroke="#FFFFFF" stroke-width="0.24" fill="none" />
  <path d="M60.59004,51.75437 L60.87815,52.30367" stroke="#FFFFFF" stroke-width="0.24" fill="none" />
  <path d="M59.84687,58.58021 L60.11075,58.55598" stroke="#FFFFFF" stroke-width="0.24" fill="none" />
  <path d="M51.17119,54.57626 C51.30313,54.21275 51.28967,53.7927 51.55893,53.47766" stroke="#FFFFFF" stroke-width="0.24" fill="none" />
  <path d="M57.55544,59.53879 C57.61198,58.83601 57.91356,58.26517 58.4117,57.78857" stroke="#FFFFFF" stroke-width="0.24" fill="none" />
  <path d="M59.7284,63.40811 L57.59314,63.18732" stroke="#FFFFFF" stroke-width="0.24" fill="none" />
  <path d="M52.56867,57.30928 L51.39737,56.24569" stroke="#FFFFFF" stroke-width="0.24" fill="none" />
  <path d="M54.62585,58.67176 L55.65713,59.10527" stroke="#FFFFFF" stroke-width="0.24" fill="none" />
  <path d="M59.60992,50.05262 L58.17205,50.1711 C57.2404,50.21687 56.34644,50.4646 55.46864,50.73655 C54.4239,51.05967 53.4734,51.58204 52.60368,52.26867 L51.55893,53.47766 C51.28967,53.7927 51.30313,54.21275 51.17119,54.57626 C50.97732,55.1094 51.21158,55.58869 51.29506,56.08952 L51.87666,57.35506 L53.44109,60.35735 L54.15194,61.47211 L54.62316,61.86254 C55.49288,62.57878 56.5107,62.93959 57.59314,63.18732 L59.7284,63.40811 C60.62505,63.4135 61.519,63.30848 62.38873,63.05807 C63.30692,62.79419 64.16318,62.40645 64.90365,61.78714 C65.35063,61.41556 65.66566,60.94973 65.91339,60.42467 L66.72388,58.88987 L68.00826,56.46649 L68.23983,55.61292 C68.44986,55.08247 68.20752,54.60049 68.13482,54.09966 C68.0675,53.62845 67.69053,53.33226 67.46435,52.9499 C67.17624,52.45984 66.65656,52.22558 66.24728,51.87016 C65.65759,51.35586 64.91711,51.14314 64.2278,50.82541 L62.5799,50.38382 C61.79634,50.15495 60.98586,50.1711 60.18346,50.10109 z" stroke="#FFFFFF" stroke-width="0.48" fill="none" />
</svg>