<?xml version="1.0" encoding="utf-8" standalone="no"?>
<!DOCTYPE svg PUBLIC "-//W3C//DTD SVG 1.1//EN" "http://www.w3.org/Graphics/SVG/1.1/DTD/svg11.dtd">
<svg version="1.1" width="120pt" height="120pt" viewBox="0 0 120 120" overflow="visible" xmlns="http://www.w3.org/2000/svg">
  <path d="M62.70025,57.03913 L62.76789,57.34487 L62.79225,57.6912 L62.78143,57.92119 L62.07794,58.45422 C61.75866,58.84925 61.68832,59.30922 61.68832,59.64473 L60.73861,59.93154 L60.26781,59.32005 C60.17582,59.23617 59.74561,58.85737 59.06377,58.77349 L58.63356,58.75455 L58.38193,57.6912 L58.42793,57.23664 C58.64709,56.23012 59.56703,55.52934 60.63038,55.52934 C61.62338,55.52934 62.43239,56.14083 62.70025,57.03913 z" stroke="Black" stroke-width="0" fill="#E18D67" fill-opacity="1" />
  <path d="M63.76901,57.65332 L63.20081,57.77508 L62.78413,57.9266 L62.79225,57.6912 L62.76791,57.34487 z" stroke="Black" stroke-width="0" fill="#828C8D" fill-opacity="1" />
  <path d="M60.90366,60.40233 L60.93071,61.03006 L60.58168,61.91753 L59.91336,62.4235 L59.48045,62.60478 C58.24664,62.36398 57.23741,61.84718 56.67462,61.17887 L56.86943,60.16964 C56.95331,59.91801 57.09942,59.49321 57.5161,59.1577 C57.8922,58.85196 58.31699,58.76808 58.63356,58.75455 L59.06377,58.77349 C59.74561,58.85737 60.17582,59.23617 60.26781,59.32005 L60.73861,59.93154 z" stroke="Black" stroke-width="0" fill="#E18D67" fill-opacity="1" />
  <path d="M66.30427,59.98836 L66.04452,64.22551 C65.801,65.72989 63.62561,66.89876 60.97401,66.89876 C58.33593,66.89876 56.16595,65.74071 55.90891,64.25797 L55.64916,60.0587 C55.86832,61.53332 58.06807,62.69678 60.7819,62.74819 L60.97401,62.75089 L61.24999,62.74819 L61.70184,62.72383 C64.24251,62.5155 66.16087,61.38451 66.30427,59.98836 z" stroke="Black" stroke-width="0" fill="#485C5E" fill-opacity="1" />
  <path d="M58.63356,58.75455 C58.31699,58.76808 57.8922,58.85196 57.5161,59.1577 C57.09942,59.49321 56.95331,59.91801 56.86943,60.16964 L56.68274,61.17075 C56.36346,60.81089 56.1876,60.39421 56.1876,59.95589 C56.1876,58.97642 57.06154,58.116 58.38464,57.61544 z" stroke="Black" stroke-width="0" fill="#828C8D" fill-opacity="1" />
  <path d="M63.79607,62.25034 C64.39944,62.00953 64.9027,61.69025 65.26257,61.31957 C65.65489,60.91642 65.87676,60.45103 65.87676,59.95589 C65.87676,58.99806 65.0407,58.15118 63.76901,57.65062 L62.7706,57.34487 L62.70025,57.03913 C64.8026,57.43145 66.31509,58.52998 66.31509,59.81789 C66.16087,61.38451 64.24251,62.5155 61.76949,62.71842 z" stroke="Black" stroke-width="0" fill="#485C5E" fill-opacity="1" />
  <path d="M62.13205,60.91642 L61.40151,60.9543 L60.93883,61.03006 L60.90366,60.40233 L60.73861,59.93154 L61.67479,59.64473 L61.73702,60.1047 z" stroke="Black" stroke-width="0" fill="#828C8D" fill-opacity="1" />
  <path d="M63.79607,62.25034 L63.73113,61.95 L63.63372,61.73895 L64.36697,61.70649 L65.25986,61.31686 C64.9027,61.69025 64.39944,62.00953 63.79607,62.25034 z" stroke="Black" stroke-width="0" fill="#828C8D" fill-opacity="1" />
  <path d="M59.48045,62.60478 L60.7819,62.74819 C58.06807,62.69678 55.86832,61.53332 55.64916,60.0587 L55.63292,59.81789 C55.63292,58.70314 56.76121,57.73449 58.42522,57.23664 L58.38464,57.61544 C57.06154,58.116 56.1876,58.97642 56.1876,59.95589 C56.1876,60.39421 56.36346,60.81089 56.67462,61.17887 C57.23741,61.84718 58.24664,62.36398 59.48045,62.60478 z" stroke="Black" stroke-width="0" fill="#485C5E" fill-opacity="1" />
  <path d="M62.13205,60.91642 L61.73702,60.1047 L61.68832,59.64473 C61.68832,59.30922 61.75866,58.84925 62.07794,58.45422 L62.78413,57.9266 L63.20081,57.77508 L63.76901,57.65332 C65.0407,58.15118 65.87676,58.99806 65.87676,59.95589 C65.87676,60.45103 65.65489,60.91642 65.26257,61.31957 L64.36697,61.70649 L63.63372,61.73895 L62.78954,61.47109 z" stroke="Black" stroke-width="0" fill="#E18D67" fill-opacity="1" />
  <path d="M63.73113,61.95 L63.79607,62.25034 L61.76949,62.71842 L61.24999,62.74819 L60.97401,62.75089 L60.7819,62.74819 L59.48045,62.60478 L59.91336,62.4235 L60.58168,61.91753 L60.93071,61.03006 L61.40151,60.9543 L62.13205,60.91642 L62.78954,61.47109 L63.63372,61.73895 z" stroke="Black" stroke-width="0" fill="#E18D67" fill-opacity="1" />
  <path d="M55.63292,59.81789 C55.63292,58.70314 56.76121,57.73449 58.42522,57.23664" stroke="#FFFFFF" stroke-width="0.24" fill="none" />
  <path d="M62.07794,58.45422 C61.75866,58.84925 61.68832,59.30922 61.68832,59.64473" stroke="#FFFFFF" stroke-width="0.24" fill="none" />
  <path d="M63.20081,57.77508 L63.76901,57.65332 L62.7706,57.34487" stroke="#FFFFFF" stroke-width="0.24" fill="none" />
  <path d="M61.24999,62.74819 L60.97401,62.75089 L60.7819,62.74819" stroke="#FFFFFF" stroke-width="0.24" fill="none" />
  <path d="M57.5161,59.1577 C57.8922,58.85196 58.31699,58.76808 58.63356,58.75455" stroke="#FFFFFF" stroke-width="0.24" fill="none" />
  <path d="M59.29917,59.69073 L59.68067,59.7719" stroke="#FFFFFF" stroke-width="0.24" fill="none" />
  <path d="M63.73113,61.95 L63.79607,62.25034 L63.63372,61.73895" stroke="#FFFFFF" stroke-width="0.24" fill="none" />
  <path d="M55.63295,59.81792 L55.64648,60.01544" stroke="#FFFFFF" stroke-width="0.24" fill="none" />
  <path d="M60.58168,61.91753 L59.91336,62.4235" stroke="#FFFFFF" stroke-width="0.24" fill="none" />
  <path d="M62.70025,57.03913 C62.43239,56.14083 61.62338,55.52934 60.63038,55.52934 C59.56703,55.52934 58.64709,56.23012 58.42793,57.23664 C56.76121,57.73449 55.63292,58.70314 55.63292,59.81789 L55.64645,60.01541 L55.90891,64.25797 C56.16595,65.74071 58.33593,66.89876 60.97401,66.89876 C63.62561,66.89876 65.801,65.72989 66.04452,64.23904 L66.30427,59.98836 C66.31509,58.52998 64.8026,57.43145 62.70025,57.03913 z" stroke="#FFFFFF" stroke-width="0.24" fill="none" />
  <path d="M65.26257,61.31957 C64.9027,61.69025 64.39944,62.00953 63.79607,62.25034 L61.76949,62.71842" stroke="#FFFFFF" stroke-width="0.24" fill="none" />
  <path d="M59.06377,58.77349 C59.74561,58.85737 60.17582,59.23617 60.26781,59.32005 L60.73861,59.93154" stroke="#FFFFFF" stroke-width="0.24" fill="none" />
  <path d="M56.86943,60.16964 C56.95331,59.91801 57.09942,59.49321 57.5161,59.1577" stroke="#FFFFFF" stroke-width="0.24" fill="none" />
  <path d="M56.68274,61.17075 L56.86943,60.16964" stroke="#FFFFFF" stroke-width="0.24" fill="none" />
  <path d="M59.06377,58.77349 L58.63356,58.75455" stroke="#FFFFFF" stroke-width="0.24" fill="none" />
  <path d="M63.63372,61.73895 L64.36697,61.70649" stroke="#FFFFFF" stroke-width="0.24" fill="none" />
  <path d="M59.76726,56.96607 L59.97018,56.9336" stroke="#FFFFFF" stroke-width="0.24" fill="none" />
  <path d="M61.40151,60.9543 L60.93883,61.03006" stroke="#FFFFFF" stroke-width="0.24" fill="none" />
  <path d="M60.90366,60.40233 L60.93071,61.03006" stroke="#FFFFFF" stroke-width="0.24" fill="none" />
  <path d="M55.64918,60.05873 L55.90893,64.258" stroke="#FFFFFF" stroke-width="0.24" fill="none" />
  <path d="M63.20081,57.77508 L62.78413,57.9266" stroke="#FFFFFF" stroke-width="0.24" fill="none" />
  <path d="M61.68832,59.64473 L61.73702,60.1047" stroke="#FFFFFF" stroke-width="0.24" fill="none" />
  <path d="M60.93071,61.03006 L60.58168,61.91753" stroke="#FFFFFF" stroke-width="0.24" fill="none" />
  <path d="M58.63356,58.7329 L58.38193,57.6912" stroke="#FFFFFF" stroke-width="0.24" fill="none" />
  <path d="M55.64916,60.0587 C55.86832,61.53332 58.06807,62.69678 60.7819,62.74819" stroke="#FFFFFF" stroke-width="0.24" fill="none" />
  <path d="M66.30427,59.98836 L66.04452,64.22551" stroke="#FFFFFF" stroke-width="0.24" fill="none" />
  <path d="M61.40151,60.9543 L62.13205,60.91642" stroke="#FFFFFF" stroke-width="0.24" fill="none" />
  <path d="M66.30429,59.98838 L66.04454,64.22553" stroke="#FFFFFF" stroke-width="0.24" fill="none" />
  <path d="M62.78413,57.9266 L62.07794,58.45422" stroke="#FFFFFF" stroke-width="0.24" fill="none" />
  <path d="M62.70025,57.03913 C64.8026,57.43145 66.31509,58.52998 66.31509,59.81789" stroke="#FFFFFF" stroke-width="0.24" fill="none" />
  <path d="M58.38464,57.61544 C57.06154,58.116 56.1876,58.97642 56.1876,59.95589 C56.1876,60.39421 56.36346,60.81089 56.67462,61.17887" stroke="#FFFFFF" stroke-width="0.24" fill="none" />
  <path d="M58.42793,57.23664 L58.38464,57.61544" stroke="#FFFFFF" stroke-width="0.24" fill="none" />
  <path d="M64.36697,61.70649 L65.25986,61.31686" stroke="#FFFFFF" stroke-width="0.24" fill="none" />
  <path d="M62.76789,57.34487 L62.70025,57.03913" stroke="#FFFFFF" stroke-width="0.24" fill="none" />
  <path d="M60.73861,59.93154 L60.90366,60.40233" stroke="#FFFFFF" stroke-width="0.24" fill="none" />
  <path d="M62.78954,61.47109 L63.63372,61.73895" stroke="#FFFFFF" stroke-width="0.24" fill="none" />
  <path d="M59.12329,59.50403 L59.29917,59.69073" stroke="#FFFFFF" stroke-width="0.24" fill="none" />
  <path d="M59.97018,56.9336 L60.05136,56.63868" stroke="#FFFFFF" stroke-width="0.24" fill="none" />
  <path d="M66.04452,64.23904 C65.801,65.72989 63.62561,66.89876 60.97401,66.89876 C58.33593,66.89876 56.16595,65.74071 55.90891,64.25797" stroke="#FFFFFF" stroke-width="0.24" fill="none" />
  <path d="M62.78143,57.92119 L62.79225,57.6912 L62.76789,57.34487" stroke="#FFFFFF" stroke-width="0.24" fill="none" />
  <path d="M59.48045,62.60478 L59.91336,62.4235" stroke="#FFFFFF" stroke-width="0.24" fill="none" />
  <path d="M61.24999,62.74819 L61.70184,62.72383" stroke="#FFFFFF" stroke-width="0.24" fill="none" />
  <path d="M66.30427,59.98836 C66.16087,61.38451 64.24251,62.5155 61.76949,62.71842" stroke="#FFFFFF" stroke-width="0.24" fill="none" />
  <path d="M60.7819,62.74819 L59.48045,62.60478" stroke="#FFFFFF" stroke-width="0.24" fill="none" />
  <path d="M55.90891,64.25797 L55.64916,60.0587" stroke="#FFFFFF" stroke-width="0.24" fill="none" />
  <path d="M61.73702,60.1047 L61.68832,59.64473 C61.68832,59.30922 61.75866,58.84925 62.07794,58.45422" stroke="#FFFFFF" stroke-width="0.24" fill="none" />
  <path d="M61.88854,61.78225 L62.09146,62.02035" stroke="#FFFFFF" stroke-width="0.24" fill="none" />
  <path d="M63.09258,58.66256 L63.41186,58.66256 L63.77713,58.41634" stroke="#FFFFFF" stroke-width="0.24" fill="none" />
  <path d="M59.48045,62.60478 C58.24664,62.36398 57.23741,61.84718 56.67462,61.17887" stroke="#FFFFFF" stroke-width="0.24" fill="none" />
  <path d="M62.78954,61.47109 L62.13205,60.91642" stroke="#FFFFFF" stroke-width="0.24" fill="none" />
  <path d="M62.09146,62.02035 C62.31604,62.15564 62.56226,62.04741 62.58661,62.03658" stroke="#FFFFFF" stroke-width="0.24" fill="none" />
  <path d="M61.73702,60.1047 L62.13205,60.91642" stroke="#FFFFFF" stroke-width="0.24" fill="none" />
  <path d="M58.42793,57.23664 C58.64709,56.23012 59.56703,55.52934 60.63038,55.52934 C61.62338,55.52934 62.43239,56.14083 62.70025,57.03913" stroke="#FFFFFF" stroke-width="0.24" fill="none" />
  <path d="M55.64645,60.01541 L55.63292,59.81789 C55.63292,58.70314 56.76121,57.73449 58.42522,57.23664" stroke="#FFFFFF" stroke-width="0.24" fill="none" />
  <path d="M55.64645,60.01541 L55.63292,59.81789" stroke="#FFFFFF" stroke-width="0.24" fill="none" />
  <path d="M61.70184,62.72383 L61.24999,62.74819" stroke="#FFFFFF" stroke-width="0.24" fill="none" />
  <path d="M63.76901,57.65062 C65.0407,58.15118 65.87676,58.99806 65.87676,59.95589 C65.87676,60.45103 65.65489,60.91642 65.26257,61.31957" stroke="#FFFFFF" stroke-width="0.24" fill="none" />
  <path d="M61.67479,59.64473 L60.73861,59.93154" stroke="#FFFFFF" stroke-width="0.24" fill="none" />
  <path d="M62.70025,57.03913 C62.43239,56.14083 61.62338,55.52934 60.63038,55.52934 C59.56703,55.52934 58.64709,56.23012 58.42793,57.23664 C56.76121,57.73449 55.63292,58.70314 55.63292,59.81789 L55.64645,60.01541 L55.90891,64.25797 C56.16595,65.74071 58.33593,66.89876 60.97401,66.89876 C63.62561,66.89876 65.801,65.72989 66.04452,64.23904 L66.30427,59.98836 C66.31509,58.52998 64.8026,57.43145 62.70025,57.03913 z" stroke="#FFFFFF" stroke-width="0.48" fill="none" />
</svg>