<?xml version="1.0" encoding="utf-8" standalone="no"?>
<!DOCTYPE svg PUBLIC "-//W3C//DTD SVG 1.1//EN" "http://www.w3.org/Graphics/SVG/1.1/DTD/svg11.dtd">
<svg version="1.1" width="120pt" height="120pt" viewBox="0 0 120 120" overflow="visible" xmlns="http://www.w3.org/2000/svg">
  <path d="M59.81235,59.69096 C59.81235,58.96152 60.84573,58.36795 62.12583,58.36795 C63.39521,58.36795 64.42501,58.95437 64.43574,59.68024 C64.43574,60.42398 63.40236,61.01756 62.12583,61.01756 C60.87434,61.01756 59.85526,60.44902 59.81593,59.73745 z" stroke="Black" stroke-width="0" fill="#D3B1AC" fill-opacity="1" />
  <path d="M63.93514,59.95914 C63.93514,60.52411 63.13776,60.9818 62.15444,60.9818 C61.17469,60.9818 60.37731,60.52411 60.37731,59.95914 C60.37731,59.39776 61.17469,58.94007 62.15444,58.94007 C63.13776,58.94007 63.93514,59.39776 63.93514,59.95914 z" stroke="Black" stroke-width="0" fill="#D3B1AC" fill-opacity="1" />
  <path d="M64.44289,59.68024 C65.56567,60.18799 66.30941,61.05688 66.30941,62.04378 C66.30941,63.60994 64.43574,64.8829 62.12583,64.8829 C59.81593,64.8829 57.94225,63.60994 57.94225,62.04378 C57.94225,61.06404 58.67527,60.19872 59.78732,59.69096 L59.81593,62.35487 C59.89101,63.04856 60.89579,63.59922 62.12583,63.59922 C63.2486,63.59922 64.18544,63.13795 64.39283,62.5265 C64.69319,62.44784 64.94707,62.16893 64.94707,61.84354 C64.94707,61.58252 64.70034,61.25355 64.42859,61.07119 z" stroke="Black" stroke-width="0" fill="#EBE4DF" fill-opacity="1" />
  <path d="M64.23907,62.54081 L63.87078,62.29766 C64.0889,62.29766 64.29271,62.10815 64.29271,61.88287 C64.29271,61.6576 63.97805,61.34652 63.76351,61.34652 L64.05672,60.93889 L64.42859,61.07119 C64.70034,61.25355 64.94707,61.58252 64.94707,61.84354 C64.94707,62.16893 64.69319,62.44784 64.39283,62.52293" stroke="Black" stroke-width="0" fill="#D3B1AC" fill-opacity="1" />
  <path d="M64.43574,59.69096 L64.43574,61.06046 L64.05672,60.93889 L63.76351,61.34652 C63.97805,61.34652 64.29271,61.6576 64.29271,61.88287 C64.29271,62.10815 64.0889,62.29766 63.87078,62.29766 L64.23907,62.54081 C64.18544,63.13795 63.2486,63.59922 62.12583,63.59922 C60.89579,63.59922 59.89101,63.04856 59.81593,62.35487 L59.81593,59.73745 C59.85526,60.44902 60.87434,61.01756 62.12583,61.01756 C63.40236,61.01756 64.43574,60.42398 64.43574,59.69096 z" stroke="Black" stroke-width="0" fill="#D3B1AC" fill-opacity="1" />
  <path d="M59.81595,59.73747 L59.81595,62.35489" stroke="#FFFFFF" stroke-width="0.24" fill="none" />
  <path d="M59.81235,59.69096 C59.81235,58.96152 60.84573,58.36795 62.12583,58.36795 C63.39521,58.36795 64.42501,58.95437 64.43574,59.68024" stroke="#FFFFFF" stroke-width="0.24" fill="none" />
  <path d="M62.15444,58.94007 C63.13776,58.94007 63.93514,59.39776 63.93514,59.95914 C63.93514,60.52411 63.13776,60.9818 62.15444,60.9818 C61.17469,60.9818 60.37731,60.52411 60.37731,59.95914 C60.37731,59.39776 61.17469,58.94007 62.15444,58.94007 z" stroke="#FFFFFF" stroke-width="0.24" fill="none" />
  <path d="M64.43574,59.69096 C64.43574,60.42398 63.40236,61.01756 62.12583,61.01756 C60.87434,61.01756 59.85526,60.44902 59.81593,59.73745" stroke="#FFFFFF" stroke-width="0.24" fill="none" />
  <path d="M64.44289,59.68024 C65.56567,60.18799 66.30941,61.05688 66.30941,62.04378 C66.30941,63.60994 64.43574,64.8829 62.12583,64.8829 C59.81593,64.8829 57.94225,63.60994 57.94225,62.04378 C57.94225,61.06404 58.67527,60.19872 59.78732,59.69096" stroke="#FFFFFF" stroke-width="0.24" fill="none" />
  <path d="M63.76351,61.34652 C63.97805,61.34652 64.29271,61.6576 64.29271,61.88287 C64.29271,62.10815 64.0889,62.29766 63.87078,62.29766" stroke="#FFFFFF" stroke-width="0.24" fill="none" />
  <path d="M63.93514,59.95914 C63.93514,59.39776 63.13776,58.94007 62.15444,58.94007 C61.17469,58.94007 60.37731,59.39776 60.37731,59.95914 C60.37731,60.52411 61.17469,60.9818 62.15444,60.9818 C63.13776,60.9818 63.93514,60.52411 63.93514,59.95914 z" stroke="#FFFFFF" stroke-width="0.24" fill="none" />
  <path d="M64.39283,62.5265 C64.18544,63.13795 63.2486,63.59922 62.12583,63.59922 C60.89579,63.59922 59.89101,63.04856 59.81593,62.35487" stroke="#FFFFFF" stroke-width="0.24" fill="none" />
  <path d="M64.43577,59.69099 L64.43577,61.06049" stroke="#FFFFFF" stroke-width="0.24" fill="none" />
  <path d="M63.93514,59.95914 C63.93514,60.52411 63.13776,60.9818 62.15444,60.9818 C61.17469,60.9818 60.37731,60.52411 60.37731,59.95914 C60.37731,59.39776 61.17469,58.94007 62.15444,58.94007 C63.13776,58.94007 63.93514,59.39776 63.93514,59.95914 z" stroke="#FFFFFF" stroke-width="0.24" fill="none" />
  <path d="M64.43574,61.06046 L64.43574,59.69096" stroke="#FFFFFF" stroke-width="0.24" fill="none" />
  <path d="M64.42859,61.07119 C64.70034,61.25355 64.94707,61.58252 64.94707,61.84354" stroke="#FFFFFF" stroke-width="0.24" fill="none" />
  <path d="M63.87078,62.29766 L64.23907,62.54081" stroke="#FFFFFF" stroke-width="0.24" fill="none" />
  <path d="M59.81593,62.35487 L59.81593,59.73745" stroke="#FFFFFF" stroke-width="0.24" fill="none" />
  <path d="M64.05672,60.93889 L64.42859,61.07119" stroke="#FFFFFF" stroke-width="0.24" fill="none" />
  <path d="M63.76351,61.34652 L64.05672,60.93889" stroke="#FFFFFF" stroke-width="0.24" fill="none" />
  <path d="M64.94707,61.84354 C64.94707,62.16893 64.69319,62.44784 64.39283,62.52293" stroke="#FFFFFF" stroke-width="0.24" fill="none" />
  <path d="M64.43574,59.69096 C64.43574,60.42398 63.40236,61.01756 62.12583,61.01756 C60.87434,61.01756 59.85526,60.44902 59.81593,59.73745" stroke="#FFFFFF" stroke-width="0.24" fill="none" />
  <path d="M64.39283,62.52293 C64.69319,62.44784 64.94707,62.16893 64.94707,61.84354 C64.94707,61.58252 64.70034,61.25355 64.42859,61.07119" stroke="#FFFFFF" stroke-width="0.24" fill="none" />
  <path d="M62.15444,58.94007 C63.13776,58.94007 63.93514,59.39776 63.93514,59.95914 C63.93514,60.52411 63.13776,60.9818 62.15444,60.9818 C61.17469,60.9818 60.37731,60.52411 60.37731,59.95914 C60.37731,59.39776 61.17469,58.94007 62.15444,58.94007 z" stroke="Black" stroke-width="0" fill="#634E42" fill-opacity="1" />
  <path d="M64.43574,59.68024 C64.42501,58.95437 63.39521,58.36795 62.12583,58.36795 C60.84573,58.36795 59.81235,58.96152 59.81235,59.69096 C58.67527,60.19872 57.94225,61.06404 57.94225,62.04378 C57.94225,63.60994 59.81593,64.8829 62.12583,64.8829 C64.43574,64.8829 66.30941,63.60994 66.30941,62.04378 C66.30941,61.05688 65.56567,60.18799 64.44289,59.68024 z" stroke="#FFFFFF" stroke-width="0.48" fill="none" />
</svg>