<?xml version="1.0" encoding="utf-8" standalone="no"?>
<!DOCTYPE svg PUBLIC "-//W3C//DTD SVG 1.1//EN" "http://www.w3.org/Graphics/SVG/1.1/DTD/svg11.dtd">
<svg version="1.1" width="120pt" height="120pt" viewBox="0 0 120 120" overflow="visible" xmlns="http://www.w3.org/2000/svg">
  <path d="M70.37756,34.64147 L71.98536,33.82793 C72.59455,33.66599 73.12277,33.66599 73.5893,33.75853 L74.58791,34.1171 C74.65781,34.54644 74.86619,35.12009 75.43229,35.56296 L74.91178,36.1413 C74.36814,36.67338 73.59315,37.2363 72.61383,37.39053 C71.59594,37.5409 70.38528,37.22088 69.04352,35.89069 L70.41998,35.71719 z" stroke="Black" stroke-width="0" fill="#C6C8B9" fill-opacity="1" />
  <path d="M59.79002,53.49933 C60.00208,54.60975 59.27722,55.4657 59.27722,55.4657 L58.5755,55.09556 L57.62316,54.14322 C57.39953,53.77308 57.26458,53.31426 57.33784,52.76676 L57.65015,52.85929 L57.7851,51.53682 L57.93546,51.30933 C59.16926,52.0419 59.65893,52.82074 59.79002,53.49933 z" stroke="Black" stroke-width="0" fill="#7D8E7F" fill-opacity="1" />
  <path d="M74.0327,40.11646 L74.7537,41.14205 C71.49184,42.89251 69.77223,41.48135 69.05508,40.54443 L68.6541,39.87741 L69.10521,39.57281 C69.8532,39.12941 71.41859,38.43155 72.93385,39.22966 z" stroke="Black" stroke-width="0" fill="#7D8E7F" fill-opacity="1" />
  <path d="M71.19496,71.93693 L71.33762,71.11568 L71.92753,71.27376 C73.16518,71.6786 75.86027,73.02422 75.05058,76.89912 C73.82835,76.44801 72.98011,75.87352 72.39791,75.26434 C72.58298,73.51003 71.58823,72.04103 71.58823,72.04103 L71.0176,72.40731 L70.58962,72.2955 z" stroke="Black" stroke-width="0" fill="#7D8E7F" fill-opacity="1" />
  <path d="M81.35838,68.4553 C79.70432,68.54398 78.82524,68.00805 78.35871,67.39886 C78.26617,66.61231 77.95773,65.94914 77.59915,65.42092 L78.87922,66.84365 L79.48455,65.8489 C80.33665,66.07638 81.22729,66.73183 81.35838,68.4553 z" stroke="Black" stroke-width="0" fill="#C6C8B9" fill-opacity="1" />
  <path d="M84.77447,73.02036 C84.77447,73.02036 86.22418,75.22963 83.98407,76.52512 C82.12951,74.44694 84.77447,73.02036 84.77447,73.02036 z" stroke="Black" stroke-width="0" fill="#C6C8B9" fill-opacity="1" />
  <path d="M59.68206,62.4945 C61.95688,61.90074 63.43359,63.75529 63.43359,63.75529 C63.43359,63.75529 62.26533,65.68311 60.39921,66.04939 C59.42374,66.23831 58.25163,65.99927 56.95613,64.82716 L56.68624,64.57269 L57.97017,63.36202 C58.52538,63.82855 59.13071,64.05218 59.13071,64.05218 C59.13071,64.05218 59.68592,63.39672 59.68206,62.4945 z" stroke="Black" stroke-width="0" fill="#7D8E7F" fill-opacity="1" />
  <path d="M56.93686,55.99392 C56.93686,55.99392 59.41217,58.02198 58.65647,60.52042 L57.78895,59.89967 C57.06024,60.99852 57.06409,61.85447 57.35326,62.49836 L56.83661,62.9379 C53.00412,58.41911 56.93686,55.99392 56.93686,55.99392 z" stroke="Black" stroke-width="0" fill="#CFD3A7" fill-opacity="1" />
  <path d="M70.37371,34.64147 L70.41998,35.71719 L69.15919,35.75574 C68.16058,35.71333 67.42416,35.47814 66.88437,35.1427 L67.34705,34.47568 C66.70701,33.93589 66.11324,33.60816 65.57346,33.43466 C65.31513,32.59027 65.42694,31.84999 65.42694,31.84999 C65.42694,31.84999 69.86477,30.62391 70.37371,34.64147 z" stroke="Black" stroke-width="0" fill="#7D8E7F" fill-opacity="1" />
  <path d="M61.54433,69.08376 C55.84571,69.38836 56.03078,64.95824 56.03078,64.95824 L56.94071,64.84258 C58.25163,65.99927 59.42374,66.23831 60.39921,66.04939 C60.99297,66.69328 61.43637,67.65333 61.54433,69.08376 z" stroke="Black" stroke-width="0" fill="#C6C8B9" fill-opacity="1" />
  <path d="M78.86379,75.98919 L78.79825,76.97623 L78.05797,77.05334 C78.05797,77.05334 78.03484,77.58542 78.30473,78.17147 L77.7688,78.60716 C77.30612,78.85777 76.65067,78.93489 75.72146,78.67271 C76.06847,74.84021 78.86379,75.98919 78.86379,75.98919 z" stroke="Black" stroke-width="0" fill="#7D8E7F" fill-opacity="1" />
  <path d="M77.8382,60.05004 C77.8382,60.05004 81.21958,62.29015 79.48455,65.8489 L78.87922,66.84365 L77.66855,65.37851 C75.74074,62.33642 77.8382,60.05004 77.8382,60.05004 z" stroke="Black" stroke-width="0" fill="#7D8E7F" fill-opacity="1" />
  <path d="M57.61545,54.15093 C56.97541,55.28834 55.74161,56.58768 53.3704,57.00409 C54.15695,54.3013 55.74932,53.12148 56.90601,52.60868 L57.3417,52.7552 C57.26458,53.31426 57.39953,53.77308 57.62316,54.14322 z" stroke="Black" stroke-width="0" fill="#7D8E7F" fill-opacity="1" />
  <path d="M64.86402,52.83231 L64.84474,53.07521 L64.8139,53.30655 L64.78305,53.49933 L64.73679,53.73452 L64.55943,54.39383 C64.01193,54.72927 63.09814,55.41558 62.8591,56.62624 L61.92218,56.98867 C61.26672,57.14675 60.4609,57.15832 59.47386,56.94626 C59.73219,55.56594 60.17944,54.59818 60.7038,53.93116 C61.96459,52.33107 63.69577,52.42361 64.47075,52.56627 L64.87173,52.66266" stroke="Black" stroke-width="0" fill="#C6C8B9" fill-opacity="1" />
  <path d="M75.92966,43.97594 C75.92966,43.97594 80.51786,44.9437 78.55534,48.83402 L77.64928,48.49858 L77.43336,48.83402 C76.21498,48.17086 75.63663,47.41901 75.41301,46.70572 C74.97733,45.32541 75.84099,44.09546 75.92581,43.98365 z" stroke="Black" stroke-width="0" fill="#7D8E7F" fill-opacity="1" />
  <path d="M66.013,87.38256 C66.1518,89.24869 65.54261,90.20103 64.85631,90.68298 L63.63408,90.99142 L63.39117,90.84491 L63.22153,91.09938 C63.07116,90.53646 62.61619,87.57534 66.013,87.38256 z" stroke="Black" stroke-width="0" fill="#7D8E7F" fill-opacity="1" />
  <path d="M77.77265,78.61873 C77.78036,79.10454 77.71867,80.7933 76.38463,81.22898 L76.40391,80.49256 C76.40391,80.49256 75.55181,80.1417 74.72671,80.47713 C74.91563,79.52094 75.29734,78.97344 75.72146,78.66885 C76.65067,78.93489 77.30612,78.85777 77.7688,78.60716 z" stroke="Black" stroke-width="0" fill="#7D8E7F" fill-opacity="1" />
  <path d="M81.76323,76.08944 C78.12352,76.28607 78.23918,73.45219 78.23918,73.45219 C78.23918,73.45219 81.5049,72.66179 81.76323,76.08944 z" stroke="Black" stroke-width="0" fill="#C6C8B9" fill-opacity="1" />
  <path d="M62.55065,40.74492 C62.8244,41.66642 62.84753,42.81154 62.3463,44.20342 C60.52259,42.83853 59.87484,41.38496 59.71676,40.20128 L59.72062,38.85567 L60.46861,38.00357 C61.07009,38.40841 62.11882,39.29906 62.55065,40.74492 z" stroke="Black" stroke-width="0" fill="#7D8E7F" fill-opacity="1" />
  <path d="M51.35777,71.23521 C50.55965,72.38418 50.17023,73.97269 51.3462,75.96991 C50.90666,76.86056 50.13554,77.7088 48.82077,78.3604 C47.54841,76.43644 47.69492,74.89805 48.32339,73.7298 C49.2526,71.98705 51.24595,71.07713 51.24595,71.07713" stroke="Black" stroke-width="0" fill="#C6C8B9" fill-opacity="1" />
  <path d="M87.37701,79.37443 C83.7373,79.57107 83.85683,76.73718 83.85683,76.73718 C83.85683,76.73718 87.11869,75.95063 87.37701,79.37443 z" stroke="Black" stroke-width="0" fill="#CFD3A7" fill-opacity="1" />
  <path d="M64.22013,84.07058 C64.45147,87.18207 62.60077,87.74885 61.78723,87.84909 L61.33227,87.39027 C61.22817,86.41094 61.32841,84.23637 64.22013,84.07058 z" stroke="Black" stroke-width="0" fill="#CFD3A7" fill-opacity="1" />
  <path d="M50.68689,89.16772 C52.00551,85.80176 54.44998,87.19749 54.44998,87.19749 C54.44998,87.19749 53.80994,90.4902 50.68689,89.16772 z" stroke="Black" stroke-width="0" fill="#7D8E7F" fill-opacity="1" />
  <path d="M71.98536,33.82793 L70.37756,34.64147 L69.91305,33.17492 L72.12591,33.79308" stroke="Black" stroke-width="0" fill="#7A8E82" fill-opacity="1" />
  <path d="M65.01054,54.20105 C65.01054,54.20105 66.94221,56.20984 66.24434,58.21861 L65.78938,57.91788 C65.33441,58.60803 65.16476,59.2018 65.17247,59.70689 L63.98494,60.4356 C62.8938,58.80853 62.67788,57.56316 62.8591,56.62624 C63.09814,55.41558 64.01193,54.72927 64.57099,54.41311 z" stroke="Black" stroke-width="0" fill="#7D8E7F" fill-opacity="1" />
  <path d="M59.68206,62.4945 C59.68592,63.39672 59.13071,64.05218 59.13071,64.05218 C59.13071,64.05218 58.52538,63.82855 57.98944,63.34274 L57.35326,62.49836 C57.06409,61.85447 57.06024,60.99852 57.78895,59.89967 L58.65647,60.52042 C59.44301,61.20672 59.67821,61.90459 59.68206,62.4945 z" stroke="Black" stroke-width="0" fill="#C6C8B9" fill-opacity="1" />
  <path d="M70.58962,72.2955 L71.0176,72.40731 C70.43154,72.85842 69.57174,73.74907 69.35968,75.21421 C68.39577,75.85424 67.0386,76.19353 65.13777,75.57664 C66.00529,73.83389 67.05402,72.95096 68.0372,72.53455 C69.04352,72.11043 69.98429,72.17212 70.58962,72.2955 z" stroke="Black" stroke-width="0" fill="#7D8E7F" fill-opacity="1" />
  <path d="M88.04018,59.28277 L87.86282,59.84954 C83.83755,56.8383 85.54945,53.38752 85.54945,53.38752 C85.54945,53.38752 88.20598,54.68301 88.2561,57.65955 L87.29605,57.84847 C87.29605,57.84847 87.38858,58.66587 88.0556,59.26349 z" stroke="Black" stroke-width="0" fill="#7D8E7F" fill-opacity="1" />
  <path d="M55.50256,86.52661 C58.73743,88.439 56.84432,90.67912 56.84432,90.67912 C56.84432,90.67912 53.55547,89.4646 55.50256,86.52661 z" stroke="Black" stroke-width="0" fill="#7D8E7F" fill-opacity="1" />
  <path d="M60.91201,87.41726 L61.10093,87.19363 L61.33227,87.39027 L61.78723,87.84909 C62.95163,89.16772 62.63933,90.28585 62.25377,90.92588 L61.7988,91.50423 L61.36311,91.20348 L61.0084,90.88732 L60.85803,90.72539 L60.45319,90.13548 L60.27197,89.66895 L60.21028,89.31037 L60.24113,88.75517 L60.3568,88.35033 L60.4609,88.11127 L60.58042,87.88765 L60.73079,87.65631 z" stroke="Black" stroke-width="0" fill="#7D8E7F" fill-opacity="1" />
  <path d="M80.93041,41.08807 C79.65806,41.11121 78.87537,40.74492 78.39726,40.27839 C78.55149,39.57281 78.50908,38.93278 78.35871,38.36986 C78.9062,38.35829 79.64263,38.45468 80.22869,38.94434 C80.71064,39.34148 81.08849,40.00464 81.16946,41.08036 z" stroke="Black" stroke-width="0" fill="#7D8E7F" fill-opacity="1" />
  <path d="M55.29436,82.00397 C55.29436,82.00397 58.70659,82.89847 57.11036,86.08707 C56.38936,85.75163 55.89198,85.37378 55.55654,84.99207 C55.08616,84.46385 54.92422,83.92021 54.91265,83.44212 C54.89338,82.62086 55.29436,82.00397 55.29436,82.00397 z" stroke="Black" stroke-width="0" fill="#7D8E7F" fill-opacity="1" />
  <path d="M71.0176,72.40731 L71.58823,72.04103 C71.58823,72.04103 72.58298,73.51003 72.39791,75.26434 C72.27839,76.40559 71.66534,77.66253 69.96116,78.71897 C69.34811,77.29625 69.22473,76.13956 69.35968,75.21421 C69.57174,73.74907 70.43154,72.85842 71.0176,72.40731 z" stroke="Black" stroke-width="0" fill="#CFD3A7" fill-opacity="1" />
  <path d="M84.99424,57.91788 C80.11302,58.18391 79.55009,54.96061 79.49226,54.03526 L79.48455,53.79236 L80.45232,53.67283 C81.95215,53.615 84.70121,54.04297 84.99424,57.91788 z" stroke="Black" stroke-width="0" fill="#CFD3A7" fill-opacity="1" />
  <path d="M53.61716,43.07758 C52.91544,40.8336 54.18394,39.63065 55.00519,39.11399 L56.30453,39.7039 L56.90216,41.06879 L56.98698,41.51219 C57.1335,42.67273 56.67853,43.99521 54.59649,45.02852 z" stroke="Black" stroke-width="0" fill="#7D8E7F" fill-opacity="1" />
  <path d="M81.48948,72.33406 C77.84591,72.53069 77.96544,69.69681 77.96544,69.69681 C77.96544,69.69681 81.23115,68.90641 81.48948,72.33406 z" stroke="Black" stroke-width="0" fill="#7D8E7F" fill-opacity="1" />
  <path d="M74.91178,58.81623 C74.91178,58.81623 78.22376,62.12436 74.09439,64.32593 C70.00742,61.24913 74.91178,58.81623 74.91178,58.81623 z" stroke="Black" stroke-width="0" fill="#7D8E7F" fill-opacity="1" />
  <path d="M78.34715,67.39886 C78.45124,68.36662 78.20448,69.51559 77.27142,70.81109 C73.43507,67.07113 76.23041,64.01747 76.23041,64.01747 C76.23041,64.01747 76.98611,64.51871 77.59915,65.42092 C77.95773,65.94914 78.26617,66.61231 78.34715,67.39886 z" stroke="Black" stroke-width="0" fill="#7D8E7F" fill-opacity="1" />
  <path d="M60.87345,87.46353 L60.73079,87.65631 L60.58042,87.88765 L60.4609,88.10742 L60.36451,88.33105 L60.2951,88.53154 L60.20257,89.14844 C60.10618,89.23711 57.41881,87.74499 59.02661,85.41234 L59.41217,84.92653 L59.86713,85.34293 C60.64211,86.11021 60.90044,86.81964 60.91201,87.41726 z" stroke="Black" stroke-width="0" fill="#7D8E7F" fill-opacity="1" />
  <path d="M49.52634,41.15362 C49.9042,41.93245 50.26662,43.43229 48.33496,44.53115 C47.91084,43.71375 47.79131,43.05059 47.83372,42.5108 C48.54316,41.97101 49.00198,41.26543 49.27187,40.7295 z" stroke="Black" stroke-width="0" fill="#7D8E7F" fill-opacity="1" />
  <path d="M67.33548,43.66363 C66.99619,41.49291 68.41505,40.09718 68.41505,40.09718 L69.0358,40.68323 C69.98429,41.71654 71.43401,44.03762 69.09364,46.93706 C67.97937,45.73024 67.48585,44.61982 67.33548,43.66363 z" stroke="Black" stroke-width="0" fill="#7D8E7F" fill-opacity="1" />
  <path d="M61.55204,80.73547 C62.21135,83.71201 60.81562,84.89183 59.87099,85.34293 L59.41217,84.92653 L59.02661,85.41234 C58.76442,84.62965 58.04342,81.69166 61.55204,80.73547 z" stroke="Black" stroke-width="0" fill="#C6C8B9" fill-opacity="1" />
  <path d="M54.23021,48.05904 L54.28419,47.85855 C54.28419,47.85855 57.71569,48.29809 57.7851,51.53682 L57.65015,52.85929 L57.3417,52.7552 L56.91758,52.58169 C55.37918,51.91852 54.66589,50.98932 54.35744,50.12951 C54.03743,49.25429 54.14539,48.45232 54.22635,48.07832 z" stroke="Black" stroke-width="0" fill="#C6C8B9" fill-opacity="1" />
  <path d="M46.81199,43.06215 L46.55366,43.65592 L46.42257,43.46314 C46.42257,43.46314 45.11551,44.01449 45.06924,45.50276 C44.17088,46.20063 42.8831,46.73656 41.05554,46.60547 C42.04258,44.62754 43.33421,43.69062 44.44849,43.25493 C45.77868,42.73442 46.8544,42.93492 46.8544,42.93492" stroke="Black" stroke-width="0" fill="#7D8E7F" fill-opacity="1" />
  <path d="M61.93598,43.87864 C59.35975,43.13596 57.2108,41.51464 56.70202,39.80289 C57.27085,39.91129 57.78551,39.86519 58.24392,39.72704 C58.82611,39.54968 59.31963,39.21809 59.72062,38.85567 L59.71676,40.20128 C59.86236,41.2915 60.42336,42.61068 61.93598,43.87864 z" stroke="Black" stroke-width="0" fill="#7A8E82" fill-opacity="1" />
  <path d="M85.56487,41.73967 L85.73837,42.85395 C83.051,43.00046 81.67455,42.08668 80.96511,41.08807 L81.16946,41.08036 C81.08849,40.00464 80.71064,39.34148 80.22869,38.9482 L80.22483,38.72843 L81.70924,38.61276 C82.31072,38.63975 83.02016,38.76313 83.67176,39.11399 C84.09203,39.33762 84.48915,39.65378 84.82074,40.09718 C84.55084,40.4866 84.3812,41.09193 84.59711,42.0674 z" stroke="Black" stroke-width="0" fill="#7D8E7F" fill-opacity="1" />
  <path d="M51.42331,41.21917 C52.20986,38.58192 54.65047,39.03688 55.00519,39.11399 C54.18394,39.63065 52.91544,40.8336 53.61716,43.07758 C53.03497,43.36289 52.25227,43.48627 51.18041,43.34361 z" stroke="Black" stroke-width="0" fill="#C6C8B9" fill-opacity="1" />
  <path d="M73.1806,55.40015 C73.1806,55.40015 74.07125,58.30729 70.98289,58.78539 C70.6089,55.49269 73.1806,55.40015 73.1806,55.40015 z" stroke="Black" stroke-width="0" fill="#7D8E7F" fill-opacity="1" />
  <path d="M74.72868,50.64094 L74.56778,51.16747 C74.29714,51.83715 73.72438,52.53976 72.82985,53.13846 C71.78194,52.28798 70.26575,52.65495 70.26575,52.65495 C70.26575,52.65495 70.23405,53.43175 70.72618,54.14373 C69.06036,54.70527 67.07844,54.86834 65.42239,54.70768 L65.01054,54.20105 L64.57099,54.41311 L64.70209,53.8926 L64.78305,53.49933 L64.84474,53.08678 L65.96673,54.21262 C66.49881,53.56873 66.83424,52.95954 67.02703,52.38891 C68.07576,49.30055 64.83704,47.41901 64.83704,47.41901 C64.83704,47.41901 62.68945,49.48948 64.29724,52.2771 L64.47075,52.55856 C63.77748,52.43865 62.31906,52.35115 61.11667,53.47951 C59.73346,52.73405 58.82776,51.64826 58.64795,50.59961 L56.98698,41.51219 L56.90216,41.06879 L56.66059,39.79473 C57.2108,41.51464 59.35975,43.13596 61.93598,43.87864 L62.3463,44.20342 L62.41183,44.01392 L64.31718,44.39272 L67.5569,44.52534 C67.82098,45.26637 68.29977,46.07725 69.09364,46.93706 C69.90965,45.92612 70.2649,44.9855 70.34129,44.14526 C73.04758,43.5563 75.21668,42.19472 76.09886,40.79082 L76.43472,41.29629 L75.92627,43.9812 C75.84099,44.09546 74.97733,45.32541 75.41301,46.70186 z M70.71686,52.0419 L71.76559,52.57398 L72.20128,51.71803 C73.64713,48.167 69.41366,47.17996 69.41366,47.17996 C69.41366,47.17996 67.26994,49.97143 70.71686,52.0419 z" stroke="Black" stroke-width="0" fill="#48595F" fill-opacity="1" />
  <path d="M85.56487,41.73967 L84.59711,42.0674 C84.3812,41.09193 84.55084,40.4866 84.84387,40.1126 C85.29884,39.51498 86.0584,39.4957 86.0584,39.4957 C86.0584,39.4957 86.69457,41.01867 85.56487,41.73967 z" stroke="Black" stroke-width="0" fill="#7D8E7F" fill-opacity="1" />
  <path d="M78.53992,84.56796 C78.53992,84.56796 80.40219,86.12949 79.05272,88.48141 C77.26757,86.30299 78.53992,84.56796 78.53992,84.56796 z" stroke="Black" stroke-width="0" fill="#7D8E7F" fill-opacity="1" />
  <path d="M51.39247,50.36471 C51.59682,50.69244 51.95539,51.39416 51.87442,52.17299 C51.80888,52.82074 51.43488,53.52632 50.40928,54.10852 C50.01601,53.34896 49.88492,52.72049 49.9042,52.2077 C49.95432,50.71943 51.26138,50.16807 51.26138,50.16807 z" stroke="Black" stroke-width="0" fill="#7D8E7F" fill-opacity="1" />
  <path d="M72.00079,63.74758 C67.04245,66.53519 65.86649,62.23618 65.86649,62.23618 L66.54507,61.78121 L67.13113,62.07038 L67.53983,61.31468 C68.93171,60.84044 70.84024,60.86357 72.00079,63.74758 z" stroke="Black" stroke-width="0" fill="#7D8E7F" fill-opacity="1" />
  <path d="M58.30946,36.02564 L58.40971,36.19914 C58.40971,36.19914 57.33013,36.95484 55.98066,36.91243 C55.00133,36.88544 53.8832,36.43433 52.93086,34.97305 C56.31996,33.44622 57.91233,35.41259 58.30946,36.02564 z" stroke="Black" stroke-width="0" fill="#C6C8B9" fill-opacity="1" />
  <path d="M55.54883,84.99979 C54.93579,85.80176 53.78296,86.6153 52.01708,85.25426 C53.03882,83.51151 54.12225,83.27247 54.91265,83.4344 C54.92422,83.92021 55.08616,84.46385 55.55654,84.99207 z" stroke="Black" stroke-width="0" fill="#7D8E7F" fill-opacity="1" />
  <path d="M63.22153,91.09938 C62.82054,91.73557 62.68174,92.29077 62.70873,92.76116 C62.14195,93.38577 61.21275,93.82146 59.7052,93.18142 C60.14859,92.05173 60.71923,91.45795 61.27829,91.16879 L61.7988,91.50423 L62.25377,90.92588 z" stroke="Black" stroke-width="0" fill="#7D8E7F" fill-opacity="1" />
  <path d="M55.30593,72.68106 C58.5408,74.59345 56.65154,76.83357 56.65154,76.83357 L55.63751,76.23209 L54.91265,75.34916 C54.58493,74.70141 54.55408,73.82233 55.30593,72.68106 z" stroke="Black" stroke-width="0" fill="#7D8E7F" fill-opacity="1" />
  <path d="M72.81818,70.04382 L72.67552,70.29443 L72.54828,70.49107 L72.39021,70.71469 L72.17043,70.9923 L71.93524,71.26605 L71.33762,71.11568 L71.19496,71.93693 L70.58962,72.2955 C69.98429,72.17212 69.04352,72.11043 68.0372,72.53455 C67.43572,72.35719 66.78413,72.0256 66.0824,71.47811 L67.38174,70.09394 L68.50759,70.68771 C68.50759,70.68771 69.05123,70.03996 69.05508,69.14931 C70.70144,68.63651 72.0162,69.41535 72.55214,69.82019 z" stroke="Black" stroke-width="0" fill="#C6C8B9" fill-opacity="1" />
  <path d="M55.30978,77.43119 C58.57935,79.28575 56.72865,81.56057 56.72865,81.56057 C56.72865,81.56057 55.57196,81.15572 55.02061,80.2111 L54.72758,79.10454 C54.73915,78.62643 54.90109,78.07123 55.30978,77.43119 z" stroke="Black" stroke-width="0" fill="#7D8E7F" fill-opacity="1" />
  <path d="M55.6298,76.23981 C55.20568,77.04948 53.95646,78.81151 51.7202,77.0919 C52.87303,75.12167 54.10297,75.07155 54.90494,75.35301 z" stroke="Black" stroke-width="0" fill="#7D8E7F" fill-opacity="1" />
  <path d="M46.15268,75.53808 C46.87753,74.60502 47.84529,73.99583 48.32339,73.7298 C47.69492,74.89805 47.54841,76.43644 48.79763,78.3257 C48.35809,79.27419 47.5754,80.1764 46.19509,80.8627 L45.46637,79.43227 C44.90345,77.80519 45.40083,76.49813 46.15268,75.53808 z" stroke="Black" stroke-width="0" fill="#7D8E7F" fill-opacity="1" />
  <path d="M78.79825,76.97623 C79.77758,76.96466 81.40466,77.31167 81.58201,79.69059 C79.5154,79.80241 78.65945,78.93874 78.30473,78.17147 C78.03484,77.58542 78.05797,77.05334 78.05797,77.05334 z" stroke="Black" stroke-width="0" fill="#7D8E7F" fill-opacity="1" />
  <path d="M83.67176,39.11399 C83.02016,38.76313 82.31072,38.63975 81.70924,38.61276 C79.446,36.9587 79.12212,34.82654 79.12212,34.82654 C79.12212,34.82654 82.40711,35.39717 83.68718,39.08315 z" stroke="Black" stroke-width="0" fill="#C6C8B9" fill-opacity="1" />
  <path d="M50.89509,49.609 L51.69321,49.63985 L51.39247,50.36085 L51.26138,50.16807 C51.26138,50.16807 49.95432,50.71943 49.9042,52.2077 C49.00969,52.90942 47.72191,53.44149 45.89435,53.3104 C47.42503,50.23362 49.69985,49.67455 50.89509,49.609 z" stroke="Black" stroke-width="0" fill="#7D8E7F" fill-opacity="1" />
  <path d="M81.97914,83.52694 C78.95248,83.07198 78.57077,80.77016 78.57077,80.77016 C78.57077,80.77016 81.18488,80.67377 81.97914,83.52694 z" stroke="Black" stroke-width="0" fill="#7D8E7F" fill-opacity="1" />
  <path d="M66.88437,35.1427 C67.42416,35.47814 68.16058,35.71333 69.15919,35.75574 C70.38528,37.22088 71.59594,37.5409 72.61383,37.39053 C73.59315,37.2363 74.36814,36.67338 74.91178,36.1413 L75.32279,35.69873 L75.87966,36.31488 L75.77544,36.52687 C75.45157,37.22474 75.17782,38.28118 75.54796,39.54968 L76.09886,40.79082 C75.21668,42.19472 73.04758,43.5563 70.34129,44.14526 C70.48401,42.57561 69.65359,41.35626 69.0358,40.68323 C69.77223,41.48135 71.49184,42.89251 74.7537,41.14205 L74.0327,40.11646 L72.93385,39.22966 C71.41859,38.43155 69.8532,39.12941 69.10521,39.57281 L69.08979,39.1834 C69.08979,39.1834 65.80865,37.65657 64.39364,40.92228 C64.10061,41.60087 63.88855,42.48766 63.79987,43.63664 C65.41924,44.18028 66.54893,44.08389 67.33548,43.66363 L67.5569,44.52534 L64.31718,44.39272 L62.41183,44.01392 C62.84489,42.70722 62.81187,41.62426 62.55065,40.74492 C62.11882,39.29906 61.07009,38.40841 60.46861,38.00357 L61.03539,37.07051 C61.03539,37.07051 60.11389,36.16444 58.75671,36.0372 L58.30946,36.02564 L58.02187,35.64415 C59.02694,34.68753 60.63575,33.8488 62.50587,33.37226 L62.94392,33.8395 C62.31931,34.27904 61.86435,34.88823 61.57903,35.35476 L61.22431,36.02949 C61.22431,36.02949 63.98494,38.9482 66.88052,35.1427 z" stroke="Black" stroke-width="0" fill="#7A8E82" fill-opacity="1" />
  <path d="M78.55534,48.83402 C79.81614,49.41237 81.80178,50.82738 80.45232,53.66127 L79.48455,53.79236 L79.49226,54.03526 C75.96822,52.17299 76.92828,49.71696 77.43336,48.83402 L77.64928,48.49858 z" stroke="Black" stroke-width="0" fill="#C6C8B9" fill-opacity="1" />
  <path d="M55.00904,80.21881 C54.46154,81.07476 53.25473,82.25844 51.28837,80.74317 C52.56844,78.55704 53.94104,78.73825 54.72373,79.10454 z" stroke="Black" stroke-width="0" fill="#CFD3A7" fill-opacity="1" />
  <path d="M67.02703,52.38891 C66.83424,52.95954 66.49881,53.56873 65.96673,54.21262 L64.85631,53.08678 L64.86402,52.83231 L64.47075,52.56627 L64.29724,52.2771 C62.68945,49.48948 64.83704,47.41901 64.83704,47.41901 C64.83704,47.41901 68.07576,49.30055 67.02703,52.38891 z" stroke="Black" stroke-width="0" fill="#CFD3A7" fill-opacity="1" />
  <path d="M72.20128,51.71803 L71.76559,52.57398 L70.71686,52.0419 C67.26994,49.97143 69.41366,47.17996 69.41366,47.17996 C69.41366,47.17996 73.64713,48.167 72.20128,51.71803 z" stroke="Black" stroke-width="0" fill="#7D8E7F" fill-opacity="1" />
  <path d="M65.45233,32.90227 L65.57346,33.4308 L64.55943,33.28043 L64.58234,32.98412 z" stroke="Black" stroke-width="0" fill="#7A8E82" fill-opacity="1" />
  <path d="M56.06163,71.027 C61.38625,70.89977 60.60741,74.99059 60.60741,74.99059 C60.60741,74.99059 55.70306,75.99304 56.06163,71.027 z" stroke="Black" stroke-width="0" fill="#7D8E7F" fill-opacity="1" />
  <path d="M49.669,95.47166 C49.83865,94.94344 50.21265,94.42294 50.92208,93.98724 L51.54284,93.66723 C52.99255,97.28381 50.08927,98.14747 50.08927,98.14747 C50.08927,98.14747 49.23717,96.798 49.669,95.47166 z" stroke="Black" stroke-width="0" fill="#7D8E7F" fill-opacity="1" />
  <path d="M73.78979,55.29219 C70.15009,55.48883 70.26575,52.65495 70.26575,52.65495 C70.26575,52.65495 73.53146,51.86454 73.78979,55.29219 z" stroke="Black" stroke-width="0" fill="#7D8E7F" fill-opacity="1" />
  <path d="M41.73027,79.98362 C42.48212,75.96606 44.81477,75.46868 46.15268,75.53808 C45.40083,76.49813 44.90345,77.80519 45.46637,79.43227 C44.65669,80.0376 43.47687,80.36147 41.73027,79.98362 z" stroke="Black" stroke-width="0" fill="#CFD3A7" fill-opacity="1" />
  <path d="M67.77888,93.03105 C66.75328,93.32408 65.97059,93.32022 65.37296,93.15443 C63.73433,92.70718 63.49142,91.05312 63.49142,91.05312 L64.85631,90.69069 C65.88962,90.60587 67.21981,90.94901 67.77888,93.03105 z" stroke="Black" stroke-width="0" fill="#C6C8B9" fill-opacity="1" />
  <path d="M66.24434,58.21861 C67.85213,59.35217 67.80586,60.56284 67.53983,61.31468 L67.13113,62.07038 L66.54893,61.77736 C65.97829,61.42649 65.19175,60.75562 65.17247,59.70689 C65.16476,59.2018 65.33441,58.60803 65.78938,57.91788 z" stroke="Black" stroke-width="0" fill="#7D8E7F" fill-opacity="1" />
  <path d="M56.30453,39.7039 L55.01675,39.09857 L54.43456,38.68987 L54.88181,38.0884 L55.98066,36.97026 C57.33013,36.95484 58.40971,36.19914 58.40971,36.19914 L58.30946,36.02564 L58.75671,36.0372 C60.11389,36.16444 61.03539,37.07051 61.03539,37.07051 L60.46861,38.00357 L59.72062,38.85567 C59.31963,39.21809 58.82611,39.54968 58.24392,39.72704 C57.68099,39.89668 57.03325,39.92753 56.30453,39.7039 z" stroke="Black" stroke-width="0" fill="#7D8E7F" fill-opacity="1" />
  <path d="M77.03623,36.17601 L76.10317,35.93696 L75.43229,35.56296 C74.86552,35.11956 74.65731,34.54508 74.58791,34.1171 L74.55706,33.51563 C74.55706,33.51563 77.56831,33.09922 77.54517,36.22227 z" stroke="Black" stroke-width="0" fill="#7D8E7F" fill-opacity="1" />
  <path d="M52.27155,90.74081 C55.50642,92.6532 53.61331,94.89332 53.61331,94.89332 C53.61331,94.89332 50.32832,93.67879 52.27155,90.74081 z" stroke="Black" stroke-width="0" fill="#C6C8B9" fill-opacity="1" />
  <path d="M46.55366,43.65977 C46.92765,44.26125 47.82216,46.12737 45.57433,47.40359 C45.18106,46.64788 45.04996,46.01942 45.06924,45.50276 C45.11551,44.01449 46.42257,43.46314 46.42257,43.46314 z" stroke="Black" stroke-width="0" fill="#CFD3A7" fill-opacity="1" />
  <path d="M54.5695,71.77113 C54.56565,73.30182 53.96417,75.14095 51.57368,76.32848 L51.3462,75.96991 C50.17023,73.97269 50.55965,72.38418 51.35777,71.23521 L52.25613,70.22889 C52.34095,70.9576 52.62241,71.75957 53.21618,72.63865 z" stroke="Black" stroke-width="0" fill="#7D8E7F" fill-opacity="1" />
  <path d="M47.83372,42.5108 L46.82741,43.06601 C46.8544,42.93492 45.77868,42.73442 44.44849,43.25493 L43.45374,43.00046 C45.0037,39.88126 47.13586,39.51883 48.43906,39.64607 L49.60346,39.92753 L49.27187,40.7295 C49.00198,41.26543 48.54316,41.97101 47.83372,42.5108 z" stroke="Black" stroke-width="0" fill="#C6C8B9" fill-opacity="1" />
  <path d="M63.22153,91.09938 L63.39117,90.84491 L63.63408,90.98757 C63.49142,91.05312 63.73433,92.70718 65.37296,93.15443 C65.51563,94.23786 64.77534,95.05911 64.77534,95.05911 C64.77534,95.05911 62.7897,94.37666 62.70873,92.76116 C62.68174,92.29077 62.82054,91.73557 63.22153,91.09938 z" stroke="Black" stroke-width="0" fill="#7D8E7F" fill-opacity="1" />
  <path d="M74.81539,52.21155 C74.81539,52.21155 80.0282,53.51861 77.25214,58.0374 C72.06248,55.71631 74.81539,52.21155 74.81539,52.21155 z" stroke="Black" stroke-width="0" fill="#C6C8B9" fill-opacity="1" />
  <path d="M72.71022,67.71117 C72.71022,67.71117 77.8382,68.32421 76.48873,73.46375 C74.05198,72.70034 73.04951,71.44727 72.67937,70.306 L72.81818,70.04382 L72.55214,69.82019 C72.34393,68.64808 72.71022,67.71117 72.71022,67.71117 z" stroke="Black" stroke-width="0" fill="#7D8E7F" fill-opacity="1" />
  <path d="M54.34588,50.13337 C54.09526,50.93919 53.42824,51.74887 52.05564,52.43132 L51.88599,52.17299 C51.95539,51.39416 51.59682,50.69244 51.39247,50.36471 L51.69321,49.63985 L50.89509,49.609 C50.62906,47.07972 53.08123,46.19678 53.08123,46.19678 C53.08123,46.19678 53.83308,46.97947 54.23021,48.05904 C54.14539,48.45232 54.03743,49.25429 54.35744,50.12951 z" stroke="Black" stroke-width="0" fill="#C6C8B9" fill-opacity="1" />
  <path d="M67.34705,34.47568 L66.88052,35.1427 C63.98494,38.9482 61.22431,36.02949 61.22431,36.02949 L61.57903,35.35476 C61.86435,34.88823 62.31931,34.27904 62.94006,33.84335 L64.0312,34.50267 C64.0312,34.50267 64.45147,34.00529 64.55943,33.28043 L65.57346,33.43466 C66.11324,33.60816 66.70701,33.93589 67.34705,34.47568 z" stroke="Black" stroke-width="0" fill="#C6C8B9" fill-opacity="1" />
  <path d="M64.55943,33.28043 C64.45147,34.00529 64.0312,34.50267 64.0312,34.50267 L62.94392,33.8395 C62.20364,33.19946 61.54818,32.06977 62.68945,30.35016 C64.40134,31.36033 64.67509,32.4669 64.55943,33.28043 z" stroke="Black" stroke-width="0" fill="#C6C8B9" fill-opacity="1" />
  <path d="M53.27016,62.36727 L53.18533,62.61788 L52.63398,62.41739 C52.63398,62.41739 51.94382,63.29262 52.15974,64.34906 C51.22282,65.37851 49.65744,66.26145 47.12044,65.43635 C49.50707,60.63609 53.27016,62.36727 53.27016,62.36727 z" stroke="Black" stroke-width="0" fill="#C6C8B9" fill-opacity="1" />
  <path d="M80.25182,84.49084 C76.60825,84.68362 76.72778,81.85359 76.72778,81.85359 C76.72778,81.85359 79.98964,81.06319 80.25182,84.49084 z" stroke="Black" stroke-width="0" fill="#7D8E7F" fill-opacity="1" />
  <path d="M69.08979,39.1834 L69.10521,39.57281 L68.6541,39.87741 L69.05508,40.54443 L68.41505,40.09718 C68.41505,40.09718 66.99619,41.49291 67.33548,43.66363 C66.54893,44.08389 65.41924,44.18028 63.79987,43.63664 C63.88855,42.48766 64.10061,41.60087 64.39364,40.92228 C65.80865,37.65657 69.08979,39.1834 69.08979,39.1834 z" stroke="Black" stroke-width="0" fill="#7D8E7F" fill-opacity="1" />
  <path d="M68.40349,66.85907 C72.06248,63.67432 75.16625,65.69082 75.16625,65.69082 C75.16625,65.69082 72.58684,68.95653 68.40349,66.85907 z" stroke="Black" stroke-width="0" fill="#7D8E7F" fill-opacity="1" />
  <path d="M55.64137,65.35538 C55.64137,65.35538 57.47664,69.24184 54.55794,71.75957 L53.21618,72.63865 C52.62241,71.75957 52.34095,70.9576 52.26384,70.22889 C52.08648,68.51699 53.08123,67.23306 54.03743,66.41567 L54.3613,66.55062 L54.68903,65.9183 z" stroke="Black" stroke-width="0" fill="#7D8E7F" fill-opacity="1" />
  <path d="M88.2561,57.65955 C89.14675,57.60942 90.39983,57.90245 90.83551,59.78785 C89.42049,60.05775 88.56841,59.72231 88.0556,59.26349 C87.38858,58.66587 87.29605,57.84847 87.29605,57.84847 z" stroke="Black" stroke-width="0" fill="#7D8E7F" fill-opacity="1" />
  <path d="M76.40391,80.49256 L76.38078,81.22898 C76.24583,82.26614 75.67519,83.85467 73.26543,83.17607 C73.41579,81.49888 74.03655,80.77788 74.6843,80.49256 C75.55181,80.1417 76.40391,80.49256 76.40391,80.49256 z" stroke="Black" stroke-width="0" fill="#C6C8B9" fill-opacity="1" />
  <path d="M69.05508,69.14931 C69.05123,70.03996 68.50759,70.68771 68.50759,70.68771 L67.43572,70.03996 L66.81882,69.31125 C66.44868,68.65193 66.36771,67.73815 67.16583,66.53519 L67.76345,66.93618 C68.77363,67.70345 69.05894,68.49386 69.05508,69.14931 z" stroke="Black" stroke-width="0" fill="#7D8E7F" fill-opacity="1" />
  <path d="M77.92688,84.30192 C77.92688,84.30192 78.40112,86.89675 75.83327,87.22063 C74.93491,84.58338 77.92688,84.30192 77.92688,84.30192 z" stroke="Black" stroke-width="0" fill="#7D8E7F" fill-opacity="1" />
  <path d="M61.92604,57.00409 C61.88363,58.01041 61.37468,59.12854 59.96352,60.24667 C58.07041,58.01427 58.07426,56.2908 58.56007,55.11869 L59.27722,55.4657 C59.27722,55.4657 60.00208,54.60975 59.79002,53.49933 L60.06377,53.29884 L60.66139,53.90031 C60.17944,54.59818 59.73219,55.56594 59.47386,56.94626 C60.4609,57.15832 61.26672,57.14675 61.92218,56.98867 z" stroke="Black" stroke-width="0" fill="#7D8E7F" fill-opacity="1" />
  <path d="M54.93193,90.98372 C58.00872,93.14287 55.94596,95.22876 55.94596,95.22876 C55.94596,95.22876 52.76122,93.75977 54.93193,90.98372 z" stroke="Black" stroke-width="0" fill="#7D8E7F" fill-opacity="1" />
  <path d="M51.28837,92.69176 L50.92208,93.98724 C50.21265,94.42294 49.83865,94.94344 49.669,95.47166 C48.70895,96.01917 47.71035,95.74927 47.71035,95.74927 C47.71035,95.74927 47.65637,92.16739 51.28837,92.69176 z" stroke="Black" stroke-width="0" fill="#7D8E7F" fill-opacity="1" />
  <path d="M65.36911,62.92633 C65.36911,62.92633 67.94466,64.42232 67.76345,66.93618 L67.16583,66.53519 C66.36771,67.73815 66.44868,68.65193 66.81882,69.31125 L66.50266,69.71994 C62.17279,66.00312 65.36911,62.92633 65.36911,62.92633 z" stroke="Black" stroke-width="0" fill="#7D8E7F" fill-opacity="1" />
  <path d="M53.18533,62.61788 C54.04899,62.99188 55.5257,63.94807 54.68903,65.9183 L54.3613,66.55062 L54.04128,66.40025 C52.78435,65.76022 52.29083,65.01994 52.15974,64.34906 C51.94382,63.29262 52.63398,62.41739 52.63398,62.41739 z" stroke="Black" stroke-width="0" fill="#CFD3A7" fill-opacity="1" />
  <path d="M78.35871,38.36986 C78.50908,38.93278 78.55149,39.57281 78.39341,40.27839 C78.25076,40.93385 77.93845,41.63943 77.39481,42.39513 L76.43475,41.29628 C75.9875,40.68323 75.70604,40.09718 75.54796,39.54968 C75.17782,38.28118 75.45157,37.22474 75.77544,36.52687 L76.10317,35.93696 L77.03623,36.17601 C77.51048,36.65025 78.10038,37.39438 78.35871,38.36986 z" stroke="Black" stroke-width="0" fill="#CFD3A7" fill-opacity="1" />
  <path d="M55.00519,39.11399 C54.65047,39.03688 52.20986,38.58192 51.42331,41.21917 C50.7293,41.33098 50.39772,41.43508 49.53791,41.14591 L49.29115,40.74107 L49.60346,39.92753 L48.43906,39.64607 C50.25891,36.40734 53.60945,37.51005 54.8741,38.08068 L54.43456,38.68987 z" stroke="Black" stroke-width="0" fill="#CFD3A7" fill-opacity="1" />
  <path d="M77.66855,65.37851 C75.74074,62.33642 77.8382,60.05004 77.8382,60.05004" stroke="#FFFFFF" stroke-width="0.05" fill="none" />
  <path d="M59.79002,53.49933 L60.06377,53.29884" stroke="#FFFFFF" stroke-width="0.05" fill="none" />
  <path d="M57.11036,86.08707 C56.38936,85.75163 55.89198,85.37378 55.55654,84.99207" stroke="#FFFFFF" stroke-width="0.05" fill="none" />
  <path d="M49.52634,41.15362 C49.9042,41.93245 50.26662,43.43229 48.33496,44.53115" stroke="#FFFFFF" stroke-width="0.05" fill="none" />
  <path d="M78.86379,75.98919 L78.79825,76.97623" stroke="#FFFFFF" stroke-width="0.05" fill="none" />
  <path d="M53.21618,72.63865 C52.62241,71.75957 52.34095,70.9576 52.26384,70.22889" stroke="#FFFFFF" stroke-width="0.05" fill="none" />
  <path d="M72.39021,70.71469 L72.17043,70.9923" stroke="#FFFFFF" stroke-width="0.05" fill="none" />
  <path d="M56.30453,39.7039 L56.90216,41.06879" stroke="#FFFFFF" stroke-width="0.05" fill="none" />
  <path d="M74.81539,52.21155 C74.81539,52.21155 80.0282,53.51861 77.25214,58.0374 C72.06248,55.71631 74.81539,52.21155 74.81539,52.21155 z" stroke="#FFFFFF" stroke-width="0.05" fill="none" />
  <path d="M84.59711,42.0674 C84.3812,41.09193 84.55084,40.4866 84.84387,40.1126" stroke="#FFFFFF" stroke-width="0.05" fill="none" />
  <path d="M58.30946,36.02564 L58.75671,36.0372" stroke="#FFFFFF" stroke-width="0.05" fill="none" />
  <path d="M60.36451,88.33105 L60.4609,88.11127" stroke="#FFFFFF" stroke-width="0.05" fill="none" />
  <path d="M74.0327,40.11646 L74.7537,41.14205" stroke="#FFFFFF" stroke-width="0.05" fill="none" />
  <path d="M51.54284,93.66723 C52.99255,97.28381 50.08927,98.14747 50.08927,98.14747" stroke="#FFFFFF" stroke-width="0.05" fill="none" />
  <path d="M81.35838,68.4553 C79.70432,68.54398 78.82524,68.00805 78.35871,67.39886" stroke="#FFFFFF" stroke-width="0.05" fill="none" />
  <path d="M75.41301,46.70186 C74.97733,45.32541 75.84099,44.09546 75.92581,43.98365" stroke="#FFFFFF" stroke-width="0.05" fill="none" />
  <path d="M62.8591,56.62624 C63.09814,55.41558 64.01193,54.72927 64.57099,54.41311" stroke="#FFFFFF" stroke-width="0.05" fill="none" />
  <path d="M48.32339,73.7298 C49.2526,71.98705 51.24595,71.07713 51.24595,71.07713" stroke="#FFFFFF" stroke-width="0.05" fill="none" />
  <path d="M67.34705,34.47568 L66.88052,35.1427" stroke="#FFFFFF" stroke-width="0.05" fill="none" />
  <path d="M73.78979,55.29219 C73.53146,51.86454 70.26575,52.65495 70.26575,52.65495 C70.26575,52.65495 70.15009,55.48883 73.78979,55.29219 z" stroke="#FFFFFF" stroke-width="0.05" fill="none" />
  <path d="M75.16625,65.69082 C75.16625,65.69082 72.58684,68.95653 68.40349,66.85907" stroke="#FFFFFF" stroke-width="0.05" fill="none" />
  <path d="M58.64222,50.56826 C58.81064,51.62644 59.71911,52.72669 61.11667,53.47951" stroke="#FFFFFF" stroke-width="0.05" fill="none" />
  <path d="M73.1806,55.40015 C73.1806,55.40015 70.6089,55.49269 70.98289,58.78539 C74.07125,58.30729 73.1806,55.40015 73.1806,55.40015 z" stroke="#FFFFFF" stroke-width="0.05" fill="none" />
  <path d="M69.35968,75.21421 C69.57174,73.74907 70.43154,72.85842 71.0176,72.40731" stroke="#FFFFFF" stroke-width="0.05" fill="none" />
  <path d="M53.27016,62.36727 L53.18533,62.61788" stroke="#FFFFFF" stroke-width="0.05" fill="none" />
  <path d="M62.94392,33.8395 C62.20364,33.19946 61.54818,32.06977 62.68945,30.35016" stroke="#FFFFFF" stroke-width="0.05" fill="none" />
  <path d="M68.50759,70.68771 L67.43572,70.03996" stroke="#FFFFFF" stroke-width="0.05" fill="none" />
  <path d="M65.78938,57.91788 L66.24434,58.21861" stroke="#FFFFFF" stroke-width="0.05" fill="none" />
  <path d="M60.4609,88.10742 L60.58042,87.88765" stroke="#FFFFFF" stroke-width="0.05" fill="none" />
  <path d="M51.39247,50.36471 C51.59682,50.69244 51.95539,51.39416 51.87442,52.17299" stroke="#FFFFFF" stroke-width="0.05" fill="none" />
  <path d="M73.1806,55.40015 C73.1806,55.40015 74.07125,58.30729 70.98289,58.78539" stroke="#FFFFFF" stroke-width="0.05" fill="none" />
  <path d="M81.70924,38.61276 C82.31072,38.63975 83.02016,38.76313 83.67176,39.11399" stroke="#FFFFFF" stroke-width="0.05" fill="none" />
  <path d="M49.60346,39.92753 L49.27187,40.7295" stroke="#FFFFFF" stroke-width="0.05" fill="none" />
  <path d="M52.05564,52.43132 L51.88599,52.17299" stroke="#FFFFFF" stroke-width="0.05" fill="none" />
  <path d="M67.33548,43.66363 C66.54893,44.08389 65.41924,44.18028 63.79987,43.63664" stroke="#FFFFFF" stroke-width="0.05" fill="none" />
  <path d="M54.59649,45.02852 L53.61716,43.07758" stroke="#FFFFFF" stroke-width="0.05" fill="none" />
  <path d="M66.50266,69.71994 C62.17279,66.00312 65.36911,62.92633 65.36911,62.92633" stroke="#FFFFFF" stroke-width="0.05" fill="none" />
  <path d="M51.42331,41.21917 C50.7293,41.33098 50.39772,41.43508 49.53791,41.14591" stroke="#FFFFFF" stroke-width="0.05" fill="none" />
  <path d="M50.89509,49.609 L51.69321,49.63985" stroke="#FFFFFF" stroke-width="0.05" fill="none" />
  <path d="M76.48873,73.46375 C74.05198,72.70034 73.04951,71.44727 72.67937,70.306" stroke="#FFFFFF" stroke-width="0.05" fill="none" />
  <path d="M49.669,95.47166 C48.70895,96.01917 47.71035,95.74927 47.71035,95.74927" stroke="#FFFFFF" stroke-width="0.05" fill="none" />
  <path d="M46.81199,43.06215 L46.55366,43.65592" stroke="#FFFFFF" stroke-width="0.05" fill="none" />
  <path d="M48.7745,78.34112 C48.35809,79.27419 47.5754,80.1764 46.19509,80.8627" stroke="#FFFFFF" stroke-width="0.05" fill="none" />
  <path d="M74.58791,34.1171 L74.55706,33.51563" stroke="#FFFFFF" stroke-width="0.05" fill="none" />
  <path d="M54.72758,79.10454 C54.73915,78.62643 54.90109,78.07123 55.30978,77.43119" stroke="#FFFFFF" stroke-width="0.05" fill="none" />
  <path d="M88.04018,59.28277 L87.86282,59.84954" stroke="#FFFFFF" stroke-width="0.05" fill="none" />
  <path d="M81.16946,41.08036 L80.96511,41.08807" stroke="#FFFFFF" stroke-width="0.05" fill="none" />
  <path d="M77.03623,36.17601 C77.51048,36.65025 78.10038,37.39438 78.35871,38.36986" stroke="#FFFFFF" stroke-width="0.05" fill="none" />
  <path d="M79.48455,65.8489 L78.87922,66.84365" stroke="#FFFFFF" stroke-width="0.05" fill="none" />
  <path d="M54.04128,66.40025 C52.78435,65.76022 52.29083,65.01994 52.15974,64.34906" stroke="#FFFFFF" stroke-width="0.05" fill="none" />
  <path d="M54.68903,65.9183 L54.3613,66.55062" stroke="#FFFFFF" stroke-width="0.05" fill="none" />
  <path d="M71.18339,72.26851 L71.19496,71.93693" stroke="#FFFFFF" stroke-width="0.05" fill="none" />
  <path d="M56.83661,62.9379 C53.00412,58.41911 56.93686,55.99392 56.93686,55.99392" stroke="#FFFFFF" stroke-width="0.05" fill="none" />
  <path d="M61.00069,90.87576 L60.85803,90.72539" stroke="#FFFFFF" stroke-width="0.05" fill="none" />
  <path d="M61.28215,91.13794 L61.0084,90.88732" stroke="#FFFFFF" stroke-width="0.05" fill="none" />
  <path d="M56.06163,71.027 C61.38625,70.89977 60.60741,74.99059 60.60741,74.99059" stroke="#FFFFFF" stroke-width="0.05" fill="none" />
  <path d="M58.75671,36.0372 C60.11389,36.16444 61.03539,37.07051 61.03539,37.07051" stroke="#FFFFFF" stroke-width="0.05" fill="none" />
  <path d="M78.55534,48.83402 C79.81614,49.41237 81.80178,50.82738 80.45232,53.66127" stroke="#FFFFFF" stroke-width="0.05" fill="none" />
  <path d="M47.83372,42.5108 L46.82741,43.06601" stroke="#FFFFFF" stroke-width="0.05" fill="none" />
  <path d="M64.84474,53.08678 L64.8139,53.30655" stroke="#FFFFFF" stroke-width="0.05" fill="none" />
  <path d="M77.92688,84.30192 C77.92688,84.30192 78.40112,86.89675 75.83327,87.22063" stroke="#FFFFFF" stroke-width="0.05" fill="none" />
  <path d="M54.55794,71.75957 L53.21618,72.63865" stroke="#FFFFFF" stroke-width="0.05" fill="none" />
  <path d="M69.08979,39.1834 L69.10521,39.57281" stroke="#FFFFFF" stroke-width="0.05" fill="none" />
  <path d="M56.90218,41.06882 L56.987,41.51221" stroke="#FFFFFF" stroke-width="0.05" fill="none" />
  <path d="M79.05272,88.48141 C80.40219,86.12949 78.53992,84.56796 78.53992,84.56796 C78.53992,84.56796 77.26757,86.30299 79.05272,88.48141 z" stroke="#FFFFFF" stroke-width="0.05" fill="none" />
  <path d="M80.25182,84.49084 C79.98964,81.06319 76.72778,81.85359 76.72778,81.85359 C76.72778,81.85359 76.60825,84.68362 80.25182,84.49084 z" stroke="#FFFFFF" stroke-width="0.05" fill="none" />
  <path d="M65.13777,75.57664 C66.00529,73.83389 67.05402,72.95096 68.0372,72.53455" stroke="#FFFFFF" stroke-width="0.05" fill="none" />
  <path d="M72.71022,67.71117 C72.71022,67.71117 77.8382,68.32421 76.48873,73.46375" stroke="#FFFFFF" stroke-width="0.05" fill="none" />
  <path d="M47.71035,95.74927 C47.71035,95.74927 47.65637,92.16739 51.28837,92.69176" stroke="#FFFFFF" stroke-width="0.05" fill="none" />
  <path d="M57.33784,52.76676 C57.26458,53.31426 57.39953,53.77308 57.62316,54.14322" stroke="#FFFFFF" stroke-width="0.05" fill="none" />
  <path d="M58.65647,60.52042 C59.44301,61.20672 59.67821,61.90459 59.68206,62.4945" stroke="#FFFFFF" stroke-width="0.05" fill="none" />
  <path d="M49.29115,40.74107 L49.52634,41.15362" stroke="#FFFFFF" stroke-width="0.05" fill="none" />
  <path d="M68.0372,72.52684 C67.43572,72.35719 66.78413,72.0256 66.0824,71.47811" stroke="#FFFFFF" stroke-width="0.05" fill="none" />
  <path d="M52.26384,70.22889 C52.08648,68.51699 53.08123,67.23306 54.03743,66.41567" stroke="#FFFFFF" stroke-width="0.05" fill="none" />
  <path d="M77.8382,60.05004 C77.8382,60.05004 81.21958,62.29015 79.48455,65.8489" stroke="#FFFFFF" stroke-width="0.05" fill="none" />
  <path d="M52.63398,62.41739 L53.17762,62.61403" stroke="#FFFFFF" stroke-width="0.05" fill="none" />
  <path d="M76.72778,81.85359 C76.72778,81.85359 79.98964,81.06319 80.25182,84.49084" stroke="#FFFFFF" stroke-width="0.05" fill="none" />
  <path d="M54.5695,71.77113 C54.56565,73.30182 53.96417,75.14095 51.57368,76.32848" stroke="#FFFFFF" stroke-width="0.05" fill="none" />
  <path d="M60.60741,74.99059 C60.60741,74.99059 61.38625,70.89977 56.06163,71.027 C55.70306,75.99304 60.60741,74.99059 60.60741,74.99059 z" stroke="#FFFFFF" stroke-width="0.05" fill="none" />
  <path d="M76.23041,64.01747 C76.23041,64.01747 76.98611,64.51871 77.59915,65.42092" stroke="#FFFFFF" stroke-width="0.05" fill="none" />
  <path d="M59.02275,85.40849 C58.76442,84.62965 58.04342,81.69166 61.55204,80.73547" stroke="#FFFFFF" stroke-width="0.05" fill="none" />
  <path d="M87.86282,59.84954 C83.83755,56.8383 85.54945,53.38752 85.54945,53.38752" stroke="#FFFFFF" stroke-width="0.05" fill="none" />
  <path d="M84.84387,40.1126 C85.29884,39.51498 86.0584,39.4957 86.0584,39.4957" stroke="#FFFFFF" stroke-width="0.05" fill="none" />
  <path d="M81.70924,38.61276 C79.446,36.9587 79.12212,34.82654 79.12212,34.82654" stroke="#FFFFFF" stroke-width="0.05" fill="none" />
  <path d="M52.14046,64.35291 C51.22282,65.37851 49.65744,66.26145 47.12044,65.43635" stroke="#FFFFFF" stroke-width="0.05" fill="none" />
  <path d="M88.0556,59.26349 C87.38858,58.66587 87.29605,57.84847 87.29605,57.84847" stroke="#FFFFFF" stroke-width="0.05" fill="none" />
  <path d="M56.84432,90.67912 C56.84432,90.67912 58.73743,88.439 55.50256,86.52661 C53.55547,89.4646 56.84432,90.67912 56.84432,90.67912 z" stroke="#FFFFFF" stroke-width="0.05" fill="none" />
  <path d="M78.23918,73.45219 C78.23918,73.45219 81.5049,72.66179 81.76323,76.08944" stroke="#FFFFFF" stroke-width="0.05" fill="none" />
  <path d="M61.36311,91.20348 L61.7988,91.50423" stroke="#FFFFFF" stroke-width="0.05" fill="none" />
  <path d="M51.28837,92.69176 C47.65637,92.16739 47.71035,95.74927 47.71035,95.74927 C47.71035,95.74927 48.70895,96.01917 49.669,95.47166 C49.23717,96.798 50.08927,98.14747 50.08927,98.14747 C50.08927,98.14747 52.99255,97.28381 51.54284,93.66723 L50.92208,93.98724 z" stroke="#FFFFFF" stroke-width="0.05" fill="none" />
  <path d="M56.93686,55.99392 C56.93686,55.99392 59.41217,58.02198 58.65647,60.52042" stroke="#FFFFFF" stroke-width="0.05" fill="none" />
  <path d="M60.4609,88.11127 L60.36451,88.33105" stroke="#FFFFFF" stroke-width="0.05" fill="none" />
  <path d="M77.92688,84.30192 C77.92688,84.30192 74.93491,84.58338 75.83327,87.22063 C78.40112,86.89675 77.92688,84.30192 77.92688,84.30192 z" stroke="#FFFFFF" stroke-width="0.05" fill="none" />
  <path d="M61.28215,91.13794 L61.0084,90.88732" stroke="#FFFFFF" stroke-width="0.05" fill="none" />
  <path d="M62.70102,92.76116 C62.14195,93.38577 61.21275,93.82146 59.7052,93.18142" stroke="#FFFFFF" stroke-width="0.05" fill="none" />
  <path d="M64.57099,54.41311 L65.01054,54.20105" stroke="#FFFFFF" stroke-width="0.05" fill="none" />
  <path d="M69.09364,46.93706 C67.97937,45.73024 67.48585,44.61982 67.33548,43.66363" stroke="#FFFFFF" stroke-width="0.05" fill="none" />
  <path d="M78.79825,76.97623 C79.77758,76.96466 81.40466,77.31167 81.58201,79.69059" stroke="#FFFFFF" stroke-width="0.05" fill="none" />
  <path d="M57.34555,62.50221 L56.83661,62.9379" stroke="#FFFFFF" stroke-width="0.05" fill="none" />
  <path d="M45.45481,79.43612 C44.65669,80.0376 43.47687,80.36147 41.73027,79.98362" stroke="#FFFFFF" stroke-width="0.05" fill="none" />
  <path d="M47.12044,65.43635 C49.50707,60.63609 53.27016,62.36727 53.27016,62.36727" stroke="#FFFFFF" stroke-width="0.05" fill="none" />
  <path d="M78.30473,78.17147 C78.03484,77.58542 78.05797,77.05334 78.05797,77.05334" stroke="#FFFFFF" stroke-width="0.05" fill="none" />
  <path d="M53.18533,62.61788 C54.04899,62.99188 55.5257,63.94807 54.68903,65.9183" stroke="#FFFFFF" stroke-width="0.05" fill="none" />
  <path d="M60.06377,53.29884 L60.66139,53.90031" stroke="#FFFFFF" stroke-width="0.05" fill="none" />
  <path d="M55.54883,84.99979 C54.93579,85.80176 53.78296,86.6153 52.01708,85.25426" stroke="#FFFFFF" stroke-width="0.05" fill="none" />
  <path d="M55.00904,80.21881 C54.46154,81.07476 53.25473,82.25844 51.28837,80.74317" stroke="#FFFFFF" stroke-width="0.05" fill="none" />
  <path d="M52.15974,64.34906 C51.94382,63.29262 52.63398,62.41739 52.63398,62.41739" stroke="#FFFFFF" stroke-width="0.05" fill="none" />
  <path d="M53.61331,94.89332 C53.61331,94.89332 50.32832,93.67879 52.27155,90.74081" stroke="#FFFFFF" stroke-width="0.05" fill="none" />
  <path d="M51.33849,75.97377 C50.90666,76.86056 50.13554,77.7088 48.82077,78.3604" stroke="#FFFFFF" stroke-width="0.05" fill="none" />
  <path d="M51.26138,50.16807 C51.26138,50.16807 49.95432,50.71943 49.9042,52.2077" stroke="#FFFFFF" stroke-width="0.05" fill="none" />
  <path d="M53.08123,46.19678 C53.08123,46.19678 53.83308,46.97947 54.23021,48.05904" stroke="#FFFFFF" stroke-width="0.05" fill="none" />
  <path d="M51.28837,80.74317 C52.56844,78.55704 53.94104,78.73825 54.72373,79.10454" stroke="#FFFFFF" stroke-width="0.05" fill="none" />
  <path d="M46.15268,75.53808 C45.40083,76.49813 44.90345,77.80519 45.46637,79.43227" stroke="#FFFFFF" stroke-width="0.05" fill="none" />
  <path d="M84.99424,57.91788 C80.11302,58.18391 79.55009,54.96061 79.49226,54.03526" stroke="#FFFFFF" stroke-width="0.05" fill="none" />
  <path d="M75.72146,78.66885 C76.06847,74.84021 78.86379,75.98919 78.86379,75.98919" stroke="#FFFFFF" stroke-width="0.05" fill="none" />
  <path d="M51.18041,43.34361 L51.42331,41.21917" stroke="#FFFFFF" stroke-width="0.05" fill="none" />
  <path d="M69.41366,47.17996 C69.41366,47.17996 73.64713,48.167 72.20128,51.71803" stroke="#FFFFFF" stroke-width="0.05" fill="none" />
  <path d="M54.04128,66.40025 L54.3613,66.55062" stroke="#FFFFFF" stroke-width="0.05" fill="none" />
  <path d="M79.48455,65.8489 C80.33665,66.07638 81.22729,66.73183 81.35838,68.4553" stroke="#FFFFFF" stroke-width="0.05" fill="none" />
  <path d="M55.30978,77.43119 C58.57935,79.28575 56.72865,81.56057 56.72865,81.56057" stroke="#FFFFFF" stroke-width="0.05" fill="none" />
  <path d="M53.3704,57.00409 C54.15695,54.3013 55.74932,53.12148 56.90601,52.60868" stroke="#FFFFFF" stroke-width="0.05" fill="none" />
  <path d="M56.65154,76.83357 L55.63751,76.23209" stroke="#FFFFFF" stroke-width="0.05" fill="none" />
  <path d="M57.61545,54.15093 C56.97541,55.28834 55.74161,56.58768 53.3704,57.00409" stroke="#FFFFFF" stroke-width="0.05" fill="none" />
  <path d="M45.57433,47.40359 C45.18106,46.64788 45.04996,46.01942 45.06924,45.50276" stroke="#FFFFFF" stroke-width="0.05" fill="none" />
  <path d="M54.35744,50.12951 C54.03743,49.25429 54.14539,48.45232 54.22635,48.07832" stroke="#FFFFFF" stroke-width="0.05" fill="none" />
  <path d="M60.39921,66.05325 C60.99297,66.69328 61.43637,67.65333 61.54433,69.08376" stroke="#FFFFFF" stroke-width="0.05" fill="none" />
  <path d="M74.72671,80.47328 C74.91563,79.52094 75.29734,78.97344 75.72146,78.66885" stroke="#FFFFFF" stroke-width="0.05" fill="none" />
  <path d="M55.94596,95.22876 C55.94596,95.22876 52.76122,93.75977 54.93193,90.98372" stroke="#FFFFFF" stroke-width="0.05" fill="none" />
  <path d="M87.29605,57.84847 L88.2561,57.65955" stroke="#FFFFFF" stroke-width="0.05" fill="none" />
  <path d="M59.72062,38.85567 C59.31963,39.21809 58.82611,39.54968 58.24392,39.72704" stroke="#FFFFFF" stroke-width="0.05" fill="none" />
  <path d="M56.30453,39.7039 L55.01675,39.09857" stroke="#FFFFFF" stroke-width="0.05" fill="none" />
  <path d="M61.78723,87.84909 C62.95163,89.16772 62.63933,90.28585 62.25377,90.92588" stroke="#FFFFFF" stroke-width="0.05" fill="none" />
  <path d="M60.2951,88.53154 L60.3568,88.35033 L60.20257,89.14844" stroke="#FFFFFF" stroke-width="0.05" fill="none" />
  <path d="M57.11036,86.08707 C58.70659,82.89847 55.29436,82.00397 55.29436,82.00397 C55.29436,82.00397 54.89338,82.62086 54.91265,83.4344 C54.12225,83.27247 53.03882,83.51151 52.01708,85.25426 C53.78296,86.6153 54.93579,85.80176 55.54883,84.99979 C55.89198,85.37378 56.38936,85.75163 57.11036,86.08707 z" stroke="#FFFFFF" stroke-width="0.05" fill="none" />
  <path d="M67.76345,66.93618 C67.94466,64.42232 65.36911,62.92633 65.36911,62.92633 C65.36911,62.92633 62.17279,66.00312 66.50266,69.71994 L66.81111,69.3151 L67.43572,70.03996 L66.0824,71.47811 C66.78413,72.0256 67.43572,72.35719 68.0372,72.52684 C67.05402,72.95096 66.00529,73.83389 65.13777,75.57664 C67.0386,76.19353 68.39577,75.85424 69.3404,75.21035 C69.22473,76.13956 69.34811,77.29625 69.96116,78.71897 C71.66534,77.66253 72.27839,76.40559 72.39791,75.26434 C72.98011,75.87352 73.82835,76.44801 75.05058,76.89912 C75.86027,73.02422 73.16518,71.6786 71.92753,71.27376 L72.05862,71.12339 L72.39021,70.71469 L72.51238,70.54403 L72.67166,70.30214 C73.04951,71.44727 74.05198,72.70034 76.48873,73.46375 C77.8382,68.32421 72.71022,67.71117 72.71022,67.71117 C72.71022,67.71117 72.34393,68.64808 72.55599,69.81248 C72.0162,69.41534 70.70143,68.63651 69.05508,69.14931 C69.05894,68.49386 68.77363,67.70345 67.76345,66.93618 z" stroke="#FFFFFF" stroke-width="0.05" fill="none" />
  <path d="M56.91758,52.58169 C55.37918,51.91852 54.66589,50.98932 54.35744,50.12951" stroke="#FFFFFF" stroke-width="0.05" fill="none" />
  <path d="M62.3463,44.20342 C60.52259,42.83853 59.87484,41.38496 59.71676,40.20128" stroke="#FFFFFF" stroke-width="0.05" fill="none" />
  <path d="M74.91178,58.81623 C74.91178,58.81623 70.00742,61.24913 74.09439,64.32593 C78.22376,62.12436 74.91178,58.81623 74.91178,58.81623 z" stroke="#FFFFFF" stroke-width="0.05" fill="none" />
  <path d="M79.48455,65.8489 C81.21958,62.29015 77.8382,60.05004 77.8382,60.05004 C77.8382,60.05004 75.74074,62.33642 77.66855,65.37851 C76.98611,64.51871 76.23041,64.01747 76.23041,64.01747 C76.23041,64.01747 73.43507,67.07113 77.27142,70.81109 C78.20448,69.51559 78.45124,68.36662 78.34715,67.39886 C78.82524,68.00805 79.70432,68.54398 81.35838,68.4553 C81.22729,66.73183 80.33665,66.07638 79.48455,65.8489 z" stroke="#FFFFFF" stroke-width="0.05" fill="none" />
  <path d="M61.55204,80.73547 C58.04342,81.69166 58.76442,84.62965 59.02275,85.40849 C57.41881,87.74499 60.10618,89.23711 60.10618,89.23711 L60.24498,89.55328 L60.39921,90.02367 L60.85803,90.72539 L61.00069,90.87576 L61.28215,91.13794 C60.71923,91.45795 60.14859,92.05173 59.7052,93.18142 C61.21275,93.82146 62.14195,93.38577 62.70102,92.76116 C62.7897,94.37666 64.77534,95.05911 64.77534,95.05911 C64.77534,95.05911 65.51563,94.23786 65.36911,93.166 C65.97059,93.32022 66.75328,93.32408 67.77888,93.03105 C67.21981,90.94901 65.88962,90.60587 64.85631,90.69068 C65.54261,90.20103 66.1518,89.24869 66.013,87.38256 C62.61619,87.57534 63.07116,90.53646 63.18297,91.08781 L62.25377,90.92588 C62.63933,90.28585 62.95163,89.16772 61.78723,87.84909 C62.60077,87.74885 64.45147,87.18207 64.22013,84.07058 C61.32841,84.23637 61.22817,86.41094 61.33227,87.39027 L61.10093,87.19363 L60.91201,87.41726 C60.90044,86.81964 60.64211,86.11021 59.87099,85.34293 C60.81562,84.89183 62.21135,83.71201 61.55204,80.73547 z" stroke="#FFFFFF" stroke-width="0.05" fill="none" />
  <path d="M72.05862,71.12339 L71.93524,71.26605" stroke="#FFFFFF" stroke-width="0.05" fill="none" />
  <path d="M62.50587,33.37226 C60.63575,33.8488 59.02694,34.68753 58.02187,35.64415" stroke="#FFFFFF" stroke-width="0.05" fill="none" />
  <path d="M85.73837,42.85395 C83.051,43.00046 81.67455,42.08668 80.96511,41.08807" stroke="#FFFFFF" stroke-width="0.05" fill="none" />
  <path d="M77.4295,48.83017 C76.21498,48.17086 75.63663,47.41901 75.41301,46.70572" stroke="#FFFFFF" stroke-width="0.05" fill="none" />
  <path d="M57.7928,51.53682 L57.93546,51.30933" stroke="#FFFFFF" stroke-width="0.05" fill="none" />
  <path d="M53.61331,94.89332 C53.61331,94.89332 55.50642,92.6532 52.27155,90.74081 C50.32832,93.67879 53.61331,94.89332 53.61331,94.89332 z" stroke="#FFFFFF" stroke-width="0.05" fill="none" />
  <path d="M65.36911,93.166 C65.51563,94.23786 64.77534,95.05911 64.77534,95.05911" stroke="#FFFFFF" stroke-width="0.05" fill="none" />
  <path d="M75.43229,35.56296 C74.86552,35.11956 74.65731,34.54508 74.58791,34.1171" stroke="#FFFFFF" stroke-width="0.05" fill="none" />
  <path d="M72.81818,70.04382 L72.55214,69.82019" stroke="#FFFFFF" stroke-width="0.05" fill="none" />
  <path d="M81.76323,76.08944 C78.12352,76.28607 78.23918,73.45219 78.23918,73.45219" stroke="#FFFFFF" stroke-width="0.05" fill="none" />
  <path d="M52.93086,34.97305 C56.31996,33.44622 57.91233,35.41259 58.30946,36.02564" stroke="#FFFFFF" stroke-width="0.05" fill="none" />
  <path d="M75.87966,36.31488 L75.32279,35.69873" stroke="#FFFFFF" stroke-width="0.05" fill="none" />
  <path d="M80.22869,38.9482 C80.71064,39.34148 81.08849,40.00464 81.16946,41.08036" stroke="#FFFFFF" stroke-width="0.05" fill="none" />
  <path d="M59.47386,56.94626 C60.4609,57.15832 61.26672,57.14675 61.92218,56.98867" stroke="#FFFFFF" stroke-width="0.05" fill="none" />
  <path d="M55.6298,76.23981 C55.20568,77.04948 53.95646,78.81151 51.7202,77.0919" stroke="#FFFFFF" stroke-width="0.05" fill="none" />
  <path d="M70.34129,44.14526 C73.04758,43.5563 75.21668,42.19472 76.09886,40.79082" stroke="#FFFFFF" stroke-width="0.05" fill="none" />
  <path d="M78.29317,78.17533 L77.7688,78.60716" stroke="#FFFFFF" stroke-width="0.05" fill="none" />
  <path d="M56.90216,41.06879 L56.98698,41.51219" stroke="#FFFFFF" stroke-width="0.05" fill="none" />
  <path d="M65.14162,59.70689 L63.98494,60.4356" stroke="#FFFFFF" stroke-width="0.05" fill="none" />
  <path d="M61.28215,91.13794 L61.0084,90.88732" stroke="#FFFFFF" stroke-width="0.05" fill="none" />
  <path d="M65.96673,54.21262 L64.85631,53.08678" stroke="#FFFFFF" stroke-width="0.05" fill="none" />
  <path d="M51.7202,77.0919 C52.87303,75.12167 54.10297,75.07155 54.90494,75.35301" stroke="#FFFFFF" stroke-width="0.05" fill="none" />
  <path d="M66.54893,61.77736 L67.13113,62.07038" stroke="#FFFFFF" stroke-width="0.05" fill="none" />
  <path d="M54.91265,83.4344 C54.89338,82.62086 55.29436,82.00397 55.29436,82.00397" stroke="#FFFFFF" stroke-width="0.05" fill="none" />
  <path d="M54.43456,38.68987 L55.01675,39.09857" stroke="#FFFFFF" stroke-width="0.05" fill="none" />
  <path d="M77.77265,78.61873 C77.78036,79.10454 77.71867,80.7933 76.38463,81.22898" stroke="#FFFFFF" stroke-width="0.05" fill="none" />
  <path d="M54.34588,50.13337 C54.09526,50.93919 53.42824,51.74887 52.05564,52.43132" stroke="#FFFFFF" stroke-width="0.05" fill="none" />
  <path d="M75.54796,39.54968 C75.17782,38.28118 75.45157,37.22474 75.77544,36.52687" stroke="#FFFFFF" stroke-width="0.05" fill="none" />
  <path d="M47.83372,42.5108 C48.54316,41.97101 49.00198,41.26543 49.27187,40.7295" stroke="#FFFFFF" stroke-width="0.05" fill="none" />
  <path d="M68.40349,66.85907 C72.06248,63.67432 75.16625,65.69082 75.16625,65.69082" stroke="#FFFFFF" stroke-width="0.05" fill="none" />
  <path d="M48.33496,44.53115 C47.91084,43.71375 47.79131,43.05059 47.83372,42.5108" stroke="#FFFFFF" stroke-width="0.05" fill="none" />
  <path d="M56.72865,81.56057 C56.72865,81.56057 55.57196,81.15572 55.02061,80.2111" stroke="#FFFFFF" stroke-width="0.05" fill="none" />
  <path d="M76.06076,35.92154 L75.43229,35.56296" stroke="#FFFFFF" stroke-width="0.05" fill="none" />
  <path d="M69.15919,35.75574 C68.16058,35.71333 67.42416,35.47814 66.88437,35.1427" stroke="#FFFFFF" stroke-width="0.05" fill="none" />
  <path d="M87.37701,79.37443 C83.7373,79.57107 83.85683,76.73718 83.85683,76.73718" stroke="#FFFFFF" stroke-width="0.05" fill="none" />
  <path d="M80.25182,84.49084 C76.60825,84.68362 76.72778,81.85359 76.72778,81.85359" stroke="#FFFFFF" stroke-width="0.05" fill="none" />
  <path d="M66.54893,61.77736 C65.97829,61.42649 65.19175,60.75562 65.17247,59.70689" stroke="#FFFFFF" stroke-width="0.05" fill="none" />
  <path d="M58.5755,55.09556 L57.62316,54.14322" stroke="#FFFFFF" stroke-width="0.05" fill="none" />
  <path d="M69.05508,69.14931 C69.05123,70.03996 68.50759,70.68771 68.50759,70.68771" stroke="#FFFFFF" stroke-width="0.05" fill="none" />
  <path d="M67.76345,66.93618 C68.77363,67.70345 69.05894,68.49386 69.05508,69.14931" stroke="#FFFFFF" stroke-width="0.05" fill="none" />
  <path d="M64.55943,33.28043 C64.45147,34.00529 64.0312,34.50267 64.0312,34.50267" stroke="#FFFFFF" stroke-width="0.05" fill="none" />
  <path d="M67.43572,70.03996 L66.81882,69.31125" stroke="#FFFFFF" stroke-width="0.05" fill="none" />
  <path d="M50.68689,89.16772 C52.00551,85.80176 54.44998,87.19749 54.44998,87.19749" stroke="#FFFFFF" stroke-width="0.05" fill="none" />
  <path d="M54.93193,90.98372 C58.00872,93.14287 55.94596,95.22876 55.94596,95.22876" stroke="#FFFFFF" stroke-width="0.05" fill="none" />
  <path d="M69.96116,78.71897 C69.34811,77.29625 69.22473,76.13956 69.35968,75.21421" stroke="#FFFFFF" stroke-width="0.05" fill="none" />
  <path d="M87.37701,79.37443 C87.11869,75.95063 83.85683,76.73718 83.85683,76.73718 C83.85683,76.73718 83.7373,79.57107 87.37701,79.37443 z" stroke="#FFFFFF" stroke-width="0.05" fill="none" />
  <path d="M64.31718,44.39272 C65.31629,44.52939 66.42005,44.58517 67.5569,44.52534" stroke="#FFFFFF" stroke-width="0.05" fill="none" />
  <path d="M41.73027,79.98362 C42.48212,75.96606 44.81477,75.46868 46.15268,75.53808" stroke="#FFFFFF" stroke-width="0.05" fill="none" />
  <path d="M79.48841,54.03526 C75.96822,52.17299 76.92828,49.71696 77.43336,48.83402" stroke="#FFFFFF" stroke-width="0.05" fill="none" />
  <path d="M72.00079,63.74758 C67.04245,66.53519 65.86649,62.23618 65.86649,62.23618" stroke="#FFFFFF" stroke-width="0.05" fill="none" />
  <path d="M65.57346,33.43466 C66.11324,33.60816 66.70701,33.93589 67.34705,34.47568" stroke="#FFFFFF" stroke-width="0.05" fill="none" />
  <path d="M70.37371,34.64147 L70.41998,35.71719" stroke="#FFFFFF" stroke-width="0.05" fill="none" />
  <path d="M51.57368,76.32848 L51.3462,75.96991" stroke="#FFFFFF" stroke-width="0.05" fill="none" />
  <path d="M48.79763,78.3257 C47.54841,76.43644 47.69492,74.89805 48.32339,73.7298" stroke="#FFFFFF" stroke-width="0.05" fill="none" />
  <path d="M46.15268,75.53808 C46.87753,74.60502 47.84529,73.99583 48.32339,73.7298" stroke="#FFFFFF" stroke-width="0.05" fill="none" />
  <path d="M57.65015,52.85929 L57.3417,52.7552" stroke="#FFFFFF" stroke-width="0.05" fill="none" />
  <path d="M59.02661,85.41234 L59.41217,84.92653" stroke="#FFFFFF" stroke-width="0.05" fill="none" />
  <path d="M60.39921,90.02367 L60.27197,89.66895" stroke="#FFFFFF" stroke-width="0.05" fill="none" />
  <path d="M61.55204,80.73547 C62.21135,83.71201 60.81562,84.89183 59.87099,85.34293" stroke="#FFFFFF" stroke-width="0.05" fill="none" />
  <path d="M64.8139,53.30655 L64.78305,53.49933" stroke="#FFFFFF" stroke-width="0.05" fill="none" />
  <path d="M72.82985,53.13846 C73.72438,52.53976 74.29714,51.83715 74.56778,51.16747 L74.7549,50.49006" stroke="#FFFFFF" stroke-width="0.05" fill="none" />
  <path d="M76.42704,41.30013 L75.92581,43.98365" stroke="#FFFFFF" stroke-width="0.05" fill="none" />
  <path d="M78.39341,40.28225 C78.25076,40.93385 77.93845,41.63943 77.39481,42.39513" stroke="#FFFFFF" stroke-width="0.05" fill="none" />
  <path d="M75.42458,35.57453 L74.91178,36.1413" stroke="#FFFFFF" stroke-width="0.05" fill="none" />
  <path d="M48.43906,39.64607 L49.60346,39.92753" stroke="#FFFFFF" stroke-width="0.05" fill="none" />
  <path d="M58.40971,36.19914 C58.40971,36.19914 57.33013,36.95484 55.98066,36.91243" stroke="#FFFFFF" stroke-width="0.05" fill="none" />
  <path d="M43.45374,43.00046 C45.0037,39.88126 47.13586,39.51883 48.43906,39.64607" stroke="#FFFFFF" stroke-width="0.05" fill="none" />
  <path d="M72.61383,37.39053 C73.59315,37.2363 74.36814,36.67338 74.91178,36.1413" stroke="#FFFFFF" stroke-width="0.05" fill="none" />
  <path d="M64.86402,52.83231 L64.84474,53.07521" stroke="#FFFFFF" stroke-width="0.05" fill="none" />
  <path d="M59.7052,93.18142 C60.14859,92.05173 60.71923,91.45795 61.27829,91.16879" stroke="#FFFFFF" stroke-width="0.05" fill="none" />
  <path d="M46.42257,43.46314 L46.55366,43.65592" stroke="#FFFFFF" stroke-width="0.05" fill="none" />
  <path d="M79.48455,53.79236 L80.45232,53.67283" stroke="#FFFFFF" stroke-width="0.05" fill="none" />
  <path d="M44.44463,43.24722 L43.45374,43.00046" stroke="#FFFFFF" stroke-width="0.05" fill="none" />
  <path d="M83.67176,39.11399 C84.09203,39.33762 84.48915,39.65378 84.82074,40.09718" stroke="#FFFFFF" stroke-width="0.05" fill="none" />
  <path d="M55.02061,80.2111 L54.72758,79.10454" stroke="#FFFFFF" stroke-width="0.05" fill="none" />
  <path d="M77.03623,36.17601 C77.51048,36.65025 78.10038,37.39438 78.35871,38.36986" stroke="#FFFFFF" stroke-width="0.05" fill="none" />
  <path d="M75.72146,78.67271 C76.65067,78.93489 77.30612,78.85777 77.7688,78.60716" stroke="#FFFFFF" stroke-width="0.05" fill="none" />
  <path d="M86.0584,39.4957 C86.0584,39.4957 86.69457,41.01867 85.56487,41.73967" stroke="#FFFFFF" stroke-width="0.05" fill="none" />
  <path d="M78.34715,67.39886 C78.45124,68.36662 78.20448,69.51559 77.27142,70.81109" stroke="#FFFFFF" stroke-width="0.05" fill="none" />
  <path d="M81.76323,76.08944 C81.5049,72.66179 78.23918,73.45219 78.23918,73.45219 C78.23918,73.45219 78.12352,76.28607 81.76323,76.08944 z" stroke="#FFFFFF" stroke-width="0.05" fill="none" />
  <path d="M88.2561,57.65955 C88.20598,54.68301 85.54945,53.38752 85.54945,53.38752 C85.54945,53.38752 83.83755,56.8383 87.86282,59.84954 L88.04018,59.28277 C88.56841,59.72231 89.42049,60.05775 90.83551,59.78785 C90.39983,57.90245 89.14675,57.60942 88.2561,57.65955 z" stroke="#FFFFFF" stroke-width="0.05" fill="none" />
  <path d="M61.57903,35.35476 C61.86435,34.88823 62.31931,34.27904 62.94006,33.84335" stroke="#FFFFFF" stroke-width="0.05" fill="none" />
  <path d="M71.0176,72.40731 L70.58962,72.2955" stroke="#FFFFFF" stroke-width="0.05" fill="none" />
  <path d="M53.61716,43.07758 C52.91544,40.8336 54.18394,39.63065 55.00519,39.11399" stroke="#FFFFFF" stroke-width="0.05" fill="none" />
  <path d="M57.35326,62.49836 C57.06409,61.85447 57.06024,60.99852 57.78895,59.89967" stroke="#FFFFFF" stroke-width="0.05" fill="none" />
  <path d="M56.90216,41.06879 L56.98698,41.51219" stroke="#FFFFFF" stroke-width="0.05" fill="none" />
  <path d="M62.94392,33.8395 L64.0312,34.50267" stroke="#FFFFFF" stroke-width="0.05" fill="none" />
  <path d="M64.77534,95.05911 C64.77534,95.05911 62.7897,94.37666 62.70873,92.76116" stroke="#FFFFFF" stroke-width="0.05" fill="none" />
  <path d="M62.8591,56.62624 L61.92218,56.98867" stroke="#FFFFFF" stroke-width="0.05" fill="none" />
  <path d="M72.12591,33.79308 L69.91305,33.17492" stroke="#FFFFFF" stroke-width="0.05" fill="none" />
  <path d="M65.01054,54.20105 C65.01054,54.20105 66.94221,56.20984 66.24434,58.21861" stroke="#FFFFFF" stroke-width="0.05" fill="none" />
  <path d="M72.93385,39.22966 L74.0327,40.11646" stroke="#FFFFFF" stroke-width="0.05" fill="none" />
  <path d="M67.16583,66.53519 C66.36771,67.73815 66.44868,68.65193 66.81882,69.31125" stroke="#FFFFFF" stroke-width="0.05" fill="none" />
  <path d="M67.53983,61.31468 L67.13113,62.07038" stroke="#FFFFFF" stroke-width="0.05" fill="none" />
  <path d="M69.08979,39.1834 C69.08979,39.1834 65.80865,37.65657 64.39364,40.92228" stroke="#FFFFFF" stroke-width="0.05" fill="none" />
  <path d="M63.18297,91.08781 C63.07116,90.53646 62.61619,87.57534 66.013,87.38256" stroke="#FFFFFF" stroke-width="0.05" fill="none" />
  <path d="M71.76559,52.57398 L70.71686,52.0419" stroke="#FFFFFF" stroke-width="0.05" fill="none" />
  <path d="M69.3404,75.21035 C68.39577,75.85424 67.0386,76.19353 65.13777,75.57664" stroke="#FFFFFF" stroke-width="0.05" fill="none" />
  <path d="M68.6541,39.87741 L69.10521,39.57281" stroke="#FFFFFF" stroke-width="0.05" fill="none" />
  <path d="M74.55706,33.51563 C74.55706,33.51563 77.56831,33.09922 77.54517,36.22227" stroke="#FFFFFF" stroke-width="0.05" fill="none" />
  <path d="M90.83551,59.78785 C89.42049,60.05775 88.56841,59.72231 88.0556,59.26349" stroke="#FFFFFF" stroke-width="0.05" fill="none" />
  <path d="M85.56487,41.73967 L84.59711,42.0674" stroke="#FFFFFF" stroke-width="0.05" fill="none" />
  <path d="M85.54945,53.38752 C85.54945,53.38752 88.20598,54.68301 88.2561,57.65955" stroke="#FFFFFF" stroke-width="0.05" fill="none" />
  <path d="M68.41505,40.09718 C68.41505,40.09718 66.99619,41.49291 67.33548,43.66363" stroke="#FFFFFF" stroke-width="0.05" fill="none" />
  <path d="M83.85683,76.73718 C83.85683,76.73718 87.11869,75.95063 87.37701,79.37443" stroke="#FFFFFF" stroke-width="0.05" fill="none" />
  <path d="M69.0358,40.68323 C69.98429,41.71654 71.43401,44.03762 69.09364,46.93706" stroke="#FFFFFF" stroke-width="0.05" fill="none" />
  <path d="M66.24434,58.21861 C67.85213,59.35217 67.80586,60.56284 67.53983,61.31468" stroke="#FFFFFF" stroke-width="0.05" fill="none" />
  <path d="M60.46861,38.00357 L59.72062,38.85567" stroke="#FFFFFF" stroke-width="0.05" fill="none" />
  <path d="M64.47075,52.55856 L64.29724,52.2771" stroke="#FFFFFF" stroke-width="0.05" fill="none" />
  <path d="M55.98066,36.91243 C55.00133,36.88544 53.8832,36.43433 52.93086,34.97305" stroke="#FFFFFF" stroke-width="0.05" fill="none" />
  <path d="M71.92753,71.27376 C73.16518,71.6786 75.86027,73.02422 75.05058,76.89912" stroke="#FFFFFF" stroke-width="0.05" fill="none" />
  <path d="M63.39117,90.84491 L63.63408,90.98757" stroke="#FFFFFF" stroke-width="0.05" fill="none" />
  <path d="M73.5893,33.75853 L74.58791,34.1171" stroke="#FFFFFF" stroke-width="0.05" fill="none" />
  <path d="M76.42706,41.30016 L75.92583,43.98367" stroke="#FFFFFF" stroke-width="0.05" fill="none" />
  <path d="M64.85631,90.69069 C65.88962,90.60587 67.21981,90.94901 67.77888,93.03105" stroke="#FFFFFF" stroke-width="0.05" fill="none" />
  <path d="M66.0824,71.47811 L67.38174,70.09394" stroke="#FFFFFF" stroke-width="0.05" fill="none" />
  <path d="M65.42239,54.70768 C67.07844,54.86834 69.06036,54.70527 70.72618,54.14373" stroke="#FFFFFF" stroke-width="0.05" fill="none" />
  <path d="M56.987,41.51221 L58.64798,50.59963" stroke="#FFFFFF" stroke-width="0.05" fill="none" />
  <path d="M81.16946,41.08036 L80.96511,41.08807" stroke="#FFFFFF" stroke-width="0.05" fill="none" />
  <path d="M72.93385,39.22966 C71.41859,38.43155 69.8532,39.12941 69.10521,39.57281" stroke="#FFFFFF" stroke-width="0.05" fill="none" />
  <path d="M54.68903,65.9183 L55.64137,65.35538" stroke="#FFFFFF" stroke-width="0.05" fill="none" />
  <path d="M70.41998,35.71719 L69.15919,35.75574" stroke="#FFFFFF" stroke-width="0.05" fill="none" />
  <path d="M80.45232,53.67283 C81.95215,53.615 84.70121,54.04297 84.99424,57.91788" stroke="#FFFFFF" stroke-width="0.05" fill="none" />
  <path d="M81.97914,83.52694 C81.18488,80.67377 78.57077,80.77016 78.57077,80.77016 C78.57077,80.77016 78.95248,83.07198 81.97914,83.52694 z" stroke="#FFFFFF" stroke-width="0.05" fill="none" />
  <path d="M60.24498,89.55328 L60.21028,89.31037" stroke="#FFFFFF" stroke-width="0.05" fill="none" />
  <path d="M56.95613,64.82716 L56.68624,64.57269" stroke="#FFFFFF" stroke-width="0.05" fill="none" />
  <path d="M46.55366,43.65977 C46.92765,44.26125 47.82216,46.12737 45.57433,47.40359" stroke="#FFFFFF" stroke-width="0.05" fill="none" />
  <path d="M46.8544,42.93492 C46.8544,42.93492 45.77868,42.73442 44.44849,43.25493" stroke="#FFFFFF" stroke-width="0.05" fill="none" />
  <path d="M60.60741,74.99059 C60.60741,74.99059 55.70306,75.99304 56.06163,71.027" stroke="#FFFFFF" stroke-width="0.05" fill="none" />
  <path d="M41.05554,46.60547 C42.04258,44.62754 43.33421,43.69062 44.44849,43.25493" stroke="#FFFFFF" stroke-width="0.05" fill="none" />
  <path d="M56.70202,39.80289 C57.2108,41.51464 59.35975,43.13596 61.93598,43.87864" stroke="#FFFFFF" stroke-width="0.05" fill="none" />
  <path d="M72.55599,69.81248 C72.34393,68.64808 72.71022,67.71117 72.71022,67.71117" stroke="#FFFFFF" stroke-width="0.05" fill="none" />
  <path d="M51.28837,92.69176 L50.92208,93.98724 C50.21265,94.42294 49.83865,94.94344 49.669,95.47166" stroke="#FFFFFF" stroke-width="0.05" fill="none" />
  <path d="M77.54517,36.22227 L77.03623,36.17601" stroke="#FFFFFF" stroke-width="0.05" fill="none" />
  <path d="M49.89648,52.2077 C49.00969,52.90942 47.72191,53.44149 45.89435,53.3104" stroke="#FFFFFF" stroke-width="0.05" fill="none" />
  <path d="M60.4609,88.10742 L60.58042,87.88765" stroke="#FFFFFF" stroke-width="0.05" fill="none" />
  <path d="M45.89435,53.3104 C47.42503,50.23362 49.69985,49.67455 50.89509,49.609" stroke="#FFFFFF" stroke-width="0.05" fill="none" />
  <path d="M75.92966,43.97594 C75.92966,43.97594 80.51786,44.9437 78.55534,48.83402" stroke="#FFFFFF" stroke-width="0.05" fill="none" />
  <path d="M78.05797,77.05334 L78.79825,76.97623" stroke="#FFFFFF" stroke-width="0.05" fill="none" />
  <path d="M46.19509,80.8627 L45.46637,79.43227" stroke="#FFFFFF" stroke-width="0.05" fill="none" />
  <path d="M50.89509,49.609 C50.62906,47.07972 53.08123,46.19678 53.08123,46.19678" stroke="#FFFFFF" stroke-width="0.05" fill="none" />
  <path d="M51.3462,75.96991 C50.17023,73.97269 50.55965,72.38418 51.35777,71.23521" stroke="#FFFFFF" stroke-width="0.05" fill="none" />
  <path d="M66.88052,35.1427 C63.98494,38.9482 61.22431,36.02949 61.22431,36.02949" stroke="#FFFFFF" stroke-width="0.05" fill="none" />
  <path d="M79.12212,34.82654 C79.12212,34.82654 82.40711,35.39717 83.68718,39.08315" stroke="#FFFFFF" stroke-width="0.05" fill="none" />
  <path d="M67.16583,66.53519 L67.76345,66.93618" stroke="#FFFFFF" stroke-width="0.05" fill="none" />
  <path d="M65.42694,31.84999 C65.42694,31.84999 69.86477,30.62391 70.37371,34.64147" stroke="#FFFFFF" stroke-width="0.05" fill="none" />
  <path d="M78.34715,67.39886 C78.26617,66.61231 77.95773,65.94914 77.59915,65.42092" stroke="#FFFFFF" stroke-width="0.05" fill="none" />
  <path d="M56.03078,64.95824 L56.94071,64.84258" stroke="#FFFFFF" stroke-width="0.05" fill="none" />
  <path d="M67.02703,52.38891 C66.83424,52.95954 66.49881,53.56873 65.96673,54.21262" stroke="#FFFFFF" stroke-width="0.05" fill="none" />
  <path d="M56.98698,41.51219 C57.1335,42.67273 56.67853,43.99521 54.59649,45.02852" stroke="#FFFFFF" stroke-width="0.05" fill="none" />
  <path d="M55.29436,82.00397 C55.29436,82.00397 58.70659,82.89847 57.11036,86.08707" stroke="#FFFFFF" stroke-width="0.05" fill="none" />
  <path d="M66.013,87.38256 C66.1518,89.24869 65.54261,90.20103 64.85631,90.68298" stroke="#FFFFFF" stroke-width="0.05" fill="none" />
  <path d="M51.69321,49.63985 L51.39247,50.36085" stroke="#FFFFFF" stroke-width="0.05" fill="none" />
  <path d="M72.54828,70.49107 L72.39021,70.71469" stroke="#FFFFFF" stroke-width="0.05" fill="none" />
  <path d="M61.33227,87.39027 C61.22817,86.41094 61.32841,84.23637 64.22013,84.07058" stroke="#FFFFFF" stroke-width="0.05" fill="none" />
  <path d="M54.9088,75.34916 C54.58493,74.70141 54.55408,73.82233 55.30593,72.68106" stroke="#FFFFFF" stroke-width="0.05" fill="none" />
  <path d="M54.28419,47.85855 C54.28419,47.85855 57.71569,48.29809 57.7851,51.53682" stroke="#FFFFFF" stroke-width="0.05" fill="none" />
  <path d="M56.68624,64.57269 L57.97017,63.36202" stroke="#FFFFFF" stroke-width="0.05" fill="none" />
  <path d="M54.23021,48.05904 L54.28419,47.85855" stroke="#FFFFFF" stroke-width="0.05" fill="none" />
  <path d="M65.57346,33.4308 C65.31513,32.59027 65.42694,31.84999 65.42694,31.84999" stroke="#FFFFFF" stroke-width="0.05" fill="none" />
  <path d="M59.47386,56.94626 C59.73219,55.56594 60.17944,54.59818 60.7038,53.93116" stroke="#FFFFFF" stroke-width="0.05" fill="none" />
  <path d="M81.48948,72.33406 C81.23115,68.90641 77.96544,69.69681 77.96544,69.69681 C77.96544,69.69681 77.84591,72.53069 81.48948,72.33406 z" stroke="#FFFFFF" stroke-width="0.05" fill="none" />
  <path d="M72.67552,70.29443 L72.81818,70.04382" stroke="#FFFFFF" stroke-width="0.05" fill="none" />
  <path d="M81.97914,83.52694 C78.95248,83.07198 78.57077,80.77016 78.57077,80.77016" stroke="#FFFFFF" stroke-width="0.05" fill="none" />
  <path d="M62.68945,30.35016 C64.40134,31.36033 64.67509,32.4669 64.55943,33.28043" stroke="#FFFFFF" stroke-width="0.05" fill="none" />
  <path d="M58.40971,36.19914 L58.30946,36.02564" stroke="#FFFFFF" stroke-width="0.05" fill="none" />
  <path d="M54.43456,38.68987 L54.88181,38.0884" stroke="#FFFFFF" stroke-width="0.05" fill="none" />
  <path d="M59.68206,62.4945 C61.95688,61.90074 63.43359,63.75529 63.43359,63.75529" stroke="#FFFFFF" stroke-width="0.05" fill="none" />
  <path d="M60.58042,87.88765 L60.73079,87.65631" stroke="#FFFFFF" stroke-width="0.05" fill="none" />
  <path d="M84.77447,73.02036 C84.77447,73.02036 82.12951,74.44694 83.98407,76.52512 C86.22418,75.22963 84.77447,73.02036 84.77447,73.02036 z" stroke="#FFFFFF" stroke-width="0.05" fill="none" />
  <path d="M61.54433,69.08376 C55.84571,69.38836 56.03078,64.95824 56.03078,64.95824" stroke="#FFFFFF" stroke-width="0.05" fill="none" />
  <path d="M81.58201,79.69059 C79.5154,79.80241 78.65945,78.93874 78.30473,78.17147" stroke="#FFFFFF" stroke-width="0.05" fill="none" />
  <path d="M59.96352,60.24667 C58.07041,58.01427 58.07426,56.2908 58.56007,55.11869" stroke="#FFFFFF" stroke-width="0.05" fill="none" />
  <path d="M80.93041,41.08807 C79.65806,41.11121 78.87537,40.74492 78.39726,40.27839" stroke="#FFFFFF" stroke-width="0.05" fill="none" />
  <path d="M77.96544,69.69681 C77.96544,69.69681 81.23115,68.90641 81.48948,72.33406" stroke="#FFFFFF" stroke-width="0.05" fill="none" />
  <path d="M56.93686,55.99392 C56.93686,55.99392 53.00412,58.41911 56.83661,62.9379 L57.34555,62.50221 L57.98944,63.34274 L56.68624,64.57269 L56.95613,64.82716 L56.03078,64.95824 C56.03078,64.95824 55.84571,69.38836 61.54433,69.08376 C61.43637,67.65333 60.99297,66.69328 60.39921,66.05325 C62.26533,65.68311 63.43359,63.75529 63.43359,63.75529 C63.43359,63.75529 61.95688,61.90074 59.68206,62.4945 C59.67821,61.90459 59.44301,61.20672 58.65647,60.52042 C59.41217,58.02198 56.93686,55.99392 56.93686,55.99392 z" stroke="#FFFFFF" stroke-width="0.05" fill="none" />
  <path d="M59.71676,40.20128 L59.72062,38.85567" stroke="#FFFFFF" stroke-width="0.05" fill="none" />
  <path d="M56.65154,76.83357 C56.65154,76.83357 58.5408,74.59345 55.30593,72.68106 C54.55408,73.82233 54.58493,74.70141 54.9088,75.34916 C54.10297,75.07155 52.87303,75.12167 51.7202,77.0919 C53.95646,78.81151 55.20568,77.04948 55.6298,76.23981 z" stroke="#FFFFFF" stroke-width="0.05" fill="none" />
  <path d="M80.22483,38.72843 L81.70924,38.61276" stroke="#FFFFFF" stroke-width="0.05" fill="none" />
  <path d="M79.49226,54.03526 L79.48455,53.79236" stroke="#FFFFFF" stroke-width="0.05" fill="none" />
  <path d="M56.72865,81.56057 C56.72865,81.56057 58.57935,79.28575 55.30978,77.43119 C54.90109,78.07123 54.73915,78.62643 54.72758,79.10454 C53.94104,78.73825 52.56844,78.55704 51.28837,80.74317 C53.25473,82.25844 54.46154,81.07476 55.00904,80.21881 C55.57196,81.15572 56.72865,81.56057 56.72865,81.56057 z" stroke="#FFFFFF" stroke-width="0.05" fill="none" />
  <path d="M55.94596,95.22876 C55.94596,95.22876 58.00872,93.14287 54.93193,90.98372 C52.76122,93.75977 55.94596,95.22876 55.94596,95.22876 z" stroke="#FFFFFF" stroke-width="0.05" fill="none" />
  <path d="M45.05768,45.50276 C44.17088,46.20063 42.8831,46.73656 41.05554,46.60547" stroke="#FFFFFF" stroke-width="0.05" fill="none" />
  <path d="M75.16625,65.69082 C75.16625,65.69082 72.06248,63.67432 68.40349,66.85907 C72.58684,68.95653 75.16625,65.69082 75.16625,65.69082 z" stroke="#FFFFFF" stroke-width="0.05" fill="none" />
  <path d="M75.41303,46.70574 L74.72868,50.64096" stroke="#FFFFFF" stroke-width="0.05" fill="none" />
  <path d="M77.25214,58.0374 C80.0282,53.51861 74.81539,52.21155 74.81539,52.21155 C74.81539,52.21155 72.06248,55.71631 77.25214,58.0374 z" stroke="#FFFFFF" stroke-width="0.05" fill="none" />
  <path d="M62.25377,90.92588 L63.18297,91.08781" stroke="#FFFFFF" stroke-width="0.05" fill="none" />
  <path d="M71.58823,72.04103 L71.0176,72.40731" stroke="#FFFFFF" stroke-width="0.05" fill="none" />
  <path d="M54.44998,87.19749 C54.44998,87.19749 52.00551,85.80176 50.68689,89.16772 C53.80994,90.4902 54.44998,87.19749 54.44998,87.19749 z" stroke="#FFFFFF" stroke-width="0.05" fill="none" />
  <path d="M50.40928,54.10852 C50.01601,53.34896 49.88492,52.72049 49.9042,52.2077" stroke="#FFFFFF" stroke-width="0.05" fill="none" />
  <path d="M60.46861,38.00357 C61.07009,38.40841 62.11882,39.29906 62.55065,40.74492" stroke="#FFFFFF" stroke-width="0.05" fill="none" />
  <path d="M55.55654,84.99207 C55.08616,84.46385 54.92422,83.92021 54.91265,83.44212" stroke="#FFFFFF" stroke-width="0.05" fill="none" />
  <path d="M62.25377,90.92588 L61.7988,91.50423" stroke="#FFFFFF" stroke-width="0.05" fill="none" />
  <path d="M81.48948,72.33406 C77.84591,72.53069 77.96544,69.69681 77.96544,69.69681" stroke="#FFFFFF" stroke-width="0.05" fill="none" />
  <path d="M60.87345,87.46353 L60.73079,87.65631" stroke="#FFFFFF" stroke-width="0.05" fill="none" />
  <path d="M78.53992,84.56796 C78.53992,84.56796 80.40219,86.12949 79.05272,88.48141" stroke="#FFFFFF" stroke-width="0.05" fill="none" />
  <path d="M53.27016,62.36727 C53.27016,62.36727 49.50707,60.63609 47.12044,65.43635 C49.65744,66.26145 51.22282,65.37851 52.14046,64.35291 C52.29083,65.01994 52.78435,65.76022 54.04128,66.40025 C53.08123,67.23306 52.08648,68.51699 52.26383,70.22889 L51.35777,71.23521 C51.24595,71.07713 49.2526,71.98705 48.32339,73.7298 C47.84529,73.99583 46.87753,74.60502 46.15268,75.53808 C44.81477,75.46868 42.48212,75.96606 41.73027,79.98362 C43.47687,80.36147 44.65669,80.0376 45.45481,79.43612 L46.19509,80.8627 C47.5754,80.1764 48.35809,79.27419 48.7745,78.34112 C50.13554,77.7088 50.90666,76.86056 51.33849,75.97377 L51.57368,76.32848 C53.96417,75.14095 54.56565,73.30182 54.5695,71.77113 C57.47664,69.24184 55.64137,65.35538 55.64137,65.35538 L54.68903,65.9183 C55.5257,63.94807 54.04899,62.99188 53.18533,62.61788 z" stroke="#FFFFFF" stroke-width="0.05" fill="none" />
  <path d="M75.54796,39.54968 C75.70604,40.09718 75.9875,40.68323 76.43475,41.29628" stroke="#FFFFFF" stroke-width="0.05" fill="none" />
  <path d="M51.87442,52.17299 C51.80888,52.82074 51.43488,53.52632 50.40928,54.10852" stroke="#FFFFFF" stroke-width="0.05" fill="none" />
  <path d="M56.95613,64.82716 C58.25163,65.99927 59.42374,66.23831 60.39921,66.04939" stroke="#FFFFFF" stroke-width="0.05" fill="none" />
  <path d="M78.57077,80.77016 C78.57077,80.77016 81.18488,80.67377 81.97914,83.52694" stroke="#FFFFFF" stroke-width="0.05" fill="none" />
  <path d="M77.43336,48.83402 L77.64928,48.49858" stroke="#FFFFFF" stroke-width="0.05" fill="none" />
  <path d="M61.92604,57.00409 C61.88363,58.01041 61.37468,59.12854 59.96352,60.24667" stroke="#FFFFFF" stroke-width="0.05" fill="none" />
  <path d="M76.40391,80.49256 L76.38078,81.22898" stroke="#FFFFFF" stroke-width="0.05" fill="none" />
  <path d="M61.03539,37.07051 L60.46861,38.00357" stroke="#FFFFFF" stroke-width="0.05" fill="none" />
  <path d="M78.86379,75.98919 C78.86379,75.98919 76.06847,74.84021 75.72146,78.66885 C75.29734,78.97344 74.91563,79.52094 74.72671,80.47328 C74.03655,80.77788 73.41579,81.49888 73.26543,83.17607 C75.67519,83.85467 76.24583,82.26614 76.37691,81.25212 C77.71867,80.7933 77.78036,79.10454 77.77265,78.61873 L78.29317,78.17533 C78.65945,78.93874 79.5154,79.80241 81.58201,79.69059 C81.40466,77.31167 79.77758,76.96466 78.79825,76.97623 z" stroke="#FFFFFF" stroke-width="0.05" fill="none" />
  <path d="M57.3417,52.7552 L56.91758,52.58169" stroke="#FFFFFF" stroke-width="0.05" fill="none" />
  <path d="M46.42257,43.46314 C46.42257,43.46314 45.11551,44.01449 45.06924,45.50276" stroke="#FFFFFF" stroke-width="0.05" fill="none" />
  <path d="M56.66061,39.79476 L56.90218,41.06882" stroke="#FFFFFF" stroke-width="0.05" fill="none" />
  <path d="M76.37691,81.25212 C76.24583,82.26614 75.67519,83.85467 73.26543,83.17607" stroke="#FFFFFF" stroke-width="0.05" fill="none" />
  <path d="M57.65015,52.85929 L57.7851,51.53682" stroke="#FFFFFF" stroke-width="0.05" fill="none" />
  <path d="M60.10618,89.23711 C60.10618,89.23711 57.41881,87.74499 59.02661,85.41234" stroke="#FFFFFF" stroke-width="0.05" fill="none" />
  <path d="M50.92208,93.98724 L51.54284,93.66723" stroke="#FFFFFF" stroke-width="0.05" fill="none" />
  <path d="M64.78305,53.49933 L64.73679,53.73452" stroke="#FFFFFF" stroke-width="0.05" fill="none" />
  <path d="M61.33227,87.39027 L61.78723,87.84909" stroke="#FFFFFF" stroke-width="0.05" fill="none" />
  <path d="M60.3568,88.35033 L60.2951,88.53154" stroke="#FFFFFF" stroke-width="0.05" fill="none" />
  <path d="M63.39117,90.84491 L63.22153,91.09938" stroke="#FFFFFF" stroke-width="0.05" fill="none" />
  <path d="M64.85631,90.69069 L63.63408,90.99142" stroke="#FFFFFF" stroke-width="0.05" fill="none" />
  <path d="M54.88181,38.0884 L55.98066,36.97026" stroke="#FFFFFF" stroke-width="0.05" fill="none" />
  <path d="M67.55139,61.31854 C68.93171,60.84044 70.84024,60.86357 72.00079,63.74758" stroke="#FFFFFF" stroke-width="0.05" fill="none" />
  <path d="M72.39791,75.26434 C72.58298,73.51003 71.58823,72.04103 71.58823,72.04103" stroke="#FFFFFF" stroke-width="0.05" fill="none" />
  <path d="M64.55943,33.28043 L65.57346,33.43466" stroke="#FFFFFF" stroke-width="0.05" fill="none" />
  <path d="M71.19496,71.93693 L71.33762,71.11568" stroke="#FFFFFF" stroke-width="0.05" fill="none" />
  <path d="M52.01708,85.25426 C53.03882,83.51151 54.12225,83.27247 54.91265,83.4344" stroke="#FFFFFF" stroke-width="0.05" fill="none" />
  <path d="M55.30593,72.68106 C58.5408,74.59345 56.65154,76.83357 56.65154,76.83357" stroke="#FFFFFF" stroke-width="0.05" fill="none" />
  <path d="M59.79002,53.49933 C60.00208,54.60975 59.27722,55.4657 59.27722,55.4657" stroke="#FFFFFF" stroke-width="0.05" fill="none" />
  <path d="M75.05058,76.89912 C73.82835,76.44801 72.98011,75.87352 72.39791,75.26434" stroke="#FFFFFF" stroke-width="0.05" fill="none" />
  <path d="M65.17247,59.70689 C65.16476,59.2018 65.33441,58.60803 65.78938,57.91788" stroke="#FFFFFF" stroke-width="0.05" fill="none" />
  <path d="M66.81111,69.3151 L66.50266,69.71994" stroke="#FFFFFF" stroke-width="0.05" fill="none" />
  <path d="M70.98289,58.78539 C70.6089,55.49269 73.1806,55.40015 73.1806,55.40015" stroke="#FFFFFF" stroke-width="0.05" fill="none" />
  <path d="M74.09439,64.32593 C70.00742,61.24913 74.91178,58.81623 74.91178,58.81623" stroke="#FFFFFF" stroke-width="0.05" fill="none" />
  <path d="M58.24392,39.72704 C57.68099,39.89668 57.03325,39.92753 56.30453,39.7039" stroke="#FFFFFF" stroke-width="0.05" fill="none" />
  <path d="M65.36911,62.92633 C65.36911,62.92633 67.94466,64.42232 67.76345,66.93618" stroke="#FFFFFF" stroke-width="0.05" fill="none" />
  <path d="M77.66855,65.37851 L78.87922,66.84365" stroke="#FFFFFF" stroke-width="0.05" fill="none" />
  <path d="M70.58962,72.2955 L71.18339,71.93693" stroke="#FFFFFF" stroke-width="0.05" fill="none" />
  <path d="M70.26575,52.65495 C70.26575,52.65495 73.53146,51.86454 73.78979,55.29219" stroke="#FFFFFF" stroke-width="0.05" fill="none" />
  <path d="M71.98536,33.82793 C72.59455,33.66599 73.12277,33.66599 73.5893,33.75853" stroke="#FFFFFF" stroke-width="0.05" fill="none" />
  <path d="M64.22013,84.07058 C64.45147,87.18207 62.60077,87.74885 61.78723,87.84909" stroke="#FFFFFF" stroke-width="0.05" fill="none" />
  <path d="M48.43906,39.63065 C50.25891,36.40734 53.60945,37.51005 54.8741,38.08068" stroke="#FFFFFF" stroke-width="0.05" fill="none" />
  <path d="M84.77447,73.02036 C84.77447,73.02036 86.22418,75.22963 83.98407,76.52512" stroke="#FFFFFF" stroke-width="0.05" fill="none" />
  <path d="M73.78979,55.29219 C70.15009,55.48883 70.26575,52.65495 70.26575,52.65495" stroke="#FFFFFF" stroke-width="0.05" fill="none" />
  <path d="M62.55065,40.74492 C62.8244,41.66642 62.84753,42.81154 62.3463,44.20342" stroke="#FFFFFF" stroke-width="0.05" fill="none" />
  <path d="M77.27142,70.81109 C73.43507,67.07113 76.23041,64.01747 76.23041,64.01747" stroke="#FFFFFF" stroke-width="0.05" fill="none" />
  <path d="M77.03623,36.17601 L76.10317,35.93696" stroke="#FFFFFF" stroke-width="0.05" fill="none" />
  <path d="M76.40391,80.49256 C76.40391,80.49256 75.55181,80.1417 74.72671,80.47713" stroke="#FFFFFF" stroke-width="0.05" fill="none" />
  <path d="M50.08927,98.14747 C50.08927,98.14747 49.23717,96.798 49.669,95.47166" stroke="#FFFFFF" stroke-width="0.05" fill="none" />
  <path d="M51.39247,50.36085 L51.26138,50.16807" stroke="#FFFFFF" stroke-width="0.05" fill="none" />
  <path d="M54.44998,87.19749 C54.44998,87.19749 53.80994,90.4902 50.68689,89.16772" stroke="#FFFFFF" stroke-width="0.05" fill="none" />
  <path d="M72.20128,51.71803 L71.76559,52.57398" stroke="#FFFFFF" stroke-width="0.05" fill="none" />
  <path d="M60.7038,53.93116 C61.96459,52.33107 63.69577,52.42361 64.47075,52.56627" stroke="#FFFFFF" stroke-width="0.05" fill="none" />
  <path d="M70.58962,72.2955 C69.98429,72.17212 69.04352,72.11043 68.0372,72.53455" stroke="#FFFFFF" stroke-width="0.05" fill="none" />
  <path d="M72.39791,75.26434 C72.27839,76.40559 71.66534,77.66253 69.96116,78.71897" stroke="#FFFFFF" stroke-width="0.05" fill="none" />
  <path d="M69.41366,47.17996 C69.41366,47.17996 67.26994,49.97143 70.71686,52.0419" stroke="#FFFFFF" stroke-width="0.05" fill="none" />
  <path d="M64.39364,40.92228 C64.10061,41.60087 63.88855,42.48766 63.79987,43.63664" stroke="#FFFFFF" stroke-width="0.05" fill="none" />
  <path d="M68.41505,40.09718 L69.0358,40.68323" stroke="#FFFFFF" stroke-width="0.05" fill="none" />
  <path d="M83.98407,76.52512 C82.12951,74.44694 84.77447,73.02036 84.77447,73.02036" stroke="#FFFFFF" stroke-width="0.05" fill="none" />
  <path d="M70.37756,34.64147 L71.98536,33.82793" stroke="#FFFFFF" stroke-width="0.05" fill="none" />
  <path d="M73.26543,83.17607 C73.41579,81.49888 74.03655,80.77788 74.6843,80.49256" stroke="#FFFFFF" stroke-width="0.05" fill="none" />
  <path d="M71.92753,71.27376 L71.33762,71.11568" stroke="#FFFFFF" stroke-width="0.05" fill="none" />
  <path d="M80.22869,38.94434 L80.22483,38.72843" stroke="#FFFFFF" stroke-width="0.05" fill="none" />
  <path d="M85.56487,41.73967 L85.73837,42.85395" stroke="#FFFFFF" stroke-width="0.05" fill="none" />
  <path d="M64.83704,47.41901 C64.83704,47.41901 62.68945,49.48948 64.29724,52.2771" stroke="#FFFFFF" stroke-width="0.05" fill="none" />
  <path d="M78.37028,38.366 C78.9062,38.35829 79.64263,38.45468 80.22869,38.94434" stroke="#FFFFFF" stroke-width="0.05" fill="none" />
  <path d="M79.05272,88.48141 C77.26757,86.30299 78.53992,84.56796 78.53992,84.56796" stroke="#FFFFFF" stroke-width="0.05" fill="none" />
  <path d="M69.04352,35.89069 C70.38528,37.22088 71.59594,37.5409 72.61383,37.39053" stroke="#FFFFFF" stroke-width="0.05" fill="none" />
  <path d="M56.84432,90.67912 C56.84432,90.67912 53.55547,89.4646 55.50256,86.52661 C58.73743,88.439 56.84432,90.67912 56.84432,90.67912 z" stroke="#FFFFFF" stroke-width="0.05" fill="none" />
  <path d="M64.70209,53.8926 L64.55943,54.39383" stroke="#FFFFFF" stroke-width="0.05" fill="none" />
  <path d="M59.27722,55.4657 L58.5755,55.09556" stroke="#FFFFFF" stroke-width="0.05" fill="none" />
  <path d="M57.93546,51.30933 C59.16926,52.0419 59.65893,52.82074 59.79002,53.49933" stroke="#FFFFFF" stroke-width="0.05" fill="none" />
  <path d="M59.68206,62.4945 C59.68592,63.39672 59.13071,64.05218 59.13071,64.05218" stroke="#FFFFFF" stroke-width="0.05" fill="none" />
  <path d="M57.98944,63.34274 L57.35326,62.49836" stroke="#FFFFFF" stroke-width="0.05" fill="none" />
  <path d="M59.13071,64.05218 C59.13071,64.05218 58.52538,63.82855 57.98944,63.34274" stroke="#FFFFFF" stroke-width="0.05" fill="none" />
  <path d="M72.67166,70.30214 L72.54828,70.49107 L72.39021,70.71469" stroke="#FFFFFF" stroke-width="0.05" fill="none" />
  <path d="M61.00069,90.87576 L60.85803,90.72539" stroke="#FFFFFF" stroke-width="0.05" fill="none" />
  <path d="M61.57903,35.35476 L61.22431,36.02949" stroke="#FFFFFF" stroke-width="0.05" fill="none" />
  <path d="M88.2561,57.65955 C89.14675,57.60942 90.39983,57.90245 90.83551,59.78785" stroke="#FFFFFF" stroke-width="0.05" fill="none" />
  <path d="M52.27155,90.74081 C55.50642,92.6532 53.61331,94.89332 53.61331,94.89332" stroke="#FFFFFF" stroke-width="0.05" fill="none" />
  <path d="M65.45233,32.90227 L64.58234,32.98412" stroke="#FFFFFF" stroke-width="0.05" fill="none" />
  <path d="M67.77888,93.03105 C66.75328,93.32408 65.97059,93.32022 65.37296,93.15443 C63.73433,92.70718 63.49142,91.05312 63.49142,91.05312" stroke="#FFFFFF" stroke-width="0.05" fill="none" />
  <path d="M78.35871,38.36986 C78.50908,38.93278 78.55149,39.57281 78.39341,40.27839" stroke="#FFFFFF" stroke-width="0.05" fill="none" />
  <path d="M77.39481,42.39513 L76.43475,41.29628" stroke="#FFFFFF" stroke-width="0.05" fill="none" />
  <path d="M75.77544,36.52687 L76.10317,35.93696" stroke="#FFFFFF" stroke-width="0.05" fill="none" />
  <path d="M55.63751,76.23209 L54.91265,75.34916" stroke="#FFFFFF" stroke-width="0.05" fill="none" />
  <path d="M69.05508,69.14931 C70.70144,68.63651 72.0162,69.41535 72.55214,69.82019" stroke="#FFFFFF" stroke-width="0.05" fill="none" />
  <path d="M64.84474,53.07521 L64.8139,53.30655 L64.78305,53.49933" stroke="#FFFFFF" stroke-width="0.05" fill="none" />
  <path d="M77.64928,48.49858 L78.55534,48.83402" stroke="#FFFFFF" stroke-width="0.05" fill="none" />
  <path d="M65.86649,62.23618 L66.54507,61.78121" stroke="#FFFFFF" stroke-width="0.05" fill="none" />
  <path d="M74.7537,41.14205 C71.49184,42.89251 69.77223,41.48135 69.05508,40.54443" stroke="#FFFFFF" stroke-width="0.05" fill="none" />
  <path d="M75.83327,87.22063 C74.93491,84.58338 77.92688,84.30192 77.92688,84.30192" stroke="#FFFFFF" stroke-width="0.05" fill="none" />
  <path d="M63.98494,60.4356 C62.8938,58.80853 62.67788,57.56316 62.8591,56.62624" stroke="#FFFFFF" stroke-width="0.05" fill="none" />
  <path d="M74.91178,58.81623 C74.91178,58.81623 78.22376,62.12436 74.09439,64.32593" stroke="#FFFFFF" stroke-width="0.05" fill="none" />
  <path d="M51.35777,71.23521 L52.25613,70.22889" stroke="#FFFFFF" stroke-width="0.05" fill="none" />
  <path d="M64.83704,47.41901 C64.83704,47.41901 68.07576,49.30055 67.02703,52.38891" stroke="#FFFFFF" stroke-width="0.05" fill="none" />
  <path d="M53.61716,43.07758 C53.03497,43.36289 52.25227,43.48627 51.18041,43.34361" stroke="#FFFFFF" stroke-width="0.05" fill="none" />
  <path d="M51.42331,41.21917 C52.20986,38.58192 54.65047,39.03688 55.00519,39.11399" stroke="#FFFFFF" stroke-width="0.05" fill="none" />
  <path d="M69.05508,40.54443 L68.6541,39.87741" stroke="#FFFFFF" stroke-width="0.05" fill="none" />
  <path d="M59.41217,84.92653 L59.86713,85.34293 C60.64211,86.11021 60.90044,86.81964 60.91201,87.41726" stroke="#FFFFFF" stroke-width="0.05" fill="none" />
  <path d="M55.64137,65.35538 C55.64137,65.35538 57.47664,69.24184 54.55794,71.75957" stroke="#FFFFFF" stroke-width="0.05" fill="none" />
  <path d="M60.91201,87.41726 L61.10093,87.19363" stroke="#FFFFFF" stroke-width="0.05" fill="none" />
  <path d="M60.85803,90.72539 L60.45319,90.13548" stroke="#FFFFFF" stroke-width="0.05" fill="none" />
  <path d="M60.20257,89.14844 L60.24113,88.75517" stroke="#FFFFFF" stroke-width="0.05" fill="none" />
  <path d="M62.70873,92.76116 C62.68174,92.29077 62.82054,91.73557 63.22153,91.09938" stroke="#FFFFFF" stroke-width="0.05" fill="none" />
  <path d="M60.73079,87.65631 L60.87345,87.46353 L61.33227,87.39027" stroke="#FFFFFF" stroke-width="0.05" fill="none" />
  <path d="M63.43359,63.75529 C63.43359,63.75529 62.26533,65.68311 60.39921,66.04939" stroke="#FFFFFF" stroke-width="0.05" fill="none" />
  <path d="M62.41183,44.01392 L64.31718,44.39272" stroke="#FFFFFF" stroke-width="0.05" fill="none" />
  <path d="M64.47075,52.56627 L64.87173,52.66266" stroke="#FFFFFF" stroke-width="0.05" fill="none" />
  <path d="M58.65647,60.52042 L57.78895,59.89967" stroke="#FFFFFF" stroke-width="0.05" fill="none" />
</svg>