<?xml version="1.0" encoding="utf-8" standalone="no"?>
<!DOCTYPE svg PUBLIC "-//W3C//DTD SVG 1.1//EN" "http://www.w3.org/Graphics/SVG/1.1/DTD/svg11.dtd">
<svg version="1.1" width="120pt" height="120pt" viewBox="0 0 120 120" overflow="visible" xmlns="http://www.w3.org/2000/svg">
  <path d="M71.66093,76.05391 L71.51716,76.58871 L70.62457,79.82755 L70.26753,80.87316 L68.58435,83.06639 L67.25822,85.13211 L65.95758,87.14682 L65.2435,88.47296 L65.06498,89.26354 L65.11315,90.84471 L65.23713,91.42915 L65.41423,91.8719 L65.64446,92.49176 L65.2796,92.52523 L64.01228,93.14777 L62.54485,93.83702 L61.87219,94.01483 L61.55341,93.97942 L61.03981,94.90034 L60.26056,96.26403 L59.56986,97.46832 L59.23337,97.78711 L59.12711,98.37154 L57.76458,98.15038 L56.87523,97.81686 L55.85248,97.32772 L55.06793,96.72662 L55.06793,96.16556 L55.55248,95.40048 L56.34307,93.97233 L58.84233,88.69328 L60.01545,86.57655 L60.09196,85.55644 L59.76043,82.72565 L59.88794,80.4304 L60.65302,77.93114 L60.90805,76.554 L61.31609,74.7178 L61.29058,73.28966 L60.83154,71.14743 L59.86243,68.06161 L59.32688,64.74625 L59.14836,63.64964 L58.43428,62.2725 L57.94973,61.55842 L57.82222,60.20678 L57.92423,57.70752 L58.39826,54.70891 L58.4751,55.51573 L58.78246,56.16887 L59.12824,56.82201 L59.66612,57.66724 L60.62662,58.43565 L61.97132,59.28088 L63.96915,59.97244 L65.77489,60.664 L67.81115,61.27872 L68.61797,61.31714 L70.04143,64.27813 L71.75326,68.82106 L72.39605,71.462 L70.381,72.35812 z" stroke="Black" stroke-width="0" fill="#5A5A5A" fill-opacity="1" />
  <path d="M74.27237,51.21511 L74.32525,54.75822 L74.4839,56.55622 L73.5849,57.93117 L73.37337,59.25323 L73.55993,60.25212 L73.22329,60.74177 L72.61365,61.00978 L71.9605,61.20188 L71.53789,60.04928 L71.34579,58.3588 L71.23053,57.89777 L69.57847,58.32038 L68.42587,58.62774 L67.61905,58.58932 L68.23377,60.16454 L68.61797,61.31714 L67.81115,61.27872 L65.77489,60.664 L63.96915,59.97244 L61.97132,59.28088 L60.62662,58.43565 L59.66612,57.66724 L59.12824,56.82201 L58.78246,56.16887 L58.4751,55.51573 L58.39826,54.70891 L57.93722,54.43997 L57.82196,53.28737 L57.59144,51.28953 L57.5146,50.36745 L56.58038,50.26923 L55.99594,49.45456 L55.64174,49.01181 L55.46464,47.04598 L55.25212,46.08963 L55.50006,44.44258 L55.51777,42.42361 L55.0396,41.32558 L54.98647,38.82845 L55.16357,36.38444 L55.18128,34.98533 L55.88968,33.74562 L56.9523,32.41735 L57.37734,31.83292 L57.78468,31.26619 L59.07752,31.07138 L59.98074,31.19535 L60.47662,31.6204 L60.88396,31.92147 L59.97132,31.89513 L59.13889,32.27934 L58.85074,33.14378 L59.36301,34.10428 L60.73973,35.22486 L61.86031,35.76915 L63.46114,36.02528 L64.90189,35.99326 L66.31062,35.8652 L66.75885,35.76915 L67.07902,35.481 L66.86444,34.82215 L67.09224,34.93951 L67.7298,35.21579 L68.1336,36.17214 L69.53625,37.51103 L70.87514,38.82867 L72.42149,40.39538 L73.56374,41.60109 L73.75412,42.67989 L73.75412,44.39328 L74.11372,47.35469 z" stroke="Black" stroke-width="0" fill="#6970D4" fill-opacity="1" />
  <path d="M65.99866,97.14954 L65.0246,98.03505 L64.24535,99.07995 L63.48382,99.55813 L62.08471,99.87691 L61.44714,99.75294 L60.845,99.3456 L60.56163,98.83201 L60.72103,96.75992 L61.11065,95.53791 L61.41172,95.21913 L61.8556,95.05988 L62.25581,95.28222 L62.96729,95.72689 L63.94558,95.72689 L64.96833,95.01541 L65.70204,94.37063 L65.87991,93.65915 L65.83545,93.21448 L65.64446,92.49176 L66.38829,92.47404 L67.48632,92.2261 L68.23015,92.0313 L69.11566,92.31466 L69.64697,92.88139 L69.89491,93.50124 L69.96575,94.28049 L68.81458,96.12234 L67.85824,96.40571 L66.77792,96.84846 z" stroke="Black" stroke-width="0" fill="#DD9B9B" fill-opacity="1" />
  <path d="M60.39799,102.9238 L60.85704,103.6889 L61.95366,104.1989 L62.3872,104.658 L62.64223,105.525 L62.20868,106.4431 L61.36709,106.9532 L60.04095,106.9787 L58.15376,106.5707 L55.96053,105.168 L52.44115,102.2097 L51.54856,101.3426 L50.85999,100.348 L50.60496,99.88895 L52.41565,97.87424 L53.99682,97.05815 L54.7619,96.87964 L54.89643,97.99474 L55.0743,99.03973 L55.38557,99.351 L56.34163,99.86237 L56.89747,99.95131 L57.40884,99.5511 L58.25373,99.21759 L59.1094,98.83201 L59.60741,99.22588 L59.98995,99.45541 L60.09196,101.1386 L60.14296,102.2352 z" stroke="Black" stroke-width="0" fill="#DD9B9B" fill-opacity="1" />
  <path d="M72.78789,78.26344 L72.16199,77.50074 L70.381,72.35812 L72.39605,71.462 L72.69807,71.46976 L72.94602,71.80625 L73.33565,71.82396 L73.92008,72.51466 L74.27428,73.13451 L74.62849,73.32932 L74.96498,73.13451 L75.14208,73.32932 L75.58484,73.59498 L75.90363,73.4533 L75.85049,73.02825 L76.39951,73.20535 L76.65085,73.01366 L75.94698,71.5141 L75.57974,70.19817 L79.34254,68.43024 L80.10969,69.08553 L81.89069,74.22816 z" stroke="Black" stroke-width="0" fill="#FDF5E6" fill-opacity="1" />
  <path d="M73.22329,60.74177 L73.25389,62.36374 L73.16209,63.9551 L73.16209,64.96501 L71.9605,61.20188 L72.61365,61.00978 z" stroke="Black" stroke-width="0" fill="#8B75BD" fill-opacity="1" />
  <path d="M61.92795,30.79532 L61.26913,30.66781 L60.87021,30.2449 L60.50349,29.63845 L60.24647,28.87018 L59.99464,28.75678 L59.43683,28.6353 L58.56065,28.11078 L57.77639,27.11599 L57.55536,25.37335 L57.90298,23.90474 L58.69771,21.66358 L60.73056,20.28316 L62.70659,20.55803 L63.67168,21.01838 L65.83836,20.74302 L67.60229,21.23182 L68.73567,21.77655 L68.05164,23.63057 L67.14434,24.48779 L66.90665,25.33472 L66.87463,26.16716 L66.77858,26.67942 L65.91413,27.35177 L65.62585,28.1995 L65.76633,29.39784 L65.22205,29.46187 L64.54971,29.30179 L63.52517,29.07767 L62.94888,29.10969 L62.88484,29.78204 L63.04492,30.35834 L63.23702,30.77455 L62.21249,30.8706 z" stroke="Black" stroke-width="0" fill="#483933" fill-opacity="1" />
  <path d="M66.86444,34.82215 L67.07902,35.481 L66.75885,35.76915 L66.31062,35.8652 L64.90189,35.99326 L63.46114,36.02528 L61.86031,35.76915 L60.73973,35.22486 L59.36301,34.10428 L58.85074,33.14378 L59.13889,32.27934 L59.97132,31.89513 L60.88396,31.92147 L61.25587,32.04544 L61.57466,31.99231 L61.76947,31.56726 L61.96428,30.96512 L62.21249,30.8706 L63.23702,30.77455 L63.04492,30.35834 L62.88484,29.78204 L62.94888,29.10969 L63.52517,29.07767 L64.54971,29.30179 L65.22205,29.46187 L65.76633,29.39784 L65.62585,28.1995 L65.91413,27.35177 L66.77858,26.67942 L66.87463,26.16716 L66.90665,25.33472 L67.14434,24.48779 L68.05164,23.63057 L68.89277,21.84488 L69.61275,22.15804 L69.9008,22.44026 L70.44027,23.33934 L70.62317,24.69772 L70.35085,25.72946 L70.25311,26.61673 L70.68897,27.22206 L71.056,27.94 L71.12822,28.33028 L70.89639,28.60634 L70.42884,28.79761 L70.32258,29.13765 L70.30133,29.43518 L70.0463,29.56269 L70.02505,29.90273 L70.15257,30.15776 L69.89754,30.56155 L69.83378,31.26287 L69.36623,31.5179 L68.34612,32.0067 L66.83721,31.87919 L66.58218,32.28298 L66.24215,33.45185 L66.39091,34.57822 z" stroke="Black" stroke-width="0" fill="#BD7C54" fill-opacity="1" />
  <path d="M71.9605,61.20188 L73.16209,64.96501 L73.89656,66.25035 L74.53923,67.16844 L75.2431,68.33137 L75.39612,69.09644 L75.57974,70.19817 L75.94698,71.5141 L76.65085,73.01366 L76.39951,73.20535 L75.85049,73.02825 L75.90363,73.4533 L75.58484,73.59498 L75.14208,73.32932 L74.96498,73.13451 L74.62849,73.32932 L74.27428,73.13451 L73.92008,72.51466 L73.33565,71.82396 L72.94602,71.80625 L72.69807,71.46976 L72.43243,71.61143 L71.75326,68.82106 L70.04143,64.27813 L68.61797,61.31714 L68.23377,60.16454 L67.61905,58.58932 L68.42587,58.62774 L69.57847,58.32038 L71.23053,57.89777 L71.34579,58.3588 L71.53789,60.04928 z" stroke="Black" stroke-width="0" fill="#BD7C54" fill-opacity="1" />
  <path d="M56.9523,55.9365 L56.81062,54.71449 L57.07627,53.89982 L57.32421,52.8195 L57.18253,51.86315 L56.70435,50.74741 L56.58038,50.26923 L57.5146,50.36745 L57.59144,51.28953 L57.82196,53.28737 L57.93722,54.43997 L58.39826,54.70891 L57.92423,57.70752 L57.87323,57.38873 L57.44818,56.99911 z" stroke="Black" stroke-width="0" fill="#BD7C54" fill-opacity="1" />
  <path d="M64.96833,95.01541 L63.94558,95.72689 L62.96729,95.72689 L62.25581,95.28222 L61.8556,95.05988 L61.41172,95.21913 L61.83677,94.63469 L61.87219,94.01483 L62.54485,93.83702 L64.01228,93.14777 L65.2796,92.52523 L65.64446,92.49176 L65.83545,93.21448 L65.87991,93.65915 L65.70204,94.37063 z" stroke="Black" stroke-width="0" fill="#BD7C54" fill-opacity="1" />
  <path d="M54.89643,97.99474 L54.7619,96.87964 L55.06793,96.72662 L55.85248,97.32772 L56.87523,97.81686 L57.76458,98.15038 L59.12711,98.37154 L59.1094,98.83201 L58.25373,99.21759 L57.40884,99.5511 L56.89747,99.95131 L56.34163,99.86237 L55.38557,99.351 L55.0743,99.03973 z" stroke="Black" stroke-width="0" fill="#BD7C54" fill-opacity="1" />
  <path d="M63.23705,30.77458 L63.76684,31.17332 L64.55428,30.98804 L64.70867,30.8182" stroke="#FFFFFF" stroke-width="0.24" fill="none" />
  <path d="M71.34469,41.13612 L71.12339,43.07247 L70.9021,46.77918 L70.40418,49.76668 L69.57432,52.47755 L70.18288,54.02663 L71.23055,57.89779" stroke="#FFFFFF" stroke-width="0.24" fill="none" />
  <path d="M57.51463,50.36748 L57.51368,47.66436 L57.40303,44.84283 L57.07108,42.24261 L56.68382,39.31043 L56.96043,37.76136" stroke="#FFFFFF" stroke-width="0.24" fill="none" />
  <path d="M61.55343,93.97944 L65.24352,88.47298" stroke="#FFFFFF" stroke-width="0.24" fill="none" />
  <path d="M75.80055,70.98936 L80.10971,69.08556" stroke="#FFFFFF" stroke-width="0.24" fill="none" />
  <path d="M67.61905,58.58932 L66.97407,58.00994 L66.5868,55.90762 L65.425,51.81364 L65.36967,48.88147 L65.2037,45.5067" stroke="#FFFFFF" stroke-width="0.24" fill="none" />
  <path d="M63.68964,29.7374 L63.81316,30.23148 L64.19916,30.4322 L64.30724,30.4322" stroke="#FFFFFF" stroke-width="0.24" fill="none" />
  <path d="M73.22331,60.74179 L72.61367,61.00981 L71.96053,61.2019 L71.53791,60.0493 L71.34581,58.35883 L71.23055,57.89779 L69.57849,58.32041 L68.4259,58.62777 L67.61907,58.58935 L68.2338,60.16457 L68.618,61.31717 L67.81117,61.27874 L65.77492,60.66402 L63.96918,59.97247 L61.97134,59.28091 L60.62664,58.43567 L59.66614,57.66727 L59.12826,56.82203 L58.78248,56.16889 L58.47512,55.51575 L58.39828,54.70893 L57.93724,54.43999 L57.82198,53.28739 L57.59146,51.28955 L57.51463,50.36748 L56.58041,50.26926" stroke="#FFFFFF" stroke-width="0.24" fill="none" />
  <path d="M71.00691,73.12084 L72.78791,78.26347" stroke="#FFFFFF" stroke-width="0.24" fill="none" />
  <path d="M60.91611,27.90102 L61.4861,27.06103 L62.0261,26.49103 L62.2961,25.02105 L62.86609,24.27105 L63.49609,23.37106 L63.67609,21.54108" stroke="#FFFFFF" stroke-width="0.24" fill="none" />
  <path d="M73.16211,64.96503 L71.96053,61.2019" stroke="#FFFFFF" stroke-width="0.24" fill="none" />
  <path d="M61.87221,94.01485 L65.64449,92.49178" stroke="#FFFFFF" stroke-width="0.24" fill="none" />
  <path d="M60.88398,31.92149 L59.97135,31.89516 L59.13892,32.27936 L58.85077,33.14381 L59.36303,34.10431 L60.73975,35.22489 L61.86033,35.76917 L63.46116,36.0253 L64.90191,35.99329 L66.31065,35.86522 L66.75888,35.76917 L67.07904,35.48102 L66.86446,34.82218" stroke="#FFFFFF" stroke-width="0.24" fill="none" />
  <path d="M55.06796,96.72665 L55.8525,97.32775 L56.87526,97.81689 L57.76461,98.1504 L59.12713,98.37157" stroke="#FFFFFF" stroke-width="0.24" fill="none" />
  <path d="M61.61518,63.98629 L62.55569,65.97795 L63.71749,67.30573 L64.32606,67.91429 L64.8793,75.16174 L64.16009,79.53235 L63.2749,81.57934 L60.01548,86.57658" stroke="#FFFFFF" stroke-width="0.24" fill="none" />
  <path d="M71.00691,73.12084 L73.49235,72.00915" stroke="#FFFFFF" stroke-width="0.24" fill="none" />
  <path d="M57.92426,57.70754 L58.39828,54.70893" stroke="#FFFFFF" stroke-width="0.24" fill="none" />
  <path d="M68.618,61.31717 L70.04145,64.27815 L71.75328,68.82108 L72.43245,71.61146" stroke="#FFFFFF" stroke-width="0.24" fill="none" />
  <path d="M70.38102,72.35814 L71.00691,73.12084" stroke="#FFFFFF" stroke-width="0.24" fill="none" />
  <path d="M68.89277,21.84488 L68.05164,23.63057 L67.14434,24.48779 L66.90665,25.33472 L66.87463,26.16716 L66.77858,26.67942 L65.91413,27.35177 L65.62585,28.1995 L65.76633,29.39784 L65.22205,29.46187 L64.54971,29.30179 L63.52517,29.07767 L62.94888,29.10969 L62.88484,29.78204 L63.04492,30.35834 L63.23702,30.77455 L62.21249,30.8706 L61.92795,30.79532" stroke="#FFFFFF" stroke-width="0.24" fill="none" />
  <path d="M61.41175,95.21915 L61.85563,95.0599 L62.25583,95.28223 L62.96731,95.72691 L63.9456,95.72691 L64.96835,95.01543 L65.70206,94.37065 L65.87994,93.65917 L65.83547,93.2145 L65.64449,92.49178" stroke="#FFFFFF" stroke-width="0.24" fill="none" />
  <path d="M54.76192,96.87966 L54.89645,97.99476 L55.07432,99.03975 L55.3856,99.35102 L56.34165,99.8624 L56.89749,99.95133 L57.40887,99.55112 L58.25375,99.21762 L59.10942,98.83203" stroke="#FFFFFF" stroke-width="0.24" fill="none" />
  <path d="M80.10971,69.08556 L81.89071,74.22818" stroke="#FFFFFF" stroke-width="0.48" fill="none" />
  <path d="M70.38102,72.35814 L72.16202,77.50076" stroke="#FFFFFF" stroke-width="0.48" fill="none" />
  <path d="M72.78791,78.26347 L81.89071,74.22818" stroke="#FFFFFF" stroke-width="0.48" fill="none" />
  <path d="M72.16202,77.50076 L72.78791,78.26347" stroke="#FFFFFF" stroke-width="0.48" fill="none" />
  <path d="M72.39607,71.46202 L70.38102,72.35814" stroke="#FFFFFF" stroke-width="0.48" fill="none" />
  <path d="M80.10971,69.08556 L79.34256,68.43027 L75.55618,70.05669" stroke="#FFFFFF" stroke-width="0.48" fill="none" />
  <path d="M63.6717,21.0184 L62.70662,20.55805 L60.73059,20.28318 L58.69773,21.6636 L57.903,23.90476 L57.55539,25.37337 L57.77641,27.11601 L58.56067,28.11081 L59.43686,28.63532 L59.99467,28.75681 L60.23177,28.70523" stroke="#FFFFFF" stroke-width="0.48" fill="none" />
  <path d="M71.66095,76.05393 L71.51719,76.58874 L70.6246,79.82758 L70.26756,80.87318 L68.58438,83.06641 L67.25824,85.13213 L65.9576,87.14684 L65.24352,88.47298 L65.06501,89.26357 L65.11318,90.84473 L65.23715,91.42917 L65.41425,91.87193 L65.59135,91.88963 L65.64449,92.49178 L66.38831,92.47408 L67.48634,92.22613 L68.23017,92.03132 L69.11568,92.31468 L69.64699,92.88141 L69.89493,93.50126 L69.96577,94.28051 L68.81461,96.12238 L67.85826,96.40574 L66.77794,96.84849 L65.99869,97.14957 L65.02463,98.03507 L64.24538,99.07997 L63.48384,99.55815 L62.08474,99.87693 L61.44717,99.75296 L60.84502,99.34563 L60.56166,98.83203 L60.72105,96.75994 L61.11068,95.53793 L61.41175,95.21915 L61.83679,94.63472 L61.87221,94.01485 L61.55343,93.97944 L61.03983,94.90037 L60.26059,96.26405 L59.56989,97.46835 L59.23339,97.78713 L59.12713,98.37157 L59.10942,98.83203 L59.60743,99.22591 L59.98997,99.45543 L60.09198,101.1386 L60.14299,102.2352 L60.39802,102.9238 L60.85706,103.6889 L61.95368,104.1989 L62.38723,104.658 L62.64225,105.5251 L62.20871,106.4432 L61.36712,106.9532 L60.04098,106.9787 L58.15378,106.5707 L55.96055,105.168 L52.44118,102.2097 L51.54858,101.3426 L50.86001,100.348 L50.60498,99.88898 L52.41568,97.87426 L53.99684,97.05818 L54.76192,96.87966 L55.06796,96.72665 L55.06796,96.16559 L55.55251,95.40051 L56.34309,93.97235 L58.84235,88.6933 L60.01548,86.57658 L60.09198,85.55647 L59.76045,82.72567 L59.88796,80.43043 L60.65304,77.93117 L60.90807,76.55402 L61.31611,74.71783 L61.29061,73.28968 L60.83156,71.14745 L59.86246,68.06163 L59.3269,64.74628 L59.14838,63.64967 L58.43431,62.27252 L57.94976,61.55844 L57.82225,60.2068 L57.92426,57.70754 L57.87325,57.38876 L57.4482,56.99913 L56.95232,55.93652 L56.81064,54.71452 L57.07629,53.89985 L57.32423,52.81952 L57.18255,51.86317 L56.70438,50.74743 L56.58041,50.26926 L55.99597,49.45459 L55.64177,49.01183 L55.46466,47.046 L55.25214,46.08965 L55.50008,44.4426 L55.5178,42.42364 L55.03962,41.32561 L54.98649,38.82847 L55.16359,36.38446 L55.1813,34.98536 L55.88971,33.74564 L56.95232,32.41738 L57.37737,31.83294 L57.7847,31.26622 L59.07755,31.0714 L59.98076,31.19538 L60.47665,31.62042 L60.88398,31.92149 L61.2559,32.04546 L61.57468,31.99233 L61.76949,31.56729 L61.96431,30.96514 L61.92797,30.79535 L61.26915,30.66783 L60.87024,30.24493 L60.50351,29.63847 L60.24649,28.8702 L60.23177,28.70523" stroke="#FFFFFF" stroke-width="0.48" fill="none" />
  <path d="M72.43245,71.61146 L72.6981,71.46978 L72.94604,71.80627 L73.33567,71.82398 L73.9201,72.51468 L74.27431,73.13454 L74.62851,73.32935 L74.965,73.13454 L75.14211,73.32935 L75.58486,73.595 L75.90365,73.45332 L75.85052,73.02827 L76.39954,73.20538 L76.65088,73.01368 L75.947,71.51412 L75.57977,70.19819 L75.39614,69.09647 L75.24313,68.33139 L74.53925,67.16846 L73.89658,66.25037 L73.16211,64.96503 L73.16211,63.95513 L73.25392,62.36376 L73.22331,60.74179 L73.55995,60.25214 L73.37339,59.25325 L73.58492,57.93119 L74.48392,56.55625 L74.32528,54.75825 L74.27239,51.21513 L74.11375,47.35472 L73.75415,44.39331 L73.75415,42.67992 L73.56377,41.60112 L72.42151,40.3954 L70.87516,38.82869 L69.53627,37.51105 L68.13362,36.17216 L67.72983,35.21581 L67.09226,34.93953 L66.39094,34.57825 L66.24217,33.45188 L66.58221,32.283 L66.83723,31.87921 L68.34615,32.00673 L69.36626,31.51792 L69.8338,31.2629 L69.89756,30.56157 L70.15259,30.15778 L70.02507,29.90275 L70.04633,29.56272 L70.30135,29.4352 L70.3226,29.13767 L70.42886,28.79764 L70.89642,28.60637 L71.12824,28.33031 L71.05602,27.94002 L70.689,27.22209 L70.25314,26.61676 L70.35087,25.72949 L70.62319,24.69774 L70.44029,23.33937 L69.90083,22.44029 L69.61278,22.15807 L68.7357,21.77657 L67.60232,21.23184 L65.83838,20.74304 L63.6717,21.0184" stroke="#FFFFFF" stroke-width="0.48" fill="none" />
</svg>