<?xml version="1.0" encoding="utf-8" standalone="no"?>
<!DOCTYPE svg PUBLIC "-//W3C//DTD SVG 1.1//EN" "http://www.w3.org/Graphics/SVG/1.1/DTD/svg11.dtd">
<svg version="1.1" width="120pt" height="120pt" viewBox="0 0 120 120" overflow="visible" xmlns="http://www.w3.org/2000/svg">
  <path d="M95.18829,46.59792 C95.38129,47.89782 95.48631,49.16933 95.40968,50.20812 C95.3444,51.10499 95.14005,51.83157 94.73702,52.25447 C93.15897,53.91198 93.70107,52.16932 91.77109,52.29704 L90.264,52.6433 L83.8979,55.07281 C83.15144,55.41339 83.02089,54.701 83.00102,53.70763 L82.97548,51.91388 C82.87897,50.26204 82.87897,45.25544 80.25363,43.5071 C77.62829,41.75593 75.53937,38.98584 68.19975,37.28575 C60.86298,35.58282 54.0087,31.45323 54.0087,31.45323 C54.0087,31.45323 45.39473,25.98399 44.24526,27.34633 C43.09578,28.71151 42.16201,29.14008 42.16201,29.14008 L41.22256,29.04642 L40.47612,29.07197 C40.4676,29.02939 40.4676,27.054 44.41839,24.38041 C48.36918,21.70681 51.97087,19.73142 54.83746,21.24418 L55.80813,21.721 C60.34359,23.86953 74.55734,29.8695 77.14295,30.62731 C79.9613,31.45323 90.02275,36.41158 90.02275,36.41158 L91.37942,37.18073 C92.36995,37.81649 93.56768,38.78148 93.76351,39.81176 C93.948,40.78242 94.77108,43.75687 95.18829,46.59792 z" stroke="Black" stroke-width="0" fill="#DCDBE9" fill-opacity="1" />
  <path d="M42.16201,29.14008 C42.16201,29.14008 43.09578,28.71151 44.24526,27.34633 C45.39473,25.98399 54.0087,31.45323 54.0087,31.45323 C54.0087,31.45323 60.86298,35.58282 68.19975,37.28575 C75.53937,38.98584 77.62829,41.75593 80.25363,43.5071 C82.87897,45.25544 82.87897,50.26204 82.97548,51.91388 L83.00102,53.70763 L63.01434,65.08601 C63.01434,65.08601 53.58297,68.94598 52.36822,70.66026 C51.15347,72.37454 47.65111,73.79649 47.65111,73.79649 C47.65111,73.79649 44.17998,77.42655 40.4449,75.28938 C36.70697,73.15504 34.73442,71.12856 34.73442,71.12856 C34.73442,71.12856 33.13083,70.91286 31.584,69.47389 C30.03718,68.03208 27.47428,67.39064 26.51496,65.89774 C25.55281,64.40201 24.27277,64.50986 24.27277,64.50986 C24.27277,64.50986 21.33523,64.13522 20.6427,63.28091 C19.94734,62.42661 17.60014,61.57231 17.2255,61.25159 C16.96722,61.03021 15.77234,60.51934 15.21888,59.49191 C15.20753,59.49758 13.39675,59.36135 12.58219,58.2289 C11.77046,57.09929 9.59639,56.87223 9.550979,56.736 C9.51692,56.63667 7.828185,55.09552 7.984286,52.7767 C8.04105,51.91672 8.353253,50.94605 9.099703,49.90443 C11.85844,46.05865 16.24916,43.20909 16.24916,43.20909 L32.94351,33.97923 C32.94351,33.97923 37.88483,29.59136 40.47612,29.07197 L41.22256,29.04642 z" stroke="Black" stroke-width="0" fill="#DCDBE9" fill-opacity="1" />
  <path d="M78.29527,10.79389 C77.19121,11.66239 76.05876,12.31517 74.8951,13.9585 C73.29718,16.21771 71.80712,17.15432 70.3199,18.31231 C68.82983,19.4703 64.86202,21.1789 64.86202,21.1789 C64.86202,21.1789 63.53941,22.44758 65.30478,23.16281 C67.06731,23.87804 71.20258,25.58948 72.30381,26.4154 L77.14295,30.62731 C74.55734,29.8695 60.34359,23.86953 55.80813,21.721 L73.26312,11.56305 C73.26312,11.56305 75.20162,10.32559 78.28107,10.77686 z" stroke="Black" stroke-width="0" fill="#B0AFC8" fill-opacity="1" />
  <path d="M111.3718,32.69352 L111.4115,33.9395 C111.0312,37.20344 110.2053,37.82785 110.0548,37.91583 L95.18829,46.59792 C94.77108,43.75687 93.948,40.78242 93.76351,39.81176 C93.56768,38.78148 92.36995,37.81649 91.37942,37.18073 C91.38793,37.16654 95.10315,32.93477 96.70107,32.67649 C98.30181,32.42105 101.0861,29.53176 101.3444,28.80801 C101.6027,28.08711 102.6329,27.93385 104.4891,26.54028 L104.7928,26.30187 L107.5061,27.9679 C107.5061,27.9679 110.8495,29.80139 111.3718,32.69352 z" stroke="Black" stroke-width="0" fill="#B0AFC8" fill-opacity="1" />
  <path d="M106.0388,23.29053 C106.1353,24.11645 106.3254,25.03319 104.7928,26.30187 L104.4891,26.54028 C102.6329,27.93385 101.6027,28.08711 101.3444,28.80801 C101.0861,29.53176 98.30181,32.42105 96.70107,32.67649 C95.10315,32.93477 91.38793,37.16654 91.38793,37.16654 L90.02275,36.41158 C90.02275,36.41158 79.9613,31.45323 77.14295,30.62731 L72.30381,26.4154 C71.20258,25.58948 67.06731,23.87804 65.30478,23.16281 C63.53941,22.44758 64.86202,21.1789 64.86202,21.1789 C64.86202,21.1789 68.82983,19.4703 70.3199,18.31231 C71.80712,17.15432 73.29718,16.21771 74.8951,13.9585 C76.05876,12.31517 77.19121,11.66239 78.29527,10.79389 L79.52422,9.658609 C81.01144,8.003933 83.21673,9.933915 84.26402,10.98122 C85.31133,12.02851 85.80801,12.68982 87.90261,13.35112 C89.99721,14.01242 93.24979,16.49302 93.24979,16.49302 C93.24979,16.49302 95.92907,19.11269 98.81553,19.73142 C101.7048,20.35015 105.9338,22.41353 106.0388,23.29053 z" stroke="Black" stroke-width="0" fill="#B0AFC8" fill-opacity="1" />
  <path d="M43.44772,80.05474 L43.44772,87.06796 L2.021207,63.39728 L2.021207,56.23648 z" stroke="Black" stroke-width="0" fill="#CEBC9B" fill-opacity="1" />
  <path d="M91.77109,52.29704 L43.44772,80.05474 L2.021207,56.23648 L7.882111,52.77102 C7.828185,55.09552 9.51692,56.63667 9.550979,56.736 C9.59639,56.87223 11.77046,57.09929 12.58219,58.2289 C13.39675,59.36135 15.20753,59.49758 15.20753,59.49758 C15.77234,60.51934 16.96722,61.03021 17.2255,61.25159 C17.60014,61.57231 19.94734,62.42661 20.6427,63.28091 C21.33523,64.13522 24.27277,64.50986 24.27277,64.50986 C24.27277,64.50986 25.55281,64.40201 26.51496,65.89774 C27.47428,67.39064 30.03718,68.03208 31.584,69.47389 C33.13083,70.91286 34.73442,71.12856 34.73442,71.12856 C34.73442,71.12856 36.70697,73.15504 40.4449,75.28938 C44.17998,77.42655 47.65111,73.79649 47.65111,73.79649 C47.65111,73.79649 51.15347,72.37454 52.36822,70.66026 C53.58297,68.94598 63.01434,65.08601 63.01434,65.08601 L83.00102,53.70763 C83.02089,54.701 83.15144,55.41339 83.8979,55.07281 L90.264,52.6433 z" stroke="Black" stroke-width="0" fill="#DFCCA8" fill-opacity="1" />
  <path d="M110.0548,37.91583 C110.2053,37.82785 111.0312,37.20344 111.4115,33.9395 L111.3718,32.69352 L118.5553,36.82312 L95.40968,50.20812 C95.48631,49.16933 95.38129,47.89782 95.18829,46.59792 z" stroke="Black" stroke-width="0" fill="#DFCCA8" fill-opacity="1" />
  <path d="M118.6348,36.86569 L118.6348,43.99244 L43.44772,87.06796 L43.44772,80.05474 L91.77109,52.29704 C93.70107,52.16932 93.15897,53.91198 94.73702,52.25447 C95.14005,51.83157 95.3444,51.10499 95.40968,50.20812 z" stroke="Black" stroke-width="0" fill="#D3C19F" fill-opacity="1" />
  <path d="M40.4676,29.02939 C40.4676,29.02939 40.4676,27.054 44.41839,24.38041 C48.36918,21.70681 51.97087,19.73142 54.83746,21.24418 L55.80813,21.721 C60.34359,23.86953 74.55734,29.8695 77.14295,30.62731 L72.30381,26.4154 C71.20258,25.58948 67.06731,23.87804 65.30478,23.16281 C63.53941,22.44758 64.86202,21.1789 64.86202,21.1789 C64.86202,21.1789 68.82983,19.4703 70.3199,18.31231 C71.80712,17.15432 73.29718,16.21771 74.8951,13.9585 C76.05876,12.31517 77.19121,11.66239 78.29527,10.79389 L79.52422,9.658609 C81.01144,8.003933 83.21673,9.933915 84.26402,10.98122 C85.31133,12.02851 85.80801,12.68982 87.90261,13.35112 C89.99721,14.01242 93.24979,16.49302 93.24979,16.49302 C93.24979,16.49302 95.92907,19.11269 98.81553,19.73142 C101.7048,20.35015 105.9338,22.41353 106.0388,23.29053" stroke="#FFFFFF" stroke-width="0.05" fill="none" />
  <path d="M9.550979,56.736 C9.51692,56.63667 7.828185,55.09552 7.984286,52.7767" stroke="#FFFFFF" stroke-width="0.05" fill="none" />
  <path d="M104.7956,26.30471 L107.5061,27.9679 C107.5061,27.9679 110.8495,29.80139 111.3718,32.69352 L111.4115,33.9395 C111.0312,37.20344 110.2053,37.82785 110.0548,37.91583 L95.18829,46.59792 C95.38129,47.89782 95.48631,49.16933 95.40968,50.20812 L118.5922,36.8884 L95.40968,50.20812 C95.3444,51.10499 95.14005,51.83157 94.73702,52.25447 C93.15897,53.91198 93.70107,52.16932 91.77109,52.29704" stroke="#FFFFFF" stroke-width="0.05" fill="none" />
  <path d="M91.37942,37.18073 C92.36995,37.81649 93.56768,38.78148 93.76351,39.81176 C93.948,40.78242 94.77108,43.75687 95.18829,46.59792 L110.0605,37.92434 C110.2053,37.82785 111.0312,37.20344 111.4115,33.9395 L111.3718,32.69352 L118.5553,36.82312" stroke="#FFFFFF" stroke-width="0.05" fill="none" />
  <path d="M104.4891,26.54028 C102.6329,27.93385 101.6027,28.08711 101.3444,28.80801" stroke="#FFFFFF" stroke-width="0.05" fill="none" />
  <path d="M91.77109,52.29704 L90.264,52.6433 L83.8979,55.07281 C83.15144,55.41339 83.02089,54.701 83.00102,53.70763 L82.97548,51.91388 C82.87897,50.26204 82.87897,45.25544 80.25363,43.5071 C77.62829,41.75593 75.53937,38.98584 68.19975,37.28575 C60.86298,35.58282 54.0087,31.45323 54.0087,31.45323 C54.0087,31.45323 45.39473,25.98399 44.24526,27.34633 C45.39473,25.98399 54.0087,31.45323 54.0087,31.45323 C54.0087,31.45323 60.86298,35.58282 68.19975,37.28575 C75.53937,38.98584 77.62829,41.75593 80.25363,43.5071 C82.87897,45.25544 82.87897,50.26204 82.97548,51.91388 L83.00102,53.70763 L63.01434,65.08601 C63.01434,65.08601 53.58297,68.94598 52.36822,70.66026 C51.15347,72.37454 47.65111,73.79649 47.65111,73.79649 C47.65111,73.79649 44.17998,77.42655 40.4449,75.28938 C36.70697,73.15504 34.73442,71.12856 34.73442,71.12856 C34.73442,71.12856 33.13083,70.91286 31.584,69.47389 C30.03718,68.03208 27.47428,67.39064 26.51496,65.89774 C25.55281,64.40201 24.27277,64.50986 24.27277,64.50986 C24.27277,64.50986 21.33523,64.13522 20.6427,63.28091 C19.94734,62.42661 17.60014,61.57231 17.2255,61.25159 C16.96722,61.03021 15.77234,60.51934 15.21888,59.49191 C15.77234,60.51934 16.96722,61.03021 17.2255,61.25159 C17.60014,61.57231 19.94734,62.42661 20.6427,63.28091 C21.33523,64.13522 24.27277,64.50986 24.27277,64.50986 C24.27277,64.50986 25.55281,64.40201 26.51496,65.89774 C27.47428,67.39064 30.03718,68.03208 31.584,69.47389 C33.13083,70.91286 34.73442,71.12856 34.73442,71.12856 C34.73442,71.12856 36.70697,73.15504 40.4449,75.28938 C44.17998,77.42655 47.65111,73.79649 47.65111,73.79649 C47.65111,73.79649 51.15347,72.37454 52.36822,70.66026 C53.58297,68.94598 63.01434,65.08601 63.01434,65.08601 L83.00102,53.70763 C83.02089,54.701 83.15144,55.41339 83.8979,55.07281 L90.264,52.6433 L91.77109,52.29704 C93.70107,52.16932 93.15897,53.91198 94.73702,52.25447 C95.14005,51.83157 95.3444,51.10499 95.40968,50.20812 C95.48631,49.16933 95.38129,47.89782 95.18829,46.59792 C94.77108,43.75687 93.948,40.78242 93.76351,39.81176 C93.56768,38.78148 92.36995,37.81649 91.37942,37.18073 L90.02275,36.41158 C90.02275,36.41158 79.9613,31.45323 77.14295,30.62731 C79.9613,31.45323 90.02275,36.41158 90.02275,36.41158 L91.37942,37.18073 C92.36995,37.81649 93.56768,38.78148 93.76351,39.81176 C93.948,40.78242 94.77108,43.75687 95.18829,46.59792 C95.38129,47.89782 95.48631,49.16933 95.40968,50.20812 C95.3444,51.10499 95.14005,51.83157 94.73702,52.25447 C93.15897,53.91198 93.70107,52.16932 91.77109,52.29704 L43.44772,80.05474 L91.77109,52.29704 L90.264,52.6433 L83.8979,55.07281 C83.15144,55.41339 83.02089,54.701 83.00102,53.70763 L82.97548,51.91388 C82.87897,50.26204 82.87897,45.25544 80.25363,43.5071 C77.62829,41.75593 75.53937,38.98584 68.19975,37.28575 C60.86298,35.58282 54.0087,31.45323 54.0087,31.45323 C54.0087,31.45323 45.39473,25.98399 44.24526,27.34633 C43.09578,28.71151 42.16201,29.14008 42.16201,29.14008 C42.16201,29.14008 43.09578,28.71151 44.24526,27.34633 C43.09578,28.71151 42.16201,29.14008 42.16201,29.14008 L41.22256,29.04642 L40.47612,29.07197 C40.4676,29.02939 40.4676,27.054 44.41839,24.38041 C48.36918,21.70681 51.97087,19.73142 54.83746,21.24418 L55.80813,21.721 C60.34359,23.86953 74.55734,29.8695 77.14295,30.62731" stroke="#FFFFFF" stroke-width="0.05" fill="none" />
  <path d="M107.5061,27.9679 C107.5061,27.9679 110.8495,29.80139 111.3718,32.69352" stroke="#FFFFFF" stroke-width="0.05" fill="none" />
  <path d="M9.550979,56.736 C9.59639,56.87223 11.77046,57.09929 12.58219,58.2289" stroke="#FFFFFF" stroke-width="0.05" fill="none" />
  <path d="M96.70107,32.67649 C98.30181,32.42105 101.0861,29.53176 101.3444,28.80801" stroke="#FFFFFF" stroke-width="0.05" fill="none" />
  <path d="M106.0388,23.29053 C106.1353,24.11645 106.3254,25.03319 104.7928,26.30187" stroke="#FFFFFF" stroke-width="0.05" fill="none" />
  <path d="M101.3444,28.80801 C101.0861,29.53176 98.30181,32.42105 96.70107,32.67649" stroke="#FFFFFF" stroke-width="0.05" fill="none" />
  <path d="M111.3718,32.69352 L118.5553,36.82312 L118.6348,43.99244 L43.44772,87.06796 L118.6348,43.99244 L118.6348,36.86569 L95.40968,50.20812" stroke="#FFFFFF" stroke-width="0.05" fill="none" />
  <path d="M43.44772,87.06796 L2.021207,63.39728 L2.021207,56.23648 L7.882111,52.77102" stroke="#FFFFFF" stroke-width="0.05" fill="none" />
  <path d="M12.58219,58.2289 C11.77046,57.09929 9.59639,56.87223 9.550979,56.736" stroke="#FFFFFF" stroke-width="0.05" fill="none" />
  <path d="M104.7956,26.30471 L107.5061,27.9679" stroke="#FFFFFF" stroke-width="0.05" fill="none" />
  <path d="M95.18548,46.59794 L111.8543,36.87991" stroke="#FFFFFF" stroke-width="0.05" fill="none" />
  <path d="M55.80813,21.721 L73.26312,11.56305 C73.26312,11.56305 75.20162,10.32559 78.28107,10.77686 C75.20162,10.32559 73.26312,11.56305 73.26312,11.56305 L55.80813,21.721 C60.34359,23.86953 74.55734,29.8695 77.14295,30.62731 L72.30381,26.4154 C71.20258,25.58948 67.06731,23.87804 65.30478,23.16281 C63.53941,22.44758 64.86202,21.1789 64.86202,21.1789 C64.86202,21.1789 68.82983,19.4703 70.3199,18.31231 C71.80712,17.15432 73.29718,16.21771 74.8951,13.9585 C76.05876,12.31517 77.19121,11.66239 78.29527,10.79389" stroke="#FFFFFF" stroke-width="0.05" fill="none" />
  <path d="M111.4115,33.9395 C111.0312,37.20344 110.2053,37.82785 110.0548,37.91583" stroke="#FFFFFF" stroke-width="0.05" fill="none" />
  <path d="M111.3718,32.69352 L111.4115,33.9395" stroke="#FFFFFF" stroke-width="0.05" fill="none" />
  <path d="M14.98331,57.83723 C14.85559,58.50137 14.9748,59.04631 15.21888,59.49191 C15.77234,60.51934 16.96722,61.03021 17.2255,61.25159 C17.60014,61.57231 19.94734,62.42661 20.6427,63.28091 C21.33523,64.13522 24.27277,64.50986 24.27277,64.50986 C24.27277,64.50986 25.55281,64.40201 26.51496,65.89774 C27.47428,67.39064 30.03718,68.03208 31.584,69.47389 C33.13083,70.91286 34.73442,71.12856 34.73442,71.12856 C34.73442,71.12856 36.70697,73.15504 40.4449,75.28938 C44.17998,77.42655 47.65111,73.79649 47.65111,73.79649 C47.65111,73.79649 51.15347,72.37454 52.36822,70.66026 C53.58297,68.94598 63.01434,65.08601 63.01434,65.08601 L83.00102,53.70763" stroke="#FFFFFF" stroke-width="0.05" fill="none" />
  <path d="M7.984286,52.7767 C7.828185,55.09552 9.51692,56.63667 9.550979,56.736" stroke="#FFFFFF" stroke-width="0.05" fill="none" />
  <path d="M2.021207,56.23648 L43.44772,80.05474 L2.021207,56.23648 L7.882111,52.77102 C8.04105,51.91672 8.353253,50.94605 9.099703,49.90443 C11.85844,46.05865 16.24916,43.20909 16.24916,43.20909 L32.94351,33.97923 C32.94351,33.97923 37.88483,29.59136 40.47612,29.07197 L41.22256,29.04642 L42.16201,29.1486" stroke="#FFFFFF" stroke-width="0.05" fill="none" />
  <path d="M43.44772,80.05474 L43.44772,87.06796 L2.021207,63.39728 L2.021207,56.23648 L43.44772,80.05474 L43.44772,87.06796 L43.44772,80.05474 L91.77109,52.29704" stroke="#FFFFFF" stroke-width="0.05" fill="none" />
  <path d="M91.38793,37.16654 C91.38793,37.16654 95.10315,32.93477 96.70107,32.67649" stroke="#FFFFFF" stroke-width="0.05" fill="none" />
  <path d="M104.4891,26.54028 L104.7928,26.30187 z" stroke="#FFFFFF" stroke-width="0.05" fill="none" />
  <path d="M101.3444,28.80801 C101.6027,28.08711 102.6329,27.93385 104.4891,26.54028" stroke="#FFFFFF" stroke-width="0.05" fill="none" />
  <path d="M96.70107,32.67649 C95.10315,32.93477 91.38793,37.16654 91.38793,37.16654" stroke="#FFFFFF" stroke-width="0.05" fill="none" />
  <path d="M15.20753,59.49758 C15.20753,59.49758 13.39675,59.36135 12.58219,58.2289 C13.39675,59.36135 15.20753,59.49758 15.20753,59.49758 C15.20753,59.49758 13.39675,59.36135 12.58219,58.2289 C11.77046,57.09929 9.59639,56.87223 9.550979,56.736 C9.51692,56.63667 7.828185,55.09552 7.984286,52.7767 C8.04105,51.91672 8.353253,50.94605 9.099703,49.90443 C11.85844,46.05865 16.24916,43.20909 16.24916,43.20909 L32.94351,33.97923 C32.94351,33.97923 37.88483,29.59136 40.47612,29.07197 L41.22256,29.04642 L42.16201,29.1486 C43.85075,29.17698 44.93211,28.32268 44.93211,28.32268" stroke="#FFFFFF" stroke-width="0.05" fill="none" />
  <path d="M91.37942,37.18073 L90.02275,36.41158 C90.02275,36.41158 79.9613,31.45323 77.14295,30.62731 L72.30381,26.4154 C71.20258,25.58948 67.06731,23.87804 65.30478,23.16281 C63.53941,22.44758 64.86202,21.1789 64.86202,21.1789 C64.86202,21.1789 68.82983,19.4703 70.3199,18.31231 C71.80712,17.15432 73.29718,16.21771 74.8951,13.9585 C76.05876,12.31517 77.19121,11.66239 78.29527,10.79389 L79.52422,9.658609 C81.01144,8.003933 83.21673,9.933915 84.26402,10.98122 C85.31133,12.02851 85.80801,12.68982 87.90261,13.35112 C89.99721,14.01242 93.24979,16.49302 93.24979,16.49302 C93.24979,16.49302 95.92907,19.11269 98.81553,19.73142 C101.7048,20.35015 105.9338,22.41353 106.0388,23.29053 C106.1353,24.11645 106.3254,25.03319 104.7928,26.30187 L104.4891,26.54028 C102.6329,27.93385 101.6027,28.08711 101.3444,28.80801 C101.0861,29.53176 98.30181,32.42105 96.70107,32.67649 C95.10315,32.93477 91.38793,37.16654 91.38793,37.16654 z" stroke="#FFFFFF" stroke-width="0.05" fill="none" />
  <path d="M45.30878,57.01654 L45.67601,59.3301 L45.78618,61.97417 L44.83138,65.42615 L43.80313,70.31033 L43.17884,72.25666 L43.50935,72.66061 L42.59127,73.46852 L42.77488,74.57022 L41.12234,76.66344 L37.59691,80.18887 L37.56019,81.36401 L36.78901,82.06174 L35.68731,82.4657 L34.80595,82.13519 L34.34813,81.83843 L33.56995,81.39376 L33.05858,80.74899 L32.25455,79.94739 L31.99841,78.85883 L32.89488,77.8663 L33.59925,76.74572 L34.36765,75.20892 L36.1926,72.96776 L36.32066,72.23137 L36.06453,71.23885 L36.54478,69.95819 L36.5768,68.42139 L36.06453,65.76401 L34.92951,63.73245 L34.52773,64.38729 L33.82336,65.44384 L33.15101,66.59644 L31.7743,68.58147 L31.06993,70.85465 L30.84581,72.71162 L30.58968,74.53658 L30.71775,75.68917 L30.36556,77.54613 L30.46161,79.43512 L30.68331,81.77724 L30.54991,82.88893 L30.59438,83.88944 L30.61661,84.68986 L30.68605,85.94775 L30.84613,87.12167 L30.44593,88.24225 L30.03917,88.18645 L28.89191,88.23981 L27.61125,88.15977 L26.9976,88.37321 L26.70411,88.90682 L25.67018,88.61577 L25.37669,87.8954 L25.05709,87.30988 L25.07431,86.98265 L25.33138,86.39508 L24.4133,80.4092 L24.11951,75.59846 L23.789,74.64367 L24.4133,73.65214 L23.89917,72.477 L24.48674,71.59564 L24.04606,66.85835 L23.789,62.08434 L24.00934,60.54197 L24.0242,59.93764 L24.20781,58.79922 L24.2664,57.27361 L24.62244,59.53883 L24.68088,62.24251 L24.46599,64.06857 L24.88092,65.17506 L24.88092,66.51206 L24.97313,67.38804 L25.36864,67.13575 L25.74217,67.90948 L26.3825,67.90948 L25.95561,66.04185 L27.10287,68.283 L27.71652,68.0162 L26.96947,65.08135 L28.62365,67.48259 L28.99718,67.40255 L28.46357,65.5616 L29.05054,65.96181 L29.2373,65.66833 L28.89046,63.10701 L27.7833,61.50554 L28.08212,61.29895 L27.92716,60.53816 L28.33871,60.61079 L29.35299,60.65689 L30.41183,60.4816 L30.49187,60.68971 L30.57191,60.89782 L33.67775,60.12061 L41.49306,58.30117 L42.58364,57.75587 L43.8641,57.72366 z" stroke="Black" stroke-width="0" fill="#466296" fill-opacity="1" />
  <path d="M45.30878,57.01654 L43.8641,57.72366 L42.58364,57.75587 L41.49306,58.30117 L33.67775,60.12061 L30.57191,60.89782 L30.49187,60.68971 L30.41183,60.4816 L30.02763,59.04086 L29.89956,57.85625 L30.12368,57.08785 L29.46099,56.87401 L28.19094,56.70835 L28.07462,57.60012 L27.94656,59.10489 L28.01059,60.06539 L27.92716,60.53816 L28.08212,61.29895 L27.7833,61.50554 L27.56236,61.18597 L26.37775,61.12193 L25.19314,61.53815 L24.68088,62.24251 L24.62244,59.53883 L24.2664,57.27361 L24.04606,55.98829 L23.45849,53.16061 L23.45849,49.56174 L23.56866,45.74253 L24.67036,43.52058 L26.69013,36.80024 L27.53477,35.44149 L29.07714,34.48668 L30.46295,34.26613 L30.85532,34.66339 L31.43162,34.66339 L32.39211,34.66339 L33.50629,34.58655 L33.7368,34.97075 L34.121,36.6228 L35.65779,37.16068 L36.81039,37.35278 L38.7698,37.23752 L40.19133,36.6228 L40.88288,36.00808 L41.26708,35.23969 L41.19778,33.99378 L43.25228,34.59686 L45.27971,35.6251 L46.19778,37.16748 L46.88788,39.99516 L47.54889,41.75787 L47.24084,44.69672 L46.45517,48.74911 L46.08302,53.79392 L45.72737,54.62785 L45.67601,56.50242 z" stroke="Black" stroke-width="0" fill="#D6594A" fill-opacity="1" />
  <path d="M30.41183,60.4816 L29.35299,60.65689 L28.33871,60.61079 L27.92716,60.53816 L28.01059,60.06539 L27.94656,59.10489 L28.07462,57.60012 L28.19094,56.70835 L29.46099,56.87401 L30.12368,57.08785 L29.89956,57.85625 L30.02763,59.04086 z" stroke="Black" stroke-width="0" fill="#623B28" fill-opacity="1" />
  <path d="M24.68088,62.24251 L25.19314,61.53815 L26.37775,61.12193 L27.56236,61.18597 L28.89046,63.10701 L29.2373,65.66833 L29.05054,65.96181 L28.46357,65.5616 L28.99718,67.40255 L28.62365,67.48259 L26.96947,65.08135 L27.71652,68.0162 L27.10287,68.283 L25.95561,66.04185 L26.3825,67.90948 L25.74217,67.90948 L25.36864,67.13575 L24.97313,67.38804 L24.88092,66.51206 L24.88092,65.17506 L24.46599,64.06857 z" stroke="Black" stroke-width="0" fill="#623B28" fill-opacity="1" />
  <path d="M30.25177,56.79973 L34.79425,55.57203 L37.93691,53.83529 L40.08716,52.71882 L41.12093,50.77533 L42.11335,44.7381 L42.98172,42.4024" stroke="#FFFFFF" stroke-width="0.05" fill="none" />
  <path d="M45.72739,54.62787 L44.88386,56.6058 L41.49309,58.30119 L33.67777,60.12063 L30.57193,60.89784" stroke="#FFFFFF" stroke-width="0.05" fill="none" />
  <path d="M45.3088,57.01657 L43.86412,57.72369 L42.58367,57.7559" stroke="#FFFFFF" stroke-width="0.05" fill="none" />
  <path d="M30.25177,56.79973 L30.1237,57.08788 L29.89959,57.85627 L30.02765,59.04089 L30.41185,60.48163 L30.49189,60.68974" stroke="#FFFFFF" stroke-width="0.05" fill="none" />
  <path d="M24.6809,62.24253 L24.62247,59.53886 L24.26643,57.27363" stroke="#FFFFFF" stroke-width="0.05" fill="none" />
  <path d="M27.78332,61.50557 L28.08214,61.29898 L27.92719,60.53819 L28.01061,60.06541 L27.94658,59.10492 L28.26675,56.12738" stroke="#FFFFFF" stroke-width="0.05" fill="none" />
  <path d="M27.56238,61.18599 L26.37777,61.12196 L25.19316,61.53817 L24.6809,62.24253" stroke="#FFFFFF" stroke-width="0.05" fill="none" />
  <path d="M30.1237,57.08788 L28.19096,56.70837" stroke="#FFFFFF" stroke-width="0.05" fill="none" />
  <path d="M34.52776,64.38731 L33.82339,65.44386 L33.15104,66.59646 L31.77432,68.5815 L31.06996,70.85468 L30.84584,72.71165 L30.5897,74.5366 L30.71777,75.68919 L30.36559,77.54617 L30.46164,79.43514 L30.87785,79.43514 L31.67827,79.9154 L32.25457,79.94741 L31.99844,78.85885 L32.89491,77.86633 L33.59927,76.74574 L34.36767,75.20895 L36.19262,72.96778 L36.32069,72.2314 L36.06455,71.23888 L36.5448,69.95821 L36.57682,68.42141 L36.06455,65.76403 L34.92954,63.73248 z" stroke="#FFFFFF" stroke-width="0.2" fill="none" />
  <path d="M30.49189,60.68974 L30.57193,60.89784" stroke="#FFFFFF" stroke-width="0.2" fill="none" />
  <path d="M45.72739,54.62787 L45.67604,56.50244 L45.3088,57.01657 L45.67604,59.33013 L45.78621,61.9742 L44.8314,65.42617 L43.80315,70.31036 L43.17886,72.25668 L43.50937,72.66064 L42.59129,73.46855 L42.77491,74.57024 L41.12236,76.66347 L37.59694,80.18889 L37.56021,81.36403 L36.78903,82.06177 L35.68733,82.46573 L34.80598,82.13522 L32.93309,84.04482 L32.74948,85.55047 L31.86812,87.09284 L30.2523,89.95725 L30.3992,91.94031 L31.31727,93.22562 L32.27208,96.89793 L30.91332,98.55048 L30.2523,99.39511 L30.3992,101.0477 L29.88507,102.4799 L27.93874,103.8019 L26.06586,103.7652 L25.03761,102.7369 L24.89072,100.864 L25.77208,98.51376 L26.61671,96.49398 L27.31445,94.03352 L27.35118,93.59285 L26.17603,93.37251 L24.63366,92.34426 L24.56021,90.0307 L25.00089,88.37816 L25.07434,86.98267 L25.3314,86.3951 L24.41332,80.40923 L24.11954,75.5985 L23.78903,74.64369 L24.41332,73.65217 L23.89919,72.47702 L24.48676,71.59566 L24.04609,66.85838 L23.78903,62.08437 L24.00936,60.54199 L24.02422,59.93767 L24.20784,58.79925 L24.26643,57.27363 L24.04609,55.98832 L23.45852,53.16063 L23.45852,49.56176 L23.56869,45.74255 L24.67038,43.52061 L26.69016,36.80027 L27.53479,35.44151 L29.07716,34.48671 L30.46297,34.26615 L30.42657,33.82773 L30.34156,33.46645 L30.17155,33.25393 L30.21405,32.72264 L30.00153,32.06383 L29.85277,31.7663 L29.10896,31.61754 L29.07863,31.15017 L29.38523,30.51245 L29.704,29.9599 L29.704,29.23734 L29.5765,28.51477 L29.20715,27.72022 L29.33466,26.19009 L29.74902,25.26637 L30.46274,24.37742 L31.28471,23.56187 L31.84709,23.13268 L33.01507,22.31242 L35.85672,22.08028 L36.73546,21.62784 L38.09708,21.79543 L38.76743,21.71163 L39.85673,22.10964 L40.50612,22.86378 L41.19741,23.42938 L41.78395,24.91669 L41.34404,25.88031 L40.89739,27.3649 L40.50144,28.84974 L39.78773,29.65781 L38.60265,31.16938 L38.24059,32.92799 L39.50782,34.09178 L41.29229,33.98833 L43.25231,34.59688 L45.27973,35.62513 L46.19781,37.1675 L46.8879,39.99519 L47.54892,41.7579 L47.24086,44.69675 L46.4552,48.74913 L46.08304,53.79394 z" stroke="#FFFFFF" stroke-width="0.2" fill="none" />
  <path d="M27.35115,93.59283 L27.37112,91.36142 L26.91756,89.81396 L26.70411,88.90682 L26.9976,88.37321 L27.61125,88.15977 L28.89191,88.23981 L30.03917,88.18645 L30.19925,88.74673 L30.25228,89.95723 L30.39917,91.94028 L30.70618,93.17569 L30.9463,94.1095 L30.78622,94.45634 L29.95913,94.32294 L29.39884,93.68262 L28.33162,93.68262 z" stroke="Black" stroke-width="0" fill="#623B28" fill-opacity="1" />
  <path d="M34.80595,82.13519 L32.93307,84.0448 L32.90528,84.27267 L32.30637,85.179 L31.95063,85.33463 L31.12798,85.20123 L30.61661,84.68986 L30.59438,83.88944 L30.54991,82.88893 L30.68331,81.77724 L31.39479,81.11024 L31.75053,80.46546 L31.81771,79.92312 L32.25455,79.94739 L33.05858,80.74899 L33.56995,81.39376 L34.34813,81.83843 z" stroke="Black" stroke-width="0" fill="#623B28" fill-opacity="1" />
  <path d="M41.19778,33.99378 L41.26708,35.23969 L40.88288,36.00808 L40.19133,36.6228 L38.7698,37.23752 L36.81039,37.35278 L35.65779,37.16068 L34.121,36.6228 L33.7368,34.97075 L33.50629,34.58655 L32.39211,34.66339 L31.43162,34.66339 L30.85532,34.66339 L30.46295,34.26613 L30.42654,33.82771 L30.34154,33.46643 L30.17152,33.25391 L30.21403,32.72261 L30.00151,32.0638 L29.85275,31.76628 L29.10893,31.61752 L29.07861,31.15014 L29.3852,30.51242 L29.70398,29.95987 L29.70398,29.23731 L29.57647,28.51475 L29.20712,27.7202 L29.33463,26.19007 L29.749,25.26635 L30.46272,24.3774 L31.11617,23.72904 L32.96635,23.72814 L34.21489,24.1619 L35.60265,25.09182 L35.83541,26.30733 L35.88713,27.31594 L35.99905,29.02974 L36.47255,29.17622 L36.62373,28.92882 L36.89862,28.7639 L37.737,28.94257 L38.12459,29.94954 L38.12459,31.66851 L38.4846,31.74264 L38.24057,32.92797 L39.5078,34.09175 z" stroke="Black" stroke-width="0" fill="#623B28" fill-opacity="1" />
  <path d="M31.84706,23.13266 L33.01505,22.3124 L35.8567,22.08026 L36.73544,21.62782 L38.09706,21.7954 L38.7674,21.71161 L39.8567,22.10962 L40.5061,22.86375 L41.19738,23.42935 L41.78393,24.91667 L41.34402,25.88028 L40.89736,27.36488 L40.50142,28.84971 L39.7877,29.65779 L38.60263,31.16936 L38.4846,31.74264 L38.12459,31.66851 L38.12459,29.94954 L37.737,28.94257 L36.89862,28.7639 L36.62373,28.92882 L36.47255,29.17622 L35.99905,29.02974 L35.88713,27.31594 L35.83541,26.30733 L35.60265,25.09182 L34.21489,24.1619 L32.96635,23.72814 L31.11617,23.72904 L31.28468,23.56184 z" stroke="Black" stroke-width="0" fill="#483933" fill-opacity="1" />
  <path d="M30.46161,79.43512 L30.87783,79.43512 L31.67825,79.91537 L31.75053,80.46546 L31.39479,81.11024 L30.68331,81.77724 z" stroke="Black" stroke-width="0" fill="#CBB0AD" fill-opacity="1" />
  <path d="M32.90528,84.27267 L32.74945,85.55045 L31.8681,87.09282 L30.25228,89.95723 L30.19925,88.74673 L30.03917,88.18645 L30.44593,88.24225 L30.84613,87.12167 L30.68605,85.94775 L30.61661,84.68986 L31.12798,85.20123 L31.95063,85.33463 L32.30637,85.179 z" stroke="Black" stroke-width="0" fill="#CBB0AD" fill-opacity="1" />
  <path d="M26.70411,88.90682 L26.91756,89.81396 L27.37112,91.36142 L27.35115,93.59283 L26.17601,93.37248 L24.63363,92.34424 L24.56019,90.03068 L25.00087,88.37814 L25.05709,87.30988 L25.37669,87.8954 L25.67018,88.61577 z" stroke="Black" stroke-width="0" fill="#CBB0AD" fill-opacity="1" />
  <path d="M30.39917,91.94028 L31.31725,93.22559 L32.27205,96.89791 L30.9133,98.55045 L30.25228,99.39509 L30.39917,101.0476 L29.88505,102.4798 L27.93872,103.8019 L26.06584,103.7651 L25.03759,102.7369 L24.8907,100.864 L25.77205,98.51373 L26.61669,96.49396 L27.31443,94.0335 L27.35115,93.59283 L28.33162,93.68262 L29.39884,93.68262 L29.95913,94.32294 L30.78622,94.45634 L30.9463,94.1095 L30.70618,93.17569 z" stroke="Black" stroke-width="0" fill="#CBB0AD" fill-opacity="1" />
  <path d="M34.99179,62.04309 L35.91386,61.38996" stroke="#FFFFFF" stroke-width="0.05" fill="none" />
  <path d="M37.56361,22.77855 L38.24895,23.51562" stroke="#FFFFFF" stroke-width="0.05" fill="none" />
  <path d="M32.96638,23.72816 L31.1162,23.72906" stroke="#FFFFFF" stroke-width="0.05" fill="none" />
  <path d="M34.21492,24.16192 L32.96638,23.72816" stroke="#FFFFFF" stroke-width="0.05" fill="none" />
  <path d="M35.60268,25.09184 L34.21492,24.16192" stroke="#FFFFFF" stroke-width="0.05" fill="none" />
  <path d="M35.83543,26.30735 L35.60268,25.09184" stroke="#FFFFFF" stroke-width="0.05" fill="none" />
  <path d="M35.88716,27.31597 L35.83543,26.30735" stroke="#FFFFFF" stroke-width="0.05" fill="none" />
  <path d="M35.99907,29.02976 L35.88716,27.31597" stroke="#FFFFFF" stroke-width="0.05" fill="none" />
  <path d="M36.47258,29.17624 L35.99907,29.02976" stroke="#FFFFFF" stroke-width="0.05" fill="none" />
  <path d="M36.62376,28.92885 L36.47258,29.17624" stroke="#FFFFFF" stroke-width="0.05" fill="none" />
  <path d="M36.89864,28.76392 L36.62376,28.92885" stroke="#FFFFFF" stroke-width="0.05" fill="none" />
  <path d="M37.73703,28.94259 L36.89864,28.76392" stroke="#FFFFFF" stroke-width="0.05" fill="none" />
  <path d="M38.12462,29.94956 L37.73703,28.94259" stroke="#FFFFFF" stroke-width="0.05" fill="none" />
  <path d="M38.12462,31.66854 L38.12462,29.94956" stroke="#FFFFFF" stroke-width="0.05" fill="none" />
  <path d="M38.48463,31.74266 L38.12462,31.66854" stroke="#FFFFFF" stroke-width="0.05" fill="none" />
  <path d="M35.85672,22.08028 L37.56361,22.77855" stroke="#FFFFFF" stroke-width="0.05" fill="none" />
  <path d="M37.22579,29.26493 L37.58153,29.66513 L37.64823,30.44331 L36.98122,31.02138 L36.71442,31.11031" stroke="#FFFFFF" stroke-width="0.05" fill="none" />
  <path d="M36.84782,29.75407 L36.95899,30.22097 L36.80336,30.48777" stroke="#FFFFFF" stroke-width="0.05" fill="none" />
  <path d="M41.19703,33.97978 L41.26711,35.23971 L40.88291,36.00811 L40.19135,36.62282 L38.76982,37.23754 L36.81041,37.3528 L35.65782,37.1607 L34.12103,36.62282 L33.73683,34.97078 L33.50631,34.58657 L32.39214,34.66341 L31.43164,34.66341 L30.85534,34.66341 L30.46297,34.26615" stroke="#FFFFFF" stroke-width="0.05" fill="none" />
  <path d="M37.2463,81.64805 L35.49179,81.11623 L33.76292,79.61787 L33.18663,78.5037" stroke="#FFFFFF" stroke-width="0.05" fill="none" />
  <path d="M25.3314,86.3951 L28.07684,85.8034 L29.65203,86.30286" stroke="#FFFFFF" stroke-width="0.05" fill="none" />
  <path d="M26.70414,88.90685 L25.6702,88.61579 L25.37672,87.89542 L25.05711,87.3099" stroke="#FFFFFF" stroke-width="0.05" fill="none" />
  <path d="M30.61663,84.68988 L30.68607,85.94778 L30.84616,87.1217 L30.44595,88.24227 L30.03919,88.18647" stroke="#FFFFFF" stroke-width="0.05" fill="none" />
  <path d="M30.46164,79.43514 L30.68333,81.77727" stroke="#FFFFFF" stroke-width="0.05" fill="none" />
  <path d="M34.92954,63.73248 L34.99179,62.04309 L34.72285,61.31312" stroke="#FFFFFF" stroke-width="0.05" fill="none" />
  <path d="M28.26675,56.12738 L28.17514,53.84126 L28.61773,52.12622 L28.39643,51.07506 L28.78371,48.41951 L28.28579,45.76395 L28.28579,42.75072 L27.84319,41.36763" stroke="#FFFFFF" stroke-width="0.05" fill="none" />
  <path d="M33.50631,34.58657 L34.3331,34.29031 L35.467,33.53437" stroke="#FFFFFF" stroke-width="0.05" fill="none" />
  <path d="M30.3992,91.94031 L30.7062,93.17571 L30.94632,94.10953 L30.78624,94.45637 L29.95915,94.32297 L29.39886,93.68264 L28.33164,93.68264 L27.35118,93.59285" stroke="#FFFFFF" stroke-width="0.05" fill="none" />
  <path d="M30.2523,89.95725 L30.19927,88.74677 L30.03919,88.18647 L28.89193,88.23984 L27.61127,88.15979 L26.99762,88.37324 L26.70414,88.90685 L26.91758,89.81398 L27.37115,91.36144 L27.35118,93.59285" stroke="#FFFFFF" stroke-width="0.05" fill="none" />
  <path d="M31.81774,79.92314 L31.75055,80.46548 L31.39481,81.11026 L30.68333,81.77727 L30.54993,82.88895 L30.5944,83.88947 L30.61663,84.68988 L31.12801,85.20126 L31.95065,85.33466 L32.30639,85.17902 L32.9053,84.2727" stroke="#FFFFFF" stroke-width="0.05" fill="none" />
  <path d="M32.25457,79.94741 L33.0586,80.74901 L33.56998,81.39378 L34.34816,81.83846 L34.80598,82.13522" stroke="#FFFFFF" stroke-width="0.05" fill="none" />
  <path d="M24.6809,62.24253 L24.46601,64.06859 L24.88095,65.17508 L24.88095,66.51209 L24.97316,67.38806 L25.36867,67.13577 L25.74219,67.9095 L26.38252,67.9095 L25.95564,66.04188 L27.1029,68.28303 L27.71654,68.01623 L26.96949,65.08138 L28.62367,67.48262 L28.9972,67.40257 L28.46359,65.56162 L29.05057,65.96183 L29.23733,65.66835 L28.89048,63.10703 L27.56238,61.18599" stroke="#FFFFFF" stroke-width="0.05" fill="none" />
  <path d="M30.41185,60.48163 L29.35301,60.65691 L28.33873,60.61081 L27.92719,60.53819" stroke="#FFFFFF" stroke-width="0.05" fill="none" />
</svg>