<?xml version="1.0" encoding="utf-8" standalone="no"?>
<!DOCTYPE svg PUBLIC "-//W3C//DTD SVG 1.1//EN" "http://www.w3.org/Graphics/SVG/1.1/DTD/svg11.dtd">
<svg version="1.1" width="120pt" height="120pt" viewBox="0 0 120 120" overflow="visible" xmlns="http://www.w3.org/2000/svg">
  <path d="M80.6363,73.15115 L80.03961,71.96807" stroke="#FFFFFF" stroke-width="0.08" fill="none" />
  <path d="M79.13429,66.83451 L77.86377,67.68325" stroke="#FFFFFF" stroke-width="0.08" fill="none" />
  <path d="M74.92663,69.36529 L74.33509,69.60705" stroke="#FFFFFF" stroke-width="0.08" fill="none" />
  <path d="M69.05236,69.96712 L67.66866,69.70478" stroke="#FFFFFF" stroke-width="0.08" fill="none" />
  <path d="M61.73781,67.39005 L61.40346,67.21516 L60.58559,66.76764" stroke="#FFFFFF" stroke-width="0.08" fill="none" />
  <path d="M76.18173,68.68629 L76.55209,68.4754" stroke="#FFFFFF" stroke-width="0.08" fill="none" />
  <path d="M73.81042,71.48455 L73.40405,71.37138" stroke="#FFFFFF" stroke-width="0.08" fill="none" />
  <path d="M74.33509,69.60705 L74.92663,69.36529" stroke="#FFFFFF" stroke-width="0.08" fill="none" />
  <path d="M69.05236,70.15229 L69.05236,70.52779" stroke="#FFFFFF" stroke-width="0.08" fill="none" />
  <path d="M67.71496,80.79491 L67.71496,79.94103" stroke="#FFFFFF" stroke-width="0.08" fill="none" />
  <path d="M67.67381,70.55351 L67.66866,70.1883" stroke="#FFFFFF" stroke-width="0.08" fill="none" />
  <path d="M63.36841,71.39196 L63.51758,71.6903 L62.97748,71.47941" stroke="#FFFFFF" stroke-width="0.08" fill="none" />
  <path d="M61.20799,67.99702 L61.01253,67.61124" stroke="#FFFFFF" stroke-width="0.08" fill="none" />
  <path d="M61.18227,67.09171 L61.30058,67.31803 L61.30058,67.31803" stroke="#FFFFFF" stroke-width="0.08" fill="none" />
  <path d="M58.19884,65.41481 L59.43851,66.12466" stroke="#FFFFFF" stroke-width="0.08" fill="none" />
  <path d="M61.18227,67.09171 L61.40346,67.21516" stroke="#FFFFFF" stroke-width="0.08" fill="none" />
  <path d="M55.51376,73.92788 L55.7298,73.50094 L56.38307,72.20469" stroke="#FFFFFF" stroke-width="0.08" fill="none" />
  <path d="M69.01635,80.56858 L69.02149,79.65812" stroke="#FFFFFF" stroke-width="0.08" fill="none" />
  <path d="M80.77518,73.42378 L80.99637,73.86615" stroke="#FFFFFF" stroke-width="0.08" fill="none" />
  <path d="M74.75174,30.23605 C76.39262,30.93561 78.52732,32.05183 80.49741,33.78531 C82.12287,35.21015 82.71441,36.24406 82.99732,36.85104 L83.67632,38.76455 L84.02095,40.79122 L85.22975,52.68379 C85.57954,56.38736 84.90054,59.79773 83.06934,62.98692 C82.2669,64.3809 80.67745,65.74402 79.13429,66.83451 L87.48276,84.0201 C87.05582,84.67337 86.21737,84.16413 86.21737,84.16413 L80.99637,73.86615 L73.63553,71.80861 L69.01635,80.56858 L68.97005,94.69358 C68.45053,95.35199 67.77669,94.80161 67.77669,94.80161 L67.71496,80.79491 L63.14208,71.80347 L55.51376,73.92788 L50.40592,84.09726 C49.62405,84.58078 49.14568,83.92751 49.14568,83.92751 L58.19884,65.41481 C52.59205,62.11246 52.11882,60.8265 51.15178,59.60741 C50.01498,58.17228 52.26284,56.79372 52.26284,56.79372 L58.78524,52.36488 C61.92299,50.30733 63.7542,47.07186 64.28915,46.22827 C64.82926,45.37953 66.22839,41.89715 67.3909,38.79026 C68.55341,35.68853 70.82184,31.81521 71.77345,30.62698 C72.73021,29.43875 74.75174,30.23605 74.75174,30.23605 z" stroke="#FFFFFF" stroke-width="0.2" fill="none" />
  <path d="M77.86377,67.68326 L76.55214,68.47545 L80.02933,71.97321 z" stroke="#FFFFFF" stroke-width="0.2" fill="none" />
  <path d="M73.81042,71.48455 L80.77004,73.42892 L80.6363,73.15115 L76.18173,68.68629 L75.27127,69.18011 L74.92663,69.36529 z" stroke="#FFFFFF" stroke-width="0.2" fill="none" />
  <path d="M74.33505,69.60718 C73.34738,69.95685 71.58821,70.33232 69.05236,69.96713 L73.40405,71.37138 z" stroke="#FFFFFF" stroke-width="0.2" fill="none" />
  <path d="M67.66866,69.70478 C65.99692,69.31899 64.04225,68.61943 61.82011,67.4312 L61.50634,67.7244 L63.36841,71.39196 L67.66866,70.1883 z" stroke="#FFFFFF" stroke-width="0.2" fill="none" />
  <path d="M60.58559,66.76764 L59.43851,66.12466 L56.38307,72.20469 L61.00739,67.61124 z" stroke="#FFFFFF" stroke-width="0.2" fill="none" />
  <path d="M80.77521,73.42381 L80.99639,73.86617" stroke="#FFFFFF" stroke-width="0.08" fill="none" />
  <path d="M69.05238,70.52782 L69.05238,70.15231" stroke="#FFFFFF" stroke-width="0.08" fill="none" />
  <path d="M69.01637,80.5686 L69.02152,79.65814" stroke="#FFFFFF" stroke-width="0.08" fill="none" />
  <path d="M73.22919,71.69547 L73.63555,71.80863" stroke="#FFFFFF" stroke-width="0.08" fill="none" />
  <path d="M67.66869,70.18832 L67.67384,70.55354" stroke="#FFFFFF" stroke-width="0.08" fill="none" />
  <path d="M63.53304,71.71605 L63.36843,71.39198" stroke="#FFFFFF" stroke-width="0.08" fill="none" />
  <path d="M55.51378,73.9279 L55.72982,73.50096 L56.38309,72.20471" stroke="#FFFFFF" stroke-width="0.08" fill="none" />
  <path d="M60.58047,66.75738 L67.70984,80.79493" stroke="#FFFFFF" stroke-width="0.08" fill="none" />
  <path d="M63.53304,71.71605 L67.70984,79.94106" stroke="#FFFFFF" stroke-width="0.08" fill="none" />
  <path d="M61.1823,67.09173 L63.36843,71.39198" stroke="#FFFFFF" stroke-width="0.08" fill="none" />
  <path d="M61.50636,67.72442 L61.81499,67.44151" stroke="#FFFFFF" stroke-width="0.08" fill="none" />
  <path d="M73.40408,71.37141 L74.33511,69.61221" stroke="#FFFFFF" stroke-width="0.08" fill="none" />
  <path d="M68.92893,79.83303 L69.02152,79.65814" stroke="#FFFFFF" stroke-width="0.08" fill="none" />
  <path d="M73.81044,71.47943 L74.92665,69.36531" stroke="#FFFFFF" stroke-width="0.08" fill="none" />
  <path d="M68.92893,80.73835 L69.01637,80.5686" stroke="#FFFFFF" stroke-width="0.08" fill="none" />
  <path d="M73.40408,71.37141 L73.81044,71.48457" stroke="#FFFFFF" stroke-width="0.08" fill="none" />
  <path d="M76.17661,68.68118 L80.63118,73.15118" stroke="#FFFFFF" stroke-width="0.08" fill="none" />
  <path d="M76.55211,68.47543 L80.02935,71.97324" stroke="#FFFFFF" stroke-width="0.08" fill="none" />
  <path d="M73.22404,71.69547 L69.05238,70.52782 L69.02152,79.65814 L73.22919,71.70061 L73.22919,71.69547 z" stroke="#FFFFFF" stroke-width="0.2" fill="none" />
  <path d="M67.67384,70.55354 L63.54332,71.7109 L63.53304,71.71605 L67.70984,79.94106 L67.71498,79.94106 z" stroke="#FFFFFF" stroke-width="0.2" fill="none" />
  <path d="M61.20287,68.00219 L55.79669,73.36722 L55.72982,73.50096 L62.97236,71.48457 z" stroke="#FFFFFF" stroke-width="0.2" fill="none" />
  <path d="M86.21737,84.16413 L80.99637,73.86615 L80.77518,73.42378 L80.6363,73.15115 L80.03961,71.96807 L77.86377,67.68325 L79.13429,66.83451 L87.48276,84.0201 C87.05582,84.67337 86.21737,84.16413 86.21737,84.16413 z" stroke="Black" stroke-width="0" fill="#C9B892" fill-opacity="1" />
  <path d="M59.43851,66.12466 L58.19884,65.41481 C52.59205,62.11246 52.11882,60.8265 51.15178,59.60741 C50.01498,58.17228 52.26284,56.79372 52.26284,56.79372 L58.78524,52.36488 C61.92299,50.30733 63.7542,47.07186 64.28915,46.22827 C64.82926,45.37953 66.22839,41.89715 67.3909,38.79026 C68.55341,35.68853 70.82184,31.81521 71.77345,30.62698 C72.73021,29.43875 74.75174,30.23605 74.75174,30.23605 C76.39262,30.93561 78.52732,32.05183 80.49741,33.78531 C82.12287,35.21015 82.71441,36.24406 82.99732,36.85104 L83.67632,38.76455 L84.02095,40.79122 L85.22975,52.68379 C85.57954,56.38736 84.90054,59.79773 83.06934,62.98692 C82.2669,64.3809 80.67745,65.74402 79.13429,66.83451 L77.86377,67.68325 L76.55209,68.4754 L76.18173,68.68629 L75.27127,69.18011 L74.92663,69.36529 L74.33509,69.60705 C73.34747,69.95683 71.58827,70.33233 69.05236,69.96712 L67.66866,69.70478 C65.99692,69.31899 64.04225,68.61943 61.82011,67.4312 L61.40346,67.21516 L61.18227,67.09171 L60.58559,66.76764 z" stroke="Black" stroke-width="0" fill="#DCDBE9" fill-opacity="1" />
  <path d="M80.77518,73.42378 L80.99637,73.86615 L73.63553,71.80861 L73.22916,71.69545 L69.05236,70.52779 L69.05236,70.15229 L73.40405,71.37138 L73.81042,71.48455 z" stroke="Black" stroke-width="0" fill="#313131" fill-opacity="1" />
  <path d="M80.03961,71.96807 L80.6363,73.15115 L76.18173,68.68629 L76.55209,68.4754 z" stroke="Black" stroke-width="0" fill="#313131" fill-opacity="1" />
  <path d="M74.92663,69.36529 L73.81042,71.47941 L73.40405,71.37138 L74.33509,69.61219 z" stroke="Black" stroke-width="0" fill="#313131" fill-opacity="1" />
  <path d="M73.63038,71.8189 L69.01635,80.56858 L69.02149,79.65812 L73.22916,71.70059 z" stroke="Black" stroke-width="0" fill="#313131" fill-opacity="1" />
  <path d="M69.05236,70.15229 L69.05236,70.52779 L69.02149,79.65812 L69.01635,80.56858 L68.97005,94.69358 C68.45053,95.35199 67.77669,94.80161 67.77669,94.80161 L67.71496,80.79491 L67.71496,79.94103 L67.67381,70.55351 L67.66866,70.1883 L67.66866,69.70992 L69.05236,69.96712" stroke="Black" stroke-width="0" fill="#C9B892" fill-opacity="1" />
  <path d="M61.30058,67.31803 L61.50634,67.7244 L63.36841,71.39196 L63.51758,71.6903 L67.70982,79.94103 L67.71496,80.79491 L63.14208,71.80347 L62.97748,71.47941 L61.21314,67.99702 L61.01253,67.61124 L60.58559,66.76764 L61.18227,67.09171 z" stroke="Black" stroke-width="0" fill="#313131" fill-opacity="1" />
  <path d="M67.66866,70.1883 L67.67381,70.55351 L63.5433,71.71088 L63.36841,71.39196 z" stroke="Black" stroke-width="0" fill="#313131" fill-opacity="1" />
  <path d="M62.97748,71.47941 L63.14208,71.80347 L55.51376,73.92788 L55.7298,73.50094 z" stroke="Black" stroke-width="0" fill="#313131" fill-opacity="1" />
  <path d="M61.01253,67.61124 L61.20799,67.99702 L55.79667,73.3672 L56.38307,72.20469 z" stroke="Black" stroke-width="0" fill="#313131" fill-opacity="1" />
  <path d="M55.7298,73.50094 L55.51376,73.92788 L50.40592,84.09726 C49.62405,84.58078 49.14568,83.92751 49.14568,83.92751 L58.19884,65.41481 L59.43851,66.12466 L56.38307,72.20469 L55.79667,73.3672" stroke="Black" stroke-width="0" fill="#C9B892" fill-opacity="1" />
  <path d="M61.81497,67.44148 L61.50634,67.7244 L61.30058,67.31803 z" stroke="Black" stroke-width="0" fill="#6B8E23" fill-opacity="1" />
  <path d="M64.36046,63.82543 L63.1089,64.48198 L57.82557,62.53052 C54.75349,61.54589 51.84687,60.89202 49.10571,60.56892 L48.24025,59.67434 C46.3438,57.80274 42.89046,54.81962 37.88025,50.72497 L38.43365,50.59982 L38.44949,50.30505 L41.0993,49.70578 L43.17839,49.23558 L43.59194,49.26226 L43.29845,49.79588 L43.24509,50.35616 L43.32513,50.70301 L43.93879,50.70301 L44.68584,50.3028 L45.00601,49.92928 L45.51294,50.00932 L46.23331,49.71583 L46.58065,49.39542 L47.63862,49.3424 C50.30442,51.44822 52.45223,53.23519 54.08204,54.70329 L56.59357,57.15088 C60.86041,57.65381 65.14275,58.64901 69.44058,60.13647 L69.07018,60.19463 L68.07162,60.30172 L66.49747,60.27504 L65.29684,60.43512 L64.60316,60.88869 L63.80274,61.23553 L62.94896,61.6891 L63.77606,62.11599 L63.9895,62.14267 L63.26913,62.6496 L63.18909,62.96976 L63.53593,63.50338 z" stroke="Black" stroke-width="0" fill="#D9D9D9" fill-opacity="1" />
  <path d="M58.2575,48.48862 L58.63103,47.02119 L58.1241,46.19409 L58.15078,45.58043 L57.64385,45.15354 L56.62999,45.9006 L55.18923,46.88778 L53.26823,48.08841 L51.53399,48.96887 L49.50626,48.94219 L47.63862,49.3424 L46.58065,49.39542 L46.77275,48.39651 L46.65749,47.62811 L46.38855,46.85971 L45.77684,46.4254 L46.23199,46.24335 L47.11335,45.31792 L48.03878,45.18571 L48.74386,44.48063 L49.80149,44.17215 L50.94726,42.76198 L51.87268,42.27723 L53.01845,40.99926 L53.81168,40.1179 L54.6049,38.44332 L54.69304,37.03315 L54.95744,34.82975 L55.35405,33.24331 L56.27948,31.96533 L56.8083,31.43652 L57.04675,32.69454 L57.62305,33.30926 L57.85357,33.73188 L57.89199,34.3466 L57.81515,34.88448 L58.04567,35.53762 L58.46829,35.76814 L58.96775,36.38285 L59.50563,37.07441 L60.54296,37.22809 L61.81082,36.99757 L63.15552,36.57495 L64.34653,36.11391 L65.88333,35.46078 L66.45963,34.50028 L66.76699,33.84714 L67.07435,33.07874 L67.38171,32.19508 L67.26778,31.04473 L67.36345,30.84507 L67.73068,31.39592 L69.19962,32.06918 L71.49482,32.92606 L73.90665,33.86026 L74.92022,34.91788 L76.24226,36.5484 L77.87277,38.884 L78.66599,41.26367 L79.59142,44.70097 L80.47278,47.52132 L81.17786,50.4298 L81.48634,53.7349 L80.91346,55.45354 L78.75413,57.96542 L75.88972,60.78577 L75.05242,61.75526 L73.99479,61.49086 L73.2825,61.92032 L71.86096,62.41978 L71.28466,62.95766 L70.82362,62.99608 L70.82362,62.074 L70.47784,60.9214 L69.97839,60.30668 L69.82471,60.07616 L70.90046,59.42302 L72.68804,57.97792 L72.05567,57.38737 L70.63152,57.54045 L68.71053,57.84781 L66.94321,57.84781 L64.79169,57.65571 L62.52492,56.96415 L60.48866,56.34943 L59.37449,55.84997 L57.99137,55.00473 L57.37665,53.81372 L56.91561,52.73796 L56.71003,51.77033 L57.51044,50.72979 z" stroke="Black" stroke-width="0" fill="#CDC1B9" fill-opacity="1" />
  <path d="M46.45233,94.1452 L45.21843,94.80622 L44.20486,95.95198 L43.0591,97.22996 L41.38452,98.02318 L39.754,98.64013 L37.2862,98.46386 L36.88959,97.53843 L36.88959,96.30453 L37.77095,95.33503 L38.91671,94.18927 L40.32689,93.35197 L41.03197,92.47062 L42.88283,91.06044 L43.54385,90.31129 L44.02859,89.69434 L44.9026,90.21437 L45.57494,90.82269 L46.31133,91.20689 L47.52796,91.30293 L49.19282,90.98277 L49.84556,90.44349 L49.9337,92.33841 L49.88963,93.1757 L47.68623,94.54181 L46.6286,94.45367 z" stroke="Black" stroke-width="0" fill="#313131" fill-opacity="1" />
  <path d="M69.73719,63.42297 L69.89728,62.88935 L69.8706,62.03558 L69.73719,61.47529 L69.07018,60.19463 L69.44058,60.13647 L69.82471,60.07616 L69.97839,60.30668 L70.47784,60.9214 L70.82362,62.074 L70.82362,62.99608 L71.28466,63.26288 L71.2313,63.71645 L70.85777,64.06329 L70.16408,64.49019 L69.49707,64.49019 L69.23026,64.17002 L69.23026,63.90321 z" stroke="Black" stroke-width="0" fill="#8E8E8E" fill-opacity="1" />
  <path d="M69.82471,60.07616 L69.44058,60.13647 C65.14275,58.64901 60.86041,57.65381 56.59357,57.15088 L54.08204,54.70329 L54.5489,54.17159 L55.42936,53.02432 L56.06969,51.9571 L56.71003,51.77033 L56.91561,52.73796 L57.37665,53.81372 L57.99137,55.00473 L59.37449,55.84997 L60.48866,56.34943 L62.52492,56.96415 L64.79169,57.65571 L66.94321,57.84781 L68.71053,57.84781 L70.63152,57.54045 L72.05567,57.38737 L72.68804,57.97792 L70.90046,59.42302 z" stroke="Black" stroke-width="0" fill="#5A5A5A" fill-opacity="1" />
  <path d="M41.33938,66.22211 L41.51968,67.09344 L40.28282,67.57223 L38.6523,68.58579 L37.50654,69.77563 L35.65569,71.31801 L33.93703,72.11123 L32.79127,72.50784 L31.6455,72.37563 L31.38109,71.53835 L31.38109,70.30444 L31.90991,68.67393 L32.83533,67.17562 L33.49635,66.47054 L34.9506,65.85358 L35.92009,65.5451 L36.88959,64.53154 L37.63874,63.82645 L37.68281,62.90103 L39.35739,61.09424 L40.15061,60.78577 L40.76757,60.78577 L42.35401,61.09424 L43.72012,61.66713 L44.06079,61.66713 L43.70861,62.12398 L42.71609,62.63625 L41.94769,63.53271 L41.17929,64.65329 L41.33938,65.35766 z" stroke="Black" stroke-width="0" fill="#313131" fill-opacity="1" />
  <path d="M63.1089,64.48198 L64.36046,63.82543 L65.16344,64.27711 L65.61701,65.05084 L65.99054,65.39769 L67.0044,65.1042 L68.15166,64.73067 L69.23026,64.17002 L69.49707,64.49019 L70.16408,64.49019 L70.85777,64.06329 L71.2313,63.71645 L71.28466,63.26288 L70.82362,62.99608 L71.28466,62.95766 L71.86096,62.41978 L73.2825,61.92032 L73.99479,61.49086 L74.94873,61.72934 L74.69988,62.72476 L74.17107,63.51798 L73.2897,65.58917 L69.588,67.66037 L67.82528,68.27732 L65.44561,69.46716 L63.19815,69.73156 L61.17102,69.90783 L60.68628,69.86376 L59.45237,69.37901 L55.30999,69.20274 L53.45913,68.76206 L51.38794,69.99596 L50.81506,70.78919 L50.33031,72.1553 L50.24217,73.91801 L50.24217,76.34175 L50.1981,79.47057 L50.28624,83.52483 L50.28624,87.62315 L49.88963,88.72484 L50.37437,89.65027 L49.84556,90.44349 L49.19282,90.98277 L47.52796,91.30293 L46.31133,91.20689 L45.57494,90.82269 L44.9026,90.21437 L44.02859,89.69434 L43.67605,89.38586 L43.85232,88.72484 L43.80825,87.71128 L43.41164,85.41975 L43.63198,82.55533 L43.76418,80.08752 L43.49978,76.29768 L43.23537,73.21293 L43.63198,71.84682 L43.1913,71.09766 L43.49978,70.39258 L43.58791,68.80613 L43.10316,68.45359 L42.30994,67.88071 L41.64892,67.04341 L41.33938,66.22211 L41.33938,65.35766 L41.17929,64.65329 L41.94769,63.53271 L42.71609,62.63625 L43.70861,62.12398 L44.06079,61.66713 L44.77775,61.66713 L46.23199,61.71119 L47.66161,60.17503 L48.24025,59.67434 L49.10571,60.56892 C51.84687,60.89202 54.75349,61.54589 57.82557,62.53052 z" stroke="Black" stroke-width="0" fill="#5A5A5A" fill-opacity="1" />
  <path d="M69.07018,60.19463 L69.73719,61.47529 L69.8706,62.03558 L69.89728,62.88935 L69.73719,63.42297 L69.23026,63.90321 L69.23026,64.17002 L68.15166,64.73067 L67.0044,65.1042 L65.99054,65.39769 L65.61701,65.05084 L65.16344,64.27711 L64.30967,63.79686 L63.53593,63.50338 L63.18909,62.96976 L63.26913,62.6496 L63.9895,62.14267 L63.77606,62.11599 L62.94896,61.6891 L63.80274,61.23553 L64.60316,60.88869 L65.29684,60.43512 L66.49747,60.27504 L68.07162,60.30172 z" stroke="Black" stroke-width="0" fill="#623B28" fill-opacity="1" />
  <path d="M67.36345,30.84507 L67.26778,31.04473 L67.38171,32.19508 L67.07435,33.07874 L66.76699,33.84714 L66.45963,34.50028 L65.88333,35.46078 L64.34653,36.11391 L63.15552,36.57495 L61.81082,36.99757 L60.54296,37.22809 L59.50563,37.07441 L58.96775,36.38285 L58.46829,35.76814 L58.04567,35.53762 L57.81515,34.88448 L57.89199,34.3466 L57.85357,33.73188 L57.62305,33.30926 L57.04675,32.69454 L56.8083,31.43652 L56.40596,30.02881 L56.60864,28.89092 L56.78579,27.55532 L57.33043,26.21605 L58.05236,24.77285 L59.67694,23.81712 L60.25909,23.63799 L61.24426,23.54843 L62.12957,23.70371 L63.80884,24.17018 L65.27043,24.82323 L66.38994,25.66286 L67.27003,27.91799 L67.49016,28.90858 L67.38411,29.95534 z" stroke="Black" stroke-width="0" fill="#623B28" fill-opacity="1" />
  <path d="M46.58065,49.39542 L46.23331,49.71583 L45.51294,50.00932 L45.00601,49.92928 L44.68584,50.3028 L43.93879,50.70301 L43.32513,50.70301 L43.24509,50.35616 L43.29845,49.79588 L43.59194,49.26226 L43.17839,49.23558 L41.0993,49.70578 L41.16418,48.79929 L41.56079,48.35861 L42.13367,47.25691 L42.97096,47.08064 L44.38114,46.9925 L44.73368,46.9925 L45.35063,46.59589 L45.77684,46.4254 L46.38855,46.85971 L46.65749,47.62811 L46.77275,48.39651 z" stroke="Black" stroke-width="0" fill="#623B28" fill-opacity="1" />
  <path d="M48.24025,59.67434 L49.10571,60.56892" stroke="#FFFFFF" stroke-width="0.08" fill="none" />
  <path d="M63.09039,63.72373 L63.09725,64.12279" stroke="#FFFFFF" stroke-width="0.08" fill="none" />
  <path d="M47.59812,62.19596 L46.23201,61.71122" stroke="#FFFFFF" stroke-width="0.08" fill="none" />
  <path d="M41.51971,67.09347 L41.3394,66.22213 L41.3394,65.35768 L41.17932,64.65331 L41.94772,63.53273 L42.71611,62.63627 L43.70863,62.124 L44.06081,61.66715" stroke="#FFFFFF" stroke-width="0.08" fill="none" />
  <path d="M38.44949,50.30505 C44.19678,55.02182 47.86077,58.2494 49.44146,59.98779 C53.7083,60.49073 58.25793,61.73603 63.09037,63.72371 L63.9666,63.66674" stroke="#FFFFFF" stroke-width="0.08" fill="none" />
  <path d="M38.42741,50.71637 L38.62543,50.87914" stroke="#FFFFFF" stroke-width="0.08" fill="none" />
  <path d="M63.10892,64.482 L64.36048,63.82545" stroke="#FFFFFF" stroke-width="0.08" fill="none" />
  <path d="M69.07021,60.19465 L68.07164,60.30174 L66.49749,60.27506 L65.29687,60.43514 L64.60318,60.88871 L63.80276,61.23556 L62.94899,61.68913 L63.77608,62.11601 L63.98952,62.14269 L63.26915,62.64962 L63.18911,62.96979 L63.53596,63.5034 L64.30969,63.79689 L65.16347,64.27714 L65.61703,65.05087 L65.99056,65.39771 L67.00443,65.10423 L68.15169,64.73071 L69.23029,64.17004" stroke="#FFFFFF" stroke-width="0.08" fill="none" />
  <path d="M62.71057,36.71483 L64.37722,35.45464 L64.9716,34.72308" stroke="#FFFFFF" stroke-width="0.08" fill="none" />
  <path d="M49.44149,59.98781 L56.59359,57.1509" stroke="#FFFFFF" stroke-width="0.08" fill="none" />
  <path d="M49.32891,60.31726 C53.54024,60.81366 58.04561,62.04494 62.84309,64.01823 L63.09723,64.12276" stroke="#FFFFFF" stroke-width="0.08" fill="none" />
  <path d="M47.59812,62.19596 L49.90651,62.47815 L52.94165,62.59341 L53.48837,62.53878" stroke="#FFFFFF" stroke-width="0.08" fill="none" />
  <path d="M53.45916,68.76208 L52.01919,68.50859 L49.62182,68.18587 L47.08614,68.50859 L44.64266,68.73911 L43.58794,68.80616" stroke="#FFFFFF" stroke-width="0.08" fill="none" />
  <path d="M63.09039,63.72373 L63.53596,63.5034" stroke="#FFFFFF" stroke-width="0.08" fill="none" />
  <path d="M73.99482,61.49088 L73.28252,61.92035 L71.86098,62.4198 L71.28468,62.95768 L70.82365,62.9961 L70.82365,62.07402 L70.47787,60.92142 L69.97841,60.30671 L69.82473,60.07619 L70.90049,59.42305 L72.68806,57.97794 L72.05569,57.38739 L70.63155,57.54047 L68.71055,57.84783 L66.94324,57.84783 L64.79172,57.65573 L62.52494,56.96417 L60.48869,56.34946 L59.37451,55.84999 L57.99139,55.00476 L57.37667,53.81374 L56.91563,52.73798 L56.71005,51.77036" stroke="#FFFFFF" stroke-width="0.08" fill="none" />
  <path d="M67.26781,31.04475 L67.36348,30.84509" stroke="#FFFFFF" stroke-width="0.08" fill="none" />
  <path d="M65.56535,32.68586 L66.01891,32.73922 L66.09895,33.05938 L65.77879,33.45959" stroke="#FFFFFF" stroke-width="0.08" fill="none" />
  <path d="M44.02862,89.69436 L44.90262,90.21439 L45.57497,90.82271 L46.31135,91.20691 L47.52798,91.30296 L49.19284,90.9828 L49.84558,90.44351" stroke="#FFFFFF" stroke-width="0.08" fill="none" />
  <path d="M69.82473,60.07619 L69.07021,60.19465 L69.73722,61.47531 L69.87062,62.0356 L69.8973,62.88938 L69.73722,63.42299 L69.23029,63.90324 L69.23029,64.17004 L69.49709,64.49021 L70.16411,64.49021 L70.8578,64.06332 L71.23132,63.71648 L71.28468,63.26291 L70.82365,62.9961" stroke="#FFFFFF" stroke-width="0.08" fill="none" />
  <path d="M38.62541,50.87912 L41.3442,53.13349 L43.91267,55.31108 L45.71584,56.88429 L46.65031,57.72256 L47.47378,58.48119 L48.18597,59.15975 L48.78609,59.75731 L49.27294,60.27198" stroke="#FFFFFF" stroke-width="0.08" fill="none" />
  <path d="M46.58068,49.39545 L46.23333,49.71585 L45.51296,50.00934 L45.00603,49.9293 L44.68586,50.30283 L43.93881,50.70303 L43.32516,50.70303 L43.24512,50.35619 L43.29848,49.7959 L43.59196,49.26229 L43.17842,49.23561" stroke="#FFFFFF" stroke-width="0.08" fill="none" />
  <path d="M55.43409,38.74875 L56.42992,41.07236 L57.09381,43.17468 L57.64387,45.15357" stroke="#FFFFFF" stroke-width="0.08" fill="none" />
  <path d="M56.59357,57.15088 C60.86041,57.65381 65.14275,58.64901 69.44058,60.13647" stroke="#FFFFFF" stroke-width="0.08" fill="none" />
  <path d="M47.63862,49.3424 L49.50626,48.94219 L51.53399,48.96887 L53.26823,48.08841 L55.18923,46.88778 L56.62999,45.9006 L57.64385,45.15354 L58.15078,45.58043 L58.1241,46.19409 L58.63103,47.02119 L58.2575,48.48862 L57.51044,50.72979 L56.71003,51.77033 L56.06969,51.9571 L55.42936,53.02432 L54.5489,54.17159 L54.08204,54.70329 C52.45223,53.23519 50.30442,51.44822 47.63862,49.3424 z" stroke="#FFFFFF" stroke-width="0.08" fill="none" />
  <path d="M49.10571,60.56892 C53.37254,61.07185 58.04027,62.37621 63.1089,64.48198" stroke="#FFFFFF" stroke-width="0.08" fill="none" />
  <path d="M45.77687,46.42543 L46.38858,46.85973 L46.65752,47.62813 L46.77278,48.39653 L46.58068,49.39545 L47.63865,49.34242" stroke="#FFFFFF" stroke-width="0.08" fill="none" />
  <path d="M56.80832,31.43654 L57.04678,32.69456 L57.62307,33.30928 L57.8536,33.7319 L57.89201,34.34662 L57.81517,34.8845 L58.04569,35.53764 L58.46831,35.76816 L58.96777,36.38288 L59.50565,37.07444 L60.54299,37.22812 L61.81084,36.9976 L63.15554,36.57498 L64.34656,36.11394 L65.88335,35.4608 L66.45966,34.5003 L66.76701,33.84716 L67.07437,33.07877 L67.38174,32.19511 L67.26781,31.04475" stroke="#FFFFFF" stroke-width="0.08" fill="none" />
  <path d="M66.88228,31.84933 L66.84599,32.28566 L66.52583,33.27282 L66.15231,33.83311" stroke="#FFFFFF" stroke-width="0.08" fill="none" />
  <path d="M72.19727,45.11102 L72.63986,46.38347 L73.58038,47.15801 L74.18894,48.9837 L75.68269,51.19667 L76.12528,53.35431 L75.12945,54.9587 L73.4144,57.39296 L72.68806,57.97794" stroke="#FFFFFF" stroke-width="0.08" fill="none" />
  <path d="M54.08204,54.70329 L56.59357,57.15088" stroke="#FFFFFF" stroke-width="0.08" fill="none" />
  <path d="M53.48837,62.53878 L57.8256,62.53054" stroke="#FFFFFF" stroke-width="0.08" fill="none" />
  <path d="M73.99482,61.49088 L74.94876,61.72936" stroke="#FFFFFF" stroke-width="0.08" fill="none" />
  <path d="M41.09932,49.70581 L43.17842,49.23561" stroke="#FFFFFF" stroke-width="0.08" fill="none" />
  <path d="M37.88025,50.72497 C42.89046,54.81962 46.3438,57.80274 48.24025,59.67434 L47.66161,60.17503 L46.23199,61.71119 L44.77775,61.66713 L43.72012,61.66713 L42.35401,61.09424 L40.76757,60.78577 L40.15061,60.78577 L39.35739,61.09424 L37.68281,62.90103 L37.63874,63.82645 L36.88959,64.53154 L35.92009,65.5451 L34.9506,65.85358 L33.49635,66.47054 L32.83533,67.17562 L31.90991,68.67393 L31.38109,70.30444 L31.38109,71.53835 L31.6455,72.37563 L32.79127,72.50784 L33.93703,72.11123 L35.65569,71.31801 L37.50654,69.77563 L38.6523,68.58579 L40.28282,67.57223 L41.64892,67.04341 L42.30994,67.88071 L43.10316,68.45359 L43.58791,68.80613 L43.49978,70.39258 L43.1913,71.09766 L43.63198,71.84682 L43.23537,73.21293 L43.49978,76.29768 L43.76418,80.08752 L43.63198,82.55533 L43.41164,85.41975 L43.80825,87.71128 L43.85232,88.72484 L43.67605,89.38586 L44.02859,89.69434 L43.54385,90.31129 L42.88283,91.06044 L41.03197,92.47062 L40.32689,93.35197 L38.91671,94.18927 L37.77095,95.33503 L36.88959,96.30453 L36.88959,97.53843 L37.2862,98.46386 L39.754,98.64013 L41.38452,98.02318 L43.0591,97.22996 L44.20486,95.95198 L45.21843,94.80622 L46.45233,94.1452 L46.6286,94.45367 L47.68623,94.54181 L49.88963,93.1757 L49.9337,92.33841 L49.84556,90.44349 L50.37437,89.65027 L49.88963,88.72484 L50.28624,87.62315 L50.28624,83.52483 L50.1981,79.47057 L50.24217,76.34175 L50.24217,73.91801 L50.33031,72.1553 L50.81506,70.78919 L51.38794,69.99596 L53.45913,68.76206 L55.30999,69.20274 L59.45237,69.37901 L60.68628,69.86376 L61.17102,69.90783 L63.19815,69.73156 L65.44561,69.46716 L67.82528,68.27732 L69.588,67.66037 L73.2897,65.58917 L74.17107,63.51798 L74.69988,62.72476 L74.94873,61.72934 L75.88972,60.78577 L78.75413,57.96542 L80.91346,55.45354 L81.48634,53.7349 L81.17786,50.4298 L80.47278,47.52132 L79.59142,44.70097 L78.66599,41.26367 L77.87277,38.884 L76.24226,36.5484 L74.92022,34.91788 L73.90665,33.86026 L71.49482,32.92606 L69.19962,32.06918 L67.73068,31.39592 L67.36345,30.84507 L67.38411,29.95534 L67.49016,28.90858 L67.27003,27.91799 L66.38994,25.66286 L65.27043,24.82323 L63.80884,24.17018 L62.12957,23.70371 L61.24426,23.54843 L60.25909,23.63799 L59.67694,23.81712 L58.05236,24.77285 L57.33043,26.21605 L56.78579,27.55532 L56.60864,28.89092 L56.40596,30.02881 L56.8083,31.43652 L56.27948,31.96533 L55.35405,33.24331 L54.95744,34.82975 L54.69304,37.03315 L54.6049,38.44332 L53.81168,40.1179 L53.01845,40.99926 L51.87268,42.27723 L50.94726,42.76198 L49.80149,44.17215 L48.74386,44.48063 L48.03878,45.18571 L47.11335,45.31792 L46.23199,46.24335 L45.35063,46.59589 L44.73368,46.9925 L44.38114,46.9925 L42.97096,47.08064 L42.13367,47.25691 L41.56079,48.35861 L41.16418,48.79929 L41.0993,49.70578 L38.44949,50.30505 L38.43365,50.59982 z" stroke="#FFFFFF" stroke-width="0.2" fill="none" />
</svg>