<?xml version="1.0" encoding="utf-8" standalone="no"?>
<!DOCTYPE svg PUBLIC "-//W3C//DTD SVG 1.1//EN" "http://www.w3.org/Graphics/SVG/1.1/DTD/svg11.dtd">
<svg version="1.1" width="120pt" height="120pt" viewBox="0 0 120 120" overflow="visible" xmlns="http://www.w3.org/2000/svg">
  <path d="M67.22447,61.13731 L66.91879,66.12375 C66.63221,67.89415 64.07213,69.26972 60.95163,69.26972 C57.84705,69.26972 55.29333,67.90689 54.99083,66.16196 L54.68515,61.2201 C54.94307,62.95548 57.53181,64.32468 60.72555,64.38518 L60.95163,64.38837 L61.27641,64.38518 L61.80817,64.35652 C64.79812,64.11134 67.05571,62.78035 67.22447,61.13731 z" stroke="Black" stroke-width="0" fill="#485C5E" fill-opacity="1" />
  <path d="M64.27273,63.79929 C64.9828,63.5159 65.57506,63.14016 65.99856,62.70393 C66.46027,62.22949 66.72137,61.68181 66.72137,61.0991 C66.72137,59.9719 65.73746,58.97525 64.24089,58.38618 L63.06593,58.02636 L62.98314,57.66655 C65.45724,58.12826 67.23721,59.42104 67.23721,60.93671 L67.22447,61.13731 C67.05571,62.78035 64.79812,64.11134 61.88778,64.35016 C62.76661,64.27374 63.57539,64.08269 64.27273,63.79929 z" stroke="Black" stroke-width="0" fill="#485C5E" fill-opacity="1" />
  <path d="M62.31446,62.22949 L61.45473,62.27407 L60.91023,62.36322 L60.86884,61.62449 L60.6746,61.07045 L61.77633,60.73292 L61.84956,61.27423 z" stroke="Black" stroke-width="0" fill="#828C8D" fill-opacity="1" />
  <path d="M64.19631,63.44585 L64.27273,63.79929 C63.57539,64.08269 62.76661,64.27374 61.88778,64.35016 L61.27641,64.38518 L60.95163,64.38837 L60.72555,64.38518 L59.19395,64.21642 L59.70343,64.00308 L60.48992,63.40763 C60.76057,63.06693 60.86565,62.68483 60.90068,62.36322 L61.45473,62.27407 L62.31446,62.22949 L63.08821,62.88224 L64.08168,63.19748 z" stroke="Black" stroke-width="0" fill="#E18D67" fill-opacity="1" />
  <path d="M64.27273,63.79929 L64.19631,63.44585 L64.08168,63.19748 L64.9446,63.15927 L65.99538,62.70075 C65.57506,63.14016 64.9828,63.5159 64.27273,63.79929 z" stroke="Black" stroke-width="0" fill="#828C8D" fill-opacity="1" />
  <path d="M60.86884,61.62449 L60.90068,62.36322 C60.86565,62.68483 60.76057,63.06693 60.48992,63.40763 L59.70343,64.00308 L59.19395,64.21642 C57.74197,63.93303 56.55426,63.32485 55.89196,62.53835 L56.12122,61.35065 C56.21992,61.05452 56.39187,60.55461 56.88224,60.15977 C57.32484,59.79995 57.82476,59.70124 58.1973,59.68533 L58.70359,59.70761 C59.506,59.80632 60.01229,60.25211 60.12055,60.35082 L60.6746,61.07045 z" stroke="Black" stroke-width="0" fill="#E18D67" fill-opacity="1" />
  <path d="M64.24089,58.38936 L63.57221,58.53265 L63.08184,58.71096 L63.0914,58.43394 L63.06276,58.02636 z" stroke="Black" stroke-width="0" fill="#828C8D" fill-opacity="1" />
  <path d="M62.98314,57.66655 L63.06274,58.02636 L63.0914,58.43394 L63.07866,58.70459 L62.25077,59.33188 C61.87504,59.79677 61.79225,60.33808 61.79225,60.73292 L60.6746,61.07045 L60.12055,60.35082 C60.01229,60.25211 59.506,59.80632 58.70359,59.70761 L58.1973,59.68533 L57.90118,58.43394 L57.95531,57.899 C58.21323,56.71448 59.29585,55.88977 60.54723,55.88977 C61.71583,55.88977 62.6679,56.6094 62.98314,57.66655 z" stroke="Black" stroke-width="0" fill="#E18D67" fill-opacity="1" />
  <path d="M58.1973,59.68533 C57.82476,59.70124 57.32484,59.79995 56.88224,60.15977 C56.39187,60.55461 56.21992,61.05452 56.12122,61.35065 L55.90151,62.5288 C55.52578,62.1053 55.3188,61.61494 55.3188,61.0991 C55.3188,59.94643 56.34729,58.93386 57.90436,58.34478 z" stroke="Black" stroke-width="0" fill="#828C8D" fill-opacity="1" />
  <path d="M59.19395,64.21642 L60.72555,64.38518 C57.53181,64.32468 54.94307,62.95548 54.68515,61.2201 L54.66604,60.93671 C54.66604,59.62482 55.99385,58.48489 57.95212,57.899 L57.90436,58.34478 C56.34729,58.93386 55.3188,59.94643 55.3188,61.0991 C55.3188,61.61494 55.52578,62.1053 55.89196,62.53835 C56.55426,63.32485 57.74197,63.93303 59.19395,64.21642 z" stroke="Black" stroke-width="0" fill="#485C5E" fill-opacity="1" />
  <path d="M62.31446,62.22949 L61.84956,61.27423 L61.79225,60.73292 C61.79225,60.33808 61.87504,59.79677 62.25077,59.33188 L63.08184,58.71096 L63.57221,58.53265 L64.24089,58.38936 C65.73746,58.97525 66.72137,59.9719 66.72137,61.0991 C66.72137,61.68181 66.46027,62.22949 65.99856,62.70393 L64.9446,63.15927 L64.08168,63.19748 L63.08821,62.88224 z" stroke="Black" stroke-width="0" fill="#E18D67" fill-opacity="1" />
  <path d="M64.27273,63.79929 C63.57539,64.08269 62.76661,64.27374 61.88778,64.35016" stroke="#FFFFFF" stroke-width="0.05" fill="none" />
  <path d="M60.48992,63.40763 L59.70343,64.00308" stroke="#FFFFFF" stroke-width="0.05" fill="none" />
  <path d="M67.22447,61.13731 C67.05571,62.78035 64.79812,64.11134 61.88778,64.35016" stroke="#FFFFFF" stroke-width="0.05" fill="none" />
  <path d="M64.19631,63.44585 L64.08168,63.19748" stroke="#FFFFFF" stroke-width="0.05" fill="none" />
  <path d="M57.90436,58.34478 C56.34729,58.93386 55.3188,59.94643 55.3188,61.0991 C55.3188,61.61494 55.52578,62.1053 55.89196,62.53835" stroke="#FFFFFF" stroke-width="0.05" fill="none" />
  <path d="M61.80817,64.35652 L61.27641,64.38518" stroke="#FFFFFF" stroke-width="0.05" fill="none" />
  <path d="M57.95531,57.899 L57.90436,58.34478" stroke="#FFFFFF" stroke-width="0.05" fill="none" />
  <path d="M63.08821,62.88224 L62.31446,62.22949" stroke="#FFFFFF" stroke-width="0.05" fill="none" />
  <path d="M64.08168,63.19748 L64.9446,63.15927" stroke="#FFFFFF" stroke-width="0.05" fill="none" />
  <path d="M54.66607,60.93673 L54.68199,61.16918" stroke="#FFFFFF" stroke-width="0.05" fill="none" />
  <path d="M57.95531,57.899 C58.21323,56.71448 59.29585,55.88977 60.54723,55.88977 C61.71583,55.88977 62.6679,56.6094 62.98314,57.66655" stroke="#FFFFFF" stroke-width="0.05" fill="none" />
  <path d="M66.91879,66.13966 C66.63221,67.89415 64.07213,69.26972 60.95163,69.26972 C57.84705,69.26972 55.29333,67.90689 54.99083,66.16196" stroke="#FFFFFF" stroke-width="0.05" fill="none" />
  <path d="M65.99856,62.70393 C65.57506,63.14016 64.9828,63.5159 64.27273,63.79929" stroke="#FFFFFF" stroke-width="0.05" fill="none" />
  <path d="M60.72555,64.38518 L59.19395,64.21642" stroke="#FFFFFF" stroke-width="0.05" fill="none" />
  <path d="M64.9446,63.15927 L65.99538,62.70075" stroke="#FFFFFF" stroke-width="0.05" fill="none" />
  <path d="M63.07866,58.70459 L63.0914,58.43394 L63.06274,58.02636" stroke="#FFFFFF" stroke-width="0.05" fill="none" />
  <path d="M63.57221,58.53265 L64.24089,58.38936" stroke="#FFFFFF" stroke-width="0.05" fill="none" />
  <path d="M54.99083,66.16196 L54.68515,61.2201" stroke="#FFFFFF" stroke-width="0.05" fill="none" />
  <path d="M63.44484,59.57706 L63.82058,59.57706" stroke="#FFFFFF" stroke-width="0.05" fill="none" />
  <path d="M61.79225,60.73292 L61.84956,61.27423" stroke="#FFFFFF" stroke-width="0.05" fill="none" />
  <path d="M60.86884,61.62449 L60.90068,62.36322" stroke="#FFFFFF" stroke-width="0.05" fill="none" />
  <path d="M67.23723,60.93673 L67.22449,61.13734" stroke="#FFFFFF" stroke-width="0.05" fill="none" />
  <path d="M61.84956,61.27423 L61.79225,60.73292 C61.79225,60.33808 61.87504,59.79677 62.25077,59.33188" stroke="#FFFFFF" stroke-width="0.05" fill="none" />
  <path d="M60.90068,62.36322 C60.86565,62.68483 60.76057,63.06693 60.48992,63.40763" stroke="#FFFFFF" stroke-width="0.05" fill="none" />
  <path d="M56.88224,60.15977 C57.32484,59.79995 57.82476,59.70124 58.1973,59.68533" stroke="#FFFFFF" stroke-width="0.05" fill="none" />
  <path d="M58.70359,59.70761 L58.1973,59.68533" stroke="#FFFFFF" stroke-width="0.05" fill="none" />
  <path d="M54.66604,60.93671 C54.66604,59.62482 55.99385,58.48489 57.95212,57.899" stroke="#FFFFFF" stroke-width="0.05" fill="none" />
  <path d="M61.27641,64.38518 L60.95163,64.38837 L60.72555,64.38518" stroke="#FFFFFF" stroke-width="0.05" fill="none" />
  <path d="M62.98314,57.66655 C65.45724,58.12826 67.23721,59.42104 67.23721,60.93671" stroke="#FFFFFF" stroke-width="0.05" fill="none" />
  <path d="M60.6746,61.07045 L60.86884,61.62449" stroke="#FFFFFF" stroke-width="0.05" fill="none" />
  <path d="M55.90151,62.5288 L56.12122,61.35065" stroke="#FFFFFF" stroke-width="0.05" fill="none" />
  <path d="M61.77633,60.73292 L60.6746,61.07045" stroke="#FFFFFF" stroke-width="0.05" fill="none" />
  <path d="M59.77029,57.54237 L59.86582,57.19529" stroke="#FFFFFF" stroke-width="0.05" fill="none" />
  <path d="M62.98314,57.66655 C62.6679,56.6094 61.71583,55.88977 60.54723,55.88977 C59.29585,55.88977 58.21323,56.71448 57.95531,57.899 C55.99385,58.48489 54.66604,59.62482 54.66604,60.93671 L54.68196,61.16916 L54.99083,66.16196 C55.29333,67.90689 57.84705,69.26972 60.95163,69.26972 C64.07213,69.26972 66.63221,67.89415 66.91879,66.13966 L67.22447,61.13731 L67.23721,60.93671 C67.23721,59.42104 65.45724,58.12826 62.98314,57.66655 z" stroke="#FFFFFF" stroke-width="0.05" fill="none" />
  <path d="M63.08821,62.88224 L64.08168,63.19748" stroke="#FFFFFF" stroke-width="0.05" fill="none" />
  <path d="M59.53148,57.58058 L59.77029,57.54237" stroke="#FFFFFF" stroke-width="0.05" fill="none" />
  <path d="M56.12122,61.35065 C56.21992,61.05452 56.39187,60.55461 56.88224,60.15977" stroke="#FFFFFF" stroke-width="0.05" fill="none" />
  <path d="M63.06274,58.02636 L62.98314,57.66655" stroke="#FFFFFF" stroke-width="0.05" fill="none" />
  <path d="M63.08184,58.71096 L62.25077,59.33188" stroke="#FFFFFF" stroke-width="0.05" fill="none" />
  <path d="M63.57221,58.53265 L63.08184,58.71096" stroke="#FFFFFF" stroke-width="0.05" fill="none" />
  <path d="M64.19631,63.44585 L64.27273,63.79929" stroke="#FFFFFF" stroke-width="0.05" fill="none" />
  <path d="M67.22447,61.13731 L66.91879,66.12375" stroke="#FFFFFF" stroke-width="0.05" fill="none" />
  <path d="M54.68196,61.16916 L54.66604,60.93671" stroke="#FFFFFF" stroke-width="0.05" fill="none" />
  <path d="M62.02788,63.24843 L62.26669,63.52864" stroke="#FFFFFF" stroke-width="0.05" fill="none" />
  <path d="M54.68515,61.2201 C54.94307,62.95548 57.53181,64.32468 60.72555,64.38518" stroke="#FFFFFF" stroke-width="0.05" fill="none" />
  <path d="M62.26669,63.52864 C62.53098,63.68784 62.82074,63.56048 62.8494,63.54774" stroke="#FFFFFF" stroke-width="0.05" fill="none" />
  <path d="M61.45473,62.27407 L60.91023,62.36322" stroke="#FFFFFF" stroke-width="0.05" fill="none" />
  <path d="M54.68196,61.16916 L54.66604,60.93671 C54.66604,59.62482 55.99385,58.48489 57.95212,57.899" stroke="#FFFFFF" stroke-width="0.05" fill="none" />
  <path d="M67.22449,61.13734 L66.91881,66.12377" stroke="#FFFFFF" stroke-width="0.05" fill="none" />
  <path d="M61.84956,61.27423 L62.31446,62.22949" stroke="#FFFFFF" stroke-width="0.05" fill="none" />
  <path d="M61.27641,64.38518 L61.80817,64.35652" stroke="#FFFFFF" stroke-width="0.05" fill="none" />
  <path d="M62.25077,59.33188 C61.87504,59.79677 61.79225,60.33808 61.79225,60.73292" stroke="#FFFFFF" stroke-width="0.05" fill="none" />
  <path d="M58.1973,59.65985 L57.90118,58.43394" stroke="#FFFFFF" stroke-width="0.05" fill="none" />
  <path d="M54.68517,61.22013 L54.99086,66.16198" stroke="#FFFFFF" stroke-width="0.05" fill="none" />
  <path d="M59.19395,64.21642 C57.74197,63.93303 56.55426,63.32485 55.89196,62.53835" stroke="#FFFFFF" stroke-width="0.05" fill="none" />
  <path d="M61.45473,62.27407 L62.31446,62.22949" stroke="#FFFFFF" stroke-width="0.05" fill="none" />
  <path d="M58.70359,59.70761 C59.506,59.80632 60.01229,60.25211 60.12055,60.35082 L60.6746,61.07045" stroke="#FFFFFF" stroke-width="0.05" fill="none" />
  <path d="M58.98061,60.78705 L59.42958,60.88258" stroke="#FFFFFF" stroke-width="0.05" fill="none" />
  <path d="M67.23721,60.93671 L67.22447,61.13731" stroke="#FFFFFF" stroke-width="0.05" fill="none" />
  <path d="M63.82058,59.57706 L64.25044,59.2873" stroke="#FFFFFF" stroke-width="0.05" fill="none" />
  <path d="M64.24089,58.38618 C65.73746,58.97525 66.72137,59.9719 66.72137,61.0991 C66.72137,61.68181 66.46027,62.22949 65.99856,62.70393" stroke="#FFFFFF" stroke-width="0.05" fill="none" />
  <path d="M58.77364,60.56734 L58.98061,60.78705" stroke="#FFFFFF" stroke-width="0.05" fill="none" />
  <path d="M59.19395,64.21642 L59.70343,64.00308" stroke="#FFFFFF" stroke-width="0.05" fill="none" />
  <path d="M64.24089,58.38618 L63.06593,58.02636" stroke="#FFFFFF" stroke-width="0.05" fill="none" />
  <path d="M62.98314,57.66655 C62.6679,56.6094 61.71583,55.88977 60.54723,55.88977 C59.29585,55.88977 58.21323,56.71448 57.95531,57.899 C55.99385,58.48489 54.66604,59.62482 54.66604,60.93671 L54.68196,61.16916 L54.99083,66.16196 C55.29333,67.90689 57.84705,69.26972 60.95163,69.26972 C64.07213,69.26972 66.63221,67.89415 66.91879,66.13966 L67.22447,61.13731 L67.23721,60.93671 C67.23721,59.42104 65.45724,58.12826 62.98314,57.66655 z" stroke="#FFFFFF" stroke-width="0.2" fill="none" />
</svg>