<?xml version="1.0" encoding="utf-8" standalone="no"?>
<!DOCTYPE svg PUBLIC "-//W3C//DTD SVG 1.1//EN" "http://www.w3.org/Graphics/SVG/1.1/DTD/svg11.dtd">
<svg version="1.1" width="240pt" height="240pt" viewBox="0 0 240 240" overflow="visible" xmlns="http://www.w3.org/2000/svg">
  <path d="M83.11515,135.6282 L82.86934,135.8721 L82.19323,136.0338 L81.51711,135.8721 L81.27097,135.6275 L80.99836,135.1888 L80.99836,121.6681 L71.6275,116.2578 L71.6275,115.0868 L80.99836,109.6765 L80.99857,105.7352 L81.34843,105.2294 C81.72213,104.9649 82.66499,104.9649 83.0387,105.2294 L83.38876,105.7173 L83.38876,108.2964 L140.4147,75.37246 L140.4149,71.43111 L140.7648,70.92532 C141.1385,70.66088 142.0814,70.66088 142.4551,70.92532 L142.8051,71.41325 L142.8053,73.99205 L154.4506,67.26883 L173.8887,78.49142 L173.8887,79.66247 L164.5233,85.0695 L164.5232,113.4258 L164.252,113.8635 L164.006,114.1078 L163.3299,114.2695 L162.6538,114.1079 L162.4097,113.8675 L162.1328,113.4258 L162.1328,89.31872 L159.6483,87.88425 L142.8051,97.60858 L142.8051,100.8847 L142.5321,101.3237 L142.2861,101.5678 L141.61,101.7295 L140.9339,101.5678 L140.6881,101.3239 L140.4147,100.8847 L140.4147,98.98868 L105.1069,119.3736 L105.1068,147.7299 L104.8353,148.1678 L104.5893,148.4121 L103.9132,148.5738 L103.2371,148.4121 L102.9927,148.1711 L102.7164,147.7299 L102.7164,123.6188 L100.2353,122.1863 L91.06558,127.4804 L83.38876,123.0482 L83.38876,135.1888 z" stroke="Black" stroke-width="0" fill="#FFFFFF" fill-opacity="1" />
  <path d="M83.11515,135.6282 L82.86934,135.8721 L82.19323,136.0338 L81.51711,135.8721 L81.27097,135.6275 C81.1087,135.5159 80.99632,135.3548 80.99836,135.1888 L80.99836,121.6681 L71.6275,116.2578 L71.6275,115.0868 L80.99836,109.6765 L80.99857,105.7352 C80.99516,105.5249 81.14766,105.3421 81.34843,105.2294 C81.72213,104.9649 82.66499,104.9649 83.0387,105.2294 C83.23946,105.3421 83.39197,105.5249 83.38876,105.7173 L83.38876,108.2964 L140.4147,75.37246 L140.4149,71.43111 C140.4115,71.2208 140.564,71.03805 140.7648,70.92532 C141.1385,70.66088 142.0814,70.66088 142.4551,70.92532 C142.6558,71.03805 142.8083,71.2208 142.8051,71.41325 L142.8053,73.99205 L154.4506,67.26883 L173.8887,78.49142 L173.8887,79.66247 L164.5233,85.0695 L164.5232,113.4258 C164.5252,113.5914 164.4136,113.752 164.252,113.8635 L164.006,114.1078 L163.3299,114.2695 L162.6538,114.1079 L162.4097,113.8675 C162.2452,113.7557 162.1307,113.5934 162.1328,113.4258 L162.1328,89.31872 L159.6483,87.88425 L142.8051,97.60858 L142.8051,100.8847 C142.8072,101.0509 142.6946,101.2121 142.5321,101.3237 L142.2861,101.5678 L141.61,101.7295 L140.9339,101.5678 L140.6881,101.3239 C140.5254,101.2123 140.4127,101.051 140.4147,100.8847 L140.4147,98.98868 L105.1069,119.3736 L105.1068,147.7299 C105.1089,147.8955 104.997,148.0562 104.8353,148.1678 L104.5893,148.4121 L103.9132,148.5738 L103.2371,148.4121 L102.9927,148.1711 C102.8285,148.0593 102.7144,147.8972 102.7164,147.7299 L102.7164,123.6188 L100.2353,122.1863 L91.06558,127.4804 L83.38876,123.0482 L83.38876,135.1888 C83.39082,135.3552 83.27795,135.5165 83.11515,135.6282 z" stroke="#000000" stroke-width="0.48" fill="none" />
  <path d="M91.06561,127.4805 L71.62753,116.2579" stroke="#000000" stroke-width="0.24" fill="none" />
  <path d="M83.38876,135.1888 C83.39197,135.3812 83.23946,135.564 83.0387,135.6767 C82.66499,135.9412 81.72213,135.9412 81.34843,135.6767 C81.14766,135.564 80.99516,135.3812 80.99836,135.1888" stroke="#000000" stroke-width="0.24" fill="none" />
  <path d="M100.2353,122.1863 L103.0665,123.8209" stroke="#000000" stroke-width="0.24" fill="none" />
  <path d="M101.926,121.2107 L103.0665,121.8692" stroke="#000000" stroke-width="0.24" fill="none" />
  <path d="M102.7167,120.7537 L91.06561,127.4805" stroke="#000000" stroke-width="0.24" fill="none" />
  <path d="M162.1332,86.44955 L105.107,119.3737" stroke="#000000" stroke-width="0.24" fill="none" />
  <path d="M71.62753,115.0868 L154.4507,67.26886" stroke="#000000" stroke-width="0.24" fill="none" />
  <path d="M91.06561,126.3094 L71.62753,115.0868" stroke="#000000" stroke-width="0.24" fill="none" />
  <path d="M162.1328,87.36697 L162.1328,83.95435" stroke="#000000" stroke-width="0.24" fill="none" />
  <path d="M140.6881,101.3239 L140.9339,101.5678 L141.61,101.7295 L142.2861,101.5678 L142.532,101.3236" stroke="#000000" stroke-width="0.24" fill="none" />
  <path d="M83.38876,105.7173 L83.38876,108.2964" stroke="#000000" stroke-width="0.24" fill="none" />
  <path d="M164.5232,83.95435 L164.5232,113.4258" stroke="#000000" stroke-width="0.24" fill="none" />
  <path d="M142.8051,97.60858 L142.8051,100.8847" stroke="#000000" stroke-width="0.24" fill="none" />
  <path d="M102.7164,118.2584 C102.7132,118.0659 102.8657,117.8832 103.0665,117.7705 C103.4402,117.506 104.3831,117.506 104.7568,117.7705" stroke="#000000" stroke-width="0.24" fill="none" />
  <path d="M102.7164,147.7299 L102.7164,123.6188" stroke="#000000" stroke-width="0.24" fill="none" />
  <path d="M105.1068,147.7299 C105.1101,147.9223 104.9576,148.1051 104.7568,148.2178 C104.3831,148.4823 103.4402,148.4823 103.0665,148.2178 C102.8657,148.1051 102.7132,147.9223 102.7164,147.7299" stroke="#000000" stroke-width="0.24" fill="none" />
  <path d="M104.5843,117.87 L104.8644,118.2604" stroke="#000000" stroke-width="0.24" fill="none" />
  <path d="M162.4795,87.56711 L162.4795,89.51886" stroke="#000000" stroke-width="0.24" fill="none" />
  <path d="M105.1068,118.2584 L105.1068,147.7299" stroke="#000000" stroke-width="0.24" fill="none" />
  <path d="M162.4795,87.56711 L161.3389,86.90861" stroke="#000000" stroke-width="0.24" fill="none" />
  <path d="M104.7568,117.7705 C104.9576,117.8832 105.1101,118.0659 105.1068,118.2584" stroke="#000000" stroke-width="0.24" fill="none" />
  <path d="M102.7168,119.5826 L91.06561,126.3094" stroke="#000000" stroke-width="0.24" fill="none" />
  <path d="M102.9927,148.1711 L103.2371,148.4121 L103.9132,148.5738 L104.5893,148.4121 L104.8353,148.1678" stroke="#000000" stroke-width="0.24" fill="none" />
  <path d="M83.38876,105.7173 C83.39197,105.9098 83.23946,106.0925 83.0387,106.2053 C82.66499,106.4697 81.72213,106.4697 81.34843,106.2053 C81.14766,106.0925 80.99516,105.9098 80.99836,105.7173" stroke="#000000" stroke-width="0.24" fill="none" />
  <path d="M164.5232,113.4258 C164.5264,113.6183 164.3739,113.801 164.1732,113.9138 C163.7995,114.1782 162.8566,114.1782 162.4829,113.9138 C162.2821,113.801 162.1296,113.6183 162.1328,113.4258" stroke="#000000" stroke-width="0.24" fill="none" />
  <path d="M164.1732,83.46641 C164.3739,83.57914 164.5264,83.76189 164.5232,83.95435" stroke="#000000" stroke-width="0.24" fill="none" />
  <path d="M142.8051,100.8847 C142.8083,101.0772 142.6558,101.2599 142.4551,101.3727 C142.0814,101.6371 141.1385,101.6371 140.7648,101.3727 C140.564,101.2599 140.4115,101.0772 140.4147,100.8847" stroke="#000000" stroke-width="0.24" fill="none" />
  <path d="M83.0387,105.2294 C83.23946,105.3421 83.39197,105.5249 83.38876,105.7173" stroke="#000000" stroke-width="0.24" fill="none" />
  <path d="M103.0665,121.8692 L103.0665,123.8209" stroke="#000000" stroke-width="0.24" fill="none" />
  <path d="M102.7164,121.667 L102.7164,118.2584" stroke="#000000" stroke-width="0.24" fill="none" />
  <path d="M162.4795,89.51886 L159.6484,87.88435" stroke="#000000" stroke-width="0.24" fill="none" />
  <path d="M162.1328,113.4258 L162.1328,89.31872" stroke="#000000" stroke-width="0.24" fill="none" />
  <path d="M105.1068,118.2584 C105.1101,118.4509 104.9576,118.6336 104.7568,118.7463 C104.3831,119.0108 103.4402,119.0108 103.0665,118.7463 C102.8657,118.6336 102.7132,118.4509 102.7164,118.2584" stroke="#000000" stroke-width="0.24" fill="none" />
  <path d="M164.5232,83.95435 C164.5264,84.1468 164.3739,84.32955 164.1732,84.44228 C163.7995,84.70673 162.8566,84.70673 162.4829,84.44228 C162.2821,84.32955 162.1296,84.1468 162.1328,83.95435" stroke="#000000" stroke-width="0.24" fill="none" />
  <path d="M162.4097,113.8675 L162.6538,114.1079 L163.3299,114.2695 L164.006,114.1078 L164.252,113.8635" stroke="#000000" stroke-width="0.24" fill="none" />
  <path d="M162.1328,83.95435 C162.1296,83.76189 162.2821,83.57914 162.4829,83.46641 C162.8566,83.20197 163.7995,83.20197 164.1732,83.46641" stroke="#000000" stroke-width="0.24" fill="none" />
  <path d="M164.2807,83.95634 L164.0007,84.34669 L163.3246,84.50838 L162.6485,84.3467 L162.3684,83.95634 L162.6485,83.56599 L163.3246,83.4043 L164.0007,83.56599" stroke="#000000" stroke-width="0.24" fill="none" />
  <path d="M91.06561,127.4805 L91.06561,126.3094" stroke="#000000" stroke-width="0.24" fill="none" />
  <path d="M173.8887,79.66249 L173.8887,78.49144" stroke="#000000" stroke-width="0.24" fill="none" />
  <path d="M140.4147,75.37246 L140.4147,71.41325" stroke="#000000" stroke-width="0.24" fill="none" />
  <path d="M173.8887,78.49144 L164.5197,83.90066" stroke="#000000" stroke-width="0.24" fill="none" />
  <path d="M142.4551,70.92532 C142.6558,71.03805 142.8083,71.2208 142.8051,71.41325" stroke="#000000" stroke-width="0.24" fill="none" />
  <path d="M162.133,85.27864 L105.1037,118.2045" stroke="#000000" stroke-width="0.24" fill="none" />
  <path d="M154.4507,67.26886 L173.8887,78.49144" stroke="#000000" stroke-width="0.24" fill="none" />
  <path d="M173.8887,79.66249 L164.5235,85.06953" stroke="#000000" stroke-width="0.24" fill="none" />
  <path d="M142.2807,71.02599 L142.5608,71.41634" stroke="#000000" stroke-width="0.24" fill="none" />
  <path d="M71.62753,116.2579 L71.62753,115.0868" stroke="#000000" stroke-width="0.24" fill="none" />
  <path d="M104.8644,118.2604 L104.5843,118.6508 L103.9082,118.8124 L103.2321,118.6508 L102.952,118.2604 L103.2321,117.8701 L103.9082,117.7084 L104.5843,117.87" stroke="#000000" stroke-width="0.24" fill="none" />
  <path d="M140.4147,100.8847 L140.4147,98.98853" stroke="#000000" stroke-width="0.24" fill="none" />
  <path d="M142.8051,71.41325 L142.8051,73.99187" stroke="#000000" stroke-width="0.24" fill="none" />
  <path d="M80.99836,109.6765 L80.99836,105.7173" stroke="#000000" stroke-width="0.24" fill="none" />
  <path d="M140.4147,71.41325 C140.4115,71.2208 140.564,71.03805 140.7648,70.92532 C141.1385,70.66088 142.0814,70.66088 142.4551,70.92532" stroke="#000000" stroke-width="0.24" fill="none" />
  <path d="M82.86434,105.33 L83.14439,105.7204" stroke="#000000" stroke-width="0.24" fill="none" />
  <path d="M142.8051,71.41325 C142.8083,71.60571 142.6558,71.78847 142.4551,71.90119 C142.0814,72.16563 141.1385,72.16563 140.7648,71.90119 C140.564,71.78847 140.4115,71.60571 140.4147,71.41325" stroke="#000000" stroke-width="0.24" fill="none" />
  <path d="M80.99836,135.1888 L80.99836,121.6681" stroke="#000000" stroke-width="0.24" fill="none" />
  <path d="M142.5608,71.41634 L142.2807,71.80669 L141.6046,71.96839 L140.9285,71.8067 L140.6484,71.41634 L140.9285,71.02599 L141.6046,70.8643 L142.2807,71.02599" stroke="#000000" stroke-width="0.24" fill="none" />
  <path d="M81.27097,135.6275 L81.51711,135.8721 L82.19323,136.0338 L82.86934,135.8721 L83.11515,135.6282" stroke="#000000" stroke-width="0.24" fill="none" />
  <path d="M164.0007,83.56599 L164.2807,83.95634" stroke="#000000" stroke-width="0.24" fill="none" />
  <path d="M80.99836,105.7173 C80.99516,105.5249 81.14766,105.3421 81.34843,105.2294 C81.72213,104.9649 82.66499,104.9649 83.0387,105.2294" stroke="#000000" stroke-width="0.24" fill="none" />
  <path d="M83.14439,105.7204 L82.86433,106.1108 L82.18822,106.2724 L81.51212,106.1108 L81.23206,105.7204 L81.51212,105.3301 L82.18823,105.1684 L82.86434,105.33" stroke="#000000" stroke-width="0.24" fill="none" />
  <path d="M83.38876,123.0482 L83.38876,135.1888" stroke="#000000" stroke-width="0.24" fill="none" />
</svg>