<?xml version="1.0" encoding="utf-8" standalone="no"?>
<!DOCTYPE svg PUBLIC "-//W3C//DTD SVG 1.1//EN" "http://www.w3.org/Graphics/SVG/1.1/DTD/svg11.dtd">
<svg version="1.1" width="240pt" height="240pt" viewBox="0 0 240 240" overflow="visible" xmlns="http://www.w3.org/2000/svg">
  <path d="M173.8887,116.2578 L164.5179,121.6681 L164.5178,139.4405 L173.8887,144.851 L173.8887,146.0221 L154.4506,157.2447 L145.2808,151.9506 L142.7998,153.383 L142.7998,159.4404 C142.803,159.6329 142.6505,159.8156 142.4497,159.9283 C142.076,160.1928 141.1331,160.1928 140.7594,159.9283 C140.5587,159.8156 140.4062,159.6329 140.4094,159.4404 L140.4093,149.1379 L85.86793,117.6485 L83.38685,119.081 L83.38685,125.1383 C83.39005,125.3308 83.23755,125.5135 83.03678,125.6263 C82.66308,125.8907 81.72021,125.8907 81.34651,125.6263 C81.14574,125.5135 80.99324,125.3308 80.99644,125.1383 L80.99643,114.8358 L71.6275,109.4267 L71.6275,108.2557 L80.99644,102.8465 L80.99638,85.07155 L71.6275,79.66247 L71.6275,78.49142 L91.06558,67.26883 L102.7183,73.99651 L102.7185,71.43526 C102.715,71.22495 102.8675,71.04219 103.0683,70.92946 C103.442,70.66502 104.3849,70.66502 104.7586,70.92946 C104.9594,71.04219 105.1119,71.22495 105.1087,71.4174 L105.1086,75.37659 L162.1275,108.2964 L162.1277,105.7352 C162.1243,105.5249 162.2767,105.3421 162.4775,105.2294 C162.8512,104.9649 163.7941,104.9649 164.1678,105.2294 C164.3686,105.3421 164.5211,105.5249 164.5179,105.7173 L164.5179,109.6765 L173.8887,115.0868 z M154.4506,127.4804 L145.2808,122.1863 L142.7998,123.6188 L142.7998,126.9018 L162.1274,138.0606 L162.1275,123.0482 z M91.06558,97.03307 L102.7183,103.7607 L102.7183,97.61272 L85.86794,87.88424 L83.38685,89.31673 L83.38685,101.4664 z M105.1087,105.1408 L140.4092,125.5215 L140.4093,119.3736 L105.1087,98.99282 z" stroke="Black" stroke-width="0" fill="#FFFFFF" fill-opacity="1" />
  <path d="M173.8887,116.2578 L173.8887,115.0868 L164.5179,109.6765 L164.5179,105.7173 C164.5211,105.5249 164.3686,105.3421 164.1678,105.2294 C163.7941,104.9649 162.8512,104.9649 162.4775,105.2294 C162.2767,105.3421 162.1243,105.5249 162.1275,105.7173 L162.1275,108.2964 L105.1086,75.37659 L105.1087,71.4174 C105.1119,71.22495 104.9594,71.04219 104.7586,70.92946 C104.3849,70.66502 103.442,70.66502 103.0683,70.92946 C102.8675,71.04219 102.715,71.22495 102.7183,71.4174 L102.7183,73.99651 L91.06558,67.26883 L71.6275,78.49142 L71.6275,79.66247 L80.99638,85.07155 L80.99644,102.8465 L71.6275,108.2557 L71.6275,109.4267 L80.99643,114.8358 L80.99644,125.1383 C80.99324,125.3308 81.14574,125.5135 81.34651,125.6263 C81.72021,125.8907 82.66308,125.8907 83.03678,125.6263 C83.23755,125.5135 83.39005,125.3308 83.38685,125.1383 L83.38685,119.081 L85.86793,117.6485 L140.4093,149.1379 L140.4094,159.4404 C140.4062,159.6329 140.5587,159.8156 140.7594,159.9283 C141.1331,160.1928 142.076,160.1928 142.4497,159.9283 C142.6505,159.8156 142.803,159.6329 142.7998,159.4404 L142.7998,153.383 L145.2808,151.9506 L154.4506,157.2447 L173.8887,146.0221 L173.8887,144.851 L164.5178,139.4405 L164.5179,121.6681 z" stroke="#000000" stroke-width="0.48" fill="none" />
  <path d="M105.1087,105.1409 L105.1087,98.99284 L140.4093,119.3736 L140.4092,125.5216 z" stroke="#000000" stroke-width="0.48" fill="none" />
  <path d="M145.2809,122.1863 L154.4507,127.4805 L162.1275,123.0482 L162.1275,138.0607 L142.7998,126.9018 L142.7998,123.6188 z" stroke="#000000" stroke-width="0.48" fill="none" />
  <path d="M85.86797,87.88426 L102.7183,97.61275 L102.7183,103.7608 L91.06561,97.0331 L83.38687,101.4664 L83.38687,89.31675 z" stroke="#000000" stroke-width="0.48" fill="none" />
  <path d="M162.3718,105.7204 L162.6519,106.1108 L163.328,106.2724 L164.0041,106.1108 L164.2841,105.7204 L164.0041,105.3301 L163.328,105.1684 L162.6519,105.33" stroke="#000000" stroke-width="0.24" fill="none" />
  <path d="M102.7183,71.4174 L102.7183,73.99651" stroke="#000000" stroke-width="0.24" fill="none" />
  <path d="M162.4775,105.2294 C162.2767,105.3421 162.1243,105.5249 162.1275,105.7173" stroke="#000000" stroke-width="0.24" fill="none" />
  <path d="M91.06561,67.26886 L71.62753,78.49144" stroke="#000000" stroke-width="0.24" fill="none" />
  <path d="M71.62753,108.2557 L80.99634,113.6648" stroke="#000000" stroke-width="0.24" fill="none" />
  <path d="M105.1087,105.1408 L105.1087,98.99282" stroke="#000000" stroke-width="0.24" fill="none" />
  <path d="M71.62753,79.66249 L71.62753,78.49144" stroke="#000000" stroke-width="0.24" fill="none" />
  <path d="M80.99647,102.8465 L71.62753,108.2557" stroke="#000000" stroke-width="0.24" fill="none" />
  <path d="M164.5179,139.4404 L164.5179,121.6679" stroke="#000000" stroke-width="0.24" fill="none" />
  <path d="M142.7994,119.5825 L154.4507,126.3094" stroke="#000000" stroke-width="0.24" fill="none" />
  <path d="M105.1087,75.37657 L105.1087,71.4174" stroke="#000000" stroke-width="0.24" fill="none" />
  <path d="M102.7183,97.61235 L102.7183,103.7607" stroke="#000000" stroke-width="0.24" fill="none" />
  <path d="M140.4091,125.5216 L91.06561,97.0331" stroke="#000000" stroke-width="0.24" fill="none" />
  <path d="M162.6519,105.33 L162.3718,105.7204" stroke="#000000" stroke-width="0.24" fill="none" />
  <path d="M162.1275,123.0482 L162.1275,138.0606" stroke="#000000" stroke-width="0.24" fill="none" />
  <path d="M83.0368,117.3313 L84.17742,116.6728" stroke="#000000" stroke-width="0.24" fill="none" />
  <path d="M162.1275,105.7173 L162.1275,108.2964" stroke="#000000" stroke-width="0.24" fill="none" />
  <path d="M140.9319,117.87 L140.6518,118.2604 L140.9319,118.6508 L141.608,118.8124 L142.2841,118.6508 L142.5642,118.2604 L142.2841,117.8701 L141.608,117.7084 z" stroke="#000000" stroke-width="0.24" fill="none" />
  <path d="M142.7998,118.2584 C142.803,118.0659 142.6505,117.8832 142.4497,117.7705 C142.076,117.506 141.1331,117.506 140.7594,117.7705" stroke="#000000" stroke-width="0.24" fill="none" />
  <path d="M173.8887,144.8511 L142.7993,126.9016" stroke="#000000" stroke-width="0.24" fill="none" />
  <path d="M142.7995,120.7537 L154.4507,127.4805" stroke="#000000" stroke-width="0.24" fill="none" />
  <path d="M142.7996,150.5179 L154.4507,157.2447" stroke="#000000" stroke-width="0.24" fill="none" />
  <path d="M162.1275,105.7173 C162.1243,105.9098 162.2767,106.0925 162.4775,106.2053 C162.8512,106.4697 163.7941,106.4697 164.1678,106.2053 C164.3686,106.0925 164.5211,105.9098 164.5179,105.7173" stroke="#000000" stroke-width="0.24" fill="none" />
  <path d="M104.7586,71.90533 C104.3849,72.16978 103.442,72.16978 103.0683,71.90533 C102.8675,71.79261 102.715,71.60986 102.7183,71.4174" stroke="#000000" stroke-width="0.24" fill="none" />
  <path d="M142.7995,149.3468 L154.4507,156.0736" stroke="#000000" stroke-width="0.24" fill="none" />
  <path d="M83.38685,117.1289 L83.38685,89.31673" stroke="#000000" stroke-width="0.24" fill="none" />
  <path d="M104.5873,71.80647 L104.8674,71.41612 L104.5873,71.02576 L103.9112,70.86407 L103.2351,71.02576 L102.955,71.41611 L103.2351,71.80647 L103.9112,71.96816 z" stroke="#000000" stroke-width="0.24" fill="none" />
  <path d="M83.0368,87.56711 L84.17776,86.90837" stroke="#000000" stroke-width="0.24" fill="none" />
  <path d="M80.99644,83.95634 L80.99644,125.1383" stroke="#000000" stroke-width="0.24" fill="none" />
  <path d="M154.4507,157.2447 L154.4507,156.0736" stroke="#000000" stroke-width="0.24" fill="none" />
  <path d="M173.8887,146.0221 L173.8887,144.8511" stroke="#000000" stroke-width="0.24" fill="none" />
  <path d="M154.4507,157.2447 L173.8887,146.0221" stroke="#000000" stroke-width="0.24" fill="none" />
  <path d="M142.4497,121.8692 L142.4497,123.8209" stroke="#000000" stroke-width="0.24" fill="none" />
  <path d="M83.0368,117.3313 L83.0368,119.2831" stroke="#000000" stroke-width="0.24" fill="none" />
  <path d="M83.03678,84.44427 C82.66308,84.70872 81.72021,84.70872 81.34651,84.44427 C81.14574,84.33155 80.99324,84.1488 80.99644,83.95634" stroke="#000000" stroke-width="0.24" fill="none" />
  <path d="M140.4094,159.4404 C140.4062,159.6329 140.5587,159.8156 140.7594,159.9283 C141.1331,160.1928 142.076,160.1928 142.4497,159.9283 C142.6505,159.8156 142.803,159.6329 142.7998,159.4404" stroke="#000000" stroke-width="0.24" fill="none" />
  <path d="M83.38661,115.0448 L140.4092,147.9668" stroke="#000000" stroke-width="0.24" fill="none" />
  <path d="M154.4507,156.0736 L173.8887,144.8511" stroke="#000000" stroke-width="0.24" fill="none" />
  <path d="M83.38685,125.1383 L83.38685,119.081" stroke="#000000" stroke-width="0.24" fill="none" />
  <path d="M164.5179,109.6765 L164.5179,105.7173" stroke="#000000" stroke-width="0.24" fill="none" />
  <path d="M173.8887,116.2579 L173.8887,115.0868" stroke="#000000" stroke-width="0.24" fill="none" />
  <path d="M80.99644,83.95634 C80.99324,83.76389 81.14574,83.58113 81.34651,83.4684 C81.72021,83.20396 82.66308,83.20396 83.03678,83.4684 C83.23755,83.58113 83.39005,83.76389 83.38685,83.95634" stroke="#000000" stroke-width="0.24" fill="none" />
  <path d="M91.06561,97.0331 L83.38687,101.4664" stroke="#000000" stroke-width="0.24" fill="none" />
  <path d="M71.62753,79.66249 L80.99632,85.07157" stroke="#000000" stroke-width="0.24" fill="none" />
  <path d="M154.4507,127.4805 L173.8887,116.2579" stroke="#000000" stroke-width="0.24" fill="none" />
  <path d="M102.7183,71.4174 C102.715,71.22495 102.8675,71.04219 103.0683,70.92946 C103.442,70.66502 104.3849,70.66502 104.7586,70.92946 C104.9594,71.04219 105.1119,71.22495 105.1087,71.4174" stroke="#000000" stroke-width="0.24" fill="none" />
  <path d="M154.4507,126.3094 L173.8887,115.0868" stroke="#000000" stroke-width="0.24" fill="none" />
  <path d="M71.62753,109.4267 L80.99643,114.8359" stroke="#000000" stroke-width="0.24" fill="none" />
  <path d="M173.8887,115.0868 L91.0656,67.26886" stroke="#000000" stroke-width="0.24" fill="none" />
  <path d="M105.1087,71.4174 C105.1119,71.60986 104.9594,71.79261 104.7586,71.90533" stroke="#000000" stroke-width="0.24" fill="none" />
  <path d="M71.62753,109.4267 L71.62753,108.2557" stroke="#000000" stroke-width="0.24" fill="none" />
  <path d="M71.62753,78.49144 L80.9996,83.9024" stroke="#000000" stroke-width="0.24" fill="none" />
  <path d="M145.2808,151.9506 L142.4497,153.5852" stroke="#000000" stroke-width="0.24" fill="none" />
  <path d="M83.38685,125.1383 C83.39005,125.3308 83.23755,125.5135 83.03678,125.6263" stroke="#000000" stroke-width="0.24" fill="none" />
  <path d="M83.38685,87.36497 L83.38685,83.95634" stroke="#000000" stroke-width="0.24" fill="none" />
  <path d="M83.0368,87.56711 L83.0368,89.51886" stroke="#000000" stroke-width="0.24" fill="none" />
  <path d="M142.7998,151.431 L142.7998,123.6188" stroke="#000000" stroke-width="0.24" fill="none" />
  <path d="M82.86742,84.3465 L83.14747,83.95615 L82.86741,83.5658 L82.1913,83.40411 L81.51518,83.5658 L81.23513,83.95615 L81.51519,84.3465 L82.1913,84.50819 z" stroke="#000000" stroke-width="0.24" fill="none" />
  <path d="M83.03678,125.6263 C82.66308,125.8907 81.72021,125.8907 81.34651,125.6263 C81.14574,125.5135 80.99324,125.3308 80.99644,125.1383" stroke="#000000" stroke-width="0.24" fill="none" />
  <path d="M83.0368,89.51886 L85.86794,87.8843" stroke="#000000" stroke-width="0.24" fill="none" />
  <path d="M142.4497,151.6334 L142.4497,153.5852" stroke="#000000" stroke-width="0.24" fill="none" />
  <path d="M83.38671,116.2159 L140.4093,149.1379" stroke="#000000" stroke-width="0.24" fill="none" />
  <path d="M140.7594,117.7705 C140.5587,117.8832 140.4062,118.0659 140.4094,118.2584" stroke="#000000" stroke-width="0.24" fill="none" />
  <path d="M83.3866,86.4516 L140.4092,119.3736" stroke="#000000" stroke-width="0.24" fill="none" />
  <path d="M154.4507,127.4805 L154.4507,126.3094" stroke="#000000" stroke-width="0.24" fill="none" />
  <path d="M143.5903,150.9749 L142.4497,151.6334" stroke="#000000" stroke-width="0.24" fill="none" />
  <path d="M140.4094,118.2584 L140.4094,159.4404" stroke="#000000" stroke-width="0.24" fill="none" />
  <path d="M142.7998,159.4404 L142.7998,153.383" stroke="#000000" stroke-width="0.24" fill="none" />
  <path d="M142.7998,121.667 L142.7998,118.2584" stroke="#000000" stroke-width="0.24" fill="none" />
  <path d="M145.2808,122.1864 L142.4497,123.8209" stroke="#000000" stroke-width="0.24" fill="none" />
  <path d="M143.5907,121.2104 L142.4497,121.8692" stroke="#000000" stroke-width="0.24" fill="none" />
  <path d="M140.4094,118.2584 C140.4062,118.4509 140.5587,118.6336 140.7594,118.7463 C141.1331,119.0108 142.076,119.0108 142.4497,118.7463 C142.6505,118.6336 142.803,118.4509 142.7998,118.2584" stroke="#000000" stroke-width="0.24" fill="none" />
  <path d="M164.5179,105.7173 C164.5211,105.5249 164.3686,105.3421 164.1678,105.2294 C163.7941,104.9649 162.8512,104.9649 162.4775,105.2294" stroke="#000000" stroke-width="0.24" fill="none" />
  <path d="M83.0368,119.2831 L85.86792,117.6486" stroke="#000000" stroke-width="0.24" fill="none" />
  <path d="M83.38651,85.28049 L140.413,118.2048" stroke="#000000" stroke-width="0.24" fill="none" />
  <path d="M83.38685,83.95634 C83.39005,84.1488 83.23755,84.33155 83.03678,84.44427" stroke="#000000" stroke-width="0.24" fill="none" />
</svg>