<?xml version="1.0" encoding="utf-8" standalone="no"?>
<!DOCTYPE svg PUBLIC "-//W3C//DTD SVG 1.1//EN" "http://www.w3.org/Graphics/SVG/1.1/DTD/svg11.dtd">
<svg version="1.1" width="240pt" height="240pt" viewBox="0 0 240 240" overflow="visible" xmlns="http://www.w3.org/2000/svg">
  <path d="M71.6275,116.2578 L71.6275,115.0868 L80.99836,109.6765 L80.99836,105.7173 C80.99516,105.5249 81.14766,105.3421 81.34843,105.2294 C81.72213,104.9649 82.66499,104.9649 83.0387,105.2294 C83.23946,105.3421 83.39197,105.5249 83.38876,105.7173 L83.38876,108.2964 L140.4076,75.37659 L140.4076,71.4174 C140.4044,71.22495 140.5569,71.04219 140.7576,70.92946 C141.1313,70.66502 142.0742,70.66502 142.4479,70.92946 C142.6487,71.04219 142.8012,71.22495 142.798,71.4174 L142.798,73.99651 L154.4506,67.26883 L173.8887,78.49142 L173.8887,79.66247 L164.5198,85.07155 L164.5198,102.8465 L173.8887,108.2557 L173.8887,109.4267 L164.5198,114.8358 L164.5198,125.1383 C164.523,125.3308 164.3705,125.5135 164.1697,125.6263 C163.796,125.8907 162.8531,125.8907 162.4794,125.6263 C162.2787,125.5135 162.1262,125.3308 162.1294,125.1383 L162.1294,119.081 L159.6483,117.6485 L105.1069,149.1379 L105.1068,159.4404 C105.1101,159.6329 104.9576,159.8156 104.7568,159.9283 C104.3831,160.1928 103.4402,160.1928 103.0665,159.9283 C102.8657,159.8156 102.7132,159.6329 102.7164,159.4404 L102.7164,153.383 L100.2354,151.9506 L91.06558,157.2447 L71.6275,146.0221 L71.6275,144.851 L80.99844,139.4405 L80.99836,121.6681 z M91.06558,127.4804 L83.38876,123.0482 L83.38877,138.0606 L102.7164,126.9018 L102.7164,123.6188 L100.2354,122.1863 z M154.4506,97.03307 L162.1294,101.4664 L162.1294,89.31673 L159.6483,87.88424 L142.798,97.61272 L142.798,103.7607 z M140.4076,105.1408 L140.4076,98.99282 L105.1069,119.3736 L105.107,125.5215 z" stroke="Black" stroke-width="0" fill="#FFFFFF" fill-opacity="1" />
  <path d="M71.6275,116.2578 L71.6275,115.0868 L80.99836,109.6765 L80.99836,105.7173 C80.99516,105.5249 81.14766,105.3421 81.34843,105.2294 C81.72213,104.9649 82.66499,104.9649 83.0387,105.2294 C83.23946,105.3421 83.39197,105.5249 83.38876,105.7173 L83.38876,108.2964 L140.4076,75.37659 L140.4076,71.4174 C140.4044,71.22495 140.5569,71.04219 140.7576,70.92946 C141.1313,70.66502 142.0742,70.66502 142.4479,70.92946 C142.6487,71.04219 142.8012,71.22495 142.798,71.4174 L142.798,73.99651 L154.4506,67.26883 L173.8887,78.49142 L173.8887,79.66247 L164.5198,85.07155 L164.5198,102.8465 L173.8887,108.2557 L173.8887,109.4267 L164.5198,114.8358 L164.5198,125.1383 C164.523,125.3308 164.3705,125.5135 164.1697,125.6263 C163.796,125.8907 162.8531,125.8907 162.4794,125.6263 C162.2787,125.5135 162.1262,125.3308 162.1294,125.1383 L162.1294,119.081 L159.6483,117.6485 L105.1069,149.1379 L105.1068,159.4404 C105.1101,159.6329 104.9576,159.8156 104.7568,159.9283 C104.3831,160.1928 103.4402,160.1928 103.0665,159.9283 C102.8657,159.8156 102.7132,159.6329 102.7164,159.4404 L102.7164,153.383 L100.2354,151.9506 L91.06558,157.2447 L71.6275,146.0221 L71.6275,144.851 L80.99844,139.4405 L80.99836,121.6681 z" stroke="#000000" stroke-width="0.48" fill="none" />
  <path d="M159.6483,87.88426 L142.798,97.61275 L142.798,103.7608 L154.4507,97.0331 L162.1294,101.4664 L162.1294,89.31675 z" stroke="#000000" stroke-width="0.48" fill="none" />
  <path d="M140.4076,105.1409 L140.4076,98.99284 L105.107,119.3736 L105.107,125.5216 z" stroke="#000000" stroke-width="0.48" fill="none" />
  <path d="M100.2354,122.1863 L91.06561,127.4805 L83.38879,123.0482 L83.38879,138.0607 L102.7165,126.9018 L102.7165,123.6188 z" stroke="#000000" stroke-width="0.48" fill="none" />
  <path d="M173.8887,78.49144 L164.5167,83.9024 L164.5198,125.1383" stroke="#000000" stroke-width="0.24" fill="none" />
  <path d="M142.798,71.4174 C142.8012,71.22495 142.6487,71.04219 142.4479,70.92946 C142.0742,70.66502 141.1313,70.66502 140.7576,70.92946 C140.5569,71.04219 140.4044,71.22495 140.4076,71.4174" stroke="#000000" stroke-width="0.24" fill="none" />
  <path d="M91.06561,126.3094 L71.62753,115.0868" stroke="#000000" stroke-width="0.24" fill="none" />
  <path d="M164.5198,102.8465 L173.8887,108.2557" stroke="#000000" stroke-width="0.24" fill="none" />
  <path d="M100.2354,122.1864 L103.0665,123.8209" stroke="#000000" stroke-width="0.24" fill="none" />
  <path d="M91.06561,157.2447 L71.62753,146.0221" stroke="#000000" stroke-width="0.24" fill="none" />
  <path d="M162.1296,115.0448 L105.107,147.9668" stroke="#000000" stroke-width="0.24" fill="none" />
  <path d="M104.5843,117.87 L104.8644,118.2604" stroke="#000000" stroke-width="0.24" fill="none" />
  <path d="M162.1294,83.95634 C162.1262,84.1488 162.2787,84.33155 162.4794,84.44427" stroke="#000000" stroke-width="0.24" fill="none" />
  <path d="M100.2355,151.9506 L103.0665,153.5852" stroke="#000000" stroke-width="0.24" fill="none" />
  <path d="M162.1294,125.1383 C162.1262,125.3308 162.2787,125.5135 162.4794,125.6263 C162.8531,125.8907 163.796,125.8907 164.1697,125.6263 C164.3705,125.5135 164.523,125.3308 164.5198,125.1383" stroke="#000000" stroke-width="0.24" fill="none" />
  <path d="M154.4507,97.0331 L162.1294,101.4664" stroke="#000000" stroke-width="0.24" fill="none" />
  <path d="M162.1295,116.2159 L105.1069,149.1379" stroke="#000000" stroke-width="0.24" fill="none" />
  <path d="M140.7576,71.90533 C141.1313,72.16978 142.0742,72.16978 142.4479,71.90533 C142.6487,71.79261 142.8012,71.60986 142.798,71.4174" stroke="#000000" stroke-width="0.24" fill="none" />
  <path d="M162.1298,85.28049 L105.1033,118.2048" stroke="#000000" stroke-width="0.24" fill="none" />
  <path d="M102.7168,120.7537 L91.06561,127.4805" stroke="#000000" stroke-width="0.24" fill="none" />
  <path d="M140.4076,105.1408 L140.4076,98.99282" stroke="#000000" stroke-width="0.24" fill="none" />
  <path d="M162.4795,117.3313 L162.4795,119.2831" stroke="#000000" stroke-width="0.24" fill="none" />
  <path d="M173.8887,108.2557 L164.5199,113.6648" stroke="#000000" stroke-width="0.24" fill="none" />
  <path d="M91.06561,156.0736 L71.62753,144.8511" stroke="#000000" stroke-width="0.24" fill="none" />
  <path d="M173.8887,79.66249 L173.8887,78.49144" stroke="#000000" stroke-width="0.24" fill="none" />
  <path d="M80.99836,105.7173 C80.99516,105.5249 81.14766,105.3421 81.34843,105.2294 C81.72213,104.9649 82.66499,104.9649 83.0387,105.2294" stroke="#000000" stroke-width="0.24" fill="none" />
  <path d="M162.4795,87.56711 L162.4795,89.51886" stroke="#000000" stroke-width="0.24" fill="none" />
  <path d="M162.1297,86.4516 L105.107,119.3736" stroke="#000000" stroke-width="0.24" fill="none" />
  <path d="M91.06561,127.4805 L71.62753,116.2579" stroke="#000000" stroke-width="0.24" fill="none" />
  <path d="M105.1072,125.5216 L154.4507,97.0331" stroke="#000000" stroke-width="0.24" fill="none" />
  <path d="M162.4795,89.51886 L159.6483,87.8843" stroke="#000000" stroke-width="0.24" fill="none" />
  <path d="M104.7568,117.7705 C104.9576,117.8832 105.1101,118.0659 105.1068,118.2584" stroke="#000000" stroke-width="0.24" fill="none" />
  <path d="M162.4795,87.56711 L161.3385,86.90837" stroke="#000000" stroke-width="0.24" fill="none" />
  <path d="M83.38876,105.7173 C83.39197,105.9098 83.23946,106.0925 83.0387,106.2053 C82.66499,106.4697 81.72213,106.4697 81.34843,106.2053 C81.14766,106.0925 80.99516,105.9098 80.99836,105.7173" stroke="#000000" stroke-width="0.24" fill="none" />
  <path d="M103.0665,151.6334 L103.0665,153.5852" stroke="#000000" stroke-width="0.24" fill="none" />
  <path d="M162.1294,117.1289 L162.1294,89.31673" stroke="#000000" stroke-width="0.24" fill="none" />
  <path d="M164.5198,83.95634 C164.523,83.76389 164.3705,83.58113 164.1697,83.4684 C163.796,83.20396 162.8531,83.20396 162.4794,83.4684 C162.2787,83.58113 162.1262,83.76389 162.1294,83.95634" stroke="#000000" stroke-width="0.24" fill="none" />
  <path d="M71.62753,144.8511 L102.7169,126.9016" stroke="#000000" stroke-width="0.24" fill="none" />
  <path d="M140.9289,71.80647 L140.6488,71.41612 L140.9289,71.02576 L141.605,70.86407 L142.2811,71.02576 L142.5612,71.41611 L142.2811,71.80647 L141.605,71.96816 z" stroke="#000000" stroke-width="0.24" fill="none" />
  <path d="M142.798,71.4174 L142.798,73.99651" stroke="#000000" stroke-width="0.24" fill="none" />
  <path d="M173.8887,79.66249 L164.5199,85.07157" stroke="#000000" stroke-width="0.24" fill="none" />
  <path d="M173.8887,109.4267 L173.8887,108.2557" stroke="#000000" stroke-width="0.24" fill="none" />
  <path d="M83.14439,105.7204 L82.86433,106.1108 L82.18822,106.2724 L81.51212,106.1108 L81.23206,105.7204 L81.51212,105.3301 L82.18823,105.1684 L82.86434,105.33" stroke="#000000" stroke-width="0.24" fill="none" />
  <path d="M91.06561,127.4805 L91.06561,126.3094" stroke="#000000" stroke-width="0.24" fill="none" />
  <path d="M162.1294,87.36497 L162.1294,83.95634" stroke="#000000" stroke-width="0.24" fill="none" />
  <path d="M162.4794,84.44427 C162.8531,84.70872 163.796,84.70872 164.1697,84.44427 C164.3705,84.33155 164.523,84.1488 164.5198,83.95634" stroke="#000000" stroke-width="0.24" fill="none" />
  <path d="M103.0665,121.8692 L103.0665,123.8209" stroke="#000000" stroke-width="0.24" fill="none" />
  <path d="M71.62753,146.0221 L71.62753,144.8511" stroke="#000000" stroke-width="0.24" fill="none" />
  <path d="M102.7167,150.5179 L91.06561,157.2447 L91.06561,156.0736" stroke="#000000" stroke-width="0.24" fill="none" />
  <path d="M154.4507,67.26886 L173.8887,78.49144" stroke="#000000" stroke-width="0.24" fill="none" />
  <path d="M105.1068,118.2584 C105.1101,118.4509 104.9576,118.6336 104.7568,118.7463 C104.3831,119.0108 103.4402,119.0108 103.0665,118.7463 C102.8657,118.6336 102.7132,118.4509 102.7164,118.2584" stroke="#000000" stroke-width="0.24" fill="none" />
  <path d="M80.99836,109.6765 L80.99836,105.7173" stroke="#000000" stroke-width="0.24" fill="none" />
  <path d="M80.99836,139.4404 L80.99836,121.6679" stroke="#000000" stroke-width="0.24" fill="none" />
  <path d="M104.8644,118.2604 L104.5843,118.6508 L103.9082,118.8124 L103.2321,118.6508 L102.952,118.2604 L103.2321,117.8701 L103.9082,117.7084 L104.5843,117.87" stroke="#000000" stroke-width="0.24" fill="none" />
  <path d="M102.7164,121.667 L102.7164,118.2584" stroke="#000000" stroke-width="0.24" fill="none" />
  <path d="M142.798,97.61235 L142.798,103.7607" stroke="#000000" stroke-width="0.24" fill="none" />
  <path d="M71.62753,115.0868 L154.4507,67.26886" stroke="#000000" stroke-width="0.24" fill="none" />
  <path d="M162.1294,125.1383 L162.1294,119.081" stroke="#000000" stroke-width="0.24" fill="none" />
  <path d="M102.7164,159.4404 L102.7164,153.383" stroke="#000000" stroke-width="0.24" fill="none" />
  <path d="M83.38876,105.7173 L83.38876,108.2964" stroke="#000000" stroke-width="0.24" fill="none" />
  <path d="M162.6488,84.3465 L162.3687,83.95615 L162.6488,83.5658 L163.3249,83.40411 L164.001,83.5658 L164.2811,83.95615 L164.001,84.3465 L163.3249,84.50819 z" stroke="#000000" stroke-width="0.24" fill="none" />
  <path d="M102.7168,149.3468 L91.06561,156.0736" stroke="#000000" stroke-width="0.24" fill="none" />
  <path d="M105.1068,118.2584 L105.1068,159.4404" stroke="#000000" stroke-width="0.24" fill="none" />
  <path d="M83.0387,105.2294 C83.23946,105.3421 83.39197,105.5249 83.38876,105.7173" stroke="#000000" stroke-width="0.24" fill="none" />
  <path d="M173.8887,109.4267 L164.5198,114.8359" stroke="#000000" stroke-width="0.24" fill="none" />
  <path d="M101.9256,121.2104 L103.0665,121.8692" stroke="#000000" stroke-width="0.24" fill="none" />
  <path d="M71.62753,116.2579 L71.62753,115.0868" stroke="#000000" stroke-width="0.24" fill="none" />
  <path d="M83.38876,123.0482 L83.38876,138.0606" stroke="#000000" stroke-width="0.24" fill="none" />
  <path d="M102.7164,151.431 L102.7164,123.6188" stroke="#000000" stroke-width="0.24" fill="none" />
  <path d="M82.86434,105.33 L83.14439,105.7204" stroke="#000000" stroke-width="0.24" fill="none" />
  <path d="M102.7164,118.2584 C102.7132,118.0659 102.8657,117.8832 103.0665,117.7705 C103.4402,117.506 104.3831,117.506 104.7568,117.7705" stroke="#000000" stroke-width="0.24" fill="none" />
  <path d="M140.4076,75.37657 L140.4076,71.4174" stroke="#000000" stroke-width="0.24" fill="none" />
  <path d="M162.4795,119.2831 L159.6483,117.6486" stroke="#000000" stroke-width="0.24" fill="none" />
  <path d="M105.1068,159.4404 C105.1101,159.6329 104.9576,159.8156 104.7568,159.9283 C104.3831,160.1928 103.4402,160.1928 103.0665,159.9283 C102.8657,159.8156 102.7132,159.6329 102.7164,159.4404" stroke="#000000" stroke-width="0.24" fill="none" />
  <path d="M101.926,150.9749 L103.0665,151.6334" stroke="#000000" stroke-width="0.24" fill="none" />
  <path d="M162.4795,117.3313 L161.3388,116.6728" stroke="#000000" stroke-width="0.24" fill="none" />
  <path d="M102.7169,119.5825 L91.06561,126.3094" stroke="#000000" stroke-width="0.24" fill="none" />
  <path d="M140.4076,71.4174 C140.4044,71.60986 140.5569,71.79261 140.7576,71.90533" stroke="#000000" stroke-width="0.24" fill="none" />
</svg>