<?xml version="1.0" encoding="utf-8" standalone="no"?>
<!DOCTYPE svg PUBLIC "-//W3C//DTD SVG 1.1//EN" "http://www.w3.org/Graphics/SVG/1.1/DTD/svg11.dtd">
<svg version="1.1" width="120pt" height="120pt" viewBox="0 0 120 120" overflow="visible" xmlns="http://www.w3.org/2000/svg">
  <path d="M27.37222,70.8465 L27.37222,70.26332 L37.05223,75.85207 L37.05223,76.43525 z" stroke="Black" stroke-width="0" fill="#BBBBBB" fill-opacity="1" />
  <path d="M37.05223,76.43525 L37.05223,75.85207 L42.85418,72.50235 L42.85423,73.08548 z" stroke="Black" stroke-width="0" fill="#CCCCCC" fill-opacity="1" />
  <path d="M61.37247,61.81081 L61.37251,62.39394 L44.04464,72.39818 L44.04454,71.85164 z" stroke="Black" stroke-width="0" fill="#CCCCCC" fill-opacity="1" />
  <path d="M92.14828,44.04236 L96.81577,41.34758 L96.81577,41.93076 L92.15008,44.62449 z" stroke="Black" stroke-width="0" fill="#CCCCCC" fill-opacity="1" />
  <path d="M90.95968,44.7286 L90.95956,45.31192 L62.56292,61.70665 L62.56292,61.15121 z" stroke="Black" stroke-width="0" fill="#CCCCCC" fill-opacity="1" />
  <path d="M43.87031,71.59975 C43.68421,71.46806 43.21468,71.46806 43.02857,71.59975 L42.85424,71.84274 L42.85418,72.50235 L37.05223,75.85207 L27.37222,70.26332 L87.13576,35.75883 L96.81577,41.34758 L92.14828,44.04236 L91.97575,43.82607 C91.78965,43.69438 91.32011,43.69438 91.13401,43.82607 L90.95968,44.06906 L90.95968,44.7286 L62.56112,61.12451 L62.38859,60.90822 C62.20249,60.77653 61.73295,60.77653 61.54685,60.90822 L61.37252,61.15121 L61.37247,61.81081 L44.04284,71.81604 z" stroke="Black" stroke-width="0" fill="#EEEEEE" fill-opacity="1" />
  <path d="M51.74659,54.9064 L51.57226,55.14939 C51.38616,55.28107 50.91662,55.28107 50.73052,55.14939 L50.55639,54.91529 L50.73052,54.66341 C50.91662,54.53172 51.38616,54.53172 51.57226,54.66341 z" stroke="Black" stroke-width="0" fill="#555555" fill-opacity="1" />
  <path d="M80.14335,37.82425 L80.31768,37.58125 C80.50378,37.44957 80.97332,37.44957 81.15942,37.58125 L81.33375,37.82425 L81.15942,38.06723 C80.97332,38.19892 80.50378,38.19892 80.31768,38.06723 z" stroke="Black" stroke-width="0" fill="#555555" fill-opacity="1" />
  <path d="M42.85423,73.08548 L42.85424,73.54021 L42.46041,73.31284 z" stroke="Black" stroke-width="0" fill="#555555" fill-opacity="1" />
  <path d="M61.37252,61.15121 L61.54685,60.90822 C61.73295,60.77653 62.20249,60.77653 62.38859,60.90822 L62.56113,61.12453 L62.38859,61.3942 C62.20249,61.52589 61.73295,61.52589 61.54685,61.3942 z" stroke="Black" stroke-width="0" fill="#555555" fill-opacity="1" />
  <path d="M90.56585,45.53915 L90.95956,45.31192 L90.95967,45.76651 z" stroke="Black" stroke-width="0" fill="#555555" fill-opacity="1" />
  <path d="M42.85424,71.84274 L43.02857,71.59975 C43.21468,71.46806 43.68421,71.46806 43.87031,71.59975 L44.04285,71.81607 L43.87031,72.08573 C43.68421,72.21742 43.21468,72.21742 43.02857,72.08573 z" stroke="Black" stroke-width="0" fill="#555555" fill-opacity="1" />
  <path d="M33.22831,65.59793 L33.05398,65.84092 C32.86788,65.97261 32.39834,65.97261 32.21224,65.84092 L32.03811,65.60682 L32.21224,65.35494 C32.39834,65.22325 32.86788,65.22325 33.05398,65.35494 z" stroke="Black" stroke-width="0" fill="#555555" fill-opacity="1" />
  <path d="M61.37251,62.39394 L61.37252,62.84868 L60.97869,62.6213 z" stroke="Black" stroke-width="0" fill="#555555" fill-opacity="1" />
  <path d="M90.95968,44.06906 L91.13401,43.82607 C91.32011,43.69438 91.78965,43.69438 91.97575,43.82607 L92.14828,44.04236 L91.97575,44.31205 C91.78965,44.44373 91.32011,44.44373 91.13401,44.31205 z" stroke="Black" stroke-width="0" fill="#555555" fill-opacity="1" />
  <path d="M42.85424,74.51217 L41.61867,73.79881 L42.46041,73.31284 L42.85424,73.54021 L42.85434,71.85164 L43.02857,72.08573 C43.21468,72.21742 43.68421,72.21742 43.87031,72.08573 L44.04454,71.85164 L44.04464,86.5193 L43.87031,86.76229 C43.68421,86.89398 43.21468,86.89398 43.02857,86.76229 L42.85424,86.5193 z" stroke="Black" stroke-width="0" fill="#777777" fill-opacity="1" />
  <path d="M33.22831,66.8823 L32.03791,67.56958 L32.03801,65.60682 L32.21224,65.84092 C32.39834,65.97261 32.86788,65.97261 33.05398,65.84092 L33.22821,65.60683 z" stroke="Black" stroke-width="0" fill="#777777" fill-opacity="1" />
  <path d="M33.22831,74.22751 L33.22831,80.27449 L33.05398,80.51748 C32.86788,80.64917 32.39834,80.64917 32.21224,80.51748 L32.03791,80.27449 L32.03791,73.54023 z" stroke="Black" stroke-width="0" fill="#777777" fill-opacity="1" />
  <path d="M80.31768,38.06723 C80.50378,38.19892 80.97332,38.19892 81.15942,38.06723 L81.33365,37.83314 L81.33375,39.10862 L80.14335,39.79589 L80.14345,37.83313 z" stroke="Black" stroke-width="0" fill="#777777" fill-opacity="1" />
  <path d="M80.14335,51.55658 L81.33375,50.8693 L81.33375,52.5008 L81.15942,52.74379 C80.97332,52.87548 80.50378,52.87548 80.31768,52.74379 L80.14335,52.5008 z" stroke="Black" stroke-width="0" fill="#777777" fill-opacity="1" />
  <path d="M90.95968,46.73848 L89.72411,46.02513 L90.56585,45.53915 L90.95967,45.76651 L90.95978,44.07795 L91.13401,44.31205 C91.32011,44.44373 91.78965,44.44373 91.97575,44.31205 L92.14998,44.07795 L92.15008,58.74561 L91.97575,58.98861 C91.78965,59.12029 91.32011,59.12029 91.13401,58.98861 L90.95968,58.74561 z" stroke="Black" stroke-width="0" fill="#777777" fill-opacity="1" />
  <path d="M50.73052,55.14939 C50.91662,55.28107 51.38616,55.28107 51.57226,55.14939 L51.74649,54.91529 L51.74659,56.19077 L50.55619,56.87805 L50.55629,54.91529 z" stroke="Black" stroke-width="0" fill="#777777" fill-opacity="1" />
  <path d="M62.56292,63.6783 L62.38859,63.92129 C62.2025,64.05297 61.73299,64.05298 61.54688,63.9213 L60.13695,63.10728 L60.97869,62.6213 L61.37252,62.84868 L61.37262,61.1601 L61.54685,61.3942 C61.73295,61.52589 62.20249,61.52589 62.38859,61.3942 L62.56282,61.1601 z" stroke="Black" stroke-width="0" fill="#777777" fill-opacity="1" />
  <path d="M50.55621,56.87807 L50.55631,54.91532 L50.73052,54.66341" stroke="#000000" stroke-width="0.24" fill="none" />
  <path d="M37.05226,76.43527 L33.22834,74.22753 L33.22834,80.27451" stroke="#000000" stroke-width="0.24" fill="none" />
  <path d="M42.85427,86.51933 L42.85427,74.51219" stroke="#000000" stroke-width="0.24" fill="none" />
  <path d="M44.04467,72.3982 L44.04467,86.51933" stroke="#000000" stroke-width="0.24" fill="none" />
  <path d="M96.8158,41.93078 L92.1501,44.62452" stroke="#000000" stroke-width="0.24" fill="none" />
  <path d="M80.14337,52.50083 L80.14337,51.55661" stroke="#000000" stroke-width="0.24" fill="none" />
  <path d="M92.1501,44.62452 L92.1501,58.74564" stroke="#000000" stroke-width="0.24" fill="none" />
  <path d="M89.72413,46.02515 L81.33377,50.86933" stroke="#000000" stroke-width="0.24" fill="none" />
  <path d="M90.9597,58.74564 L90.9597,46.73851" stroke="#000000" stroke-width="0.24" fill="none" />
  <path d="M87.13578,35.75885 L96.8158,41.34761" stroke="#000000" stroke-width="0.24" fill="none" />
  <path d="M51.57226,54.66341 L51.74659,54.9064" stroke="#000000" stroke-width="0.24" fill="none" />
  <path d="M80.14335,37.82425 L80.31768,37.58125 C80.50378,37.44957 80.97332,37.44957 81.15942,37.58125" stroke="#000000" stroke-width="0.24" fill="none" />
  <path d="M27.37225,70.26334 L32.03794,67.5696 L32.03804,65.60685" stroke="#000000" stroke-width="0.24" fill="none" />
  <path d="M44.04464,86.5193 L44.04464,71.84274" stroke="#000000" stroke-width="0.24" fill="none" />
  <path d="M91.13406,46.83918 L89.72396,46.02505" stroke="#000000" stroke-width="0.24" fill="none" />
  <path d="M61.37252,61.15121 L61.54685,60.90822 C61.73295,60.77653 62.20249,60.77653 62.38859,60.90822 L62.56292,61.15121" stroke="#000000" stroke-width="0.24" fill="none" />
  <path d="M42.85424,71.84274 L42.85424,73.54021" stroke="#000000" stroke-width="0.24" fill="none" />
  <path d="M37.05226,76.43527 L42.85423,73.0855" stroke="#000000" stroke-width="0.24" fill="none" />
  <path d="M42.85424,71.84274 L43.02857,71.59975 C43.21468,71.46806 43.68421,71.46806 43.87031,71.59975" stroke="#000000" stroke-width="0.24" fill="none" />
  <path d="M87.13578,35.75885 L27.37225,70.26334" stroke="#000000" stroke-width="0.24" fill="none" />
  <path d="M27.37225,70.84652 L37.05226,76.43527" stroke="#000000" stroke-width="0.24" fill="none" />
  <path d="M90.95968,44.06906 L90.95968,45.7665" stroke="#000000" stroke-width="0.24" fill="none" />
  <path d="M92.15008,58.74561 L92.15008,44.06906" stroke="#000000" stroke-width="0.24" fill="none" />
  <path d="M90.95968,44.06906 L91.13401,43.82607 C91.32011,43.69438 91.78965,43.69438 91.97575,43.82607 L92.15008,44.06906" stroke="#000000" stroke-width="0.24" fill="none" />
  <path d="M44.04467,72.3982 L61.37252,62.39396" stroke="#000000" stroke-width="0.24" fill="none" />
  <path d="M62.56292,63.6783 L62.56292,61.15121" stroke="#000000" stroke-width="0.24" fill="none" />
  <path d="M91.13406,45.86722 L90.56586,45.53917" stroke="#000000" stroke-width="0.24" fill="none" />
  <path d="M27.37225,70.84652 L27.37225,70.26334" stroke="#000000" stroke-width="0.24" fill="none" />
  <path d="M32.21224,65.35494 C32.39834,65.22325 32.86788,65.22325 33.05398,65.35494 L33.22831,65.59793" stroke="#000000" stroke-width="0.24" fill="none" />
  <path d="M33.22834,66.88233 L50.55621,56.87807" stroke="#000000" stroke-width="0.24" fill="none" />
  <path d="M50.73052,54.66341 C50.91662,54.53172 51.38616,54.53172 51.57226,54.66341 L51.74661,56.1908" stroke="#000000" stroke-width="0.24" fill="none" />
  <path d="M80.14337,39.79592 L80.14347,37.83316" stroke="#000000" stroke-width="0.24" fill="none" />
  <path d="M81.15942,37.58125 L81.33375,37.82425" stroke="#000000" stroke-width="0.24" fill="none" />
  <path d="M81.33377,39.10864 L87.13578,35.75885" stroke="#000000" stroke-width="0.24" fill="none" />
  <path d="M96.8158,41.34761 L96.8158,41.93078" stroke="#000000" stroke-width="0.24" fill="none" />
  <path d="M90.9597,46.73851 L89.72413,46.02515" stroke="#000000" stroke-width="0.24" fill="none" />
  <path d="M80.14337,51.55661 L62.56295,61.70667" stroke="#000000" stroke-width="0.24" fill="none" />
  <path d="M61.54689,63.92132 L60.13697,63.1073" stroke="#000000" stroke-width="0.24" fill="none" />
  <path d="M42.85427,74.51219 L41.6187,73.79884" stroke="#000000" stroke-width="0.24" fill="none" />
  <path d="M32.03794,80.27451 L32.03794,73.54025 L27.37225,70.84652" stroke="#000000" stroke-width="0.24" fill="none" />
  <path d="M41.6187,73.79884 L37.05226,76.43527" stroke="#000000" stroke-width="0.24" fill="none" />
  <path d="M60.13697,63.1073 L44.04467,72.3982" stroke="#000000" stroke-width="0.24" fill="none" />
  <path d="M81.33377,50.86933 L81.33377,52.50083" stroke="#000000" stroke-width="0.24" fill="none" />
  <path d="M81.33377,37.82427 L81.33377,39.10864" stroke="#000000" stroke-width="0.24" fill="none" />
  <path d="M32.03791,65.59793 L32.21224,65.35494" stroke="#000000" stroke-width="0.24" fill="none" />
  <path d="M62.56295,61.70667 L90.95945,45.31194" stroke="#000000" stroke-width="0.24" fill="none" />
  <path d="M43.87031,71.59975 L44.04464,71.84274" stroke="#000000" stroke-width="0.24" fill="none" />
  <path d="M61.37252,61.15121 L61.37252,62.84868" stroke="#000000" stroke-width="0.24" fill="none" />
  <path d="M33.22834,65.59795 L33.22834,66.88233" stroke="#000000" stroke-width="0.24" fill="none" />
  <path d="M51.74661,56.1908 L80.14337,39.79592" stroke="#000000" stroke-width="0.24" fill="none" />
  <path d="M62.38859,63.92129 C62.2025,64.05297 61.73299,64.05298 61.54688,63.9213" stroke="#000000" stroke-width="0.24" fill="none" />
  <path d="M62.56292,63.6783 L62.38859,63.92129" stroke="#000000" stroke-width="0.24" fill="none" />
  <path d="M62.56295,61.70667 L62.56295,63.67832" stroke="#000000" stroke-width="0.24" fill="none" />
  <path d="M43.02863,74.61286 L41.61846,73.79871" stroke="#111111" stroke-width="0.24" fill="none" />
  <path d="M61.5469,63.92133 L60.13693,63.10728" stroke="#111111" stroke-width="0.24" fill="none" />
  <path d="M62.56292,61.15121 L62.38859,61.3942 C62.20249,61.52589 61.73295,61.52589 61.54685,61.3942" stroke="#111111" stroke-width="0.24" fill="none" />
  <path d="M81.33375,52.5008 L81.33375,50.8693" stroke="#111111" stroke-width="0.24" fill="none" />
  <path d="M80.14335,37.82425 L80.14335,39.79589" stroke="#111111" stroke-width="0.24" fill="none" />
  <path d="M80.14335,37.82425 L80.31768,37.58125 C80.50378,37.44957 80.97332,37.44957 81.15942,37.58125 L81.33375,37.82425" stroke="#111111" stroke-width="0.24" fill="none" />
  <path d="M80.31768,38.06723 L80.14335,37.82425" stroke="#111111" stroke-width="0.24" fill="none" />
  <path d="M33.05398,65.35494 L33.22831,65.59793" stroke="#111111" stroke-width="0.24" fill="none" />
  <path d="M33.22831,80.27449 L33.22831,74.22751" stroke="#111111" stroke-width="0.24" fill="none" />
  <path d="M32.03791,65.59793 L32.03791,67.56958" stroke="#111111" stroke-width="0.24" fill="none" />
  <path d="M92.15008,58.74561 L91.97575,58.98861 C91.78965,59.12029 91.32011,59.12029 91.13401,58.98861" stroke="#111111" stroke-width="0.24" fill="none" />
  <path d="M33.22831,65.59793 L33.05398,65.84092 C32.86788,65.97261 32.39834,65.97261 32.21224,65.84092 L32.03791,65.59793" stroke="#111111" stroke-width="0.24" fill="none" />
  <path d="M44.04464,86.5193 L43.87031,86.76229 C43.68421,86.89398 43.21468,86.89398 43.02857,86.76229 L42.85424,86.5193" stroke="#111111" stroke-width="0.24" fill="none" />
  <path d="M96.8158,41.34761 L87.13578,35.75885" stroke="#111111" stroke-width="0.24" fill="none" />
  <path d="M96.8158,41.93078 L96.8158,41.34761" stroke="#111111" stroke-width="0.24" fill="none" />
  <path d="M81.33375,52.5008 L81.15942,52.74379 C80.97332,52.87548 80.50378,52.87548 80.31768,52.74379 L80.14335,52.5008" stroke="#111111" stroke-width="0.24" fill="none" />
  <path d="M90.95968,46.73848 L90.95968,58.74561" stroke="#111111" stroke-width="0.24" fill="none" />
  <path d="M42.85424,74.51217 L42.85424,86.5193" stroke="#111111" stroke-width="0.24" fill="none" />
  <path d="M51.74659,54.9064 L51.57226,55.14939 C51.38616,55.28107 50.91662,55.28107 50.73052,55.14939 L50.73052,54.66341 C50.91662,54.53172 51.38616,54.53172 51.57226,54.66341 z" stroke="#111111" stroke-width="0.24" fill="none" />
  <path d="M50.55619,54.9064 L50.55619,56.87805" stroke="#111111" stroke-width="0.24" fill="none" />
  <path d="M92.1501,44.62452 L96.8158,41.93078" stroke="#111111" stroke-width="0.24" fill="none" />
  <path d="M44.0428,71.81611 L61.37244,61.81084" stroke="#111111" stroke-width="0.24" fill="none" />
  <path d="M92.15008,44.06906 L91.97575,44.31205 C91.78965,44.44373 91.32011,44.44373 91.13401,44.31205" stroke="#111111" stroke-width="0.24" fill="none" />
  <path d="M81.33375,39.10862 L81.33375,37.82425" stroke="#111111" stroke-width="0.24" fill="none" />
  <path d="M80.14335,51.55648 L80.14335,52.5008" stroke="#111111" stroke-width="0.24" fill="none" />
  <path d="M33.22831,66.8823 L33.22831,65.59793" stroke="#111111" stroke-width="0.24" fill="none" />
  <path d="M32.03791,73.5402 L32.03791,80.27449" stroke="#111111" stroke-width="0.24" fill="none" />
  <path d="M27.37225,70.26334 L37.05226,75.8521" stroke="#111111" stroke-width="0.24" fill="none" />
  <path d="M61.54685,61.3942 L61.37252,61.15121" stroke="#111111" stroke-width="0.24" fill="none" />
  <path d="M50.73052,55.14939 L50.55619,54.9064" stroke="#111111" stroke-width="0.24" fill="none" />
  <path d="M51.74659,56.19077 L51.74659,54.9064" stroke="#111111" stroke-width="0.24" fill="none" />
  <path d="M91.13401,58.98861 L90.95968,58.74561" stroke="#111111" stroke-width="0.24" fill="none" />
  <path d="M37.05226,75.8521 L42.85415,72.50238" stroke="#111111" stroke-width="0.24" fill="none" />
  <path d="M62.56109,61.12457 L90.9597,44.72862" stroke="#111111" stroke-width="0.24" fill="none" />
  <path d="M43.02863,73.6409 L42.46036,73.31281" stroke="#111111" stroke-width="0.24" fill="none" />
  <path d="M61.5469,62.94937 L60.97857,62.62124" stroke="#111111" stroke-width="0.24" fill="none" />
  <path d="M62.56292,63.6783 L62.38859,63.92129 C62.20249,64.05298 61.73295,64.05298 61.54685,63.92129" stroke="#111111" stroke-width="0.24" fill="none" />
  <path d="M44.04464,71.84274 L43.87031,72.08573 C43.68421,72.21742 43.21468,72.21742 43.02857,72.08573 L42.85424,71.84274" stroke="#111111" stroke-width="0.24" fill="none" />
  <path d="M92.14831,44.04238 L96.8158,41.34761" stroke="#111111" stroke-width="0.24" fill="none" />
  <path d="M37.05226,76.43527 L37.05226,75.8521" stroke="#111111" stroke-width="0.24" fill="none" />
  <path d="M27.37225,70.84652 L27.37225,70.26334" stroke="#111111" stroke-width="0.24" fill="none" />
  <path d="M91.13401,44.31205 L90.95968,44.06906" stroke="#111111" stroke-width="0.24" fill="none" />
  <path d="M32.03791,65.59793 L32.21224,65.35494 C32.39834,65.22325 32.86788,65.22325 33.05398,65.35494" stroke="#111111" stroke-width="0.24" fill="none" />
  <path d="M81.33375,37.82425 L81.15942,38.06723 C80.97332,38.19892 80.50378,38.19892 80.31768,38.06723" stroke="#111111" stroke-width="0.24" fill="none" />
  <path d="M33.22831,80.27449 L33.05398,80.51748 C32.86788,80.64917 32.39834,80.64917 32.21224,80.51748 L32.03791,80.27449" stroke="#111111" stroke-width="0.24" fill="none" />
</svg>