<?xml version="1.0" encoding="utf-8" standalone="no"?>
<!DOCTYPE svg PUBLIC "-//W3C//DTD SVG 1.1//EN" "http://www.w3.org/Graphics/SVG/1.1/DTD/svg11.dtd">
<svg version="1.1" width="120pt" height="120pt" viewBox="0 0 120 120" overflow="visible" xmlns="http://www.w3.org/2000/svg">
  <path d="M26.95327,73.46483 L26.95327,72.88165 L36.63328,78.47041 L36.63328,79.05358 z" stroke="Black" stroke-width="0" fill="#BBBBBB" fill-opacity="1" />
  <path d="M73.21284,57.93436 L73.21284,57.37892 L90.54073,47.34693 L90.54065,47.93019 z" stroke="Black" stroke-width="0" fill="#CCCCCC" fill-opacity="1" />
  <path d="M36.63328,79.05358 L36.63328,78.47041 L42.43529,75.12062 L42.43529,75.70379 z" stroke="Black" stroke-width="0" fill="#CCCCCC" fill-opacity="1" />
  <path d="M72.02245,58.03846 L72.02245,58.62164 L43.62569,75.01652 L43.62559,74.46997 z" stroke="Black" stroke-width="0" fill="#CCCCCC" fill-opacity="1" />
  <path d="M96.39681,44.54909 L91.73112,47.24283 L91.73103,46.69629 L96.39681,43.96592 z" stroke="Black" stroke-width="0" fill="#CCCCCC" fill-opacity="1" />
  <path d="M43.45136,74.21809 C43.26525,74.0864 42.79572,74.0864 42.60962,74.21809 L42.43529,74.46107 L42.43529,75.12062 L36.63328,78.47041 L26.95327,72.88165 L86.7168,38.37716 L96.39681,43.96592 L91.72932,46.66069 L91.55679,46.4444 C91.37069,46.31271 90.90115,46.31271 90.71505,46.4444 L90.54073,46.68739 L90.54073,47.34693 L73.21104,57.35223 L73.03851,57.13593 C72.85242,57.00425 72.38287,57.00425 72.19678,57.13593 L72.02245,57.37892 L72.02245,58.03846 L43.62389,74.43438 z" stroke="Black" stroke-width="0" fill="#EEEEEE" fill-opacity="1" />
  <path d="M90.14689,48.15748 L90.54065,47.93019 L90.54073,48.38486 z" stroke="Black" stroke-width="0" fill="#555555" fill-opacity="1" />
  <path d="M91.73112,46.68739 L91.55679,46.93038 C91.37069,47.06207 90.90115,47.06207 90.71505,46.93038 L90.54073,46.68739 L90.71505,46.4444 C90.90115,46.31271 91.37069,46.31271 91.55679,46.4444 z" stroke="Black" stroke-width="0" fill="#555555" fill-opacity="1" />
  <path d="M80.91479,40.44258 L80.74046,40.68557 C80.55436,40.81726 80.08482,40.81726 79.89872,40.68557 L79.72459,40.45147 L79.89872,40.19959 C80.08482,40.0679 80.55436,40.0679 80.74046,40.19959 z" stroke="Black" stroke-width="0" fill="#555555" fill-opacity="1" />
  <path d="M61.20612,51.13411 L61.38044,50.89112 C61.56654,50.75943 62.03608,50.75943 62.22218,50.89112 L62.39651,51.13411 L62.22218,51.3771 C62.03608,51.50879 61.56654,51.50879 61.38044,51.3771 z" stroke="Black" stroke-width="0" fill="#555555" fill-opacity="1" />
  <path d="M72.02245,58.62164 L72.02245,59.0764 L71.62862,58.84902 z" stroke="Black" stroke-width="0" fill="#555555" fill-opacity="1" />
  <path d="M73.21275,57.38782 L73.03851,57.62191 C72.85242,57.7536 72.38287,57.7536 72.19678,57.62191 L72.02254,57.38782 L72.19678,57.13593 C72.38287,57.00425 72.85242,57.00425 73.03851,57.13593 z" stroke="Black" stroke-width="0" fill="#555555" fill-opacity="1" />
  <path d="M42.43529,75.70379 L42.43529,76.15855 L42.04145,75.93117 z" stroke="Black" stroke-width="0" fill="#555555" fill-opacity="1" />
  <path d="M42.43529,74.46107 L42.60962,74.21809 C42.79572,74.0864 43.26525,74.0864 43.45136,74.21809 L43.62389,74.43438 L43.45136,74.70406 C43.26525,74.83575 42.79572,74.83575 42.60962,74.70406 z" stroke="Black" stroke-width="0" fill="#555555" fill-opacity="1" />
  <path d="M32.80936,68.21626 L32.63503,68.45925 C32.44893,68.59094 31.97939,68.59094 31.79329,68.45925 L31.61916,68.22516 L31.79329,67.97327 C31.97939,67.84158 32.44893,67.84158 32.63503,67.97327 z" stroke="Black" stroke-width="0" fill="#555555" fill-opacity="1" />
  <path d="M42.43529,77.13051 L41.19971,76.41715 L42.04145,75.93117 L42.43529,76.15855 L42.43539,74.46997 L42.60962,74.70406 C42.79572,74.83575 43.26525,74.83575 43.45136,74.70406 L43.62559,74.46997 L43.62569,89.13763 L43.45136,89.38062 C43.26525,89.51231 42.79572,89.51231 42.60962,89.38062 L42.43529,89.13763 z" stroke="Black" stroke-width="0" fill="#777777" fill-opacity="1" />
  <path d="M80.91479,41.72695 L79.72439,42.41423 L79.72449,40.45147 L79.89872,40.68557 C80.08482,40.81726 80.55436,40.81726 80.74046,40.68557 L80.9147,40.45147 z" stroke="Black" stroke-width="0" fill="#777777" fill-opacity="1" />
  <path d="M72.02245,59.0764 L72.02254,57.38782 L72.19678,57.62191 C72.38287,57.7536 72.85242,57.7536 73.03851,57.62191 L73.21275,57.38782 L73.21284,59.90601 L73.03851,60.149 C72.85245,60.28066 72.383,60.28069 72.19682,60.14903 L70.78687,59.335 L71.62862,58.84902 z" stroke="Black" stroke-width="0" fill="#777777" fill-opacity="1" />
  <path d="M79.72439,54.17492 L80.91479,53.48764 L80.91479,55.11914 L80.74046,55.36213 C80.55436,55.49382 80.08482,55.49382 79.89872,55.36213 L79.72439,55.11914 z" stroke="Black" stroke-width="0" fill="#777777" fill-opacity="1" />
  <path d="M90.54073,49.35682 L89.30515,48.64346 L90.14689,48.15748 L90.54073,48.38486 L90.54082,46.69629 L90.71505,46.93038 C90.90115,47.06207 91.37069,47.06207 91.55679,46.93038 L91.73103,46.69629 L91.73112,61.36395 L91.55679,61.60694 C91.37069,61.73863 90.90115,61.73863 90.71505,61.60694 L90.54073,61.36395 z" stroke="Black" stroke-width="0" fill="#777777" fill-opacity="1" />
  <path d="M32.80936,76.84584 L32.80936,82.89282 L32.63503,83.13581 C32.44893,83.2675 31.97939,83.2675 31.79329,83.13581 L31.61896,82.89282 L31.61896,76.15856 z" stroke="Black" stroke-width="0" fill="#777777" fill-opacity="1" />
  <path d="M61.20631,51.143 L61.38044,51.3771 C61.56654,51.50879 62.03608,51.50879 62.22218,51.3771 L62.39642,51.14301 L62.39651,52.41849 L61.20612,53.10576 z" stroke="Black" stroke-width="0" fill="#777777" fill-opacity="1" />
  <path d="M31.61916,68.22516 L31.79329,68.45925 C31.97939,68.59094 32.44893,68.59094 32.63503,68.45925 L32.80926,68.22516 L32.80938,69.50056 L31.61901,70.18775 z" stroke="Black" stroke-width="0" fill="#777777" fill-opacity="1" />
  <path d="M31.61898,76.15858 L26.95329,73.46485" stroke="#000000" stroke-width="0.24" fill="none" />
  <path d="M31.61898,82.89285 L31.61898,76.15858" stroke="#000000" stroke-width="0.24" fill="none" />
  <path d="M32.80938,76.84586 L32.80938,82.89285" stroke="#000000" stroke-width="0.24" fill="none" />
  <path d="M36.6333,79.0536 L32.80938,76.84586" stroke="#000000" stroke-width="0.24" fill="none" />
  <path d="M41.19974,76.41718 L36.6333,79.0536" stroke="#000000" stroke-width="0.24" fill="none" />
  <path d="M42.43531,77.13053 L41.19974,76.41718" stroke="#000000" stroke-width="0.24" fill="none" />
  <path d="M42.43531,89.13766 L42.43531,77.13053" stroke="#000000" stroke-width="0.24" fill="none" />
  <path d="M43.62571,75.01654 L43.62571,89.13766" stroke="#000000" stroke-width="0.24" fill="none" />
  <path d="M70.7869,59.33502 L43.62571,75.01654" stroke="#000000" stroke-width="0.24" fill="none" />
  <path d="M72.19685,60.14906 L70.7869,59.33502" stroke="#000000" stroke-width="0.24" fill="none" />
  <path d="M73.21284,59.90601 L73.03851,60.149" stroke="#000000" stroke-width="0.24" fill="none" />
  <path d="M73.21287,57.93438 L73.21287,59.90604" stroke="#000000" stroke-width="0.24" fill="none" />
  <path d="M79.72442,54.17494 L73.21287,57.93438" stroke="#000000" stroke-width="0.24" fill="none" />
  <path d="M89.30518,48.64349 L80.91482,53.48766" stroke="#000000" stroke-width="0.24" fill="none" />
  <path d="M90.54075,49.35685 L89.30518,48.64349" stroke="#000000" stroke-width="0.24" fill="none" />
  <path d="M90.54075,61.36397 L90.54075,49.35685" stroke="#000000" stroke-width="0.24" fill="none" />
  <path d="M91.73115,47.24285 L91.73115,61.36397" stroke="#000000" stroke-width="0.24" fill="none" />
  <path d="M96.39684,43.96594 L96.39684,44.54911" stroke="#000000" stroke-width="0.24" fill="none" />
  <path d="M86.71683,38.37719 L96.39684,43.96594" stroke="#000000" stroke-width="0.24" fill="none" />
  <path d="M80.91482,40.4426 L80.91482,41.72698" stroke="#000000" stroke-width="0.24" fill="none" />
  <path d="M80.74046,40.19959 L80.91479,40.44258" stroke="#000000" stroke-width="0.24" fill="none" />
  <path d="M79.89872,40.19959 C80.08482,40.0679 80.55436,40.0679 80.74046,40.19959" stroke="#000000" stroke-width="0.24" fill="none" />
  <path d="M79.72442,42.41425 L79.72452,40.4515" stroke="#000000" stroke-width="0.24" fill="none" />
  <path d="M62.39654,51.13414 L62.39654,52.41851" stroke="#000000" stroke-width="0.24" fill="none" />
  <path d="M62.22218,50.89112 L62.39651,51.13411" stroke="#000000" stroke-width="0.24" fill="none" />
  <path d="M61.38044,50.89112 C61.56654,50.75943 62.03608,50.75943 62.22218,50.89112" stroke="#000000" stroke-width="0.24" fill="none" />
  <path d="M61.20612,51.13411 L61.38044,50.89112" stroke="#000000" stroke-width="0.24" fill="none" />
  <path d="M61.20614,53.10579 L61.20624,51.14303" stroke="#000000" stroke-width="0.24" fill="none" />
  <path d="M32.80938,68.21629 L32.80941,69.50058" stroke="#000000" stroke-width="0.24" fill="none" />
  <path d="M32.63503,67.97327 L32.80936,68.21626" stroke="#000000" stroke-width="0.24" fill="none" />
  <path d="M31.79329,67.97327 C31.97939,67.84158 32.44893,67.84158 32.63503,67.97327" stroke="#000000" stroke-width="0.24" fill="none" />
  <path d="M31.61896,68.21626 L31.79329,67.97327" stroke="#000000" stroke-width="0.24" fill="none" />
  <path d="M31.61904,70.18777 L31.61908,68.22518" stroke="#000000" stroke-width="0.24" fill="none" />
  <path d="M26.95329,73.46485 L26.95329,72.88168" stroke="#000000" stroke-width="0.24" fill="none" />
  <path d="M72.02245,57.37892 L72.02245,59.0764" stroke="#000000" stroke-width="0.24" fill="none" />
  <path d="M73.21284,59.90601 L73.21284,57.37892 L73.21284,57.37892" stroke="#000000" stroke-width="0.24" fill="none" />
  <path d="M90.54073,46.68739 L90.71505,46.4444 C90.90115,46.31271 91.37069,46.31271 91.55679,46.4444 L91.73112,46.68739" stroke="#000000" stroke-width="0.24" fill="none" />
  <path d="M90.54073,46.68739 L90.54073,48.38486" stroke="#000000" stroke-width="0.24" fill="none" />
  <path d="M91.73112,61.36395 L91.73112,46.68739" stroke="#000000" stroke-width="0.24" fill="none" />
  <path d="M42.43529,74.46107 L42.43529,76.15855" stroke="#000000" stroke-width="0.24" fill="none" />
  <path d="M43.62569,89.13763 L43.62569,74.46107 L43.62569,74.46107" stroke="#000000" stroke-width="0.24" fill="none" />
  <path d="M86.71683,38.37719 L26.95329,72.88168" stroke="#000000" stroke-width="0.24" fill="none" />
  <path d="M73.21281,57.93442 L90.5406,47.93021" stroke="#000000" stroke-width="0.24" fill="none" />
  <path d="M43.62555,75.01663 L72.02247,58.62166" stroke="#000000" stroke-width="0.24" fill="none" />
  <path d="M36.6333,79.0536 L42.43531,75.70382" stroke="#000000" stroke-width="0.24" fill="none" />
  <path d="M26.95329,73.46485 L36.6333,79.0536" stroke="#000000" stroke-width="0.24" fill="none" />
  <path d="M42.43529,74.46107 L42.60962,74.21809 C42.79572,74.0864 43.26525,74.0864 43.45136,74.21809" stroke="#000000" stroke-width="0.24" fill="none" />
  <path d="M72.02245,57.37892 L72.19678,57.13593 C72.38287,57.00425 72.85242,57.00425 73.03851,57.13593" stroke="#000000" stroke-width="0.24" fill="none" />
  <path d="M42.60964,77.23118 L41.19973,76.41717" stroke="#000000" stroke-width="0.24" fill="none" />
  <path d="M26.95329,72.88168 L31.61904,70.18777" stroke="#000000" stroke-width="0.24" fill="none" />
  <path d="M32.80941,69.50058 L61.20614,53.10579" stroke="#000000" stroke-width="0.24" fill="none" />
  <path d="M62.39654,52.41851 L79.72442,42.41425" stroke="#000000" stroke-width="0.24" fill="none" />
  <path d="M79.72439,40.44258 L79.89872,40.19959" stroke="#000000" stroke-width="0.24" fill="none" />
  <path d="M80.91482,41.72698 L86.71683,38.37719" stroke="#000000" stroke-width="0.24" fill="none" />
  <path d="M96.39684,44.54911 L91.73115,47.24285" stroke="#000000" stroke-width="0.24" fill="none" />
  <path d="M80.91482,53.48766 L80.91482,55.11916" stroke="#000000" stroke-width="0.24" fill="none" />
  <path d="M79.72442,55.11916 L79.72442,54.17494" stroke="#000000" stroke-width="0.24" fill="none" />
  <path d="M73.03851,60.149 C72.85245,60.28066 72.383,60.28069 72.19682,60.14903" stroke="#000000" stroke-width="0.24" fill="none" />
  <path d="M90.71507,49.45749 L89.30507,48.64342" stroke="#111111" stroke-width="0.24" fill="none" />
  <path d="M90.71507,48.48553 L90.14671,48.15739" stroke="#111111" stroke-width="0.24" fill="none" />
  <path d="M79.89872,55.36213 L79.72439,55.11914" stroke="#111111" stroke-width="0.24" fill="none" />
  <path d="M32.80936,82.89282 L32.63503,83.13581 C32.44893,83.2675 31.97939,83.2675 31.79329,83.13581 L31.61896,82.89282" stroke="#111111" stroke-width="0.24" fill="none" />
  <path d="M91.73112,61.36395 L91.55679,61.60694 C91.37069,61.73863 90.90115,61.73863 90.71505,61.60694 L90.54073,61.36395" stroke="#111111" stroke-width="0.24" fill="none" />
  <path d="M43.62569,89.13763 L43.45136,89.38062 C43.26525,89.51231 42.79572,89.51231 42.60962,89.38062 L42.43529,89.13763" stroke="#111111" stroke-width="0.24" fill="none" />
  <path d="M72.1968,59.17707 L71.62847,58.84894" stroke="#111111" stroke-width="0.24" fill="none" />
  <path d="M73.21107,57.35225 L90.54075,47.34695" stroke="#111111" stroke-width="0.24" fill="none" />
  <path d="M80.91479,41.72695 L80.91479,40.44258" stroke="#111111" stroke-width="0.24" fill="none" />
  <path d="M79.72439,54.17492 L79.72439,55.11914" stroke="#111111" stroke-width="0.24" fill="none" />
  <path d="M90.54073,49.3567 L90.54073,61.36395" stroke="#111111" stroke-width="0.24" fill="none" />
  <path d="M73.21284,59.90601 L73.03851,60.149 C72.85245,60.28066 72.38303,60.28071 72.19688,60.14906" stroke="#111111" stroke-width="0.24" fill="none" />
  <path d="M80.91479,40.44258 L80.74046,40.68557 C80.55436,40.81726 80.08482,40.81726 79.89872,40.68557 L79.72439,40.44258 L79.72439,42.41423" stroke="#111111" stroke-width="0.24" fill="none" />
  <path d="M80.91479,55.11914 L80.91479,53.48759" stroke="#111111" stroke-width="0.24" fill="none" />
  <path d="M36.6333,78.47044 L42.43531,75.12064" stroke="#111111" stroke-width="0.24" fill="none" />
  <path d="M26.95329,72.88168 L36.6333,78.47044" stroke="#111111" stroke-width="0.24" fill="none" />
  <path d="M32.80936,69.50051 L32.80936,68.21626" stroke="#111111" stroke-width="0.24" fill="none" />
  <path d="M31.61896,76.15856 L31.61896,82.89282" stroke="#111111" stroke-width="0.24" fill="none" />
  <path d="M91.7311,47.24288 L96.39684,44.54911" stroke="#111111" stroke-width="0.24" fill="none" />
  <path d="M91.72935,46.66072 L96.39684,43.96594" stroke="#111111" stroke-width="0.24" fill="none" />
  <path d="M32.80936,68.21626 L32.63503,68.45925 C32.44893,68.59094 31.97939,68.59094 31.79329,68.45925 L31.61896,68.21626 L31.61896,70.18765" stroke="#111111" stroke-width="0.24" fill="none" />
  <path d="M32.80936,82.89282 L32.80936,76.84584" stroke="#111111" stroke-width="0.24" fill="none" />
  <path d="M32.63503,67.97327 L32.80936,68.21626" stroke="#111111" stroke-width="0.24" fill="none" />
  <path d="M90.71505,46.93038 L90.54073,46.68739" stroke="#111111" stroke-width="0.24" fill="none" />
  <path d="M43.62569,74.46107 L43.45136,74.70406 C43.26525,74.83575 42.79572,74.83575 42.60962,74.70406 L42.43529,74.46107" stroke="#111111" stroke-width="0.24" fill="none" />
  <path d="M62.39651,52.41849 L62.39651,51.13411 L62.22218,51.3771 C62.03608,51.50879 61.56654,51.50879 61.38044,51.3771 L61.20612,51.13411 L61.38044,50.89112 C61.56654,50.75943 62.03608,50.75943 62.22218,50.89112" stroke="#111111" stroke-width="0.24" fill="none" />
  <path d="M61.20612,51.13411 L61.20612,53.10576" stroke="#111111" stroke-width="0.24" fill="none" />
  <path d="M72.1968,60.14902 L70.78683,59.33498" stroke="#111111" stroke-width="0.24" fill="none" />
  <path d="M96.39684,43.96594 L86.71683,38.37719" stroke="#111111" stroke-width="0.24" fill="none" />
  <path d="M96.39684,44.54911 L96.39684,43.96594" stroke="#111111" stroke-width="0.24" fill="none" />
  <path d="M36.6333,79.0536 L36.6333,78.47044" stroke="#111111" stroke-width="0.24" fill="none" />
  <path d="M26.95329,73.46485 L26.95329,72.88168" stroke="#111111" stroke-width="0.24" fill="none" />
  <path d="M62.22218,50.89112 L62.39651,51.13411" stroke="#111111" stroke-width="0.24" fill="none" />
  <path d="M43.62391,74.4344 L72.02247,58.03849" stroke="#111111" stroke-width="0.24" fill="none" />
  <path d="M31.61896,68.21626 L31.79329,67.97327 C31.97939,67.84158 32.44893,67.84158 32.63503,67.97327" stroke="#111111" stroke-width="0.24" fill="none" />
  <path d="M42.43529,77.13051 L42.43529,89.13763" stroke="#111111" stroke-width="0.24" fill="none" />
  <path d="M91.73112,46.68739 L91.55679,46.93038 C91.37069,47.06207 90.90115,47.06207 90.71505,46.93038" stroke="#111111" stroke-width="0.24" fill="none" />
  <path d="M79.72439,40.44258 L79.89872,40.19959 C80.08482,40.0679 80.55436,40.0679 80.74046,40.19959 L80.91479,40.44258" stroke="#111111" stroke-width="0.24" fill="none" />
  <path d="M42.60964,76.25922 L42.04137,75.93113" stroke="#111111" stroke-width="0.24" fill="none" />
  <path d="M80.91479,55.11914 L80.74046,55.36213 C80.55436,55.49382 80.08482,55.49382 79.89872,55.36213" stroke="#111111" stroke-width="0.24" fill="none" />
  <path d="M73.21284,57.37892 L73.03851,57.62191 C72.85242,57.7536 72.38287,57.7536 72.19678,57.62191 L72.02245,57.37892" stroke="#111111" stroke-width="0.24" fill="none" />
</svg>