<?xml version="1.0" encoding="utf-8" standalone="no"?>
<!DOCTYPE svg PUBLIC "-//W3C//DTD SVG 1.1//EN" "http://www.w3.org/Graphics/SVG/1.1/DTD/svg11.dtd">
<svg version="1.1" width="120pt" height="120pt" viewBox="0 0 120 120" overflow="visible" xmlns="http://www.w3.org/2000/svg">
  <path d="M28.56386,44.55761 L28.56379,43.97435 L45.89347,53.97965 L45.89167,54.56179 z" stroke="Black" stroke-width="0" fill="#BBBBBB" fill-opacity="1" />
  <path d="M47.08207,55.24906 L47.08207,54.66589 L75.48063,71.06181 L75.47883,71.64394 z" stroke="Black" stroke-width="0" fill="#BBBBBB" fill-opacity="1" />
  <path d="M76.66923,72.33121 L76.66923,71.74804 L82.47124,75.09783 L82.47124,75.68101 z" stroke="Black" stroke-width="0" fill="#BBBBBB" fill-opacity="1" />
  <path d="M27.37349,43.32371 L27.37339,43.87025 L22.7077,41.17652 L22.7077,40.59334 z" stroke="Black" stroke-width="0" fill="#BBBBBB" fill-opacity="1" />
  <path d="M82.47124,75.68101 L82.47124,75.09783 L92.15125,69.50908 L92.15125,70.09225 z" stroke="Black" stroke-width="0" fill="#CCCCCC" fill-opacity="1" />
  <path d="M75.65316,70.84551 L75.48063,71.06181 L47.08207,54.66589 L47.08207,54.00635 L46.90774,53.76336 C46.72164,53.63167 46.2521,53.63167 46.066,53.76336 L45.89347,53.97965 L28.56379,43.97435 L28.56369,43.32371 L28.38946,43.07183 C28.20336,42.94014 27.73382,42.94014 27.54772,43.07183 L27.37519,43.28812 L22.7077,40.59334 L32.38771,35.00459 L92.15125,69.50908 L82.47124,75.09783 L76.66923,71.74804 L76.66913,71.0974 L76.4949,70.84551 C76.3088,70.71382 75.83926,70.71382 75.65316,70.84551 z" stroke="Black" stroke-width="0" fill="#EEEEEE" fill-opacity="1" />
  <path d="M27.37519,43.28812 L27.54772,43.07183 C27.73382,42.94014 28.20336,42.94014 28.38946,43.07183 L28.56379,43.31482 L28.38946,43.5578 C28.20336,43.68949 27.73382,43.68949 27.54772,43.5578 z" stroke="Black" stroke-width="0" fill="#555555" fill-opacity="1" />
  <path d="M76.66923,72.33121 L77.06306,72.55859 L76.66923,72.78597 z" stroke="Black" stroke-width="0" fill="#555555" fill-opacity="1" />
  <path d="M45.89347,53.97965 L46.066,53.76336 C46.2521,53.63167 46.72164,53.63167 46.90774,53.76336 L47.08207,54.00635 L46.90774,54.24934 C46.72164,54.38103 46.2521,54.38103 46.066,54.24934 z" stroke="Black" stroke-width="0" fill="#555555" fill-opacity="1" />
  <path d="M57.8982,47.77043 L57.72407,48.00452 C57.53797,48.13622 57.06843,48.13622 56.88233,48.00452 L56.708,47.76154 L56.88233,47.51855 C57.06843,47.38686 57.53797,47.38686 57.72407,47.51855 z" stroke="Black" stroke-width="0" fill="#555555" fill-opacity="1" />
  <path d="M28.95762,44.78491 L28.56379,45.01229 L28.56386,44.55761 z" stroke="Black" stroke-width="0" fill="#555555" fill-opacity="1" />
  <path d="M38.18972,37.07 L38.36405,36.82701 C38.55016,36.69532 39.01969,36.69532 39.2058,36.82701 L39.38012,37.07 L39.2058,37.31299 C39.01969,37.44468 38.55016,37.44468 38.36405,37.31299 z" stroke="Black" stroke-width="0" fill="#555555" fill-opacity="1" />
  <path d="M86.29516,64.84369 L86.46949,64.6007 C86.65559,64.46901 87.12513,64.46901 87.31123,64.6007 L87.48556,64.84369 L87.31123,65.08668 C87.12513,65.21837 86.65559,65.21837 86.46949,65.08668 z" stroke="Black" stroke-width="0" fill="#555555" fill-opacity="1" />
  <path d="M76.66923,71.0885 L76.4949,71.33149 C76.3088,71.46318 75.83926,71.46318 75.65316,71.33149 L75.47883,71.0885 L75.65316,70.84551 C75.83926,70.71382 76.3088,70.71382 76.4949,70.84551 z" stroke="Black" stroke-width="0" fill="#555555" fill-opacity="1" />
  <path d="M47.08207,55.24906 L47.4759,55.47644 L47.08207,55.70382 z" stroke="Black" stroke-width="0" fill="#555555" fill-opacity="1" />
  <path d="M38.18972,38.35438 L38.18982,37.0789 L38.36405,37.31299 C38.55016,37.44468 39.01969,37.44468 39.2058,37.31299 L39.37992,37.07889 L39.38012,39.04166 z" stroke="Black" stroke-width="0" fill="#777777" fill-opacity="1" />
  <path d="M87.48546,64.85258 L87.4855,66.81518 L86.29513,66.12798 L86.29526,64.85258 L86.46949,65.08668 C86.65559,65.21837 87.12513,65.21837 87.31123,65.08668 z" stroke="Black" stroke-width="0" fill="#777777" fill-opacity="1" />
  <path d="M76.66923,73.75793 L76.66923,85.76506 L76.4949,86.00805 C76.3088,86.13974 75.83926,86.13974 75.65316,86.00805 L75.47883,85.76506 L75.47893,71.0974 L75.65316,71.33149 C75.83926,71.46318 76.3088,71.46318 76.4949,71.33149 L76.66913,71.0974 L76.66923,72.78597 L77.06306,72.55859 L77.9048,73.04457 z" stroke="Black" stroke-width="0" fill="#777777" fill-opacity="1" />
  <path d="M28.56379,45.98425 L28.56379,57.99137 L28.38946,58.23436 C28.20336,58.36605 27.73382,58.36605 27.54772,58.23436 L27.37339,57.99137 L27.37349,43.32371 L27.54772,43.5578 C27.73382,43.68949 28.20336,43.68949 28.38946,43.5578 L28.56369,43.32371 L28.56379,45.01229 L28.95762,44.78491 L29.79936,45.27089 z" stroke="Black" stroke-width="0" fill="#777777" fill-opacity="1" />
  <path d="M47.08207,55.70382 L47.4759,55.47644 L48.31764,55.96242 L46.90769,56.77645 C46.72151,56.90812 46.25206,56.90808 46.066,56.77643 L45.89167,56.53344 L45.89177,54.01524 L46.066,54.24934 C46.2521,54.38103 46.72164,54.38103 46.90774,54.24934 L47.08197,54.01524 z" stroke="Black" stroke-width="0" fill="#777777" fill-opacity="1" />
  <path d="M39.38012,50.80234 L39.38012,51.74656 L39.2058,51.98955 C39.01969,52.12124 38.55016,52.12124 38.36405,51.98955 L38.18972,51.74656 L38.18972,50.11506 z" stroke="Black" stroke-width="0" fill="#777777" fill-opacity="1" />
  <path d="M86.29516,73.47327 L87.48556,72.78599 L87.48556,79.52025 L87.31123,79.76324 C87.12513,79.89493 86.65559,79.89493 86.46949,79.76324 L86.29516,79.52025 z" stroke="Black" stroke-width="0" fill="#777777" fill-opacity="1" />
  <path d="M57.8983,47.77042 L57.8984,49.73319 L56.708,49.04591 L56.7081,47.77043 L56.88233,48.00452 C57.06843,48.13622 57.53797,48.13622 57.72407,48.00452 z" stroke="Black" stroke-width="0" fill="#777777" fill-opacity="1" />
  <path d="M86.29518,64.84371 L86.29516,66.12801" stroke="#000000" stroke-width="0.24" fill="none" />
  <path d="M86.29518,73.47329 L86.29518,79.52027" stroke="#000000" stroke-width="0.24" fill="none" />
  <path d="M46.066,56.77643 C46.25206,56.90808 46.72151,56.90812 46.90769,56.77645" stroke="#000000" stroke-width="0.24" fill="none" />
  <path d="M39.38015,51.74659 L39.38015,50.80236" stroke="#000000" stroke-width="0.24" fill="none" />
  <path d="M57.8984,47.76154 L57.72407,47.51855" stroke="#000000" stroke-width="0.24" fill="none" />
  <path d="M39.2058,36.82701 C39.01969,36.69532 38.55016,36.69532 38.36405,36.82701" stroke="#000000" stroke-width="0.24" fill="none" />
  <path d="M56.88233,47.51855 L56.708,47.76154" stroke="#000000" stroke-width="0.24" fill="none" />
  <path d="M56.70803,49.04593 L39.38015,39.04168" stroke="#000000" stroke-width="0.24" fill="none" />
  <path d="M87.31123,64.6007 C87.12513,64.46901 86.65559,64.46901 86.46949,64.6007 L86.29516,64.84369" stroke="#000000" stroke-width="0.24" fill="none" />
  <path d="M87.48553,66.8152 L87.48548,64.85261" stroke="#000000" stroke-width="0.24" fill="none" />
  <path d="M75.47883,85.76506 L75.47883,71.0885" stroke="#000000" stroke-width="0.24" fill="none" />
  <path d="M45.89167,56.53344 L45.89167,54.00635 L45.89167,54.00635" stroke="#000000" stroke-width="0.24" fill="none" />
  <path d="M28.56379,43.31482 L28.56379,45.01229" stroke="#000000" stroke-width="0.24" fill="none" />
  <path d="M27.37339,57.99137 L27.37339,43.31482" stroke="#000000" stroke-width="0.24" fill="none" />
  <path d="M75.47902,71.64406 L47.08209,55.24908" stroke="#000000" stroke-width="0.24" fill="none" />
  <path d="M92.15127,70.09228 L82.47126,75.68103" stroke="#000000" stroke-width="0.24" fill="none" />
  <path d="M76.66923,71.0885 L76.4949,70.84551 C76.3088,70.71382 75.83926,70.71382 75.65316,70.84551" stroke="#000000" stroke-width="0.24" fill="none" />
  <path d="M47.08207,54.00635 L46.90774,53.76336 C46.72164,53.63167 46.2521,53.63167 46.066,53.76336" stroke="#000000" stroke-width="0.24" fill="none" />
  <path d="M45.89175,54.56184 L28.56396,44.55764" stroke="#000000" stroke-width="0.24" fill="none" />
  <path d="M75.65316,70.84551 L75.47883,71.0885" stroke="#000000" stroke-width="0.24" fill="none" />
  <path d="M76.49493,73.8586 L77.90484,73.04459" stroke="#000000" stroke-width="0.24" fill="none" />
  <path d="M47.08207,54.00635 L47.08207,55.70382" stroke="#000000" stroke-width="0.24" fill="none" />
  <path d="M92.15127,70.09228 L92.15127,69.5091 L87.48553,66.8152" stroke="#000000" stroke-width="0.24" fill="none" />
  <path d="M87.48556,64.84369 L87.31123,64.6007" stroke="#000000" stroke-width="0.24" fill="none" />
  <path d="M57.89843,49.73321 L57.89833,47.77045 C57.53797,47.38686 57.06843,47.38686 56.88233,47.51855" stroke="#000000" stroke-width="0.24" fill="none" />
  <path d="M39.38015,39.04168 L39.38005,37.07892 L39.2058,36.82701" stroke="#000000" stroke-width="0.24" fill="none" />
  <path d="M38.36405,36.82701 L38.18972,37.07 L38.18975,38.3544" stroke="#000000" stroke-width="0.24" fill="none" />
  <path d="M22.70773,40.59336 L22.70773,41.17654 L27.37341,43.87028 L27.37341,57.9914" stroke="#000000" stroke-width="0.24" fill="none" />
  <path d="M28.56382,45.98427 L29.79939,45.27091 L38.18975,50.11509 L38.18975,51.74659" stroke="#000000" stroke-width="0.24" fill="none" />
  <path d="M39.38015,50.80236 L45.89169,54.56181 L45.89169,56.53346 L46.066,56.77643" stroke="#000000" stroke-width="0.24" fill="none" />
  <path d="M46.90771,56.77648 L48.31767,55.96244" stroke="#000000" stroke-width="0.24" fill="none" />
  <path d="M75.47885,71.64396 L75.47885,85.76508" stroke="#000000" stroke-width="0.24" fill="none" />
  <path d="M76.66925,73.75796 L77.90482,73.04459" stroke="#000000" stroke-width="0.24" fill="none" />
  <path d="M82.47126,75.68103 L86.29518,73.47329" stroke="#000000" stroke-width="0.24" fill="none" />
  <path d="M87.48558,79.52027 L87.48558,72.78601 L92.15127,70.09228" stroke="#000000" stroke-width="0.24" fill="none" />
  <path d="M77.90482,73.04459 L82.47126,75.68103" stroke="#000000" stroke-width="0.24" fill="none" />
  <path d="M48.31767,55.96244 L75.47885,71.64396" stroke="#000000" stroke-width="0.24" fill="none" />
  <path d="M28.56382,57.9914 L28.56382,45.98427" stroke="#000000" stroke-width="0.24" fill="none" />
  <path d="M38.18975,38.3544 L32.38774,35.00461" stroke="#000000" stroke-width="0.24" fill="none" />
  <path d="M86.29516,66.12801 L57.89843,49.73321" stroke="#000000" stroke-width="0.24" fill="none" />
  <path d="M82.47126,75.68103 L76.66925,72.33124" stroke="#000000" stroke-width="0.24" fill="none" />
  <path d="M56.70803,47.76156 L56.70803,49.04593" stroke="#000000" stroke-width="0.24" fill="none" />
  <path d="M32.38774,35.00461 L92.15127,69.5091" stroke="#000000" stroke-width="0.24" fill="none" />
  <path d="M76.66923,71.0885 L76.66923,72.78597" stroke="#000000" stroke-width="0.24" fill="none" />
  <path d="M28.56379,43.31482 L28.38946,43.07183 C28.20336,42.94014 27.73382,42.94014 27.54772,43.07183 L27.37339,43.31482" stroke="#000000" stroke-width="0.24" fill="none" />
  <path d="M32.38774,35.00461 L22.70773,40.59336" stroke="#000000" stroke-width="0.24" fill="none" />
  <path d="M76.66925,85.76508 L76.66925,73.75796" stroke="#000000" stroke-width="0.24" fill="none" />
  <path d="M28.38949,46.08492 L29.7995,45.27085" stroke="#111111" stroke-width="0.24" fill="none" />
  <path d="M86.29516,79.52025 L86.46949,79.76324 C86.65559,79.89493 87.12513,79.89493 87.31123,79.76324 L87.48556,79.52025" stroke="#111111" stroke-width="0.24" fill="none" />
  <path d="M28.38946,58.23436 L28.56379,57.99137" stroke="#111111" stroke-width="0.24" fill="none" />
  <path d="M75.47883,85.76506 L75.65316,86.00805 C75.83926,86.13974 76.3088,86.13974 76.4949,86.00805 L76.66923,85.76506" stroke="#111111" stroke-width="0.24" fill="none" />
  <path d="M39.38012,50.80234 L39.38012,51.74656" stroke="#111111" stroke-width="0.24" fill="none" />
  <path d="M28.56379,45.98413 L28.56379,57.99137" stroke="#111111" stroke-width="0.24" fill="none" />
  <path d="M38.18972,37.07 L38.36405,37.31299 C38.55016,37.44468 39.01969,37.44468 39.2058,37.31299 L39.38012,37.07 L39.2058,36.82701 C39.01969,36.69532 38.55016,36.69532 38.36405,36.82701 z" stroke="#111111" stroke-width="0.24" fill="none" />
  <path d="M38.18972,51.74656 L38.18972,50.11501" stroke="#111111" stroke-width="0.24" fill="none" />
  <path d="M27.37339,43.31482 L27.54772,43.5578 C27.73382,43.68949 28.20336,43.68949 28.38946,43.5578" stroke="#111111" stroke-width="0.24" fill="none" />
  <path d="M86.29516,66.12794 L86.29516,64.84369" stroke="#111111" stroke-width="0.24" fill="none" />
  <path d="M87.48556,72.78599 L87.48556,79.52025" stroke="#111111" stroke-width="0.24" fill="none" />
  <path d="M76.66923,73.75793 L76.66923,85.76506" stroke="#111111" stroke-width="0.24" fill="none" />
  <path d="M27.37521,43.28814 L22.70773,40.59336" stroke="#111111" stroke-width="0.24" fill="none" />
  <path d="M86.29516,64.84369 L86.46949,65.08668 C86.65559,65.21837 87.12513,65.21837 87.31123,65.08668 L87.48556,64.84369" stroke="#111111" stroke-width="0.24" fill="none" />
  <path d="M86.29516,79.52025 L86.29516,73.47327" stroke="#111111" stroke-width="0.24" fill="none" />
  <path d="M86.46949,64.6007 L86.29516,64.84369" stroke="#111111" stroke-width="0.24" fill="none" />
  <path d="M28.38946,43.5578 L28.56379,43.31482" stroke="#111111" stroke-width="0.24" fill="none" />
  <path d="M57.8984,47.76154 L57.72407,47.51855 C57.53797,47.38686 57.06843,47.38686 56.88233,47.51855" stroke="#111111" stroke-width="0.24" fill="none" />
  <path d="M57.8984,47.76154 L57.8984,49.73319" stroke="#111111" stroke-width="0.24" fill="none" />
  <path d="M56.88233,47.51855 L56.708,47.76154" stroke="#111111" stroke-width="0.24" fill="none" />
  <path d="M22.70773,40.59336 L32.38774,35.00461" stroke="#111111" stroke-width="0.24" fill="none" />
  <path d="M22.70773,41.17654 L22.70773,40.59336" stroke="#111111" stroke-width="0.24" fill="none" />
  <path d="M82.47126,75.68103 L82.47126,75.09786" stroke="#111111" stroke-width="0.24" fill="none" />
  <path d="M92.15127,70.09228 L92.15127,69.5091" stroke="#111111" stroke-width="0.24" fill="none" />
  <path d="M46.90776,56.77645 L48.31773,55.96241" stroke="#111111" stroke-width="0.24" fill="none" />
  <path d="M75.48065,71.06183 L47.08209,54.66591" stroke="#111111" stroke-width="0.24" fill="none" />
  <path d="M56.708,49.04591 L56.708,47.76154" stroke="#111111" stroke-width="0.24" fill="none" />
  <path d="M75.47883,71.0885 L75.65316,71.33149 C75.83926,71.46318 76.3088,71.46318 76.4949,71.33149 L76.66923,71.0885" stroke="#111111" stroke-width="0.24" fill="none" />
  <path d="M87.48556,64.84369 L87.48556,66.81508" stroke="#111111" stroke-width="0.24" fill="none" />
  <path d="M87.48556,64.84369 L87.31123,64.6007 C87.12513,64.46901 86.65559,64.46901 86.46949,64.6007" stroke="#111111" stroke-width="0.24" fill="none" />
  <path d="M92.15127,69.5091 L82.47126,75.09786" stroke="#111111" stroke-width="0.24" fill="none" />
  <path d="M39.38012,37.07 L39.38012,39.04166" stroke="#111111" stroke-width="0.24" fill="none" />
  <path d="M45.89167,56.53344 L46.066,56.77643 C46.25207,56.90808 46.72148,56.90813 46.90764,56.77649" stroke="#111111" stroke-width="0.24" fill="none" />
  <path d="M38.18972,38.35438 L38.18972,37.07" stroke="#111111" stroke-width="0.24" fill="none" />
  <path d="M45.89349,53.97967 L28.56382,43.97438" stroke="#111111" stroke-width="0.24" fill="none" />
  <path d="M46.90776,55.80449 L47.47609,55.47637" stroke="#111111" stroke-width="0.24" fill="none" />
  <path d="M76.49493,72.88664 L77.06319,72.55856" stroke="#111111" stroke-width="0.24" fill="none" />
  <path d="M27.37339,57.99137 L27.54772,58.23436 C27.73382,58.36605 28.20336,58.36605 28.38946,58.23436" stroke="#111111" stroke-width="0.24" fill="none" />
  <path d="M39.2058,51.98955 L39.38012,51.74656" stroke="#111111" stroke-width="0.24" fill="none" />
  <path d="M38.18972,51.74656 L38.36405,51.98955 C38.55016,52.12124 39.01969,52.12124 39.2058,51.98955" stroke="#111111" stroke-width="0.24" fill="none" />
  <path d="M45.89167,54.00635 L46.066,54.24934 C46.2521,54.38103 46.72164,54.38103 46.90774,54.24934 L47.08207,54.00635" stroke="#111111" stroke-width="0.24" fill="none" />
  <path d="M28.38949,45.11296 L28.95786,44.78481" stroke="#111111" stroke-width="0.24" fill="none" />
  <path d="M82.47126,75.09786 L76.66925,71.74806" stroke="#111111" stroke-width="0.24" fill="none" />
  <path d="M27.37346,43.8703 L22.70773,41.17654" stroke="#111111" stroke-width="0.24" fill="none" />
  <path d="M56.708,47.76154 L56.88233,48.00452 C57.06843,48.13622 57.53797,48.13622 57.72407,48.00452 L57.8984,47.76154" stroke="#111111" stroke-width="0.24" fill="none" />
</svg>