<?xml version="1.0" encoding="utf-8" standalone="no"?>
<!DOCTYPE svg PUBLIC "-//W3C//DTD SVG 1.1//EN" "http://www.w3.org/Graphics/SVG/1.1/DTD/svg11.dtd">
<svg version="1.1" width="119.76pt" height="119.76pt" viewBox="0 0 119.76 119.76" overflow="visible" xmlns="http://www.w3.org/2000/svg">
  <path d="M56.9346,59.51088 L56.9346,65.81586 L56.80859,59.58363" stroke="#000000" stroke-width="0" fill="#555555" fill-opacity="1" />
  <path d="M55.46452,59.38963 L55.46452,60.35963 L54.9185,60.04438 L54.9185,59.07438 L56.17856,58.34689 L55.17051,59.07438 L55.46452,59.24413 L57.43862,58.10439 L57.43862,57.61938 L58.69868,56.89189 L59.11871,57.13439 z M57.56463,57.69213 L57.56463,58.03164 L58.9927,57.20714 L58.69868,57.03739 z" stroke="#000000" stroke-width="0" fill="#555555" fill-opacity="1" />
  <path d="M54.90361,66.71513 L55.19151,66.74949 C55.39819,66.84462 55.63248,67.25043 55.61153,67.47699 L55.49614,67.74438 L55.19151,67.71949 C54.98483,67.62436 54.75053,67.21854 54.77148,66.99199 z" stroke="#000000" stroke-width="0" fill="#555555" fill-opacity="1" />
  <path d="M56.3046,58.75903 L55.46452,59.24413 L55.17051,59.07438 L56.30457,58.41963 z" stroke="#000000" stroke-width="0" fill="#777777" fill-opacity="1" />
  <path d="M57.77465,65.05722 L59.09476,64.29505 L59.39172,64.32449 C59.5984,64.41962 59.8327,64.82544 59.81174,65.05199 L59.68872,65.32391 L55.49614,67.74438 L55.61153,67.47699 C55.63248,67.25043 55.39819,66.84462 55.19151,66.74949 L54.90355,66.715 L56.80859,65.61497 L56.9346,59.51088 L55.46452,60.35963 L55.46452,59.38963 L59.24471,57.20714 L59.24471,58.17714 L57.77464,59.02588 z" stroke="#000000" stroke-width="0" fill="#777777" fill-opacity="1" />
  <path d="M57.56463,57.69213 L58.69868,57.03739 L58.9927,57.20714 L57.56463,58.03164 z" stroke="#000000" stroke-width="0" fill="#777777" fill-opacity="1" />
  <path d="M56.80861,59.58366 L56.80861,65.74314" stroke="#000000" stroke-width="0.24" fill="none" />
  <path d="M58.69871,57.03741 L58.69871,57.37691" stroke="#111111" stroke-width="0.24" fill="none" />
  <path d="M55.33854,59.31691 L54.91852,59.07441" stroke="#111111" stroke-width="0.24" fill="none" />
  <path d="M58.69871,57.03741 L57.56465,57.69216" stroke="#111111" stroke-width="0.24" fill="none" />
  <path d="M55.17053,59.07441 L56.30459,58.41966" stroke="#111111" stroke-width="0.24" fill="none" />
  <path d="M54.91852,59.07441 L54.91852,60.0444" stroke="#111111" stroke-width="0.24" fill="none" />
  <path d="M56.93462,59.51091 L55.46455,60.35965" stroke="#111111" stroke-width="0.24" fill="none" />
  <path d="M59.24474,58.17716 L57.77466,59.02591" stroke="#111111" stroke-width="0.24" fill="none" />
  <path d="M57.43864,57.61941 L58.69871,56.89191" stroke="#111111" stroke-width="0.24" fill="none" />
  <path d="M55.46455,59.38966 L55.46455,60.35965" stroke="#111111" stroke-width="0.24" fill="none" />
  <path d="M59.24474,57.20716 L55.46455,59.38966" stroke="#111111" stroke-width="0.24" fill="none" />
  <path d="M55.33854,60.2869 L54.91852,60.0444" stroke="#111111" stroke-width="0.24" fill="none" />
  <path d="M56.17858,58.34691 L54.91852,59.07441" stroke="#111111" stroke-width="0.24" fill="none" />
  <path d="M56.93462,65.8159 L56.93462,59.51091" stroke="#111111" stroke-width="0.24" fill="none" />
  <path d="M57.77465,65.05722 L59.09472,64.29507" stroke="#111111" stroke-width="0.24" fill="none" />
  <path d="M59.11873,57.13441 L58.82472,56.96466" stroke="#111111" stroke-width="0.24" fill="none" />
  <path d="M54.89451,66.72007 L55.19151,66.74949 C55.39819,66.84462 55.63248,67.25043 55.61153,67.47699 L55.48851,67.74891" stroke="#111111" stroke-width="0.24" fill="none" />
  <path d="M59.68872,65.32391 L55.48851,67.74891" stroke="#111111" stroke-width="0.24" fill="none" />
  <path d="M59.0948,64.29504 L59.39172,64.32449 C59.5984,64.41962 59.8327,64.82544 59.81174,65.05199 L59.68872,65.32391" stroke="#111111" stroke-width="0.24" fill="none" />
  <path d="M55.48851,67.74891 L55.19151,67.71949 C54.98483,67.62436 54.75053,67.21854 54.77148,66.99199 L54.89451,66.72007" stroke="#111111" stroke-width="0.24" fill="none" />
  <path d="M57.56465,57.69216 L57.56465,58.03166 L57.43864,58.10441" stroke="#111111" stroke-width="0.24" fill="none" />
  <path d="M56.30459,58.41966 L56.30459,58.75898" stroke="#111111" stroke-width="0.24" fill="none" />
  <path d="M59.24474,57.20716 L59.24474,58.17716" stroke="#111111" stroke-width="0.24" fill="none" />
  <path d="M57.77466,65.33089 L56.93462,65.8159" stroke="#111111" stroke-width="0.24" fill="none" />
  <path d="M54.90349,66.71488 L56.8087,65.61491" stroke="#111111" stroke-width="0.24" fill="none" />
  <path d="M57.77466,65.33089 L57.77466,59.02591" stroke="#111111" stroke-width="0.24" fill="none" />
  <path d="M59.24471,57.20714 L59.24471,58.17714 L57.77464,59.02588 L57.77465,65.05722 L59.09476,64.29505 L59.39172,64.32449 C59.5984,64.41962 59.8327,64.82544 59.81174,65.05199 L59.68872,65.32391 L55.48851,67.74891 L55.19151,67.71949 C54.98483,67.62436 54.75053,67.21854 54.77148,66.99199 L54.89451,66.72007 L56.80859,65.61497 L56.80859,59.58363 L55.46452,60.35963 L54.9185,60.04438 L54.9185,59.07438 L56.17856,58.34689 L56.3046,58.75903 L57.43862,58.10439 L57.43862,57.61938 L58.69868,56.89189 L59.11871,57.13439 L58.99273,57.20716" stroke="#000000" stroke-width="0.24" fill="none" />
  <path d="M55.17053,59.07441 L55.46455,59.24416 L58.99273,57.20716" stroke="#000000" stroke-width="0.24" fill="none" />
</svg>