<?xml version="1.0" encoding="utf-8" standalone="no"?>
<!DOCTYPE svg PUBLIC "-//W3C//DTD SVG 1.1//EN" "http://www.w3.org/Graphics/SVG/1.1/DTD/svg11.dtd">
<svg version="1.1" width="120pt" height="120pt" viewBox="0 0 120 120" overflow="visible" xmlns="http://www.w3.org/2000/svg">
  <path d="M45.88055,74.60376 L51.67088,71.26071 L51.67089,71.8427 L45.88055,75.18575 z" stroke="Black" stroke-width="0" fill="#BBBBBB" fill-opacity="1" />
  <path d="M52.85709,70.57585 L81.19836,54.21303 L81.19839,54.79499 L52.85889,71.15681 z" stroke="Black" stroke-width="0" fill="#BBBBBB" fill-opacity="1" />
  <path d="M87.04265,51.42081 L82.3864,54.1091 L82.3864,53.55481 L87.04265,50.83881 z" stroke="Black" stroke-width="0" fill="#BBBBBB" fill-opacity="1" />
  <path d="M45.88055,75.18575 L29.07969,65.48578 L29.07969,64.90378 L45.88055,74.60376 z" stroke="Black" stroke-width="0" fill="#CCCCCC" fill-opacity="1" />
  <path d="M29.07969,64.90378 L70.24179,41.13883 L87.04265,50.83881 L82.38459,53.52814 L82.21242,53.31231 C82.02669,53.18089 81.5581,53.18089 81.37238,53.31231 L81.19839,53.55481 L81.19836,54.21303 L52.85709,70.57585 L52.68491,70.36002 C52.49918,70.2286 52.03059,70.2286 51.84487,70.36002 L51.67089,70.60252 L51.67088,71.26071 L45.88055,74.60376 z" stroke="Black" stroke-width="0" fill="#EEEEEE" fill-opacity="1" />
  <path d="M52.85879,70.6114 L52.68491,70.84502 C52.49918,70.97645 52.03059,70.97645 51.84487,70.84502 L51.67099,70.6114 L51.84487,70.36002 C52.03059,70.2286 52.49918,70.2286 52.68491,70.36002 z" stroke="Black" stroke-width="0" fill="#555555" fill-opacity="1" />
  <path d="M82.38629,53.56368 L82.21242,53.79731 C82.02669,53.92873 81.5581,53.92873 81.37238,53.79731 L81.19849,53.56368 L81.37238,53.31231 C81.5581,53.18089 82.02669,53.18089 82.21242,53.31231 z" stroke="Black" stroke-width="0" fill="#555555" fill-opacity="1" />
  <path d="M81.19839,55.24886 L80.80533,55.02192 L81.19839,54.79499 z" stroke="Black" stroke-width="0" fill="#555555" fill-opacity="1" />
  <path d="M33.73595,60.24778 L33.90992,60.00528 C34.09565,59.87386 34.56424,59.87386 34.74997,60.00528 L34.92395,60.24778 L34.74997,60.49028 C34.56424,60.6217 34.09565,60.6217 33.90992,60.49028 z" stroke="Black" stroke-width="0" fill="#555555" fill-opacity="1" />
  <path d="M64.45135,43.20894 L64.27747,43.44257 C64.09175,43.57399 63.62316,43.57399 63.43743,43.44257 L63.26345,43.20007 L63.43743,42.95757 C63.62316,42.82615 64.09175,42.82615 64.27747,42.95757 z" stroke="Black" stroke-width="0" fill="#555555" fill-opacity="1" />
  <path d="M51.67089,72.29657 L51.27782,72.06964 L51.67089,71.8427 z" stroke="Black" stroke-width="0" fill="#555555" fill-opacity="1" />
  <path d="M51.67089,85.24949 L51.67089,73.26657 L50.43778,72.55463 L51.27782,72.06964 L51.67089,72.29657 L51.67099,70.6114 L51.84487,70.84502 C52.03059,70.97645 52.49918,70.97645 52.68491,70.84502 L52.85879,70.6114 L52.85889,85.24949 L52.74009,85.45526 C52.49918,85.62341 52.03059,85.62341 51.84487,85.49199 z" stroke="Black" stroke-width="0" fill="#777777" fill-opacity="1" />
  <path d="M81.19839,56.21886 L79.96529,55.50692 L80.80533,55.02192 L81.19839,55.24886 L81.19849,53.56368 L81.37238,53.79731 C81.5581,53.92873 82.02669,53.92873 82.21242,53.79731 L82.38629,53.56368 L82.3864,68.20178 L82.26759,68.40755 C82.02669,68.5757 81.5581,68.5757 81.37238,68.44427 L81.19839,68.20178 z" stroke="Black" stroke-width="0" fill="#777777" fill-opacity="1" />
  <path d="M34.92395,68.85995 L34.92395,74.89475 L34.80515,75.10052 C34.56424,75.26867 34.09565,75.26867 33.90992,75.13725 L33.73595,74.89475 L33.73595,68.17406 z" stroke="Black" stroke-width="0" fill="#777777" fill-opacity="1" />
  <path d="M33.73605,60.25666 L33.90992,60.49028 C34.09565,60.6217 34.56424,60.6217 34.74997,60.49028 L34.92385,60.25665 L34.92395,61.52959 L33.73595,62.21549 z" stroke="Black" stroke-width="0" fill="#777777" fill-opacity="1" />
  <path d="M63.43743,43.44257 C63.62316,43.57399 64.09175,43.57399 64.27747,43.44257 L64.45135,43.20894 L64.45145,44.48188 L63.26345,45.16777 L63.26355,43.20894 z" stroke="Black" stroke-width="0" fill="#777777" fill-opacity="1" />
  <path d="M87.04267,51.42083 L87.04267,50.83883" stroke="#111111" stroke-width="0.24" fill="none" />
  <path d="M45.88057,75.18578 L45.88057,74.60378" stroke="#111111" stroke-width="0.24" fill="none" />
  <path d="M82.3864,53.55481 L82.21242,53.79731 C82.02669,53.92873 81.5581,53.92873 81.37238,53.79731" stroke="#111111" stroke-width="0.24" fill="none" />
  <path d="M51.67091,73.26653 L51.67091,85.24952" stroke="#111111" stroke-width="0.24" fill="none" />
  <path d="M81.19842,56.21888 L81.19842,68.20181" stroke="#111111" stroke-width="0.24" fill="none" />
  <path d="M29.07971,65.4858 L45.88057,75.18578" stroke="#111111" stroke-width="0.24" fill="none" />
  <path d="M29.07971,64.9038 L45.88057,74.60378" stroke="#111111" stroke-width="0.24" fill="none" />
  <path d="M52.85891,71.15684 L81.19842,54.79501" stroke="#111111" stroke-width="0.24" fill="none" />
  <path d="M45.88057,74.60378 L51.6709,71.26073" stroke="#111111" stroke-width="0.24" fill="none" />
  <path d="M51.67091,70.60255 L51.67091,72.2966" stroke="#111111" stroke-width="0.24" fill="none" />
  <path d="M81.37238,68.44427 L81.19839,68.20178" stroke="#111111" stroke-width="0.24" fill="none" />
  <path d="M82.38642,68.20181 L82.38642,53.55483" stroke="#111111" stroke-width="0.24" fill="none" />
  <path d="M81.19842,53.55483 L81.19842,55.24888" stroke="#111111" stroke-width="0.24" fill="none" />
  <path d="M82.3864,68.20178 L82.21242,68.44427 C82.02669,68.5757 81.5581,68.5757 81.37238,68.44427" stroke="#111111" stroke-width="0.24" fill="none" />
  <path d="M81.3724,55.34933 L80.80515,55.02183" stroke="#111111" stroke-width="0.24" fill="none" />
  <path d="M81.3724,56.31933 L79.9652,55.50689" stroke="#111111" stroke-width="0.24" fill="none" />
  <path d="M51.27767,72.06956 L51.84489,72.39704" stroke="#111111" stroke-width="0.24" fill="none" />
  <path d="M50.43773,72.55462 L51.84489,73.36704" stroke="#111111" stroke-width="0.24" fill="none" />
  <path d="M29.07971,65.4858 L29.07971,64.9038" stroke="#111111" stroke-width="0.24" fill="none" />
  <path d="M63.26345,43.20007 L63.26345,45.16777" stroke="#111111" stroke-width="0.24" fill="none" />
  <path d="M63.26345,43.20007 L63.43743,42.95757 C63.62316,42.82615 64.09175,42.82615 64.27747,42.95757 L64.45145,43.20007" stroke="#111111" stroke-width="0.24" fill="none" />
  <path d="M63.43743,43.44257 L63.26345,43.20007" stroke="#111111" stroke-width="0.24" fill="none" />
  <path d="M64.45145,43.20007 L64.27747,43.44257 C64.09175,43.57399 63.62316,43.57399 63.43743,43.44257" stroke="#111111" stroke-width="0.24" fill="none" />
  <path d="M34.74997,60.00528 L34.92395,60.24778" stroke="#111111" stroke-width="0.24" fill="none" />
  <path d="M52.85889,85.24949 L52.68491,85.49199 C52.49918,85.62341 52.03059,85.62341 51.84487,85.49199 L51.67089,85.24949" stroke="#111111" stroke-width="0.24" fill="none" />
  <path d="M34.92395,74.89475 L34.92395,68.85995" stroke="#111111" stroke-width="0.24" fill="none" />
  <path d="M33.73595,60.24778 L33.73595,62.21549" stroke="#111111" stroke-width="0.24" fill="none" />
  <path d="M33.73595,60.24778 L33.90992,60.00528 C34.09565,59.87386 34.56424,59.87386 34.74997,60.00528" stroke="#111111" stroke-width="0.24" fill="none" />
  <path d="M52.85711,70.57587 L81.19835,54.21305" stroke="#111111" stroke-width="0.24" fill="none" />
  <path d="M34.92395,60.24778 L34.74997,60.49028 C34.56424,60.6217 34.09565,60.6217 33.90992,60.49028 L33.73595,60.24778" stroke="#111111" stroke-width="0.24" fill="none" />
  <path d="M64.45145,44.48188 L64.45145,43.20007" stroke="#111111" stroke-width="0.24" fill="none" />
  <path d="M33.73595,68.17406 L33.73595,74.89475" stroke="#111111" stroke-width="0.24" fill="none" />
  <path d="M34.92395,61.52959 L34.92395,60.24778" stroke="#111111" stroke-width="0.24" fill="none" />
  <path d="M70.24181,41.13885 L29.07971,64.9038" stroke="#111111" stroke-width="0.24" fill="none" />
  <path d="M34.92395,74.89475 L34.74997,75.13725 C34.56424,75.26867 34.09565,75.26867 33.90992,75.13725 L33.73595,74.89475" stroke="#111111" stroke-width="0.24" fill="none" />
  <path d="M45.88057,75.18578 L51.67091,71.84273" stroke="#111111" stroke-width="0.24" fill="none" />
  <path d="M52.85889,70.60252 L52.68491,70.84502 C52.49918,70.97645 52.03059,70.97645 51.84487,70.84502 L51.67089,70.60252" stroke="#111111" stroke-width="0.24" fill="none" />
  <path d="M82.38461,53.52817 L87.04267,50.83883" stroke="#111111" stroke-width="0.24" fill="none" />
  <path d="M82.38642,54.10912 L87.04267,51.42083" stroke="#111111" stroke-width="0.24" fill="none" />
  <path d="M81.37238,53.79731 L81.19839,53.55481" stroke="#111111" stroke-width="0.24" fill="none" />
  <path d="M87.04267,50.83883 L70.24181,41.13885" stroke="#111111" stroke-width="0.24" fill="none" />
  <path d="M51.67089,70.60252 L51.84487,70.36002 C52.03059,70.2286 52.49918,70.2286 52.68491,70.36002 L52.85889,70.60252" stroke="#000000" stroke-width="0.24" fill="none" />
  <path d="M81.19839,53.55481 L81.37238,53.31231 C81.5581,53.18089 82.02669,53.18089 82.21242,53.31231 L82.3864,53.55481" stroke="#000000" stroke-width="0.24" fill="none" />
  <path d="M33.73595,74.89475 L33.73595,68.17406 L29.07969,65.48578 L29.07969,64.90378 L33.73595,62.21549 L33.73605,60.25666 L33.90992,60.00528 C34.09565,59.87386 34.56424,59.87386 34.74997,60.00528 L34.92395,60.24778 L34.92395,61.52959 L63.26345,45.16777 L63.26355,43.20894 L63.43743,42.95757 C63.62316,42.82615 64.09175,42.82615 64.27747,42.95757 L64.45145,43.20007 L64.45145,44.48188 L70.24179,41.13883 L87.04265,50.83881 L87.04265,51.42081 L82.3864,54.1091 L82.3864,68.20178" stroke="#000000" stroke-width="0.24" fill="none" />
  <path d="M52.85891,85.24952 L52.85891,70.60255" stroke="#000000" stroke-width="0.24" fill="none" />
  <path d="M51.67091,85.24952 L51.67091,73.26659 L50.43781,72.55466 L45.88057,75.18578 L34.92397,68.85999 L34.92397,74.89478" stroke="#000000" stroke-width="0.24" fill="none" />
  <path d="M70.40384,61.02726 L52.85891,71.15684 L52.85891,85.24952" stroke="#000000" stroke-width="0.24" fill="none" />
  <path d="M81.19842,68.20181 L81.19842,56.21888 L79.96531,55.50695 L70.40384,61.02726" stroke="#000000" stroke-width="0.24" fill="none" />
</svg>