<?xml version="1.0" encoding="utf-8" standalone="no"?>
<!DOCTYPE svg PUBLIC "-//W3C//DTD SVG 1.1//EN" "http://www.w3.org/Graphics/SVG/1.1/DTD/svg11.dtd">
<svg version="1.1" width="120pt" height="120pt" viewBox="0 0 120 120" overflow="visible" xmlns="http://www.w3.org/2000/svg">
  <path d="M65.0037,63.19314 L65.0036,63.73855 L36.66409,47.37673 L36.66409,46.79473 z" stroke="Black" stroke-width="0" fill="#BBBBBB" fill-opacity="1" />
  <path d="M67.8447,79.58936 L67.8447,80.17136 L66.1916,79.21691 L66.1916,78.63491 z" stroke="Black" stroke-width="0" fill="#BBBBBB" fill-opacity="1" />
  <path d="M66.1916,64.42444 L66.19164,63.84248 L67.8447,64.79689 L67.8447,65.37889 z" stroke="Black" stroke-width="0" fill="#BBBBBB" fill-opacity="1" />
  <path d="M36.66409,62.1692 L36.66409,61.5872 L65.0036,77.94902 L65.0036,78.53101 z" stroke="Black" stroke-width="0" fill="#BBBBBB" fill-opacity="1" />
  <path d="M35.47609,60.90131 L35.47609,61.4833 L34.95702,61.18365 L34.95702,60.60165 z" stroke="Black" stroke-width="0" fill="#BBBBBB" fill-opacity="1" />
  <path d="M67.8447,79.58936 L84.64556,69.88938 L84.64556,70.47138 L67.8447,80.17136 z" stroke="Black" stroke-width="0" fill="#CCCCCC" fill-opacity="1" />
  <path d="M67.8447,65.37889 L67.8447,64.79689 L84.64556,55.09691 L84.64556,55.67891 z" stroke="Black" stroke-width="0" fill="#CCCCCC" fill-opacity="1" />
  <path d="M67.8447,65.37889 L72.33934,62.78391 L84.12651,69.58968 L84.64556,69.88938 L67.8447,79.58936 L66.1916,78.63491 L66.1916,65.84831 L67.42469,65.13638 z" stroke="Black" stroke-width="0" fill="#EEEEEE" fill-opacity="1" />
  <path d="M34.95702,60.60165 L35.47609,60.30196 L35.47609,60.90131 z" stroke="Black" stroke-width="0" fill="#EEEEEE" fill-opacity="1" />
  <path d="M65.17758,62.94176 L65.0054,63.15759 L36.66409,46.79473 L36.66409,46.13655 L36.49012,45.89405 C36.30439,45.76263 35.8358,45.76263 35.65007,45.89405 L35.47609,46.13655 L35.47609,46.69083 L34.95702,46.39118 L34.95702,45.80918 L51.75788,36.1092 L53.41101,37.06361 L53.41111,35.7907 L53.58499,36.02432 C53.77071,36.15574 54.2393,36.15574 54.42503,36.02432 L54.59891,35.7907 L54.59901,37.7495 L82.93851,54.11132 L82.93861,52.83841 L83.1125,53.07203 C83.29822,53.20346 83.76681,53.20346 83.95254,53.07203 L84.12642,52.83841 L84.12652,54.79721 L84.64556,55.09691 L67.8447,64.79689 L66.19164,63.84248 L66.1915,63.19314 L66.01762,62.94176 C65.83189,62.81034 65.3633,62.81034 65.17758,62.94176 z" stroke="Black" stroke-width="0" fill="#EEEEEE" fill-opacity="1" />
  <path d="M65.0036,63.73855 L65.0036,77.94902 L36.66409,61.5872 L36.6641,59.61595 L47.26364,53.49638 z" stroke="Black" stroke-width="0" fill="#EEEEEE" fill-opacity="1" />
  <path d="M66.1916,64.42444 L66.58466,64.65137 L66.1916,64.87831 z" stroke="Black" stroke-width="0" fill="#555555" fill-opacity="1" />
  <path d="M35.47789,46.10987 L35.65007,45.89405 C35.8358,45.76263 36.30439,45.76263 36.49012,45.89405 L36.66409,46.13655 L36.49012,46.37905 C36.30439,46.51047 35.8358,46.51047 35.65007,46.37905 z" stroke="Black" stroke-width="0" fill="#555555" fill-opacity="1" />
  <path d="M65.0054,63.15759 L65.17758,62.94176 C65.3633,62.81034 65.83189,62.81034 66.01762,62.94176 L66.1916,63.18426 L66.01762,63.42676 C65.83189,63.55819 65.3633,63.55819 65.17758,63.42676 z" stroke="Black" stroke-width="0" fill="#555555" fill-opacity="1" />
  <path d="M36.66409,47.37673 L37.05716,47.60366 L36.66409,47.8306 z" stroke="Black" stroke-width="0" fill="#555555" fill-opacity="1" />
  <path d="M66.58466,79.44385 L66.19162,79.67072 L66.1916,79.21691 z" stroke="Black" stroke-width="0" fill="#555555" fill-opacity="1" />
  <path d="M36.66409,62.62307 L36.66409,62.1692 L37.05716,62.39613 z" stroke="Black" stroke-width="0" fill="#555555" fill-opacity="1" />
  <path d="M53.41101,35.78182 L53.58499,35.53932 C53.77071,35.4079 54.2393,35.4079 54.42503,35.53932 L54.59901,35.78182 L54.42503,36.02432 C54.2393,36.15574 53.77071,36.15574 53.58499,36.02432 z" stroke="Black" stroke-width="0" fill="#555555" fill-opacity="1" />
  <path d="M82.93851,52.82953 L83.1125,52.58704 C83.29822,52.45561 83.76681,52.45561 83.95254,52.58704 L84.12652,52.82953 L83.95254,53.07203 C83.76681,53.20346 83.29822,53.20346 83.1125,53.07203 z" stroke="Black" stroke-width="0" fill="#555555" fill-opacity="1" />
  <path d="M84.12652,73.29649 L83.95254,73.53899 C83.76681,73.67041 83.29822,73.67041 83.1125,73.53899 L82.94461,73.34415 L82.93851,71.45694 L84.12652,70.77105 z" stroke="Black" stroke-width="0" fill="#777777" fill-opacity="1" />
  <path d="M82.93851,68.90376 L82.93851,56.66447 L84.12651,55.97858 L84.12652,69.58968 z" stroke="Black" stroke-width="0" fill="#777777" fill-opacity="1" />
  <path d="M84.12642,52.83841 L84.12652,54.79721 L82.93851,54.11132 L82.93861,52.83841 L83.1125,53.07203 C83.29822,53.20346 83.76681,53.20346 83.95254,53.07203 z" stroke="Black" stroke-width="0" fill="#777777" fill-opacity="1" />
  <path d="M54.42503,36.02432 L54.59891,35.7907 L54.59901,37.7495 L53.41101,37.06361 L53.41111,35.7907 L53.58499,36.02432 C53.77071,36.15574 54.2393,36.15574 54.42503,36.02432 z" stroke="Black" stroke-width="0" fill="#777777" fill-opacity="1" />
  <path d="M35.47619,46.14542 L35.65007,46.37905 C35.8358,46.51047 36.30439,46.51047 36.49012,46.37905 L36.66399,46.14542 L36.66409,47.8306 L37.05716,47.60366 L37.8972,48.08866 L36.66409,48.80059 L36.66409,62.62307 L37.05716,62.39613 L37.8972,62.88113 L36.66409,63.59306 L36.66409,66.60351 L36.49012,66.846 C36.30439,66.97742 35.8358,66.97742 35.65007,66.846 L35.47609,66.60351 z" stroke="Black" stroke-width="0" fill="#777777" fill-opacity="1" />
  <path d="M66.19162,79.67072 L66.58466,79.44385 L67.42471,79.92884 L66.1916,80.64078 L66.1916,83.65122 L66.01762,83.89371 C65.83189,84.02514 65.3633,84.02514 65.17758,83.89371 L65.0036,83.65122 L65.0037,63.19314 L65.17758,63.42676 C65.3633,63.55819 65.83189,63.55819 66.01762,63.42676 L66.1915,63.19314 L66.1916,64.87831 L66.58466,64.65137 L67.42471,65.13638 L66.1916,65.84831 z" stroke="Black" stroke-width="0" fill="#777777" fill-opacity="1" />
  <path d="M36.66413,59.61597 L47.26366,53.4964 L37.89722,48.08868 L36.66412,48.80062 z" stroke="#000000" stroke-width="0.24" fill="none" />
  <path d="M84.64558,69.8894 L72.33936,62.78393" stroke="#000000" stroke-width="0.24" fill="none" />
  <path d="M84.64558,69.8894 L84.12654,69.58971 L84.12654,55.9786 L67.84473,65.37891 L67.42471,65.13641 L66.19163,65.84834 L66.19163,78.63493 L67.84473,79.58939 z" stroke="#000000" stroke-width="0.24" fill="none" />
  <path d="M67.84473,64.79691 L66.19169,63.8425" stroke="#111111" stroke-width="0.24" fill="none" />
  <path d="M65.00362,77.94904 L36.66412,61.58722" stroke="#111111" stroke-width="0.24" fill="none" />
  <path d="M35.47612,61.48333 L34.95705,61.18367" stroke="#111111" stroke-width="0.24" fill="none" />
  <path d="M35.47612,66.60353 L35.47612,46.13657" stroke="#111111" stroke-width="0.24" fill="none" />
  <path d="M36.66412,46.13657 L36.66412,47.83062" stroke="#111111" stroke-width="0.24" fill="none" />
  <path d="M36.66412,48.80062 L36.66412,62.62309" stroke="#111111" stroke-width="0.24" fill="none" />
  <path d="M35.47612,60.90133 L34.95705,60.60167" stroke="#111111" stroke-width="0.24" fill="none" />
  <path d="M66.58484,79.44378 L66.01765,79.77125" stroke="#111111" stroke-width="0.24" fill="none" />
  <path d="M67.42478,79.92884 L66.01765,80.74125" stroke="#111111" stroke-width="0.24" fill="none" />
  <path d="M65.17758,62.94176 L65.0036,63.18426" stroke="#111111" stroke-width="0.24" fill="none" />
  <path d="M66.58489,64.65128 L66.01765,64.97878" stroke="#111111" stroke-width="0.24" fill="none" />
  <path d="M67.42484,65.13634 L66.01765,65.94878" stroke="#111111" stroke-width="0.24" fill="none" />
  <path d="M65.00543,63.15762 L36.66412,46.79475" stroke="#111111" stroke-width="0.24" fill="none" />
  <path d="M65.00362,63.73857 L36.66412,47.37675" stroke="#111111" stroke-width="0.24" fill="none" />
  <path d="M36.49014,47.93107 L37.05742,47.60355" stroke="#111111" stroke-width="0.24" fill="none" />
  <path d="M36.49014,48.90107 L37.89736,48.08861" stroke="#111111" stroke-width="0.24" fill="none" />
  <path d="M36.66412,63.59301 L36.66412,66.60353" stroke="#111111" stroke-width="0.24" fill="none" />
  <path d="M65.0036,63.18426 L65.17758,63.42676 C65.3633,63.55819 65.83189,63.55819 66.01762,63.42676 L66.1916,63.18426" stroke="#111111" stroke-width="0.24" fill="none" />
  <path d="M36.49014,62.72354 L37.05737,62.39605" stroke="#111111" stroke-width="0.24" fill="none" />
  <path d="M36.49014,63.69353 L37.89731,62.88111" stroke="#111111" stroke-width="0.24" fill="none" />
  <path d="M67.84473,80.17138 L67.84473,79.58939" stroke="#111111" stroke-width="0.24" fill="none" />
  <path d="M82.93851,73.29649 L83.1125,73.53899 C83.29822,73.67041 83.76681,73.67041 83.95254,73.53899 L84.12652,73.29649" stroke="#111111" stroke-width="0.24" fill="none" />
  <path d="M84.64558,69.8894 L67.84473,79.58939" stroke="#111111" stroke-width="0.24" fill="none" />
  <path d="M84.64558,70.47141 L84.64558,69.8894" stroke="#111111" stroke-width="0.24" fill="none" />
  <path d="M84.64558,55.67894 L84.64558,55.09694" stroke="#111111" stroke-width="0.24" fill="none" />
  <path d="M67.84473,65.37891 L67.84473,64.79691" stroke="#111111" stroke-width="0.24" fill="none" />
  <path d="M83.1125,52.58704 L82.93851,52.82953" stroke="#111111" stroke-width="0.24" fill="none" />
  <path d="M84.12652,52.82953 L84.12652,54.79721" stroke="#111111" stroke-width="0.24" fill="none" />
  <path d="M84.12652,52.82953 L83.95254,52.58704 C83.76681,52.45561 83.29822,52.45561 83.1125,52.58704" stroke="#111111" stroke-width="0.24" fill="none" />
  <path d="M84.64558,55.09694 L67.84473,64.79691" stroke="#111111" stroke-width="0.24" fill="none" />
  <path d="M82.93851,52.82953 L83.1125,53.07203 C83.29822,53.20346 83.76681,53.20346 83.95254,53.07203 L84.12652,52.82953" stroke="#111111" stroke-width="0.24" fill="none" />
  <path d="M36.66413,59.61597 L47.26366,53.4964" stroke="#111111" stroke-width="0.24" fill="none" />
  <path d="M82.93851,54.11132 L82.93851,52.82953" stroke="#111111" stroke-width="0.24" fill="none" />
  <path d="M34.95705,60.60167 L35.47619,60.30195" stroke="#111111" stroke-width="0.24" fill="none" />
  <path d="M67.84473,79.58939 L66.19163,78.63493" stroke="#111111" stroke-width="0.24" fill="none" />
  <path d="M54.59901,35.78182 L54.59901,37.7495" stroke="#111111" stroke-width="0.24" fill="none" />
  <path d="M36.49012,66.846 L36.66409,66.60351" stroke="#111111" stroke-width="0.24" fill="none" />
  <path d="M54.59901,35.78182 L54.42503,35.53932 C54.2393,35.4079 53.77071,35.4079 53.58499,35.53932 L53.41101,35.78182" stroke="#111111" stroke-width="0.24" fill="none" />
  <path d="M54.42503,36.02432 L54.59901,35.78182" stroke="#111111" stroke-width="0.24" fill="none" />
  <path d="M67.84473,80.17138 L66.19163,79.21693" stroke="#111111" stroke-width="0.24" fill="none" />
  <path d="M35.47609,66.60351 L35.65007,66.846 C35.8358,66.97742 36.30439,66.97742 36.49012,66.846" stroke="#111111" stroke-width="0.24" fill="none" />
  <path d="M53.41101,35.78182 L53.58499,36.02432 C53.77071,36.15574 54.2393,36.15574 54.42503,36.02432" stroke="#111111" stroke-width="0.24" fill="none" />
  <path d="M53.41101,37.06361 L53.41101,35.78182" stroke="#111111" stroke-width="0.24" fill="none" />
  <path d="M36.49012,46.37905 L36.66409,46.13655" stroke="#111111" stroke-width="0.24" fill="none" />
  <path d="M84.64558,55.67894 L67.84473,65.37891" stroke="#111111" stroke-width="0.24" fill="none" />
  <path d="M35.47609,46.13655 L35.65007,46.37905 C35.8358,46.51047 36.30439,46.51047 36.49012,46.37905" stroke="#111111" stroke-width="0.24" fill="none" />
  <path d="M65.0036,83.65122 L65.17758,83.89371 C65.3633,84.02514 65.83189,84.02514 66.01762,83.89371 L66.1916,83.65122" stroke="#111111" stroke-width="0.24" fill="none" />
  <path d="M34.95705,46.3912 L34.95705,45.8092" stroke="#111111" stroke-width="0.24" fill="none" />
  <path d="M84.64558,70.47141 L67.84473,80.17138" stroke="#111111" stroke-width="0.24" fill="none" />
  <path d="M34.95705,61.18367 L34.95705,60.60167" stroke="#111111" stroke-width="0.24" fill="none" />
  <path d="M66.19163,80.6408 L66.19163,83.65125" stroke="#111111" stroke-width="0.24" fill="none" />
  <path d="M67.84473,65.37891 L66.19163,64.42446" stroke="#111111" stroke-width="0.24" fill="none" />
  <path d="M66.1916,63.18426 L66.01762,62.94176 C65.83189,62.81034 65.3633,62.81034 65.17758,62.94176" stroke="#000000" stroke-width="0.24" fill="none" />
  <path d="M36.66409,46.13655 L36.49012,45.89405 C36.30439,45.76263 35.8358,45.76263 35.65007,45.89405 L35.47609,46.13655" stroke="#000000" stroke-width="0.24" fill="none" />
  <path d="M67.8447,80.17136 L84.64556,70.47138 L84.64556,69.88938 L84.12652,69.58968 L84.12652,55.97858 L84.64556,55.67891 L84.64556,55.09691 L84.12652,54.79721 L84.12642,52.83841 L83.95254,52.58704 C83.76681,52.45561 83.29822,52.45561 83.1125,52.58704 L82.93851,52.82953 L82.93851,54.11132 L54.59901,37.7495 L54.59891,35.7907 L54.42503,35.53932 C54.2393,35.4079 53.77071,35.4079 53.58499,35.53932 L53.41101,35.78182 L53.41101,37.06361 L51.75788,36.1092 L34.95702,45.80918 L34.95702,46.39118 L35.47609,46.69083 L35.47609,60.30196 L34.95702,60.60165 L34.95702,61.18365 L35.47609,61.4833 L35.47609,66.60351 L35.65007,66.846 C35.8358,66.97742 36.30439,66.97742 36.49012,66.846 L36.66409,66.60351 L36.66409,63.59306 L37.8972,62.88113 L65.0036,78.53101 L65.0036,83.65122 L65.17758,83.89371 C65.3633,84.02514 65.83189,84.02514 66.01762,83.89371 L66.1916,83.65122 L66.1916,80.64078 L67.42471,79.92884 z" stroke="#000000" stroke-width="0.24" fill="none" />
  <path d="M82.93851,71.45694 L82.93851,73.29649 L83.1125,73.53899 C83.29822,73.67041 83.76681,73.67041 83.95254,73.53899 L84.12652,73.29649 L84.12652,70.77105" stroke="#000000" stroke-width="0.24" fill="none" />
  <path d="M65.00362,83.65125 L65.00362,63.18428" stroke="#000000" stroke-width="0.24" fill="none" />
  <path d="M66.19163,65.8482 L66.19163,79.67072" stroke="#000000" stroke-width="0.24" fill="none" />
  <path d="M66.19163,63.18429 L66.19163,64.87833" stroke="#000000" stroke-width="0.24" fill="none" />
</svg>