<?xml version="1.0" encoding="utf-8" standalone="no"?>
<!DOCTYPE svg PUBLIC "-//W3C//DTD SVG 1.1//EN" "http://www.w3.org/Graphics/SVG/1.1/DTD/svg11.dtd">
<svg version="1.1" width="120pt" height="120pt" viewBox="0 0 120 120" overflow="visible" xmlns="http://www.w3.org/2000/svg">
  <path d="M67.56432,63.96686 L67.56435,63.3849 L73.35465,66.72791 L73.35465,67.30991 z" stroke="Black" stroke-width="0" fill="#BBBBBB" fill-opacity="1" />
  <path d="M66.37641,62.73556 L66.37631,63.28097 L38.03681,46.91915 L38.03681,46.33715 z" stroke="Black" stroke-width="0" fill="#BBBBBB" fill-opacity="1" />
  <path d="M36.84891,45.68785 L36.84881,46.23325 L32.19255,43.54496 L32.19255,42.96297 z" stroke="Black" stroke-width="0" fill="#BBBBBB" fill-opacity="1" />
  <path d="M36.84881,60.44373 L36.84881,61.02572 L32.19255,58.33743 L32.19255,57.75544 z" stroke="Black" stroke-width="0" fill="#BBBBBB" fill-opacity="1" />
  <path d="M38.03681,61.71162 L38.03681,61.12962 L66.37631,77.49144 L66.37631,78.07344 z" stroke="Black" stroke-width="0" fill="#BBBBBB" fill-opacity="1" />
  <path d="M73.35465,81.52039 L73.35465,82.10239 L67.56432,78.75933 L67.56432,78.17733 z" stroke="Black" stroke-width="0" fill="#BBBBBB" fill-opacity="1" />
  <path d="M73.35465,67.30991 L73.35465,66.72791 L90.15551,57.02794 L90.15551,57.60994 z" stroke="Black" stroke-width="0" fill="#CCCCCC" fill-opacity="1" />
  <path d="M73.35465,81.52039 L90.15551,71.8204 L90.15551,72.4024 L73.35465,82.10239 z" stroke="Black" stroke-width="0" fill="#CCCCCC" fill-opacity="1" />
  <path d="M38.03681,46.33715 L38.03671,45.68785 L37.86283,45.43647 C37.6771,45.30505 37.20851,45.30505 37.02279,45.43647 L36.85061,45.65229 L32.19255,42.96297 L48.99341,33.26299 L90.15551,57.02794 L73.35465,66.72791 L67.56435,63.3849 L67.56422,62.73556 L67.39034,62.48418 C67.20461,62.35276 66.73602,62.35276 66.55029,62.48418 L66.37812,62.70001 z" stroke="Black" stroke-width="0" fill="#EEEEEE" fill-opacity="1" />
  <path d="M32.19255,57.75544 L36.84881,55.06715 L36.84881,60.44373 z" stroke="Black" stroke-width="0" fill="#EEEEEE" fill-opacity="1" />
  <path d="M73.35465,67.30991 L77.84888,64.71517 L85.49923,69.1321 L90.15551,71.8204 L73.35465,81.52039 L67.56432,78.17733 L67.56432,65.39073 L68.79742,64.67879 z" stroke="Black" stroke-width="0" fill="#EEEEEE" fill-opacity="1" />
  <path d="M66.37631,63.28097 L66.37631,77.49144 L38.03681,61.12962 L38.03681,54.38125 L44.49918,50.6502 z" stroke="Black" stroke-width="0" fill="#EEEEEE" fill-opacity="1" />
  <path d="M84.31123,52.37196 L84.48521,52.12946 C84.67094,51.99803 85.13953,51.99803 85.32525,52.12946 L85.49923,52.37196 L85.32525,52.61445 C85.13953,52.74588 84.67094,52.74588 84.48521,52.61445 z" stroke="Black" stroke-width="0" fill="#555555" fill-opacity="1" />
  <path d="M54.78372,35.32424 L54.9577,35.08174 C55.14342,34.95032 55.61202,34.95032 55.79774,35.08174 L55.97172,35.32424 L55.79774,35.56674 C55.61202,35.69816 55.14342,35.69816 54.9577,35.56674 z" stroke="Black" stroke-width="0" fill="#555555" fill-opacity="1" />
  <path d="M38.03681,62.16549 L38.03681,61.71162 L38.42987,61.93855 z" stroke="Black" stroke-width="0" fill="#555555" fill-opacity="1" />
  <path d="M67.95737,78.98627 L67.56433,79.21314 L67.56432,78.75933 z" stroke="Black" stroke-width="0" fill="#555555" fill-opacity="1" />
  <path d="M66.37811,62.70001 L66.55029,62.48418 C66.73602,62.35276 67.20461,62.35276 67.39034,62.48418 L67.56432,62.72668 L67.39034,62.96918 C67.20461,63.10061 66.73602,63.10061 66.55029,62.96918 z" stroke="Black" stroke-width="0" fill="#555555" fill-opacity="1" />
  <path d="M67.56432,63.96686 L67.95737,64.19379 L67.56432,64.42073 z" stroke="Black" stroke-width="0" fill="#555555" fill-opacity="1" />
  <path d="M38.03681,46.91915 L38.42987,47.14608 L38.03681,47.37302 z" stroke="Black" stroke-width="0" fill="#555555" fill-opacity="1" />
  <path d="M36.85061,45.65229 L37.02279,45.43647 C37.20851,45.30505 37.6771,45.30505 37.86283,45.43647 L38.03681,45.67897 L37.86283,45.92147 C37.6771,46.05289 37.20851,46.05289 37.02279,45.92147 z" stroke="Black" stroke-width="0" fill="#555555" fill-opacity="1" />
  <path d="M84.31122,68.44617 L84.31123,60.98413 L85.49923,60.29824 L85.49923,69.1321 z" stroke="Black" stroke-width="0" fill="#777777" fill-opacity="1" />
  <path d="M55.79774,35.56674 L55.97162,35.33312 L55.97172,37.29192 L54.78372,36.60603 L54.78382,35.33311 L54.9577,35.56674 C55.14342,35.69816 55.61202,35.69816 55.79774,35.56674 z" stroke="Black" stroke-width="0" fill="#777777" fill-opacity="1" />
  <path d="M85.49913,52.38083 L85.49923,54.33963 L84.31123,53.65374 L84.31133,52.38083 L84.48521,52.61445 C84.67094,52.74588 85.13953,52.74588 85.32525,52.61445 z" stroke="Black" stroke-width="0" fill="#777777" fill-opacity="1" />
  <path d="M36.84891,45.68784 L37.02279,45.92147 C37.20851,46.05289 37.6771,46.05289 37.86283,45.92147 L38.03671,45.68784 L38.03681,47.37302 L38.42987,47.14608 L39.26991,47.63108 L38.03681,48.34302 L38.03681,62.16549 L38.42987,61.93855 L39.26991,62.42355 L38.03681,63.13548 L38.03681,66.14593 L37.86283,66.38843 C37.6771,66.51984 37.20851,66.51984 37.02279,66.38843 L36.84881,66.14593 z" stroke="Black" stroke-width="0" fill="#777777" fill-opacity="1" />
  <path d="M67.56433,79.21314 L67.95737,78.98627 L68.79742,79.47127 L67.56432,80.1832 L67.56432,83.19364 L67.39034,83.43614 C67.20461,83.56756 66.73602,83.56756 66.55029,83.43614 L66.37631,83.19364 L66.37641,62.73556 L66.55029,62.96918 C66.73602,63.10061 67.20461,63.10061 67.39034,62.96918 L67.56422,62.73556 L67.56432,64.42073 L67.95737,64.19379 L68.79742,64.67879 L67.56432,65.39073 z" stroke="Black" stroke-width="0" fill="#777777" fill-opacity="1" />
  <path d="M90.15553,71.82043 L77.84891,64.71519" stroke="#000000" stroke-width="0.24" fill="none" />
  <path d="M73.35468,66.72794 L67.5644,63.38492" stroke="#111111" stroke-width="0.24" fill="none" />
  <path d="M66.37634,63.28099 L38.03683,46.91917" stroke="#111111" stroke-width="0.24" fill="none" />
  <path d="M90.15553,57.60996 L73.35468,67.30994" stroke="#111111" stroke-width="0.24" fill="none" />
  <path d="M66.37634,77.49146 L38.03683,61.12964" stroke="#111111" stroke-width="0.24" fill="none" />
  <path d="M73.35468,82.10241 L67.56434,78.75935" stroke="#111111" stroke-width="0.24" fill="none" />
  <path d="M38.03683,63.13543 L38.03683,66.14595" stroke="#111111" stroke-width="0.24" fill="none" />
  <path d="M66.37631,62.72668 L66.55029,62.96918 C66.73602,63.10061 67.20461,63.10061 67.39034,62.96918 L67.56432,62.72668" stroke="#111111" stroke-width="0.24" fill="none" />
  <path d="M73.35468,81.52041 L67.56434,78.17735" stroke="#111111" stroke-width="0.24" fill="none" />
  <path d="M67.56434,80.18322 L67.56434,83.19366" stroke="#111111" stroke-width="0.24" fill="none" />
  <path d="M67.56432,62.72668 L67.39034,62.48418 C67.20461,62.35276 66.73602,62.35276 66.55029,62.48418" stroke="#111111" stroke-width="0.24" fill="none" />
  <path d="M66.37631,83.19364 L66.55029,83.43614 C66.73602,83.56756 67.20461,83.56756 67.39034,83.43614 L67.56432,83.19364" stroke="#111111" stroke-width="0.24" fill="none" />
  <path d="M90.15553,57.02796 L73.35468,66.72794" stroke="#111111" stroke-width="0.24" fill="none" />
  <path d="M36.84883,60.44375 L32.19258,57.75546" stroke="#111111" stroke-width="0.24" fill="none" />
  <path d="M36.84883,61.02575 L32.19258,58.33746" stroke="#111111" stroke-width="0.24" fill="none" />
  <path d="M36.84881,45.67897 L37.02279,45.92147 C37.20851,46.05289 37.6771,46.05289 37.86283,45.92147 L38.03681,45.67897" stroke="#111111" stroke-width="0.24" fill="none" />
  <path d="M36.84881,66.14593 L37.02279,66.38843 C37.20851,66.51984 37.6771,66.51984 37.86283,66.38843" stroke="#111111" stroke-width="0.24" fill="none" />
  <path d="M73.35468,67.30994 L73.35468,66.72794" stroke="#111111" stroke-width="0.24" fill="none" />
  <path d="M32.19258,42.96299 L48.99343,33.26301" stroke="#111111" stroke-width="0.24" fill="none" />
  <path d="M90.15553,71.82043 L73.35468,81.52041" stroke="#111111" stroke-width="0.24" fill="none" />
  <path d="M90.15553,72.40243 L73.35468,82.10241" stroke="#111111" stroke-width="0.24" fill="none" />
  <path d="M32.19258,58.33746 L32.19258,57.75546 L36.8489,55.06713" stroke="#111111" stroke-width="0.24" fill="none" />
  <path d="M73.35468,82.10241 L73.35468,81.52041" stroke="#111111" stroke-width="0.24" fill="none" />
  <path d="M32.19258,43.54499 L32.19258,42.96299" stroke="#111111" stroke-width="0.24" fill="none" />
  <path d="M77.84891,64.71519 L90.15553,71.82043" stroke="#111111" stroke-width="0.24" fill="none" />
  <path d="M37.86283,66.38843 L38.03681,66.14593" stroke="#111111" stroke-width="0.24" fill="none" />
  <path d="M38.03684,54.38127 L44.49921,50.65022" stroke="#111111" stroke-width="0.24" fill="none" />
  <path d="M36.84883,46.23328 L32.19258,43.54499" stroke="#111111" stroke-width="0.24" fill="none" />
  <path d="M36.85063,45.65232 L32.19258,42.96299" stroke="#111111" stroke-width="0.24" fill="none" />
  <path d="M66.37634,78.07346 L38.03683,61.71164" stroke="#111111" stroke-width="0.24" fill="none" />
  <path d="M73.35468,67.30994 L67.56434,63.96688" stroke="#111111" stroke-width="0.24" fill="none" />
  <path d="M48.99343,33.26301 L90.15553,57.02796" stroke="#111111" stroke-width="0.24" fill="none" />
  <path d="M54.78372,36.60603 L54.78372,35.32424 L54.9577,35.56674 C55.14342,35.69816 55.61202,35.69816 55.79774,35.56674 L55.97172,35.32424 L55.79774,35.08174 C55.61202,34.95032 55.14342,34.95032 54.9577,35.08174 L54.78372,35.32424" stroke="#111111" stroke-width="0.24" fill="none" />
  <path d="M55.97172,35.32424 L55.97172,37.29192" stroke="#111111" stroke-width="0.24" fill="none" />
  <path d="M84.31123,53.65374 L84.31123,52.37196" stroke="#111111" stroke-width="0.24" fill="none" />
  <path d="M85.49923,60.29824 L85.49923,69.1321" stroke="#111111" stroke-width="0.24" fill="none" />
  <path d="M90.15553,57.60996 L90.15553,57.02796" stroke="#111111" stroke-width="0.24" fill="none" />
  <path d="M84.31123,68.44616 L84.31123,60.98413" stroke="#111111" stroke-width="0.24" fill="none" />
  <path d="M90.15553,72.40243 L90.15553,71.82043" stroke="#111111" stroke-width="0.24" fill="none" />
  <path d="M84.31123,52.37196 L84.48521,52.61445 C84.67094,52.74588 85.13953,52.74588 85.32525,52.61445 L85.49923,52.37196 L85.32525,52.12946 C85.13953,51.99803 84.67094,51.99803 84.48521,52.12946" stroke="#111111" stroke-width="0.24" fill="none" />
  <path d="M85.49923,52.37196 L85.49923,54.33963" stroke="#111111" stroke-width="0.24" fill="none" />
  <path d="M84.48521,52.12946 L84.31123,52.37196" stroke="#111111" stroke-width="0.24" fill="none" />
  <path d="M37.86285,63.23595 L39.27002,62.42353" stroke="#111111" stroke-width="0.24" fill="none" />
  <path d="M37.86285,62.26596 L38.43008,61.93847" stroke="#111111" stroke-width="0.24" fill="none" />
  <path d="M37.86285,48.44349 L39.27007,47.63103" stroke="#111111" stroke-width="0.24" fill="none" />
  <path d="M37.86285,47.47349 L38.43013,47.14597" stroke="#111111" stroke-width="0.24" fill="none" />
  <path d="M68.79755,64.67876 L67.39036,65.4912" stroke="#111111" stroke-width="0.24" fill="none" />
  <path d="M67.9576,64.1937 L67.39036,64.5212" stroke="#111111" stroke-width="0.24" fill="none" />
  <path d="M67.56434,62.72671 L67.56434,64.42075" stroke="#111111" stroke-width="0.24" fill="none" />
  <path d="M66.55029,62.48418 L66.37631,62.72668" stroke="#111111" stroke-width="0.24" fill="none" />
  <path d="M68.79749,79.47126 L67.39036,80.28367" stroke="#111111" stroke-width="0.24" fill="none" />
  <path d="M67.95755,78.9862 L67.39036,79.31367" stroke="#111111" stroke-width="0.24" fill="none" />
  <path d="M38.03681,45.67897 L37.86283,45.43647 C37.6771,45.30505 37.20851,45.30505 37.02279,45.43647 L36.84881,45.67897" stroke="#111111" stroke-width="0.24" fill="none" />
  <path d="M38.03683,48.34304 L38.03683,62.16551" stroke="#111111" stroke-width="0.24" fill="none" />
  <path d="M36.84883,66.14595 L36.84883,45.67899" stroke="#111111" stroke-width="0.24" fill="none" />
  <path d="M66.37814,62.70004 L38.03683,46.33717" stroke="#111111" stroke-width="0.24" fill="none" />
  <path d="M73.35465,82.10239 L90.15551,72.4024 L90.15551,71.8204 L85.49923,69.1321 L85.49923,60.29824 L90.15551,57.60994 L90.15551,57.02794 L85.49923,54.33963 L85.49913,52.38083 L85.32525,52.12946 C85.13953,51.99803 84.67094,51.99803 84.48521,52.12946 L84.31123,52.37196 L84.31123,53.65374 L55.97172,37.29192 L55.97162,35.33312 L55.79774,35.08174 C55.61202,34.95032 55.14342,34.95032 54.9577,35.08174 L54.78372,35.32424 L54.78372,36.60603 L48.99341,33.26299 L32.19255,42.96297 L32.19255,43.54496 L36.84881,46.23325 L36.84881,55.06715 L32.19255,57.75544 L32.19255,58.33743 L36.84881,61.02572 L36.84881,66.14593 L37.02279,66.38843 C37.20851,66.51984 37.6771,66.51984 37.86283,66.38843 L38.03681,66.14593 L38.03681,63.13548 L39.26991,62.42355 L66.37631,78.07344 L66.37631,83.19364 L66.55029,83.43614 C66.73602,83.56756 67.20461,83.56756 67.39034,83.43614 L67.56432,83.19364 L67.56432,80.1832 L68.79742,79.47127 z" stroke="#000000" stroke-width="0.24" fill="none" />
  <path d="M66.37634,83.19366 L66.37634,62.7267" stroke="#000000" stroke-width="0.24" fill="none" />
  <path d="M67.56434,65.39062 L67.56434,79.21313" stroke="#000000" stroke-width="0.24" fill="none" />
  <path d="M38.03683,45.67899 L38.03683,47.37304" stroke="#000000" stroke-width="0.24" fill="none" />
</svg>