<?xml version="1.0" encoding="utf-8" standalone="no"?>
<!DOCTYPE svg PUBLIC "-//W3C//DTD SVG 1.1//EN" "http://www.w3.org/Graphics/SVG/1.1/DTD/svg11.dtd">
<svg version="1.1" width="120pt" height="120pt" viewBox="0 0 120 120" overflow="visible" xmlns="http://www.w3.org/2000/svg">
  <path d="M84.28391,60.90131 L84.80298,60.60165 L84.80298,61.18365 L84.28391,61.4833 z" stroke="Black" stroke-width="0" fill="#BBBBBB" fill-opacity="1" />
  <path d="M51.9153,79.58936 L53.5684,78.63491 L53.5684,79.21691 L51.9153,80.17136 z" stroke="Black" stroke-width="0" fill="#BBBBBB" fill-opacity="1" />
  <path d="M53.5684,64.42444 L51.9153,65.37889 L51.9153,64.79689 L53.56837,63.84248 z" stroke="Black" stroke-width="0" fill="#BBBBBB" fill-opacity="1" />
  <path d="M83.09591,62.1692 L54.7564,78.53101 L54.7564,77.94902 L83.09591,61.5872 z" stroke="Black" stroke-width="0" fill="#BBBBBB" fill-opacity="1" />
  <path d="M54.7546,63.15759 L83.09591,46.79473 L83.09591,47.37673 L54.7564,63.73855 z" stroke="Black" stroke-width="0" fill="#BBBBBB" fill-opacity="1" />
  <path d="M51.9153,79.58936 L51.9153,80.17136 L35.11444,70.47138 L35.11444,69.88938 z" stroke="Black" stroke-width="0" fill="#CCCCCC" fill-opacity="1" />
  <path d="M51.9153,65.37889 L35.11444,55.67891 L35.11444,55.09691 L51.9153,64.79689 z" stroke="Black" stroke-width="0" fill="#CCCCCC" fill-opacity="1" />
  <path d="M51.9153,65.37889 L52.33531,65.13638 L53.5684,65.84831 L53.5684,78.63491 L51.9153,79.58936 L35.11444,69.88938 L35.63349,69.58968 L47.42066,62.78391 z" stroke="Black" stroke-width="0" fill="#EEEEEE" fill-opacity="1" />
  <path d="M54.7564,63.73855 L72.49636,53.49638 L83.0959,59.61595 L83.09591,61.5872 L54.7564,77.94902 z" stroke="Black" stroke-width="0" fill="#EEEEEE" fill-opacity="1" />
  <path d="M84.80298,60.60165 L84.28391,60.90131 L84.28391,60.30196 z" stroke="Black" stroke-width="0" fill="#EEEEEE" fill-opacity="1" />
  <path d="M54.58242,62.94176 C54.39669,62.81034 53.9281,62.81034 53.74238,62.94176 L53.5684,63.18426 L53.56837,63.84248 L51.9153,64.79689 L35.11444,55.09691 L35.63348,54.79721 L35.63358,52.83841 L35.80746,53.07203 C35.99319,53.20346 36.46178,53.20346 36.64751,53.07203 L36.82138,52.83841 L36.82148,54.11132 L65.16099,37.7495 L65.16109,35.7907 L65.33497,36.02432 C65.5207,36.15574 65.98929,36.15574 66.17501,36.02432 L66.34889,35.7907 L66.34899,37.06361 L68.00212,36.1092 L84.80298,45.80918 L84.80298,46.39118 L84.28391,46.69083 L84.28391,46.13655 L84.10992,45.89405 C83.9242,45.76263 83.45561,45.76263 83.26988,45.89405 L83.09591,46.13655 L83.09591,46.79473 L54.7546,63.15759 z" stroke="Black" stroke-width="0" fill="#EEEEEE" fill-opacity="1" />
  <path d="M83.09591,47.37673 L83.09591,47.8306 L82.70284,47.60366 z" stroke="Black" stroke-width="0" fill="#555555" fill-opacity="1" />
  <path d="M53.5684,64.42444 L53.5684,64.87831 L53.17533,64.65137 z" stroke="Black" stroke-width="0" fill="#555555" fill-opacity="1" />
  <path d="M54.7563,63.19314 L54.58242,63.42676 C54.39669,63.55819 53.9281,63.55819 53.74238,63.42676 L53.5685,63.19314 L53.74238,62.94176 C53.9281,62.81034 54.39669,62.81034 54.58242,62.94176 z" stroke="Black" stroke-width="0" fill="#555555" fill-opacity="1" />
  <path d="M83.09591,62.62307 L82.70284,62.39613 L83.09591,62.1692 z" stroke="Black" stroke-width="0" fill="#555555" fill-opacity="1" />
  <path d="M53.17533,79.44385 L53.5684,79.21691 L53.56838,79.67072 z" stroke="Black" stroke-width="0" fill="#555555" fill-opacity="1" />
  <path d="M84.28381,46.14542 L84.10992,46.37905 C83.9242,46.51047 83.45561,46.51047 83.26988,46.37905 L83.09601,46.14542 L83.26988,45.89405 C83.45561,45.76263 83.9242,45.76263 84.10992,45.89405 z" stroke="Black" stroke-width="0" fill="#555555" fill-opacity="1" />
  <path d="M66.34889,35.7907 L66.17501,36.02432 C65.98929,36.15574 65.5207,36.15574 65.33497,36.02432 L65.16099,35.78182 L65.33497,35.53932 C65.5207,35.4079 65.98929,35.4079 66.17501,35.53932 z" stroke="Black" stroke-width="0" fill="#555555" fill-opacity="1" />
  <path d="M36.82138,52.83841 L36.64751,53.07203 C36.46178,53.20346 35.99319,53.20346 35.80746,53.07203 L35.63348,52.82953 L35.80746,52.58704 C35.99319,52.45561 36.46178,52.45561 36.64751,52.58704 z" stroke="Black" stroke-width="0" fill="#555555" fill-opacity="1" />
  <path d="M53.56838,79.67072 L53.5684,65.84831 L52.33529,65.13638 L53.17533,64.65137 L53.5684,64.87831 L53.5685,63.19314 L53.74238,63.42676 C53.9281,63.55819 54.39669,63.55819 54.58242,63.42676 L54.7563,63.19314 L54.7564,83.65122 L54.58242,83.89371 C54.39669,84.02514 53.9281,84.02514 53.74238,83.89371 L53.5684,83.65122 L53.5684,80.64078 L52.33529,79.92884 L53.17533,79.44385 z" stroke="Black" stroke-width="0" fill="#777777" fill-opacity="1" />
  <path d="M84.28381,46.14542 L84.28391,66.60351 L84.10992,66.846 C83.9242,66.97742 83.45561,66.97742 83.26988,66.846 L83.09591,66.60351 L83.09591,63.59306 L81.8628,62.88113 L82.70284,62.39613 L83.09591,62.62307 L83.09591,48.80059 L81.8628,48.08866 L82.70284,47.60366 L83.09591,47.8306 L83.09601,46.14542 L83.26988,46.37905 C83.45561,46.51047 83.9242,46.51047 84.10992,46.37905 z" stroke="Black" stroke-width="0" fill="#777777" fill-opacity="1" />
  <path d="M35.63348,73.29649 L35.63348,70.77105 L36.82148,71.45694 L36.82148,73.29649 L36.70142,73.50292 C36.46178,73.67041 35.99319,73.67041 35.80746,73.53899 z" stroke="Black" stroke-width="0" fill="#777777" fill-opacity="1" />
  <path d="M36.8215,68.90376 L35.63348,69.58968 L35.63349,55.97858 L36.82149,56.66447 z" stroke="Black" stroke-width="0" fill="#777777" fill-opacity="1" />
  <path d="M35.63358,52.83841 L35.80746,53.07203 C35.99319,53.20346 36.46178,53.20346 36.64751,53.07203 L36.82138,52.83841 L36.82148,54.11132 L35.63348,54.79721 z" stroke="Black" stroke-width="0" fill="#777777" fill-opacity="1" />
  <path d="M65.33497,36.02432 C65.5207,36.15574 65.98929,36.15574 66.17501,36.02432 L66.34889,35.7907 L66.34899,37.06361 L65.16099,37.7495 L65.16109,35.7907 z" stroke="Black" stroke-width="0" fill="#777777" fill-opacity="1" />
  <path d="M35.11446,69.8894 L35.63351,69.58971 L35.63351,55.9786 L51.91532,65.37891 L52.33533,65.13641 L53.56842,65.84834 L53.56842,78.63493 L51.91532,79.58939 z" stroke="#000000" stroke-width="0.24" fill="none" />
  <path d="M83.09592,59.61597 L72.49638,53.4964 L81.86282,48.08868 L83.09593,48.80062 z" stroke="#000000" stroke-width="0.24" fill="none" />
  <path d="M35.11446,69.8894 L47.42068,62.78393" stroke="#000000" stroke-width="0.24" fill="none" />
  <path d="M65.16099,35.78182 L65.16099,37.7495" stroke="#111111" stroke-width="0.24" fill="none" />
  <path d="M65.16099,35.78182 L65.33497,35.53932 C65.5207,35.4079 65.98929,35.4079 66.17501,35.53932 L66.34899,35.78182" stroke="#111111" stroke-width="0.24" fill="none" />
  <path d="M65.33497,36.02432 L65.16099,35.78182" stroke="#111111" stroke-width="0.24" fill="none" />
  <path d="M66.34899,35.78182 L66.17501,36.02432 C65.98929,36.15574 65.5207,36.15574 65.33497,36.02432" stroke="#111111" stroke-width="0.24" fill="none" />
  <path d="M66.34899,37.06361 L66.34899,35.78182" stroke="#111111" stroke-width="0.24" fill="none" />
  <path d="M83.09592,59.61597 L72.49638,53.4964" stroke="#111111" stroke-width="0.24" fill="none" />
  <path d="M84.803,46.3912 L84.803,45.8092" stroke="#111111" stroke-width="0.24" fill="none" />
  <path d="M84.803,60.60167 L84.28386,60.30195" stroke="#111111" stroke-width="0.24" fill="none" />
  <path d="M84.803,61.18367 L84.803,60.60167" stroke="#111111" stroke-width="0.24" fill="none" />
  <path d="M84.28393,61.48333 L84.803,61.18367" stroke="#111111" stroke-width="0.24" fill="none" />
  <path d="M84.28393,60.90133 L84.803,60.60167" stroke="#111111" stroke-width="0.24" fill="none" />
  <path d="M35.11446,70.47141 L51.91532,80.17138 L51.91532,79.58939" stroke="#111111" stroke-width="0.24" fill="none" />
  <path d="M35.11446,69.8894 L51.91532,79.58939" stroke="#111111" stroke-width="0.24" fill="none" />
  <path d="M51.91532,65.37891 L51.91532,64.79691" stroke="#111111" stroke-width="0.24" fill="none" />
  <path d="M35.11446,55.09694 L51.91532,64.79691" stroke="#111111" stroke-width="0.24" fill="none" />
  <path d="M51.91532,79.58939 L53.56842,78.63493" stroke="#111111" stroke-width="0.24" fill="none" />
  <path d="M51.91532,80.17138 L53.56842,79.21693" stroke="#111111" stroke-width="0.24" fill="none" />
  <path d="M35.11446,55.67894 L51.91532,65.37891 L53.56842,64.42446" stroke="#111111" stroke-width="0.24" fill="none" />
  <path d="M51.91532,64.79691 L53.56836,63.8425" stroke="#111111" stroke-width="0.24" fill="none" />
  <path d="M83.26988,66.846 L83.09591,66.60351" stroke="#111111" stroke-width="0.24" fill="none" />
  <path d="M84.28391,66.60351 L84.10992,66.846 C83.9242,66.97742 83.45561,66.97742 83.26988,66.846" stroke="#111111" stroke-width="0.24" fill="none" />
  <path d="M83.26988,46.37905 L83.09591,46.13655" stroke="#111111" stroke-width="0.24" fill="none" />
  <path d="M84.28391,46.13655 L84.10992,46.37905 C83.9242,46.51047 83.45561,46.51047 83.26988,46.37905" stroke="#111111" stroke-width="0.24" fill="none" />
  <path d="M54.7564,83.65122 L54.58242,83.89371 C54.39669,84.02514 53.9281,84.02514 53.74238,83.89371 L53.5684,83.65122" stroke="#111111" stroke-width="0.24" fill="none" />
  <path d="M53.56842,80.6408 L53.56842,83.65125" stroke="#111111" stroke-width="0.24" fill="none" />
  <path d="M54.7564,63.18426 L54.58242,63.42676 C54.39669,63.55819 53.9281,63.55819 53.74238,63.42676 L53.5684,63.18426" stroke="#111111" stroke-width="0.24" fill="none" />
  <path d="M83.09593,63.59301 L83.09593,66.60353" stroke="#111111" stroke-width="0.24" fill="none" />
  <path d="M54.75642,77.94904 L83.09593,61.58722" stroke="#111111" stroke-width="0.24" fill="none" />
  <path d="M54.75642,63.73857 L83.09593,47.37675" stroke="#111111" stroke-width="0.24" fill="none" />
  <path d="M54.75462,63.15762 L83.09593,46.79475" stroke="#111111" stroke-width="0.24" fill="none" />
  <path d="M84.28393,66.60353 L84.28393,46.13657" stroke="#111111" stroke-width="0.24" fill="none" />
  <path d="M83.09593,46.13657 L83.09593,47.83062" stroke="#111111" stroke-width="0.24" fill="none" />
  <path d="M83.09593,48.80062 L83.09593,62.62309" stroke="#111111" stroke-width="0.24" fill="none" />
  <path d="M53.17521,79.44378 L53.7424,79.77125" stroke="#111111" stroke-width="0.24" fill="none" />
  <path d="M52.33527,79.92884 L53.7424,80.74125" stroke="#111111" stroke-width="0.24" fill="none" />
  <path d="M54.58242,62.94176 L54.7564,63.18426" stroke="#111111" stroke-width="0.24" fill="none" />
  <path d="M53.17516,64.65128 L53.7424,64.97878" stroke="#111111" stroke-width="0.24" fill="none" />
  <path d="M52.33521,65.13634 L53.7424,65.94878" stroke="#111111" stroke-width="0.24" fill="none" />
  <path d="M83.26991,47.93107 L82.70263,47.60355" stroke="#111111" stroke-width="0.24" fill="none" />
  <path d="M83.26991,48.90107 L81.86269,48.08861" stroke="#111111" stroke-width="0.24" fill="none" />
  <path d="M83.26991,62.72354 L82.70268,62.39605" stroke="#111111" stroke-width="0.24" fill="none" />
  <path d="M83.26991,63.69353 L81.86274,62.88111" stroke="#111111" stroke-width="0.24" fill="none" />
  <path d="M36.82148,73.29649 L36.64751,73.53899 C36.46178,73.67041 35.99319,73.67041 35.80746,73.53899 L35.63348,73.29649" stroke="#111111" stroke-width="0.24" fill="none" />
  <path d="M35.11446,70.47141 L35.11446,69.8894" stroke="#111111" stroke-width="0.24" fill="none" />
  <path d="M35.11446,55.67894 L35.11446,55.09694" stroke="#111111" stroke-width="0.24" fill="none" />
  <path d="M36.64751,52.58704 L36.82148,52.82953" stroke="#111111" stroke-width="0.24" fill="none" />
  <path d="M35.63348,52.82953 L35.63348,54.79721" stroke="#111111" stroke-width="0.24" fill="none" />
  <path d="M35.63348,52.82953 L35.80746,52.58704 C35.99319,52.45561 36.46178,52.45561 36.64751,52.58704 L36.64751,53.07203 C36.46178,53.20346 35.99319,53.20346 35.80746,53.07203 z" stroke="#111111" stroke-width="0.24" fill="none" />
  <path d="M36.82148,54.11132 L36.82148,52.82953" stroke="#111111" stroke-width="0.24" fill="none" />
  <path d="M53.5684,63.18426 L53.74238,62.94176 C53.9281,62.81034 54.39669,62.81034 54.58242,62.94176" stroke="#000000" stroke-width="0.24" fill="none" />
  <path d="M83.09591,46.13655 L83.26988,45.89405 C83.45561,45.76263 83.9242,45.76263 84.10992,45.89405 L84.28391,46.13655" stroke="#000000" stroke-width="0.24" fill="none" />
  <path d="M51.9153,80.17136 L35.11444,70.47138 L35.11444,69.88938 L35.63348,69.58968 L35.63348,55.97858 L35.11444,55.67891 L35.11444,55.09691 L35.63348,54.79721 L35.63358,52.83841 L35.80746,52.58704 C35.99319,52.45561 36.46178,52.45561 36.64751,52.58704 L36.82148,52.82953 L36.82148,54.11132 L65.16099,37.7495 L65.16109,35.7907 L65.33497,35.53932 C65.5207,35.4079 65.98929,35.4079 66.17501,35.53932 L66.34899,35.78182 L66.34899,37.06361 L68.00212,36.1092 L84.80298,45.80918 L84.80298,46.39118 L84.28391,46.69083 L84.28391,60.30196 L84.80298,60.60165 L84.80298,61.18365 L84.28391,61.4833 L84.28391,66.60351 L84.10992,66.846 C83.9242,66.97742 83.45561,66.97742 83.26988,66.846 L83.09591,66.60351 L83.09591,63.59306 L81.8628,62.88113 L54.7564,78.53101 L54.7564,83.65122 L54.58242,83.89371 C54.39669,84.02514 53.9281,84.02514 53.74238,83.89371 L53.5684,83.65122 L53.5684,80.64078 L52.33529,79.92884 z" stroke="#000000" stroke-width="0.24" fill="none" />
  <path d="M36.82148,71.45694 L36.82148,73.29649 L36.64751,73.53899 C36.46178,73.67041 35.99319,73.67041 35.80746,73.53899 L35.63348,73.29649 L35.63348,70.77105" stroke="#000000" stroke-width="0.24" fill="none" />
  <path d="M54.75642,83.65125 L54.75642,63.18428" stroke="#000000" stroke-width="0.24" fill="none" />
  <path d="M53.56842,65.8482 L53.56842,79.67072" stroke="#000000" stroke-width="0.24" fill="none" />
  <path d="M53.56842,63.18429 L53.56842,64.87833" stroke="#000000" stroke-width="0.24" fill="none" />
</svg>