<?xml version="1.0" encoding="utf-8" standalone="no"?>
<!DOCTYPE svg PUBLIC "-//W3C//DTD SVG 1.1//EN" "http://www.w3.org/Graphics/SVG/1.1/DTD/svg11.dtd">
<svg version="1.1" width="120pt" height="120pt" viewBox="0 0 120 120" overflow="visible" xmlns="http://www.w3.org/2000/svg">
  <path d="M52.19569,63.96686 L46.40535,67.30991 L46.40535,66.72791 L52.19566,63.3849 z" stroke="Black" stroke-width="0" fill="#BBBBBB" fill-opacity="1" />
  <path d="M53.38188,62.70001 L81.72319,46.33715 L81.72319,46.91915 L53.38369,63.28097 z" stroke="Black" stroke-width="0" fill="#BBBBBB" fill-opacity="1" />
  <path d="M82.90939,45.65229 L87.56744,42.96297 L87.56744,43.54496 L82.91119,46.23325 z" stroke="Black" stroke-width="0" fill="#BBBBBB" fill-opacity="1" />
  <path d="M82.91119,60.44373 L87.56744,57.75544 L87.56744,58.33743 L82.91119,61.02572 z" stroke="Black" stroke-width="0" fill="#BBBBBB" fill-opacity="1" />
  <path d="M81.72319,61.71162 L53.38369,78.07344 L53.38369,77.49144 L81.72319,61.12962 z" stroke="Black" stroke-width="0" fill="#BBBBBB" fill-opacity="1" />
  <path d="M46.40535,81.52039 L52.19569,78.17733 L52.19569,78.75933 L46.40535,82.10239 z" stroke="Black" stroke-width="0" fill="#BBBBBB" fill-opacity="1" />
  <path d="M46.40535,67.30991 L29.60449,57.60994 L29.60449,57.02794 L46.40535,66.72791 z" stroke="Black" stroke-width="0" fill="#CCCCCC" fill-opacity="1" />
  <path d="M46.40535,81.52039 L46.40535,82.10239 L29.60449,72.4024 L29.60449,71.8204 z" stroke="Black" stroke-width="0" fill="#CCCCCC" fill-opacity="1" />
  <path d="M81.72319,46.33715 L53.38188,62.70001 L53.20971,62.48418 C53.02398,62.35276 52.55539,62.35276 52.36966,62.48418 L52.19569,62.72668 L52.19566,63.3849 L46.40535,66.72791 L29.60449,57.02794 L70.76659,33.26299 L87.56744,42.96297 L82.90939,45.65229 L82.73721,45.43647 C82.55149,45.30505 82.0829,45.30505 81.89717,45.43647 L81.72319,45.67897 z" stroke="Black" stroke-width="0" fill="#EEEEEE" fill-opacity="1" />
  <path d="M87.56744,57.75544 L82.91119,60.44373 L82.91119,55.06715 z" stroke="Black" stroke-width="0" fill="#EEEEEE" fill-opacity="1" />
  <path d="M46.40535,67.30991 L50.96258,64.67879 L52.19569,65.39073 L52.19569,78.17733 L46.40535,81.52039 L29.60449,71.8204 L34.26077,69.1321 L41.91112,64.71517 z" stroke="Black" stroke-width="0" fill="#EEEEEE" fill-opacity="1" />
  <path d="M53.38369,63.28097 L75.26082,50.6502 L81.72319,54.38125 L81.72319,61.12962 L53.38369,77.49144 z" stroke="Black" stroke-width="0" fill="#EEEEEE" fill-opacity="1" />
  <path d="M35.44867,52.38083 L35.27479,52.61445 C35.08907,52.74588 34.62048,52.74588 34.43475,52.61445 L34.26077,52.37196 L34.43475,52.12946 C34.62048,51.99803 35.08907,51.99803 35.27479,52.12946 z" stroke="Black" stroke-width="0" fill="#555555" fill-opacity="1" />
  <path d="M64.97618,35.33311 L64.8023,35.56674 C64.61658,35.69816 64.14798,35.69816 63.96226,35.56674 L63.78828,35.32424 L63.96226,35.08174 C64.14798,34.95032 64.61658,34.95032 64.8023,35.08174 z" stroke="Black" stroke-width="0" fill="#555555" fill-opacity="1" />
  <path d="M81.72319,62.16549 L81.33013,61.93855 L81.72319,61.71162 z" stroke="Black" stroke-width="0" fill="#555555" fill-opacity="1" />
  <path d="M51.80262,78.98627 L52.19569,78.75933 L52.19567,79.21314 z" stroke="Black" stroke-width="0" fill="#555555" fill-opacity="1" />
  <path d="M53.38359,62.73556 L53.20971,62.96918 C53.02398,63.10061 52.55539,63.10061 52.36966,62.96918 L52.19579,62.73556 L52.36966,62.48418 C52.55539,62.35276 53.02398,62.35276 53.20971,62.48418 z" stroke="Black" stroke-width="0" fill="#555555" fill-opacity="1" />
  <path d="M52.19569,63.96686 L52.19569,64.42073 L51.80262,64.19379 z" stroke="Black" stroke-width="0" fill="#555555" fill-opacity="1" />
  <path d="M81.72319,46.91915 L81.72319,47.37302 L81.33013,47.14608 z" stroke="Black" stroke-width="0" fill="#555555" fill-opacity="1" />
  <path d="M82.91109,45.68784 L82.73721,45.92147 C82.55149,46.05289 82.0829,46.05289 81.89717,45.92147 L81.72329,45.68784 L81.89717,45.43647 C82.0829,45.30505 82.55149,45.30505 82.73721,45.43647 z" stroke="Black" stroke-width="0" fill="#555555" fill-opacity="1" />
  <path d="M35.44878,68.44617 L34.26077,69.1321 L34.26077,60.29824 L35.44877,60.98413 z" stroke="Black" stroke-width="0" fill="#777777" fill-opacity="1" />
  <path d="M63.96226,35.56674 C64.14798,35.69816 64.61658,35.69816 64.8023,35.56674 L64.97618,35.33311 L64.97628,36.60603 L63.78828,37.29192 L63.78838,35.33312 z" stroke="Black" stroke-width="0" fill="#777777" fill-opacity="1" />
  <path d="M34.26087,52.38083 L34.43475,52.61445 C34.62048,52.74588 35.08907,52.74588 35.27479,52.61445 L35.44867,52.38083 L35.44877,53.65374 L34.26077,54.33963 z" stroke="Black" stroke-width="0" fill="#777777" fill-opacity="1" />
  <path d="M82.91109,45.68784 L82.91119,66.14593 L82.73721,66.38843 C82.55149,66.51984 82.0829,66.51984 81.89717,66.38843 L81.72319,66.14593 L81.72319,63.13548 L80.49009,62.42355 L81.33013,61.93855 L81.72319,62.16549 L81.72319,48.34302 L80.49009,47.63108 L81.33013,47.14608 L81.72319,47.37302 L81.72329,45.68784 L81.89717,45.92147 C82.0829,46.05289 82.55149,46.05289 82.73721,45.92147 z" stroke="Black" stroke-width="0" fill="#777777" fill-opacity="1" />
  <path d="M52.19567,79.21314 L52.19569,65.39073 L50.96258,64.67879 L51.80262,64.19379 L52.19569,64.42073 L52.19579,62.73556 L52.36966,62.96918 C52.55539,63.10061 53.02398,63.10061 53.20971,62.96918 L53.38359,62.73556 L53.38369,83.19364 L53.20971,83.43614 C53.02398,83.56756 52.55539,83.56756 52.36966,83.43614 L52.19569,83.19364 L52.19569,80.1832 L50.96258,79.47127 L51.80262,78.98627 z" stroke="Black" stroke-width="0" fill="#777777" fill-opacity="1" />
  <path d="M29.60452,71.82043 L41.91114,64.71519" stroke="#000000" stroke-width="0.24" fill="none" />
  <path d="M70.76662,33.26301 L29.60452,57.02796" stroke="#111111" stroke-width="0.24" fill="none" />
  <path d="M64.97628,35.32424 L64.8023,35.56674 C64.61658,35.69816 64.14798,35.69816 63.96226,35.56674 L63.78828,35.32424 L63.96226,35.08174 C64.14798,34.95032 64.61658,34.95032 64.8023,35.08174 z" stroke="#111111" stroke-width="0.24" fill="none" />
  <path d="M63.78828,35.32424 L63.78828,37.29192" stroke="#111111" stroke-width="0.24" fill="none" />
  <path d="M34.26077,60.29824 L34.26077,69.1321" stroke="#111111" stroke-width="0.24" fill="none" />
  <path d="M29.60452,57.60996 L29.60452,57.02796" stroke="#111111" stroke-width="0.24" fill="none" />
  <path d="M35.44877,68.44616 L35.44877,60.98413" stroke="#111111" stroke-width="0.24" fill="none" />
  <path d="M29.60452,72.40243 L29.60452,71.82043" stroke="#111111" stroke-width="0.24" fill="none" />
  <path d="M35.44877,52.37196 L35.27479,52.61445 C35.08907,52.74588 34.62048,52.74588 34.43475,52.61445 L34.26077,52.37196 L34.26077,54.33963" stroke="#111111" stroke-width="0.24" fill="none" />
  <path d="M35.27479,52.12946 L35.44877,52.37196" stroke="#111111" stroke-width="0.24" fill="none" />
  <path d="M81.89719,63.23595 L80.49003,62.42353" stroke="#111111" stroke-width="0.24" fill="none" />
  <path d="M81.89719,62.26596 L81.32997,61.93847" stroke="#111111" stroke-width="0.24" fill="none" />
  <path d="M81.89719,48.44349 L80.48997,47.63103" stroke="#111111" stroke-width="0.24" fill="none" />
  <path d="M81.89719,47.47349 L81.32992,47.14597" stroke="#111111" stroke-width="0.24" fill="none" />
  <path d="M50.9625,64.67876 L52.36969,65.4912" stroke="#111111" stroke-width="0.24" fill="none" />
  <path d="M53.20971,62.48418 L53.38369,62.72668" stroke="#111111" stroke-width="0.24" fill="none" />
  <path d="M50.96255,79.47126 L52.36969,80.28367" stroke="#111111" stroke-width="0.24" fill="none" />
  <path d="M51.80249,78.9862 L52.36969,79.31367" stroke="#111111" stroke-width="0.24" fill="none" />
  <path d="M81.72319,45.67897 L81.89717,45.43647 C82.0829,45.30505 82.55149,45.30505 82.73721,45.43647 L82.91119,45.67897" stroke="#111111" stroke-width="0.24" fill="none" />
  <path d="M81.72321,48.34304 L81.72321,62.16551" stroke="#111111" stroke-width="0.24" fill="none" />
  <path d="M82.91122,66.14595 L82.91122,45.67899" stroke="#111111" stroke-width="0.24" fill="none" />
  <path d="M53.3819,62.70004 L81.72321,46.33717" stroke="#111111" stroke-width="0.24" fill="none" />
  <path d="M46.40537,66.72794 L52.19565,63.38492" stroke="#111111" stroke-width="0.24" fill="none" />
  <path d="M53.38371,63.28099 L81.72321,46.91917" stroke="#111111" stroke-width="0.24" fill="none" />
  <path d="M46.40537,67.30994 L52.19571,63.96688" stroke="#111111" stroke-width="0.24" fill="none" />
  <path d="M29.60452,57.60996 L46.40537,67.30994" stroke="#111111" stroke-width="0.24" fill="none" />
  <path d="M53.38371,77.49146 L81.72321,61.12964" stroke="#111111" stroke-width="0.24" fill="none" />
  <path d="M53.38371,78.07346 L81.72321,61.71164" stroke="#111111" stroke-width="0.24" fill="none" />
  <path d="M46.40537,82.10241 L52.19571,78.75935" stroke="#111111" stroke-width="0.24" fill="none" />
  <path d="M81.72321,63.13543 L81.72321,66.14595" stroke="#111111" stroke-width="0.24" fill="none" />
  <path d="M53.38369,62.72668 L53.20971,62.96918 C53.02398,63.10061 52.55539,63.10061 52.36966,62.96918 L52.19569,62.72668" stroke="#111111" stroke-width="0.24" fill="none" />
  <path d="M46.40537,81.52041 L52.19571,78.17735" stroke="#111111" stroke-width="0.24" fill="none" />
  <path d="M52.19571,80.18322 L52.19571,83.19366" stroke="#111111" stroke-width="0.24" fill="none" />
  <path d="M52.19569,62.72668 L52.36966,62.48418 C52.55539,62.35276 53.02398,62.35276 53.20971,62.48418" stroke="#111111" stroke-width="0.24" fill="none" />
  <path d="M53.38369,83.19364 L53.20971,83.43614 C53.02398,83.56756 52.55539,83.56756 52.36966,83.43614 L52.19569,83.19364" stroke="#111111" stroke-width="0.24" fill="none" />
  <path d="M29.60452,57.02796 L46.40537,66.72794" stroke="#111111" stroke-width="0.24" fill="none" />
  <path d="M82.91122,60.44375 L87.56747,57.75546" stroke="#111111" stroke-width="0.24" fill="none" />
  <path d="M82.91122,61.02575 L87.56747,58.33746" stroke="#111111" stroke-width="0.24" fill="none" />
  <path d="M82.91119,45.67897 L82.73721,45.92147 C82.55149,46.05289 82.0829,46.05289 81.89717,45.92147" stroke="#111111" stroke-width="0.24" fill="none" />
  <path d="M82.90942,45.65232 L87.56747,42.96299" stroke="#111111" stroke-width="0.24" fill="none" />
  <path d="M82.91122,46.23328 L87.56747,43.54499" stroke="#111111" stroke-width="0.24" fill="none" />
  <path d="M81.89717,45.92147 L81.72319,45.67897" stroke="#111111" stroke-width="0.24" fill="none" />
  <path d="M82.91119,66.14593 L82.73721,66.38843 C82.55149,66.51984 82.0829,66.51984 81.89717,66.38843 L81.72319,66.14593" stroke="#111111" stroke-width="0.24" fill="none" />
  <path d="M46.40537,67.30994 L46.40537,66.72794" stroke="#111111" stroke-width="0.24" fill="none" />
  <path d="M87.56747,43.54499 L87.56747,42.96299 L70.76662,33.26301" stroke="#111111" stroke-width="0.24" fill="none" />
  <path d="M29.60452,71.82043 L46.40537,81.52041" stroke="#111111" stroke-width="0.24" fill="none" />
  <path d="M46.40537,82.10241 L46.40537,81.52041" stroke="#111111" stroke-width="0.24" fill="none" />
  <path d="M52.19571,62.72671 L52.19571,64.42075" stroke="#111111" stroke-width="0.24" fill="none" />
  <path d="M29.60452,72.40243 L46.40537,82.10241" stroke="#111111" stroke-width="0.24" fill="none" />
  <path d="M87.56747,58.33746 L87.56747,57.75546" stroke="#111111" stroke-width="0.24" fill="none" />
  <path d="M51.80244,64.1937 L52.36969,64.5212" stroke="#111111" stroke-width="0.24" fill="none" />
  <path d="M87.56747,57.75546 L82.91115,55.06713" stroke="#111111" stroke-width="0.24" fill="none" />
  <path d="M41.91114,64.71519 L29.60452,71.82043" stroke="#111111" stroke-width="0.24" fill="none" />
  <path d="M81.72321,54.38127 L75.26084,50.65022" stroke="#111111" stroke-width="0.24" fill="none" />
  <path d="M34.26077,52.37196 L34.43475,52.12946 C34.62048,51.99803 35.08907,51.99803 35.27479,52.12946" stroke="#111111" stroke-width="0.24" fill="none" />
  <path d="M35.44877,53.65374 L35.44877,52.37196" stroke="#111111" stroke-width="0.24" fill="none" />
  <path d="M64.97628,36.60603 L64.97628,35.32424" stroke="#111111" stroke-width="0.24" fill="none" />
  <path d="M46.40535,82.10239 L29.60449,72.4024 L29.60449,71.8204 L34.26077,69.1321 L34.26077,60.29824 L29.60449,57.60994 L29.60449,57.02794 L34.26077,54.33963 L34.26087,52.38083 L34.43475,52.12946 C34.62048,51.99803 35.08907,51.99803 35.27479,52.12946 L35.44877,52.37196 L35.44877,53.65374 L63.78828,37.29192 L63.78838,35.33312 L63.96226,35.08174 C64.14798,34.95032 64.61658,34.95032 64.8023,35.08174 L64.97628,35.32424 L64.97628,36.60603 L70.76659,33.26299 L87.56744,42.96297 L87.56744,43.54496 L82.91119,46.23325 L82.91119,55.06715 L87.56744,57.75544 L87.56744,58.33743 L82.91119,61.02572 L82.91119,66.14593 L82.73721,66.38843 C82.55149,66.51984 82.0829,66.51984 81.89717,66.38843 L81.72319,66.14593 L81.72319,63.13548 L80.49009,62.42355 L53.38369,78.07344 L53.38369,83.19364 L53.20971,83.43614 C53.02398,83.56756 52.55539,83.56756 52.36966,83.43614 L52.19569,83.19364 L52.19569,80.1832 L50.96258,79.47127 z" stroke="#000000" stroke-width="0.24" fill="none" />
  <path d="M53.38371,83.19366 L53.38371,62.7267" stroke="#000000" stroke-width="0.24" fill="none" />
  <path d="M52.19571,65.39062 L52.19571,79.21313" stroke="#000000" stroke-width="0.24" fill="none" />
  <path d="M81.72321,45.67899 L81.72321,47.37304" stroke="#000000" stroke-width="0.24" fill="none" />
</svg>