<?xml version="1.0" encoding="utf-8" standalone="no"?>
<!DOCTYPE svg PUBLIC "-//W3C//DTD SVG 1.1//EN" "http://www.w3.org/Graphics/SVG/1.1/DTD/svg11.dtd">
<svg version="1.1" width="119.76pt" height="119.76pt" viewBox="0 0 119.76 119.76" overflow="visible" xmlns="http://www.w3.org/2000/svg">
  <path d="M69.74224,72.21513 L69.74224,72.79713 L68.08911,71.8427 L68.08912,71.26071 z" stroke="#000000" stroke-width="0" fill="#BBBBBB" fill-opacity="1" />
  <path d="M36.85456,53.80943 L36.85456,53.22743 L37.3754,53.52814 L37.3736,54.1091 z" stroke="#000000" stroke-width="0" fill="#BBBBBB" fill-opacity="1" />
  <path d="M66.90112,70.60252 L66.90112,71.15681 L38.5616,54.79499 L38.56164,54.21303 z" stroke="#000000" stroke-width="0" fill="#BBBBBB" fill-opacity="1" />
  <path d="M69.74224,72.79713 L69.74224,72.21513 L86.5431,62.51516 L86.5431,63.09716 z" stroke="#000000" stroke-width="0" fill="#CCCCCC" fill-opacity="1" />
  <path d="M38.56164,54.21303 L38.5615,53.56369 L38.38763,53.31231 C38.2019,53.18089 37.73331,53.18089 37.54758,53.31231 L37.3754,53.52814 L36.85456,53.22743 L53.65542,43.52745 L86.5431,62.51516 L69.74224,72.21513 L68.08912,71.26071 L68.08901,70.6114 L67.91513,70.36002 C67.72941,70.2286 67.26082,70.2286 67.07509,70.36002 L66.90291,70.57585 z" stroke="#000000" stroke-width="0" fill="#EEEEEE" fill-opacity="1" />
  <path d="M86.02406,60.24778 L85.85007,60.49028 C85.66435,60.6217 85.19576,60.6217 85.01003,60.49028 L84.83615,60.25665 L85.01003,60.00528 C85.19576,59.87386 85.66435,59.87386 85.85007,60.00528 z" stroke="#000000" stroke-width="0" fill="#555555" fill-opacity="1" />
  <path d="M55.30855,43.20007 L55.48252,42.95757 C55.66825,42.82615 56.13684,42.82615 56.32257,42.95757 L56.49655,43.20007 L56.32257,43.44257 C56.13684,43.57399 55.66825,43.57399 55.48252,43.44257 z" stroke="#000000" stroke-width="0" fill="#555555" fill-opacity="1" />
  <path d="M66.90291,70.57585 L67.07509,70.36002 C67.26082,70.2286 67.72941,70.2286 67.91513,70.36002 L68.08911,70.60252 L67.91513,70.84502 C67.72941,70.97645 67.26082,70.97645 67.07509,70.84502 z" stroke="#000000" stroke-width="0" fill="#555555" fill-opacity="1" />
  <path d="M37.3754,53.52814 L37.54758,53.31231 C37.73331,53.18089 38.2019,53.18089 38.38763,53.31231 L38.5616,53.55481 L38.38763,53.79731 C38.2019,53.92873 37.73331,53.92873 37.54758,53.79731 z" stroke="#000000" stroke-width="0" fill="#555555" fill-opacity="1" />
  <path d="M38.5616,55.24886 L38.5616,54.79499 L38.95467,55.02192 z" stroke="#000000" stroke-width="0" fill="#555555" fill-opacity="1" />
  <path d="M68.08911,72.29657 L68.08911,71.8427 L68.48218,72.06964 z" stroke="#000000" stroke-width="0" fill="#555555" fill-opacity="1" />
  <path d="M86.02396,60.25666 L86.02406,62.21549 L84.83605,61.52959 L84.83615,60.25665 L85.01003,60.49028 C85.19576,60.6217 85.66435,60.6217 85.85007,60.49028 z" stroke="#000000" stroke-width="0" fill="#777777" fill-opacity="1" />
  <path d="M56.32257,43.44257 L56.49645,43.20894 L56.49655,45.16777 L55.30855,44.48188 L55.30865,43.20894 L55.48252,43.44257 C55.66825,43.57399 56.13684,43.57399 56.32257,43.44257 z" stroke="#000000" stroke-width="0" fill="#777777" fill-opacity="1" />
  <path d="M84.83605,64.08272 L86.02406,63.39683 L86.02406,74.89475 L85.90525,75.10052 C85.66435,75.26867 85.19576,75.26867 85.01003,75.13725 L84.83605,74.89475 z" stroke="#000000" stroke-width="0" fill="#777777" fill-opacity="1" />
  <path d="M68.08911,85.24949 L67.97032,85.45525 C67.72941,85.62341 67.26082,85.62341 67.07509,85.49199 L66.90112,85.24949 L66.90121,70.6114 L67.07509,70.84502 C67.26082,70.97645 67.72941,70.97645 67.91513,70.84502 L68.08901,70.6114 L68.08911,72.29657 L68.48218,72.06964 L69.32222,72.55463 L68.08911,73.26657 z" stroke="#000000" stroke-width="0" fill="#777777" fill-opacity="1" />
  <path d="M38.5616,56.21886 L38.5616,68.20178 L38.44286,68.40751 C38.2019,68.5757 37.73331,68.5757 37.54758,68.44427 L37.3736,68.20178 L37.3737,53.56368 L37.54758,53.79731 C37.73331,53.92873 38.2019,53.92873 38.38763,53.79731 L38.5615,53.56368 L38.5616,55.24886 L38.95467,55.02192 L39.79471,55.50692 z" stroke="#000000" stroke-width="0" fill="#777777" fill-opacity="1" />
  <path d="M55.30855,43.20007 L55.48252,43.44257 C55.66825,43.57399 56.13684,43.57399 56.32257,43.44257" stroke="#111111" stroke-width="0.24" fill="none" />
  <path d="M86.02406,60.24778 L85.85007,60.00528 C85.66435,59.87386 85.19576,59.87386 85.01003,60.00528 L85.01003,60.49028 C85.19576,60.6217 85.66435,60.6217 85.85007,60.49028 z" stroke="#111111" stroke-width="0.24" fill="none" />
  <path d="M84.83605,61.52959 L84.83605,60.24778" stroke="#111111" stroke-width="0.24" fill="none" />
  <path d="M84.83605,74.89475 L85.01003,75.13725 C85.19576,75.26867 85.66435,75.26867 85.85007,75.13725 L86.02406,74.89475" stroke="#111111" stroke-width="0.24" fill="none" />
  <path d="M86.54312,63.09718 L86.54312,62.51518" stroke="#111111" stroke-width="0.24" fill="none" />
  <path d="M53.65544,43.52747 L86.54312,62.51518" stroke="#111111" stroke-width="0.24" fill="none" />
  <path d="M68.08911,70.60252 L67.91513,70.36002 C67.72941,70.2286 67.26082,70.2286 67.07509,70.36002" stroke="#111111" stroke-width="0.24" fill="none" />
  <path d="M38.38763,53.79731 L38.5616,53.55481" stroke="#111111" stroke-width="0.24" fill="none" />
  <path d="M66.90112,70.60252 L67.07509,70.84502 C67.26082,70.97645 67.72941,70.97645 67.91513,70.84502 L68.08911,70.60252" stroke="#111111" stroke-width="0.24" fill="none" />
  <path d="M37.3736,53.55481 L37.54758,53.79731 C37.73331,53.92873 38.2019,53.92873 38.38763,53.79731" stroke="#111111" stroke-width="0.24" fill="none" />
  <path d="M68.08913,73.26653 L68.08913,85.24952" stroke="#111111" stroke-width="0.24" fill="none" />
  <path d="M38.56163,56.21888 L38.56163,68.20181" stroke="#111111" stroke-width="0.24" fill="none" />
  <path d="M66.90114,71.15684 L38.56163,54.79501" stroke="#111111" stroke-width="0.24" fill="none" />
  <path d="M66.90294,70.57587 L38.5617,54.21305" stroke="#111111" stroke-width="0.24" fill="none" />
  <path d="M67.07509,70.36002 L66.90112,70.60252" stroke="#111111" stroke-width="0.24" fill="none" />
  <path d="M55.30855,44.48188 L55.30855,43.20007" stroke="#111111" stroke-width="0.24" fill="none" />
  <path d="M66.90112,85.24949 L67.07509,85.49199 C67.26082,85.62341 67.72941,85.62341 67.91513,85.49199 L68.08911,85.24949" stroke="#111111" stroke-width="0.24" fill="none" />
  <path d="M38.38763,68.44427 L38.5616,68.20178" stroke="#111111" stroke-width="0.24" fill="none" />
  <path d="M85.01003,60.00528 L84.83605,60.24778" stroke="#111111" stroke-width="0.24" fill="none" />
  <path d="M37.3736,68.20178 L37.54758,68.44427 C37.73331,68.5757 38.2019,68.5757 38.38763,68.44427" stroke="#111111" stroke-width="0.24" fill="none" />
  <path d="M38.38765,55.34933 L38.9549,55.02183" stroke="#111111" stroke-width="0.24" fill="none" />
  <path d="M38.38765,56.31933 L39.79484,55.50689" stroke="#111111" stroke-width="0.24" fill="none" />
  <path d="M68.48238,72.06956 L67.91516,72.39704" stroke="#111111" stroke-width="0.24" fill="none" />
  <path d="M69.32232,72.55462 L67.91516,73.36704" stroke="#111111" stroke-width="0.24" fill="none" />
  <path d="M86.54312,62.51518 L69.74226,72.21516" stroke="#111111" stroke-width="0.24" fill="none" />
  <path d="M69.74226,72.79716 L68.08913,71.84273" stroke="#111111" stroke-width="0.24" fill="none" />
  <path d="M69.74226,72.21516 L68.08915,71.26073" stroke="#111111" stroke-width="0.24" fill="none" />
  <path d="M36.85459,53.22745 L53.65544,43.52747" stroke="#111111" stroke-width="0.24" fill="none" />
  <path d="M36.85459,53.80945 L36.85459,53.22745" stroke="#111111" stroke-width="0.24" fill="none" />
  <path d="M37.37363,54.10912 L36.85459,53.80945" stroke="#111111" stroke-width="0.24" fill="none" />
  <path d="M37.37544,53.52817 L36.85459,53.22745" stroke="#111111" stroke-width="0.24" fill="none" />
  <path d="M86.54312,63.09718 L69.74226,72.79716 L69.74226,72.21516" stroke="#111111" stroke-width="0.24" fill="none" />
  <path d="M56.49655,43.20007 L56.49655,45.16777" stroke="#111111" stroke-width="0.24" fill="none" />
  <path d="M56.49655,43.20007 L56.32257,42.95757 C56.13684,42.82615 55.66825,42.82615 55.48252,42.95757 L55.30855,43.20007" stroke="#111111" stroke-width="0.24" fill="none" />
  <path d="M56.32257,43.44257 L56.49655,43.20007" stroke="#111111" stroke-width="0.24" fill="none" />
  <path d="M38.5616,53.55481 L38.38763,53.31231 C38.2019,53.18089 37.73331,53.18089 37.54758,53.31231 L37.3736,53.55481" stroke="#000000" stroke-width="0.24" fill="none" />
  <path d="M86.02406,74.89475 L86.02406,63.39683 L86.5431,63.09716 L86.5431,62.51516 L86.02406,62.21549 L86.02396,60.25666 L85.85007,60.00528 C85.66435,59.87386 85.19576,59.87386 85.01003,60.00528 L84.83605,60.24778 L84.83605,61.52959 L56.49655,45.16777 L56.49645,43.20894 L56.32257,42.95757 C56.13684,42.82615 55.66825,42.82615 55.48252,42.95757 L55.30855,43.20007 L55.30855,44.48188 L53.65542,43.52745 L36.85456,53.22743 L36.85456,53.80943 L37.3736,54.1091 L37.3736,68.20178" stroke="#000000" stroke-width="0.24" fill="none" />
  <path d="M38.56163,68.20181 L38.56163,56.21888 L39.79473,55.50695 L48.16821,60.34137 L66.90114,71.15684 L66.90114,85.24952" stroke="#000000" stroke-width="0.24" fill="none" />
  <path d="M38.56163,53.55483 L38.56163,55.24888" stroke="#000000" stroke-width="0.24" fill="none" />
  <path d="M68.08913,70.60255 L68.08913,72.2966" stroke="#000000" stroke-width="0.24" fill="none" />
  <path d="M37.37363,68.20181 L37.37363,53.55483" stroke="#000000" stroke-width="0.24" fill="none" />
  <path d="M66.90114,85.24952 L66.90114,70.60255" stroke="#000000" stroke-width="0.24" fill="none" />
  <path d="M68.08913,85.24952 L68.08913,73.26659 L69.32224,72.55466 L69.74226,72.79716 L84.83607,64.08274 L84.83607,74.89478" stroke="#000000" stroke-width="0.24" fill="none" />
</svg>