<?xml version="1.0" encoding="utf-8" standalone="no"?><!DOCTYPE svg PUBLIC "-//W3C//DTD SVG 1.1//EN" "http://www.w3.org/Graphics/SVG/1.1/DTD/svg11.dtd"><svg xmlns="http://www.w3.org/2000/svg" version="1.1" width="120pt" height="120pt" viewBox="0 0 120 120" overflow="visible">
  <path d="M56.79979,60.9323 L56.97377,60.6898 C57.15949,60.55838 57.62808,60.55838 57.81381,60.6898 L57.98779,60.9323 L57.81381,61.1748 C57.62808,61.30622 57.15949,61.30622 56.97377,61.1748 z" stroke="Black" stroke-width="0" fill="#555555" fill-opacity="1"/>
  <path d="M74.73473,50.57756 L74.90871,50.33506 C75.09443,50.20363 75.56303,50.20363 75.74875,50.33506 L75.92273,50.57756 L75.74875,50.82005 C75.56303,50.95148 75.09443,50.95148 74.90871,50.82005 z" stroke="Black" stroke-width="0" fill="#555555" fill-opacity="1"/>
  <path d="M39.50684,50.26232 L39.33287,50.50482 C39.14714,50.63625 38.67855,50.63625 38.49282,50.50482 L38.31894,50.27119 L38.49282,50.01982 C38.67855,49.8884 39.14714,49.8884 39.33287,50.01982 z" stroke="Black" stroke-width="0" fill="#555555" fill-opacity="1"/>
  <path d="M56.25378,39.90758 L56.42776,39.66508 C56.61349,39.53365 57.08208,39.53365 57.26781,39.66508 L57.44178,39.90758 L57.26781,40.15008 C57.08208,40.2815 56.61349,40.2815 56.42776,40.15008 z" stroke="Black" stroke-width="0" fill="#555555" fill-opacity="1"/>
  <path d="M39.50684,51.95637 L39.50689,50.98632 L56.25378,41.31752 L56.42776,41.55989 C56.57729,41.65747 56.90677,41.69561 57.12618,41.62034 L74.73473,51.78664 L74.73473,52.12957 L74.90871,52.37207 C75.08835,52.4977 75.53498,52.50609 75.72969,52.38282 L57.98784,62.62619 L57.98779,61.65635 L74.06863,52.37207 L56.42774,42.18709 z" stroke="Black" stroke-width="0" fill="#555555" fill-opacity="1"/>
  <path d="M56.25378,41.31746 L56.25388,39.91645 L56.42776,40.15008 C56.61349,40.2815 57.08208,40.2815 57.26781,40.15008 L57.44168,39.91645 L57.44178,41.80255 L57.12618,41.62034 C56.90677,41.69561 56.57729,41.65747 56.42776,41.55989 z" stroke="Black" stroke-width="0" fill="#777777" fill-opacity="1"/>
  <path d="M56.25378,43.25752 L39.50684,52.92637 L39.50684,64.90929 L39.33287,65.15179 C39.14714,65.28321 38.67855,65.28321 38.49282,65.15179 L38.31884,64.90929 L38.31894,50.27119 L38.49282,50.50482 C38.67855,50.63625 39.14714,50.63625 39.33287,50.50482 L39.50674,50.2712 L39.50684,51.95637 L56.42774,42.18709 L74.06863,52.37207 L73.22859,52.85707 L57.44178,43.74255 L57.44178,54.55455 L57.26781,54.79705 C57.08208,54.92847 56.61349,54.92847 56.42776,54.79705 L56.25378,54.55455 z" stroke="Black" stroke-width="0" fill="#777777" fill-opacity="1"/>
  <path d="M75.72969,52.38282 C75.53498,52.50609 75.08835,52.4977 74.90871,52.37207 L74.73473,52.12957 L74.73483,50.58643 L74.90871,50.82005 C75.09443,50.95148 75.56303,50.95148 75.74875,50.82005 L75.92263,50.58643 L75.92273,65.22453 L75.74875,65.46703 C75.56303,65.59845 75.09443,65.59845 74.90871,65.46703 L74.73473,65.22453 L74.73473,53.92749 L57.98779,63.59635 L57.98779,75.57927 L57.81381,75.82177 C57.62808,75.95319 57.15949,75.95319 56.97377,75.82177 L56.79979,75.57927 L56.79988,60.94117 L56.97377,61.1748 C57.15949,61.30622 57.62808,61.30622 57.81381,61.1748 L57.98769,60.94117 L57.98784,62.62619 z" stroke="Black" stroke-width="0" fill="#777777" fill-opacity="1"/>
  <path d="M74.90871,50.33506 L74.73473,50.57756" stroke="#000000" stroke-width="0.24" fill="none"/>
  <path d="M38.31884,64.90929 L38.31884,50.26232" stroke="#000000" stroke-width="0.24" fill="none"/>
  <path d="M56.79979,75.57927 L56.97377,75.82177 C57.15949,75.95319 57.62808,75.95319 57.81381,75.82177 L57.98779,75.57927" stroke="#000000" stroke-width="0.24" fill="none"/>
  <path d="M74.73473,65.22453 L74.73473,53.92749" stroke="#000000" stroke-width="0.24" fill="none"/>
  <path d="M74.73473,65.22453 L74.90871,65.46703 C75.09443,65.59845 75.56303,65.59845 75.74875,65.46703 L75.92273,65.22453" stroke="#000000" stroke-width="0.24" fill="none"/>
  <path d="M75.92273,50.57756 L75.92273,65.22453" stroke="#000000" stroke-width="0.24" fill="none"/>
  <path d="M57.98782,61.65637 L74.06866,52.37209" stroke="#000000" stroke-width="0.24" fill="none"/>
  <path d="M57.98779,63.59635 L57.98779,75.57927" stroke="#000000" stroke-width="0.24" fill="none"/>
  <path d="M74.73475,52.12959 L74.73475,50.57758" stroke="#000000" stroke-width="0.24" fill="none"/>
  <path d="M74.73475,51.78666 L57.12621,41.62036" stroke="#000000" stroke-width="0.24" fill="none"/>
  <path d="M57.44178,43.74255 L57.44178,54.55455" stroke="#000000" stroke-width="0.24" fill="none"/>
  <path d="M39.50684,52.92633 L39.50684,64.90929" stroke="#000000" stroke-width="0.24" fill="none"/>
  <path d="M56.25378,54.55455 L56.25378,43.25752" stroke="#000000" stroke-width="0.24" fill="none"/>
  <path d="M56.97377,60.6898 L56.79979,60.9323" stroke="#000000" stroke-width="0.24" fill="none"/>
  <path d="M56.25404,41.31741 L39.50695,50.98635" stroke="#000000" stroke-width="0.24" fill="none"/>
  <path d="M56.25378,41.31752 L56.25378,39.90758" stroke="#000000" stroke-width="0.24" fill="none"/>
  <path d="M56.42776,43.15711 L73.22862,52.85709" stroke="#000000" stroke-width="0.24" fill="none"/>
  <path d="M56.79979,75.57927 L56.79979,60.9323" stroke="#000000" stroke-width="0.24" fill="none"/>
  <path d="M39.33287,65.15179 L39.50684,64.90929" stroke="#000000" stroke-width="0.24" fill="none"/>
  <path d="M39.50684,50.26232 L39.33287,50.01982 C39.14714,49.8884 38.67855,49.8884 38.49282,50.01982 L38.31884,50.26232" stroke="#000000" stroke-width="0.24" fill="none"/>
  <path d="M57.44178,39.90758 L57.44178,41.80255" stroke="#000000" stroke-width="0.24" fill="none"/>
  <path d="M39.33289,53.02684 L56.42798,43.15698" stroke="#000000" stroke-width="0.24" fill="none"/>
  <path d="M38.31884,64.90929 L38.49282,65.15179 C38.67855,65.28321 39.14714,65.28321 39.33287,65.15179" stroke="#000000" stroke-width="0.24" fill="none"/>
  <path d="M75.92273,50.57756 L75.74875,50.33506 C75.56303,50.20363 75.09443,50.20363 74.90871,50.33506" stroke="#000000" stroke-width="0.24" fill="none"/>
  <path d="M57.98779,60.9323 L57.81381,60.6898 C57.62808,60.55838 57.15949,60.55838 56.97377,60.6898" stroke="#000000" stroke-width="0.24" fill="none"/>
  <path d="M75.74875,53.34209 L57.81383,63.69682" stroke="#000000" stroke-width="0.24" fill="none"/>
  <path d="M56.79979,60.9323 L56.97377,61.1748 C57.15949,61.30622 57.62808,61.30622 57.81381,61.1748 L57.98779,60.9323" stroke="#000000" stroke-width="0.24" fill="none"/>
  <path d="M57.26781,54.79705 L57.44178,54.55455" stroke="#000000" stroke-width="0.24" fill="none"/>
  <path d="M56.25378,54.55455 L56.42776,54.79705 C56.61349,54.92847 57.08208,54.92847 57.26781,54.79705" stroke="#000000" stroke-width="0.24" fill="none"/>
  <path d="M57.44178,39.90758 L57.26781,39.66508 C57.08208,39.53365 56.61349,39.53365 56.42776,39.66508 L56.25378,39.90758" stroke="#000000" stroke-width="0.24" fill="none"/>
  <path d="M57.98779,60.9323 L57.98779,62.62609" stroke="#000000" stroke-width="0.24" fill="none"/>
  <path d="M39.50684,50.26232 L39.50684,51.95637" stroke="#111111" stroke-width="0.24" fill="none"/>
  <path d="M56.42776,42.18711 L56.42776,43.15711" stroke="#111111" stroke-width="0.24" fill="none"/>
  <path d="M39.33287,50.50482 L39.50684,50.26232" stroke="#111111" stroke-width="0.24" fill="none"/>
  <path d="M75.74875,52.37209 L57.81383,62.72682" stroke="#111111" stroke-width="0.24" fill="none"/>
  <path d="M57.26781,40.15008 L57.44178,39.90758" stroke="#111111" stroke-width="0.24" fill="none"/>
  <path d="M39.33289,52.05684 L56.4278,42.18709" stroke="#111111" stroke-width="0.24" fill="none"/>
  <path d="M38.31884,50.26232 L38.49282,50.50482 C38.67855,50.63625 39.14714,50.63625 39.33287,50.50482" stroke="#111111" stroke-width="0.24" fill="none"/>
  <path d="M56.25378,39.90758 L56.42776,40.15008 C56.61349,40.2815 57.08208,40.2815 57.26781,40.15008" stroke="#111111" stroke-width="0.24" fill="none"/>
  <path d="M74.73473,50.57756 L74.90871,50.82005 C75.09443,50.95148 75.56303,50.95148 75.74875,50.82005 L75.92273,50.57756" stroke="#111111" stroke-width="0.24" fill="none"/>
  <path d="M74.73473,52.12957 L74.90871,52.37207 C75.09443,52.50348 75.563,52.50349 75.74873,52.37208" stroke="#111111" stroke-width="0.24" fill="none"/>
  <path d="M56.25378,41.31739 L56.42776,41.55989 C56.57729,41.65747 56.90677,41.69561 57.12618,41.62034" stroke="#111111" stroke-width="0.24" fill="none"/>
  <path d="M56.42776,42.18711 L74.06866,52.37209" stroke="#111111" stroke-width="0.24" fill="none"/>
</svg>