<?xml version="1.0" encoding="utf-8" standalone="no"?><!DOCTYPE svg PUBLIC "-//W3C//DTD SVG 1.1//EN" "http://www.w3.org/Graphics/SVG/1.1/DTD/svg11.dtd"><svg xmlns="http://www.w3.org/2000/svg" version="1.1" width="120pt" height="120pt" viewBox="0 0 120 120" overflow="visible">
  <path d="M58.01291,73.54218 L58.01291,72.96017 L59.666,73.9146 L59.666,74.4966 z" stroke="Black" stroke-width="0" fill="#BBBBBB" fill-opacity="1"/>
  <path d="M39.532,62.87225 L39.53205,62.2903 L56.82491,72.27428 L56.82491,72.85629 z" stroke="Black" stroke-width="0" fill="#BBBBBB" fill-opacity="1"/>
  <path d="M38.34396,47.39384 L37.82489,47.09415 L37.82489,46.51215 L38.34576,46.81288 z" stroke="Black" stroke-width="0" fill="#BBBBBB" fill-opacity="1"/>
  <path d="M58.01291,58.74971 L58.01291,58.16771 L59.666,59.12213 L59.666,59.70413 z" stroke="Black" stroke-width="0" fill="#BBBBBB" fill-opacity="1"/>
  <path d="M56.825,57.51838 L56.82491,58.06382 L39.53196,48.07973 L39.53196,47.49773 z" stroke="Black" stroke-width="0" fill="#BBBBBB" fill-opacity="1"/>
  <path d="M37.82489,61.88662 L37.82489,61.30462 L38.34396,61.60431 L38.34396,62.18631 z" stroke="Black" stroke-width="0" fill="#BBBBBB" fill-opacity="1"/>
  <path d="M59.666,74.4966 L59.666,73.9146 L76.46687,64.21461 L76.46687,64.79662 z" stroke="Black" stroke-width="0" fill="#CCCCCC" fill-opacity="1"/>
  <path d="M59.666,59.70413 L59.666,59.12213 L76.46687,49.42215 L76.46687,50.00415 z" stroke="Black" stroke-width="0" fill="#CCCCCC" fill-opacity="1"/>
  <path d="M38.34396,61.60431 L37.82489,61.30462 L38.34396,61.00494 z" stroke="Black" stroke-width="0" fill="#EEEEEE" fill-opacity="1"/>
  <path d="M56.99888,57.267 L56.8267,57.48285 L39.53196,47.49773 L39.53186,46.8484 L39.35798,46.59702 C39.17226,46.4656 38.70367,46.4656 38.51794,46.59702 L38.34576,46.81288 L37.82489,46.51215 L54.62575,36.81218 L76.46687,49.42215 L59.666,59.12213 L58.01291,58.16771 L58.01281,57.51838 L57.83892,57.267 C57.6532,57.13557 57.18461,57.13557 56.99888,57.267 z" stroke="Black" stroke-width="0" fill="#EEEEEE" fill-opacity="1"/>
  <path d="M50.13152,54.19939 L56.82491,58.06382 L56.82491,72.27428 L39.53205,62.2903 L39.53207,60.31892 z" stroke="Black" stroke-width="0" fill="#EEEEEE" fill-opacity="1"/>
  <path d="M58.01291,60.17355 L59.24598,59.46163 L59.666,59.70413 L64.16024,57.10938 L76.46687,64.21461 L59.666,73.9146 L58.01291,72.96017 z" stroke="Black" stroke-width="0" fill="#EEEEEE" fill-opacity="1"/>
  <path d="M56.27886,36.4848 L56.45284,36.2423 C56.63857,36.11088 57.10716,36.11088 57.29288,36.2423 L57.46686,36.4848 L57.29288,36.7273 C57.10716,36.85872 56.63857,36.85872 56.45284,36.7273 z" stroke="Black" stroke-width="0" fill="#555555" fill-opacity="1"/>
  <path d="M75.94771,47.16365 L75.77383,47.39728 C75.5881,47.5287 75.11951,47.5287 74.93378,47.39728 L74.7598,47.15478 L74.93378,46.91228 C75.11951,46.78085 75.5881,46.78085 75.77383,46.91228 z" stroke="Black" stroke-width="0" fill="#555555" fill-opacity="1"/>
  <path d="M39.53196,48.53357 L39.53196,48.07973 L39.925,48.30665 z" stroke="Black" stroke-width="0" fill="#555555" fill-opacity="1"/>
  <path d="M38.34576,46.81288 L38.51794,46.59702 C38.70367,46.4656 39.17226,46.4656 39.35798,46.59702 L39.53196,46.83952 L39.35798,47.08202 C39.17226,47.21344 38.70367,47.21344 38.51794,47.08202 z" stroke="Black" stroke-width="0" fill="#555555" fill-opacity="1"/>
  <path d="M56.8267,57.48285 L56.99888,57.267 C57.18461,57.13557 57.6532,57.13557 57.83892,57.267 L58.01291,57.5095 L57.83892,57.752 C57.6532,57.88342 57.18461,57.88342 56.99888,57.752 z" stroke="Black" stroke-width="0" fill="#555555" fill-opacity="1"/>
  <path d="M58.40594,58.97663 L58.01291,59.20355 L58.01291,58.74971 z" stroke="Black" stroke-width="0" fill="#555555" fill-opacity="1"/>
  <path d="M39.53197,63.32602 L39.532,62.87225 L39.925,63.09912 z" stroke="Black" stroke-width="0" fill="#555555" fill-opacity="1"/>
  <path d="M58.01291,73.99602 L58.01291,73.54218 L58.40594,73.7691 z" stroke="Black" stroke-width="0" fill="#555555" fill-opacity="1"/>
  <path d="M57.23,38.31565 L56.27886,37.7666 L56.27896,36.49368 L56.45284,36.7273 C56.63857,36.85872 57.10716,36.85872 57.29288,36.7273 L57.46676,36.49368 L57.46686,38.45249 z" stroke="Black" stroke-width="0" fill="#777777" fill-opacity="1"/>
  <path d="M75.94781,67.62173 L75.77383,67.86423 C75.5881,67.99566 75.11951,67.99566 74.93378,67.86423 L74.7598,67.62173 L74.7598,65.78219 L75.94781,65.09629 z" stroke="Black" stroke-width="0" fill="#777777" fill-opacity="1"/>
  <path d="M75.94771,47.16365 L75.94781,49.12247 L74.7598,48.43658 L74.7599,47.16365 L74.93378,47.39728 C75.11951,47.5287 75.5881,47.5287 75.77383,47.39728 z" stroke="Black" stroke-width="0" fill="#777777" fill-opacity="1"/>
  <path d="M58.01291,60.17355 L58.01291,73.99602 L58.40594,73.7691 L59.24598,74.2541 L58.01291,74.96601 L58.01291,77.97646 L57.83892,78.21896 C57.6532,78.35038 57.18461,78.35038 56.99888,78.21896 L56.82491,77.97646 L56.825,57.51838 L56.99888,57.752 C57.18461,57.88342 57.6532,57.88342 57.83892,57.752 L58.01281,57.51838 L58.01291,59.20355 L58.40594,58.97663 L59.24598,59.46163 z" stroke="Black" stroke-width="0" fill="#777777" fill-opacity="1"/>
  <path d="M39.53196,64.29604 L39.53196,67.30648 L39.35798,67.54898 C39.17226,67.6804 38.70367,67.6804 38.51794,67.54898 L38.34396,67.30648 L38.34406,46.8484 L38.51794,47.08202 C38.70367,47.21344 39.17226,47.21344 39.35798,47.08202 L39.53186,46.8484 L39.53196,48.53357 L39.925,48.30665 L40.76504,48.79165 L39.53196,49.50357 L39.53197,63.32602 L39.925,63.09912 L40.76504,63.58412 z" stroke="Black" stroke-width="0" fill="#777777" fill-opacity="1"/>
  <path d="M74.7598,63.22905 L74.7598,50.98972 L75.94781,50.30383 L75.94781,63.91494 z" stroke="Black" stroke-width="0" fill="#777777" fill-opacity="1"/>
  <path d="M76.46689,50.00417 L76.46689,49.42217" stroke="#000000" stroke-width="0.24" fill="none"/>
  <path d="M58.01291,57.5095 L57.83892,57.267 C57.6532,57.13557 57.18461,57.13557 56.99888,57.267" stroke="#000000" stroke-width="0.24" fill="none"/>
  <path d="M74.7598,67.62173 L74.7598,65.78211" stroke="#000000" stroke-width="0.24" fill="none"/>
  <path d="M75.94781,47.15478 L75.94781,49.12247" stroke="#000000" stroke-width="0.24" fill="none"/>
  <path d="M74.7598,67.62173 L74.93378,67.86423 C75.11951,67.99566 75.5881,67.99566 75.77383,67.86423 L75.94781,67.62173" stroke="#000000" stroke-width="0.24" fill="none"/>
  <path d="M75.94781,47.15478 L75.77383,46.91228 C75.5881,46.78085 75.11951,46.78085 74.93378,46.91228" stroke="#000000" stroke-width="0.24" fill="none"/>
  <path d="M39.35798,67.54898 L39.53196,67.30648" stroke="#000000" stroke-width="0.24" fill="none"/>
  <path d="M38.34396,67.30648 L38.51794,67.54898 C38.70367,67.6804 39.17226,67.6804 39.35798,67.54898" stroke="#000000" stroke-width="0.24" fill="none"/>
  <path d="M38.34407,47.39391 L37.82491,47.09418" stroke="#000000" stroke-width="0.24" fill="none"/>
  <path d="M74.7598,48.43658 L74.7598,47.15478" stroke="#000000" stroke-width="0.24" fill="none"/>
  <path d="M75.94781,50.30383 L75.94781,63.91494" stroke="#000000" stroke-width="0.24" fill="none"/>
  <path d="M57.46686,36.4848 L57.29288,36.2423 C57.10716,36.11088 56.63857,36.11088 56.45284,36.2423 L56.27886,36.4848" stroke="#000000" stroke-width="0.24" fill="none"/>
  <path d="M37.82491,61.30465 L38.344,61.00496" stroke="#000000" stroke-width="0.24" fill="none"/>
  <path d="M37.82491,61.88665 L37.82491,61.30465" stroke="#000000" stroke-width="0.24" fill="none"/>
  <path d="M76.46689,64.79664 L76.46689,64.21464" stroke="#000000" stroke-width="0.24" fill="none"/>
  <path d="M74.7598,63.22905 L74.7598,50.98951" stroke="#000000" stroke-width="0.24" fill="none"/>
  <path d="M75.94781,65.09629 L75.94781,67.62173" stroke="#000000" stroke-width="0.24" fill="none"/>
  <path d="M39.53196,64.29604 L39.53196,67.30648" stroke="#000000" stroke-width="0.24" fill="none"/>
  <path d="M58.01291,74.96601 L58.01291,77.97646" stroke="#000000" stroke-width="0.24" fill="none"/>
  <path d="M39.5322,60.31895 L50.13158,54.19939" stroke="#000000" stroke-width="0.24" fill="none"/>
  <path d="M56.27886,37.7666 L56.27886,36.4848" stroke="#000000" stroke-width="0.24" fill="none"/>
  <path d="M38.34399,62.18633 L37.82491,61.88665" stroke="#000000" stroke-width="0.24" fill="none"/>
  <path d="M76.46689,50.00417 L59.66603,59.70415 L58.01293,58.74973" stroke="#000000" stroke-width="0.24" fill="none"/>
  <path d="M56.99888,57.267 L56.82491,57.5095" stroke="#000000" stroke-width="0.24" fill="none"/>
  <path d="M58.01291,57.5095 L58.01291,59.20355" stroke="#000000" stroke-width="0.24" fill="none"/>
  <path d="M58.01291,60.17355 L58.01291,73.99602" stroke="#000000" stroke-width="0.24" fill="none"/>
  <path d="M38.34396,67.30648 L38.34396,46.83952" stroke="#000000" stroke-width="0.24" fill="none"/>
  <path d="M39.53196,46.83952 L39.53196,48.53357" stroke="#000000" stroke-width="0.24" fill="none"/>
  <path d="M39.53196,49.50357 L39.53196,63.32601" stroke="#000000" stroke-width="0.24" fill="none"/>
  <path d="M39.53196,46.83952 L39.35798,46.59702 C39.17226,46.4656 38.70367,46.4656 38.51794,46.59702 L38.34396,46.83952" stroke="#000000" stroke-width="0.24" fill="none"/>
  <path d="M57.83892,75.0665 L59.24621,74.254" stroke="#000000" stroke-width="0.24" fill="none"/>
  <path d="M57.83892,60.27403 L59.24607,59.46161" stroke="#000000" stroke-width="0.24" fill="none"/>
  <path d="M64.16026,57.10941 L76.46689,64.21464" stroke="#000000" stroke-width="0.24" fill="none"/>
  <path d="M76.46689,64.79664 L59.66603,74.49662" stroke="#000000" stroke-width="0.24" fill="none"/>
  <path d="M56.82493,72.85631 L39.53207,62.87227" stroke="#000000" stroke-width="0.24" fill="none"/>
  <path d="M39.35798,64.39652 L40.76532,63.584" stroke="#000000" stroke-width="0.24" fill="none"/>
  <path d="M54.62577,36.8122 L76.46689,49.42217" stroke="#000000" stroke-width="0.24" fill="none"/>
  <path d="M59.66603,74.49662 L58.01293,73.5422" stroke="#000000" stroke-width="0.24" fill="none"/>
  <path d="M56.82491,77.97646 L56.82491,57.5095" stroke="#000000" stroke-width="0.24" fill="none"/>
  <path d="M39.35798,49.60405 L40.76527,48.79155" stroke="#000000" stroke-width="0.24" fill="none"/>
  <path d="M56.82493,58.06384 L39.53198,48.07975" stroke="#000000" stroke-width="0.24" fill="none"/>
  <path d="M57.46686,36.4848 L57.46686,38.45249" stroke="#000000" stroke-width="0.24" fill="none"/>
  <path d="M74.93378,46.91228 L74.7598,47.15478" stroke="#000000" stroke-width="0.24" fill="none"/>
  <path d="M56.82491,77.97646 L56.99888,78.21896 C57.18461,78.35038 57.6532,78.35038 57.83892,78.21896 L58.01291,77.97646" stroke="#000000" stroke-width="0.24" fill="none"/>
  <path d="M37.82491,47.09418 L37.82491,46.51218 L54.62577,36.8122" stroke="#000000" stroke-width="0.24" fill="none"/>
  <path d="M56.82491,57.5095 L56.99888,57.752 C57.18461,57.88342 57.6532,57.88342 57.83892,57.752 L58.01291,57.5095" stroke="#111111" stroke-width="0.24" fill="none"/>
  <path d="M39.35798,47.08202 L39.53196,46.83952" stroke="#111111" stroke-width="0.24" fill="none"/>
  <path d="M38.34578,46.8129 L37.82491,46.51218" stroke="#111111" stroke-width="0.24" fill="none"/>
  <path d="M38.34396,46.83952 L38.51794,47.08202 C38.70367,47.21344 39.17226,47.21344 39.35798,47.08202" stroke="#111111" stroke-width="0.24" fill="none"/>
  <path d="M56.27886,36.4848 L56.45284,36.7273 C56.63857,36.85872 57.10716,36.85872 57.29288,36.7273" stroke="#111111" stroke-width="0.24" fill="none"/>
  <path d="M38.34406,61.60437 L37.82491,61.30465" stroke="#111111" stroke-width="0.24" fill="none"/>
  <path d="M59.66603,59.12215 L58.01293,58.16773" stroke="#111111" stroke-width="0.24" fill="none"/>
  <path d="M56.82673,57.48288 L39.53199,47.49776" stroke="#111111" stroke-width="0.24" fill="none"/>
  <path d="M57.83892,59.30404 L58.40613,58.97656" stroke="#111111" stroke-width="0.24" fill="none"/>
  <path d="M76.46689,64.21464 L59.66603,73.91462" stroke="#111111" stroke-width="0.24" fill="none"/>
  <path d="M39.35798,63.42653 L39.92512,63.09909" stroke="#111111" stroke-width="0.24" fill="none"/>
  <path d="M57.83892,74.0965 L58.40601,73.76909" stroke="#111111" stroke-width="0.24" fill="none"/>
  <path d="M39.35798,48.63406 L39.92508,48.30664" stroke="#111111" stroke-width="0.24" fill="none"/>
  <path d="M76.46689,49.42217 L59.66603,59.12215" stroke="#111111" stroke-width="0.24" fill="none"/>
  <path d="M59.66603,59.70415 L59.66603,59.12215" stroke="#111111" stroke-width="0.24" fill="none"/>
  <path d="M56.82493,72.27431 L39.53215,62.29032" stroke="#111111" stroke-width="0.24" fill="none"/>
  <path d="M59.66603,73.91462 L58.01293,72.96021" stroke="#111111" stroke-width="0.24" fill="none"/>
  <path d="M59.66603,74.49662 L59.66603,73.91462" stroke="#111111" stroke-width="0.24" fill="none"/>
  <path d="M57.29288,36.7273 L57.46686,36.4848" stroke="#111111" stroke-width="0.24" fill="none"/>
  <path d="M74.7598,47.15478 L74.93378,47.39728 C75.11951,47.5287 75.5881,47.5287 75.77383,47.39728 L75.94781,47.15478" stroke="#111111" stroke-width="0.24" fill="none"/>
</svg>