<?xml version="1.0" encoding="utf-8" standalone="no"?>
<!DOCTYPE svg PUBLIC "-//W3C//DTD SVG 1.1//EN" "http://www.w3.org/Graphics/SVG/1.1/DTD/svg11.dtd">
<svg version="1.1" width="120pt" height="120pt" viewBox="0 0 120 120" overflow="visible" xmlns="http://www.w3.org/2000/svg">
  <path d="M73.09236,36.31627 C73.50572,36.50653 73.97431,37.31815 73.93241,37.77126 C73.93515,38.00006 73.85365,38.22214 73.68642,38.31507 C73.73311,38.28134 73.80878,38.06561 73.8064,37.84401 C73.8483,37.3909 73.37971,36.57928 72.96636,36.38902 C72.77564,36.27615 72.55098,36.23382 72.38783,36.32147 C72.66244,36.15902 72.89555,36.19946 73.09236,36.31627 z" stroke="Black" stroke-width="0" fill="#555555" fill-opacity="1" />
  <path d="M79.23058,50.55969 L79.0567,50.79331 C78.87098,50.92474 78.40239,50.92474 78.21666,50.79331 L78.04268,50.55081 L78.21666,50.30831 C78.40239,50.17689 78.87098,50.17689 79.0567,50.30831 z" stroke="Black" stroke-width="0" fill="#555555" fill-opacity="1" />
  <path d="M61.29578,40.19609 L61.1218,40.43859 C60.93608,40.57001 60.46748,40.57001 60.28176,40.43859 L60.10788,40.20497 L60.28176,39.95359 C60.46748,39.82217 60.93608,39.82217 61.1218,39.95359 z" stroke="Black" stroke-width="0" fill="#555555" fill-opacity="1" />
  <path d="M42.80276,50.87304 L42.62878,51.11554 C42.44305,51.24696 41.97446,51.24696 41.78874,51.11554 L41.61486,50.88192 L41.78874,50.63054 C41.97446,50.49912 42.44305,50.49912 42.62878,50.63054 z" stroke="Black" stroke-width="0" fill="#555555" fill-opacity="1" />
  <path d="M60.73756,61.23664 L60.56368,61.47026 C60.37796,61.60168 59.90937,61.60168 59.72364,61.47026 L59.54966,61.22776 L59.72364,60.98526 C59.90937,60.85384 60.37796,60.85384 60.56368,60.98526 z" stroke="Black" stroke-width="0" fill="#555555" fill-opacity="1" />
  <path d="M53.96936,58.73003 L59.54956,61.9517 L59.54966,62.92181 L53.12932,59.21503 L53.12924,49.66829 L52.63213,49.95525 C52.61579,49.53142 52.24745,48.89463 51.88886,48.66965 L61.86954,42.9073 L60.70178,42.23309 L43.0488,52.42504 L52.28923,57.75998 L52.28928,58.73003 L41.80777,52.67829 C42.00248,52.80156 42.44913,52.79317 42.62878,52.66754 L42.80276,52.42504 L42.80276,51.5971 L60.1077,41.60612 L60.28176,41.84862 C60.46748,41.98005 60.93608,41.98005 61.1218,41.84862 L61.2958,41.60609 L62.70951,42.42228 L72.59415,36.71544 L72.96541,36.75222 C73.22375,36.87113 73.51662,37.3784 73.49043,37.66159 L73.33667,38.00148 L72.46238,38.50625 L72.46243,48.0531 L78.04266,51.27484 L78.04268,52.24486 L71.62234,48.53807 L71.62234,38.99125 L64.19459,43.27966 L70.7822,47.08296 L70.7823,48.05307 L63.35455,43.76466 L53.96936,49.1832 z" stroke="Black" stroke-width="0" fill="#555555" fill-opacity="1" />
  <path d="M52.28928,50.66755 C52.44112,50.56783 52.5135,50.35603 52.51131,50.13874 C52.55322,49.68562 52.08463,48.874 51.67127,48.68374 C51.48056,48.57088 51.25589,48.52855 51.09274,48.6162 L51.51857,48.50502 L51.79728,48.61099 C52.24749,48.89464 52.61584,49.53153 52.63213,49.95537 C52.64006,50.29483 52.55854,50.51694 52.39128,50.60983" stroke="Black" stroke-width="0" fill="#555555" fill-opacity="1" />
  <path d="M73.56036,38.38785 C73.39629,38.48626 73.16318,38.44581 72.96636,38.32901 L73.33667,38.00148 L73.49043,37.66159 C73.51662,37.3784 73.22375,36.87113 72.96541,36.75222 L72.59415,36.71544 L72.13132,36.98266 C72.12357,36.64516 72.2051,36.42306 72.37236,36.33017 C72.55098,36.23382 72.77564,36.27615 72.96636,36.38902 C73.37971,36.57928 73.8483,37.3909 73.8064,37.84401 C73.80878,38.06561 73.73311,38.28134 73.57563,38.3788 z" stroke="Black" stroke-width="0" fill="#777777" fill-opacity="1" />
  <path d="M70.7823,48.05307 L70.7823,39.47625 L71.62234,38.99125 L71.62234,48.53807 L78.04268,52.24486 L78.04279,50.55969 L78.21666,50.79331 C78.40239,50.92474 78.87098,50.92474 79.0567,50.79331 L79.23058,50.55969 L79.23068,65.19778 L79.11143,65.4039 C78.87098,65.5717 78.40239,65.5717 78.21666,65.44028 L78.04268,65.19778 L78.04268,53.21486 L62.5145,44.24966 L63.35455,43.76466 z" stroke="Black" stroke-width="0" fill="#777777" fill-opacity="1" />
  <path d="M60.70178,43.20309 L61.02938,43.39227 L60.10778,43.92445 L60.10778,43.54603 z" stroke="Black" stroke-width="0" fill="#777777" fill-opacity="1" />
  <path d="M61.29578,41.60608 L61.1218,41.84862 C60.93608,41.98005 60.46748,41.98005 60.28176,41.84862 L60.10778,41.60608 L60.10788,40.20497 L60.28176,40.43859 C60.46748,40.57001 60.93608,40.57001 61.1218,40.43859 L61.29568,40.20497 z" stroke="Black" stroke-width="0" fill="#777777" fill-opacity="1" />
  <path d="M60.10778,45.63918 L61.29578,44.95329 L61.29578,54.84306 L61.17829,55.04782 C60.93608,55.21698 60.46748,55.21698 60.28176,55.08556 L60.10778,54.84306 z" stroke="Black" stroke-width="0" fill="#777777" fill-opacity="1" />
  <path d="M59.54966,63.89181 L42.80276,54.22298 L42.80276,65.52001 L42.6835,65.72613 C42.44305,65.89394 41.97446,65.89394 41.78874,65.76251 L41.61476,65.52001 L41.61486,50.88192 L41.78874,51.11554 C41.97446,51.24696 42.44305,51.24696 42.62878,51.11554 L42.80266,50.88192 L42.80276,52.42504 L42.62878,52.66754 C42.44913,52.79317 42.00248,52.80156 41.80777,52.67829 L52.28928,58.73003 L52.28928,50.66872 C52.55854,50.51694 52.64006,50.29483 52.63732,50.06599 L53.12924,49.66829 L53.12932,59.21503 L59.54966,62.92181 L59.54976,61.23664 L59.72364,61.47026 C59.90937,61.60168 60.37796,61.60168 60.56368,61.47026 L60.73756,61.23664 L60.73766,75.87473 L60.61666,76.08218 C60.37796,76.24866 59.90937,76.24866 59.72364,76.11723 L59.54966,75.87473 z" stroke="Black" stroke-width="0" fill="#777777" fill-opacity="1" />
  <path d="M60.70178,43.20309 L60.70178,42.23309 L61.86954,42.9073 L61.02938,43.39227 z" stroke="Black" stroke-width="0" fill="#777777" fill-opacity="1" />
  <path d="M43.88885,52.91004 L43.0488,52.42504 L60.70178,42.23309 L60.70178,43.20309 L51.51857,48.50502 L51.20328,48.55215 L50.87881,48.87438 z" stroke="Black" stroke-width="0" fill="#777777" fill-opacity="1" />
  <path d="M52.26527,50.68258 C52.1012,50.78098 51.86809,50.74054 51.67127,50.62373 C51.25792,50.43347 50.78932,49.62185 50.83123,49.16874 L50.87881,48.87438 L51.07727,48.6249 C51.25589,48.52855 51.48056,48.57088 51.67127,48.68374 C52.08463,48.874 52.55322,49.68562 52.51131,50.13874 C52.5135,50.35603 52.44112,50.56783 52.28928,50.66755 z" stroke="Black" stroke-width="0" fill="#777777" fill-opacity="1" />
  <path d="M51.79728,48.61099 C52.21064,48.80125 52.67923,49.61287 52.63732,50.06599 C52.64006,50.29483 52.55854,50.51694 52.39128,50.60983" stroke="#000000" stroke-width="0.24" fill="none" />
  <path d="M51.20328,48.55215 C51.36735,48.45374 51.60046,48.49419 51.79728,48.61099" stroke="#000000" stroke-width="0.24" fill="none" />
  <path d="M42.80276,65.52001 L42.62878,65.76251 C42.44305,65.89394 41.97446,65.89394 41.78874,65.76251 L41.61476,65.52001 L41.61476,50.87304 L41.78874,50.63054 C41.97446,50.49912 42.44305,50.49912 42.62878,50.63054 L42.80276,50.87304 L42.80276,51.5971 L60.1077,41.60608 L60.10778,40.19609 L60.28176,39.95359 C60.46748,39.82217 60.93608,39.82217 61.1218,39.95359 L61.29578,40.19609 L61.29578,41.60604 L62.70951,42.42228 L72.13132,36.98266 C72.12357,36.64516 72.2051,36.42306 72.37236,36.33017 C72.66244,36.15902 72.89555,36.19946 73.09236,36.31627 C73.50572,36.50653 73.97431,37.31815 73.93241,37.77126 C73.93515,38.00006 73.85365,38.22214 73.68642,38.31507 C73.39629,38.48626 73.16318,38.44581 72.96636,38.32901 L72.46238,38.50625 L72.46243,48.0531 L78.04266,51.27484 L78.04279,50.55969 L78.21666,50.30831 C78.40239,50.17689 78.87098,50.17689 79.0567,50.30831 L79.23068,50.55081 L79.23068,65.19778 L79.0567,65.44028 C78.87098,65.5717 78.40239,65.5717 78.21666,65.44028 L78.04268,65.19778 L78.04268,53.21486 L62.5145,44.24966 L61.29578,44.95329 L61.29578,54.84306 L61.1218,55.08556 C60.93608,55.21698 60.46748,55.21698 60.28176,55.08556 L60.10778,54.84306 L60.10778,45.63918 L53.96936,49.1832 L53.96936,58.73003 L59.54956,61.9517 L59.54976,61.23664 L59.72364,60.98526 C59.90937,60.85384 60.37796,60.85384 60.56368,60.98526 L60.73766,61.22776 L60.73766,75.87473 L60.56368,76.11723 C60.37796,76.24866 59.90937,76.24866 59.72364,76.11723 L59.54966,75.87473 L59.54966,63.89181 L42.80276,54.22298 z" stroke="#000000" stroke-width="0.24" fill="none" />
  <path d="M64.19461,43.27969 L70.78222,47.08298 L70.78232,39.47627 z" stroke="#000000" stroke-width="0.24" fill="none" />
  <path d="M60.10778,43.92445 L60.10778,43.54603 L51.51857,48.50502 L51.79728,48.61099 z" stroke="#000000" stroke-width="0.24" fill="none" />
  <path d="M52.28923,57.75998 L52.28928,50.66872 C52.1012,50.78098 51.86809,50.74054 51.67127,50.62373 C51.25792,50.43347 50.78932,49.62185 50.83123,49.16874 L50.87881,48.87438 L43.88885,52.91004 z" stroke="#000000" stroke-width="0.24" fill="none" />
  <path d="M60.1078,43.92448 L62.70953,42.42231" stroke="#000000" stroke-width="0.24" fill="none" />
  <path d="M71.62236,38.99128 L70.78232,39.47627" stroke="#000000" stroke-width="0.24" fill="none" />
  <path d="M72.59418,36.71547 L72.13135,36.98268" stroke="#000000" stroke-width="0.24" fill="none" />
  <path d="M53.12926,49.66832 L52.63215,49.95528" stroke="#000000" stroke-width="0.24" fill="none" />
  <path d="M52.26527,50.68258 C52.1012,50.78098 51.86809,50.74054 51.67127,50.62373 C51.25792,50.43347 50.78932,49.62185 50.83123,49.16874 C50.82849,48.93989 50.91001,48.71778 51.07727,48.6249" stroke="#000000" stroke-width="0.24" fill="none" />
  <path d="M71.62236,38.99128 L72.4624,38.50628" stroke="#000000" stroke-width="0.24" fill="none" />
  <path d="M53.96938,49.18322 L53.12926,49.66832" stroke="#000000" stroke-width="0.24" fill="none" />
  <path d="M72.87309,38.26917 L73.33671,38.0015" stroke="#000000" stroke-width="0.24" fill="none" />
  <path d="M62.51453,44.24969 L64.19461,43.27969" stroke="#000000" stroke-width="0.24" fill="none" />
  <path d="M42.62878,50.63054 L42.80276,50.87304" stroke="#111111" stroke-width="0.24" fill="none" />
  <path d="M42.80276,65.52001 L42.80276,54.22298" stroke="#111111" stroke-width="0.24" fill="none" />
  <path d="M41.61476,50.87304 L41.61476,65.52001" stroke="#111111" stroke-width="0.24" fill="none" />
  <path d="M41.61476,50.87304 L41.78874,50.63054 C41.97446,50.49912 42.44305,50.49912 42.62878,50.63054 L42.62878,51.11554 C42.44305,51.24696 41.97446,51.24696 41.78874,51.11554 z" stroke="#111111" stroke-width="0.24" fill="none" />
  <path d="M61.29578,54.84306 L61.29578,44.95322" stroke="#111111" stroke-width="0.24" fill="none" />
  <path d="M60.10778,40.19609 L60.10778,41.60604" stroke="#111111" stroke-width="0.24" fill="none" />
  <path d="M60.10778,40.19609 L60.28176,39.95359 C60.46748,39.82217 60.93608,39.82217 61.1218,39.95359 L61.29578,40.19609" stroke="#111111" stroke-width="0.24" fill="none" />
  <path d="M60.28176,40.43859 L60.10778,40.19609" stroke="#111111" stroke-width="0.24" fill="none" />
  <path d="M61.29578,40.19609 L61.1218,40.43859 C60.93608,40.57001 60.46748,40.57001 60.28176,40.43859" stroke="#111111" stroke-width="0.24" fill="none" />
  <path d="M60.10765,41.60615 L42.80278,51.59712" stroke="#111111" stroke-width="0.24" fill="none" />
  <path d="M60.10778,43.546 L60.10778,43.92445" stroke="#111111" stroke-width="0.24" fill="none" />
  <path d="M61.29572,41.60601 L62.70951,42.42226" stroke="#111111" stroke-width="0.24" fill="none" />
  <path d="M43.88887,52.91006 L50.87884,48.8744" stroke="#111111" stroke-width="0.24" fill="none" />
  <path d="M61.29578,41.60604 L61.29578,40.19609" stroke="#111111" stroke-width="0.24" fill="none" />
  <path d="M73.09236,36.31627 C72.89555,36.19946 72.66244,36.15902 72.49837,36.25742 C72.2051,36.42306 72.12357,36.64516 72.12631,36.87401" stroke="#111111" stroke-width="0.24" fill="none" />
  <path d="M73.68646,38.31504 C73.85366,38.22213 73.93515,38.00006 73.93241,37.77126 C73.97431,37.31815 73.50572,36.50653 73.09236,36.31627 C72.76954,36.27221 72.53643,36.23177 72.37236,36.33017" stroke="#111111" stroke-width="0.24" fill="none" />
  <path d="M73.56036,38.38785 C73.72762,38.29496 73.80914,38.07286 73.8064,37.84401 C73.8483,37.3909 73.37971,36.57928 72.96636,36.38902" stroke="#111111" stroke-width="0.24" fill="none" />
  <path d="M72.4624,48.0531 L71.62236,48.5381" stroke="#111111" stroke-width="0.24" fill="none" />
  <path d="M72.46251,48.05316 L78.04266,51.27486" stroke="#111111" stroke-width="0.24" fill="none" />
  <path d="M70.78232,48.0531 L63.35436,43.76456" stroke="#111111" stroke-width="0.24" fill="none" />
  <path d="M71.62236,48.5381 L71.62236,38.99107" stroke="#111111" stroke-width="0.24" fill="none" />
  <path d="M79.23068,65.19778 L79.23068,50.55081" stroke="#111111" stroke-width="0.24" fill="none" />
  <path d="M78.04268,50.55081 L78.21666,50.30831 C78.40239,50.17689 78.87098,50.17689 79.0567,50.30831 L79.23068,50.55081" stroke="#111111" stroke-width="0.24" fill="none" />
  <path d="M78.21666,50.79331 L78.04268,50.55081" stroke="#111111" stroke-width="0.24" fill="none" />
  <path d="M79.23068,50.55081 L79.0567,50.79331 C78.87098,50.92474 78.40239,50.92474 78.21666,50.79331" stroke="#111111" stroke-width="0.24" fill="none" />
  <path d="M53.96938,58.73005 L53.12934,59.21505" stroke="#111111" stroke-width="0.24" fill="none" />
  <path d="M72.96541,36.75222 L72.59415,36.71544" stroke="#111111" stroke-width="0.24" fill="none" />
  <path d="M73.33669,38.00147 L73.49043,37.66159 C73.51662,37.3784 73.22375,36.87113 72.96541,36.75222" stroke="#111111" stroke-width="0.24" fill="none" />
  <path d="M53.96938,49.18322 L53.96938,58.73005" stroke="#111111" stroke-width="0.24" fill="none" />
  <path d="M60.56368,60.98526 L60.73766,61.22776" stroke="#111111" stroke-width="0.24" fill="none" />
  <path d="M60.73766,75.87473 L60.73766,61.22776" stroke="#111111" stroke-width="0.24" fill="none" />
  <path d="M59.54966,61.22776 L59.72364,60.98526 C59.90937,60.85384 60.37796,60.85384 60.56368,60.98526 L60.56368,61.47026 C60.37796,61.60168 59.90937,61.60168 59.72364,61.47026 z" stroke="#111111" stroke-width="0.24" fill="none" />
  <path d="M60.10778,45.63918 L60.10778,54.84306" stroke="#111111" stroke-width="0.24" fill="none" />
  <path d="M52.2893,58.73005 L41.78876,52.66756" stroke="#111111" stroke-width="0.24" fill="none" />
  <path d="M64.19456,43.27966 L70.78211,47.08298" stroke="#111111" stroke-width="0.24" fill="none" />
  <path d="M72.96636,38.32901 C73.16318,38.44581 73.39629,38.48626 73.56036,38.38785" stroke="#111111" stroke-width="0.24" fill="none" />
  <path d="M72.4624,38.50628 L72.4624,48.0531" stroke="#111111" stroke-width="0.24" fill="none" />
  <path d="M53.9692,58.72994 L59.54949,61.95173" stroke="#111111" stroke-width="0.24" fill="none" />
  <path d="M78.04268,53.21486 L78.04268,65.19778" stroke="#111111" stroke-width="0.24" fill="none" />
  <path d="M59.54966,63.89181 L59.54966,75.87473" stroke="#111111" stroke-width="0.24" fill="none" />
  <path d="M52.63189,49.95539 L53.12916,49.66829" stroke="#111111" stroke-width="0.24" fill="none" />
  <path d="M42.80276,65.52001 L42.62878,65.76251 C42.44305,65.89394 41.97446,65.89394 41.78874,65.76251 L41.61476,65.52001" stroke="#111111" stroke-width="0.24" fill="none" />
  <path d="M59.72366,63.02228 L53.12935,59.21506" stroke="#111111" stroke-width="0.24" fill="none" />
  <path d="M59.72366,63.99228 L41.78876,53.63756" stroke="#111111" stroke-width="0.24" fill="none" />
  <path d="M78.21668,52.34533 L71.62215,48.53798" stroke="#111111" stroke-width="0.24" fill="none" />
  <path d="M78.21668,53.31533 L62.51442,44.24962" stroke="#111111" stroke-width="0.24" fill="none" />
  <path d="M61.02937,43.39223 L60.70155,43.20296" stroke="#111111" stroke-width="0.24" fill="none" />
  <path d="M51.51859,48.50504 L60.70181,43.20311" stroke="#111111" stroke-width="0.24" fill="none" />
  <path d="M60.28176,55.08556 L60.10778,54.84306" stroke="#111111" stroke-width="0.24" fill="none" />
  <path d="M61.29578,54.84306 L61.1218,55.08556 C60.93608,55.21698 60.46748,55.21698 60.28176,55.08556" stroke="#111111" stroke-width="0.24" fill="none" />
  <path d="M70.78232,48.0531 L70.78232,39.47627" stroke="#111111" stroke-width="0.24" fill="none" />
  <path d="M51.67127,48.68374 C52.08463,48.874 52.55322,49.68562 52.51131,50.13874 C52.51406,50.36758 52.43253,50.58969 52.26527,50.68258" stroke="#111111" stroke-width="0.24" fill="none" />
  <path d="M78.21666,65.44028 L78.04268,65.19778" stroke="#111111" stroke-width="0.24" fill="none" />
  <path d="M78.04268,50.55081 L78.04268,52.24486" stroke="#111111" stroke-width="0.24" fill="none" />
  <path d="M79.23068,65.19778 L79.0567,65.44028 C78.87098,65.5717 78.40239,65.5717 78.21666,65.44028" stroke="#111111" stroke-width="0.24" fill="none" />
  <path d="M53.12934,59.21505 L53.12934,49.66822" stroke="#111111" stroke-width="0.24" fill="none" />
  <path d="M52.2893,58.73005 L52.2893,50.66757" stroke="#111111" stroke-width="0.24" fill="none" />
  <path d="M53.96936,49.1832 L71.62234,38.99125" stroke="#111111" stroke-width="0.24" fill="none" />
  <path d="M72.46238,38.50625 L73.33665,38.00149" stroke="#111111" stroke-width="0.24" fill="none" />
  <path d="M72.59415,36.71544 L51.88885,48.66965" stroke="#111111" stroke-width="0.24" fill="none" />
  <path d="M59.54966,61.22776 L59.54966,62.92181" stroke="#111111" stroke-width="0.24" fill="none" />
  <path d="M60.73766,75.87473 L60.56368,76.11723 C60.37796,76.24866 59.90937,76.24866 59.72364,76.11723 L59.54966,75.87473" stroke="#111111" stroke-width="0.24" fill="none" />
  <path d="M61.86956,42.90732 L60.70181,42.23311" stroke="#111111" stroke-width="0.24" fill="none" />
  <path d="M43.04883,52.42506 L60.70181,42.23311" stroke="#111111" stroke-width="0.24" fill="none" />
  <path d="M60.28176,41.84862 L60.10778,41.60612" stroke="#111111" stroke-width="0.24" fill="none" />
  <path d="M61.29578,41.60612 L61.1218,41.84862 C60.93608,41.98005 60.46748,41.98005 60.28176,41.84862" stroke="#111111" stroke-width="0.24" fill="none" />
  <path d="M42.80276,52.42504 L42.62878,52.66754 C42.44305,52.79896 41.97446,52.79896 41.78874,52.66754" stroke="#111111" stroke-width="0.24" fill="none" />
  <path d="M42.80278,52.42506 L42.80278,50.87307" stroke="#111111" stroke-width="0.24" fill="none" />
  <path d="M43.04883,52.42506 L52.28921,57.76" stroke="#111111" stroke-width="0.24" fill="none" />
  <path d="M60.70181,42.23311 L60.70181,43.20311" stroke="#111111" stroke-width="0.24" fill="none" />
  <path d="M51.07727,48.6249 C51.24134,48.52649 51.47445,48.56694 51.67127,48.68374" stroke="#111111" stroke-width="0.24" fill="none" />
</svg>