<?xml version="1.0" encoding="utf-8" standalone="no"?><!DOCTYPE svg PUBLIC "-//W3C//DTD SVG 1.1//EN" "http://www.w3.org/Graphics/SVG/1.1/DTD/svg11.dtd"><svg xmlns="http://www.w3.org/2000/svg" version="1.1" width="120pt" height="120pt" viewBox="0 0 120 120" overflow="visible">
  <path d="M46.66763,36.31627 C46.86445,36.19946 47.09756,36.15902 47.26163,36.25742 C47.20902,36.23382 46.98436,36.27615 46.79364,36.38902 C46.38028,36.57928 45.91169,37.3909 45.9536,37.84401 C45.95122,38.06561 46.02689,38.28134 46.18437,38.3788 C45.90636,38.22214 45.82485,38.00006 45.82759,37.77126 C45.78569,37.31815 46.25428,36.50653 46.66763,36.31627 z" stroke="Black" stroke-width="0" fill="#555555" fill-opacity="1"/>
  <path d="M40.52932,50.55081 L40.7033,50.30831 C40.88902,50.17689 41.35761,50.17689 41.54334,50.30831 L41.71732,50.55081 L41.54334,50.79331 C41.35761,50.92474 40.88902,50.92474 40.7033,50.79331 z" stroke="Black" stroke-width="0" fill="#555555" fill-opacity="1"/>
  <path d="M58.46422,40.19609 L58.6382,39.95359 C58.82393,39.82217 59.29251,39.82217 59.47824,39.95359 L59.65222,40.19609 L59.47824,40.43859 C59.29251,40.57001 58.82393,40.57001 58.6382,40.43859 z" stroke="Black" stroke-width="0" fill="#555555" fill-opacity="1"/>
  <path d="M76.95724,50.87304 L77.13122,50.63054 C77.31695,50.49912 77.78554,50.49912 77.97126,50.63054 L78.14524,50.87304 L77.97126,51.11554 C77.78554,51.24696 77.31695,51.24696 77.13122,51.11554 z" stroke="Black" stroke-width="0" fill="#555555" fill-opacity="1"/>
  <path d="M59.02234,61.22776 L59.19632,60.98526 C59.38204,60.85384 59.85063,60.85384 60.03636,60.98526 L60.21034,61.22776 L60.03636,61.47026 C59.85063,61.60168 59.38204,61.60168 59.19632,61.47026 z" stroke="Black" stroke-width="0" fill="#555555" fill-opacity="1"/>
  <path d="M65.79064,58.73003 L65.79064,49.1832 L56.40545,43.76466 L48.97771,48.05307 L48.97781,47.08296 L55.56541,43.27966 L48.13766,38.99125 L48.13766,48.53807 L41.71732,52.24486 L41.71734,51.27484 L47.29757,48.0531 L47.29762,38.50625 L46.42333,38.00148 L46.26957,37.66159 C46.24337,37.3784 46.53624,36.87113 46.79459,36.75222 L47.16584,36.71544 L57.05049,42.42228 L58.4642,41.60609 L58.6382,41.84862 C58.82393,41.98005 59.29251,41.98005 59.47824,41.84862 L59.65229,41.60612 L76.95724,51.5971 L76.95724,52.42504 L77.13122,52.66754 C77.31087,52.79317 77.75752,52.80156 77.95222,52.67829 L67.47073,58.73003 L67.47077,57.75998 L76.7112,52.42504 L59.05822,42.23309 L57.89046,42.9073 L67.87114,48.66965 C67.51255,48.89463 67.14421,49.53142 67.12788,49.95525 L66.63076,49.66829 L66.63068,59.21503 L60.21034,62.92181 L60.21044,61.9517 z" stroke="Black" stroke-width="0" fill="#555555" fill-opacity="1"/>
  <path d="M67.36872,50.60983 C67.20146,50.51694 67.11993,50.29483 67.12268,50.06599 C67.14416,49.53153 67.51251,48.89464 67.87114,48.66964 L68.24143,48.50502 L68.55672,48.55215 C68.5041,48.52855 68.27944,48.57088 68.08873,48.68374 C67.67537,48.874 67.20678,49.68562 67.24869,50.13874 C67.2465,50.35603 67.31888,50.56783 67.47073,50.66755" stroke="Black" stroke-width="0" fill="#555555" fill-opacity="1"/>
  <path d="M46.18437,38.3788 C46.02689,38.28134 45.95122,38.06561 45.9536,37.84401 C45.91169,37.3909 46.38028,36.57928 46.79364,36.38902 C46.98436,36.27615 47.20902,36.23382 47.37217,36.32147 C47.5549,36.42306 47.63643,36.64516 47.63368,36.87401 L47.16584,36.71544 L46.79459,36.75222 C46.53624,36.87113 46.24337,37.3784 46.26957,37.66159 L46.42333,38.00148 L46.88694,38.26915 C46.59682,38.44581 46.36372,38.48626 46.19964,38.38785 z" stroke="Black" stroke-width="0" fill="#777777" fill-opacity="1"/>
  <path d="M48.97771,48.05307 L56.40545,43.76466 L57.2455,44.24966 L41.71732,53.21486 L41.71732,65.19778 L41.59901,65.40317 C41.35761,65.5717 40.88902,65.5717 40.7033,65.44028 L40.52932,65.19778 L40.52942,50.55969 L40.7033,50.79331 C40.88902,50.92474 41.35761,50.92474 41.54334,50.79331 L41.71722,50.55969 L41.71732,52.24486 L48.13766,48.53807 L48.13766,38.99125 L48.97771,39.47625 z" stroke="Black" stroke-width="0" fill="#777777" fill-opacity="1"/>
  <path d="M59.05822,43.20309 L59.65222,43.54603 L59.65222,43.92445 L58.73062,43.39227 z" stroke="Black" stroke-width="0" fill="#777777" fill-opacity="1"/>
  <path d="M58.46422,41.60608 L58.46432,40.20497 L58.6382,40.43859 C58.82393,40.57001 59.29251,40.57001 59.47824,40.43859 L59.65212,40.20497 L59.65222,41.60608 L59.47824,41.84862 C59.29251,41.98005 58.82393,41.98005 58.6382,41.84862 z" stroke="Black" stroke-width="0" fill="#777777" fill-opacity="1"/>
  <path d="M59.65222,45.63918 L59.65222,54.84306 L59.53219,55.04977 C59.29251,55.21698 58.82393,55.21698 58.6382,55.08556 L58.46422,54.84306 L58.46422,44.95329 z" stroke="Black" stroke-width="0" fill="#777777" fill-opacity="1"/>
  <path d="M60.21034,63.89181 L60.21034,75.87473 L60.09375,76.07879 C59.85063,76.24866 59.38204,76.24866 59.19632,76.11723 L59.02234,75.87473 L59.02244,61.23664 L59.19632,61.47026 C59.38204,61.60168 59.85063,61.60168 60.03636,61.47026 L60.21024,61.23664 L60.21034,62.92181 L66.63068,59.21503 L66.63076,49.66829 L67.12788,49.95525 C67.11993,50.29483 67.20146,50.51694 67.36872,50.60983 L67.47073,58.73003 L77.95222,52.67829 C77.75752,52.80156 77.31087,52.79317 77.13122,52.66754 L76.95724,52.42504 L76.95734,50.88192 L77.13122,51.11554 C77.31695,51.24696 77.78554,51.24696 77.97126,51.11554 L78.14514,50.88192 L78.14524,65.52001 L78.02691,65.72542 C77.78554,65.89394 77.31695,65.89394 77.13122,65.76251 L76.95724,65.52001 L76.95724,54.22298 z" stroke="Black" stroke-width="0" fill="#777777" fill-opacity="1"/>
  <path d="M59.05822,43.20309 L58.73062,43.39227 L57.89046,42.9073 L59.05822,42.23309 z" stroke="Black" stroke-width="0" fill="#777777" fill-opacity="1"/>
  <path d="M75.87115,52.91004 L68.88119,48.87438 L68.68272,48.6249 L68.24143,48.50502 L59.05822,43.20309 L59.05822,42.23309 L76.7112,52.42504 z" stroke="Black" stroke-width="0" fill="#777777" fill-opacity="1"/>
  <path d="M67.47073,50.66755 C67.31888,50.56783 67.2465,50.35603 67.24869,50.13874 C67.20678,49.68562 67.67537,48.874 68.08873,48.68374 C68.27944,48.57088 68.5041,48.52855 68.66726,48.6162 L68.88119,48.87438 L68.92877,49.16874 C68.97067,49.62185 68.50208,50.43347 68.08873,50.62373 C67.89191,50.74054 67.6588,50.78098 67.49473,50.68258 z" stroke="Black" stroke-width="0" fill="#777777" fill-opacity="1"/>
  <path d="M67.96272,48.61099 C67.54936,48.80125 67.08077,49.61287 67.12268,50.06599 C67.11993,50.29483 67.20146,50.51694 67.36872,50.60983" stroke="#000000" stroke-width="0.24" fill="none"/>
  <path d="M68.55672,48.55215 C68.39265,48.45374 68.15954,48.49419 67.96272,48.61099" stroke="#000000" stroke-width="0.24" fill="none"/>
  <path d="M76.95724,65.52001 L77.13122,65.76251 C77.31695,65.89394 77.78554,65.89394 77.97126,65.76251 L78.14524,65.52001 L78.14524,50.87304 L77.97126,50.63054 C77.78554,50.49912 77.31695,50.49912 77.13122,50.63054 L76.95724,50.87304 L76.95724,51.5971 L59.65229,41.60608 L59.65222,40.19609 L59.47824,39.95359 C59.29251,39.82217 58.82393,39.82217 58.6382,39.95359 L58.46422,40.19609 L58.46422,41.60604 L57.05049,42.42228 L47.62868,36.98266 C47.63643,36.64516 47.5549,36.42306 47.38764,36.33017 C47.09756,36.15902 46.86445,36.19946 46.66763,36.31627 C46.25428,36.50653 45.78569,37.31815 45.82759,37.77126 C45.82485,38.00006 45.90636,38.22214 46.07359,38.31507 C46.36372,38.48626 46.59682,38.44581 46.79364,38.32901 L47.29762,38.50625 L47.29757,48.0531 L41.71734,51.27484 L41.71722,50.55969 L41.54334,50.30831 C41.35761,50.17689 40.88902,50.17689 40.7033,50.30831 L40.52932,50.55081 L40.52932,65.19778 L40.7033,65.44028 C40.88902,65.5717 41.35761,65.5717 41.54334,65.44028 L41.71732,65.19778 L41.71732,53.21486 L57.2455,44.24966 L58.46422,44.95329 L58.46422,54.84306 L58.6382,55.08556 C58.82393,55.21698 59.29251,55.21698 59.47824,55.08556 L59.65222,54.84306 L59.65222,45.63918 L65.79064,49.1832 L65.79064,58.73003 L60.21044,61.9517 L60.21024,61.23664 L60.03636,60.98526 C59.85063,60.85384 59.38204,60.85384 59.19632,60.98526 L59.02234,61.22776 L59.02234,75.87473 L59.19632,76.11723 C59.38204,76.24866 59.85063,76.24866 60.03636,76.11723 L60.21034,75.87473 L60.21034,63.89181 L76.95724,54.22298 z" stroke="#000000" stroke-width="0.24" fill="none"/>
  <path d="M55.56544,43.27969 L48.97783,47.08298 L48.97773,39.47627 z" stroke="#000000" stroke-width="0.24" fill="none"/>
  <path d="M59.65222,43.92445 L59.65222,43.54603 L68.24143,48.50502 L67.96272,48.61099 z" stroke="#000000" stroke-width="0.24" fill="none"/>
  <path d="M67.47077,57.75998 L67.47073,50.66872 C67.6588,50.78098 67.89191,50.74054 68.08873,50.62373 C68.50208,50.43347 68.97067,49.62185 68.92877,49.16874 L68.88119,48.87438 L75.87115,52.91004 z" stroke="#000000" stroke-width="0.24" fill="none"/>
  <path d="M59.65224,43.92448 L57.05051,42.42231" stroke="#000000" stroke-width="0.24" fill="none"/>
  <path d="M57.24552,44.24969 L55.56544,43.27969" stroke="#000000" stroke-width="0.24" fill="none"/>
  <path d="M48.13769,38.99128 L48.97773,39.47627" stroke="#000000" stroke-width="0.24" fill="none"/>
  <path d="M46.88696,38.26917 L46.42334,38.0015" stroke="#000000" stroke-width="0.24" fill="none"/>
  <path d="M47.16587,36.71547 L47.6287,36.98268" stroke="#000000" stroke-width="0.24" fill="none"/>
  <path d="M66.63078,49.66832 L67.1279,49.95528" stroke="#000000" stroke-width="0.24" fill="none"/>
  <path d="M67.49473,50.68258 C67.6588,50.78098 67.89191,50.74054 68.08873,50.62373 C68.50208,50.43347 68.97067,49.62185 68.92877,49.16874 C68.93151,48.93989 68.84999,48.71778 68.68272,48.6249" stroke="#000000" stroke-width="0.24" fill="none"/>
  <path d="M48.13769,38.99128 L47.29764,38.50628" stroke="#000000" stroke-width="0.24" fill="none"/>
  <path d="M65.79066,49.18322 L66.63078,49.66832" stroke="#000000" stroke-width="0.24" fill="none"/>
  <path d="M76.95724,65.52001 L77.13122,65.76251 C77.31695,65.89394 77.78554,65.89394 77.97126,65.76251 L78.14524,65.52001" stroke="#111111" stroke-width="0.24" fill="none"/>
  <path d="M60.03638,63.02228 L66.63069,59.21506" stroke="#111111" stroke-width="0.24" fill="none"/>
  <path d="M41.54337,52.34533 L48.1379,48.53798" stroke="#111111" stroke-width="0.24" fill="none"/>
  <path d="M41.54337,53.31533 L57.24563,44.24962" stroke="#111111" stroke-width="0.24" fill="none"/>
  <path d="M68.24146,48.50504 L59.05824,43.20311" stroke="#111111" stroke-width="0.24" fill="none"/>
  <path d="M59.47824,55.08556 L59.65222,54.84306" stroke="#111111" stroke-width="0.24" fill="none"/>
  <path d="M58.46422,54.84306 L58.6382,55.08556 C58.82393,55.21698 59.29251,55.21698 59.47824,55.08556" stroke="#111111" stroke-width="0.24" fill="none"/>
  <path d="M48.97773,48.0531 L48.97773,39.47627" stroke="#111111" stroke-width="0.24" fill="none"/>
  <path d="M68.08873,48.68374 C67.67537,48.874 67.20678,49.68562 67.24869,50.13874 C67.24594,50.36758 67.32747,50.58969 67.49473,50.68258" stroke="#111111" stroke-width="0.24" fill="none"/>
  <path d="M41.71732,50.55081 L41.71732,52.24486" stroke="#111111" stroke-width="0.24" fill="none"/>
  <path d="M40.52932,65.19778 L40.7033,65.44028 C40.88902,65.5717 41.35761,65.5717 41.54334,65.44028" stroke="#111111" stroke-width="0.24" fill="none"/>
  <path d="M66.63071,59.21505 L66.63071,49.66822" stroke="#111111" stroke-width="0.24" fill="none"/>
  <path d="M65.79064,49.1832 L48.13766,38.99125" stroke="#111111" stroke-width="0.24" fill="none"/>
  <path d="M47.29762,38.50625 L46.42334,38.00149" stroke="#111111" stroke-width="0.24" fill="none"/>
  <path d="M47.16584,36.71544 L67.87115,48.66965" stroke="#111111" stroke-width="0.24" fill="none"/>
  <path d="M60.21034,61.22776 L60.21034,62.92181" stroke="#111111" stroke-width="0.24" fill="none"/>
  <path d="M59.02234,75.87473 L59.19632,76.11723 C59.38204,76.24866 59.85063,76.24866 60.03636,76.11723 L60.21034,75.87473" stroke="#111111" stroke-width="0.24" fill="none"/>
  <path d="M57.89048,42.90732 L59.05824,42.23311" stroke="#111111" stroke-width="0.24" fill="none"/>
  <path d="M59.47824,41.84862 L59.65222,41.60612" stroke="#111111" stroke-width="0.24" fill="none"/>
  <path d="M58.46422,41.60612 L58.6382,41.84862 C58.82393,41.98005 59.29251,41.98005 59.47824,41.84862" stroke="#111111" stroke-width="0.24" fill="none"/>
  <path d="M76.95726,52.42506 L76.95726,50.87307" stroke="#111111" stroke-width="0.24" fill="none"/>
  <path d="M76.71122,52.42506 L67.47084,57.76" stroke="#111111" stroke-width="0.24" fill="none"/>
  <path d="M59.05824,42.23311 L59.05824,43.20311" stroke="#111111" stroke-width="0.24" fill="none"/>
  <path d="M68.68272,48.6249 C68.51865,48.52649 68.28555,48.56694 68.08873,48.68374" stroke="#111111" stroke-width="0.24" fill="none"/>
  <path d="M76.95724,52.42504 L77.13122,52.66754 C77.31695,52.79896 77.78554,52.79896 77.97126,52.66754" stroke="#111111" stroke-width="0.24" fill="none"/>
  <path d="M76.71122,52.42506 L59.05824,42.23311" stroke="#111111" stroke-width="0.24" fill="none"/>
  <path d="M67.47075,58.73005 L67.47075,50.66757" stroke="#111111" stroke-width="0.24" fill="none"/>
  <path d="M41.54334,65.44028 L41.71732,65.19778" stroke="#111111" stroke-width="0.24" fill="none"/>
  <path d="M58.73068,43.39223 L59.0585,43.20296" stroke="#111111" stroke-width="0.24" fill="none"/>
  <path d="M60.03638,63.99228 L77.97128,53.63756" stroke="#111111" stroke-width="0.24" fill="none"/>
  <path d="M77.13122,50.63054 L76.95724,50.87304" stroke="#111111" stroke-width="0.24" fill="none"/>
  <path d="M76.95724,65.52001 L76.95724,54.22298" stroke="#111111" stroke-width="0.24" fill="none"/>
  <path d="M78.14524,50.87304 L78.14524,65.52001" stroke="#111111" stroke-width="0.24" fill="none"/>
  <path d="M78.14524,50.87304 L77.97126,50.63054 C77.78554,50.49912 77.31695,50.49912 77.13122,50.63054 L77.13122,51.11554 C77.31695,51.24696 77.78554,51.24696 77.97126,51.11554 z" stroke="#111111" stroke-width="0.24" fill="none"/>
  <path d="M58.46422,54.84306 L58.46422,44.95322" stroke="#111111" stroke-width="0.24" fill="none"/>
  <path d="M59.65222,40.19609 L59.65222,41.60604" stroke="#111111" stroke-width="0.24" fill="none"/>
  <path d="M59.65222,40.19609 L59.47824,39.95359 C59.29251,39.82217 58.82393,39.82217 58.6382,39.95359 L58.46422,40.19609" stroke="#111111" stroke-width="0.24" fill="none"/>
  <path d="M59.47824,40.43859 L59.65222,40.19609" stroke="#111111" stroke-width="0.24" fill="none"/>
  <path d="M58.46422,40.19609 L58.6382,40.43859 C58.82393,40.57001 59.29251,40.57001 59.47824,40.43859" stroke="#111111" stroke-width="0.24" fill="none"/>
  <path d="M59.65239,41.60615 L76.95726,51.59712" stroke="#111111" stroke-width="0.24" fill="none"/>
  <path d="M59.65222,43.546 L59.65222,43.92445" stroke="#111111" stroke-width="0.24" fill="none"/>
  <path d="M58.46433,41.60601 L57.05054,42.42226" stroke="#111111" stroke-width="0.24" fill="none"/>
  <path d="M75.87118,52.91006 L68.88121,48.8744" stroke="#111111" stroke-width="0.24" fill="none"/>
  <path d="M58.46422,41.60604 L58.46422,40.19609" stroke="#111111" stroke-width="0.24" fill="none"/>
  <path d="M46.66763,36.31627 C46.86445,36.19946 47.09756,36.15902 47.26163,36.25742 C47.5549,36.42306 47.63643,36.64516 47.63368,36.87401" stroke="#111111" stroke-width="0.24" fill="none"/>
  <path d="M46.07354,38.31504 C45.90634,38.22213 45.82485,38.00006 45.82759,37.77126 C45.78569,37.31815 46.25428,36.50653 46.66763,36.31627 C46.99046,36.27221 47.22357,36.23177 47.38764,36.33017" stroke="#111111" stroke-width="0.24" fill="none"/>
  <path d="M46.19964,38.38785 C46.03238,38.29496 45.95086,38.07286 45.9536,37.84401 C45.91169,37.3909 46.38028,36.57928 46.79364,36.38902" stroke="#111111" stroke-width="0.24" fill="none"/>
  <path d="M47.29764,48.0531 L48.13769,48.5381" stroke="#111111" stroke-width="0.24" fill="none"/>
  <path d="M47.29754,48.05316 L41.71739,51.27486" stroke="#111111" stroke-width="0.24" fill="none"/>
  <path d="M48.97773,48.0531 L56.40569,43.76456" stroke="#111111" stroke-width="0.24" fill="none"/>
  <path d="M48.13769,48.5381 L48.13769,38.99107" stroke="#111111" stroke-width="0.24" fill="none"/>
  <path d="M40.52932,65.19778 L40.52932,50.55081" stroke="#111111" stroke-width="0.24" fill="none"/>
  <path d="M41.71732,50.55081 L41.54334,50.30831 C41.35761,50.17689 40.88902,50.17689 40.7033,50.30831 L40.52932,50.55081" stroke="#111111" stroke-width="0.24" fill="none"/>
  <path d="M41.54334,50.79331 L41.71732,50.55081" stroke="#111111" stroke-width="0.24" fill="none"/>
  <path d="M40.52932,50.55081 L40.7033,50.79331 C40.88902,50.92474 41.35761,50.92474 41.54334,50.79331" stroke="#111111" stroke-width="0.24" fill="none"/>
  <path d="M65.79066,58.73005 L66.63071,59.21505" stroke="#111111" stroke-width="0.24" fill="none"/>
  <path d="M46.79459,36.75222 L47.16584,36.71544" stroke="#111111" stroke-width="0.24" fill="none"/>
  <path d="M46.42332,38.00147 L46.26957,37.66159 C46.24337,37.3784 46.53624,36.87113 46.79459,36.75222" stroke="#111111" stroke-width="0.24" fill="none"/>
  <path d="M65.79066,49.18322 L65.79066,58.73005" stroke="#111111" stroke-width="0.24" fill="none"/>
  <path d="M59.19632,60.98526 L59.02234,61.22776" stroke="#111111" stroke-width="0.24" fill="none"/>
  <path d="M59.02234,75.87473 L59.02234,61.22776" stroke="#111111" stroke-width="0.24" fill="none"/>
  <path d="M60.21034,61.22776 L60.03636,60.98526 C59.85063,60.85384 59.38204,60.85384 59.19632,60.98526 L59.19632,61.47026 C59.38204,61.60168 59.85063,61.60168 60.03636,61.47026 z" stroke="#111111" stroke-width="0.24" fill="none"/>
  <path d="M59.65222,45.63918 L59.65222,54.84306" stroke="#111111" stroke-width="0.24" fill="none"/>
  <path d="M67.47075,58.73005 L77.97128,52.66756" stroke="#111111" stroke-width="0.24" fill="none"/>
  <path d="M55.56549,43.27966 L48.97793,47.08298" stroke="#111111" stroke-width="0.24" fill="none"/>
  <path d="M46.79364,38.32901 C46.59682,38.44581 46.36372,38.48626 46.19964,38.38785" stroke="#111111" stroke-width="0.24" fill="none"/>
  <path d="M47.29764,38.50628 L47.29764,48.0531" stroke="#111111" stroke-width="0.24" fill="none"/>
  <path d="M65.79086,58.72994 L60.21056,61.95173" stroke="#111111" stroke-width="0.24" fill="none"/>
  <path d="M41.71732,53.21486 L41.71732,65.19778" stroke="#111111" stroke-width="0.24" fill="none"/>
  <path d="M60.21034,63.89181 L60.21034,75.87473" stroke="#111111" stroke-width="0.24" fill="none"/>
  <path d="M67.12811,49.95539 L66.63084,49.66829" stroke="#111111" stroke-width="0.24" fill="none"/>
</svg>