<?xml version="1.0" encoding="utf-8" standalone="no"?><!DOCTYPE svg PUBLIC "-//W3C//DTD SVG 1.1//EN" "http://www.w3.org/Graphics/SVG/1.1/DTD/svg11.dtd"><svg xmlns="http://www.w3.org/2000/svg" version="1.1" width="120pt" height="120pt" viewBox="0 0 120 120" overflow="visible">
  <path d="M56.25378,62.17248 L54.60066,63.12691 L54.60066,62.54491 L56.25378,61.59048 z" stroke="Black" stroke-width="0" fill="#BBBBBB" fill-opacity="1"/>
  <path d="M57.43999,60.90562 L74.73473,50.9205 L74.73473,51.5025 L57.44178,61.48658 z" stroke="Black" stroke-width="0" fill="#BBBBBB" fill-opacity="1"/>
  <path d="M76.44177,50.51694 L75.92273,50.81661 L75.92273,50.26232 L76.44177,49.93494 z" stroke="Black" stroke-width="0" fill="#BBBBBB" fill-opacity="1"/>
  <path d="M54.60066,62.54491 L54.60066,63.12691 L37.7998,53.42693 L37.7998,52.84493 z" stroke="Black" stroke-width="0" fill="#CCCCCC" fill-opacity="1"/>
  <path d="M57.26781,60.6898 C57.08208,60.55838 56.61349,60.55838 56.42776,60.6898 L56.25378,60.9323 L56.25378,61.59048 L54.60066,62.54491 L37.7998,52.84493 L59.64091,40.23496 L76.44177,49.93494 L75.92093,50.23565 L75.74875,50.01982 C75.56303,49.8884 75.09443,49.8884 74.90871,50.01982 L74.73473,50.26232 L74.73473,50.9205 L57.43999,60.90562 z" stroke="Black" stroke-width="0" fill="#EEEEEE" fill-opacity="1"/>
  <path d="M39.50684,50.57756 L39.33287,50.82005 C39.14714,50.95148 38.67855,50.95148 38.49282,50.82005 L38.31894,50.58643 L38.49282,50.33506 C38.67855,50.20363 39.14714,50.20363 39.33287,50.33506 z" stroke="Black" stroke-width="0" fill="#555555" fill-opacity="1"/>
  <path d="M74.73473,50.26232 L74.90871,50.01982 C75.09443,49.8884 75.56303,49.8884 75.74875,50.01982 L75.92093,50.23565 L75.74875,50.50482 C75.56303,50.63625 75.09443,50.63625 74.90871,50.50482 z" stroke="Black" stroke-width="0" fill="#555555" fill-opacity="1"/>
  <path d="M57.98779,39.90758 L57.81381,40.15008 C57.62808,40.2815 57.15949,40.2815 56.97377,40.15008 L56.79988,39.91645 L56.97377,39.66508 C57.15949,39.53365 57.62808,39.53365 57.81381,39.66508 z" stroke="Black" stroke-width="0" fill="#555555" fill-opacity="1"/>
  <path d="M56.25378,62.17248 L56.25378,62.62635 L55.86072,62.39941 z" stroke="Black" stroke-width="0" fill="#555555" fill-opacity="1"/>
  <path d="M74.34167,51.72943 L74.73473,51.5025 L74.7347,51.9563 z" stroke="Black" stroke-width="0" fill="#555555" fill-opacity="1"/>
  <path d="M56.25378,60.9323 L56.42776,60.6898 C56.61349,60.55838 57.08208,60.55838 57.26781,60.6898 L57.43999,60.90562 L57.26781,61.1748 C57.08208,61.30622 56.61349,61.30622 56.42776,61.1748 z" stroke="Black" stroke-width="0" fill="#555555" fill-opacity="1"/>
  <path d="M56.25378,63.59635 L55.02068,62.88441 L55.86072,62.39941 L56.25378,62.62635 L56.25388,60.94117 L56.42776,61.1748 C56.61349,61.30622 57.08208,61.30622 57.26781,61.1748 L57.44168,60.94117 L57.44178,75.57927 L57.26781,75.82177 C57.08208,75.95319 56.61349,75.95319 56.42776,75.82177 L56.25378,75.57927 z" stroke="Black" stroke-width="0" fill="#777777" fill-opacity="1"/>
  <path d="M74.73473,52.92637 L73.50162,52.21444 L74.34167,51.72943 L74.7347,51.9563 L74.73483,50.2712 L74.90871,50.50482 C75.09443,50.63625 75.56303,50.63625 75.74875,50.50482 L75.92263,50.27119 L75.92273,64.90929 L75.74875,65.15179 C75.56303,65.28321 75.09443,65.28321 74.90871,65.15179 L74.73473,64.90929 z" stroke="Black" stroke-width="0" fill="#777777" fill-opacity="1"/>
  <path d="M56.97377,40.15008 C57.15949,40.2815 57.62808,40.2815 57.81381,40.15008 L57.98769,39.91645 L57.98779,41.18939 L56.79979,41.87529 L56.79988,39.91645 z" stroke="Black" stroke-width="0" fill="#777777" fill-opacity="1"/>
  <path d="M39.50684,51.85937 L38.31885,52.54525 L38.31894,50.58643 L38.49282,50.82005 C38.67855,50.95148 39.14714,50.95148 39.33287,50.82005 L39.50674,50.58643 z" stroke="Black" stroke-width="0" fill="#777777" fill-opacity="1"/>
  <path d="M39.50684,54.41249 L39.50684,65.22453 L39.33287,65.46703 C39.14714,65.59845 38.67855,65.59845 38.49282,65.46703 L38.31884,65.22453 L38.31884,53.7266 z" stroke="Black" stroke-width="0" fill="#777777" fill-opacity="1"/>
  <path d="M56.25378,60.9323 L56.25378,62.62635" stroke="#000000" stroke-width="0.24" fill="none"/>
  <path d="M74.90873,53.02684 L73.50143,52.21434" stroke="#000000" stroke-width="0.24" fill="none"/>
  <path d="M55.02065,62.88441 L56.42779,63.69682" stroke="#000000" stroke-width="0.24" fill="none"/>
  <path d="M37.79982,53.42696 L54.60068,63.12693" stroke="#000000" stroke-width="0.24" fill="none"/>
  <path d="M59.64094,40.23499 L37.79982,52.84496" stroke="#000000" stroke-width="0.24" fill="none"/>
  <path d="M39.50684,65.22453 L39.33287,65.46703 C39.14714,65.59845 38.67855,65.59845 38.49282,65.46703 L38.31884,65.22453" stroke="#000000" stroke-width="0.24" fill="none"/>
  <path d="M75.92273,64.90929 L75.74875,65.15179 C75.56303,65.28321 75.09443,65.28321 74.90871,65.15179" stroke="#000000" stroke-width="0.24" fill="none"/>
  <path d="M75.92273,64.90929 L75.92273,50.26232" stroke="#000000" stroke-width="0.24" fill="none"/>
  <path d="M74.90871,65.15179 L74.73473,64.90929" stroke="#000000" stroke-width="0.24" fill="none"/>
  <path d="M57.44178,75.57927 L57.26781,75.82177 C57.08208,75.95319 56.61349,75.95319 56.42776,75.82177 L56.25378,75.57927" stroke="#000000" stroke-width="0.24" fill="none"/>
  <path d="M57.44178,75.57927 L57.44178,60.9323" stroke="#000000" stroke-width="0.24" fill="none"/>
  <path d="M75.92275,50.81663 L76.4418,50.51696" stroke="#000000" stroke-width="0.24" fill="none"/>
  <path d="M38.31884,53.7266 L38.31884,65.22453" stroke="#000000" stroke-width="0.24" fill="none"/>
  <path d="M39.50684,51.85937 L39.50684,50.57756" stroke="#000000" stroke-width="0.24" fill="none"/>
  <path d="M74.73473,52.92637 L74.73473,64.90929" stroke="#000000" stroke-width="0.24" fill="none"/>
  <path d="M57.98779,41.18939 L57.98779,39.90758" stroke="#000000" stroke-width="0.24" fill="none"/>
  <path d="M56.25378,63.59635 L56.25378,75.57927" stroke="#000000" stroke-width="0.24" fill="none"/>
  <path d="M37.79982,53.42696 L37.79982,52.84496" stroke="#000000" stroke-width="0.24" fill="none"/>
  <path d="M76.4418,50.51696 L76.4418,49.93496 L59.64094,40.23499" stroke="#000000" stroke-width="0.24" fill="none"/>
  <path d="M38.31884,50.57756 L38.49282,50.33506 C38.67855,50.20363 39.14714,50.20363 39.33287,50.33506" stroke="#000000" stroke-width="0.24" fill="none"/>
  <path d="M57.26781,60.6898 L57.44178,60.9323" stroke="#000000" stroke-width="0.24" fill="none"/>
  <path d="M38.31884,50.57756 L38.31884,52.54523" stroke="#000000" stroke-width="0.24" fill="none"/>
  <path d="M39.50684,65.22453 L39.50684,54.41249" stroke="#000000" stroke-width="0.24" fill="none"/>
  <path d="M39.33287,50.33506 L39.50684,50.57756" stroke="#000000" stroke-width="0.24" fill="none"/>
  <path d="M74.73473,50.26232 L74.73473,51.95625" stroke="#000000" stroke-width="0.24" fill="none"/>
  <path d="M56.79979,39.90758 L56.97377,39.66508 C57.15949,39.53365 57.62808,39.53365 57.81381,39.66508 L57.98779,39.90758" stroke="#000000" stroke-width="0.24" fill="none"/>
  <path d="M74.73473,50.26232 L74.90871,50.01982 C75.09443,49.8884 75.56303,49.8884 75.74875,50.01982 L75.92273,50.26232" stroke="#000000" stroke-width="0.24" fill="none"/>
  <path d="M56.79979,39.90758 L56.79979,41.87529" stroke="#000000" stroke-width="0.24" fill="none"/>
  <path d="M56.25378,60.9323 L56.42776,60.6898 C56.61349,60.55838 57.08208,60.55838 57.26781,60.6898" stroke="#000000" stroke-width="0.24" fill="none"/>
  <path d="M54.60068,63.12693 L56.25381,62.1725" stroke="#000000" stroke-width="0.24" fill="none"/>
  <path d="M57.44181,61.48661 L74.73475,51.50253" stroke="#000000" stroke-width="0.24" fill="none"/>
  <path d="M74.90871,50.50482 L74.73473,50.26232" stroke="#111111" stroke-width="0.24" fill="none"/>
  <path d="M57.98779,39.90758 L57.81381,40.15008 C57.62808,40.2815 57.15949,40.2815 56.97377,40.15008 L56.79979,39.90758" stroke="#111111" stroke-width="0.24" fill="none"/>
  <path d="M39.50684,50.57756 L39.33287,50.82005 C39.14714,50.95148 38.67855,50.95148 38.49282,50.82005 L38.31884,50.57756" stroke="#111111" stroke-width="0.24" fill="none"/>
  <path d="M74.90873,52.05684 L74.34164,51.72943" stroke="#111111" stroke-width="0.24" fill="none"/>
  <path d="M55.8606,62.39935 L56.42779,62.72682" stroke="#111111" stroke-width="0.24" fill="none"/>
  <path d="M75.92273,50.26232 L75.74875,50.50482 C75.56303,50.63625 75.09443,50.63625 74.90871,50.50482" stroke="#111111" stroke-width="0.24" fill="none"/>
  <path d="M57.44178,60.9323 L57.26781,61.1748 C57.08208,61.30622 56.61349,61.30622 56.42776,61.1748 L56.25378,60.9323" stroke="#111111" stroke-width="0.24" fill="none"/>
  <path d="M57.44001,60.90565 L74.73476,50.92052" stroke="#111111" stroke-width="0.24" fill="none"/>
  <path d="M75.92095,50.23567 L76.4418,49.93496" stroke="#111111" stroke-width="0.24" fill="none"/>
  <path d="M37.79982,52.84496 L54.60068,62.54494 L56.25381,61.5905" stroke="#111111" stroke-width="0.24" fill="none"/>
  <path d="M54.60068,63.12693 L54.60068,62.54494" stroke="#111111" stroke-width="0.24" fill="none"/>
</svg>