<?xml version="1.0" encoding="utf-8" standalone="no"?><!DOCTYPE svg PUBLIC "-//W3C//DTD SVG 1.1//EN" "http://www.w3.org/Graphics/SVG/1.1/DTD/svg11.dtd"><svg xmlns="http://www.w3.org/2000/svg" version="1.1" width="120pt" height="120pt" viewBox="0 0 120 120" overflow="visible">
  <path d="M56.27885,73.54218 L54.62575,74.4966 L54.62575,73.9146 L56.27885,72.96017 z" stroke="Black" stroke-width="0" fill="#BBBBBB" fill-opacity="1"/>
  <path d="M74.75975,62.87225 L57.46685,72.85629 L57.46685,72.27428 L74.7597,62.2903 z" stroke="Black" stroke-width="0" fill="#BBBBBB" fill-opacity="1"/>
  <path d="M76.46687,61.88662 L75.94779,62.18631 L75.94779,61.60431 L76.46687,61.30462 z" stroke="Black" stroke-width="0" fill="#BBBBBB" fill-opacity="1"/>
  <path d="M75.94779,47.39384 L75.94769,46.8484 L76.46687,46.51215 L76.46687,47.09415 z" stroke="Black" stroke-width="0" fill="#BBBBBB" fill-opacity="1"/>
  <path d="M56.27885,58.74971 L54.62575,59.70413 L54.62575,59.12213 L56.27885,58.16771 z" stroke="Black" stroke-width="0" fill="#BBBBBB" fill-opacity="1"/>
  <path d="M57.46505,57.48285 L74.75979,47.49773 L74.75979,48.07973 L57.46685,58.06382 z" stroke="Black" stroke-width="0" fill="#BBBBBB" fill-opacity="1"/>
  <path d="M54.62575,74.4966 L37.82489,64.79662 L37.82489,64.21461 L54.62575,73.9146 z" stroke="Black" stroke-width="0" fill="#CCCCCC" fill-opacity="1"/>
  <path d="M54.62575,59.70413 L37.82489,50.00415 L37.82489,49.42215 L54.62575,59.12213 z" stroke="Black" stroke-width="0" fill="#CCCCCC" fill-opacity="1"/>
  <path d="M75.94779,61.60431 L75.94779,61.00494 L76.46687,61.30462 z" stroke="Black" stroke-width="0" fill="#EEEEEE" fill-opacity="1"/>
  <path d="M57.29287,57.267 C57.10714,57.13557 56.63855,57.13557 56.45283,57.267 L56.27885,57.5095 L56.27885,58.16771 L54.62575,59.12213 L37.82489,49.42215 L59.666,36.81218 L76.46687,46.51215 L75.946,46.81288 L75.77381,46.59702 C75.58809,46.4656 75.1195,46.4656 74.93377,46.59702 L74.75979,46.83952 L74.75979,47.49773 L57.46505,57.48285 z" stroke="Black" stroke-width="0" fill="#EEEEEE" fill-opacity="1"/>
  <path d="M64.16023,54.19939 L74.75969,60.31892 L74.7597,62.2903 L57.46685,72.27428 L57.46685,58.06382 z" stroke="Black" stroke-width="0" fill="#EEEEEE" fill-opacity="1"/>
  <path d="M56.27885,60.17355 L56.27885,72.96017 L54.62575,73.9146 L37.82489,64.21461 L50.13152,57.10938 L54.62575,59.70413 L55.04577,59.46163 z" stroke="Black" stroke-width="0" fill="#EEEEEE" fill-opacity="1"/>
  <path d="M58.01289,36.4848 L57.83891,36.7273 C57.65319,36.85872 57.18459,36.85872 56.99887,36.7273 L56.82499,36.49368 L56.99887,36.2423 C57.18459,36.11088 57.65319,36.11088 57.83891,36.2423 z" stroke="Black" stroke-width="0" fill="#555555" fill-opacity="1"/>
  <path d="M38.34395,47.15478 L38.51793,46.91228 C38.70365,46.78085 39.17225,46.78085 39.35797,46.91228 L39.53195,47.15478 L39.35797,47.39728 C39.17225,47.5287 38.70365,47.5287 38.51793,47.39728 z" stroke="Black" stroke-width="0" fill="#555555" fill-opacity="1"/>
  <path d="M56.27885,73.99602 L55.88581,73.7691 L56.27885,73.54218 z" stroke="Black" stroke-width="0" fill="#555555" fill-opacity="1"/>
  <path d="M74.75979,48.53357 L74.36675,48.30665 L74.75979,48.07973 z" stroke="Black" stroke-width="0" fill="#555555" fill-opacity="1"/>
  <path d="M75.94779,46.83952 L75.77381,47.08202 C75.58809,47.21344 75.1195,47.21344 74.93377,47.08202 L74.75979,46.83952 L74.93377,46.59702 C75.1195,46.4656 75.58809,46.4656 75.77381,46.59702 z" stroke="Black" stroke-width="0" fill="#555555" fill-opacity="1"/>
  <path d="M57.46685,57.5095 L57.29287,57.752 C57.10714,57.88342 56.63855,57.88342 56.45283,57.752 L56.27885,57.5095 L56.45283,57.267 C56.63855,57.13557 57.10714,57.13557 57.29287,57.267 z" stroke="Black" stroke-width="0" fill="#555555" fill-opacity="1"/>
  <path d="M55.88581,58.97663 L56.27885,58.74971 L56.27885,59.20355 z" stroke="Black" stroke-width="0" fill="#555555" fill-opacity="1"/>
  <path d="M74.75979,63.32602 L74.36675,63.09912 L74.75975,62.87225 z" stroke="Black" stroke-width="0" fill="#555555" fill-opacity="1"/>
  <path d="M56.99884,38.35206 L56.82489,38.45249 L56.82499,36.49368 L56.99887,36.7273 C57.18459,36.85872 57.65319,36.85872 57.83891,36.7273 L58.01279,36.49368 L58.01289,37.7666 z" stroke="Black" stroke-width="0" fill="#777777" fill-opacity="1"/>
  <path d="M38.34395,67.62173 L38.34395,65.09629 L39.53195,65.78219 L39.53195,67.62173 L39.35797,67.86423 C39.17225,67.99566 38.70365,67.99566 38.51793,67.86423 z" stroke="Black" stroke-width="0" fill="#777777" fill-opacity="1"/>
  <path d="M38.34405,47.16365 L38.51793,47.39728 C38.70365,47.5287 39.17225,47.5287 39.35797,47.39728 L39.53185,47.16365 L39.53195,48.43658 L38.34395,49.12247 z" stroke="Black" stroke-width="0" fill="#777777" fill-opacity="1"/>
  <path d="M39.53195,63.22905 L38.34395,63.91494 L38.34395,50.30383 L39.53195,50.98972 z" stroke="Black" stroke-width="0" fill="#777777" fill-opacity="1"/>
  <path d="M56.27885,60.17355 L55.04577,59.46163 L55.88581,58.97663 L56.27885,59.20355 L56.27895,57.51838 L56.45283,57.752 C56.63855,57.88342 57.10714,57.88342 57.29287,57.752 L57.46675,57.51838 L57.46685,77.97646 L57.29287,78.21896 C57.10714,78.35038 56.63855,78.35038 56.45283,78.21896 L56.27885,77.97646 L56.27885,74.96601 L55.04577,74.2541 L55.88581,73.7691 L56.27885,73.99602 z" stroke="Black" stroke-width="0" fill="#777777" fill-opacity="1"/>
  <path d="M74.75979,64.29604 L73.52671,63.58412 L74.36675,63.09912 L74.75979,63.32602 L74.75979,49.50357 L73.52671,48.79165 L74.36675,48.30665 L74.75979,48.53357 L74.7599,46.8484 L74.93377,47.08202 C75.1195,47.21344 75.58809,47.21344 75.77381,47.08202 L75.94769,46.8484 L75.94779,67.30648 L75.77381,67.54898 C75.58809,67.6804 75.1195,67.6804 74.93377,67.54898 L74.75979,67.30648 z" stroke="Black" stroke-width="0" fill="#777777" fill-opacity="1"/>
  <path d="M39.53195,67.62173 L39.53195,65.78211" stroke="#000000" stroke-width="0.24" fill="none"/>
  <path d="M38.34395,47.15478 L38.34395,49.12247" stroke="#000000" stroke-width="0.24" fill="none"/>
  <path d="M38.34395,47.15478 L38.51793,46.91228 C38.70365,46.78085 39.17225,46.78085 39.35797,46.91228" stroke="#000000" stroke-width="0.24" fill="none"/>
  <path d="M75.94779,67.30648 L75.77381,67.54898 C75.58809,67.6804 75.1195,67.6804 74.93377,67.54898" stroke="#000000" stroke-width="0.24" fill="none"/>
  <path d="M75.94773,47.39391 L76.46689,47.09418" stroke="#000000" stroke-width="0.24" fill="none"/>
  <path d="M38.34395,50.30383 L38.34395,63.91494" stroke="#000000" stroke-width="0.24" fill="none"/>
  <path d="M56.82489,36.4848 L56.82489,38.45249" stroke="#000000" stroke-width="0.24" fill="none"/>
  <path d="M76.46689,61.30465 L75.9478,61.00496" stroke="#000000" stroke-width="0.24" fill="none"/>
  <path d="M76.46689,61.88665 L76.46689,61.30465" stroke="#000000" stroke-width="0.24" fill="none"/>
  <path d="M37.82491,64.79664 L37.82491,64.21464" stroke="#000000" stroke-width="0.24" fill="none"/>
  <path d="M39.53195,63.22905 L39.53195,50.98951" stroke="#000000" stroke-width="0.24" fill="none"/>
  <path d="M38.34395,65.09629 L38.34395,67.62173" stroke="#000000" stroke-width="0.24" fill="none"/>
  <path d="M74.75979,64.29604 L74.75979,67.30648" stroke="#000000" stroke-width="0.24" fill="none"/>
  <path d="M56.27885,74.96601 L56.27885,77.97646" stroke="#000000" stroke-width="0.24" fill="none"/>
  <path d="M74.75961,60.31895 L64.16022,54.19939" stroke="#000000" stroke-width="0.24" fill="none"/>
  <path d="M58.01289,37.7666 L58.01289,36.4848" stroke="#000000" stroke-width="0.24" fill="none"/>
  <path d="M75.94781,62.18633 L76.46689,61.88665" stroke="#000000" stroke-width="0.24" fill="none"/>
  <path d="M57.46687,58.06384 L74.75982,48.07975" stroke="#000000" stroke-width="0.24" fill="none"/>
  <path d="M74.93382,49.60405 L73.52653,48.79155" stroke="#000000" stroke-width="0.24" fill="none"/>
  <path d="M57.29287,57.267 L57.46685,57.5095" stroke="#000000" stroke-width="0.24" fill="none"/>
  <path d="M57.46685,77.97646 L57.46685,57.5095" stroke="#000000" stroke-width="0.24" fill="none"/>
  <path d="M56.27885,57.5095 L56.27885,59.20355" stroke="#000000" stroke-width="0.24" fill="none"/>
  <path d="M56.27885,60.17355 L56.27885,73.99602" stroke="#000000" stroke-width="0.24" fill="none"/>
  <path d="M75.94779,67.30648 L75.94779,46.83952" stroke="#000000" stroke-width="0.24" fill="none"/>
  <path d="M74.75979,46.83952 L74.75979,48.53357" stroke="#000000" stroke-width="0.24" fill="none"/>
  <path d="M74.75979,49.50357 L74.75979,63.32601" stroke="#000000" stroke-width="0.24" fill="none"/>
  <path d="M74.75979,46.83952 L74.93377,46.59702 C75.1195,46.4656 75.58809,46.4656 75.77381,46.59702 L75.94779,46.83952" stroke="#000000" stroke-width="0.24" fill="none"/>
  <path d="M56.45288,75.0665 L55.04559,74.254" stroke="#000000" stroke-width="0.24" fill="none"/>
  <path d="M56.45288,60.27403 L55.04573,59.46161" stroke="#000000" stroke-width="0.24" fill="none"/>
  <path d="M50.13154,57.10941 L37.82491,64.21464" stroke="#000000" stroke-width="0.24" fill="none"/>
  <path d="M37.82491,64.79664 L54.62577,74.49662 L56.27887,73.5422" stroke="#000000" stroke-width="0.24" fill="none"/>
  <path d="M74.93382,64.39652 L73.52648,63.584" stroke="#000000" stroke-width="0.24" fill="none"/>
  <path d="M59.66603,36.8122 L37.82491,49.42217" stroke="#000000" stroke-width="0.24" fill="none"/>
  <path d="M57.46687,72.85631 L74.75974,62.87227" stroke="#000000" stroke-width="0.24" fill="none"/>
  <path d="M54.62577,59.70415 L56.27887,58.74973" stroke="#000000" stroke-width="0.24" fill="none"/>
  <path d="M37.82491,50.00417 L54.62577,59.70415" stroke="#000000" stroke-width="0.24" fill="none"/>
  <path d="M76.46689,46.51218 L59.66603,36.8122" stroke="#000000" stroke-width="0.24" fill="none"/>
  <path d="M76.46689,47.09418 L76.46689,46.51218" stroke="#000000" stroke-width="0.24" fill="none"/>
  <path d="M37.82491,50.00417 L37.82491,49.42217" stroke="#000000" stroke-width="0.24" fill="none"/>
  <path d="M56.82489,36.4848 L56.99887,36.2423 C57.18459,36.11088 57.65319,36.11088 57.83891,36.2423 L58.01289,36.4848" stroke="#000000" stroke-width="0.24" fill="none"/>
  <path d="M57.46685,77.97646 L57.29287,78.21896 C57.10714,78.35038 56.63855,78.35038 56.45283,78.21896 L56.27885,77.97646" stroke="#000000" stroke-width="0.24" fill="none"/>
  <path d="M56.27885,57.5095 L56.45283,57.267 C56.63855,57.13557 57.10714,57.13557 57.29287,57.267" stroke="#000000" stroke-width="0.24" fill="none"/>
  <path d="M39.53195,48.43658 L39.53195,47.15478 L39.53195,47.15478" stroke="#000000" stroke-width="0.24" fill="none"/>
  <path d="M74.93377,67.54898 L74.75979,67.30648" stroke="#000000" stroke-width="0.24" fill="none"/>
  <path d="M39.53195,67.62173 L39.35797,67.86423 C39.17225,67.99566 38.70365,67.99566 38.51793,67.86423 L38.34395,67.62173" stroke="#000000" stroke-width="0.24" fill="none"/>
  <path d="M57.46685,57.5095 L57.29287,57.752 C57.10714,57.88342 56.63855,57.88342 56.45283,57.752 L56.27885,57.5095" stroke="#111111" stroke-width="0.24" fill="none"/>
  <path d="M39.53195,47.15478 L39.35797,47.39728 C39.17225,47.5287 38.70365,47.5287 38.51793,47.39728 L38.34395,47.15478" stroke="#111111" stroke-width="0.24" fill="none"/>
  <path d="M75.94602,46.8129 L76.46689,46.51218" stroke="#111111" stroke-width="0.24" fill="none"/>
  <path d="M56.99887,36.7273 L56.82489,36.4848" stroke="#111111" stroke-width="0.24" fill="none"/>
  <path d="M54.62577,74.49662 L54.62577,73.91462" stroke="#111111" stroke-width="0.24" fill="none"/>
  <path d="M75.94775,61.60437 L76.46689,61.30465" stroke="#111111" stroke-width="0.24" fill="none"/>
  <path d="M57.46687,72.27431 L74.75964,62.29032" stroke="#111111" stroke-width="0.24" fill="none"/>
  <path d="M54.62577,59.70415 L54.62577,59.12215" stroke="#111111" stroke-width="0.24" fill="none"/>
  <path d="M37.82491,49.42217 L54.62577,59.12215 L56.27887,58.16773" stroke="#111111" stroke-width="0.24" fill="none"/>
  <path d="M57.46508,57.48288 L74.75982,47.49776" stroke="#111111" stroke-width="0.24" fill="none"/>
  <path d="M74.93382,48.63406 L74.36673,48.30664" stroke="#111111" stroke-width="0.24" fill="none"/>
  <path d="M56.45288,74.0965 L55.88579,73.76909" stroke="#111111" stroke-width="0.24" fill="none"/>
  <path d="M56.45288,59.30404 L55.88567,58.97656" stroke="#111111" stroke-width="0.24" fill="none"/>
  <path d="M37.82491,64.21464 L54.62577,73.91462" stroke="#111111" stroke-width="0.24" fill="none"/>
  <path d="M74.93382,63.42653 L74.36668,63.09909" stroke="#111111" stroke-width="0.24" fill="none"/>
  <path d="M54.62577,73.91462 L56.27887,72.96021" stroke="#111111" stroke-width="0.24" fill="none"/>
  <path d="M58.01289,36.4848 L57.83891,36.7273 C57.65319,36.85872 57.18459,36.85872 56.99887,36.7273" stroke="#111111" stroke-width="0.24" fill="none"/>
  <path d="M75.94779,46.83952 L75.77381,47.08202 C75.58809,47.21344 75.1195,47.21344 74.93377,47.08202 L74.75979,46.83952" stroke="#111111" stroke-width="0.24" fill="none"/>
</svg>