<?xml version="1.0" encoding="utf-8" standalone="no"?><!DOCTYPE svg PUBLIC "-//W3C//DTD SVG 1.1//EN" "http://www.w3.org/Graphics/SVG/1.1/DTD/svg11.dtd"><svg xmlns="http://www.w3.org/2000/svg" version="1.1" width="120pt" height="120pt" viewBox="0 0 120 120" overflow="visible">
  <path d="M57.44168,60.94117 L57.26781,61.1748 C57.08208,61.30622 56.61349,61.30622 56.42776,61.1748 L56.25378,60.9323 L56.42776,60.6898 C56.61349,60.55838 57.08208,60.55838 57.26781,60.6898 z" stroke="Black" stroke-width="0" fill="#555555" fill-opacity="1"/>
  <path d="M39.50684,50.57756 L39.33287,50.82005 C39.14714,50.95148 38.67855,50.95148 38.49282,50.82005 L38.31894,50.58643 L38.49282,50.33506 C38.67855,50.20363 39.14714,50.20363 39.33287,50.33506 z" stroke="Black" stroke-width="0" fill="#555555" fill-opacity="1"/>
  <path d="M74.73473,50.26232 L74.90871,50.01982 C75.09443,49.8884 75.56303,49.8884 75.74875,50.01982 L75.92273,50.26232 L75.74875,50.50482 C75.56303,50.63625 75.09443,50.63625 74.90871,50.50482 z" stroke="Black" stroke-width="0" fill="#555555" fill-opacity="1"/>
  <path d="M57.98779,39.90758 L57.81381,40.15008 C57.62808,40.2815 57.15949,40.2815 56.97377,40.15008 L56.79988,39.91645 L56.97377,39.66508 C57.15949,39.53365 57.62808,39.53365 57.81381,39.66508 z" stroke="Black" stroke-width="0" fill="#555555" fill-opacity="1"/>
  <path d="M74.73473,51.95637 L57.81384,42.18709 L40.17294,52.37207 L56.25378,61.65635 L56.25373,62.62619 L38.51188,52.38282 C38.70659,52.50609 39.15322,52.4977 39.33287,52.37207 L39.50684,52.12957 L39.50684,51.78664 L57.11539,41.62034 C57.3348,41.69561 57.66429,41.65747 57.81381,41.55989 L57.98779,41.31752 L74.73469,50.98632 z" stroke="Black" stroke-width="0" fill="#555555" fill-opacity="1"/>
  <path d="M57.98779,41.31752 L57.81381,41.55989 C57.66429,41.65747 57.3348,41.69561 57.11539,41.62034 L56.79979,41.80255 L56.79988,39.91645 L56.97377,40.15008 C57.15949,40.2815 57.62808,40.2815 57.81381,40.15008 L57.98769,39.91645 z" stroke="Black" stroke-width="0" fill="#777777" fill-opacity="1"/>
  <path d="M57.98779,43.25752 L57.98779,54.55455 L57.81381,54.79705 C57.62808,54.92847 57.15949,54.92847 56.97377,54.79705 L56.79979,54.55455 L56.79979,43.74255 L41.01298,52.85707 L40.17294,52.37207 L57.81384,42.18709 L74.73473,51.95637 L74.73483,50.2712 L74.90871,50.50482 C75.09443,50.63625 75.56303,50.63625 75.74875,50.50482 L75.92263,50.27119 L75.92273,64.90929 L75.74875,65.15179 C75.56303,65.28321 75.09443,65.28321 74.90871,65.15179 L74.73473,64.90929 L74.73473,52.92637 z" stroke="Black" stroke-width="0" fill="#777777" fill-opacity="1"/>
  <path d="M38.51188,52.38282 L56.25373,62.62619 L56.25388,60.94117 L56.42776,61.1748 C56.61349,61.30622 57.08208,61.30622 57.26781,61.1748 L57.44168,60.94117 L57.44178,75.57927 L57.26781,75.82177 C57.08208,75.95319 56.61349,75.95319 56.42776,75.82177 L56.25378,75.57927 L56.25378,63.59635 L39.50684,53.92749 L39.50684,65.22453 L39.33287,65.46703 C39.14714,65.59845 38.67855,65.59845 38.49282,65.46703 L38.31884,65.22453 L38.31894,50.58643 L38.49282,50.82005 C38.67855,50.95148 39.14714,50.95148 39.33287,50.82005 L39.50674,50.58643 L39.50684,52.12957 L39.33287,52.37207 C39.15322,52.4977 38.70659,52.50609 38.51188,52.38282 z" stroke="Black" stroke-width="0" fill="#777777" fill-opacity="1"/>
  <path d="M56.25378,60.9323 L56.25378,62.62609" stroke="#000000" stroke-width="0.24" fill="none"/>
  <path d="M75.92273,64.90929 L75.92273,50.26232" stroke="#000000" stroke-width="0.24" fill="none"/>
  <path d="M57.44178,75.57927 L57.26781,75.82177 C57.08208,75.95319 56.61349,75.95319 56.42776,75.82177 L56.25378,75.57927" stroke="#000000" stroke-width="0.24" fill="none"/>
  <path d="M39.50684,65.22453 L39.50684,53.92749" stroke="#000000" stroke-width="0.24" fill="none"/>
  <path d="M39.50684,65.22453 L39.33287,65.46703 C39.14714,65.59845 38.67855,65.59845 38.49282,65.46703 L38.31884,65.22453" stroke="#000000" stroke-width="0.24" fill="none"/>
  <path d="M56.79979,39.90758 L56.97377,39.66508 C57.15949,39.53365 57.62808,39.53365 57.81381,39.66508 L57.98779,39.90758" stroke="#000000" stroke-width="0.24" fill="none"/>
  <path d="M38.31884,50.57756 L38.31884,65.22453" stroke="#000000" stroke-width="0.24" fill="none"/>
  <path d="M38.49287,53.34209 L56.42779,63.69682" stroke="#000000" stroke-width="0.24" fill="none"/>
  <path d="M38.31884,50.57756 L38.49282,50.33506 C38.67855,50.20363 39.14714,50.20363 39.33287,50.33506" stroke="#000000" stroke-width="0.24" fill="none"/>
  <path d="M56.2538,61.65637 L40.17296,52.37209" stroke="#000000" stroke-width="0.24" fill="none"/>
  <path d="M56.25378,63.59635 L56.25378,75.57927" stroke="#000000" stroke-width="0.24" fill="none"/>
  <path d="M39.50687,52.12959 L39.50687,50.57758" stroke="#000000" stroke-width="0.24" fill="none"/>
  <path d="M39.50687,51.78666 L57.11541,41.62036" stroke="#000000" stroke-width="0.24" fill="none"/>
  <path d="M56.79979,43.74255 L56.79979,54.55455" stroke="#000000" stroke-width="0.24" fill="none"/>
  <path d="M74.73473,52.92633 L74.73473,64.90929" stroke="#000000" stroke-width="0.24" fill="none"/>
  <path d="M57.98779,41.31752 L57.98779,39.90758" stroke="#000000" stroke-width="0.24" fill="none"/>
  <path d="M57.98779,54.55455 L57.98779,43.25752" stroke="#000000" stroke-width="0.24" fill="none"/>
  <path d="M57.26781,60.6898 L57.44178,60.9323" stroke="#000000" stroke-width="0.24" fill="none"/>
  <path d="M57.98758,41.31741 L74.73466,50.98635" stroke="#000000" stroke-width="0.24" fill="none"/>
  <path d="M57.44178,75.57927 L57.44178,60.9323" stroke="#000000" stroke-width="0.24" fill="none"/>
  <path d="M57.81386,43.15711 L41.013,52.85709" stroke="#000000" stroke-width="0.24" fill="none"/>
  <path d="M74.90871,65.15179 L74.73473,64.90929" stroke="#000000" stroke-width="0.24" fill="none"/>
  <path d="M74.73473,50.26232 L74.90871,50.01982 C75.09443,49.8884 75.56303,49.8884 75.74875,50.01982 L75.92273,50.26232" stroke="#000000" stroke-width="0.24" fill="none"/>
  <path d="M56.79979,39.90758 L56.79979,41.80255" stroke="#000000" stroke-width="0.24" fill="none"/>
  <path d="M74.90873,53.02684 L57.81364,43.15698" stroke="#000000" stroke-width="0.24" fill="none"/>
  <path d="M56.25378,60.9323 L56.42776,60.6898 C56.61349,60.55838 57.08208,60.55838 57.26781,60.6898" stroke="#000000" stroke-width="0.24" fill="none"/>
  <path d="M75.92273,64.90929 L75.74875,65.15179 C75.56303,65.28321 75.09443,65.28321 74.90871,65.15179" stroke="#000000" stroke-width="0.24" fill="none"/>
  <path d="M57.44178,60.9323 L57.26781,61.1748 C57.08208,61.30622 56.61349,61.30622 56.42776,61.1748 L56.25378,60.9323" stroke="#000000" stroke-width="0.24" fill="none"/>
  <path d="M56.97377,54.79705 L56.79979,54.55455" stroke="#000000" stroke-width="0.24" fill="none"/>
  <path d="M57.98779,54.55455 L57.81381,54.79705 C57.62808,54.92847 57.15949,54.92847 56.97377,54.79705" stroke="#000000" stroke-width="0.24" fill="none"/>
  <path d="M39.33287,50.33506 L39.50684,50.57756" stroke="#000000" stroke-width="0.24" fill="none"/>
  <path d="M74.73473,50.26232 L74.73473,51.95637" stroke="#111111" stroke-width="0.24" fill="none"/>
  <path d="M57.81386,42.18711 L57.81386,43.15711" stroke="#111111" stroke-width="0.24" fill="none"/>
  <path d="M74.90871,50.50482 L74.73473,50.26232" stroke="#111111" stroke-width="0.24" fill="none"/>
  <path d="M38.49287,52.37209 L56.42779,62.72682" stroke="#111111" stroke-width="0.24" fill="none"/>
  <path d="M56.97377,40.15008 L56.79979,39.90758" stroke="#111111" stroke-width="0.24" fill="none"/>
  <path d="M74.90873,52.05684 L57.81382,42.18709" stroke="#111111" stroke-width="0.24" fill="none"/>
  <path d="M75.92273,50.26232 L75.74875,50.50482 C75.56303,50.63625 75.09443,50.63625 74.90871,50.50482" stroke="#111111" stroke-width="0.24" fill="none"/>
  <path d="M39.50684,52.12957 L39.33287,52.37207 C39.14714,52.50348 38.67858,52.50349 38.49284,52.37208" stroke="#111111" stroke-width="0.24" fill="none"/>
  <path d="M57.98779,41.31739 L57.81381,41.55989 C57.66429,41.65747 57.3348,41.69561 57.11539,41.62034" stroke="#111111" stroke-width="0.24" fill="none"/>
  <path d="M57.98779,39.90758 L57.81381,40.15008 C57.62808,40.2815 57.15949,40.2815 56.97377,40.15008" stroke="#111111" stroke-width="0.24" fill="none"/>
  <path d="M39.50684,50.57756 L39.33287,50.82005 C39.14714,50.95148 38.67855,50.95148 38.49282,50.82005 L38.31884,50.57756" stroke="#111111" stroke-width="0.24" fill="none"/>
  <path d="M57.81386,42.18711 L40.17296,52.37209" stroke="#111111" stroke-width="0.24" fill="none"/>
</svg>