<?xml version="1.0" encoding="utf-8" standalone="no"?><!DOCTYPE svg PUBLIC "-//W3C//DTD SVG 1.1//EN" "http://www.w3.org/Graphics/SVG/1.1/DTD/svg11.dtd"><svg xmlns="http://www.w3.org/2000/svg" version="1.1" width="120pt" height="120pt" viewBox="0 0 120 120" overflow="visible">
  <path d="M37.7998,50.51694 L37.7998,49.93494 L38.32064,50.23565 L38.31884,50.81661 z" stroke="Black" stroke-width="0" fill="#BBBBBB" fill-opacity="1"/>
  <path d="M56.79979,60.9323 L56.79979,61.48658 L39.50684,51.5025 L39.50684,50.9205 z" stroke="Black" stroke-width="0" fill="#BBBBBB" fill-opacity="1"/>
  <path d="M57.98779,62.17248 L57.98779,61.59048 L59.64091,62.54491 L59.64091,63.12691 z" stroke="Black" stroke-width="0" fill="#BBBBBB" fill-opacity="1"/>
  <path d="M59.64091,62.54491 L76.44177,52.84493 L76.44177,53.42693 L59.64091,63.12691 z" stroke="Black" stroke-width="0" fill="#CCCCCC" fill-opacity="1"/>
  <path d="M56.97377,60.6898 L56.80159,60.90562 L39.50684,50.9205 L39.50674,50.2712 L39.33287,50.01982 C39.14714,49.8884 38.67855,49.8884 38.49282,50.01982 L38.32064,50.23565 L37.7998,49.93494 L54.60066,40.23496 L76.44177,52.84493 L59.64091,62.54491 L57.98779,61.59048 L57.98769,60.94117 L57.81381,60.6898 C57.62808,60.55838 57.15949,60.55838 56.97377,60.6898 z" stroke="Black" stroke-width="0" fill="#EEEEEE" fill-opacity="1"/>
  <path d="M56.25378,39.90758 L56.42776,39.66508 C56.61349,39.53365 57.08208,39.53365 57.26781,39.66508 L57.44178,39.90758 L57.26781,40.15008 C57.08208,40.2815 56.61349,40.2815 56.42776,40.15008 z" stroke="Black" stroke-width="0" fill="#555555" fill-opacity="1"/>
  <path d="M39.50684,50.26232 L39.33287,50.50482 C39.14714,50.63625 38.67855,50.63625 38.49282,50.50482 L38.31894,50.27119 L38.49282,50.01982 C38.67855,49.8884 39.14714,49.8884 39.33287,50.01982 z" stroke="Black" stroke-width="0" fill="#555555" fill-opacity="1"/>
  <path d="M57.98779,60.9323 L57.81381,61.1748 C57.62808,61.30622 57.15949,61.30622 56.97377,61.1748 L56.79988,60.94117 L56.97377,60.6898 C57.15949,60.55838 57.62808,60.55838 57.81381,60.6898 z" stroke="Black" stroke-width="0" fill="#555555" fill-opacity="1"/>
  <path d="M74.73473,50.57756 L74.90871,50.33506 C75.09443,50.20363 75.56303,50.20363 75.74875,50.33506 L75.92273,50.57756 L75.74875,50.82005 C75.56303,50.95148 75.09443,50.95148 74.90871,50.82005 z" stroke="Black" stroke-width="0" fill="#555555" fill-opacity="1"/>
  <path d="M39.89991,51.72943 L39.50687,51.9563 L39.50684,51.5025 z" stroke="Black" stroke-width="0" fill="#555555" fill-opacity="1"/>
  <path d="M57.98779,62.17248 L58.38085,62.39941 L57.98779,62.62635 z" stroke="Black" stroke-width="0" fill="#555555" fill-opacity="1"/>
  <path d="M74.73473,54.41249 L75.92273,53.7266 L75.92273,65.22453 L75.74875,65.46703 C75.56303,65.59845 75.09443,65.59845 74.90871,65.46703 L74.73473,65.22453 z" stroke="Black" stroke-width="0" fill="#777777" fill-opacity="1"/>
  <path d="M74.73473,51.85937 L74.73483,50.58643 L74.90871,50.82005 C75.09443,50.95148 75.56303,50.95148 75.74875,50.82005 L75.92263,50.58643 L75.92272,52.54525 z" stroke="Black" stroke-width="0" fill="#777777" fill-opacity="1"/>
  <path d="M57.26781,40.15008 L57.44168,39.91645 L57.44178,41.87529 L56.25378,41.18939 L56.25388,39.91645 L56.42776,40.15008 C56.61349,40.2815 57.08208,40.2815 57.26781,40.15008 z" stroke="Black" stroke-width="0" fill="#777777" fill-opacity="1"/>
  <path d="M39.50684,52.92637 L39.50684,64.90929 L39.33287,65.15179 C39.14714,65.28321 38.67855,65.28321 38.49282,65.15179 L38.31884,64.90929 L38.31894,50.27119 L38.49282,50.50482 C38.67855,50.63625 39.14714,50.63625 39.33287,50.50482 L39.50674,50.2712 L39.50687,51.9563 L39.89991,51.72943 L40.73995,52.21444 z" stroke="Black" stroke-width="0" fill="#777777" fill-opacity="1"/>
  <path d="M57.98779,63.59635 L57.98779,75.57927 L57.81381,75.82177 C57.62808,75.95319 57.15949,75.95319 56.97377,75.82177 L56.79979,75.57927 L56.79988,60.94117 L56.97377,61.1748 C57.15949,61.30622 57.62808,61.30622 57.81381,61.1748 L57.98769,60.94117 L57.98779,62.62635 L58.38085,62.39941 L59.22089,62.88441 z" stroke="Black" stroke-width="0" fill="#777777" fill-opacity="1"/>
  <path d="M57.98779,60.9323 L57.81381,60.6898 C57.62808,60.55838 57.15949,60.55838 56.97377,60.6898" stroke="#000000" stroke-width="0.24" fill="none"/>
  <path d="M57.44178,39.90758 L57.44178,41.87529" stroke="#000000" stroke-width="0.24" fill="none"/>
  <path d="M57.98779,63.59635 L57.98779,75.57927" stroke="#000000" stroke-width="0.24" fill="none"/>
  <path d="M39.50684,50.26232 L39.33287,50.01982 C39.14714,49.8884 38.67855,49.8884 38.49282,50.01982 L38.31884,50.26232" stroke="#000000" stroke-width="0.24" fill="none"/>
  <path d="M75.92273,50.57756 L75.92273,52.54523" stroke="#000000" stroke-width="0.24" fill="none"/>
  <path d="M54.60068,40.23499 L76.4418,52.84496" stroke="#000000" stroke-width="0.24" fill="none"/>
  <path d="M56.25378,41.18939 L56.25378,39.90758" stroke="#000000" stroke-width="0.24" fill="none"/>
  <path d="M76.4418,53.42696 L59.64094,63.12693 L57.98781,62.1725" stroke="#000000" stroke-width="0.24" fill="none"/>
  <path d="M75.92273,50.57756 L75.74875,50.33506 C75.56303,50.20363 75.09443,50.20363 74.90871,50.33506" stroke="#000000" stroke-width="0.24" fill="none"/>
  <path d="M74.73473,51.85937 L74.73473,50.57756" stroke="#000000" stroke-width="0.24" fill="none"/>
  <path d="M75.92273,53.7266 L75.92273,65.22453" stroke="#000000" stroke-width="0.24" fill="none"/>
  <path d="M59.22097,62.88441 L57.81383,63.69682" stroke="#000000" stroke-width="0.24" fill="none"/>
  <path d="M39.33289,53.02684 L40.74018,52.21434" stroke="#000000" stroke-width="0.24" fill="none"/>
  <path d="M57.98779,60.9323 L57.98779,62.62635" stroke="#000000" stroke-width="0.24" fill="none"/>
  <path d="M37.79982,49.93496 L54.60068,40.23499" stroke="#000000" stroke-width="0.24" fill="none"/>
  <path d="M56.97377,60.6898 L56.79979,60.9323" stroke="#000000" stroke-width="0.24" fill="none"/>
  <path d="M38.31887,50.81663 L37.79982,50.51696" stroke="#000000" stroke-width="0.24" fill="none"/>
  <path d="M56.79979,75.57927 L56.79979,60.9323" stroke="#000000" stroke-width="0.24" fill="none"/>
  <path d="M37.79982,50.51696 L37.79982,49.93496" stroke="#000000" stroke-width="0.24" fill="none"/>
  <path d="M56.79981,61.48661 L39.50687,51.50253" stroke="#000000" stroke-width="0.24" fill="none"/>
  <path d="M56.79979,75.57927 L56.97377,75.82177 C57.15949,75.95319 57.62808,75.95319 57.81381,75.82177 L57.98779,75.57927" stroke="#000000" stroke-width="0.24" fill="none"/>
  <path d="M57.44178,39.90758 L57.26781,39.66508 C57.08208,39.53365 56.61349,39.53365 56.42776,39.66508 L56.25378,39.90758" stroke="#000000" stroke-width="0.24" fill="none"/>
  <path d="M74.90871,50.33506 L74.73473,50.57756" stroke="#000000" stroke-width="0.24" fill="none"/>
  <path d="M39.33287,65.15179 L39.50684,64.90929" stroke="#000000" stroke-width="0.24" fill="none"/>
  <path d="M39.50684,52.92637 L39.50684,64.90929" stroke="#000000" stroke-width="0.24" fill="none"/>
  <path d="M76.4418,53.42696 L76.4418,52.84496" stroke="#000000" stroke-width="0.24" fill="none"/>
  <path d="M38.31884,64.90929 L38.31884,50.26232" stroke="#000000" stroke-width="0.24" fill="none"/>
  <path d="M74.73473,65.22453 L74.90871,65.46703 C75.09443,65.59845 75.56303,65.59845 75.74875,65.46703 L75.92273,65.22453" stroke="#000000" stroke-width="0.24" fill="none"/>
  <path d="M39.50684,50.26232 L39.50684,51.95625" stroke="#000000" stroke-width="0.24" fill="none"/>
  <path d="M74.73473,65.22453 L74.73473,54.41249" stroke="#000000" stroke-width="0.24" fill="none"/>
  <path d="M38.31884,64.90929 L38.49282,65.15179 C38.67855,65.28321 39.14714,65.28321 39.33287,65.15179" stroke="#000000" stroke-width="0.24" fill="none"/>
  <path d="M56.79979,60.9323 L56.97377,61.1748 C57.15949,61.30622 57.62808,61.30622 57.81381,61.1748 L57.98779,60.9323" stroke="#111111" stroke-width="0.24" fill="none"/>
  <path d="M59.64094,63.12693 L59.64094,62.54494 L57.98781,61.5905" stroke="#111111" stroke-width="0.24" fill="none"/>
  <path d="M76.4418,52.84496 L59.64094,62.54494" stroke="#111111" stroke-width="0.24" fill="none"/>
  <path d="M56.25378,39.90758 L56.42776,40.15008 C56.61349,40.2815 57.08208,40.2815 57.26781,40.15008" stroke="#111111" stroke-width="0.24" fill="none"/>
  <path d="M58.38102,62.39935 L57.81383,62.72682" stroke="#111111" stroke-width="0.24" fill="none"/>
  <path d="M39.33289,52.05684 L39.89998,51.72943" stroke="#111111" stroke-width="0.24" fill="none"/>
  <path d="M74.73473,50.57756 L74.90871,50.82005 C75.09443,50.95148 75.56303,50.95148 75.74875,50.82005 L75.92273,50.57756" stroke="#111111" stroke-width="0.24" fill="none"/>
  <path d="M38.32067,50.23567 L37.79982,49.93496" stroke="#111111" stroke-width="0.24" fill="none"/>
  <path d="M56.80161,60.90565 L39.50687,50.92052 L39.50684,50.26232" stroke="#111111" stroke-width="0.24" fill="none"/>
  <path d="M57.26781,40.15008 L57.44178,39.90758" stroke="#111111" stroke-width="0.24" fill="none"/>
  <path d="M38.31884,50.26232 L38.49282,50.50482 C38.67855,50.63625 39.14714,50.63625 39.33287,50.50482" stroke="#111111" stroke-width="0.24" fill="none"/>
</svg>