<?xml version="1.0" encoding="utf-8" standalone="no"?>
<!DOCTYPE svg PUBLIC "-//W3C//DTD SVG 1.1//EN" "http://www.w3.org/Graphics/SVG/1.1/DTD/svg11.dtd">
<svg version="1.1" width="120pt" height="120pt" viewBox="0 0 120 120" overflow="visible" xmlns="http://www.w3.org/2000/svg">
  <path d="M76.08358,71.28898 L76.0836,70.70582 L82.08027,74.16799 L82.08027,74.75117 z" stroke="Black" stroke-width="0" fill="#BBBBBB" fill-opacity="1" />
  <path d="M74.89318,84.84087 L74.89318,85.42405 L46.49642,69.02917 L46.49642,68.446 z" stroke="Black" stroke-width="0" fill="#BBBBBB" fill-opacity="1" />
  <path d="M76.08358,86.11133 L76.08358,85.52815 L82.08027,88.99034 L82.08027,89.57352 z" stroke="Black" stroke-width="0" fill="#BBBBBB" fill-opacity="1" />
  <path d="M74.89318,70.04626 L74.89318,70.6017 L46.49642,54.20683 L46.49642,53.62365 z" stroke="Black" stroke-width="0" fill="#BBBBBB" fill-opacity="1" />
  <path d="M45.30602,67.75872 L45.30602,68.3419 L30.7678,59.94825 L30.7678,59.36508 z" stroke="Black" stroke-width="0" fill="#BBBBBB" fill-opacity="1" />
  <path d="M45.30602,53.51954 L30.7678,45.1259 L30.7678,44.54272 L45.30782,52.93741 z" stroke="Black" stroke-width="0" fill="#BBBBBB" fill-opacity="1" />
  <path d="M82.08027,74.75117 L82.08027,74.16799 L91.76028,68.57924 L91.76028,69.16241 z" stroke="Black" stroke-width="0" fill="#CCCCCC" fill-opacity="1" />
  <path d="M91.76028,83.98476 L82.08027,89.57352 L82.08027,88.99034 L91.76028,83.40159 z" stroke="Black" stroke-width="0" fill="#CCCCCC" fill-opacity="1" />
  <path d="M74.89318,73.66336 L74.89318,84.84087 L46.49642,68.446 L46.49649,57.26857 z" stroke="Black" stroke-width="0" fill="#EEEEEE" fill-opacity="1" />
  <path d="M45.30602,67.75872 L30.7678,59.36508 L40.44781,53.77632 L45.30602,56.58121 z" stroke="Black" stroke-width="0" fill="#EEEEEE" fill-opacity="1" />
  <path d="M91.76028,83.40159 L82.08027,88.99034 L76.08358,85.52815 L76.08362,74.35069 z" stroke="Black" stroke-width="0" fill="#EEEEEE" fill-opacity="1" />
  <path d="M45.30782,52.93741 L30.7678,44.54272 L40.44781,38.95397 L91.76028,68.57924 L82.08027,74.16799 L76.0836,70.70582 L76.08358,70.04626 L75.90925,69.80327 C75.72314,69.67159 75.25361,69.67159 75.0675,69.80327 L74.89497,70.01956 L46.49642,53.62365 L46.49642,52.96411 L46.32209,52.72112 C46.13599,52.58943 45.66645,52.58943 45.48035,52.72112 z" stroke="Black" stroke-width="0" fill="#EEEEEE" fill-opacity="1" />
  <path d="M76.47741,71.51635 L76.08358,71.74373 L76.08358,71.28898 z" stroke="Black" stroke-width="0" fill="#555555" fill-opacity="1" />
  <path d="M85.70953,63.80143 L85.88387,63.55844 C86.06997,63.42675 86.53951,63.42675 86.72561,63.55844 L86.89993,63.80143 L86.72561,64.04443 C86.53951,64.17611 86.06997,64.17611 85.88387,64.04443 z" stroke="Black" stroke-width="0" fill="#555555" fill-opacity="1" />
  <path d="M46.89025,54.4342 L46.49642,54.66158 L46.49642,54.20683 z" stroke="Black" stroke-width="0" fill="#555555" fill-opacity="1" />
  <path d="M45.30782,52.93741 L45.48035,52.72112 C45.66645,52.58943 46.13599,52.58943 46.32209,52.72112 L46.49642,52.96411 L46.32209,53.2071 C46.13599,53.33878 45.66645,53.33878 45.48035,53.2071 z" stroke="Black" stroke-width="0" fill="#555555" fill-opacity="1" />
  <path d="M76.47741,86.33871 L76.08358,86.56609 L76.08358,86.11133 z" stroke="Black" stroke-width="0" fill="#555555" fill-opacity="1" />
  <path d="M57.31258,46.72817 L57.13845,46.96227 C56.95235,47.09396 56.48281,47.09396 56.29671,46.96227 L56.12238,46.71928 L56.29671,46.47629 C56.48281,46.3446 56.95235,46.3446 57.13845,46.47629 z" stroke="Black" stroke-width="0" fill="#555555" fill-opacity="1" />
  <path d="M46.89025,69.25655 L46.49642,69.48393 L46.49642,69.02917 z" stroke="Black" stroke-width="0" fill="#555555" fill-opacity="1" />
  <path d="M74.89497,70.01956 L75.0675,69.80327 C75.25361,69.67159 75.72314,69.67159 75.90925,69.80327 L76.08358,70.04626 L75.90925,70.28925 C75.72314,70.42094 75.25361,70.42094 75.0675,70.28925 z" stroke="Black" stroke-width="0" fill="#555555" fill-opacity="1" />
  <path d="M45.30612,52.973 L45.48035,53.2071 C45.66645,53.33878 46.13599,53.33878 46.32209,53.2071 L46.49632,52.973 L46.49642,54.66158 L46.89025,54.4342 L47.73199,54.92018 L46.49642,55.63354 L46.49642,69.48393 L46.89025,69.25655 L47.73199,69.74253 L46.49642,70.45589 L46.49642,73.47241 L46.32209,73.7154 C46.13599,73.84709 45.66645,73.84709 45.48035,73.7154 L45.30602,73.47241 z" stroke="Black" stroke-width="0" fill="#777777" fill-opacity="1" />
  <path d="M57.13845,46.96227 L57.31258,46.72817 L57.31278,48.69096 L56.12238,48.00368 L56.12248,46.72817 L56.29671,46.96227 C56.48281,47.09396 56.95235,47.09396 57.13845,46.96227 z" stroke="Black" stroke-width="0" fill="#777777" fill-opacity="1" />
  <path d="M76.08358,71.74373 L76.47741,71.51635 L77.31915,72.00233 L76.08358,72.71569 L76.08358,86.56609 L76.47741,86.33871 L77.31915,86.82468 L76.08358,87.53804 L76.08358,90.55457 L75.90925,90.79755 C75.72314,90.92924 75.25361,90.92924 75.0675,90.79755 L74.89318,90.55457 L74.89328,70.05515 L75.0675,70.28925 C75.25361,70.42094 75.72314,70.42094 75.90925,70.28925 L76.08348,70.05515 z" stroke="Black" stroke-width="0" fill="#777777" fill-opacity="1" />
  <path d="M85.70953,72.65581 L86.89993,71.96853 L86.89993,80.59547 L85.70953,79.90819 z" stroke="Black" stroke-width="0" fill="#777777" fill-opacity="1" />
  <path d="M56.12232,62.82587 L56.12238,59.76437 L57.31278,60.45165 L57.31278,63.51331 z" stroke="Black" stroke-width="0" fill="#777777" fill-opacity="1" />
  <path d="M85.70953,65.08584 L85.70963,63.81032 L85.88387,64.04443 C86.06997,64.17611 86.53951,64.17611 86.72561,64.04443 L86.89983,63.81033 L86.89993,65.77312 z" stroke="Black" stroke-width="0" fill="#777777" fill-opacity="1" />
  <path d="M77.31918,86.82471 L82.08029,89.57354" stroke="#000000" stroke-width="0.24" fill="none" />
  <path d="M75.0675,90.79755 C75.25361,90.92924 75.72314,90.92924 75.90925,90.79755 L76.08358,90.55457" stroke="#000000" stroke-width="0.24" fill="none" />
  <path d="M46.49642,52.96411 L46.49642,54.66158" stroke="#000000" stroke-width="0.24" fill="none" />
  <path d="M74.8932,73.66338 L46.49659,57.2686" stroke="#000000" stroke-width="0.24" fill="none" />
  <path d="M82.08029,74.75119 L91.7603,69.16244" stroke="#000000" stroke-width="0.24" fill="none" />
  <path d="M91.7603,83.40161 L86.89996,80.59549 L86.89996,71.96855" stroke="#000000" stroke-width="0.24" fill="none" />
  <path d="M74.8932,85.42407 L74.8932,90.55459" stroke="#000000" stroke-width="0.24" fill="none" />
  <path d="M76.0836,87.53806 L77.31918,86.82471" stroke="#000000" stroke-width="0.24" fill="none" />
  <path d="M76.08358,72.71569 L76.08358,86.56609" stroke="#000000" stroke-width="0.24" fill="none" />
  <path d="M47.73201,54.9202 L56.1224,59.76439" stroke="#000000" stroke-width="0.24" fill="none" />
  <path d="M30.76783,59.94828 L45.30604,68.34192" stroke="#000000" stroke-width="0.24" fill="none" />
  <path d="M40.44784,53.77635 L30.76783,59.3651" stroke="#000000" stroke-width="0.24" fill="none" />
  <path d="M76.0836,72.71571 L77.31918,72.00236" stroke="#000000" stroke-width="0.24" fill="none" />
  <path d="M45.30604,53.51957 L45.30604,56.58123" stroke="#000000" stroke-width="0.24" fill="none" />
  <path d="M30.76783,45.12592 L45.30604,53.51957" stroke="#000000" stroke-width="0.24" fill="none" />
  <path d="M56.1224,48.00371 L40.44784,38.95399" stroke="#000000" stroke-width="0.24" fill="none" />
  <path d="M56.1224,46.7193 L56.1224,48.00371" stroke="#000000" stroke-width="0.24" fill="none" />
  <path d="M40.44784,38.95399 L30.76783,44.54275" stroke="#000000" stroke-width="0.24" fill="none" />
  <path d="M57.13845,46.47629 C56.95235,46.3446 56.48281,46.3446 56.29671,46.47629" stroke="#000000" stroke-width="0.24" fill="none" />
  <path d="M57.31278,46.71928 L57.13845,46.47629" stroke="#000000" stroke-width="0.24" fill="none" />
  <path d="M57.3128,48.69099 L57.3127,46.7282" stroke="#000000" stroke-width="0.24" fill="none" />
  <path d="M85.70966,63.81035 L85.70956,65.08586" stroke="#000000" stroke-width="0.24" fill="none" />
  <path d="M85.88387,63.55844 L85.70953,63.80143" stroke="#000000" stroke-width="0.24" fill="none" />
  <path d="M85.70956,72.65583 L85.70956,79.90821" stroke="#000000" stroke-width="0.24" fill="none" />
  <path d="M56.29671,46.47629 L56.12238,46.71928" stroke="#000000" stroke-width="0.24" fill="none" />
  <path d="M30.76783,44.54275 L30.76783,45.12592" stroke="#000000" stroke-width="0.24" fill="none" />
  <path d="M77.31918,72.00236 L82.08029,74.75119" stroke="#000000" stroke-width="0.24" fill="none" />
  <path d="M76.08365,74.35072 L76.0836,72.71571" stroke="#000000" stroke-width="0.24" fill="none" />
  <path d="M82.08029,74.75119 L85.70956,72.65583" stroke="#000000" stroke-width="0.24" fill="none" />
  <path d="M45.30604,68.34192 L45.30604,73.47243" stroke="#000000" stroke-width="0.24" fill="none" />
  <path d="M57.3128,63.51334 L57.3128,60.45167" stroke="#000000" stroke-width="0.24" fill="none" />
  <path d="M74.8932,70.60172 L74.8932,73.66338" stroke="#000000" stroke-width="0.24" fill="none" />
  <path d="M46.49644,55.63356 L47.73201,54.9202" stroke="#000000" stroke-width="0.24" fill="none" />
  <path d="M46.49652,57.2686 L46.49644,55.63356" stroke="#000000" stroke-width="0.24" fill="none" />
  <path d="M76.08358,70.04626 L75.90925,69.80327 C75.72314,69.67159 75.25361,69.67159 75.0675,69.80327" stroke="#000000" stroke-width="0.24" fill="none" />
  <path d="M74.8932,73.66338 L57.3128,63.51334" stroke="#000000" stroke-width="0.24" fill="none" />
  <path d="M47.73201,69.74255 L46.49644,69.0292" stroke="#000000" stroke-width="0.24" fill="none" />
  <path d="M56.1224,59.7644 L56.12234,62.82589 L46.49652,57.2686" stroke="#000000" stroke-width="0.24" fill="none" />
  <path d="M74.89318,90.55457 L75.0675,90.79755" stroke="#000000" stroke-width="0.24" fill="none" />
  <path d="M45.30602,73.47241 L45.48035,73.7154" stroke="#000000" stroke-width="0.24" fill="none" />
  <path d="M57.3128,60.45167 L74.8932,70.60172" stroke="#000000" stroke-width="0.24" fill="none" />
  <path d="M85.70956,79.90821 L76.08365,74.35072" stroke="#000000" stroke-width="0.24" fill="none" />
  <path d="M30.76783,59.3651 L30.76783,59.94828" stroke="#000000" stroke-width="0.24" fill="none" />
  <path d="M46.49644,70.45591 L47.73201,69.74255" stroke="#000000" stroke-width="0.24" fill="none" />
  <path d="M45.30604,56.58123 L40.44784,53.77635" stroke="#000000" stroke-width="0.24" fill="none" />
  <path d="M82.08029,89.57354 L91.7603,83.98479" stroke="#000000" stroke-width="0.24" fill="none" />
  <path d="M91.7603,69.16244 L91.7603,68.57926 L86.89996,65.77314 L86.89996,63.80146 L86.72561,63.55844 C86.53951,63.42675 86.06997,63.42675 85.88387,63.55844" stroke="#000000" stroke-width="0.24" fill="none" />
  <path d="M85.70956,65.08586 L57.3128,48.69099" stroke="#000000" stroke-width="0.24" fill="none" />
  <path d="M45.30602,73.47241 L45.30602,52.96411" stroke="#000000" stroke-width="0.24" fill="none" />
  <path d="M86.89996,71.96855 L91.7603,69.16244" stroke="#000000" stroke-width="0.24" fill="none" />
  <path d="M46.49645,54.20685 L74.8932,70.60172" stroke="#000000" stroke-width="0.24" fill="none" />
  <path d="M76.0836,71.289 L82.08029,74.75119" stroke="#000000" stroke-width="0.24" fill="none" />
  <path d="M91.7603,68.57926 L40.44784,38.95399" stroke="#000000" stroke-width="0.24" fill="none" />
  <path d="M76.0836,86.11135 L82.08029,89.57354" stroke="#000000" stroke-width="0.24" fill="none" />
  <path d="M46.49642,55.63338 L46.49642,69.48393" stroke="#000000" stroke-width="0.24" fill="none" />
  <path d="M46.49642,52.96411 L46.32209,52.72112 C46.13599,52.58943 45.66645,52.58943 45.48035,52.72112 L45.30602,52.96411" stroke="#000000" stroke-width="0.24" fill="none" />
  <path d="M75.0675,69.80327 L74.89318,70.04626" stroke="#000000" stroke-width="0.24" fill="none" />
  <path d="M74.89318,90.55457 L74.89318,70.04626" stroke="#000000" stroke-width="0.24" fill="none" />
  <path d="M76.08358,70.04626 L76.08358,71.74373" stroke="#000000" stroke-width="0.24" fill="none" />
  <path d="M46.32209,73.7154 L46.49642,73.47241" stroke="#000000" stroke-width="0.24" fill="none" />
  <path d="M47.73201,69.74255 L74.8932,85.42407" stroke="#000000" stroke-width="0.24" fill="none" />
  <path d="M46.49644,73.47243 L46.49644,70.45591" stroke="#000000" stroke-width="0.24" fill="none" />
  <path d="M76.0836,90.55459 L76.0836,87.53806" stroke="#000000" stroke-width="0.24" fill="none" />
  <path d="M91.7603,83.98479 L91.7603,83.40161 L76.08369,74.35072" stroke="#000000" stroke-width="0.24" fill="none" />
  <path d="M45.48035,73.7154 C45.66645,73.84709 46.13599,73.84709 46.32209,73.7154" stroke="#000000" stroke-width="0.24" fill="none" />
  <path d="M75.90927,72.81636 L77.31927,72.0023" stroke="#111111" stroke-width="0.24" fill="none" />
  <path d="M75.90927,87.63872 L77.31921,86.82468" stroke="#111111" stroke-width="0.24" fill="none" />
  <path d="M75.90927,86.66676 L76.47758,86.33865" stroke="#111111" stroke-width="0.24" fill="none" />
  <path d="M76.08358,72.71569 L76.08358,86.56609" stroke="#111111" stroke-width="0.24" fill="none" />
  <path d="M74.89318,90.55457 L74.89318,70.04626 L74.89318,70.04626" stroke="#111111" stroke-width="0.24" fill="none" />
  <path d="M46.49642,52.96411 L46.32209,52.72112 C46.13599,52.58943 45.66645,52.58943 45.48035,52.72112 L45.30602,52.96411" stroke="#111111" stroke-width="0.24" fill="none" />
  <path d="M46.49642,55.63338 L46.49642,69.48393" stroke="#111111" stroke-width="0.24" fill="none" />
  <path d="M46.49642,52.96411 L46.49642,54.66158" stroke="#111111" stroke-width="0.24" fill="none" />
  <path d="M45.30602,73.47241 L45.30602,52.96411" stroke="#111111" stroke-width="0.24" fill="none" />
  <path d="M74.8932,73.66338 L46.49659,57.2686" stroke="#111111" stroke-width="0.24" fill="none" />
  <path d="M76.08358,70.04626 L76.08358,71.74373" stroke="#111111" stroke-width="0.24" fill="none" />
  <path d="M91.7603,83.40161 L76.08369,74.35072" stroke="#111111" stroke-width="0.24" fill="none" />
  <path d="M76.0836,85.52818 L82.08029,88.99036" stroke="#111111" stroke-width="0.24" fill="none" />
  <path d="M76.0836,86.11135 L82.08029,89.57354" stroke="#111111" stroke-width="0.24" fill="none" />
  <path d="M46.49644,69.0292 L74.8932,85.42407" stroke="#111111" stroke-width="0.24" fill="none" />
  <path d="M47.73208,69.74252 L46.32211,70.55656" stroke="#111111" stroke-width="0.24" fill="none" />
  <path d="M46.89045,69.25648 L46.32211,69.5846" stroke="#111111" stroke-width="0.24" fill="none" />
  <path d="M91.7603,68.57926 L40.44784,38.95399" stroke="#111111" stroke-width="0.24" fill="none" />
  <path d="M82.08029,74.16801 L91.7603,68.57926" stroke="#111111" stroke-width="0.24" fill="none" />
  <path d="M82.08029,74.75119 L91.7603,69.16244" stroke="#111111" stroke-width="0.24" fill="none" />
  <path d="M76.08363,70.70585 L82.08029,74.16801" stroke="#111111" stroke-width="0.24" fill="none" />
  <path d="M46.49644,53.62367 L74.895,70.01958" stroke="#111111" stroke-width="0.24" fill="none" />
  <path d="M76.0836,71.289 L82.08029,74.75119" stroke="#111111" stroke-width="0.24" fill="none" />
  <path d="M46.49645,54.20685 L74.8932,70.60172" stroke="#111111" stroke-width="0.24" fill="none" />
  <path d="M47.73214,54.92013 L46.32211,55.73421" stroke="#111111" stroke-width="0.24" fill="none" />
  <path d="M46.8905,54.43409 L46.32211,54.76225" stroke="#111111" stroke-width="0.24" fill="none" />
  <path d="M57.31278,60.45165 L57.31278,63.51331" stroke="#111111" stroke-width="0.24" fill="none" />
  <path d="M75.90927,71.84441 L76.47763,71.51627" stroke="#111111" stroke-width="0.24" fill="none" />
  <path d="M56.12238,62.82577 L56.12238,59.76429" stroke="#111111" stroke-width="0.24" fill="none" />
  <path d="M56.12238,48.00368 L56.12238,46.71928" stroke="#111111" stroke-width="0.24" fill="none" />
  <path d="M85.70953,79.90819 L85.70953,72.65581" stroke="#111111" stroke-width="0.24" fill="none" />
  <path d="M86.89993,71.96835 L86.89993,80.59547" stroke="#111111" stroke-width="0.24" fill="none" />
  <path d="M76.08358,87.53804 L76.08358,90.55457" stroke="#111111" stroke-width="0.24" fill="none" />
  <path d="M56.12238,46.71928 L56.29671,46.96227 C56.48281,47.09396 56.95235,47.09396 57.13845,46.96227 L57.31278,46.71928 L57.13845,46.47629 C56.95235,46.3446 56.48281,46.3446 56.29671,46.47629 z" stroke="#111111" stroke-width="0.24" fill="none" />
  <path d="M57.31278,46.71928 L57.31278,48.69096" stroke="#111111" stroke-width="0.24" fill="none" />
  <path d="M86.89993,63.80143 L86.72561,63.55844 C86.53951,63.42675 86.06997,63.42675 85.88387,63.55844 L85.70953,63.80143" stroke="#111111" stroke-width="0.24" fill="none" />
  <path d="M74.89318,70.04626 L75.0675,70.28925 C75.25361,70.42094 75.72314,70.42094 75.90925,70.28925 L76.08358,70.04626" stroke="#111111" stroke-width="0.24" fill="none" />
  <path d="M45.30602,52.96411 L45.48035,53.2071 C45.66645,53.33878 46.13599,53.33878 46.32209,53.2071" stroke="#111111" stroke-width="0.24" fill="none" />
  <path d="M46.49642,70.45586 L46.49642,73.47241" stroke="#111111" stroke-width="0.24" fill="none" />
  <path d="M45.30609,56.58126 L40.44784,53.77635" stroke="#111111" stroke-width="0.24" fill="none" />
  <path d="M46.49644,68.44602 L74.8932,84.8409" stroke="#111111" stroke-width="0.24" fill="none" />
  <path d="M76.08358,70.04626 L75.90925,69.80327 C75.72314,69.67159 75.25361,69.67159 75.0675,69.80327" stroke="#111111" stroke-width="0.24" fill="none" />
  <path d="M74.89318,90.55457 L75.0675,90.79755 C75.25361,90.92924 75.72314,90.92924 75.90925,90.79755 L76.08358,90.55457" stroke="#111111" stroke-width="0.24" fill="none" />
  <path d="M46.32209,53.2071 L46.49642,52.96411" stroke="#111111" stroke-width="0.24" fill="none" />
  <path d="M45.30602,73.47241 L45.48035,73.7154 C45.66645,73.84709 46.13599,73.84709 46.32209,73.7154 L46.49642,73.47241" stroke="#111111" stroke-width="0.24" fill="none" />
  <path d="M30.76783,59.94828 L45.30604,68.34192" stroke="#111111" stroke-width="0.24" fill="none" />
  <path d="M30.76783,44.54275 L45.30784,52.93743" stroke="#111111" stroke-width="0.24" fill="none" />
  <path d="M30.76783,45.12592 L45.30604,53.51957" stroke="#111111" stroke-width="0.24" fill="none" />
  <path d="M30.76783,59.3651 L45.30604,67.75874" stroke="#111111" stroke-width="0.24" fill="none" />
  <path d="M82.08029,88.99036 L91.7603,83.40161" stroke="#111111" stroke-width="0.24" fill="none" />
  <path d="M91.7603,83.98479 L91.7603,83.40161" stroke="#111111" stroke-width="0.24" fill="none" />
  <path d="M82.08029,89.57354 L91.7603,83.98479" stroke="#111111" stroke-width="0.24" fill="none" />
  <path d="M82.08029,89.57354 L82.08029,88.99036" stroke="#111111" stroke-width="0.24" fill="none" />
  <path d="M40.44784,53.77635 L30.76783,59.3651" stroke="#111111" stroke-width="0.24" fill="none" />
  <path d="M30.76783,59.94828 L30.76783,59.3651" stroke="#111111" stroke-width="0.24" fill="none" />
  <path d="M91.7603,69.16244 L91.7603,68.57926" stroke="#111111" stroke-width="0.24" fill="none" />
  <path d="M82.08029,74.75119 L82.08029,74.16801" stroke="#111111" stroke-width="0.24" fill="none" />
  <path d="M40.44784,38.95399 L30.76783,44.54275" stroke="#111111" stroke-width="0.24" fill="none" />
  <path d="M30.76783,45.12592 L30.76783,44.54275" stroke="#111111" stroke-width="0.24" fill="none" />
  <path d="M86.89993,63.80143 L86.89993,65.77312" stroke="#111111" stroke-width="0.24" fill="none" />
  <path d="M85.70953,63.80143 L85.88387,64.04443 C86.06997,64.17611 86.53951,64.17611 86.72561,64.04443 L86.89993,63.80143" stroke="#111111" stroke-width="0.24" fill="none" />
  <path d="M85.70953,65.08584 L85.70953,63.80143" stroke="#111111" stroke-width="0.24" fill="none" />
</svg>