<?xml version="1.0" encoding="utf-8" standalone="no"?>
<!DOCTYPE svg PUBLIC "-//W3C//DTD SVG 1.1//EN" "http://www.w3.org/Graphics/SVG/1.1/DTD/svg11.dtd">
<svg version="1.1" width="120pt" height="120pt" viewBox="0 0 120 120" overflow="visible" xmlns="http://www.w3.org/2000/svg">
  <circle cx="55.7437438964844" cy="48.6247787475586" r="0.720000028610229" stroke="#90EE90" stroke-width="0.239999994635582" fill="#FFFFFF" fill-opacity="1" />
  <path d="M30.08683,70.58163 L20.40682,64.99288 L20.40682,64.40971 L30.08683,69.99846 z" stroke="Black" stroke-width="0" fill="#BBBBBB" fill-opacity="1" />
  <path d="M76.53887,43.17936 L81.3993,40.3732 L81.3993,40.95637 L76.54068,43.7615 z" stroke="Black" stroke-width="0" fill="#CCCCCC" fill-opacity="1" />
  <path d="M46.95352,60.84365 L46.95352,60.28824 L75.35027,43.8656 L75.35027,44.44877 z" stroke="Black" stroke-width="0" fill="#CCCCCC" fill-opacity="1" />
  <path d="M45.76305,61.531 L30.08683,70.58163 L30.08683,69.99846 L45.76301,60.94788 z" stroke="Black" stroke-width="0" fill="#CCCCCC" fill-opacity="1" />
  <path d="M75.35027,43.8656 L46.95171,60.26152 L46.77919,60.04525 C46.59309,59.91357 46.12355,59.91357 45.93745,60.04525 L45.76312,60.28824 L45.76301,60.94788 L30.08683,69.99846 L20.40682,64.40971 L71.71929,34.78444 L81.3993,40.3732 L76.53887,43.17936 L76.36635,42.9631 C76.18024,42.83141 75.71071,42.83141 75.5246,42.9631 L75.35027,43.20609 z" stroke="Black" stroke-width="0" fill="#EEEEEE" fill-opacity="1" />
  <path d="M34.94674,54.0434 L35.12106,53.80041 C35.30716,53.66872 35.7767,53.66872 35.9628,53.80041 L36.13713,54.0434 L35.9628,54.28639 C35.7767,54.41808 35.30716,54.41808 35.12106,54.28639 z" stroke="Black" stroke-width="0" fill="#555555" fill-opacity="1" />
  <path d="M45.76312,61.98571 L45.36926,61.75832 L45.76305,61.531 z" stroke="Black" stroke-width="0" fill="#555555" fill-opacity="1" />
  <path d="M74.95642,44.67617 L75.35027,44.44877 L75.35027,44.90356 z" stroke="Black" stroke-width="0" fill="#555555" fill-opacity="1" />
  <path d="M76.54057,43.21498 L76.36635,43.44908 C76.18024,43.58077 75.71071,43.58077 75.5246,43.44908 L75.35037,43.21498 L75.5246,42.9631 C75.71071,42.83141 76.18024,42.83141 76.36635,42.9631 z" stroke="Black" stroke-width="0" fill="#555555" fill-opacity="1" />
  <path d="M64.53389,36.96125 L64.70822,36.71826 C64.89433,36.58657 65.36386,36.58657 65.54996,36.71826 L65.72429,36.96125 L65.54996,37.20424 C65.36386,37.33593 64.89433,37.33593 64.70822,37.20424 z" stroke="Black" stroke-width="0" fill="#555555" fill-opacity="1" />
  <path d="M45.76312,60.28824 L45.93745,60.04525 C46.12355,59.91357 46.59309,59.91357 46.77919,60.04525 L46.95173,60.26159 L46.77919,60.53123 C46.59309,60.66292 46.12355,60.66292 45.93745,60.53123 z" stroke="Black" stroke-width="0" fill="#555555" fill-opacity="1" />
  <path d="M75.35027,45.87552 L74.11468,45.16215 L74.95642,44.67617 L75.35027,44.90356 L75.35037,43.21498 L75.5246,43.44908 C75.71071,43.58077 76.18024,43.58077 76.36635,43.44908 L76.54057,43.21498 L76.54068,57.88265 L76.36635,58.12564 C76.18024,58.25733 75.71071,58.25733 75.5246,58.12564 L75.35027,57.88265 z" stroke="Black" stroke-width="0" fill="#777777" fill-opacity="1" />
  <path d="M65.72429,38.24565 L64.53393,38.93288 L64.53404,36.97014 L64.70822,37.20424 C64.89433,37.33593 65.36386,37.33593 65.54996,37.20424 L65.72419,36.97014 z" stroke="Black" stroke-width="0" fill="#777777" fill-opacity="1" />
  <path d="M36.13713,68.71996 L35.9628,68.96295 C35.7767,69.09464 35.30716,69.09464 35.12106,68.96295 L34.94674,68.71996 L34.94674,67.77577 L36.13713,67.08849 z" stroke="Black" stroke-width="0" fill="#777777" fill-opacity="1" />
  <path d="M36.13713,55.3278 L34.94674,56.01508 L34.94688,54.05229 L35.12106,54.28639 C35.30716,54.41808 35.7767,54.41808 35.9628,54.28639 L36.13704,54.05229 z" stroke="Black" stroke-width="0" fill="#777777" fill-opacity="1" />
  <path d="M65.72429,51.63781 L65.54996,51.88079 C65.36386,52.01249 64.89433,52.01249 64.70822,51.88079 L64.53389,51.63781 L64.53389,50.69361 L65.72429,50.00634 z" stroke="Black" stroke-width="0" fill="#777777" fill-opacity="1" />
  <path d="M45.76312,62.95767 L44.52752,62.2443 L45.36926,61.75832 L45.76312,61.98571 L45.76322,60.29713 L45.93745,60.53123 C46.12355,60.66292 46.59309,60.66292 46.77919,60.53123 L46.95342,60.29713 L46.95352,74.96481 L46.77919,75.20779 C46.59309,75.33948 46.12355,75.33948 45.93745,75.20779 L45.76312,74.96481 z" stroke="Black" stroke-width="0" fill="#777777" fill-opacity="1" />
  <path d="M36.13716,68.71999 L36.13716,67.08852" stroke="#000000" stroke-width="0.24" fill="none" />
  <path d="M46.95354,74.96483 L46.95354,60.84367" stroke="#000000" stroke-width="0.24" fill="none" />
  <path d="M65.72432,50.00636 L74.1147,45.16217" stroke="#000000" stroke-width="0.24" fill="none" />
  <path d="M65.54996,36.71826 C65.36386,36.58657 64.89433,36.58657 64.70822,36.71826" stroke="#000000" stroke-width="0.24" fill="none" />
  <path d="M64.53394,38.93288 L36.13716,55.32783" stroke="#000000" stroke-width="0.24" fill="none" />
  <path d="M45.76301,61.53102 L30.08686,70.58166" stroke="#000000" stroke-width="0.24" fill="none" />
  <path d="M75.3503,44.4488 L46.95351,60.84369" stroke="#000000" stroke-width="0.24" fill="none" />
  <path d="M45.76312,60.28824 L45.76312,61.98571" stroke="#000000" stroke-width="0.24" fill="none" />
  <path d="M65.72432,38.24568 L64.53394,38.93288" stroke="#000000" stroke-width="0.24" fill="none" />
  <path d="M36.13716,55.32783 L34.94676,56.01511" stroke="#000000" stroke-width="0.24" fill="none" />
  <path d="M36.13716,67.08852 L34.94676,67.77579" stroke="#000000" stroke-width="0.24" fill="none" />
  <path d="M34.94676,56.01511 L20.40685,64.40973" stroke="#000000" stroke-width="0.24" fill="none" />
  <path d="M34.94686,54.05232 L34.94676,56.01511" stroke="#000000" stroke-width="0.24" fill="none" />
  <path d="M35.12106,53.80041 L34.94674,54.0434" stroke="#000000" stroke-width="0.24" fill="none" />
  <path d="M35.9628,53.80041 C35.7767,53.66872 35.30716,53.66872 35.12106,53.80041" stroke="#000000" stroke-width="0.24" fill="none" />
  <path d="M36.13716,55.32783 L36.13716,54.04343" stroke="#000000" stroke-width="0.24" fill="none" />
  <path d="M64.53401,36.97017 L64.53394,38.93288" stroke="#000000" stroke-width="0.24" fill="none" />
  <path d="M64.70822,36.71826 L64.53389,36.96125" stroke="#000000" stroke-width="0.24" fill="none" />
  <path d="M65.72429,36.96125 L65.54996,36.71826" stroke="#000000" stroke-width="0.24" fill="none" />
  <path d="M65.72432,38.24568 L65.72432,36.96127" stroke="#000000" stroke-width="0.24" fill="none" />
  <path d="M76.5407,43.76152 L81.39932,40.95639" stroke="#000000" stroke-width="0.24" fill="none" />
  <path d="M76.5407,57.88267 L76.5407,43.76152" stroke="#000000" stroke-width="0.24" fill="none" />
  <path d="M75.3503,45.87554 L75.3503,57.88267" stroke="#000000" stroke-width="0.24" fill="none" />
  <path d="M65.72432,51.63783 L65.72432,50.00636" stroke="#000000" stroke-width="0.24" fill="none" />
  <path d="M64.53391,50.69364 L64.53391,51.63783" stroke="#000000" stroke-width="0.24" fill="none" />
  <path d="M46.95354,60.84367 L64.53392,50.69364" stroke="#000000" stroke-width="0.24" fill="none" />
  <path d="M45.76314,62.9577 L45.76314,74.96483" stroke="#000000" stroke-width="0.24" fill="none" />
  <path d="M44.52754,62.24432 L45.76314,62.9577" stroke="#000000" stroke-width="0.24" fill="none" />
  <path d="M36.13716,67.08852 L44.52754,62.24432" stroke="#000000" stroke-width="0.24" fill="none" />
  <path d="M34.94676,67.77579 L34.94676,68.71999" stroke="#000000" stroke-width="0.24" fill="none" />
  <path d="M30.08686,70.58166 L34.94676,67.77579" stroke="#000000" stroke-width="0.24" fill="none" />
  <path d="M74.1147,45.16217 L75.3503,45.87554" stroke="#000000" stroke-width="0.24" fill="none" />
  <path d="M71.71931,34.78447 L65.72432,38.24568" stroke="#000000" stroke-width="0.24" fill="none" />
  <path d="M65.72432,50.00636 L64.53391,50.69364" stroke="#000000" stroke-width="0.24" fill="none" />
  <path d="M75.35027,43.20609 L75.35027,44.90356" stroke="#000000" stroke-width="0.24" fill="none" />
  <path d="M35.9628,53.80041 L36.13713,54.0434" stroke="#111111" stroke-width="0.24" fill="none" />
  <path d="M34.94674,54.0434 L34.94674,56.01508" stroke="#111111" stroke-width="0.24" fill="none" />
  <path d="M34.94674,54.0434 L35.12106,53.80041 C35.30716,53.66872 35.7767,53.66872 35.9628,53.80041 L35.9628,54.28639 C35.7767,54.41808 35.30716,54.41808 35.12106,54.28639 z" stroke="#111111" stroke-width="0.24" fill="none" />
  <path d="M65.72429,51.63781 L65.72429,50.00634" stroke="#111111" stroke-width="0.24" fill="none" />
  <path d="M64.53389,36.96125 L64.70822,36.71826 C64.89433,36.58657 65.36386,36.58657 65.54996,36.71826 L65.72429,36.96125" stroke="#111111" stroke-width="0.24" fill="none" />
  <path d="M64.70822,37.20424 L64.53389,36.96125" stroke="#111111" stroke-width="0.24" fill="none" />
  <path d="M65.72429,36.96125 L65.54996,37.20424 C65.36386,37.33593 64.89433,37.33593 64.70822,37.20424" stroke="#111111" stroke-width="0.24" fill="none" />
  <path d="M45.76312,60.28824 L45.93745,60.04525 C46.12355,59.91357 46.59309,59.91357 46.77919,60.04525" stroke="#111111" stroke-width="0.24" fill="none" />
  <path d="M75.5246,43.44908 L75.35027,43.20609" stroke="#111111" stroke-width="0.24" fill="none" />
  <path d="M30.08686,70.58166 L20.40685,64.9929 L20.40685,64.40973" stroke="#111111" stroke-width="0.24" fill="none" />
  <path d="M81.39932,40.95639 L81.39932,40.37322" stroke="#111111" stroke-width="0.24" fill="none" />
  <path d="M71.71931,34.78447 L81.39932,40.37322 L76.53889,43.17939 L76.36635,43.44908 C76.18024,43.58077 75.71071,43.58077 75.5246,43.44908" stroke="#111111" stroke-width="0.24" fill="none" />
  <path d="M65.72429,38.24565 L65.72429,36.96125" stroke="#111111" stroke-width="0.24" fill="none" />
  <path d="M64.53389,50.69361 L64.53389,51.63781" stroke="#111111" stroke-width="0.24" fill="none" />
  <path d="M34.94674,67.77577 L34.94674,68.71996" stroke="#111111" stroke-width="0.24" fill="none" />
  <path d="M36.13713,55.3278 L36.13713,54.0434" stroke="#111111" stroke-width="0.24" fill="none" />
  <path d="M75.35027,45.87528 L75.35027,57.88265" stroke="#111111" stroke-width="0.24" fill="none" />
  <path d="M45.36907,61.75822 L45.93747,62.08639" stroke="#111111" stroke-width="0.24" fill="none" />
  <path d="M44.52743,62.24426 L45.93747,63.05835" stroke="#111111" stroke-width="0.24" fill="none" />
  <path d="M75.52463,45.00423 L74.9562,44.67605" stroke="#111111" stroke-width="0.24" fill="none" />
  <path d="M75.52463,45.97619 L74.11456,45.16209" stroke="#111111" stroke-width="0.24" fill="none" />
  <path d="M36.13713,68.71996 L35.9628,68.96295 C35.7767,69.09464 35.30716,69.09464 35.12106,68.96295 L34.94674,68.71996" stroke="#111111" stroke-width="0.24" fill="none" />
  <path d="M64.70822,51.88079 L64.53389,51.63781" stroke="#111111" stroke-width="0.24" fill="none" />
  <path d="M46.77919,60.04525 L46.95352,60.28824" stroke="#111111" stroke-width="0.24" fill="none" />
  <path d="M46.95352,74.96481 L46.95352,60.28824" stroke="#111111" stroke-width="0.24" fill="none" />
  <path d="M46.95352,74.96481 L46.77919,75.20779 C46.59309,75.33948 46.12355,75.33948 45.93745,75.20779 L45.76312,74.96481" stroke="#111111" stroke-width="0.24" fill="none" />
  <path d="M75.5246,58.12564 L75.35027,57.88265" stroke="#111111" stroke-width="0.24" fill="none" />
  <path d="M75.35027,43.20609 L75.5246,42.9631 C75.71071,42.83141 76.18024,42.83141 76.36635,42.9631 L76.54068,43.20609" stroke="#111111" stroke-width="0.24" fill="none" />
  <path d="M76.54068,57.88265 L76.36635,58.12564 C76.18024,58.25733 75.71071,58.25733 75.5246,58.12564" stroke="#111111" stroke-width="0.24" fill="none" />
  <path d="M20.40685,64.40973 L71.71931,34.78447" stroke="#111111" stroke-width="0.24" fill="none" />
  <path d="M75.3503,43.86562 L46.95158,60.26163" stroke="#111111" stroke-width="0.24" fill="none" />
  <path d="M45.76293,60.9479 L30.08686,69.99848" stroke="#111111" stroke-width="0.24" fill="none" />
  <path d="M76.54068,43.20609 L76.54068,57.88265" stroke="#111111" stroke-width="0.24" fill="none" />
  <path d="M65.72429,51.63781 L65.54996,51.88079 C65.36386,52.01249 64.89433,52.01249 64.70822,51.88079" stroke="#111111" stroke-width="0.24" fill="none" />
  <path d="M45.76312,62.95767 L45.76312,74.96481" stroke="#111111" stroke-width="0.24" fill="none" />
  <path d="M46.95352,60.28824 L46.77919,60.53123 C46.59309,60.66292 46.12355,60.66292 45.93745,60.53123 L45.76312,60.28824" stroke="#111111" stroke-width="0.24" fill="none" />
  <path d="M30.08686,69.99848 L20.40685,64.40973" stroke="#111111" stroke-width="0.24" fill="none" />
  <path d="M30.08686,70.58166 L30.08686,69.99848" stroke="#111111" stroke-width="0.24" fill="none" />
  <path d="M64.53389,36.96125 L64.53389,38.93281" stroke="#111111" stroke-width="0.24" fill="none" />
  <path d="M36.13713,68.71996 L36.13713,67.08846" stroke="#111111" stroke-width="0.24" fill="none" />
</svg>