<?xml version="1.0" encoding="utf-8" standalone="no"?>
<!DOCTYPE svg PUBLIC "-//W3C//DTD SVG 1.1//EN" "http://www.w3.org/Graphics/SVG/1.1/DTD/svg11.dtd">
<svg version="1.1" width="120pt" height="120pt" viewBox="0 0 120 120" overflow="visible" xmlns="http://www.w3.org/2000/svg">
  <path d="M40.54435,83.45511 L40.54435,84.03828 L30.86434,78.44953 L30.86434,77.86636 z" stroke="Black" stroke-width="0" fill="#BBBBBB" fill-opacity="1" />
  <path d="M40.54435,68.63276 L40.54435,69.21593 L30.86434,63.62718 L30.86434,63.044 z" stroke="Black" stroke-width="0" fill="#BBBBBB" fill-opacity="1" />
  <path d="M85.80607,42.50089 L85.80607,43.08406 L57.40931,59.47894 L57.40931,58.92353 z" stroke="Black" stroke-width="0" fill="#CCCCCC" fill-opacity="1" />
  <path d="M86.99647,42.39679 L86.99647,41.84138 L91.85681,39.00749 L91.85681,39.59067 z" stroke="Black" stroke-width="0" fill="#CCCCCC" fill-opacity="1" />
  <path d="M85.80607,57.90642 L57.40931,74.30129 L57.40931,73.71812 L85.80607,57.32324 z" stroke="Black" stroke-width="0" fill="#CCCCCC" fill-opacity="1" />
  <path d="M56.21891,60.16622 L40.54435,69.21593 L40.54435,68.63276 L56.21891,59.58304 z" stroke="Black" stroke-width="0" fill="#CCCCCC" fill-opacity="1" />
  <path d="M86.99647,57.21914 L86.99647,56.63596 L91.85681,53.82985 L91.85681,54.41302 z" stroke="Black" stroke-width="0" fill="#CCCCCC" fill-opacity="1" />
  <path d="M56.21891,74.98857 L40.54435,84.03828 L40.54435,83.45511 L56.21891,74.4054 z" stroke="Black" stroke-width="0" fill="#CCCCCC" fill-opacity="1" />
  <path d="M57.40931,62.54061 L82.1768,48.24109 L85.806,50.33637 L85.80607,57.32324 L57.40931,73.71812 z" stroke="Black" stroke-width="0" fill="#EEEEEE" fill-opacity="1" />
  <path d="M86.99647,51.02372 L91.85681,53.82985 L86.99647,56.63596 z" stroke="Black" stroke-width="0" fill="#EEEEEE" fill-opacity="1" />
  <path d="M40.54435,68.63276 L30.86434,63.044 L82.1768,33.41874 L91.85681,39.00749 L86.99467,41.81465 L86.82214,41.59839 C86.63604,41.4667 86.1665,41.4667 85.9804,41.59839 L85.80607,41.84138 L85.80607,42.50089 L57.40751,58.8968 L57.23498,58.68054 C57.04888,58.54885 56.57934,58.54885 56.39324,58.68054 L56.21891,58.92353 L56.21891,59.58304 z" stroke="Black" stroke-width="0" fill="#EEEEEE" fill-opacity="1" />
  <path d="M30.86434,77.86636 L56.21891,63.22788 L56.21891,74.4054 L40.54435,83.45511 z" stroke="Black" stroke-width="0" fill="#EEEEEE" fill-opacity="1" />
  <path d="M85.80607,43.53885 L85.41222,43.31146 L85.80607,43.08406 z" stroke="Black" stroke-width="0" fill="#555555" fill-opacity="1" />
  <path d="M46.5928,52.6876 L46.41862,52.9217 C46.23252,53.05338 45.76299,53.05338 45.57689,52.9217 L45.40265,52.6876 L45.57689,52.43572 C45.76299,52.30403 46.23252,52.30403 46.41862,52.43572 z" stroke="Black" stroke-width="0" fill="#555555" fill-opacity="1" />
  <path d="M55.82505,75.21597 L56.21891,74.98857 L56.21887,75.44324 z" stroke="Black" stroke-width="0" fill="#555555" fill-opacity="1" />
  <path d="M56.21891,60.62101 L55.82505,60.39361 L56.21891,60.16622 z" stroke="Black" stroke-width="0" fill="#555555" fill-opacity="1" />
  <path d="M85.41222,58.13381 L85.80607,57.90642 L85.80607,58.3612 z" stroke="Black" stroke-width="0" fill="#555555" fill-opacity="1" />
  <path d="M76.17996,35.60545 L76.00578,35.83954 C75.81968,35.97123 75.35014,35.97123 75.16404,35.83954 L74.98981,35.60545 L75.16404,35.35356 C75.35014,35.22187 75.81968,35.22187 76.00578,35.35356 z" stroke="Black" stroke-width="0" fill="#555555" fill-opacity="1" />
  <path d="M86.99637,41.85027 L86.82214,42.08437 C86.63604,42.21606 86.1665,42.21606 85.9804,42.08437 L85.80617,41.85027 L85.9804,41.59839 C86.1665,41.4667 86.63604,41.4667 86.82214,41.59839 z" stroke="Black" stroke-width="0" fill="#555555" fill-opacity="1" />
  <path d="M57.40921,58.93243 L57.23498,59.16652 C57.04888,59.29821 56.57934,59.29821 56.39324,59.16652 L56.21901,58.93243 L56.39324,58.68054 C56.57934,58.54885 57.04888,58.54885 57.23498,58.68054 z" stroke="Black" stroke-width="0" fill="#555555" fill-opacity="1" />
  <path d="M56.21887,75.44324 L56.21891,61.59296 L54.98331,60.87959 L55.82505,60.39361 L56.21891,60.62101 L56.21901,58.93243 L56.39324,59.16652 C56.57934,59.29821 57.04888,59.29821 57.23498,59.16652 L57.40921,58.93243 L57.40931,79.43184 L57.23498,79.67483 C57.04888,79.80652 56.57934,79.80652 56.39324,79.67483 L56.21891,79.43184 L56.21891,76.41531 L54.98331,75.70194 L55.82505,75.21597 z" stroke="Black" stroke-width="0" fill="#777777" fill-opacity="1" />
  <path d="M86.99637,41.85027 L86.99647,62.34968 L86.82214,62.59267 C86.63604,62.72436 86.1665,62.72436 85.9804,62.59267 L85.80607,62.34968 L85.80607,59.33316 L84.57047,58.61979 L85.41222,58.13381 L85.80607,58.3612 L85.80607,44.51081 L84.57047,43.79744 L85.41222,43.31146 L85.80607,43.53885 L85.80617,41.85027 L85.9804,42.08437 C86.1665,42.21606 86.63604,42.21606 86.82214,42.08437 z" stroke="Black" stroke-width="0" fill="#777777" fill-opacity="1" />
  <path d="M76.18018,36.88083 L74.98972,37.5682 L74.98981,35.60545 L75.16404,35.83954 C75.35014,35.97123 75.81968,35.97123 76.00578,35.83954 L76.17996,35.60545 z" stroke="Black" stroke-width="0" fill="#777777" fill-opacity="1" />
  <path d="M46.59295,53.96308 L45.40255,54.65036 L45.40265,52.6876 L45.57689,52.9217 C45.76299,53.05338 46.23252,53.05338 46.41862,52.9217 L46.5928,52.6876 z" stroke="Black" stroke-width="0" fill="#777777" fill-opacity="1" />
  <path d="M74.98972,49.32889 L76.18011,48.64161 L76.18015,51.70324 L75.22711,52.25346 L74.98972,52.39056 z" stroke="Black" stroke-width="0" fill="#777777" fill-opacity="1" />
  <path d="M46.59296,68.78543 L45.40255,69.47271 L45.40255,66.41104 L46.59295,65.72377 z" stroke="Black" stroke-width="0" fill="#777777" fill-opacity="1" />
  <path d="M45.40258,66.41107 L40.54437,69.21596" stroke="#000000" stroke-width="0.24" fill="none" />
  <path d="M45.40255,52.67871 L45.57689,52.43572" stroke="#000000" stroke-width="0.24" fill="none" />
  <path d="M56.39324,79.67483 L56.21891,79.43184" stroke="#000000" stroke-width="0.24" fill="none" />
  <path d="M46.41862,52.43572 L46.59295,52.67871" stroke="#000000" stroke-width="0.24" fill="none" />
  <path d="M45.57689,52.43572 C45.76299,52.30403 46.23252,52.30403 46.41862,52.43572" stroke="#000000" stroke-width="0.24" fill="none" />
  <path d="M56.21891,61.59296 L56.21891,75.44316" stroke="#000000" stroke-width="0.24" fill="none" />
  <path d="M85.80607,44.5107 L85.80607,58.3612" stroke="#000000" stroke-width="0.24" fill="none" />
  <path d="M82.17683,48.24111 L85.80603,50.3364" stroke="#000000" stroke-width="0.24" fill="none" />
  <path d="M76.18015,51.70325 L82.17683,48.24111" stroke="#000000" stroke-width="0.24" fill="none" />
  <path d="M57.40931,79.43184 L57.40931,58.92353" stroke="#000000" stroke-width="0.24" fill="none" />
  <path d="M57.40934,62.54063 L74.98974,52.39058" stroke="#000000" stroke-width="0.24" fill="none" />
  <path d="M30.86436,63.04403 L82.17683,33.41876" stroke="#000000" stroke-width="0.24" fill="none" />
  <path d="M76.00578,35.35356 L76.18011,35.59655" stroke="#000000" stroke-width="0.24" fill="none" />
  <path d="M57.23498,79.67483 C57.04888,79.80652 56.57934,79.80652 56.39324,79.67483" stroke="#000000" stroke-width="0.24" fill="none" />
  <path d="M40.54437,84.03831 L30.86436,78.44955" stroke="#000000" stroke-width="0.24" fill="none" />
  <path d="M91.85683,53.82987 L91.85683,54.41304" stroke="#000000" stroke-width="0.24" fill="none" />
  <path d="M56.21894,74.98859 L40.54437,84.03831" stroke="#000000" stroke-width="0.24" fill="none" />
  <path d="M56.21894,60.16624 L40.54437,69.21596" stroke="#000000" stroke-width="0.24" fill="none" />
  <path d="M57.40934,59.47896 L57.40934,62.54063" stroke="#000000" stroke-width="0.24" fill="none" />
  <path d="M30.86436,63.6272 L30.86436,63.04403" stroke="#000000" stroke-width="0.24" fill="none" />
  <path d="M56.21891,58.92353 L56.21891,60.62101" stroke="#000000" stroke-width="0.24" fill="none" />
  <path d="M85.80607,41.84138 L85.80607,43.53885" stroke="#000000" stroke-width="0.24" fill="none" />
  <path d="M74.98974,37.56823 L74.98974,35.59658" stroke="#000000" stroke-width="0.24" fill="none" />
  <path d="M74.98974,52.39058 L74.98974,49.32891" stroke="#000000" stroke-width="0.24" fill="none" />
  <path d="M56.21894,61.59299 L54.98334,60.87962" stroke="#000000" stroke-width="0.24" fill="none" />
  <path d="M85.80609,43.08409 L57.40934,59.47896" stroke="#000000" stroke-width="0.24" fill="none" />
  <path d="M54.98334,60.87962 L46.59298,65.72379" stroke="#000000" stroke-width="0.24" fill="none" />
  <path d="M30.86436,77.86638 L56.21894,63.22791" stroke="#000000" stroke-width="0.24" fill="none" />
  <path d="M45.40258,54.65038 L45.40258,52.67873" stroke="#000000" stroke-width="0.24" fill="none" />
  <path d="M76.18004,35.60547 L76.18018,36.88081" stroke="#000000" stroke-width="0.24" fill="none" />
  <path d="M82.17683,33.41876 L91.85683,39.00751" stroke="#000000" stroke-width="0.24" fill="none" />
  <path d="M86.99647,62.34968 L86.82214,62.59267" stroke="#000000" stroke-width="0.24" fill="none" />
  <path d="M40.54437,69.21596 L30.86436,63.6272" stroke="#000000" stroke-width="0.24" fill="none" />
  <path d="M85.80609,62.34971 L85.80609,59.33319" stroke="#000000" stroke-width="0.24" fill="none" />
  <path d="M30.86436,77.86638 L45.40258,69.47273" stroke="#000000" stroke-width="0.24" fill="none" />
  <path d="M57.40934,74.30132 L57.40934,79.43186" stroke="#000000" stroke-width="0.24" fill="none" />
  <path d="M85.9804,62.59267 L85.80607,62.34968" stroke="#000000" stroke-width="0.24" fill="none" />
  <path d="M54.98334,75.70197 L40.54437,84.03831" stroke="#000000" stroke-width="0.24" fill="none" />
  <path d="M85.80609,57.90644 L57.40924,74.30137" stroke="#000000" stroke-width="0.24" fill="none" />
  <path d="M91.85683,39.00751 L91.85683,39.59069" stroke="#000000" stroke-width="0.24" fill="none" />
  <path d="M56.21894,63.22791 L56.21894,61.59299" stroke="#000000" stroke-width="0.24" fill="none" />
  <path d="M56.21894,76.41534 L54.98334,75.70197" stroke="#000000" stroke-width="0.24" fill="none" />
  <path d="M45.40258,69.47273 L45.40258,66.41107" stroke="#000000" stroke-width="0.24" fill="none" />
  <path d="M86.82214,62.59267 C86.63604,62.72436 86.1665,62.72436 85.9804,62.59267" stroke="#000000" stroke-width="0.24" fill="none" />
  <path d="M85.80603,50.3364 L85.80609,44.51083" stroke="#000000" stroke-width="0.24" fill="none" />
  <path d="M85.80607,41.84138 L85.9804,41.59839 C86.1665,41.4667 86.63604,41.4667 86.82214,41.59839 L86.99647,41.84138" stroke="#000000" stroke-width="0.24" fill="none" />
  <path d="M86.99649,57.21916 L86.99649,62.34971" stroke="#000000" stroke-width="0.24" fill="none" />
  <path d="M86.99649,42.39681 L86.99649,51.02375" stroke="#000000" stroke-width="0.24" fill="none" />
  <path d="M46.59298,68.78545 L56.21894,63.22791" stroke="#000000" stroke-width="0.24" fill="none" />
  <path d="M86.99647,41.84138 L86.99647,62.34968" stroke="#000000" stroke-width="0.24" fill="none" />
  <path d="M46.59288,52.68763 L46.59298,53.9631 L74.98974,37.56823" stroke="#000000" stroke-width="0.24" fill="none" />
  <path d="M84.5705,43.79746 L76.18014,48.64164" stroke="#000000" stroke-width="0.24" fill="none" />
  <path d="M57.40934,62.54063 L82.17683,48.24111" stroke="#000000" stroke-width="0.24" fill="none" />
  <path d="M56.21891,58.92353 L56.39324,58.68054 C56.57934,58.54885 57.04888,58.54885 57.23498,58.68054" stroke="#000000" stroke-width="0.24" fill="none" />
  <path d="M85.80609,44.51083 L84.5705,43.79746" stroke="#000000" stroke-width="0.24" fill="none" />
  <path d="M76.18014,48.64164 L76.18015,51.70325" stroke="#000000" stroke-width="0.24" fill="none" />
  <path d="M57.23498,58.68054 L57.40931,58.92353" stroke="#000000" stroke-width="0.24" fill="none" />
  <path d="M46.59298,65.72379 L46.59298,68.78545" stroke="#000000" stroke-width="0.24" fill="none" />
  <path d="M74.98972,35.59655 L75.16404,35.35356 C75.35014,35.22187 75.81968,35.22187 76.00578,35.35356" stroke="#000000" stroke-width="0.24" fill="none" />
  <path d="M30.86436,63.04403 L45.40258,54.65038" stroke="#000000" stroke-width="0.24" fill="none" />
  <path d="M74.98974,49.32891 L57.40934,59.47896" stroke="#000000" stroke-width="0.24" fill="none" />
  <path d="M76.18018,36.88081 L82.17683,33.41876" stroke="#000000" stroke-width="0.24" fill="none" />
  <path d="M86.99649,51.02375 L91.85683,53.82987" stroke="#000000" stroke-width="0.24" fill="none" />
  <path d="M91.85683,54.41304 L86.99649,57.21916" stroke="#000000" stroke-width="0.24" fill="none" />
  <path d="M84.5705,58.61981 L57.40934,74.30132" stroke="#000000" stroke-width="0.24" fill="none" />
  <path d="M91.85683,39.59069 L86.99649,42.39681" stroke="#000000" stroke-width="0.24" fill="none" />
  <path d="M85.80609,59.33319 L84.5705,58.61981" stroke="#000000" stroke-width="0.24" fill="none" />
  <path d="M30.86436,78.44955 L30.86436,77.86638" stroke="#000000" stroke-width="0.24" fill="none" />
  <path d="M56.21894,79.43186 L56.21894,76.41534" stroke="#000000" stroke-width="0.24" fill="none" />
  <path d="M57.40931,79.43184 L57.23498,79.67483" stroke="#000000" stroke-width="0.24" fill="none" />
  <path d="M54.98315,60.87951 L56.39326,61.69364" stroke="#111111" stroke-width="0.24" fill="none" />
  <path d="M85.80609,42.50091 L57.40753,58.89683" stroke="#111111" stroke-width="0.24" fill="none" />
  <path d="M56.21894,60.16624 L40.54437,69.21596" stroke="#111111" stroke-width="0.24" fill="none" />
  <path d="M76.18011,36.8807 L76.18011,35.59655 L76.00578,35.83954 C75.81968,35.97123 75.35014,35.97123 75.16404,35.83954 L75.16404,35.35356 C75.35014,35.22187 75.81968,35.22187 76.00578,35.35356 L76.18011,35.59655" stroke="#111111" stroke-width="0.24" fill="none" />
  <path d="M86.99647,41.84138 L86.82214,42.08437 C86.63604,42.21606 86.1665,42.21606 85.9804,42.08437" stroke="#111111" stroke-width="0.24" fill="none" />
  <path d="M56.21894,59.58307 L40.54437,68.63278" stroke="#111111" stroke-width="0.24" fill="none" />
  <path d="M46.59295,53.96308 L46.59295,52.67871" stroke="#111111" stroke-width="0.24" fill="none" />
  <path d="M45.40255,66.41104 L45.40255,69.47271" stroke="#111111" stroke-width="0.24" fill="none" />
  <path d="M46.59295,68.78542 L46.59295,65.72377" stroke="#111111" stroke-width="0.24" fill="none" />
  <path d="M85.80609,57.32327 L57.40916,73.71825" stroke="#111111" stroke-width="0.24" fill="none" />
  <path d="M86.9963,51.02364 L91.85683,53.82987" stroke="#111111" stroke-width="0.24" fill="none" />
  <path d="M45.40255,52.67871 L45.57689,52.43572 C45.76299,52.30403 46.23252,52.30403 46.41862,52.43572" stroke="#111111" stroke-width="0.24" fill="none" />
  <path d="M45.40255,52.67871 L45.40255,54.65036" stroke="#111111" stroke-width="0.24" fill="none" />
  <path d="M46.41862,52.43572 L46.59295,52.67871" stroke="#111111" stroke-width="0.24" fill="none" />
  <path d="M85.9804,42.08437 L85.80607,41.84138" stroke="#111111" stroke-width="0.24" fill="none" />
  <path d="M86.99647,62.34968 L86.82214,62.59267 C86.63604,62.72436 86.1665,62.72436 85.9804,62.59267 L85.80607,62.34968" stroke="#111111" stroke-width="0.24" fill="none" />
  <path d="M91.85683,54.41304 L86.99649,57.21916" stroke="#111111" stroke-width="0.24" fill="none" />
  <path d="M56.21891,76.41531 L56.21891,79.43184" stroke="#111111" stroke-width="0.24" fill="none" />
  <path d="M40.54437,83.45513 L30.86436,77.86638" stroke="#111111" stroke-width="0.24" fill="none" />
  <path d="M91.85683,54.41304 L91.85683,53.82987" stroke="#111111" stroke-width="0.24" fill="none" />
  <path d="M40.54437,84.03831 L40.54437,83.45513" stroke="#111111" stroke-width="0.24" fill="none" />
  <path d="M30.86436,78.44955 L30.86436,77.86638" stroke="#111111" stroke-width="0.24" fill="none" />
  <path d="M40.54437,84.03831 L30.86436,78.44955" stroke="#111111" stroke-width="0.24" fill="none" />
  <path d="M57.40931,58.92353 L57.23498,59.16652 C57.04888,59.29821 56.57934,59.29821 56.39324,59.16652 L56.21891,58.92353" stroke="#111111" stroke-width="0.24" fill="none" />
  <path d="M57.40931,79.43184 L57.23498,79.67483 C57.04888,79.80652 56.57934,79.80652 56.39324,79.67483 L56.21891,79.43184" stroke="#111111" stroke-width="0.24" fill="none" />
  <path d="M91.85683,39.00751 L86.99469,41.81468" stroke="#111111" stroke-width="0.24" fill="none" />
  <path d="M91.85683,39.59069 L86.99649,42.39681" stroke="#111111" stroke-width="0.24" fill="none" />
  <path d="M82.17683,33.41876 L91.85683,39.00751" stroke="#111111" stroke-width="0.24" fill="none" />
  <path d="M40.54437,69.21596 L40.54437,68.63278" stroke="#111111" stroke-width="0.24" fill="none" />
  <path d="M30.86436,63.6272 L30.86436,63.04403" stroke="#111111" stroke-width="0.24" fill="none" />
  <path d="M40.54437,69.21596 L30.86436,63.6272" stroke="#111111" stroke-width="0.24" fill="none" />
  <path d="M40.54437,68.63278 L30.86436,63.04403" stroke="#111111" stroke-width="0.24" fill="none" />
  <path d="M56.21891,58.92353 L56.39324,58.68054 C56.57934,58.54885 57.04888,58.54885 57.23498,58.68054" stroke="#111111" stroke-width="0.24" fill="none" />
  <path d="M82.17683,48.24111 L85.80596,50.3364" stroke="#111111" stroke-width="0.24" fill="none" />
  <path d="M91.85683,53.82987 L86.99649,56.63599" stroke="#111111" stroke-width="0.24" fill="none" />
  <path d="M56.21894,74.40542 L40.54437,83.45513" stroke="#111111" stroke-width="0.24" fill="none" />
  <path d="M46.59295,52.67871 L46.41862,52.9217 C46.23252,53.05338 45.76299,53.05338 45.57689,52.9217 L45.40255,52.67871" stroke="#111111" stroke-width="0.24" fill="none" />
  <path d="M85.80607,59.33316 L85.80607,62.34968" stroke="#111111" stroke-width="0.24" fill="none" />
  <path d="M74.98972,35.59655 L74.98972,37.5682" stroke="#111111" stroke-width="0.24" fill="none" />
  <path d="M75.16404,35.83954 L74.98972,35.59655" stroke="#111111" stroke-width="0.24" fill="none" />
  <path d="M76.18011,51.70319 L76.18011,48.64161" stroke="#111111" stroke-width="0.24" fill="none" />
  <path d="M91.85683,39.59069 L91.85683,39.00751" stroke="#111111" stroke-width="0.24" fill="none" />
  <path d="M74.98972,49.32885 L74.98972,52.39056" stroke="#111111" stroke-width="0.24" fill="none" />
  <path d="M30.86436,63.04403 L82.17683,33.41876" stroke="#111111" stroke-width="0.24" fill="none" />
  <path d="M85.80609,43.08409 L57.40934,59.47896" stroke="#111111" stroke-width="0.24" fill="none" />
  <path d="M55.82505,60.39362 L56.39326,60.72168" stroke="#111111" stroke-width="0.24" fill="none" />
  <path d="M57.23498,58.68054 L57.40931,58.92353" stroke="#111111" stroke-width="0.24" fill="none" />
  <path d="M57.40931,79.43184 L57.40931,58.92353" stroke="#111111" stroke-width="0.24" fill="none" />
  <path d="M85.98042,44.61148 L84.57045,43.79743" stroke="#111111" stroke-width="0.24" fill="none" />
  <path d="M85.98042,43.63953 L85.41209,43.31139" stroke="#111111" stroke-width="0.24" fill="none" />
  <path d="M85.80607,41.84138 L85.9804,41.59839 C86.1665,41.4667 86.63604,41.4667 86.82214,41.59839 L86.99647,41.84138 L86.99647,62.34968" stroke="#111111" stroke-width="0.24" fill="none" />
  <path d="M85.80607,44.5107 L85.80607,58.3612" stroke="#111111" stroke-width="0.24" fill="none" />
  <path d="M85.80607,41.84138 L85.80607,43.53885" stroke="#111111" stroke-width="0.24" fill="none" />
  <path d="M54.98312,75.70184 L56.39326,76.51599" stroke="#111111" stroke-width="0.24" fill="none" />
  <path d="M55.82501,75.21595 L56.39326,75.54403" stroke="#111111" stroke-width="0.24" fill="none" />
  <path d="M56.21894,74.98859 L40.54437,84.03831" stroke="#111111" stroke-width="0.24" fill="none" />
  <path d="M85.80609,57.90644 L57.40924,74.30137" stroke="#111111" stroke-width="0.24" fill="none" />
  <path d="M57.40934,62.54063 L82.17683,48.24111" stroke="#111111" stroke-width="0.24" fill="none" />
  <path d="M30.86436,77.86638 L56.21894,63.22791" stroke="#111111" stroke-width="0.24" fill="none" />
  <path d="M85.98042,59.43383 L84.57024,58.61967" stroke="#111111" stroke-width="0.24" fill="none" />
  <path d="M85.98042,58.46188 L85.41214,58.13378" stroke="#111111" stroke-width="0.24" fill="none" />
  <path d="M56.21891,61.59296 L56.21891,75.44316" stroke="#111111" stroke-width="0.24" fill="none" />
  <path d="M56.21891,58.92353 L56.21891,60.62101" stroke="#111111" stroke-width="0.24" fill="none" />
</svg>