<?xml version="1.0" encoding="utf-8" standalone="no"?>
<!DOCTYPE svg PUBLIC "-//W3C//DTD SVG 1.1//EN" "http://www.w3.org/Graphics/SVG/1.1/DTD/svg11.dtd">
<svg version="1.1" width="120pt" height="120pt" viewBox="0 0 120 120" overflow="visible" xmlns="http://www.w3.org/2000/svg">
  <path d="M44.77676,52.48218 L44.77666,53.02869 L30.23675,44.63407 L30.23675,44.05089 z" stroke="Black" stroke-width="0" fill="#BBBBBB" fill-opacity="1" />
  <path d="M45.96706,53.71597 L45.96706,53.13279 L74.36562,69.52871 L74.36382,70.11084 z" stroke="Black" stroke-width="0" fill="#BBBBBB" fill-opacity="1" />
  <path d="M81.54922,73.67616 L81.54922,74.25933 L75.55422,70.79812 L75.55422,70.21494 z" stroke="Black" stroke-width="0" fill="#BBBBBB" fill-opacity="1" />
  <path d="M81.54922,74.25933 L81.54922,73.67616 L91.22923,68.0874 L91.22923,68.67058 z" stroke="Black" stroke-width="0" fill="#CCCCCC" fill-opacity="1" />
  <path d="M74.53815,69.31245 L74.36562,69.52871 L45.96706,53.13279 L45.96696,52.48218 L45.79273,52.23029 C45.60663,52.0986 45.13709,52.0986 44.95099,52.23029 L44.77847,52.44656 L30.23675,44.05089 L39.91676,38.46214 L91.22923,68.0874 L81.54922,73.67616 L75.55422,70.21494 L75.55412,69.56433 L75.37989,69.31245 C75.19379,69.18076 74.72425,69.18076 74.53815,69.31245 z" stroke="Black" stroke-width="0" fill="#EEEEEE" fill-opacity="1" />
  <path d="M45.96706,52.47328 L45.79273,52.71627 C45.60663,52.84796 45.13709,52.84796 44.95099,52.71627 L44.77666,52.47328 L44.95099,52.23029 C45.13709,52.0986 45.60663,52.0986 45.79273,52.23029 z" stroke="Black" stroke-width="0" fill="#555555" fill-opacity="1" />
  <path d="M45.96706,53.71597 L46.36092,53.94336 L45.96706,54.17075 z" stroke="Black" stroke-width="0" fill="#555555" fill-opacity="1" />
  <path d="M75.55422,69.55544 L75.37989,69.79842 C75.19379,69.93011 74.72425,69.93011 74.53815,69.79842 L74.36382,69.55544 L74.53815,69.31245 C74.72425,69.18076 75.19379,69.18076 75.37989,69.31245 z" stroke="Black" stroke-width="0" fill="#555555" fill-opacity="1" />
  <path d="M86.37051,63.31948 L86.19627,63.55358 C86.01017,63.68527 85.54063,63.68527 85.35453,63.55358 L85.18021,63.31059 L85.35453,63.0676 C85.54063,62.93592 86.01017,62.93592 86.19627,63.0676 z" stroke="Black" stroke-width="0" fill="#555555" fill-opacity="1" />
  <path d="M75.55424,71.25286 L75.55422,70.79812 L75.94807,71.02551 z" stroke="Black" stroke-width="0" fill="#555555" fill-opacity="1" />
  <path d="M56.78334,46.23733 L56.60912,46.47143 C56.42302,46.60312 55.95348,46.60312 55.76738,46.47143 L55.59304,46.22844 L55.76738,45.98545 C55.95348,45.85376 56.42302,45.85376 56.60912,45.98545 z" stroke="Black" stroke-width="0" fill="#555555" fill-opacity="1" />
  <path d="M75.55422,72.22487 L75.55422,84.23199 L75.37989,84.47498 C75.19379,84.60667 74.72425,84.60667 74.53815,84.47498 L74.36382,84.23199 L74.36391,69.56433 L74.53815,69.79842 C74.72425,69.93011 75.19379,69.93011 75.37989,69.79842 L75.55412,69.56433 L75.55424,71.25286 L75.94807,71.02551 L76.78982,71.51149 z" stroke="Black" stroke-width="0" fill="#777777" fill-opacity="1" />
  <path d="M85.18021,72.16298 L86.37061,71.4757 L86.37061,77.98715 L86.19627,78.23014 C86.01017,78.36183 85.54063,78.36183 85.35453,78.23014 L85.18021,77.98715 z" stroke="Black" stroke-width="0" fill="#777777" fill-opacity="1" />
  <path d="M56.60912,46.47143 L56.78334,46.23733 L56.78344,48.20012 L55.59304,47.51284 L55.59314,46.23734 L55.76738,46.47143 C55.95348,46.60312 56.42302,46.60312 56.60912,46.47143 z" stroke="Black" stroke-width="0" fill="#777777" fill-opacity="1" />
  <path d="M55.59304,60.905 L55.59304,59.27353 L56.78344,59.96081 L56.78344,60.905 L56.60912,61.14799 C56.42302,61.27968 55.95348,61.27968 55.76738,61.14799 z" stroke="Black" stroke-width="0" fill="#777777" fill-opacity="1" />
  <path d="M44.77666,67.14984 L44.77676,52.48218 L44.95099,52.71627 C45.13709,52.84796 45.60663,52.84796 45.79273,52.71627 L45.96696,52.48218 L45.96706,54.17075 L46.36092,53.94336 L47.20266,54.42934 L45.96706,55.14271 L45.96706,67.14984 L45.79273,67.39283 C45.60663,67.52452 45.13709,67.52452 44.95099,67.39283 z" stroke="Black" stroke-width="0" fill="#777777" fill-opacity="1" />
  <path d="M85.18019,64.59496 L85.18031,63.31949 L85.35453,63.55358 C85.54063,63.68527 86.01017,63.68527 86.19627,63.55358 L86.37051,63.31948 L86.37056,65.28215 z" stroke="Black" stroke-width="0" fill="#777777" fill-opacity="1" />
  <path d="M44.77666,67.14984 L44.77666,53.02869 L30.23675,44.63407 L30.23675,44.05089 L39.91676,38.46214 L55.59304,47.51284 L55.59314,46.23734 L55.76738,45.98545 C55.95348,45.85376 56.42302,45.85376 56.60912,45.98545 L56.78344,46.22844 L56.78344,48.20012 L85.18019,64.59496 L85.18031,63.31949 L85.35453,63.0676 C85.54063,62.93592 86.01017,62.93592 86.19627,63.0676 L86.37061,63.31059 L86.37056,65.28215 L91.22923,68.0874 L91.22923,68.67058 L86.37061,71.4757 L86.37061,77.98715" stroke="#000000" stroke-width="0.24" fill="none" />
  <path d="M74.36385,84.23202 L74.36385,70.11087 L56.78347,59.96083 L56.78347,60.90502" stroke="#000000" stroke-width="0.24" fill="none" />
  <path d="M85.18023,77.98717 L85.18023,72.16301 L81.54924,74.25935 L76.78984,71.51152 L75.55424,72.22489 L75.55424,84.23202" stroke="#000000" stroke-width="0.24" fill="none" />
  <path d="M75.55422,69.55544 L75.37989,69.31245 C75.19379,69.18076 74.72425,69.18076 74.53815,69.31245" stroke="#000000" stroke-width="0.24" fill="none" />
  <path d="M91.22925,68.08743 L39.91678,38.46216" stroke="#000000" stroke-width="0.24" fill="none" />
  <path d="M74.53815,69.31245 L74.36382,69.55544" stroke="#000000" stroke-width="0.24" fill="none" />
  <path d="M75.55422,69.55544 L75.55422,71.25283" stroke="#000000" stroke-width="0.24" fill="none" />
  <path d="M45.96706,52.47328 L45.96706,54.17075" stroke="#000000" stroke-width="0.24" fill="none" />
  <path d="M45.96706,52.47328 L45.79273,52.23029 C45.60663,52.0986 45.13709,52.0986 44.95099,52.23029 L44.77666,52.47328" stroke="#000000" stroke-width="0.24" fill="none" />
  <path d="M44.77666,67.14984 L44.77666,52.47328" stroke="#000000" stroke-width="0.24" fill="none" />
  <path d="M55.59307,60.90502 L55.59307,59.27356 L47.20268,54.42936 L45.96708,55.14273 L45.96708,67.14986" stroke="#000000" stroke-width="0.24" fill="none" />
  <path d="M75.37994,72.32552 L76.79002,71.51141" stroke="#111111" stroke-width="0.24" fill="none" />
  <path d="M75.37994,71.35357 L75.94812,71.02553" stroke="#111111" stroke-width="0.24" fill="none" />
  <path d="M47.20289,54.42924 L45.79278,55.24337" stroke="#111111" stroke-width="0.24" fill="none" />
  <path d="M46.36099,53.94336 L45.79278,54.27141" stroke="#111111" stroke-width="0.24" fill="none" />
  <path d="M85.18021,77.98715 L85.35453,78.23014 C85.54063,78.36183 86.01017,78.36183 86.19627,78.23014 L86.37061,77.98715" stroke="#111111" stroke-width="0.24" fill="none" />
  <path d="M55.59304,60.905 L55.76738,61.14799 C55.95348,61.27968 56.42302,61.27968 56.60912,61.14799" stroke="#111111" stroke-width="0.24" fill="none" />
  <path d="M44.77666,67.14984 L44.95099,67.39283 C45.13709,67.52452 45.60663,67.52452 45.79273,67.39283 L45.96706,67.14984" stroke="#111111" stroke-width="0.24" fill="none" />
  <path d="M74.36382,84.23199 L74.53815,84.47498 C74.72425,84.60667 75.19379,84.60667 75.37989,84.47498 L75.55422,84.23199" stroke="#111111" stroke-width="0.24" fill="none" />
  <path d="M81.54924,74.25935 L91.22925,68.6706" stroke="#111111" stroke-width="0.24" fill="none" />
  <path d="M75.55424,70.21497 L81.54924,73.67619" stroke="#111111" stroke-width="0.24" fill="none" />
  <path d="M45.96708,53.13282 L74.36565,69.52873" stroke="#111111" stroke-width="0.24" fill="none" />
  <path d="M75.55424,70.79814 L81.54924,74.25935" stroke="#111111" stroke-width="0.24" fill="none" />
  <path d="M45.96708,53.71599 L74.36385,70.11087" stroke="#111111" stroke-width="0.24" fill="none" />
  <path d="M30.23677,44.63409 L44.77689,53.02883" stroke="#111111" stroke-width="0.24" fill="none" />
  <path d="M45.96706,55.14271 L45.96706,67.14984" stroke="#111111" stroke-width="0.24" fill="none" />
  <path d="M81.54924,73.67619 L91.22925,68.08743" stroke="#111111" stroke-width="0.24" fill="none" />
  <path d="M85.18021,64.59494 L85.18021,63.31059" stroke="#111111" stroke-width="0.24" fill="none" />
  <path d="M86.37061,71.4757 L86.37061,77.98715" stroke="#111111" stroke-width="0.24" fill="none" />
  <path d="M56.78344,59.96081 L56.78344,60.905" stroke="#111111" stroke-width="0.24" fill="none" />
  <path d="M85.18021,63.31059 L85.35453,63.55358 C85.54063,63.68527 86.01017,63.68527 86.19627,63.55358 L86.37061,63.31059 L86.19627,63.0676 C86.01017,62.93592 85.54063,62.93592 85.35453,63.0676" stroke="#111111" stroke-width="0.24" fill="none" />
  <path d="M86.37061,63.31059 L86.37061,65.28208" stroke="#111111" stroke-width="0.24" fill="none" />
  <path d="M85.35453,63.0676 L85.18021,63.31059" stroke="#111111" stroke-width="0.24" fill="none" />
  <path d="M55.59304,46.22844 L55.76738,46.47143 C55.95348,46.60312 56.42302,46.60312 56.60912,46.47143 L56.78344,46.22844 L56.78344,48.20012" stroke="#111111" stroke-width="0.24" fill="none" />
  <path d="M55.59304,60.905 L55.59304,59.27353" stroke="#111111" stroke-width="0.24" fill="none" />
  <path d="M44.77666,52.47328 L44.95099,52.71627 C45.13709,52.84796 45.60663,52.84796 45.79273,52.71627 L45.96706,52.47328" stroke="#111111" stroke-width="0.24" fill="none" />
  <path d="M30.23677,44.05092 L44.77849,52.44658" stroke="#111111" stroke-width="0.24" fill="none" />
  <path d="M91.22925,68.6706 L91.22925,68.08743" stroke="#111111" stroke-width="0.24" fill="none" />
  <path d="M81.54924,74.25935 L81.54924,73.67619" stroke="#111111" stroke-width="0.24" fill="none" />
  <path d="M39.91678,38.46216 L30.23677,44.05092" stroke="#111111" stroke-width="0.24" fill="none" />
  <path d="M30.23677,44.63409 L30.23677,44.05092" stroke="#111111" stroke-width="0.24" fill="none" />
  <path d="M74.36382,69.55544 L74.53815,69.79842 C74.72425,69.93011 75.19379,69.93011 75.37989,69.79842 L75.55422,69.55544" stroke="#111111" stroke-width="0.24" fill="none" />
  <path d="M56.78344,46.22844 L56.60912,45.98545 C56.42302,45.85376 55.95348,45.85376 55.76738,45.98545 L55.59304,46.22844" stroke="#111111" stroke-width="0.24" fill="none" />
  <path d="M85.18021,77.98715 L85.18021,72.16298" stroke="#111111" stroke-width="0.24" fill="none" />
  <path d="M55.59304,47.51284 L55.59304,46.22844" stroke="#111111" stroke-width="0.24" fill="none" />
  <path d="M75.55422,72.22487 L75.55422,84.23199" stroke="#111111" stroke-width="0.24" fill="none" />
  <path d="M74.36382,84.23199 L74.36382,69.55544" stroke="#111111" stroke-width="0.24" fill="none" />
  <path d="M56.60912,61.14799 L56.78344,60.905" stroke="#111111" stroke-width="0.24" fill="none" />
</svg>