<?xml version="1.0" encoding="utf-8" standalone="no"?>
<!DOCTYPE svg PUBLIC "-//W3C//DTD SVG 1.1//EN" "http://www.w3.org/Graphics/SVG/1.1/DTD/svg11.dtd">
<svg version="1.1" width="120pt" height="120pt" viewBox="0 0 120 120" overflow="visible" xmlns="http://www.w3.org/2000/svg">
  <path d="M66.08799,61.531 L66.08804,60.94788 L81.76421,69.99846 L81.76421,70.58163 z" stroke="Black" stroke-width="0" fill="#BBBBBB" fill-opacity="1" />
  <path d="M35.31037,43.20609 L35.31037,43.7615 L30.45175,40.95637 L30.45175,40.3732 z" stroke="Black" stroke-width="0" fill="#BBBBBB" fill-opacity="1" />
  <path d="M64.89753,60.84365 L36.50077,44.44877 L36.50077,43.8656 L64.89933,60.26152 z" stroke="Black" stroke-width="0" fill="#BBBBBB" fill-opacity="1" />
  <path d="M81.76421,70.58163 L81.76421,69.99846 L91.44422,64.40971 L91.44422,64.99288 z" stroke="Black" stroke-width="0" fill="#CCCCCC" fill-opacity="1" />
  <path d="M36.50077,43.8656 L36.50077,43.20609 L36.32644,42.9631 C36.14034,42.83141 35.6708,42.83141 35.4847,42.9631 L35.31217,43.17936 L30.45175,40.3732 L40.13176,34.78444 L91.44422,64.40971 L81.76421,69.99846 L66.08804,60.94788 L66.08793,60.28824 L65.9136,60.04525 C65.72749,59.91357 65.25796,59.91357 65.07185,60.04525 L64.89933,60.26152 z" stroke="Black" stroke-width="0" fill="#EEEEEE" fill-opacity="1" />
  <path d="M76.90411,54.05229 L76.72998,54.28639 C76.54388,54.41808 76.07434,54.41808 75.88824,54.28639 L75.71401,54.05229 L75.88824,53.80041 C76.07434,53.66872 76.54388,53.66872 76.72998,53.80041 z" stroke="Black" stroke-width="0" fill="#555555" fill-opacity="1" />
  <path d="M66.08783,60.29713 L65.9136,60.53123 C65.72749,60.66292 65.25796,60.66292 65.07185,60.53123 L64.89763,60.29713 L65.07185,60.04525 C65.25796,59.91357 65.72749,59.91357 65.9136,60.04525 z" stroke="Black" stroke-width="0" fill="#555555" fill-opacity="1" />
  <path d="M66.08793,61.98571 L66.08799,61.531 L66.48179,61.75832 z" stroke="Black" stroke-width="0" fill="#555555" fill-opacity="1" />
  <path d="M35.31217,43.17936 L35.4847,42.9631 C35.6708,42.83141 36.14034,42.83141 36.32644,42.9631 L36.50077,43.20609 L36.32644,43.44908 C36.14034,43.58077 35.6708,43.58077 35.4847,43.44908 z" stroke="Black" stroke-width="0" fill="#555555" fill-opacity="1" />
  <path d="M47.31696,36.97014 L47.14282,37.20424 C46.95672,37.33593 46.48719,37.33593 46.30108,37.20424 L46.12685,36.97014 L46.30108,36.71826 C46.48719,36.58657 46.95672,36.58657 47.14282,36.71826 z" stroke="Black" stroke-width="0" fill="#555555" fill-opacity="1" />
  <path d="M36.89463,44.67617 L36.50077,44.90356 L36.50077,44.44877 z" stroke="Black" stroke-width="0" fill="#555555" fill-opacity="1" />
  <path d="M36.50077,45.87552 L36.50077,57.88265 L36.32644,58.12564 C36.14034,58.25733 35.6708,58.25733 35.4847,58.12564 L35.31037,57.88265 L35.31047,43.21498 L35.4847,43.44908 C35.6708,43.58077 36.14034,43.58077 36.32644,43.44908 L36.50067,43.21498 L36.50077,44.90356 L36.89463,44.67617 L37.73637,45.16215 z" stroke="Black" stroke-width="0" fill="#777777" fill-opacity="1" />
  <path d="M75.71391,68.71996 L75.71391,67.08849 L76.90431,67.77577 L76.90431,68.71996 L76.72998,68.96295 C76.54388,69.09464 76.07434,69.09464 75.88824,68.96295 z" stroke="Black" stroke-width="0" fill="#777777" fill-opacity="1" />
  <path d="M46.12675,38.24565 L46.12685,36.97014 L46.30108,37.20424 C46.48719,37.33593 46.95672,37.33593 47.14282,37.20424 L47.31701,36.97014 L47.31712,38.93288 z" stroke="Black" stroke-width="0" fill="#777777" fill-opacity="1" />
  <path d="M75.71391,55.3278 L75.71401,54.05229 L75.88824,54.28639 C76.07434,54.41808 76.54388,54.41808 76.72998,54.28639 L76.90416,54.05229 L76.90431,56.01508 z" stroke="Black" stroke-width="0" fill="#777777" fill-opacity="1" />
  <path d="M66.08793,62.95767 L66.08793,74.96481 L65.9136,75.20779 C65.72749,75.33948 65.25796,75.33948 65.07185,75.20779 L64.89753,74.96481 L64.89763,60.29713 L65.07185,60.53123 C65.25796,60.66292 65.72749,60.66292 65.9136,60.53123 L66.08783,60.29713 L66.08793,61.98571 L66.48179,61.75832 L67.32352,62.2443 z" stroke="Black" stroke-width="0" fill="#777777" fill-opacity="1" />
  <path d="M46.12675,51.63781 L46.12675,50.00634 L47.31715,50.69361 L47.31715,51.63781 L47.14282,51.88079 C46.95672,52.01249 46.48719,52.01249 46.30108,51.88079 z" stroke="Black" stroke-width="0" fill="#777777" fill-opacity="1" />
  <path d="M46.12678,50.00636 L37.73639,45.16217" stroke="#000000" stroke-width="0.24" fill="none" />
  <path d="M46.12675,36.96125 L46.30108,36.71826 C46.48719,36.58657 46.95672,36.58657 47.14282,36.71826" stroke="#000000" stroke-width="0.24" fill="none" />
  <path d="M37.73639,45.16217 L36.50079,45.87554" stroke="#000000" stroke-width="0.24" fill="none" />
  <path d="M30.45177,40.37322 L40.13178,34.78447" stroke="#000000" stroke-width="0.24" fill="none" />
  <path d="M76.90434,67.77579 L76.90434,68.71999" stroke="#000000" stroke-width="0.24" fill="none" />
  <path d="M76.72998,53.80041 L76.90431,54.0434" stroke="#000000" stroke-width="0.24" fill="none" />
  <path d="M81.76424,70.58166 L76.90434,67.77579" stroke="#000000" stroke-width="0.24" fill="none" />
  <path d="M47.31708,36.97017 L47.31715,38.93288" stroke="#000000" stroke-width="0.24" fill="none" />
  <path d="M66.08795,62.9577 L66.08795,74.96483" stroke="#000000" stroke-width="0.24" fill="none" />
  <path d="M64.89755,74.96483 L64.89755,60.84367" stroke="#000000" stroke-width="0.24" fill="none" />
  <path d="M75.88824,53.80041 C76.07434,53.66872 76.54388,53.66872 76.72998,53.80041 L76.90434,56.01511" stroke="#000000" stroke-width="0.24" fill="none" />
  <path d="M46.12678,38.24568 L46.12678,36.96127" stroke="#000000" stroke-width="0.24" fill="none" />
  <path d="M66.08808,61.53102 L81.76424,70.58166" stroke="#000000" stroke-width="0.24" fill="none" />
  <path d="M30.45177,40.95639 L30.45177,40.37322" stroke="#000000" stroke-width="0.24" fill="none" />
  <path d="M75.71394,55.32783 L76.90434,56.01511" stroke="#000000" stroke-width="0.24" fill="none" />
  <path d="M75.71394,55.32783 L75.71394,54.04343" stroke="#000000" stroke-width="0.24" fill="none" />
  <path d="M40.13178,34.78447 L46.12678,38.24568" stroke="#000000" stroke-width="0.24" fill="none" />
  <path d="M47.14282,36.71826 L47.31715,36.96125" stroke="#000000" stroke-width="0.24" fill="none" />
  <path d="M46.12678,38.24568 L47.31715,38.93288" stroke="#000000" stroke-width="0.24" fill="none" />
  <path d="M47.31718,50.69364 L47.31718,51.63783" stroke="#000000" stroke-width="0.24" fill="none" />
  <path d="M46.12678,51.63783 L46.12678,50.00636" stroke="#000000" stroke-width="0.24" fill="none" />
  <path d="M66.08793,60.28824 L65.9136,60.04525 C65.72749,59.91357 65.25796,59.91357 65.07185,60.04525" stroke="#000000" stroke-width="0.24" fill="none" />
  <path d="M67.32355,62.24432 L66.08795,62.9577" stroke="#000000" stroke-width="0.24" fill="none" />
  <path d="M75.71394,67.08852 L76.90434,67.77579" stroke="#000000" stroke-width="0.24" fill="none" />
  <path d="M76.90434,56.01511 L91.44424,64.40973" stroke="#000000" stroke-width="0.24" fill="none" />
  <path d="M75.71394,68.71999 L75.71394,67.08852 L67.32355,62.24432" stroke="#000000" stroke-width="0.24" fill="none" />
  <path d="M64.89755,60.84367 L47.31718,50.69364" stroke="#000000" stroke-width="0.24" fill="none" />
  <path d="M36.50079,45.87554 L36.50079,57.88267" stroke="#000000" stroke-width="0.24" fill="none" />
  <path d="M47.31715,38.93288 L75.71394,55.32783" stroke="#000000" stroke-width="0.24" fill="none" />
  <path d="M35.31037,43.20609 L35.31037,57.88265" stroke="#000000" stroke-width="0.24" fill="none" />
  <path d="M46.12678,50.00636 L47.31718,50.69364" stroke="#000000" stroke-width="0.24" fill="none" />
  <path d="M35.31039,57.88267 L35.31039,43.76152" stroke="#000000" stroke-width="0.24" fill="none" />
  <path d="M75.88824,53.80041 L75.71391,54.0434" stroke="#111111" stroke-width="0.24" fill="none" />
  <path d="M76.90431,54.0434 L76.90431,56.01508" stroke="#111111" stroke-width="0.24" fill="none" />
  <path d="M75.71391,54.0434 L75.88824,54.28639 C76.07434,54.41808 76.54388,54.41808 76.72998,54.28639 L76.90431,54.0434" stroke="#111111" stroke-width="0.24" fill="none" />
  <path d="M47.14282,37.20424 L47.31715,36.96125" stroke="#111111" stroke-width="0.24" fill="none" />
  <path d="M36.32644,43.44908 L36.50077,43.20609" stroke="#111111" stroke-width="0.24" fill="none" />
  <path d="M30.45177,40.37322 L35.31219,43.17939" stroke="#111111" stroke-width="0.24" fill="none" />
  <path d="M46.12675,38.24565 L46.12675,36.96125" stroke="#111111" stroke-width="0.24" fill="none" />
  <path d="M64.89753,60.28824 L65.07185,60.53123 C65.25796,60.66292 65.72749,60.66292 65.9136,60.53123 L66.08793,60.28824" stroke="#111111" stroke-width="0.24" fill="none" />
  <path d="M76.90431,67.77577 L76.90431,68.71996" stroke="#111111" stroke-width="0.24" fill="none" />
  <path d="M75.71391,55.3278 L75.71391,54.0434" stroke="#111111" stroke-width="0.24" fill="none" />
  <path d="M36.50077,45.87528 L36.50077,57.88265" stroke="#111111" stroke-width="0.24" fill="none" />
  <path d="M66.48203,61.75822 L65.91362,62.08639" stroke="#111111" stroke-width="0.24" fill="none" />
  <path d="M67.32366,62.24426 L65.91362,63.05835" stroke="#111111" stroke-width="0.24" fill="none" />
  <path d="M36.32646,45.00423 L36.8949,44.67605" stroke="#111111" stroke-width="0.24" fill="none" />
  <path d="M36.32646,45.97619 L37.73653,45.16209" stroke="#111111" stroke-width="0.24" fill="none" />
  <path d="M75.71391,68.71996 L75.88824,68.96295 C76.07434,69.09464 76.54388,69.09464 76.72998,68.96295 L76.90431,68.71996" stroke="#111111" stroke-width="0.24" fill="none" />
  <path d="M65.07185,60.04525 L64.89753,60.28824" stroke="#111111" stroke-width="0.24" fill="none" />
  <path d="M64.89753,74.96481 L64.89753,60.28824" stroke="#111111" stroke-width="0.24" fill="none" />
  <path d="M66.08793,60.28824 L66.08793,61.98571" stroke="#111111" stroke-width="0.24" fill="none" />
  <path d="M36.32644,58.12564 L36.50077,57.88265" stroke="#111111" stroke-width="0.24" fill="none" />
  <path d="M36.50077,43.20609 L36.50077,44.90356" stroke="#111111" stroke-width="0.24" fill="none" />
  <path d="M36.50077,43.20609 L36.32644,42.9631 C36.14034,42.83141 35.6708,42.83141 35.4847,42.9631 L35.31037,43.20609" stroke="#111111" stroke-width="0.24" fill="none" />
  <path d="M91.44424,64.40973 L40.13178,34.78447" stroke="#111111" stroke-width="0.24" fill="none" />
  <path d="M36.50079,44.4488 L64.89758,60.84369" stroke="#111111" stroke-width="0.24" fill="none" />
  <path d="M36.50079,43.86562 L64.89951,60.26163" stroke="#111111" stroke-width="0.24" fill="none" />
  <path d="M66.08817,60.9479 L81.76424,69.99848" stroke="#111111" stroke-width="0.24" fill="none" />
  <path d="M35.31037,57.88265 L35.4847,58.12564 C35.6708,58.25733 36.14034,58.25733 36.32644,58.12564" stroke="#111111" stroke-width="0.24" fill="none" />
  <path d="M46.12675,51.63781 L46.30108,51.88079 C46.48719,52.01249 46.95672,52.01249 47.14282,51.88079 L47.31715,51.63781" stroke="#111111" stroke-width="0.24" fill="none" />
  <path d="M66.08793,62.95767 L66.08793,74.96481" stroke="#111111" stroke-width="0.24" fill="none" />
  <path d="M64.89753,74.96481 L65.07185,75.20779 C65.25796,75.33948 65.72749,75.33948 65.9136,75.20779 L66.08793,74.96481" stroke="#111111" stroke-width="0.24" fill="none" />
  <path d="M35.31037,43.20609 L35.4847,43.44908 C35.6708,43.58077 36.14034,43.58077 36.32644,43.44908" stroke="#111111" stroke-width="0.24" fill="none" />
  <path d="M81.76424,69.99848 L91.44424,64.40973" stroke="#111111" stroke-width="0.24" fill="none" />
  <path d="M30.45177,40.95639 L35.31039,43.76152" stroke="#111111" stroke-width="0.24" fill="none" />
  <path d="M81.76424,70.58166 L81.76424,69.99848" stroke="#111111" stroke-width="0.24" fill="none" />
  <path d="M91.44424,64.9929 L91.44424,64.40973" stroke="#111111" stroke-width="0.24" fill="none" />
  <path d="M81.76424,70.58166 L91.44424,64.9929" stroke="#111111" stroke-width="0.24" fill="none" />
  <path d="M46.12675,36.96125 L46.30108,37.20424 C46.48719,37.33593 46.95672,37.33593 47.14282,37.20424 L47.14282,36.71826 C46.95672,36.58657 46.48719,36.58657 46.30108,36.71826 z" stroke="#111111" stroke-width="0.24" fill="none" />
  <path d="M47.31715,36.96125 L47.31715,38.93281" stroke="#111111" stroke-width="0.24" fill="none" />
  <path d="M47.31715,50.69361 L47.31715,51.63781" stroke="#111111" stroke-width="0.24" fill="none" />
  <path d="M46.12675,51.63781 L46.12675,50.00634" stroke="#111111" stroke-width="0.24" fill="none" />
  <path d="M76.90431,54.0434 L76.72998,53.80041 C76.54388,53.66872 76.07434,53.66872 75.88824,53.80041" stroke="#111111" stroke-width="0.24" fill="none" />
  <path d="M75.71391,68.71996 L75.71391,67.08846" stroke="#111111" stroke-width="0.24" fill="none" />
</svg>