<?xml version="1.0" encoding="utf-8" standalone="no"?>
<!DOCTYPE svg PUBLIC "-//W3C//DTD SVG 1.1//EN" "http://www.w3.org/Graphics/SVG/1.1/DTD/svg11.dtd">
<svg version="1.1" width="120pt" height="120pt" viewBox="0 0 120 120" overflow="visible" xmlns="http://www.w3.org/2000/svg">
  <path d="M38.44278,74.25933 L28.76277,68.67058 L28.76277,68.0874 L38.44278,73.67616 z" stroke="Black" stroke-width="0" fill="#BBBBBB" fill-opacity="1" />
  <path d="M38.44278,73.67616 L44.43777,70.21494 L44.43777,70.79812 L38.44278,74.25933 z" stroke="Black" stroke-width="0" fill="#CCCCCC" fill-opacity="1" />
  <path d="M74.02493,53.71597 L45.62817,70.11084 L45.62807,69.56433 L74.02493,53.13279 z" stroke="Black" stroke-width="0" fill="#CCCCCC" fill-opacity="1" />
  <path d="M75.21353,52.44656 L89.75524,44.05089 L89.75524,44.63407 L75.21533,53.02869 z" stroke="Black" stroke-width="0" fill="#CCCCCC" fill-opacity="1" />
  <path d="M45.45385,69.31245 C45.26774,69.18076 44.79821,69.18076 44.61211,69.31245 L44.43777,69.55544 L44.43777,70.21494 L38.44278,73.67616 L28.76277,68.0874 L80.07523,38.46214 L89.75524,44.05089 L75.21353,52.44656 L75.041,52.23029 C74.8549,52.0986 74.38536,52.0986 74.19926,52.23029 L74.02493,52.47328 L74.02493,53.13279 L45.62637,69.52871 z" stroke="Black" stroke-width="0" fill="#EEEEEE" fill-opacity="1" />
  <path d="M74.02493,52.47328 L74.19926,52.23029 C74.38536,52.0986 74.8549,52.0986 75.041,52.23029 L75.21353,52.44656 L75.041,52.71627 C74.8549,52.84796 74.38536,52.84796 74.19926,52.71627 z" stroke="Black" stroke-width="0" fill="#555555" fill-opacity="1" />
  <path d="M44.43777,69.55544 L44.61211,69.31245 C44.79821,69.18076 45.26774,69.18076 45.45385,69.31245 L45.62637,69.52871 L45.45385,69.79842 C45.26774,69.93011 44.79821,69.93011 44.61211,69.79842 z" stroke="Black" stroke-width="0" fill="#555555" fill-opacity="1" />
  <path d="M44.43776,71.25286 L44.04392,71.02551 L44.43777,70.79812 z" stroke="Black" stroke-width="0" fill="#555555" fill-opacity="1" />
  <path d="M33.62139,63.31059 L33.79572,63.0676 C33.98182,62.93592 34.45136,62.93592 34.63746,63.0676 L34.81179,63.31059 L34.63746,63.55358 C34.45136,63.68527 33.98182,63.68527 33.79572,63.55358 z" stroke="Black" stroke-width="0" fill="#555555" fill-opacity="1" />
  <path d="M63.20855,46.22844 L63.38288,45.98545 C63.56898,45.85376 64.03852,45.85376 64.22462,45.98545 L64.39895,46.22844 L64.22462,46.47143 C64.03852,46.60312 63.56898,46.60312 63.38288,46.47143 z" stroke="Black" stroke-width="0" fill="#555555" fill-opacity="1" />
  <path d="M74.02493,53.71597 L74.02493,54.17075 L73.63107,53.94336 z" stroke="Black" stroke-width="0" fill="#555555" fill-opacity="1" />
  <path d="M44.43777,72.22487 L43.20218,71.51149 L44.04392,71.02551 L44.43776,71.25286 L44.43787,69.56433 L44.61211,69.79842 C44.79821,69.93011 45.26774,69.93011 45.45385,69.79842 L45.62807,69.56433 L45.62817,84.23199 L45.45385,84.47498 C45.26774,84.60667 44.79821,84.60667 44.61211,84.47498 L44.43777,84.23199 z" stroke="Black" stroke-width="0" fill="#777777" fill-opacity="1" />
  <path d="M75.21533,67.14984 L75.041,67.39283 C74.8549,67.52452 74.38536,67.52452 74.19926,67.39283 L74.02493,67.14984 L74.02493,55.14271 L72.78934,54.42934 L73.63107,53.94336 L74.02493,54.17075 L74.02503,52.48218 L74.19926,52.71627 C74.38536,52.84796 74.8549,52.84796 75.041,52.71627 L75.21523,52.48218 z" stroke="Black" stroke-width="0" fill="#777777" fill-opacity="1" />
  <path d="M64.39895,60.905 L64.22462,61.14799 C64.03852,61.27968 63.56898,61.27968 63.38288,61.14799 L63.20855,60.905 L63.20855,59.96081 L64.39895,59.27353 z" stroke="Black" stroke-width="0" fill="#777777" fill-opacity="1" />
  <path d="M63.38288,46.47143 C63.56898,46.60312 64.03852,46.60312 64.22462,46.47143 L64.39885,46.23734 L64.39895,47.51284 L63.20855,48.20012 L63.20865,46.23733 z" stroke="Black" stroke-width="0" fill="#777777" fill-opacity="1" />
  <path d="M34.81179,72.16298 L34.81179,77.98715 L34.63746,78.23014 C34.45136,78.36183 33.98182,78.36183 33.79572,78.23014 L33.62139,77.98715 L33.62139,71.4757 z" stroke="Black" stroke-width="0" fill="#777777" fill-opacity="1" />
  <path d="M34.8118,64.59496 L33.62143,65.28215 L33.62149,63.31948 L33.79572,63.55358 C33.98182,63.68527 34.45136,63.68527 34.63746,63.55358 L34.81169,63.31949 z" stroke="Black" stroke-width="0" fill="#777777" fill-opacity="1" />
  <path d="M45.6282,84.23202 L45.6282,70.11087 L63.20857,59.96083 L63.20857,60.90502" stroke="#000000" stroke-width="0.24" fill="none" />
  <path d="M34.81181,77.98717 L34.81181,72.16301 L38.4428,74.25935 L43.2022,71.51152 L44.4378,72.22489 L44.4378,84.23202" stroke="#000000" stroke-width="0.24" fill="none" />
  <path d="M44.4378,70.79814 L38.4428,74.25935" stroke="#000000" stroke-width="0.24" fill="none" />
  <path d="M44.43777,69.55544 L44.43777,71.25283" stroke="#000000" stroke-width="0.24" fill="none" />
  <path d="M74.02493,52.47328 L74.02493,54.17075" stroke="#000000" stroke-width="0.24" fill="none" />
  <path d="M38.4428,74.25935 L28.76279,68.6706" stroke="#000000" stroke-width="0.24" fill="none" />
  <path d="M64.39897,60.90502 L64.39897,59.27356 L72.78936,54.42936 L74.02496,55.14273 L74.02496,67.14986" stroke="#000000" stroke-width="0.24" fill="none" />
  <path d="M75.21533,67.14984 L75.21533,53.02869 L89.75524,44.63407 L89.75524,44.05089 L80.07523,38.46214 L64.39895,47.51284 L64.39885,46.23734 L64.22462,45.98545 C64.03852,45.85376 63.56898,45.85376 63.38288,45.98545 L63.20855,46.22844 L63.20855,48.20012 L34.8118,64.59496 L34.81169,63.31949 L34.63746,63.0676 C34.45136,62.93592 33.98182,62.93592 33.79572,63.0676 L33.62139,63.31059 L33.62143,65.28215 L28.76277,68.0874 L28.76277,68.67058 L33.62139,71.4757 L33.62139,77.98715" stroke="#000000" stroke-width="0.24" fill="none" />
  <path d="M89.75526,44.63409 L89.75526,44.05092" stroke="#111111" stroke-width="0.24" fill="none" />
  <path d="M80.07526,38.46216 L89.75526,44.05092" stroke="#111111" stroke-width="0.24" fill="none" />
  <path d="M38.4428,74.25935 L38.4428,73.67619" stroke="#111111" stroke-width="0.24" fill="none" />
  <path d="M28.76279,68.6706 L28.76279,68.08743" stroke="#111111" stroke-width="0.24" fill="none" />
  <path d="M89.75526,44.05092 L75.21355,52.44658" stroke="#111111" stroke-width="0.24" fill="none" />
  <path d="M44.43777,69.55544 L44.61211,69.31245 C44.79821,69.18076 45.26774,69.18076 45.45385,69.31245" stroke="#111111" stroke-width="0.24" fill="none" />
  <path d="M74.19926,52.71627 L74.02493,52.47328" stroke="#111111" stroke-width="0.24" fill="none" />
  <path d="M75.21533,52.47328 L75.041,52.71627 C74.8549,52.84796 74.38536,52.84796 74.19926,52.71627" stroke="#111111" stroke-width="0.24" fill="none" />
  <path d="M63.20855,46.22844 L63.20855,48.20012" stroke="#111111" stroke-width="0.24" fill="none" />
  <path d="M63.20855,46.22844 L63.38288,45.98545 C63.56898,45.85376 64.03852,45.85376 64.22462,45.98545 L64.39895,46.22844" stroke="#111111" stroke-width="0.24" fill="none" />
  <path d="M63.38288,46.47143 L63.20855,46.22844" stroke="#111111" stroke-width="0.24" fill="none" />
  <path d="M34.63746,63.0676 L34.81179,63.31059" stroke="#111111" stroke-width="0.24" fill="none" />
  <path d="M34.81179,77.98715 L34.81179,72.16298" stroke="#111111" stroke-width="0.24" fill="none" />
  <path d="M33.62139,63.31059 L33.62139,65.28208" stroke="#111111" stroke-width="0.24" fill="none" />
  <path d="M33.62139,63.31059 L33.79572,63.0676 C33.98182,62.93592 34.45136,62.93592 34.63746,63.0676 L34.63746,63.55358 C34.45136,63.68527 33.98182,63.68527 33.79572,63.55358 z" stroke="#111111" stroke-width="0.24" fill="none" />
  <path d="M64.39895,47.51284 L64.39895,46.22844" stroke="#111111" stroke-width="0.24" fill="none" />
  <path d="M34.81179,64.59494 L34.81179,63.31059" stroke="#111111" stroke-width="0.24" fill="none" />
  <path d="M38.4428,73.67619 L28.76279,68.08743" stroke="#111111" stroke-width="0.24" fill="none" />
  <path d="M44.43777,72.22487 L44.43777,84.23199" stroke="#111111" stroke-width="0.24" fill="none" />
  <path d="M89.75526,44.63409 L75.21516,53.02883" stroke="#111111" stroke-width="0.24" fill="none" />
  <path d="M74.02496,53.71599 L45.6282,70.11087" stroke="#111111" stroke-width="0.24" fill="none" />
  <path d="M74.02496,53.13282 L45.6264,69.52873" stroke="#111111" stroke-width="0.24" fill="none" />
  <path d="M28.76279,68.08743 L80.07526,38.46216" stroke="#111111" stroke-width="0.24" fill="none" />
  <path d="M45.45385,69.31245 L45.62817,69.55544" stroke="#111111" stroke-width="0.24" fill="none" />
  <path d="M45.62817,84.23199 L45.62817,69.55544" stroke="#111111" stroke-width="0.24" fill="none" />
  <path d="M45.62817,84.23199 L45.45385,84.47498 C45.26774,84.60667 44.79821,84.60667 44.61211,84.47498 L44.43777,84.23199" stroke="#111111" stroke-width="0.24" fill="none" />
  <path d="M74.19926,67.39283 L74.02493,67.14984" stroke="#111111" stroke-width="0.24" fill="none" />
  <path d="M75.21533,67.14984 L75.21533,52.47328" stroke="#111111" stroke-width="0.24" fill="none" />
  <path d="M75.21533,67.14984 L75.041,67.39283 C74.8549,67.52452 74.38536,67.52452 74.19926,67.39283" stroke="#111111" stroke-width="0.24" fill="none" />
  <path d="M64.39895,60.905 L64.22462,61.14799 C64.03852,61.27968 63.56898,61.27968 63.38288,61.14799" stroke="#111111" stroke-width="0.24" fill="none" />
  <path d="M34.81179,77.98715 L34.63746,78.23014 C34.45136,78.36183 33.98182,78.36183 33.79572,78.23014 L33.62139,77.98715" stroke="#111111" stroke-width="0.24" fill="none" />
  <path d="M72.78915,54.42924 L74.19926,55.24337" stroke="#111111" stroke-width="0.24" fill="none" />
  <path d="M44.6121,71.35357 L44.04392,71.02553" stroke="#111111" stroke-width="0.24" fill="none" />
  <path d="M44.6121,72.32552 L43.20203,71.51141" stroke="#111111" stroke-width="0.24" fill="none" />
  <path d="M73.63105,53.94336 L74.19926,54.27141" stroke="#111111" stroke-width="0.24" fill="none" />
  <path d="M74.02493,52.47328 L74.19926,52.23029 C74.38536,52.0986 74.8549,52.0986 75.041,52.23029 L75.21533,52.47328" stroke="#111111" stroke-width="0.24" fill="none" />
  <path d="M44.4378,70.21497 L38.4428,73.67619" stroke="#111111" stroke-width="0.24" fill="none" />
  <path d="M74.02493,55.14271 L74.02493,67.14984" stroke="#111111" stroke-width="0.24" fill="none" />
  <path d="M33.62139,71.4757 L33.62139,77.98715" stroke="#111111" stroke-width="0.24" fill="none" />
  <path d="M64.39895,46.22844 L64.22462,46.47143 C64.03852,46.60312 63.56898,46.60312 63.38288,46.47143" stroke="#111111" stroke-width="0.24" fill="none" />
  <path d="M64.39895,60.905 L64.39895,59.27353" stroke="#111111" stroke-width="0.24" fill="none" />
  <path d="M45.62817,69.55544 L45.45385,69.79842 C45.26774,69.93011 44.79821,69.93011 44.61211,69.79842 L44.43777,69.55544" stroke="#111111" stroke-width="0.24" fill="none" />
</svg>