<?xml version="1.0" encoding="utf-8" standalone="no"?>
<!DOCTYPE svg PUBLIC "-//W3C//DTD SVG 1.1//EN" "http://www.w3.org/Graphics/SVG/1.1/DTD/svg11.dtd">
<svg version="1.1" width="120pt" height="120pt" viewBox="0 0 120 120" overflow="visible" xmlns="http://www.w3.org/2000/svg">
  <path d="M69.95484,73.99994 L70.12917,73.75695 C70.31527,73.62526 70.78481,73.62526 70.97091,73.75695 L71.14524,73.99994 L70.97091,74.24293 C70.78481,74.37462 70.31527,74.37462 70.12917,74.24293 z" stroke="Black" stroke-width="0" fill="#555555" fill-opacity="1" />
  <path d="M39.82053,35.85062 L39.99485,35.60764 C40.18096,35.47594 40.65049,35.47594 40.83659,35.60764 L41.01093,35.85062 L40.83659,36.09361 C40.65049,36.2253 40.18096,36.2253 39.99485,36.09361 z" stroke="Black" stroke-width="0" fill="#555555" fill-opacity="1" />
  <path d="M87.92596,63.62431 L88.10029,63.38132 C88.28639,63.24963 88.75593,63.24963 88.94203,63.38132 L89.11636,63.62431 L88.94203,63.8673 C88.75593,63.99899 88.28639,63.99899 88.10029,63.8673 z" stroke="Black" stroke-width="0" fill="#555555" fill-opacity="1" />
  <path d="M23.0398,46.22625 L22.86547,46.46925 C22.67937,46.60093 22.20984,46.60093 22.02374,46.46925 L21.8495,46.23515 L22.02374,45.98326 C22.20984,45.85158 22.67937,45.85158 22.86547,45.98326 z" stroke="Black" stroke-width="0" fill="#555555" fill-opacity="1" />
  <path d="M87.25855,65.42243 L39.99475,38.13478 L23.0398,47.92373 L23.03988,46.95169 L39.82053,37.26342 L39.99485,37.64875 C40.18095,37.78043 40.65049,37.78043 40.83659,37.64875 L87.92596,64.8358 L87.92596,65.0371 L88.10029,65.42243 C88.2803,65.54832 88.72786,65.55672 88.92296,65.4332 L71.14524,75.69741 L71.14527,74.72542 z" stroke="Black" stroke-width="0" fill="#555555" fill-opacity="1" />
  <path d="M71.14524,76.66937 L71.14524,88.6765 L70.97091,88.91949 C70.78481,89.05118 70.31527,89.05118 70.12917,88.91949 L69.95484,88.6765 L69.95494,74.00883 L70.12917,74.24293 C70.31527,74.37462 70.78481,74.37462 70.97091,74.24293 L71.14514,74.00883 L71.14524,75.69741 L88.92296,65.4332 C88.72786,65.55672 88.2803,65.54832 88.10029,65.42243 L87.92596,65.17944 L87.92606,63.63321 L88.10029,63.8673 C88.28639,63.99899 88.75593,63.99899 88.94203,63.8673 L89.11626,63.6332 L89.11636,78.30087 L88.94203,78.54386 C88.75593,78.67554 88.28639,78.67554 88.10029,78.54386 L87.92596,78.30087 L87.92596,66.98102 z" stroke="Black" stroke-width="0" fill="#777777" fill-opacity="1" />
  <path d="M40.83659,36.09361 L41.01083,35.85952 L41.01091,37.74934 L40.83659,37.64875 C40.65049,37.78043 40.18095,37.78043 39.99485,37.64875 L39.82053,37.40575 L39.82063,35.85952 L39.99485,36.09361 C40.18096,36.2253 40.65049,36.2253 40.83659,36.09361 z" stroke="Black" stroke-width="0" fill="#777777" fill-opacity="1" />
  <path d="M39.99475,38.13478 L87.25855,65.42243 L86.41681,65.90841 L41.01093,39.69331 L41.01093,50.52718 L40.83659,50.77017 C40.65049,50.90186 40.18096,50.90186 39.99485,50.77017 L39.82053,50.52718 L39.82053,39.20733 L23.0398,48.89568 L23.0398,60.90281 L22.86547,61.1458 C22.67937,61.27749 22.20984,61.27749 22.02374,61.1458 L21.84941,60.90281 L21.8495,46.23515 L22.02374,46.46925 C22.20984,46.60093 22.67937,46.60093 22.86547,46.46925 L23.03971,46.23515 L23.0398,47.92373 z" stroke="Black" stroke-width="0" fill="#777777" fill-opacity="1" />
  <path d="M23.03983,48.89571 L39.82055,39.20736" stroke="#000000" stroke-width="0.24" fill="none" />
  <path d="M71.14526,73.99996 L71.14526,75.69744" stroke="#000000" stroke-width="0.24" fill="none" />
  <path d="M86.41684,65.90843 L71.14529,74.72544 L71.14516,74.00886" stroke="#000000" stroke-width="0.24" fill="none" />
  <path d="M70.12917,73.75695 L69.95484,73.99994 L69.95486,88.67652" stroke="#000000" stroke-width="0.24" fill="none" />
  <path d="M71.14526,76.6694 L87.92599,66.98104" stroke="#000000" stroke-width="0.24" fill="none" />
  <path d="M39.99488,39.1067 L86.41689,65.90846" stroke="#000000" stroke-width="0.24" fill="none" />
  <path d="M87.92599,64.83583 L41.01093,37.74937 L41.01095,35.85065 C40.65049,35.47594 40.18096,35.47594 39.99485,35.60764 L39.82053,35.85062 L39.82055,37.26344" stroke="#000000" stroke-width="0.24" fill="none" />
  <path d="M39.82055,39.20736 L39.82055,50.52721" stroke="#000000" stroke-width="0.24" fill="none" />
  <path d="M41.01095,50.52721 L41.01095,39.69333 L86.41684,65.90843" stroke="#000000" stroke-width="0.24" fill="none" />
  <path d="M41.01093,35.85062 L40.83659,35.60764" stroke="#000000" stroke-width="0.24" fill="none" />
  <path d="M89.11639,78.3009 L89.11639,63.62433 L88.94203,63.38132 C88.75593,63.24963 88.28639,63.24963 88.10029,63.38132 L87.92596,63.62431" stroke="#000000" stroke-width="0.24" fill="none" />
  <path d="M88.94205,66.39441 L70.97093,76.77004" stroke="#000000" stroke-width="0.24" fill="none" />
  <path d="M87.92609,63.63323 L87.92599,64.83583" stroke="#000000" stroke-width="0.24" fill="none" />
  <path d="M87.92599,66.98104 L87.92599,78.3009" stroke="#000000" stroke-width="0.24" fill="none" />
  <path d="M71.14526,88.67652 L71.14526,76.6694" stroke="#000000" stroke-width="0.24" fill="none" />
  <path d="M22.8655,48.99636 L39.99485,39.10672" stroke="#000000" stroke-width="0.24" fill="none" />
  <path d="M70.97091,73.75695 C70.78481,73.62526 70.31527,73.62526 70.12917,73.75695" stroke="#000000" stroke-width="0.24" fill="none" />
  <path d="M71.14524,73.99994 L70.97091,73.75695" stroke="#000000" stroke-width="0.24" fill="none" />
  <path d="M23.03983,46.22628 L23.03983,47.92375" stroke="#000000" stroke-width="0.24" fill="none" />
  <path d="M39.82055,37.26344 L23.0399,46.95171 L23.03973,46.23517 L22.86547,45.98326 C22.67937,45.85158 22.20984,45.85158 22.02374,45.98326 L21.84941,46.22625 L21.84943,60.90284" stroke="#000000" stroke-width="0.24" fill="none" />
  <path d="M23.03983,60.90284 L23.03983,48.89571" stroke="#000000" stroke-width="0.24" fill="none" />
  <path d="M39.99485,50.77017 C40.18096,50.90186 40.65049,50.90186 40.83659,50.77017 L41.01093,50.52718" stroke="#111111" stroke-width="0.24" fill="none" />
  <path d="M88.10029,63.38132 L87.92596,63.62431" stroke="#111111" stroke-width="0.24" fill="none" />
  <path d="M89.11636,63.62431 L88.94203,63.38132 C88.75593,63.24963 88.28639,63.24963 88.10029,63.38132" stroke="#111111" stroke-width="0.24" fill="none" />
  <path d="M87.92596,65.0371 L87.92596,63.62431" stroke="#111111" stroke-width="0.24" fill="none" />
  <path d="M87.92596,65.17944 L88.10029,65.42243 C88.28639,65.55412 88.75593,65.55412 88.94203,65.42243" stroke="#111111" stroke-width="0.24" fill="none" />
  <path d="M87.92596,78.30087 L88.10029,78.54386 C88.28639,78.67554 88.75593,78.67554 88.94203,78.54386" stroke="#111111" stroke-width="0.24" fill="none" />
  <path d="M21.84943,60.90284 L21.84943,46.22628" stroke="#111111" stroke-width="0.24" fill="none" />
  <path d="M22.86547,46.46925 L23.0398,46.22625" stroke="#111111" stroke-width="0.24" fill="none" />
  <path d="M39.82071,37.26335 L23.03997,46.95171" stroke="#111111" stroke-width="0.24" fill="none" />
  <path d="M22.8655,48.0244 L39.99466,38.13487" stroke="#111111" stroke-width="0.24" fill="none" />
  <path d="M22.86547,61.1458 L23.0398,60.90281" stroke="#111111" stroke-width="0.24" fill="none" />
  <path d="M21.84941,60.90281 L22.02374,61.1458 C22.20984,61.27749 22.67937,61.27749 22.86547,61.1458" stroke="#111111" stroke-width="0.24" fill="none" />
  <path d="M23.03983,48.89571 L23.03983,60.90284" stroke="#111111" stroke-width="0.24" fill="none" />
  <path d="M21.84941,46.22625 L22.02374,46.46925 C22.20984,46.60093 22.67937,46.60093 22.86547,46.46925 L22.86547,45.98326 C22.67937,45.85158 22.20984,45.85158 22.02374,45.98326 z" stroke="#111111" stroke-width="0.24" fill="none" />
  <path d="M88.94203,78.54386 L89.11636,78.30087" stroke="#111111" stroke-width="0.24" fill="none" />
  <path d="M87.92596,78.30087 L88.10029,78.54386 C88.28639,78.67554 88.75593,78.67554 88.94203,78.54386 L89.11636,78.30087" stroke="#111111" stroke-width="0.24" fill="none" />
  <path d="M87.92596,78.30087 L87.92596,66.98098" stroke="#111111" stroke-width="0.24" fill="none" />
  <path d="M87.92596,63.62431 L88.10029,63.8673 C88.28639,63.99899 88.75593,63.99899 88.94203,63.8673 L89.11636,63.62431 L89.11636,78.30087" stroke="#111111" stroke-width="0.24" fill="none" />
  <path d="M39.82053,50.52718 L39.99485,50.77017" stroke="#111111" stroke-width="0.24" fill="none" />
  <path d="M21.84941,60.90281 L22.02374,61.1458 C22.20984,61.27749 22.67937,61.27749 22.86547,61.1458 L23.0398,60.90281" stroke="#111111" stroke-width="0.24" fill="none" />
  <path d="M70.12917,73.75695 L69.95484,73.99994" stroke="#111111" stroke-width="0.24" fill="none" />
  <path d="M69.95486,88.67652 L69.95486,73.99996" stroke="#111111" stroke-width="0.24" fill="none" />
  <path d="M71.14524,73.99994 L70.97091,73.75695 C70.78481,73.62526 70.31527,73.62526 70.12917,73.75695 L70.12917,74.24293 C70.31527,74.37462 70.78481,74.37462 70.97091,74.24293 z" stroke="#111111" stroke-width="0.24" fill="none" />
  <path d="M69.95484,88.6765 L70.12917,88.91949 C70.31527,89.05118 70.78481,89.05118 70.97091,88.91949 L71.14524,88.6765" stroke="#111111" stroke-width="0.24" fill="none" />
  <path d="M88.94205,65.42245 L70.97093,75.79809" stroke="#111111" stroke-width="0.24" fill="none" />
  <path d="M71.14533,74.72544 L87.25858,65.42245" stroke="#111111" stroke-width="0.24" fill="none" />
  <path d="M69.95484,88.6765 L70.12917,88.91949 C70.31527,89.05118 70.78481,89.05118 70.97091,88.91949 L71.14524,88.6765" stroke="#111111" stroke-width="0.24" fill="none" />
  <path d="M39.99488,38.13475 L39.99488,39.1067" stroke="#111111" stroke-width="0.24" fill="none" />
  <path d="M39.82055,50.52721 L39.82055,39.20712" stroke="#111111" stroke-width="0.24" fill="none" />
  <path d="M41.01093,35.85062 L41.01093,37.74931" stroke="#111111" stroke-width="0.24" fill="none" />
  <path d="M71.14526,76.6694 L71.14526,88.67652" stroke="#111111" stroke-width="0.24" fill="none" />
  <path d="M41.01093,35.85062 L40.83659,35.60764 C40.65049,35.47594 40.18096,35.47594 39.99485,35.60764 L39.82053,35.85062" stroke="#111111" stroke-width="0.24" fill="none" />
  <path d="M40.83659,36.09361 L41.01093,35.85062" stroke="#111111" stroke-width="0.24" fill="none" />
  <path d="M39.82053,35.85062 L39.99485,36.09361 C40.18096,36.2253 40.65049,36.2253 40.83659,36.09361" stroke="#111111" stroke-width="0.24" fill="none" />
  <path d="M41.01095,39.69333 L41.01095,50.52721" stroke="#111111" stroke-width="0.24" fill="none" />
  <path d="M39.99488,38.13475 L87.25858,65.42245" stroke="#111111" stroke-width="0.24" fill="none" />
  <path d="M87.92599,64.83583 L40.83662,37.64877" stroke="#111111" stroke-width="0.24" fill="none" />
  <path d="M40.83659,50.77017 L41.01093,50.52718" stroke="#111111" stroke-width="0.24" fill="none" />
  <path d="M39.82053,50.52718 L39.99485,50.77017 C40.18096,50.90186 40.65049,50.90186 40.83659,50.77017" stroke="#111111" stroke-width="0.24" fill="none" />
  <path d="M39.82053,37.40575 L39.99485,37.64875 C40.18096,37.78043 40.65049,37.78043 40.83659,37.64875" stroke="#111111" stroke-width="0.24" fill="none" />
  <path d="M39.82053,37.26342 L39.82053,35.85062" stroke="#111111" stroke-width="0.24" fill="none" />
</svg>