<?xml version="1.0" encoding="utf-8" standalone="no"?>
<!DOCTYPE svg PUBLIC "-//W3C//DTD SVG 1.1//EN" "http://www.w3.org/Graphics/SVG/1.1/DTD/svg11.dtd">
<svg version="1.1" width="120pt" height="120pt" viewBox="0 0 120 120" overflow="visible" xmlns="http://www.w3.org/2000/svg">
  <path d="M17.18372,44.08796 L17.18372,43.50478 L21.8512,46.19955 L21.84941,46.78169 z" stroke="Black" stroke-width="0" fill="#BBBBBB" fill-opacity="1" />
  <path d="M69.95484,73.99994 L69.95484,74.55538 L23.03983,47.469 L23.03988,46.88588 z" stroke="Black" stroke-width="0" fill="#BBBBBB" fill-opacity="1" />
  <path d="M71.14524,75.24265 L71.14524,74.65948 L76.94725,78.00928 L76.94725,78.59245 z" stroke="Black" stroke-width="0" fill="#BBBBBB" fill-opacity="1" />
  <path d="M93.78205,68.87287 L76.94725,78.59245 L76.94725,78.00928 L93.78205,68.2897 z" stroke="Black" stroke-width="0" fill="#CCCCCC" fill-opacity="1" />
  <path d="M69.95664,73.97324 L23.03988,46.88588 L23.0398,46.22625 L22.86547,45.98326 C22.67937,45.85158 22.20984,45.85158 22.02374,45.98326 L21.8512,46.19955 L17.18372,43.50478 L34.01852,33.78521 L93.78205,68.2897 L76.94725,78.00928 L71.14524,74.65948 L71.14524,73.99994 L70.97091,73.75695 C70.78481,73.62526 70.31527,73.62526 70.12917,73.75695 z" stroke="Black" stroke-width="0" fill="#EEEEEE" fill-opacity="1" />
  <path d="M23.03983,47.469 L23.43364,47.69635 L23.0398,47.92373 z" stroke="Black" stroke-width="0" fill="#555555" fill-opacity="1" />
  <path d="M71.14524,75.24265 L71.53907,75.47003 L71.14524,75.69741 z" stroke="Black" stroke-width="0" fill="#555555" fill-opacity="1" />
  <path d="M87.92596,63.62431 L88.10029,63.38132 C88.28639,63.24963 88.75593,63.24963 88.94203,63.38132 L89.11636,63.62431 L88.94203,63.8673 C88.75593,63.99899 88.28639,63.99899 88.10029,63.8673 z" stroke="Black" stroke-width="0" fill="#555555" fill-opacity="1" />
  <path d="M39.82053,35.85062 L39.99485,35.60764 C40.18096,35.47594 40.65049,35.47594 40.83659,35.60764 L41.01093,35.85062 L40.83659,36.09361 C40.65049,36.2253 40.18096,36.2253 39.99485,36.09361 z" stroke="Black" stroke-width="0" fill="#555555" fill-opacity="1" />
  <path d="M71.14514,74.00883 L70.97091,74.24293 C70.78481,74.37462 70.31527,74.37462 70.12917,74.24293 L69.95494,74.00883 L70.12917,73.75695 C70.31527,73.62526 70.78481,73.62526 70.97091,73.75695 z" stroke="Black" stroke-width="0" fill="#555555" fill-opacity="1" />
  <path d="M23.03971,46.23515 L22.86547,46.46925 C22.67937,46.60093 22.20984,46.60093 22.02374,46.46925 L21.8495,46.23515 L22.02374,45.98326 C22.20984,45.85158 22.67937,45.85158 22.86547,45.98326 z" stroke="Black" stroke-width="0" fill="#555555" fill-opacity="1" />
  <path d="M41.01093,37.82228 L39.8205,37.13492 L39.82063,35.85952 L39.99485,36.09361 C40.18096,36.2253 40.65049,36.2253 40.83659,36.09361 L41.01078,35.85952 z" stroke="Black" stroke-width="0" fill="#777777" fill-opacity="1" />
  <path d="M87.92596,64.90868 L87.92606,63.6332 L88.10029,63.8673 C88.28639,63.99899 88.75593,63.99899 88.94203,63.8673 L89.11621,63.6332 L89.11632,65.5959 z" stroke="Black" stroke-width="0" fill="#777777" fill-opacity="1" />
  <path d="M87.92596,72.25388 L89.11636,71.56661 L89.11636,78.30087 L88.94203,78.54386 C88.75593,78.67554 88.28639,78.67554 88.10029,78.54386 L87.92596,78.30087 z" stroke="Black" stroke-width="0" fill="#777777" fill-opacity="1" />
  <path d="M23.0398,48.89568 L23.0398,60.90281 L22.86547,61.1458 C22.67937,61.27749 22.20984,61.27749 22.02374,61.1458 L21.84941,60.90281 L21.8495,46.23515 L22.02374,46.46925 C22.20984,46.60093 22.67937,46.60093 22.86547,46.46925 L23.03971,46.23515 L23.0398,47.92373 L23.43364,47.69635 L24.27538,48.18233 z" stroke="Black" stroke-width="0" fill="#777777" fill-opacity="1" />
  <path d="M71.14524,76.66937 L71.14524,88.6765 L70.97091,88.91949 C70.78481,89.05118 70.31527,89.05118 70.12917,88.91949 L69.95484,88.6765 L69.95494,74.00883 L70.12917,74.24293 C70.31527,74.37462 70.78481,74.37462 70.97091,74.24293 L71.14514,74.00883 L71.14524,75.69741 L71.53907,75.47003 L72.38081,75.95602 z" stroke="Black" stroke-width="0" fill="#777777" fill-opacity="1" />
  <path d="M21.84943,46.78172 L21.84943,60.90284" stroke="#000000" stroke-width="0.24" fill="none" />
  <path d="M76.94727,78.59248 L87.92599,72.25391" stroke="#000000" stroke-width="0.24" fill="none" />
  <path d="M72.38084,75.95604 L76.94727,78.59248" stroke="#000000" stroke-width="0.24" fill="none" />
  <path d="M33.85616,53.71381 L69.95486,74.5554" stroke="#000000" stroke-width="0.24" fill="none" />
  <path d="M17.18374,43.50481 L17.18374,44.08798" stroke="#000000" stroke-width="0.24" fill="none" />
  <path d="M71.14524,73.99994 L70.97091,73.75695 C70.78481,73.62526 70.31527,73.62526 70.12917,73.75695" stroke="#000000" stroke-width="0.24" fill="none" />
  <path d="M23.0398,46.22625 L22.86547,45.98326 C22.67937,45.85158 22.20984,45.85158 22.02374,45.98326 L21.84941,46.22625" stroke="#000000" stroke-width="0.24" fill="none" />
  <path d="M76.94727,78.59248 L71.14526,75.24268" stroke="#000000" stroke-width="0.24" fill="none" />
  <path d="M72.38084,75.95604 L70.97091,76.77006" stroke="#000000" stroke-width="0.24" fill="none" />
  <path d="M89.11636,65.59589 L89.11629,63.63323" stroke="#000000" stroke-width="0.24" fill="none" />
  <path d="M93.78207,68.87289 L93.78207,68.28973" stroke="#000000" stroke-width="0.24" fill="none" />
  <path d="M88.10029,63.38132 L87.92596,63.62431" stroke="#000000" stroke-width="0.24" fill="none" />
  <path d="M39.82055,35.85065 L39.82052,37.13494" stroke="#000000" stroke-width="0.24" fill="none" />
  <path d="M40.83659,35.60764 C40.65049,35.47594 40.18096,35.47594 39.99485,35.60764" stroke="#000000" stroke-width="0.24" fill="none" />
  <path d="M87.92599,72.25391 L87.92599,78.3009" stroke="#000000" stroke-width="0.24" fill="none" />
  <path d="M24.2754,48.18235 L32.66576,53.02653" stroke="#000000" stroke-width="0.24" fill="none" />
  <path d="M23.03983,48.89571 L24.2754,48.18235" stroke="#000000" stroke-width="0.24" fill="none" />
  <path d="M17.18374,44.08798 L21.84943,46.78172" stroke="#000000" stroke-width="0.24" fill="none" />
  <path d="M23.03983,60.90284 L23.03983,48.89571" stroke="#000000" stroke-width="0.24" fill="none" />
  <path d="M89.11639,78.3009 L89.11639,71.56664" stroke="#000000" stroke-width="0.24" fill="none" />
  <path d="M34.01854,33.78523 L17.18374,43.50481" stroke="#000000" stroke-width="0.24" fill="none" />
  <path d="M71.14526,76.6694 L72.38084,75.95604" stroke="#000000" stroke-width="0.24" fill="none" />
  <path d="M69.95486,74.5554 L69.95486,88.67652" stroke="#000000" stroke-width="0.24" fill="none" />
  <path d="M17.18374,43.50481 L34.01854,33.78523" stroke="#000000" stroke-width="0.24" fill="none" />
  <path d="M71.14526,88.67652 L71.14526,76.6694" stroke="#000000" stroke-width="0.24" fill="none" />
  <path d="M71.14526,73.99996 L71.14526,75.69744" stroke="#000000" stroke-width="0.24" fill="none" />
  <path d="M69.95486,88.67652 L69.95486,73.99996" stroke="#000000" stroke-width="0.24" fill="none" />
  <path d="M69.95494,74.55544 L23.03988,47.46902" stroke="#000000" stroke-width="0.24" fill="none" />
  <path d="M93.78207,68.87289 L76.94727,78.59248" stroke="#000000" stroke-width="0.24" fill="none" />
  <path d="M21.84943,60.90284 L21.84943,46.22628" stroke="#000000" stroke-width="0.24" fill="none" />
  <path d="M22.86547,48.99637 L24.27555,48.18226" stroke="#000000" stroke-width="0.24" fill="none" />
  <path d="M23.0398,46.22625 L23.0398,47.92373" stroke="#000000" stroke-width="0.24" fill="none" />
  <path d="M41.01093,35.85062 L40.83659,35.60764" stroke="#000000" stroke-width="0.24" fill="none" />
  <path d="M70.12917,73.75695 L69.95484,73.99994" stroke="#000000" stroke-width="0.24" fill="none" />
  <path d="M89.11639,71.56664 L93.78207,68.87289" stroke="#000000" stroke-width="0.24" fill="none" />
  <path d="M39.82052,37.13494 L34.01854,33.78523" stroke="#000000" stroke-width="0.24" fill="none" />
  <path d="M39.99485,35.60764 L39.82053,35.85062" stroke="#000000" stroke-width="0.24" fill="none" />
  <path d="M41.01095,37.8223 L41.01085,35.85954" stroke="#000000" stroke-width="0.24" fill="none" />
  <path d="M87.92599,64.90871 L41.01095,37.8223" stroke="#000000" stroke-width="0.24" fill="none" />
  <path d="M87.92599,63.62433 L87.92599,64.90871" stroke="#000000" stroke-width="0.24" fill="none" />
  <path d="M88.94203,63.38132 C88.75593,63.24963 88.28639,63.24963 88.10029,63.38132" stroke="#000000" stroke-width="0.24" fill="none" />
  <path d="M89.11636,63.62431 L88.94203,63.38132" stroke="#000000" stroke-width="0.24" fill="none" />
  <path d="M93.78207,68.28973 L89.11636,65.59589" stroke="#000000" stroke-width="0.24" fill="none" />
  <path d="M34.01854,33.78523 L93.78207,68.28972" stroke="#000000" stroke-width="0.24" fill="none" />
  <path d="M21.84941,60.90281 L22.02374,61.1458 C22.20984,61.27749 22.67937,61.27749 22.86547,61.1458" stroke="#111111" stroke-width="0.24" fill="none" />
  <path d="M41.01093,35.85062 L40.83659,35.60764 C40.65049,35.47594 40.18096,35.47594 39.99485,35.60764 L39.82053,35.85062" stroke="#111111" stroke-width="0.24" fill="none" />
  <path d="M41.01093,35.85062 L41.01093,37.82228" stroke="#111111" stroke-width="0.24" fill="none" />
  <path d="M87.92596,63.62431 L88.10029,63.8673 C88.28639,63.99899 88.75593,63.99899 88.94203,63.8673 L89.11636,63.62431 L89.11636,65.59582" stroke="#111111" stroke-width="0.24" fill="none" />
  <path d="M23.03983,48.89553 L23.03983,60.90284 L23.0398,60.90281" stroke="#111111" stroke-width="0.24" fill="none" />
  <path d="M69.95484,88.6765 L70.12917,88.91949 C70.31527,89.05118 70.78481,89.05118 70.97091,88.91949 L71.14524,88.6765" stroke="#111111" stroke-width="0.24" fill="none" />
  <path d="M87.92596,78.30087 L88.10029,78.54386 C88.28639,78.67554 88.75593,78.67554 88.94203,78.54386 L89.11636,78.30087" stroke="#111111" stroke-width="0.24" fill="none" />
  <path d="M71.14526,76.6694 L71.14526,88.67652" stroke="#111111" stroke-width="0.24" fill="none" />
  <path d="M89.11639,71.56664 L89.11639,78.3009" stroke="#111111" stroke-width="0.24" fill="none" />
  <path d="M88.10029,63.38132 L87.92596,63.62431" stroke="#111111" stroke-width="0.24" fill="none" />
  <path d="M89.11636,63.62431 L88.94203,63.38132 C88.75593,63.24963 88.28639,63.24963 88.10029,63.38132" stroke="#111111" stroke-width="0.24" fill="none" />
  <path d="M40.83659,36.09361 L41.01093,35.85062" stroke="#111111" stroke-width="0.24" fill="none" />
  <path d="M39.82053,35.85062 L39.99485,36.09361 C40.18096,36.2253 40.65049,36.2253 40.83659,36.09361" stroke="#111111" stroke-width="0.24" fill="none" />
  <path d="M93.78207,68.87289 L93.78207,68.28973" stroke="#111111" stroke-width="0.24" fill="none" />
  <path d="M39.82053,37.13487 L39.82053,35.85062" stroke="#111111" stroke-width="0.24" fill="none" />
  <path d="M87.92596,64.90868 L87.92596,63.62431" stroke="#111111" stroke-width="0.24" fill="none" />
  <path d="M87.92599,78.3009 L87.92599,72.25391" stroke="#111111" stroke-width="0.24" fill="none" />
  <path d="M93.78207,68.28973 L76.94727,78.0093" stroke="#111111" stroke-width="0.24" fill="none" />
  <path d="M22.86547,46.46925 L23.0398,46.22625" stroke="#111111" stroke-width="0.24" fill="none" />
  <path d="M17.18374,43.50481 L34.01854,33.78523" stroke="#111111" stroke-width="0.24" fill="none" />
  <path d="M17.18374,44.08798 L17.18374,43.50481" stroke="#111111" stroke-width="0.24" fill="none" />
  <path d="M76.94727,78.59248 L76.94727,78.0093" stroke="#111111" stroke-width="0.24" fill="none" />
  <path d="M21.85132,46.19963 L17.18374,43.50481" stroke="#111111" stroke-width="0.24" fill="none" />
  <path d="M21.84943,46.78172 L17.18374,44.08798" stroke="#111111" stroke-width="0.24" fill="none" />
  <path d="M69.95484,73.99994 L70.12917,74.24293 C70.31527,74.37462 70.78481,74.37462 70.97091,74.24293 L71.14524,73.99994" stroke="#111111" stroke-width="0.24" fill="none" />
  <path d="M21.84941,46.22625 L22.02374,46.46925 C22.20984,46.60093 22.67937,46.60093 22.86547,46.46925" stroke="#111111" stroke-width="0.24" fill="none" />
  <path d="M69.95667,73.97327 L23.03997,46.8859" stroke="#111111" stroke-width="0.24" fill="none" />
  <path d="M22.86547,48.02441 L23.43392,47.69622" stroke="#111111" stroke-width="0.24" fill="none" />
  <path d="M76.94727,78.0093 L71.14526,74.65951" stroke="#111111" stroke-width="0.24" fill="none" />
  <path d="M71.53933,75.46992 L70.97091,75.7981" stroke="#111111" stroke-width="0.24" fill="none" />
</svg>