<?xml version="1.0" encoding="utf-8" standalone="no"?>
<!DOCTYPE svg PUBLIC "-//W3C//DTD SVG 1.1//EN" "http://www.w3.org/Graphics/SVG/1.1/DTD/svg11.dtd">
<svg version="1.1" width="120pt" height="120pt" viewBox="0 0 120 120" overflow="visible" xmlns="http://www.w3.org/2000/svg">
  <path d="M78.71919,35.85062 L78.54486,36.09361 C78.35876,36.2253 77.88922,36.2253 77.70313,36.09361 L77.52889,35.85952 L77.70313,35.60764 C77.88922,35.47594 78.35876,35.47594 78.54486,35.60764 z" stroke="Black" stroke-width="0" fill="#555555" fill-opacity="1" />
  <path d="M30.61376,63.62431 L30.43943,63.8673 C30.25333,63.99899 29.78379,63.99899 29.59769,63.8673 L29.42346,63.6332 L29.59769,63.38132 C29.78379,63.24963 30.25333,63.24963 30.43943,63.38132 z" stroke="Black" stroke-width="0" fill="#555555" fill-opacity="1" />
  <path d="M48.58478,74.00883 L48.41055,74.24293 C48.22445,74.37462 47.75491,74.37462 47.56881,74.24293 L47.39448,73.99994 L47.56881,73.75695 C47.75491,73.62526 48.22445,73.62526 48.41055,73.75695 z" stroke="Black" stroke-width="0" fill="#555555" fill-opacity="1" />
  <path d="M95.49992,46.22625 L95.67424,45.98326 C95.86034,45.85158 96.32988,45.85158 96.51598,45.98326 L96.69032,46.22625 L96.51598,46.46925 C96.32988,46.60093 95.86034,46.60093 95.67424,46.46925 z" stroke="Black" stroke-width="0" fill="#555555" fill-opacity="1" />
  <path d="M31.28117,65.42243 L47.39444,74.72542 L47.39448,75.69741 L29.61676,65.4332 C29.81186,65.55672 30.25942,65.54832 30.43943,65.42243 L30.61376,65.17944 L30.61376,64.8358 L77.70313,37.64875 C77.88923,37.78043 78.35876,37.78043 78.54486,37.64875 L78.71919,37.40575 L95.49984,46.95169 L95.49992,47.92373 L78.54497,38.13478 z" stroke="Black" stroke-width="0" fill="#555555" fill-opacity="1" />
  <path d="M77.70313,36.09361 C77.88922,36.2253 78.35876,36.2253 78.54486,36.09361 L78.71909,35.85952 L78.71919,37.26342 L78.54486,37.64875 C78.35876,37.78043 77.88923,37.78043 77.70313,37.64875 L77.52881,37.74934 L77.52889,35.85952 z" stroke="Black" stroke-width="0" fill="#777777" fill-opacity="1" />
  <path d="M47.39448,76.66937 L30.61376,66.98102 L30.61376,78.30087 L30.43943,78.54386 C30.25333,78.67554 29.78379,78.67554 29.59769,78.54386 L29.42336,78.30087 L29.42346,63.6332 L29.59769,63.8673 C29.78379,63.99899 30.25333,63.99899 30.43943,63.8673 L30.61366,63.63321 L30.61376,65.0371 L30.43943,65.42243 C30.25942,65.54832 29.81186,65.55672 29.61676,65.4332 L47.39448,75.69741 L47.39458,74.00883 L47.56881,74.24293 C47.75491,74.37462 48.22445,74.37462 48.41055,74.24293 L48.58478,74.00883 L48.58488,88.6765 L48.41055,88.91949 C48.22445,89.05118 47.75491,89.05118 47.56881,88.91949 L47.39448,88.6765 z" stroke="Black" stroke-width="0" fill="#777777" fill-opacity="1" />
  <path d="M78.54497,38.13478 L95.49992,47.92373 L95.50002,46.23515 L95.67424,46.46925 C95.86034,46.60093 96.32988,46.60093 96.51598,46.46925 L96.69022,46.23515 L96.69032,60.90281 L96.51598,61.1458 C96.32988,61.27749 95.86034,61.27749 95.67424,61.1458 L95.49992,60.90281 L95.49992,48.89568 L78.71919,39.20733 L78.71919,50.52718 L78.54486,50.77017 C78.35876,50.90186 77.88922,50.90186 77.70313,50.77017 L77.52879,50.52718 L77.52879,39.69331 L32.12291,65.90841 L31.28117,65.42243 z" stroke="Black" stroke-width="0" fill="#777777" fill-opacity="1" />
  <path d="M47.3945,73.99996 L47.3945,75.69744" stroke="#000000" stroke-width="0.24" fill="none" />
  <path d="M78.71922,37.26344 L95.49987,46.95171" stroke="#000000" stroke-width="0.24" fill="none" />
  <path d="M30.61378,64.83583 L77.52884,37.74937 L77.52882,35.85065 L77.70313,35.60764" stroke="#000000" stroke-width="0.24" fill="none" />
  <path d="M29.59771,66.39441 L47.56883,76.77004" stroke="#000000" stroke-width="0.24" fill="none" />
  <path d="M77.70313,35.60764 C77.88922,35.47594 78.35876,35.47594 78.54486,35.60764 L78.71919,35.85062 L78.71922,37.26344" stroke="#000000" stroke-width="0.24" fill="none" />
  <path d="M78.71922,39.20736 L78.71922,50.52721" stroke="#000000" stroke-width="0.24" fill="none" />
  <path d="M77.52882,50.52721 L77.52882,39.69333" stroke="#000000" stroke-width="0.24" fill="none" />
  <path d="M95.67424,45.98326 C95.86034,45.85158 96.32988,45.85158 96.51598,45.98326" stroke="#000000" stroke-width="0.24" fill="none" />
  <path d="M77.52882,39.69333 L32.12293,65.90843" stroke="#000000" stroke-width="0.24" fill="none" />
  <path d="M47.39447,74.72544 L47.3946,74.00886" stroke="#000000" stroke-width="0.24" fill="none" />
  <path d="M96.51598,45.98326 L96.69032,46.22625" stroke="#000000" stroke-width="0.24" fill="none" />
  <path d="M47.39448,73.99994 L47.56881,73.75695 C47.75491,73.62526 48.22445,73.62526 48.41055,73.75695" stroke="#000000" stroke-width="0.24" fill="none" />
  <path d="M95.49994,46.22628 L95.49994,47.92375" stroke="#000000" stroke-width="0.24" fill="none" />
  <path d="M96.69034,46.22628 L96.69034,60.90284" stroke="#000000" stroke-width="0.24" fill="none" />
  <path d="M48.41055,73.75695 L48.58488,73.99994 L48.5849,88.67652" stroke="#000000" stroke-width="0.24" fill="none" />
  <path d="M29.42338,78.3009 L29.42338,63.62433 L29.59769,63.38132 C29.78379,63.24963 30.25333,63.24963 30.43943,63.38132" stroke="#000000" stroke-width="0.24" fill="none" />
  <path d="M32.12293,65.90843 L47.39447,74.72544" stroke="#000000" stroke-width="0.24" fill="none" />
  <path d="M30.43943,63.38132 L30.61376,63.62431" stroke="#000000" stroke-width="0.24" fill="none" />
  <path d="M95.49992,46.22625 L95.67424,45.98326" stroke="#000000" stroke-width="0.24" fill="none" />
  <path d="M47.3945,88.67652 L47.3945,76.6694" stroke="#000000" stroke-width="0.24" fill="none" />
  <path d="M30.61368,63.63323 L30.61378,64.83583" stroke="#000000" stroke-width="0.24" fill="none" />
  <path d="M30.61378,66.98104 L30.61378,78.3009" stroke="#000000" stroke-width="0.24" fill="none" />
  <path d="M95.67426,48.99636 L78.54491,39.10672" stroke="#000000" stroke-width="0.24" fill="none" />
  <path d="M47.3945,76.6694 L30.61378,66.98104" stroke="#000000" stroke-width="0.24" fill="none" />
  <path d="M95.49994,60.90284 L95.49994,48.89571 L78.71922,39.20736" stroke="#000000" stroke-width="0.24" fill="none" />
  <path d="M95.49987,46.95171 L95.50004,46.23517" stroke="#000000" stroke-width="0.24" fill="none" />
  <path d="M78.54488,39.1067 L32.12288,65.90846" stroke="#000000" stroke-width="0.24" fill="none" />
  <path d="M96.69032,46.22625 L96.51598,46.46925 C96.32988,46.60093 95.86034,46.60093 95.67424,46.46925" stroke="#111111" stroke-width="0.24" fill="none" />
  <path d="M29.42336,63.62431 L29.59769,63.38132 C29.78379,63.24963 30.25333,63.24963 30.43943,63.38132 L30.43943,63.8673 C30.25333,63.99899 29.78379,63.99899 29.59769,63.8673 z" stroke="#111111" stroke-width="0.24" fill="none" />
  <path d="M30.61376,78.30087 L30.61376,66.98098" stroke="#111111" stroke-width="0.24" fill="none" />
  <path d="M30.61376,78.30087 L30.43943,78.54386 C30.25333,78.67554 29.78379,78.67554 29.59769,78.54386 L29.42336,78.30087" stroke="#111111" stroke-width="0.24" fill="none" />
  <path d="M30.61376,65.17944 L30.43943,65.42243 C30.25333,65.55412 29.78379,65.55412 29.59769,65.42243" stroke="#111111" stroke-width="0.24" fill="none" />
  <path d="M96.69032,60.90281 L96.51598,61.1458" stroke="#111111" stroke-width="0.24" fill="none" />
  <path d="M30.43943,78.54386 C30.25333,78.67554 29.78379,78.67554 29.59769,78.54386" stroke="#111111" stroke-width="0.24" fill="none" />
  <path d="M48.58488,88.6765 L48.41055,88.91949" stroke="#111111" stroke-width="0.24" fill="none" />
  <path d="M29.59769,78.54386 L29.42336,78.30087" stroke="#111111" stroke-width="0.24" fill="none" />
  <path d="M96.69032,60.90281 L96.51598,61.1458 C96.32988,61.27749 95.86034,61.27749 95.67424,61.1458" stroke="#111111" stroke-width="0.24" fill="none" />
  <path d="M96.51598,61.1458 C96.32988,61.27749 95.86034,61.27749 95.67424,61.1458" stroke="#111111" stroke-width="0.24" fill="none" />
  <path d="M48.41055,88.91949 C48.22445,89.05118 47.75491,89.05118 47.56881,88.91949 L47.39448,88.6765" stroke="#111111" stroke-width="0.24" fill="none" />
  <path d="M95.67424,61.1458 L95.49992,60.90281" stroke="#111111" stroke-width="0.24" fill="none" />
  <path d="M78.71906,37.26335 L95.49979,46.95171" stroke="#111111" stroke-width="0.24" fill="none" />
  <path d="M78.54488,38.13475 L78.54488,39.1067" stroke="#111111" stroke-width="0.24" fill="none" />
  <path d="M78.71922,50.52721 L78.71922,39.20712" stroke="#111111" stroke-width="0.24" fill="none" />
  <path d="M77.52879,35.85062 L77.52879,37.74931" stroke="#111111" stroke-width="0.24" fill="none" />
  <path d="M77.52879,35.85062 L77.70313,35.60764 C77.88922,35.47594 78.35876,35.47594 78.54486,35.60764 L78.71919,35.85062" stroke="#111111" stroke-width="0.24" fill="none" />
  <path d="M77.70313,36.09361 L77.52879,35.85062" stroke="#111111" stroke-width="0.24" fill="none" />
  <path d="M95.49992,46.22625 L95.67424,45.98326 C95.86034,45.85158 96.32988,45.85158 96.51598,45.98326 L96.69032,46.22625" stroke="#111111" stroke-width="0.24" fill="none" />
  <path d="M78.71919,35.85062 L78.54486,36.09361 C78.35876,36.2253 77.88922,36.2253 77.70313,36.09361" stroke="#111111" stroke-width="0.24" fill="none" />
  <path d="M95.49994,48.89571 L95.49994,60.90284" stroke="#111111" stroke-width="0.24" fill="none" />
  <path d="M48.41055,73.75695 L48.58488,73.99994" stroke="#111111" stroke-width="0.24" fill="none" />
  <path d="M48.5849,88.67652 L48.5849,73.99996" stroke="#111111" stroke-width="0.24" fill="none" />
  <path d="M77.52882,39.69333 L77.52882,50.52721" stroke="#111111" stroke-width="0.24" fill="none" />
  <path d="M78.54488,38.13475 L31.28119,65.42245" stroke="#111111" stroke-width="0.24" fill="none" />
  <path d="M30.61376,78.30087 L30.43943,78.54386" stroke="#111111" stroke-width="0.24" fill="none" />
  <path d="M47.39448,73.99994 L47.56881,73.75695 C47.75491,73.62526 48.22445,73.62526 48.41055,73.75695" stroke="#111111" stroke-width="0.24" fill="none" />
  <path d="M30.61378,64.83583 L77.70315,37.64877" stroke="#111111" stroke-width="0.24" fill="none" />
  <path d="M77.70313,50.77017 L77.52879,50.52718" stroke="#111111" stroke-width="0.24" fill="none" />
  <path d="M30.61376,65.0371 L30.61376,63.62431" stroke="#111111" stroke-width="0.24" fill="none" />
  <path d="M48.58488,73.99994 L48.41055,74.24293 C48.22445,74.37462 47.75491,74.37462 47.56881,74.24293 L47.39448,73.99994" stroke="#111111" stroke-width="0.24" fill="none" />
  <path d="M78.71919,50.52718 L78.54486,50.77017 C78.35876,50.90186 77.88922,50.90186 77.70313,50.77017" stroke="#111111" stroke-width="0.24" fill="none" />
  <path d="M47.3945,76.6694 L47.3945,88.67652" stroke="#111111" stroke-width="0.24" fill="none" />
  <path d="M78.71919,37.40575 L78.54486,37.64875 C78.35876,37.78043 77.88922,37.78043 77.70313,37.64875" stroke="#111111" stroke-width="0.24" fill="none" />
  <path d="M78.71919,37.26342 L78.71919,35.85062" stroke="#111111" stroke-width="0.24" fill="none" />
  <path d="M95.67426,48.0244 L78.5451,38.13487" stroke="#111111" stroke-width="0.24" fill="none" />
  <path d="M48.58488,88.6765 L48.41055,88.91949 C48.22445,89.05118 47.75491,89.05118 47.56881,88.91949 L47.39448,88.6765" stroke="#111111" stroke-width="0.24" fill="none" />
  <path d="M29.59771,65.42245 L47.56883,75.79809" stroke="#111111" stroke-width="0.24" fill="none" />
  <path d="M96.69034,60.90284 L96.69034,46.22628" stroke="#111111" stroke-width="0.24" fill="none" />
  <path d="M47.39444,74.72544 L31.28119,65.42245" stroke="#111111" stroke-width="0.24" fill="none" />
  <path d="M78.71919,50.52718 L78.54486,50.77017 C78.35876,50.90186 77.88922,50.90186 77.70313,50.77017 L77.52879,50.52718" stroke="#111111" stroke-width="0.24" fill="none" />
  <path d="M95.67424,46.46925 L95.49992,46.22625" stroke="#111111" stroke-width="0.24" fill="none" />
  <path d="M95.67424,61.1458 L95.49992,60.90281" stroke="#111111" stroke-width="0.24" fill="none" />
  <path d="M30.43943,63.38132 L30.61376,63.62431" stroke="#111111" stroke-width="0.24" fill="none" />
  <path d="M29.42336,63.62431 L29.42336,78.30087" stroke="#111111" stroke-width="0.24" fill="none" />
</svg>