<?xml version="1.0" encoding="utf-8" standalone="no"?><!DOCTYPE svg PUBLIC "-//W3C//DTD SVG 1.1//EN" "http://www.w3.org/Graphics/SVG/1.1/DTD/svg11.dtd"><svg xmlns="http://www.w3.org/2000/svg" version="1.1" width="120pt" height="120pt" viewBox="0 0 120 120" overflow="visible">
  <path d="M49.65099,48.82672 L59.25752,54.37305 L59.25752,55.3329 L48.74652,49.26437 C48.96382,49.35146 49.3205,49.31828 49.47694,49.21447 L49.65096,48.97197" stroke="Black" stroke-width="0" fill="#555555" fill-opacity="1"/>
  <path d="M60.44552,53.63885 L60.27154,53.88135 C60.08582,54.01278 59.61722,54.01278 59.4315,53.88135 L59.25762,53.64773 L59.4315,53.39635 C59.61722,53.26493 60.08582,53.26493 60.27154,53.39635 z" stroke="Black" stroke-width="0" fill="#555555" fill-opacity="1"/>
  <path d="M59.48187,66.79136 C59.68761,66.9018 60.10074,66.88264 60.27154,66.76541 L60.44552,66.52291 L67.48933,70.45462 L67.58594,70.64208 L67.41196,70.88459 C67.22623,71.01601 66.75761,71.01605 66.57187,70.88467 z" stroke="Black" stroke-width="0" fill="#555555" fill-opacity="1"/>
  <path d="M59.38655,66.73633 L48.74653,60.59329 C48.96382,60.6804 49.32057,60.64722 49.47702,60.5434 L49.65099,60.3009 L59.25752,65.70198 L59.25752,66.52291 z" stroke="Black" stroke-width="0" fill="#555555" fill-opacity="1"/>
  <path d="M49.65089,47.41551 L49.47702,47.64913 C49.32057,47.75295 48.96382,47.78612 48.74654,47.69901 L48.46314,47.4155 L48.63697,47.16413 C48.8227,47.03271 49.29129,47.03271 49.47702,47.16413 z" stroke="Black" stroke-width="0" fill="#555555" fill-opacity="1"/>
  <path d="M48.46338,47.4241 L48.63697,47.64913 C48.96381,47.78613 49.32058,47.75295 49.47704,47.64913 L49.65094,47.41551 L49.65099,48.68842 L49.47694,49.21447 C49.3205,49.31828 48.96382,49.35146 48.74652,49.26437 L59.25752,55.3329 L59.25752,54.37305 L59.25762,53.64773 L59.43145,53.88135 C59.61719,54.01278 60.0858,54.01278 60.27153,53.88135 L60.44552,53.63885 L60.44552,66.38787 L60.27154,66.76541 C60.10074,66.88264 59.68761,66.9018 59.48187,66.79136 L66.57187,70.88467 C66.75761,71.01605 67.22623,71.01601 67.41196,70.88459 L67.58594,70.64209 L67.58594,72.40834 L67.41196,72.65084 C67.22623,72.78226 66.75764,72.78226 66.57191,72.65084 L66.39793,72.40834 L66.39793,71.75436 L60.44316,68.31636 L49.64864,62.08414 L49.47702,62.2961 C49.29129,62.42752 48.8227,62.42752 48.63697,62.2961 L48.46299,62.0536 z M48.74653,60.59329 L59.38655,66.73633 L59.25752,66.52291 L59.25752,65.70198 L59.25752,56.3029 L49.65099,50.75657 L49.65099,60.15565 L49.47702,60.5434 C49.32057,60.64722 48.96382,60.6804 48.74653,60.59329 z" stroke="Black" stroke-width="0" fill="#777777" fill-opacity="1"/>
  <path d="M60.27154,53.39635 L60.44552,53.63885" stroke="#000000" stroke-width="0.24" fill="none"/>
  <path d="M59.25752,54.37305 L59.25752,55.3329" stroke="#000000" stroke-width="0.24" fill="none"/>
  <path d="M48.46299,47.40663 L48.63697,47.16413" stroke="#000000" stroke-width="0.24" fill="none"/>
  <path d="M59.43155,56.40339 L59.25754,56.30293" stroke="#000000" stroke-width="0.24" fill="none"/>
  <path d="M49.65102,47.40665 L49.65102,48.68844" stroke="#000000" stroke-width="0.24" fill="none"/>
  <path d="M49.64866,62.08416 L48.74655,61.56333" stroke="#000000" stroke-width="0.24" fill="none"/>
  <path d="M49.65102,60.15567 L59.25754,65.702 L59.25754,56.30293 L49.65102,50.7566 z" stroke="#000000" stroke-width="0.24" fill="none"/>
  <path d="M48.46302,62.05362 L48.46312,47.41553" stroke="#000000" stroke-width="0.24" fill="none"/>
  <path d="M49.65092,47.41553 L49.65102,48.82674 L59.25754,54.37307" stroke="#000000" stroke-width="0.24" fill="none"/>
  <path d="M59.25752,53.63885 L59.4315,53.39635 C59.61722,53.26493 60.08582,53.26493 60.27154,53.39635 L60.44554,66.38789" stroke="#000000" stroke-width="0.24" fill="none"/>
  <path d="M67.48933,70.45462 L67.58594,70.64208" stroke="#000000" stroke-width="0.24" fill="none"/>
  <path d="M66.39796,72.40836 L66.39796,71.75438" stroke="#000000" stroke-width="0.24" fill="none"/>
  <path d="M48.74653,60.59329 L59.38655,66.73633 L59.25752,66.52291 L59.25752,65.70198 L59.25752,56.3029 L49.65099,50.75657 L49.65099,60.15565 L49.47702,60.5434 C49.32057,60.64722 48.96382,60.6804 48.74653,60.59329 z" stroke="#000000" stroke-width="0.24" fill="none"/>
  <path d="M49.65102,50.7566 L48.74655,50.2344" stroke="#000000" stroke-width="0.24" fill="none"/>
  <path d="M66.57197,71.85484 L66.39796,71.75438" stroke="#000000" stroke-width="0.24" fill="none"/>
  <path d="M59.25754,66.52293 L59.25754,65.702" stroke="#000000" stroke-width="0.24" fill="none"/>
  <path d="M67.58596,70.64211 L67.58596,72.40836" stroke="#000000" stroke-width="0.24" fill="none"/>
  <path d="M66.39796,71.75438 L49.64866,62.08416" stroke="#000000" stroke-width="0.24" fill="none"/>
  <path d="M60.44554,66.38789 L67.48936,70.45464" stroke="#000000" stroke-width="0.24" fill="none"/>
  <path d="M48.63697,47.16413 C48.8227,47.03271 49.29129,47.03271 49.47702,47.16413 L49.65099,47.40663" stroke="#000000" stroke-width="0.24" fill="none"/>
  <path d="M59.25754,54.37307 L59.25764,53.64775" stroke="#000000" stroke-width="0.24" fill="none"/>
  <path d="M59.38655,66.73633 L59.25752,66.52291" stroke="#111111" stroke-width="0.24" fill="none"/>
  <path d="M49.65099,60.3009 L49.47702,60.5434 C49.32057,60.64722 48.96382,60.68039 48.74654,60.59328" stroke="#111111" stroke-width="0.24" fill="none"/>
  <path d="M67.58594,70.64209 L67.41196,70.88459 C67.22623,71.01601 66.75764,71.01601 66.57191,70.88459" stroke="#111111" stroke-width="0.24" fill="none"/>
  <path d="M49.65079,47.41551 L49.47702,47.64913 C49.29129,47.78055 48.8227,47.78055 48.63697,47.64913 L48.46319,47.4155" stroke="#111111" stroke-width="0.24" fill="none"/>
  <path d="M60.44552,53.63885 L60.27154,53.88135 C60.08582,54.01278 59.61722,54.01278 59.4315,53.88135 L59.25772,53.64773" stroke="#111111" stroke-width="0.24" fill="none"/>
  <path d="M59.43155,55.43339 L48.74655,49.2644" stroke="#111111" stroke-width="0.24" fill="none"/>
  <path d="M49.65091,48.97197 L49.47694,49.21447 C49.3205,49.31828 48.96382,49.35146 48.74652,49.26437" stroke="#111111" stroke-width="0.24" fill="none"/>
  <path d="M67.58594,72.40834 L67.41196,72.65084 C67.22623,72.78226 66.75764,72.78226 66.57191,72.65084" stroke="#111111" stroke-width="0.24" fill="none"/>
  <path d="M49.64864,62.08414 L49.47702,62.2961 C49.29129,62.42752 48.8227,62.42752 48.63697,62.2961 L48.46299,62.0536" stroke="#111111" stroke-width="0.24" fill="none"/>
  <path d="M60.44552,66.52291 L60.27154,66.76541 C60.10074,66.88264 59.68761,66.9018 59.48187,66.79136" stroke="#111111" stroke-width="0.24" fill="none"/>
  <path d="M66.57185,70.88477 L48.74655,60.59333" stroke="#111111" stroke-width="0.24" fill="none"/>
  <path d="M66.57191,72.65084 L66.39793,72.40834" stroke="#111111" stroke-width="0.24" fill="none"/>
</svg>