<?xml version="1.0" encoding="utf-8" standalone="no"?><!DOCTYPE svg PUBLIC "-//W3C//DTD SVG 1.1//EN" "http://www.w3.org/Graphics/SVG/1.1/DTD/svg11.dtd"><svg xmlns="http://www.w3.org/2000/svg" version="1.1" width="120pt" height="120pt" viewBox="0 0 120 120" overflow="visible">
  <path d="M49.85695,57.7383 L50.03093,57.4958 C50.21666,57.36438 50.68525,57.36438 50.87097,57.4958 L51.04495,57.7383 L50.87097,57.9808 C50.68525,58.11223 50.21666,58.11223 50.03093,57.9808 z" stroke="Black" stroke-width="0" fill="#555555" fill-opacity="1"/>
  <path d="M51.04495,59.43235 L51.04495,58.4725 L67.79189,48.80365 L67.96595,49.1914 C68.12238,49.2952 68.47904,49.32839 68.69633,49.24131 z" stroke="Black" stroke-width="0" fill="#555555" fill-opacity="1"/>
  <path d="M67.79189,47.38356 L67.96587,47.14106 C68.1516,47.00964 68.62019,47.00964 68.80592,47.14106 L68.97989,47.38356 L68.80592,47.62606 C68.47906,47.76305 68.12232,47.72988 67.96587,47.62606 z" stroke="Black" stroke-width="0" fill="#555555" fill-opacity="1"/>
  <path d="M51.04495,72.38527 L50.87097,72.62777 C50.68525,72.75919 50.21666,72.75919 50.03093,72.62777 L49.85695,72.38527 L49.85705,57.74718 L50.03093,57.9808 C50.21666,58.11223 50.68525,58.11223 50.87097,57.9808 L51.04485,57.74718 L51.04495,59.43235 L68.69636,49.2413 C68.47904,49.32839 68.12238,49.2952 67.96595,49.1914 L67.79193,48.9489 L67.79199,47.39244 L67.96587,47.62606 C68.12232,47.72988 68.47906,47.76305 68.69635,47.67594 L68.97969,47.39243 L68.97989,62.03053 L68.80592,62.27303 C68.62019,62.40445 68.1516,62.40445 67.96587,62.27303 L67.79189,62.03053 L67.79189,50.7335 L51.04495,60.40235 z" stroke="Black" stroke-width="0" fill="#777777" fill-opacity="1"/>
  <path d="M51.04495,57.7383 L50.87097,57.4958 C50.68525,57.36438 50.21666,57.36438 50.03093,57.4958 L49.85695,57.7383" stroke="#000000" stroke-width="0.24" fill="none"/>
  <path d="M51.04495,57.7383 L51.04495,59.43235" stroke="#000000" stroke-width="0.24" fill="none"/>
  <path d="M51.04498,72.3853 L51.04498,60.40237" stroke="#000000" stroke-width="0.24" fill="none"/>
  <path d="M68.80592,47.14106 C68.62019,47.00964 68.1516,47.00964 67.96587,47.14106" stroke="#000000" stroke-width="0.24" fill="none"/>
  <path d="M50.87097,60.50284 L68.69638,50.21133" stroke="#000000" stroke-width="0.24" fill="none"/>
  <path d="M67.79192,47.38358 L67.79192,48.94892" stroke="#000000" stroke-width="0.24" fill="none"/>
  <path d="M67.79192,50.73352 L67.79192,62.03055" stroke="#000000" stroke-width="0.24" fill="none"/>
  <path d="M68.97991,62.03055 L68.97991,47.38358" stroke="#000000" stroke-width="0.24" fill="none"/>
  <path d="M51.04498,58.47252 L67.79192,48.80367" stroke="#000000" stroke-width="0.24" fill="none"/>
  <path d="M68.97989,47.38356 L68.80592,47.14106" stroke="#000000" stroke-width="0.24" fill="none"/>
  <path d="M49.85695,72.38527 L49.85695,57.7383" stroke="#000000" stroke-width="0.24" fill="none"/>
  <path d="M49.85695,57.7383 L50.03093,57.9808 C50.21666,58.11223 50.68525,58.11223 50.87097,57.9808 L51.04495,57.7383" stroke="#111111" stroke-width="0.24" fill="none"/>
  <path d="M49.85695,72.38527 L50.03093,72.62777 C50.21666,72.75919 50.68525,72.75919 50.87097,72.62777 L51.04495,72.38527" stroke="#111111" stroke-width="0.24" fill="none"/>
  <path d="M67.79189,62.03053 L67.96587,62.27303 C68.1516,62.40445 68.62019,62.40445 68.80592,62.27303 L68.97989,62.03053" stroke="#111111" stroke-width="0.24" fill="none"/>
  <path d="M67.96587,47.14106 L67.79189,47.38356 L67.96587,47.62606 C68.1516,47.75748 68.62019,47.75748 68.80592,47.62606 L68.97989,47.38356" stroke="#111111" stroke-width="0.24" fill="none"/>
  <path d="M67.79192,48.66537 L67.79192,47.38358" stroke="#111111" stroke-width="0.24" fill="none"/>
  <path d="M50.87097,59.53284 L68.69638,49.24133" stroke="#111111" stroke-width="0.24" fill="none"/>
  <path d="M67.79197,48.9489 L67.96595,49.1914 C68.12238,49.2952 68.47906,49.32839 68.69636,49.2413" stroke="#111111" stroke-width="0.24" fill="none"/>
  <path d="M68.97989,47.38356 L68.80592,47.14106 C68.62019,47.00964 68.1516,47.00964 67.96587,47.14106" stroke="#111111" stroke-width="0.24" fill="none"/>
</svg>
