<?xml version="1.0" encoding="utf-8" standalone="no"?>
<!DOCTYPE svg PUBLIC "-//W3C//DTD SVG 1.1//EN" "http://www.w3.org/Graphics/SVG/1.1/DTD/svg11.dtd">
<svg version="1.1" width="120pt" height="120pt" viewBox="0 0 120 120" overflow="visible" xmlns="http://www.w3.org/2000/svg">
  <path d="M98.91754,57.765 L103.5832,55.07126 L103.5832,55.65444 L98.91754,58.34818 z" stroke="Black" stroke-width="0" fill="#BBBBBB" fill-opacity="1" />
  <path d="M50.8121,85.53869 L97.72714,58.45228 L97.72714,59.03545 L50.8121,86.12186 z" stroke="Black" stroke-width="0" fill="#BBBBBB" fill-opacity="1" />
  <path d="M49.6217,86.80914 L43.81969,90.15893 L43.81969,89.57575 L49.6217,86.22597 z" stroke="Black" stroke-width="0" fill="#BBBBBB" fill-opacity="1" />
  <path d="M49.6217,71.98679 L43.81969,75.33658 L43.81969,74.7534 L49.62165,71.40366 z" stroke="Black" stroke-width="0" fill="#BBBBBB" fill-opacity="1" />
  <path d="M98.91574,42.94369 L103.5832,40.24891 L103.5832,40.83208 L98.91754,43.52582 z" stroke="Black" stroke-width="0" fill="#BBBBBB" fill-opacity="1" />
  <path d="M97.72714,44.2131 L50.8121,71.29951 L50.8121,70.74407 L97.72714,43.62992 z" stroke="Black" stroke-width="0" fill="#BBBBBB" fill-opacity="1" />
  <path d="M43.81969,75.33658 L26.9849,65.617 L26.9849,65.03383 L43.81969,74.7534 z" stroke="Black" stroke-width="0" fill="#CCCCCC" fill-opacity="1" />
  <path d="M26.9849,80.43935 L26.9849,79.85618 L43.81969,89.57575 L43.81969,90.15893 z" stroke="Black" stroke-width="0" fill="#CCCCCC" fill-opacity="1" />
  <path d="M43.81969,89.57575 L26.9849,79.85618 L39.31639,72.7366 L43.81969,75.33658 L48.38614,72.70014 L49.6217,73.4135 L49.6217,75.04845 L49.6217,86.22597 z" stroke="Black" stroke-width="0" fill="#EEEEEE" fill-opacity="1" />
  <path d="M98.91754,57.765 L98.91754,52.37753 L103.5832,55.07126 z" stroke="Black" stroke-width="0" fill="#EEEEEE" fill-opacity="1" />
  <path d="M98.91754,57.765 L98.91754,52.37753 L103.5832,55.07126 z" stroke="Black" stroke-width="0" fill="#EEEEEE" fill-opacity="1" />
  <path d="M97.72714,43.62992 L50.81031,70.71737 L50.63778,70.50108 C50.45167,70.36939 49.98214,70.36939 49.79604,70.50108 L49.6217,70.74407 L49.62165,71.40366 L43.81969,74.7534 L26.9849,65.03383 L86.74843,30.52934 L103.5832,40.24891 L98.91574,42.94369 L98.74321,42.72739 C98.55711,42.59571 98.08757,42.59571 97.90147,42.72739 L97.72714,42.97038 z" stroke="Black" stroke-width="0" fill="#EEEEEE" fill-opacity="1" />
  <path d="M50.8121,71.29951 L91.25169,47.9517 L97.72701,51.6901 L97.72714,58.45228 L50.8121,85.53869 z" stroke="Black" stroke-width="0" fill="#EEEEEE" fill-opacity="1" />
  <path d="M97.72714,44.2131 L97.72714,44.66786 L97.33331,44.44048 z" stroke="Black" stroke-width="0" fill="#555555" fill-opacity="1" />
  <path d="M31.65059,60.36844 L31.82491,60.12545 C32.01102,59.99376 32.48055,59.99376 32.66665,60.12545 L32.84098,60.36844 L32.66665,60.61143 C32.48055,60.74312 32.01102,60.74312 31.82491,60.61143 z" stroke="Black" stroke-width="0" fill="#555555" fill-opacity="1" />
  <path d="M80.94622,32.60365 L80.77209,32.83774 C80.58599,32.96943 80.11646,32.96943 79.93035,32.83774 L79.75602,32.59475 L79.93035,32.35176 C80.11646,32.22007 80.58599,32.22007 80.77209,32.35176 z" stroke="Black" stroke-width="0" fill="#555555" fill-opacity="1" />
  <path d="M97.72714,42.97038 L97.90147,42.72739 C98.08757,42.59571 98.55711,42.59571 98.74321,42.72739 L98.91574,42.94369 L98.74321,43.21338 C98.55711,43.34506 98.08757,43.34506 97.90147,43.21338 z" stroke="Black" stroke-width="0" fill="#555555" fill-opacity="1" />
  <path d="M97.7271,59.49009 L97.33331,59.26283 L97.72714,59.03545 z" stroke="Black" stroke-width="0" fill="#555555" fill-opacity="1" />
  <path d="M49.6217,87.26388 L49.22787,87.03651 L49.6217,86.80914 z" stroke="Black" stroke-width="0" fill="#555555" fill-opacity="1" />
  <path d="M50.812,70.75296 L50.63778,70.98706 C50.45167,71.11875 49.98214,71.11875 49.79604,70.98706 L49.6218,70.75296 L49.79604,70.50108 C49.98214,70.36939 50.45167,70.36939 50.63778,70.50108 z" stroke="Black" stroke-width="0" fill="#555555" fill-opacity="1" />
  <path d="M49.6217,72.44154 L49.22787,72.21416 L49.6217,71.98679 z" stroke="Black" stroke-width="0" fill="#555555" fill-opacity="1" />
  <path d="M79.93035,32.83774 C80.11646,32.96943 80.58599,32.96943 80.77209,32.83774 L80.94622,32.60365 L80.94642,33.87913 L79.75602,34.56641 L79.75612,32.60365 z" stroke="Black" stroke-width="0" fill="#777777" fill-opacity="1" />
  <path d="M31.65068,60.37733 L31.82491,60.61143 C32.01102,60.74312 32.48055,60.74312 32.66665,60.61143 L32.84079,60.37733 L32.84098,61.65281 L31.65059,62.34009 z" stroke="Black" stroke-width="0" fill="#777777" fill-opacity="1" />
  <path d="M49.6217,73.4135 L48.38614,72.70014 L49.22787,72.21416 L49.6217,72.44154 L49.6218,70.75296 L49.79604,70.98706 C49.98214,71.11875 50.45167,71.11875 50.63778,70.98706 L50.812,70.75296 L50.8121,91.25237 L50.63778,91.49536 C50.45167,91.62705 49.98214,91.62705 49.79604,91.49536 L49.6217,91.25237 L49.6217,88.23586 L48.38614,87.5225 L49.22787,87.03651 L49.6217,87.26388 z" stroke="Black" stroke-width="0" fill="#777777" fill-opacity="1" />
  <path d="M32.84098,68.99802 L32.84098,76.47517 L31.65059,77.16245 L31.65059,68.31074 z" stroke="Black" stroke-width="0" fill="#777777" fill-opacity="1" />
  <path d="M97.72714,60.46217 L96.49157,59.74881 L97.33331,59.26283 L97.7271,59.49009 L97.72714,45.63981 L96.49157,44.92646 L97.33331,44.44048 L97.72714,44.66786 L97.72724,42.97928 L97.90147,43.21338 C98.08757,43.34506 98.55711,43.34506 98.74321,43.21338 L98.91744,42.97928 L98.91754,63.47869 L98.74321,63.72168 C98.55711,63.85337 98.08757,63.85337 97.90147,63.72168 L97.72714,63.47869 z" stroke="Black" stroke-width="0" fill="#777777" fill-opacity="1" />
  <path d="M86.74845,30.52936 L26.98492,65.03385" stroke="#000000" stroke-width="0.24" fill="none" />
  <path d="M26.98492,65.61703 L36.66493,71.20578" stroke="#000000" stroke-width="0.24" fill="none" />
  <path d="M43.81972,90.15895 L49.62173,86.80917" stroke="#000000" stroke-width="0.24" fill="none" />
  <path d="M98.91756,42.97041 L98.91756,63.47871" stroke="#000000" stroke-width="0.24" fill="none" />
  <path d="M97.72717,45.63984 L97.72717,59.49005" stroke="#000000" stroke-width="0.24" fill="none" />
  <path d="M97.72717,42.97041 L97.72717,44.66788" stroke="#000000" stroke-width="0.24" fill="none" />
  <path d="M48.38608,72.70012 L49.79609,73.51419" stroke="#000000" stroke-width="0.24" fill="none" />
  <path d="M97.90152,45.7405 L96.49158,44.92648" stroke="#000000" stroke-width="0.24" fill="none" />
  <path d="M97.90152,60.56285 L96.49136,59.7487" stroke="#000000" stroke-width="0.24" fill="none" />
  <path d="M50.81213,71.29953 L97.72717,44.21312" stroke="#000000" stroke-width="0.24" fill="none" />
  <path d="M43.81972,75.3366 L49.62172,71.98682" stroke="#000000" stroke-width="0.24" fill="none" />
  <path d="M49.62173,73.41352 L49.62173,87.26389" stroke="#000000" stroke-width="0.24" fill="none" />
  <path d="M50.81213,91.2524 L50.81213,70.74409" stroke="#000000" stroke-width="0.24" fill="none" />
  <path d="M48.38608,87.52248 L49.79609,88.33654" stroke="#000000" stroke-width="0.24" fill="none" />
  <path d="M97.72714,42.97038 L97.90147,42.72739 C98.08757,42.59571 98.55711,42.59571 98.74321,42.72739 L98.91754,42.97038" stroke="#000000" stroke-width="0.24" fill="none" />
  <path d="M50.63778,70.50108 L50.8121,70.74407" stroke="#000000" stroke-width="0.24" fill="none" />
  <path d="M49.6217,70.74407 L49.79604,70.50108 C49.98214,70.36939 50.45167,70.36939 50.63778,70.50108" stroke="#000000" stroke-width="0.24" fill="none" />
  <path d="M48.38616,72.70016 L49.62173,73.41352 L49.62173,75.04848" stroke="#000000" stroke-width="0.24" fill="none" />
  <path d="M50.81213,71.29953 L86.91084,50.45794" stroke="#000000" stroke-width="0.24" fill="none" />
  <path d="M50.81213,74.3612 L50.81213,71.29953" stroke="#000000" stroke-width="0.24" fill="none" />
  <path d="M88.10123,49.77066 L96.49159,44.92648 L97.72717,45.63984 L97.72704,51.69013" stroke="#000000" stroke-width="0.24" fill="none" />
  <path d="M48.38616,87.52252 L49.62173,88.23588 L49.62173,91.2524 L49.79604,91.49536 C49.98214,91.62705 50.45167,91.62705 50.63778,91.49536 L50.8121,91.25237 L50.81213,86.12189 L96.49159,59.74883 L97.72717,60.46219 L97.72717,63.47871 L97.90147,63.72168 C98.08757,63.85337 98.55711,63.85337 98.74321,63.72168 L98.91754,63.47869 L98.91756,58.3482 L103.5833,55.65446 L103.5833,55.07129 L98.91756,52.37755 L98.91756,43.52584 L103.5833,40.83211" stroke="#000000" stroke-width="0.24" fill="none" />
  <path d="M49.62173,70.74409 L49.62173,72.44157" stroke="#000000" stroke-width="0.24" fill="none" />
  <path d="M26.98492,79.8562 L26.98492,80.43938 L43.71038,90.09583" stroke="#000000" stroke-width="0.24" fill="none" />
  <path d="M31.65061,68.31076 L31.65061,77.16247" stroke="#000000" stroke-width="0.24" fill="none" />
  <path d="M26.98492,65.61703 L31.65061,68.31076" stroke="#000000" stroke-width="0.24" fill="none" />
  <path d="M26.98492,65.03385 L26.98492,65.61703" stroke="#000000" stroke-width="0.24" fill="none" />
  <path d="M31.65061,62.34011 L26.98492,65.03385" stroke="#000000" stroke-width="0.24" fill="none" />
  <path d="M79.75604,32.59478 L79.75604,34.56643" stroke="#000000" stroke-width="0.24" fill="none" />
  <path d="M97.72704,51.69013 L91.25172,47.95173" stroke="#000000" stroke-width="0.24" fill="none" />
  <path d="M31.65061,60.36847 L31.65061,62.34011" stroke="#000000" stroke-width="0.24" fill="none" />
  <path d="M39.31641,72.73662 L26.98492,79.8562" stroke="#000000" stroke-width="0.24" fill="none" />
  <path d="M50.81213,86.12189 L97.72717,59.03548" stroke="#000000" stroke-width="0.24" fill="none" />
  <path d="M31.82491,60.12545 L31.65059,60.36844" stroke="#000000" stroke-width="0.24" fill="none" />
  <path d="M79.75604,34.56643 L32.84101,61.65284" stroke="#000000" stroke-width="0.24" fill="none" />
  <path d="M32.66665,60.12545 C32.48055,59.99376 32.01102,59.99376 31.82491,60.12545" stroke="#000000" stroke-width="0.24" fill="none" />
  <path d="M32.84098,60.36844 L32.66665,60.12545" stroke="#000000" stroke-width="0.24" fill="none" />
  <path d="M43.81972,90.15895 L48.38616,87.52252" stroke="#000000" stroke-width="0.24" fill="none" />
  <path d="M43.81972,75.3366 L48.38616,72.70016" stroke="#000000" stroke-width="0.24" fill="none" />
  <path d="M32.84101,68.99804 L43.81972,75.3366" stroke="#000000" stroke-width="0.24" fill="none" />
  <path d="M32.84101,61.65284 L32.84091,60.37736" stroke="#000000" stroke-width="0.24" fill="none" />
  <path d="M79.93035,32.35176 L79.75602,32.59475" stroke="#000000" stroke-width="0.24" fill="none" />
  <path d="M103.5833,40.83211 L103.5833,40.24894" stroke="#000000" stroke-width="0.24" fill="none" />
  <path d="M80.77209,32.35176 C80.58599,32.22007 80.11646,32.22007 79.93035,32.35176" stroke="#000000" stroke-width="0.24" fill="none" />
  <path d="M103.5833,40.24894 L86.74845,30.52936" stroke="#000000" stroke-width="0.24" fill="none" />
  <path d="M80.94642,32.59475 L80.77209,32.35176" stroke="#000000" stroke-width="0.24" fill="none" />
  <path d="M80.94644,33.87915 L80.94634,32.60367" stroke="#000000" stroke-width="0.24" fill="none" />
  <path d="M86.74845,30.52936 L80.94644,33.87915" stroke="#000000" stroke-width="0.24" fill="none" />
  <path d="M32.84101,76.47519 L32.84101,68.99804" stroke="#000000" stroke-width="0.24" fill="none" />
  <path d="M49.22772,72.21409 L49.79609,72.54223" stroke="#111111" stroke-width="0.24" fill="none" />
  <path d="M97.90152,44.76855 L97.33322,44.44044" stroke="#111111" stroke-width="0.24" fill="none" />
  <path d="M97.90152,59.5909 L97.33326,59.26281" stroke="#111111" stroke-width="0.24" fill="none" />
  <path d="M50.81028,70.71742 L97.72717,43.62995" stroke="#111111" stroke-width="0.24" fill="none" />
  <path d="M50.8121,70.74407 L50.63778,70.98706 C50.45167,71.11875 49.98214,71.11875 49.79604,70.98706 L49.6217,70.74407" stroke="#111111" stroke-width="0.24" fill="none" />
  <path d="M49.22772,87.03644 L49.79609,87.36459" stroke="#111111" stroke-width="0.24" fill="none" />
  <path d="M50.81213,85.53871 L97.72717,58.4523" stroke="#111111" stroke-width="0.24" fill="none" />
  <path d="M98.91756,43.52584 L103.5833,40.83211" stroke="#111111" stroke-width="0.24" fill="none" />
  <path d="M103.5833,55.07129 L98.9175,52.37752" stroke="#111111" stroke-width="0.24" fill="none" />
  <path d="M97.72717,60.46219 L97.72717,63.47871" stroke="#111111" stroke-width="0.24" fill="none" />
  <path d="M98.91756,57.76502 L103.5833,55.07129" stroke="#111111" stroke-width="0.24" fill="none" />
  <path d="M97.72691,51.69013 L93.90324,49.48253" stroke="#111111" stroke-width="0.24" fill="none" />
  <path d="M103.5833,55.65446 L103.5833,55.07129" stroke="#111111" stroke-width="0.24" fill="none" />
  <path d="M97.90147,43.21338 L97.72714,42.97038" stroke="#111111" stroke-width="0.24" fill="none" />
  <path d="M97.90147,63.72168 L97.72714,63.47869" stroke="#111111" stroke-width="0.24" fill="none" />
  <path d="M43.81972,75.3366 L43.81972,74.75343" stroke="#111111" stroke-width="0.24" fill="none" />
  <path d="M103.5833,40.83211 L103.5833,40.24894" stroke="#111111" stroke-width="0.24" fill="none" />
  <path d="M49.62173,88.23588 L49.62173,91.2524" stroke="#111111" stroke-width="0.24" fill="none" />
  <path d="M43.81972,89.57578 L49.62173,86.22599" stroke="#111111" stroke-width="0.24" fill="none" />
  <path d="M26.98492,79.8562 L43.81972,89.57578" stroke="#111111" stroke-width="0.24" fill="none" />
  <path d="M26.98492,80.43938 L43.81972,90.15895" stroke="#111111" stroke-width="0.24" fill="none" />
  <path d="M43.81972,74.75343 L49.62163,71.40369" stroke="#111111" stroke-width="0.24" fill="none" />
  <path d="M26.98492,65.03385 L43.81972,74.75343" stroke="#111111" stroke-width="0.24" fill="none" />
  <path d="M96.42847,36.11811 L86.74845,30.52936" stroke="#111111" stroke-width="0.24" fill="none" />
  <path d="M50.8121,91.25237 L50.63778,91.49536 C50.45167,91.62705 49.98214,91.62705 49.79604,91.49536 L49.6217,91.25237" stroke="#111111" stroke-width="0.24" fill="none" />
  <path d="M98.91576,42.94371 L103.5833,40.24894" stroke="#111111" stroke-width="0.24" fill="none" />
  <path d="M98.91754,63.47869 L98.74321,63.72168 C98.55711,63.85337 98.08757,63.85337 97.90147,63.72168" stroke="#111111" stroke-width="0.24" fill="none" />
  <path d="M43.81972,90.15895 L43.81972,89.57578" stroke="#111111" stroke-width="0.24" fill="none" />
  <path d="M98.91756,58.3482 L103.5833,55.65446" stroke="#111111" stroke-width="0.24" fill="none" />
  <path d="M98.91754,42.97038 L98.74321,43.21338 C98.55711,43.34506 98.08757,43.34506 97.90147,43.21338" stroke="#111111" stroke-width="0.24" fill="none" />
  <path d="M79.75602,32.59475 L79.75602,34.56641" stroke="#111111" stroke-width="0.24" fill="none" />
  <path d="M79.75602,32.59475 L79.93035,32.35176 C80.11646,32.22007 80.58599,32.22007 80.77209,32.35176 L80.94642,32.59475" stroke="#111111" stroke-width="0.24" fill="none" />
  <path d="M79.93035,32.83774 L79.75602,32.59475" stroke="#111111" stroke-width="0.24" fill="none" />
  <path d="M80.94642,32.59475 L80.77209,32.83774 C80.58599,32.96943 80.11646,32.96943 79.93035,32.83774" stroke="#111111" stroke-width="0.24" fill="none" />
  <path d="M32.66665,60.12545 L32.84098,60.36844" stroke="#111111" stroke-width="0.24" fill="none" />
  <path d="M31.65059,60.36844 L31.82491,60.12545 C32.01102,59.99376 32.48055,59.99376 32.66665,60.12545" stroke="#111111" stroke-width="0.24" fill="none" />
  <path d="M26.98492,65.61703 L26.98492,65.03385" stroke="#111111" stroke-width="0.24" fill="none" />
  <path d="M26.98492,80.43938 L26.98492,79.8562" stroke="#111111" stroke-width="0.24" fill="none" />
  <path d="M32.84098,61.65281 L32.84098,60.36844" stroke="#111111" stroke-width="0.24" fill="none" />
  <path d="M32.84098,76.47517 L32.84098,68.99802" stroke="#111111" stroke-width="0.24" fill="none" />
  <path d="M31.65059,68.31074 L31.65059,77.16245" stroke="#111111" stroke-width="0.24" fill="none" />
  <path d="M80.94642,33.87913 L80.94642,32.59475" stroke="#111111" stroke-width="0.24" fill="none" />
  <path d="M32.84098,60.36844 L32.66665,60.61143 C32.48055,60.74312 32.01102,60.74312 31.82491,60.61143 L31.65059,60.36844 L31.65059,62.34009" stroke="#111111" stroke-width="0.24" fill="none" />
</svg>