<?xml version="1.0" encoding="utf-8" standalone="no"?>
<!DOCTYPE svg PUBLIC "-//W3C//DTD SVG 1.1//EN" "http://www.w3.org/Graphics/SVG/1.1/DTD/svg11.dtd">
<svg version="1.1" width="120pt" height="120pt" viewBox="0 0 120 120" overflow="visible" xmlns="http://www.w3.org/2000/svg">
  <path d="M47.39448,75.24265 L41.59247,78.59245 L41.59247,78.00928 L47.39448,74.65948 z" stroke="Black" stroke-width="0" fill="#BBBBBB" fill-opacity="1" />
  <path d="M101.356,44.08796 L96.69032,46.78169 L96.69032,46.22625 L101.356,43.50478 z" stroke="Black" stroke-width="0" fill="#BBBBBB" fill-opacity="1" />
  <path d="M48.58308,73.97324 L95.49984,46.88588 L95.49989,47.469 L48.58488,74.55538 z" stroke="Black" stroke-width="0" fill="#BBBBBB" fill-opacity="1" />
  <path d="M24.75767,68.87287 L24.75767,68.2897 L41.59247,78.00928 L41.59247,78.59245 z" stroke="Black" stroke-width="0" fill="#CCCCCC" fill-opacity="1" />
  <path d="M48.58308,73.97324 L48.41055,73.75695 C48.22445,73.62526 47.75491,73.62526 47.56881,73.75695 L47.39448,73.99994 L47.39448,74.65948 L41.59247,78.00928 L24.75767,68.2897 L84.5212,33.78521 L101.356,43.50478 L96.68851,46.19955 L96.51598,45.98326 C96.32988,45.85158 95.86034,45.85158 95.67424,45.98326 L95.49992,46.22625 L95.49984,46.88588 z" stroke="Black" stroke-width="0" fill="#EEEEEE" fill-opacity="1" />
  <path d="M78.71909,35.85952 L78.54486,36.09361 C78.35876,36.2253 77.88922,36.2253 77.70313,36.09361 L77.52899,35.85951 L77.70313,35.60764 C77.88922,35.47594 78.35876,35.47594 78.54486,35.60764 z" stroke="Black" stroke-width="0" fill="#555555" fill-opacity="1" />
  <path d="M30.61366,63.6332 L30.43943,63.8673 C30.25333,63.99899 29.78379,63.99899 29.59769,63.8673 L29.42356,63.6332 L29.59769,63.38132 C29.78379,63.24963 30.25333,63.24963 30.43943,63.38132 z" stroke="Black" stroke-width="0" fill="#555555" fill-opacity="1" />
  <path d="M95.49992,46.22625 L95.67424,45.98326 C95.86034,45.85158 96.32988,45.85158 96.51598,45.98326 L96.68852,46.19959 L96.51598,46.46925 C96.32988,46.60093 95.86034,46.60093 95.67424,46.46925 z" stroke="Black" stroke-width="0" fill="#555555" fill-opacity="1" />
  <path d="M95.49989,47.469 L95.49992,47.92373 L95.10608,47.69635 z" stroke="Black" stroke-width="0" fill="#555555" fill-opacity="1" />
  <path d="M47.39448,75.24265 L47.39448,75.69741 L47.00064,75.47003 z" stroke="Black" stroke-width="0" fill="#555555" fill-opacity="1" />
  <path d="M47.39448,73.99994 L47.56881,73.75695 C47.75491,73.62526 48.22445,73.62526 48.41055,73.75695 L48.58308,73.97324 L48.41055,74.24293 C48.22445,74.37462 47.75491,74.37462 47.56881,74.24293 z" stroke="Black" stroke-width="0" fill="#555555" fill-opacity="1" />
  <path d="M30.61376,64.90868 L29.4234,65.5959 L29.42351,63.6332 L29.59769,63.8673 C29.78379,63.99899 30.25333,63.99899 30.43943,63.8673 L30.61366,63.6332 z" stroke="Black" stroke-width="0" fill="#777777" fill-opacity="1" />
  <path d="M77.52879,37.82228 L77.52895,35.85952 L77.70313,36.09361 C77.88922,36.2253 78.35876,36.2253 78.54486,36.09361 L78.71909,35.85952 L78.71922,37.13492 z" stroke="Black" stroke-width="0" fill="#777777" fill-opacity="1" />
  <path d="M95.49992,48.89568 L94.26434,48.18233 L95.10608,47.69635 L95.49992,47.92373 L95.50002,46.23515 L95.67424,46.46925 C95.86034,46.60093 96.32988,46.60093 96.51598,46.46925 L96.69022,46.23515 L96.69032,60.90281 L96.51598,61.1458 C96.32988,61.27749 95.86034,61.27749 95.67424,61.1458 L95.49992,60.90281 z" stroke="Black" stroke-width="0" fill="#777777" fill-opacity="1" />
  <path d="M47.39448,76.66937 L46.15891,75.95602 L47.00064,75.47003 L47.39448,75.69741 L47.39458,74.00883 L47.56881,74.24293 C47.75491,74.37462 48.22445,74.37462 48.41055,74.24293 L48.58478,74.00883 L48.58488,88.6765 L48.41055,88.91949 C48.22445,89.05118 47.75491,89.05118 47.56881,88.91949 L47.39448,88.6765 z" stroke="Black" stroke-width="0" fill="#777777" fill-opacity="1" />
  <path d="M30.61376,72.25388 L30.61376,78.30087 L30.43943,78.54386 C30.25333,78.67554 29.78379,78.67554 29.59769,78.54386 L29.42336,78.30087 L29.42336,71.56661 z" stroke="Black" stroke-width="0" fill="#777777" fill-opacity="1" />
  <path d="M46.15893,75.95604 L41.59249,78.59248" stroke="#000000" stroke-width="0.24" fill="none" />
  <path d="M96.69034,46.78172 L96.69034,60.90284" stroke="#000000" stroke-width="0.24" fill="none" />
  <path d="M30.61378,64.90871 L77.52882,37.8223" stroke="#000000" stroke-width="0.24" fill="none" />
  <path d="M47.3945,76.6694 L46.15893,75.95604" stroke="#000000" stroke-width="0.24" fill="none" />
  <path d="M84.68361,53.71381 L48.5849,74.5554" stroke="#000000" stroke-width="0.24" fill="none" />
  <path d="M94.26437,48.18235 L85.87401,53.02653" stroke="#000000" stroke-width="0.24" fill="none" />
  <path d="M30.43943,63.38132 L30.61376,63.62431" stroke="#000000" stroke-width="0.24" fill="none" />
  <path d="M95.49994,48.89571 L94.26437,48.18235" stroke="#000000" stroke-width="0.24" fill="none" />
  <path d="M101.356,44.08798 L96.69034,46.78172" stroke="#000000" stroke-width="0.24" fill="none" />
  <path d="M101.356,43.50481 L101.356,44.08798" stroke="#000000" stroke-width="0.24" fill="none" />
  <path d="M29.59769,63.38132 C29.78379,63.24963 30.25333,63.24963 30.43943,63.38132" stroke="#000000" stroke-width="0.24" fill="none" />
  <path d="M84.52122,33.78523 L101.356,43.50481" stroke="#000000" stroke-width="0.24" fill="none" />
  <path d="M29.42336,63.62431 L29.59769,63.38132" stroke="#000000" stroke-width="0.24" fill="none" />
  <path d="M47.39448,73.99994 L47.56881,73.75695 C47.75491,73.62526 48.22445,73.62526 48.41055,73.75695" stroke="#000000" stroke-width="0.24" fill="none" />
  <path d="M29.42338,78.3009 L29.42338,71.56664" stroke="#000000" stroke-width="0.24" fill="none" />
  <path d="M29.42341,65.59589 L29.42348,63.63323" stroke="#000000" stroke-width="0.24" fill="none" />
  <path d="M24.75769,68.28973 L29.42341,65.59589" stroke="#000000" stroke-width="0.24" fill="none" />
  <path d="M95.49994,60.90284 L95.49994,48.89571" stroke="#000000" stroke-width="0.24" fill="none" />
  <path d="M24.75769,68.87289 L24.75769,68.28973" stroke="#000000" stroke-width="0.24" fill="none" />
  <path d="M48.5849,74.5554 L48.5849,88.67652" stroke="#000000" stroke-width="0.24" fill="none" />
  <path d="M48.41055,73.75695 L48.58488,73.99994" stroke="#000000" stroke-width="0.24" fill="none" />
  <path d="M47.3945,73.99996 L47.3945,75.69744" stroke="#000000" stroke-width="0.24" fill="none" />
  <path d="M95.49992,46.22625 L95.49992,47.92373" stroke="#000000" stroke-width="0.24" fill="none" />
  <path d="M95.49992,46.22625 L95.67424,45.98326 C95.86034,45.85158 96.32988,45.85158 96.51598,45.98326 L96.69032,46.22625" stroke="#000000" stroke-width="0.24" fill="none" />
  <path d="M47.3945,88.67652 L47.3945,76.6694" stroke="#000000" stroke-width="0.24" fill="none" />
  <path d="M95.67429,48.99637 L94.26421,48.18226" stroke="#000000" stroke-width="0.24" fill="none" />
  <path d="M24.75769,68.87289 L41.59249,78.59248 L47.3945,75.24268" stroke="#000000" stroke-width="0.24" fill="none" />
  <path d="M48.58482,74.55544 L95.49989,47.46902" stroke="#000000" stroke-width="0.24" fill="none" />
  <path d="M46.15893,75.95604 L47.56886,76.77006" stroke="#000000" stroke-width="0.24" fill="none" />
  <path d="M29.42338,71.56664 L24.75769,68.87289" stroke="#000000" stroke-width="0.24" fill="none" />
  <path d="M48.5849,88.67652 L48.5849,73.99996" stroke="#000000" stroke-width="0.24" fill="none" />
  <path d="M30.61378,63.62433 L30.61378,64.90871" stroke="#000000" stroke-width="0.24" fill="none" />
  <path d="M78.71925,37.13494 L84.52122,33.78523" stroke="#000000" stroke-width="0.24" fill="none" />
  <path d="M78.71922,35.85065 L78.71925,37.13494" stroke="#000000" stroke-width="0.24" fill="none" />
  <path d="M84.52122,33.78523 L24.75769,68.28972" stroke="#000000" stroke-width="0.24" fill="none" />
  <path d="M101.356,43.50481 L84.52122,33.78523" stroke="#000000" stroke-width="0.24" fill="none" />
  <path d="M30.61378,72.25391 L30.61378,78.3009" stroke="#000000" stroke-width="0.24" fill="none" />
  <path d="M96.69034,60.90284 L96.69034,46.22628" stroke="#000000" stroke-width="0.24" fill="none" />
  <path d="M78.54486,35.60764 L78.71919,35.85062" stroke="#000000" stroke-width="0.24" fill="none" />
  <path d="M77.70313,35.60764 C77.88922,35.47594 78.35876,35.47594 78.54486,35.60764" stroke="#000000" stroke-width="0.24" fill="none" />
  <path d="M77.52879,35.85062 L77.70313,35.60764" stroke="#000000" stroke-width="0.24" fill="none" />
  <path d="M77.52882,37.8223 L77.52892,35.85954" stroke="#000000" stroke-width="0.24" fill="none" />
  <path d="M41.59249,78.59248 L30.61378,72.25391" stroke="#000000" stroke-width="0.24" fill="none" />
  <path d="M95.67424,46.46925 L95.49992,46.22625" stroke="#111111" stroke-width="0.24" fill="none" />
  <path d="M101.356,43.50481 L84.52122,33.78523" stroke="#111111" stroke-width="0.24" fill="none" />
  <path d="M101.356,44.08798 L101.356,43.50481" stroke="#111111" stroke-width="0.24" fill="none" />
  <path d="M96.68845,46.19963 L101.356,43.50481" stroke="#111111" stroke-width="0.24" fill="none" />
  <path d="M96.69034,46.78172 L101.356,44.08798" stroke="#111111" stroke-width="0.24" fill="none" />
  <path d="M48.58488,88.6765 L48.41055,88.91949 C48.22445,89.05118 47.75491,89.05118 47.56881,88.91949 L47.39448,88.6765" stroke="#111111" stroke-width="0.24" fill="none" />
  <path d="M96.69032,46.22625 L96.51598,46.46925 C96.32988,46.60093 95.86034,46.60093 95.67424,46.46925" stroke="#111111" stroke-width="0.24" fill="none" />
  <path d="M24.75769,68.28973 L41.59249,78.0093" stroke="#111111" stroke-width="0.24" fill="none" />
  <path d="M30.43943,63.38132 L30.61376,63.62431" stroke="#111111" stroke-width="0.24" fill="none" />
  <path d="M48.5831,73.97327 L95.49979,46.8859" stroke="#111111" stroke-width="0.24" fill="none" />
  <path d="M29.42336,63.62431 L29.42336,65.59582" stroke="#111111" stroke-width="0.24" fill="none" />
  <path d="M29.42336,63.62431 L29.59769,63.38132 C29.78379,63.24963 30.25333,63.24963 30.43943,63.38132 L30.43943,63.8673 C30.25333,63.99899 29.78379,63.99899 29.59769,63.8673 z" stroke="#111111" stroke-width="0.24" fill="none" />
  <path d="M77.52879,35.85062 L77.52879,37.82228" stroke="#111111" stroke-width="0.24" fill="none" />
  <path d="M77.52879,35.85062 L77.70313,35.60764 C77.88922,35.47594 78.35876,35.47594 78.54486,35.60764 L78.71919,35.85062" stroke="#111111" stroke-width="0.24" fill="none" />
  <path d="M41.59249,78.0093 L47.3945,74.65951" stroke="#111111" stroke-width="0.24" fill="none" />
  <path d="M47.00044,75.46992 L47.56886,75.7981" stroke="#111111" stroke-width="0.24" fill="none" />
  <path d="M77.70313,36.09361 L77.52879,35.85062" stroke="#111111" stroke-width="0.24" fill="none" />
  <path d="M78.71919,35.85062 L78.54486,36.09361 C78.35876,36.2253 77.88922,36.2253 77.70313,36.09361" stroke="#111111" stroke-width="0.24" fill="none" />
  <path d="M24.75769,68.87289 L24.75769,68.28973" stroke="#111111" stroke-width="0.24" fill="none" />
  <path d="M78.71919,37.13487 L78.71919,35.85062" stroke="#111111" stroke-width="0.24" fill="none" />
  <path d="M30.61376,64.90868 L30.61376,63.62431" stroke="#111111" stroke-width="0.24" fill="none" />
  <path d="M47.3945,76.6694 L47.3945,88.67652" stroke="#111111" stroke-width="0.24" fill="none" />
  <path d="M30.61376,78.30087 L30.43943,78.54386 C30.25333,78.67554 29.78379,78.67554 29.59769,78.54386 L29.42336,78.30087" stroke="#111111" stroke-width="0.24" fill="none" />
  <path d="M96.69032,60.90281 L96.51598,61.1458 C96.32988,61.27749 95.86034,61.27749 95.67424,61.1458" stroke="#111111" stroke-width="0.24" fill="none" />
  <path d="M95.67429,48.02441 L95.10585,47.69622" stroke="#111111" stroke-width="0.24" fill="none" />
  <path d="M29.42338,71.56664 L29.42338,78.3009" stroke="#111111" stroke-width="0.24" fill="none" />
  <path d="M48.58488,73.99994 L48.41055,74.24293 C48.22445,74.37462 47.75491,74.37462 47.56881,74.24293 L47.39448,73.99994" stroke="#111111" stroke-width="0.24" fill="none" />
  <path d="M41.59249,78.59248 L41.59249,78.0093" stroke="#111111" stroke-width="0.24" fill="none" />
  <path d="M95.67424,61.1458 L95.49992,60.90281" stroke="#111111" stroke-width="0.24" fill="none" />
  <path d="M30.61378,78.3009 L30.61378,72.25391" stroke="#111111" stroke-width="0.24" fill="none" />
  <path d="M95.49994,48.89553 L95.49994,60.90284" stroke="#111111" stroke-width="0.24" fill="none" />
</svg>