<?xml version="1.0" encoding="utf-8" standalone="no"?><!DOCTYPE svg PUBLIC "-//W3C//DTD SVG 1.1//EN" "http://www.w3.org/Graphics/SVG/1.1/DTD/svg11.dtd"><svg xmlns="http://www.w3.org/2000/svg" version="1.1" width="120pt" height="120pt" viewBox="0 0 120 120" overflow="visible">
  <path d="M70.10901,47.40663 L70.28298,47.16413 C70.46871,47.03271 70.9373,47.03271 71.12302,47.16413 L71.297,47.40663 L71.12302,47.64913 C70.79618,47.78612 70.43943,47.75295 70.28298,47.64913 z" stroke="Black" stroke-width="0" fill="#555555" fill-opacity="1"/>
  <path d="M70.10905,48.97197 L70.28307,49.21447 C70.4395,49.31828 70.79618,49.35146 71.01347,49.26437 L60.50248,55.3329 L60.50248,54.37305 L70.10901,48.82672" stroke="Black" stroke-width="0" fill="#555555" fill-opacity="1"/>
  <path d="M60.37345,66.73633 L60.50248,66.52291 L60.50248,65.70198 L70.10901,60.15565 L70.28298,60.5434 C70.43943,60.64722 70.79618,60.6804 71.01347,60.59329 z" stroke="Black" stroke-width="0" fill="#555555" fill-opacity="1"/>
  <path d="M60.27813,66.79136 L53.18813,70.88467 C53.00238,71.01605 52.53377,71.01601 52.34804,70.88459 L52.17406,70.64209 L52.27066,70.45462 L59.31448,66.38787 L59.48846,66.76541 C59.65926,66.88264 60.07238,66.9018 60.27813,66.79136 z" stroke="Black" stroke-width="0" fill="#555555" fill-opacity="1"/>
  <path d="M59.31448,53.63885 L59.48846,53.39635 C59.67419,53.26493 60.14278,53.26493 60.3285,53.39635 L60.50248,53.63885 L60.3285,53.88135 C60.14278,54.01278 59.67419,54.01278 59.48846,53.88135 z" stroke="Black" stroke-width="0" fill="#555555" fill-opacity="1"/>
  <path d="M71.29662,47.4241 L71.297,62.0536 L71.12302,62.2961 C70.9373,62.42752 70.46871,62.42752 70.28298,62.2961 L70.11137,62.08414 L59.31684,68.31636 L53.36206,71.75436 L53.36206,72.40834 L53.18808,72.65084 C53.00236,72.78226 52.53377,72.78226 52.34804,72.65084 L52.17406,72.40834 L52.17406,70.64209 L52.34804,70.88459 C52.53377,71.01601 53.00238,71.01605 53.18813,70.88467 L60.27813,66.79136 C60.07238,66.9018 59.65926,66.88264 59.48846,66.76541 L59.31448,66.52291 L59.31448,53.63885 L59.48847,53.88135 C59.6742,54.01278 60.14281,54.01278 60.32854,53.88135 L60.50238,53.64773 L60.50248,54.37305 L60.50248,55.3329 L71.01347,49.26437 C70.79618,49.35146 70.4395,49.31828 70.28307,49.21447 L70.10905,48.97197 L70.10905,47.41551 L70.28297,47.64913 C70.43942,47.75295 70.79619,47.78613 71.01347,47.699 z M71.01347,60.59329 C70.79618,60.6804 70.43943,60.64722 70.28298,60.5434 L70.10901,60.3009 L70.10901,50.75657 L60.50248,56.3029 L60.50248,65.70198 L60.50248,66.52291 L60.37345,66.73633 z" stroke="Black" stroke-width="0" fill="#777777" fill-opacity="1"/>
  <path d="M60.50251,66.52293 L60.50251,65.702" stroke="#000000" stroke-width="0.24" fill="none"/>
  <path d="M71.297,47.40663 L71.12302,47.16413" stroke="#000000" stroke-width="0.24" fill="none"/>
  <path d="M70.28298,47.16413 L70.10901,47.40663" stroke="#000000" stroke-width="0.24" fill="none"/>
  <path d="M70.10903,50.7566 L71.0135,50.2344" stroke="#000000" stroke-width="0.24" fill="none"/>
  <path d="M70.10903,47.40665 L70.10903,48.68844" stroke="#000000" stroke-width="0.24" fill="none"/>
  <path d="M70.11139,62.08416 L71.0135,61.56333" stroke="#000000" stroke-width="0.24" fill="none"/>
  <path d="M70.10903,60.15567 L60.50251,65.702 L60.50251,56.30293 L70.10903,50.7566 z" stroke="#000000" stroke-width="0.24" fill="none"/>
  <path d="M71.12302,47.16413 C70.9373,47.03271 70.46871,47.03271 70.28298,47.16413 L70.10903,48.82674" stroke="#000000" stroke-width="0.24" fill="none"/>
  <path d="M60.50251,54.37307 L60.50241,53.64775" stroke="#000000" stroke-width="0.24" fill="none"/>
  <path d="M59.48846,53.39635 L59.31448,53.63885 L59.31451,66.38789 L52.27069,70.45464" stroke="#000000" stroke-width="0.24" fill="none"/>
  <path d="M53.36209,72.40836 L53.36209,71.75438 L70.11139,62.08416" stroke="#000000" stroke-width="0.24" fill="none"/>
  <path d="M70.10903,48.82674 L60.50251,54.37307" stroke="#000000" stroke-width="0.24" fill="none"/>
  <path d="M71.29703,62.05362 L71.29693,47.41553" stroke="#000000" stroke-width="0.24" fill="none"/>
  <path d="M60.50248,54.37305 L60.50248,55.3329" stroke="#000000" stroke-width="0.24" fill="none"/>
  <path d="M60.3285,53.39635 C60.14278,53.26493 59.67419,53.26493 59.48846,53.39635" stroke="#000000" stroke-width="0.24" fill="none"/>
  <path d="M52.27066,70.45462 L52.17406,70.64208" stroke="#000000" stroke-width="0.24" fill="none"/>
  <path d="M71.01347,60.59329 L60.37345,66.73633 L60.50248,66.52291 L60.50248,65.70198 L60.50248,56.3029 L70.10901,50.75657 L70.10901,60.15565 L70.28298,60.5434 C70.43943,60.64722 70.79618,60.6804 71.01347,60.59329 z" stroke="#000000" stroke-width="0.24" fill="none"/>
  <path d="M52.17409,70.64211 L52.17409,72.40836" stroke="#000000" stroke-width="0.24" fill="none"/>
  <path d="M60.50248,53.63885 L60.3285,53.39635" stroke="#000000" stroke-width="0.24" fill="none"/>
  <path d="M53.18808,71.85484 L53.36209,71.75438" stroke="#000000" stroke-width="0.24" fill="none"/>
  <path d="M60.3285,56.40339 L60.50251,56.30293" stroke="#000000" stroke-width="0.24" fill="none"/>
  <path d="M70.10901,60.3009 L70.28298,60.5434 C70.43943,60.64722 70.79618,60.68039 71.01347,60.59328" stroke="#111111" stroke-width="0.24" fill="none"/>
  <path d="M52.17406,70.64209 L52.34804,70.88459 C52.53377,71.01601 53.00236,71.01601 53.18808,70.88459" stroke="#111111" stroke-width="0.24" fill="none"/>
  <path d="M59.31448,53.63885 L59.48846,53.88135 C59.67419,54.01278 60.14278,54.01278 60.3285,53.88135 L60.50228,53.64773" stroke="#111111" stroke-width="0.24" fill="none"/>
  <path d="M60.3285,55.43339 L71.0135,49.2644" stroke="#111111" stroke-width="0.24" fill="none"/>
  <path d="M52.17406,72.40834 L52.34804,72.65084 C52.53377,72.78226 53.00236,72.78226 53.18808,72.65084" stroke="#111111" stroke-width="0.24" fill="none"/>
  <path d="M70.11137,62.08414 L70.28298,62.2961 C70.46871,62.42752 70.9373,62.42752 71.12302,62.2961 L71.297,62.0536" stroke="#111111" stroke-width="0.24" fill="none"/>
  <path d="M53.18808,72.65084 L53.36206,72.40834" stroke="#111111" stroke-width="0.24" fill="none"/>
  <path d="M59.31448,66.52291 L59.48846,66.76541 C59.65926,66.88264 60.07238,66.9018 60.27813,66.79136" stroke="#111111" stroke-width="0.24" fill="none"/>
  <path d="M53.1882,70.88477 L71.0135,60.59333" stroke="#111111" stroke-width="0.24" fill="none"/>
  <path d="M60.37345,66.73633 L60.50248,66.52291" stroke="#111111" stroke-width="0.24" fill="none"/>
  <path d="M70.10909,48.97197 L70.28307,49.21447 C70.4395,49.31828 70.79618,49.35146 71.01347,49.26437" stroke="#111111" stroke-width="0.24" fill="none"/>
  <path d="M70.10921,47.41551 L70.28298,47.64913 C70.46871,47.78055 70.9373,47.78055 71.12302,47.64913 L71.29681,47.4155" stroke="#111111" stroke-width="0.24" fill="none"/>
</svg>