<?xml version="1.0" encoding="utf-8" standalone="no"?><!DOCTYPE svg PUBLIC "-//W3C//DTD SVG 1.1//EN" "http://www.w3.org/Graphics/SVG/1.1/DTD/svg11.dtd"><svg xmlns="http://www.w3.org/2000/svg" version="1.1" width="120pt" height="120pt" viewBox="0 0 120 120" overflow="visible">
  <path d="M80.51546,66.7551 L81.35537,67.24012 L74.77959,71.03646 L74.93517,70.80483 L74.93522,69.97681 z" stroke="Black" stroke-width="0" fill="#555555" fill-opacity="1"/>
  <path d="M73.74716,69.25283 L73.92114,69.01033 C74.10686,68.87891 74.57545,68.87891 74.76118,69.01033 L74.93517,69.25283 L74.76118,69.49533 C74.57545,69.62675 74.10686,69.62675 73.92114,69.49533 z" stroke="Black" stroke-width="0" fill="#555555" fill-opacity="1"/>
  <path d="M32.50692,39.03746 L33.34706,39.5224 L26.77114,43.31877 L26.92671,43.08714 L26.92672,42.25919 z" stroke="Black" stroke-width="0" fill="#555555" fill-opacity="1"/>
  <path d="M28.32346,27.59072 C28.15623,27.49778 28.07472,27.27571 28.07747,27.04691 C28.03556,26.5938 28.50415,25.78218 28.91751,25.59191 C29.11433,25.47511 29.34743,25.43466 29.51151,25.53307 C29.45889,25.50947 29.23423,25.5518 29.04351,25.66466 C28.63016,25.85493 28.16157,26.66655 28.20347,27.11966 C28.20109,27.34125 28.27676,27.55698 28.43424,27.65445" stroke="Black" stroke-width="0" fill="#555555" fill-opacity="1"/>
  <path d="M43.67361,31.18042 L43.8476,30.93792 C44.03332,30.8065 44.50191,30.8065 44.68764,30.93792 L44.86161,31.18042 L44.68764,31.42292 C44.50191,31.55434 44.03332,31.55434 43.8476,31.42292 z" stroke="Black" stroke-width="0" fill="#555555" fill-opacity="1"/>
  <path d="M85.78516,58.42446 C85.3718,58.61473 84.90321,59.42635 84.94511,59.87946 C84.94273,60.10106 85.0184,60.31678 85.17588,60.41425 C84.89789,60.25766 84.81636,60.03556 84.81911,59.80671 L41.6139,34.74954 L34.1871,39.0374 L34.18718,38.06731 L40.77386,34.26454 L28.71266,27.30101 L28.55886,26.96109 C28.53267,26.6779 28.82554,26.17064 29.08389,26.05172 L29.45514,26.01495 L42.25891,33.40717 L43.67361,32.59037 L43.8476,32.83286 C44.03332,32.96429 44.50191,32.96429 44.68764,32.83286 L44.86161,32.59037 L91.68207,59.62217 L91.68207,60.45011 L91.85604,60.69261 C92.03569,60.81824 92.48235,60.82663 92.67705,60.70336 L82.19555,66.7551 L82.19556,65.7851 L91.43602,60.45011 L44.26762,33.21742 L43.09907,33.89214 L85.5667,58.41098 L85.9379,58.24574 L86.25314,58.29287 C86.20053,58.26927 85.97587,58.3116 85.78516,58.42446 z" stroke="Black" stroke-width="0" fill="#555555" fill-opacity="1"/>
  <path d="M92.86996,58.90699 L92.69608,59.14061 C92.51036,59.27203 92.04177,59.27203 91.85604,59.14061 L91.68207,58.89811 L91.85604,58.65561 C92.04177,58.52419 92.51036,58.52419 92.69608,58.65561 z" stroke="Black" stroke-width="0" fill="#555555" fill-opacity="1"/>
  <path d="M25.73871,41.53514 L25.91269,41.29264 C26.09842,41.16122 26.56701,41.16122 26.75274,41.29264 L26.92671,41.53514 L26.75274,41.77764 C26.56701,41.90907 26.09842,41.90907 25.91269,41.77764 z" stroke="Black" stroke-width="0" fill="#555555" fill-opacity="1"/>
  <path d="M82.19555,58.17937 L82.19555,66.7551 L92.67705,60.70336 C92.48235,60.82663 92.03569,60.81824 91.85604,60.69261 L91.68207,60.45011 L91.68217,58.90699 L91.85604,59.14061 C92.04177,59.27203 92.51036,59.27203 92.69608,59.14061 L92.86996,58.90699 L92.87006,73.54508 L92.69608,73.78758 C92.51036,73.91901 92.04177,73.91901 91.85604,73.78758 L91.68207,73.54508 L91.68207,62.24805 L74.93517,71.91688 L74.93517,83.8998 L74.76118,84.1423 C74.57545,84.27373 74.10686,84.27373 73.92114,84.1423 L73.74716,83.8998 L73.74726,69.2617 L73.92114,69.49533 C74.10686,69.62675 74.57545,69.62675 74.76118,69.49533 L74.93507,69.26171 L74.93517,70.80483 L74.77959,71.03646 L81.35537,67.24012 L80.51546,66.7551 L80.51546,57.20937 z" stroke="Black" stroke-width="0" fill="#777777" fill-opacity="1"/>
  <path d="M29.45514,26.01495 L29.08389,26.05172 C28.82554,26.17064 28.53267,26.6779 28.55886,26.96109 L28.71264,27.30099 L29.13595,27.5454 C28.84669,27.72146 28.61359,27.76191 28.44951,27.6635 C28.27676,27.55698 28.20109,27.34125 28.20347,27.11966 C28.16157,26.66655 28.63016,25.85493 29.04351,25.66466 C29.23423,25.5518 29.45889,25.50947 29.62204,25.59712 C29.80477,25.69871 29.8863,25.92081 29.88356,26.14966 z" stroke="Black" stroke-width="0" fill="#777777" fill-opacity="1"/>
  <path d="M85.17588,60.41425 C85.0184,60.31678 84.94273,60.10106 84.94511,59.87946 C84.90321,59.42635 85.3718,58.61473 85.78516,58.42446 C85.97587,58.3116 86.20053,58.26927 86.36369,58.35692 C86.54641,58.45851 86.62794,58.68061 86.6252,58.90946 C86.6671,59.36257 86.19851,60.17419 85.78516,60.36446 C85.58833,60.48126 85.35522,60.52171 85.19115,60.4233 z" stroke="Black" stroke-width="0" fill="#777777" fill-opacity="1"/>
  <path d="M44.86161,32.59037 L44.68764,32.83286 C44.50191,32.96429 44.03332,32.96429 43.8476,32.83286 L43.67361,32.59037 L43.67371,31.1893 L43.8476,31.42292 C44.03332,31.55434 44.50191,31.55434 44.68764,31.42292 L44.86152,31.18929 z" stroke="Black" stroke-width="0" fill="#777777" fill-opacity="1"/>
  <path d="M44.26762,33.21742 L91.43602,60.45011 L90.59598,60.93511 L86.57761,58.6151 L86.37915,58.36562 L85.9379,58.24574 L44.86161,34.53036 L44.86161,34.90988 L43.09907,33.89214 z" stroke="Black" stroke-width="0" fill="#777777" fill-opacity="1"/>
  <path d="M34.1871,30.46168 L34.1871,39.0374 L41.6139,34.74954 L42.45394,35.23454 L26.92671,44.19919 L26.92671,56.18211 L26.75274,56.42461 C26.56701,56.55603 26.09842,56.55603 25.91269,56.42461 L25.73871,56.18211 L25.73881,41.54402 L25.91269,41.77764 C26.09842,41.90907 26.56701,41.90907 26.75274,41.77764 L26.92661,41.54402 L26.92671,43.08714 L26.77114,43.31877 L33.34706,39.5224 L32.50702,39.0374 L32.50702,29.49168 z" stroke="Black" stroke-width="0" fill="#777777" fill-opacity="1"/>
  <path d="M44.86161,36.62461 L44.86161,45.82739 L44.68764,46.06989 C44.50191,46.20131 44.03332,46.20131 43.8476,46.06989 L43.67361,45.82739 L43.67361,35.93872 z" stroke="Black" stroke-width="0" fill="#777777" fill-opacity="1"/>
  <path d="M74.93517,69.25283 L74.93517,70.80483" stroke="#000000" stroke-width="0.24" fill="none"/>
  <path d="M91.68207,60.45011 L91.68207,58.89811" stroke="#000000" stroke-width="0.24" fill="none"/>
  <path d="M91.43604,60.45013 L82.19558,65.78512" stroke="#000000" stroke-width="0.24" fill="none"/>
  <path d="M26.92671,41.53514 L26.92671,43.08714" stroke="#000000" stroke-width="0.24" fill="none"/>
  <path d="M44.68764,32.83286 L44.86161,32.59037" stroke="#000000" stroke-width="0.24" fill="none"/>
  <path d="M43.09915,33.89207 L44.26764,33.21744" stroke="#000000" stroke-width="0.24" fill="none"/>
  <path d="M85.93793,58.24579 L44.26778,34.18752" stroke="#000000" stroke-width="0.24" fill="none"/>
  <path d="M82.19557,66.75512 L82.19557,58.17939" stroke="#000000" stroke-width="0.24" fill="none"/>
  <path d="M29.45514,26.01495 L85.56683,58.41105" stroke="#000000" stroke-width="0.24" fill="none"/>
  <path d="M84.8242,59.69702 L28.71264,27.30099" stroke="#000000" stroke-width="0.24" fill="none"/>
  <path d="M44.86161,36.6245 L44.86161,45.82739" stroke="#000000" stroke-width="0.24" fill="none"/>
  <path d="M85.19115,60.4233 C85.35522,60.52171 85.58833,60.48126 85.78516,60.36446 C86.19851,60.17419 86.6671,59.36257 86.6252,58.90946 C86.6671,58.40796 86.19851,58.13742 85.78516,58.42446 C86.08907,58.19447 85.85596,58.23491 85.65915,58.35171" stroke="#000000" stroke-width="0.24" fill="none"/>
  <path d="M26.75276,44.29966 L42.45404,35.23452" stroke="#000000" stroke-width="0.24" fill="none"/>
  <path d="M26.75276,43.32966 L33.34721,39.52235" stroke="#000000" stroke-width="0.24" fill="none"/>
  <path d="M90.596,60.93513 L86.57764,58.61513" stroke="#000000" stroke-width="0.24" fill="none"/>
  <path d="M26.92671,44.19919 L26.92671,56.18211" stroke="#000000" stroke-width="0.24" fill="none"/>
  <path d="M29.04351,27.60466 C28.84669,27.72146 28.61359,27.76191 28.44951,27.6635" stroke="#000000" stroke-width="0.24" fill="none"/>
  <path d="M32.50704,29.4917 L32.50704,39.03743 L26.92675,42.25921" stroke="#000000" stroke-width="0.24" fill="none"/>
  <path d="M44.86161,34.5301 L44.86161,34.90988" stroke="#000000" stroke-width="0.24" fill="none"/>
  <path d="M25.73871,41.53514 L25.91269,41.77764 C26.09842,41.90907 26.56701,41.90907 26.75274,41.77764 L26.92671,41.53514" stroke="#000000" stroke-width="0.24" fill="none"/>
  <path d="M92.87006,58.89811 L92.69608,58.65561 C92.51036,58.52419 92.04177,58.52419 91.85604,58.65561" stroke="#000000" stroke-width="0.24" fill="none"/>
  <path d="M92.87006,58.89811 L92.87006,73.54508" stroke="#000000" stroke-width="0.24" fill="none"/>
  <path d="M91.85604,58.65561 L91.68207,58.89811" stroke="#000000" stroke-width="0.24" fill="none"/>
  <path d="M28.32341,27.59069 C28.15621,27.49778 28.07472,27.27571 28.07747,27.04691 C28.03556,26.5938 28.50415,25.78218 28.91751,25.59191" stroke="#000000" stroke-width="0.24" fill="none"/>
  <path d="M29.63751,25.60582 C29.80477,25.69871 29.8863,25.92081 29.88356,26.14966" stroke="#000000" stroke-width="0.24" fill="none"/>
  <path d="M28.91751,25.59191 C29.11433,25.47511 29.34743,25.43466 29.51151,25.53307" stroke="#000000" stroke-width="0.24" fill="none"/>
  <path d="M43.93909,34.37712 L44.26772,34.18739" stroke="#000000" stroke-width="0.24" fill="none"/>
  <path d="M40.7739,34.26456 L34.18729,38.06734" stroke="#000000" stroke-width="0.24" fill="none"/>
  <path d="M80.51551,66.75511 L74.9353,69.97684" stroke="#000000" stroke-width="0.24" fill="none"/>
  <path d="M43.67361,32.59037 L43.67361,31.18042" stroke="#000000" stroke-width="0.24" fill="none"/>
  <path d="M43.67385,32.59027 L42.25895,33.40716" stroke="#000000" stroke-width="0.24" fill="none"/>
  <path d="M74.93517,69.25283 L74.76118,69.01033 C74.57545,68.87891 74.10686,68.87891 73.92114,69.01033 L73.74716,69.25283" stroke="#000000" stroke-width="0.24" fill="none"/>
  <path d="M43.67361,31.18042 L43.8476,31.42292 C44.03332,31.55434 44.50191,31.55434 44.68764,31.42292 L44.86161,31.18042 L44.68764,30.93792 C44.50191,30.8065 44.03332,30.8065 43.8476,30.93792 z" stroke="#000000" stroke-width="0.24" fill="none"/>
  <path d="M43.67361,45.82739 L43.67361,35.93872" stroke="#000000" stroke-width="0.24" fill="none"/>
  <path d="M25.73871,56.18211 L25.73871,41.53514" stroke="#000000" stroke-width="0.24" fill="none"/>
  <path d="M44.86164,32.59039 L91.68214,59.62222" stroke="#000000" stroke-width="0.24" fill="none"/>
  <path d="M74.76121,72.01735 L92.69611,61.66263" stroke="#000000" stroke-width="0.24" fill="none"/>
  <path d="M44.86161,31.18042 L44.86161,32.59037" stroke="#000000" stroke-width="0.24" fill="none"/>
  <path d="M73.74716,83.8998 L73.74716,69.25283" stroke="#000000" stroke-width="0.24" fill="none"/>
  <path d="M80.51549,57.20939 L80.51549,66.75512" stroke="#000000" stroke-width="0.24" fill="none"/>
  <path d="M85.78516,58.42446 C85.3718,58.61473 84.90321,59.42635 84.94511,59.87946 C84.94237,60.10831 85.0239,60.33041 85.19115,60.4233" stroke="#000000" stroke-width="0.24" fill="none"/>
  <path d="M91.68207,73.54508 L91.68207,62.24805" stroke="#000000" stroke-width="0.24" fill="none"/>
  <path d="M26.92671,41.53514 L26.75274,41.29264 C26.56701,41.16122 26.09842,41.16122 25.91269,41.29264 L25.73871,41.53514" stroke="#000000" stroke-width="0.24" fill="none"/>
  <path d="M34.18713,39.03743 L41.61409,34.74947" stroke="#000000" stroke-width="0.24" fill="none"/>
  <path d="M85.65915,58.35171 C85.24579,58.54198 84.7772,59.3536 84.81911,59.80671 C84.81636,60.03556 84.89789,60.25766 85.06515,60.35055" stroke="#000000" stroke-width="0.24" fill="none"/>
  <path d="M74.93517,71.91676 L74.93517,83.8998" stroke="#000000" stroke-width="0.24" fill="none"/>
  <path d="M34.18713,39.03743 L34.18713,30.4617" stroke="#000000" stroke-width="0.24" fill="none"/>
  <path d="M91.68207,60.45011 L91.85604,60.69261 C92.04177,60.82403 92.51036,60.82403 92.69608,60.69261" stroke="#111111" stroke-width="0.24" fill="none"/>
  <path d="M91.43604,60.45013 L44.26764,33.21744 L44.26778,34.18752" stroke="#111111" stroke-width="0.24" fill="none"/>
  <path d="M43.67361,32.59037 L43.8476,32.83286 C44.03332,32.96429 44.50191,32.96429 44.68764,32.83286" stroke="#111111" stroke-width="0.24" fill="none"/>
  <path d="M25.73871,56.18211 L25.91269,56.42461 C26.09842,56.55603 26.56701,56.55603 26.75274,56.42461 L26.92671,56.18211" stroke="#111111" stroke-width="0.24" fill="none"/>
  <path d="M91.68207,73.54508 L91.85604,73.78758 C92.04177,73.91901 92.51036,73.91901 92.69608,73.78758 L92.87006,73.54508" stroke="#111111" stroke-width="0.24" fill="none"/>
  <path d="M33.34708,39.52243 L33.34708,29.97669" stroke="#111111" stroke-width="0.24" fill="none"/>
  <path d="M73.74716,83.8998 L73.92114,84.1423 C74.10686,84.27373 74.57545,84.27373 74.76118,84.1423 L74.93517,83.8998" stroke="#111111" stroke-width="0.24" fill="none"/>
  <path d="M43.67361,45.82739 L43.8476,46.06989 C44.03332,46.20131 44.50191,46.20131 44.68764,46.06989" stroke="#111111" stroke-width="0.24" fill="none"/>
  <path d="M82.19557,66.75512 L92.69611,60.69263" stroke="#111111" stroke-width="0.24" fill="none"/>
  <path d="M74.76121,71.04736 L81.35535,67.24023" stroke="#111111" stroke-width="0.24" fill="none"/>
  <path d="M91.68207,58.89811 L91.85604,59.14061 C92.04177,59.27203 92.51036,59.27203 92.69608,59.14061 L92.87006,58.89811" stroke="#111111" stroke-width="0.24" fill="none"/>
  <path d="M29.04351,25.66466 C29.24033,25.54786 29.47344,25.50741 29.63751,25.60582" stroke="#111111" stroke-width="0.24" fill="none"/>
  <path d="M32.50704,39.03743 L33.34708,39.52243" stroke="#111111" stroke-width="0.24" fill="none"/>
  <path d="M81.35553,67.24012 L81.35553,57.69439" stroke="#111111" stroke-width="0.24" fill="none"/>
  <path d="M28.71268,27.30102 L28.55886,26.96109 C28.53267,26.6779 28.82554,26.17064 29.08389,26.05172 L29.45514,26.01495" stroke="#111111" stroke-width="0.24" fill="none"/>
  <path d="M73.74716,69.25283 L73.92114,69.49533 C74.10686,69.62675 74.57545,69.62675 74.76118,69.49533 L74.93517,69.25283" stroke="#111111" stroke-width="0.24" fill="none"/>
  <path d="M80.51549,66.75512 L81.35553,67.24012" stroke="#111111" stroke-width="0.24" fill="none"/>
  <path d="M28.44951,27.6635 C28.28225,27.57061 28.20073,27.34851 28.20347,27.11966 C28.16157,26.66655 28.63016,25.85493 29.04351,25.66466" stroke="#111111" stroke-width="0.24" fill="none"/>
  <path d="M44.68764,46.06989 L44.86161,45.82739" stroke="#111111" stroke-width="0.24" fill="none"/>
  <path d="M26.75274,43.32964 L26.92671,43.08714" stroke="#111111" stroke-width="0.24" fill="none"/>
  <path d="M74.76118,71.04733 L74.93517,70.80483" stroke="#111111" stroke-width="0.24" fill="none"/>
</svg>