<?xml version="1.0" encoding="utf-8" standalone="no"?><!DOCTYPE svg PUBLIC "-//W3C//DTD SVG 1.1//EN" "http://www.w3.org/Graphics/SVG/1.1/DTD/svg11.dtd"><svg xmlns="http://www.w3.org/2000/svg" version="1.1" width="120pt" height="120pt" viewBox="0 0 120 120" overflow="visible">
  <path d="M94.02119,41.54402 L93.84731,41.77764 C93.66158,41.90907 93.19299,41.90907 93.00726,41.77764 L92.83329,41.53514 L93.00726,41.29264 C93.19299,41.16122 93.66158,41.16122 93.84731,41.29264 z" stroke="Black" stroke-width="0" fill="#555555" fill-opacity="1"/>
  <path d="M39.24454,66.7551 L44.82478,69.97681 L44.82484,70.80483 L44.98041,71.03646 L38.40463,67.24012 z" stroke="Black" stroke-width="0" fill="#555555" fill-opacity="1"/>
  <path d="M33.97485,58.42446 C33.78413,58.3116 33.55947,58.26927 33.39632,58.35692 L33.8221,58.24574 L34.10085,58.35171 L76.66093,33.89214 L75.49239,33.21742 L28.32398,60.45011 L37.56445,65.7851 L37.56445,66.7551 L27.08295,60.70336 C27.27766,60.82663 27.72431,60.81824 27.90396,60.69261 L28.07794,60.45011 L28.07794,59.62217 L74.89838,32.59037 L75.07236,32.83286 C75.25809,32.96429 75.72668,32.96429 75.91241,32.83286 L76.08639,32.59037 L77.50109,33.40717 L90.30486,26.01495 L90.67611,26.05172 C90.93446,26.17064 91.22733,26.6779 91.20114,26.96109 L91.04736,27.30099 L78.98615,34.26454 L85.57281,38.06731 L85.5729,39.0374 L78.1461,34.74954 L34.93579,59.69702 C34.94364,60.03556 34.86211,60.25766 34.69485,60.35055 C34.7416,60.31678 34.81727,60.10106 34.81489,59.87946 C34.8568,59.42635 34.38821,58.61473 33.97485,58.42446 z" stroke="Black" stroke-width="0" fill="#555555" fill-opacity="1"/>
  <path d="M91.32576,27.65445 C91.48324,27.55698 91.55891,27.34125 91.55653,27.11966 C91.59843,26.66655 91.12984,25.85493 90.71648,25.66466 C90.52577,25.5518 90.30111,25.50947 90.13795,25.59712 C90.41257,25.43466 90.64568,25.47511 90.84249,25.59191 C91.25585,25.78218 91.72444,26.5938 91.68253,27.04691 C91.68528,27.27571 91.60378,27.49778 91.43654,27.59072" stroke="Black" stroke-width="0" fill="#555555" fill-opacity="1"/>
  <path d="M76.08639,31.18042 L75.91241,31.42292 C75.72668,31.55434 75.25809,31.55434 75.07236,31.42292 L74.89848,31.18929 L75.07236,30.93792 C75.25809,30.8065 75.72668,30.8065 75.91241,30.93792 z" stroke="Black" stroke-width="0" fill="#555555" fill-opacity="1"/>
  <path d="M87.25307,39.03746 L92.83328,42.25919 L92.83329,43.08714 L92.98886,43.31877 L86.41294,39.5224 z" stroke="Black" stroke-width="0" fill="#555555" fill-opacity="1"/>
  <path d="M26.88994,58.89811 L27.06392,58.65561 C27.24964,58.52419 27.71823,58.52419 27.90396,58.65561 L28.07794,58.89811 L27.90396,59.14061 C27.71823,59.27203 27.24964,59.27203 27.06392,59.14061 z" stroke="Black" stroke-width="0" fill="#555555" fill-opacity="1"/>
  <path d="M46.01274,69.2617 L45.83886,69.49533 C45.65313,69.62675 45.18454,69.62675 44.99882,69.49533 L44.82484,69.25283 L44.99882,69.01033 C45.18454,68.87891 45.65313,68.87891 45.83886,69.01033 z" stroke="Black" stroke-width="0" fill="#555555" fill-opacity="1"/>
  <path d="M74.89838,32.59037 L74.89848,31.18929 L75.07236,31.42292 C75.25809,31.55434 75.72668,31.55434 75.91241,31.42292 L76.08629,31.1893 L76.08639,32.59037 L75.91241,32.83286 C75.72668,32.96429 75.25809,32.96429 75.07236,32.83286 z" stroke="Black" stroke-width="0" fill="#777777" fill-opacity="1"/>
  <path d="M85.5729,30.46168 L87.25298,29.49168 L87.25298,39.0374 L86.41294,39.5224 L92.98886,43.31877 L92.83329,43.08714 L92.83339,41.54402 L93.00726,41.77764 C93.19299,41.90907 93.66158,41.90907 93.84731,41.77764 L94.02119,41.54402 L94.02129,56.18211 L93.84731,56.42461 C93.66158,56.55603 93.19299,56.55603 93.00726,56.42461 L92.83329,56.18211 L92.83329,44.19919 L77.30606,35.23454 L78.1461,34.74954 L85.5729,39.0374 z" stroke="Black" stroke-width="0" fill="#777777" fill-opacity="1"/>
  <path d="M74.89838,36.62461 L76.08639,35.93872 L76.08639,45.82739 L75.91241,46.06989 C75.72668,46.20131 75.25809,46.20131 75.07236,46.06989 L74.89838,45.82739 z" stroke="Black" stroke-width="0" fill="#777777" fill-opacity="1"/>
  <path d="M34.56885,60.4233 C34.40477,60.52171 34.17167,60.48126 33.97485,60.36446 C33.56149,60.17419 33.0929,59.36257 33.1348,58.90946 C33.13206,58.68061 33.21359,58.45851 33.38085,58.36562 C33.55947,58.26927 33.78413,58.3116 33.97485,58.42446 C34.38821,58.61473 34.8568,59.42635 34.81489,59.87946 C34.81727,60.10106 34.7416,60.31678 34.58412,60.41425 z" stroke="Black" stroke-width="0" fill="#777777" fill-opacity="1"/>
  <path d="M90.30486,26.01495 L89.88155,26.25935 C89.8737,25.92081 89.95522,25.69871 90.12249,25.60582 C90.30111,25.50947 90.52577,25.5518 90.71648,25.66466 C91.12984,25.85493 91.59843,26.66655 91.55653,27.11966 C91.55891,27.34125 91.48324,27.55698 91.32576,27.65445 C91.14642,27.76191 90.91331,27.72146 90.71648,27.60466 L91.04734,27.30101 L91.20114,26.96109 C91.22733,26.6779 90.93446,26.17064 90.67611,26.05172 z" stroke="Black" stroke-width="0" fill="#777777" fill-opacity="1"/>
  <path d="M37.56445,58.17937 L39.24454,57.20937 L39.24454,66.7551 L38.40463,67.24012 L44.98041,71.03646 L44.82484,70.80483 L44.82494,69.26171 L44.99882,69.49533 C45.18454,69.62675 45.65313,69.62675 45.83886,69.49533 L46.01274,69.2617 L46.01284,83.8998 L45.83886,84.1423 C45.65313,84.27373 45.18454,84.27373 44.99882,84.1423 L44.82484,83.8998 L44.82484,71.91688 L28.07794,62.24805 L28.07794,73.54508 L27.90396,73.78758 C27.71823,73.91901 27.24964,73.91901 27.06392,73.78758 L26.88994,73.54508 L26.89004,58.90699 L27.06392,59.14061 C27.24964,59.27203 27.71823,59.27203 27.90396,59.14061 L28.07784,58.90699 L28.07794,60.45011 L27.90396,60.69261 C27.72431,60.81824 27.27766,60.82663 27.08295,60.70336 L37.56445,66.7551 z" stroke="Black" stroke-width="0" fill="#777777" fill-opacity="1"/>
  <path d="M75.49239,33.21742 L76.66093,33.89214 L74.89838,34.90988 L74.89838,34.53036 L33.82214,58.24574 L33.50686,58.29287 L33.18239,58.6151 L29.16402,60.93511 L28.32398,60.45011 z" stroke="Black" stroke-width="0" fill="#777777" fill-opacity="1"/>
  <path d="M28.324,60.45013 L37.56446,65.78512" stroke="#000000" stroke-width="0.24" fill="none"/>
  <path d="M90.71648,27.60466 C90.91331,27.72146 91.14642,27.76191 91.31049,27.6635" stroke="#000000" stroke-width="0.24" fill="none"/>
  <path d="M76.08639,45.82739 L76.08639,35.93872" stroke="#000000" stroke-width="0.24" fill="none"/>
  <path d="M74.89838,31.18042 L74.89838,32.59037" stroke="#000000" stroke-width="0.24" fill="none"/>
  <path d="M76.08639,31.18042 L75.91241,31.42292 C75.72668,31.55434 75.25809,31.55434 75.07236,31.42292" stroke="#000000" stroke-width="0.24" fill="none"/>
  <path d="M45.83886,69.01033 L46.01284,69.25283" stroke="#000000" stroke-width="0.24" fill="none"/>
  <path d="M44.82484,69.25283 L44.99882,69.01033 C45.18454,68.87891 45.65313,68.87891 45.83886,69.01033" stroke="#000000" stroke-width="0.24" fill="none"/>
  <path d="M76.0862,32.59027 L77.5011,33.40716" stroke="#000000" stroke-width="0.24" fill="none"/>
  <path d="M93.00729,44.29966 L77.30601,35.23452" stroke="#000000" stroke-width="0.24" fill="none"/>
  <path d="M39.24456,57.20939 L39.24456,66.75512 L44.82475,69.97684" stroke="#000000" stroke-width="0.24" fill="none"/>
  <path d="M78.98615,34.26456 L85.57276,38.06734" stroke="#000000" stroke-width="0.24" fill="none"/>
  <path d="M75.82096,34.37712 L75.49233,34.18739" stroke="#000000" stroke-width="0.24" fill="none"/>
  <path d="M91.43658,27.59069 C91.60379,27.49778 91.68527,27.27571 91.68253,27.04691 C91.72444,26.5938 91.25585,25.78218 90.84249,25.59191" stroke="#000000" stroke-width="0.24" fill="none"/>
  <path d="M27.90396,58.65561 L28.07794,58.89811" stroke="#000000" stroke-width="0.24" fill="none"/>
  <path d="M28.07794,73.54508 L28.07794,62.24805" stroke="#000000" stroke-width="0.24" fill="none"/>
  <path d="M26.88994,58.89811 L26.88994,73.54508" stroke="#000000" stroke-width="0.24" fill="none"/>
  <path d="M26.88994,58.89811 L27.06392,58.65561 C27.24964,58.52419 27.71823,58.52419 27.90396,58.65561" stroke="#000000" stroke-width="0.24" fill="none"/>
  <path d="M94.02129,56.18211 L94.02129,41.53514" stroke="#000000" stroke-width="0.24" fill="none"/>
  <path d="M85.57292,39.03743 L78.14595,34.74947" stroke="#000000" stroke-width="0.24" fill="none"/>
  <path d="M93.00726,41.77764 L92.83329,41.53514" stroke="#000000" stroke-width="0.24" fill="none"/>
  <path d="M94.02129,41.53514 L93.84731,41.77764 C93.66158,41.90907 93.19299,41.90907 93.00726,41.77764" stroke="#000000" stroke-width="0.24" fill="none"/>
  <path d="M74.89838,34.5301 L74.89838,34.90988" stroke="#000000" stroke-width="0.24" fill="none"/>
  <path d="M87.25301,29.4917 L87.25301,39.03743" stroke="#000000" stroke-width="0.24" fill="none"/>
  <path d="M74.89841,32.59039 L28.07791,59.62222" stroke="#000000" stroke-width="0.24" fill="none"/>
  <path d="M92.83329,44.19919 L92.83329,56.18211" stroke="#000000" stroke-width="0.24" fill="none"/>
  <path d="M93.00729,43.32966 L86.41283,39.52235" stroke="#000000" stroke-width="0.24" fill="none"/>
  <path d="M44.99884,72.01735 L27.06394,61.66263" stroke="#000000" stroke-width="0.24" fill="none"/>
  <path d="M34.10085,58.35171 C34.51421,58.54198 34.9828,59.3536 34.9409,59.80671 C34.94364,60.03556 34.86211,60.25766 34.69485,60.35055 C34.40477,60.52171 34.17167,60.48126 33.97485,60.36446 C33.56149,60.17419 33.0929,59.36257 33.1348,58.90946 C33.0929,58.40796 33.56149,58.13742 33.97485,58.42446" stroke="#000000" stroke-width="0.24" fill="none"/>
  <path d="M74.89838,36.6245 L74.89838,45.82739" stroke="#000000" stroke-width="0.24" fill="none"/>
  <path d="M44.82484,71.91676 L44.82484,83.8998" stroke="#000000" stroke-width="0.24" fill="none"/>
  <path d="M34.93579,59.69702 L91.04736,27.30099" stroke="#000000" stroke-width="0.24" fill="none"/>
  <path d="M90.30486,26.01495 L34.19317,58.41105" stroke="#000000" stroke-width="0.24" fill="none"/>
  <path d="M37.56447,66.75512 L37.56447,58.17939" stroke="#000000" stroke-width="0.24" fill="none"/>
  <path d="M85.57292,39.03743 L85.57292,30.4617" stroke="#000000" stroke-width="0.24" fill="none"/>
  <path d="M33.82212,58.24579 L75.49227,34.18752" stroke="#000000" stroke-width="0.24" fill="none"/>
  <path d="M76.6609,33.89207 L75.49241,33.21744" stroke="#000000" stroke-width="0.24" fill="none"/>
  <path d="M75.07236,32.83286 L74.89838,32.59037" stroke="#000000" stroke-width="0.24" fill="none"/>
  <path d="M28.07794,60.45011 L28.07794,58.89811" stroke="#000000" stroke-width="0.24" fill="none"/>
  <path d="M44.82484,69.25283 L44.82484,70.80483" stroke="#000000" stroke-width="0.24" fill="none"/>
  <path d="M33.97485,58.42446 C34.38821,58.61473 34.8568,59.42635 34.81489,59.87946 C34.81763,60.10831 34.73611,60.33041 34.56885,60.4233" stroke="#000000" stroke-width="0.24" fill="none"/>
  <path d="M74.89838,31.18042 L75.07236,30.93792 C75.25809,30.8065 75.72668,30.8065 75.91241,30.93792 L76.08639,31.18042" stroke="#000000" stroke-width="0.24" fill="none"/>
  <path d="M76.08639,32.59037 L76.08639,31.18042" stroke="#000000" stroke-width="0.24" fill="none"/>
  <path d="M92.83329,41.53514 L92.83329,43.08714" stroke="#000000" stroke-width="0.24" fill="none"/>
  <path d="M92.83329,41.53514 L93.00726,41.29264 C93.19299,41.16122 93.66158,41.16122 93.84731,41.29264 L94.02129,41.53514" stroke="#000000" stroke-width="0.24" fill="none"/>
  <path d="M33.50686,58.29287 C33.67093,58.19447 33.90403,58.23491 34.10085,58.35171" stroke="#000000" stroke-width="0.24" fill="none"/>
  <path d="M29.16405,60.93513 L33.18241,58.61513" stroke="#000000" stroke-width="0.24" fill="none"/>
  <path d="M87.25319,39.03754 L92.8333,42.25921" stroke="#000000" stroke-width="0.24" fill="none"/>
  <path d="M90.12249,25.60582 C89.95522,25.69871 89.8737,25.92081 89.87644,26.14966" stroke="#000000" stroke-width="0.24" fill="none"/>
  <path d="M90.84249,25.59191 C90.64568,25.47511 90.41257,25.43466 90.24849,25.53307" stroke="#000000" stroke-width="0.24" fill="none"/>
  <path d="M46.01284,83.8998 L46.01284,69.25283" stroke="#000000" stroke-width="0.24" fill="none"/>
  <path d="M75.07236,31.42292 L74.89838,31.18042" stroke="#000000" stroke-width="0.24" fill="none"/>
  <path d="M94.02129,56.18211 L93.84731,56.42461 C93.66158,56.55603 93.19299,56.55603 93.00726,56.42461" stroke="#111111" stroke-width="0.24" fill="none"/>
  <path d="M46.01284,69.25283 L45.83886,69.49533 C45.65313,69.62675 45.18454,69.62675 44.99882,69.49533 L44.82484,69.25283" stroke="#111111" stroke-width="0.24" fill="none"/>
  <path d="M90.67611,26.05172 L90.30486,26.01495" stroke="#111111" stroke-width="0.24" fill="none"/>
  <path d="M91.04732,27.30102 L91.20114,26.96109 C91.22733,26.6779 90.93446,26.17064 90.67611,26.05172" stroke="#111111" stroke-width="0.24" fill="none"/>
  <path d="M39.24456,66.75512 L38.40452,67.24012" stroke="#111111" stroke-width="0.24" fill="none"/>
  <path d="M87.25301,39.03743 L86.41296,39.52243" stroke="#111111" stroke-width="0.24" fill="none"/>
  <path d="M90.71648,25.66466 C90.51967,25.54786 90.28656,25.50741 90.12249,25.60582" stroke="#111111" stroke-width="0.24" fill="none"/>
  <path d="M91.31049,27.6635 C91.47775,27.57061 91.55927,27.34851 91.55653,27.11966 C91.59843,26.66655 91.12984,25.85493 90.71648,25.66466" stroke="#111111" stroke-width="0.24" fill="none"/>
  <path d="M44.99884,71.04736 L38.4047,67.24023" stroke="#111111" stroke-width="0.24" fill="none"/>
  <path d="M37.56447,66.75512 L27.06394,60.69263" stroke="#111111" stroke-width="0.24" fill="none"/>
  <path d="M75.07236,46.06989 L74.89838,45.82739" stroke="#111111" stroke-width="0.24" fill="none"/>
  <path d="M46.01284,83.8998 L45.83886,84.1423 C45.65313,84.27373 45.18454,84.27373 44.99882,84.1423 L44.82484,83.8998" stroke="#111111" stroke-width="0.24" fill="none"/>
  <path d="M86.41296,39.52243 L86.41296,29.97669" stroke="#111111" stroke-width="0.24" fill="none"/>
  <path d="M28.07794,73.54508 L27.90396,73.78758 C27.71823,73.91901 27.24964,73.91901 27.06392,73.78758 L26.88994,73.54508" stroke="#111111" stroke-width="0.24" fill="none"/>
  <path d="M93.00726,56.42461 L92.83329,56.18211" stroke="#111111" stroke-width="0.24" fill="none"/>
  <path d="M76.08639,32.59037 L75.91241,32.83286 C75.72668,32.96429 75.25809,32.96429 75.07236,32.83286" stroke="#111111" stroke-width="0.24" fill="none"/>
  <path d="M93.00726,43.32964 L92.83329,43.08714" stroke="#111111" stroke-width="0.24" fill="none"/>
  <path d="M75.49241,33.21744 L75.49227,34.18752" stroke="#111111" stroke-width="0.24" fill="none"/>
  <path d="M28.07794,60.45011 L27.90396,60.69261 C27.71823,60.82403 27.24964,60.82403 27.06392,60.69261" stroke="#111111" stroke-width="0.24" fill="none"/>
  <path d="M44.99882,71.04733 L44.82484,70.80483" stroke="#111111" stroke-width="0.24" fill="none"/>
  <path d="M28.324,60.45013 L75.49241,33.21744" stroke="#111111" stroke-width="0.24" fill="none"/>
  <path d="M76.08639,45.82739 L75.91241,46.06989 C75.72668,46.20131 75.25809,46.20131 75.07236,46.06989" stroke="#111111" stroke-width="0.24" fill="none"/>
  <path d="M28.07794,58.89811 L27.90396,59.14061 C27.71823,59.27203 27.24964,59.27203 27.06392,59.14061 L26.88994,58.89811" stroke="#111111" stroke-width="0.24" fill="none"/>
  <path d="M38.40452,67.24012 L38.40452,57.69439" stroke="#111111" stroke-width="0.24" fill="none"/>
</svg>