<?xml version="1.0" encoding="utf-8" standalone="no"?>
<!DOCTYPE svg PUBLIC "-//W3C//DTD SVG 1.1//EN" "http://www.w3.org/Graphics/SVG/1.1/DTD/svg11.dtd">
<svg version="1.1" width="119.76pt" height="119.76pt" viewBox="0 0 119.76 119.76" overflow="visible" xmlns="http://www.w3.org/2000/svg">
  <path d="M58.51397,39.959 C60.37123,38.64476 65.05714,38.64476 66.9144,39.959 C67.91221,40.51925 68.67012,41.42752 68.65419,42.384 L68.65419,54.51184 C68.67012,55.46832 67.91221,56.37659 66.9144,56.93684 C65.05714,58.25107 60.37123,58.25107 58.51397,56.93684 C57.51617,56.37659 56.75826,55.46832 56.77419,54.51184 L56.77419,42.384 C56.75826,41.42752 57.51617,40.51925 58.51397,39.959 z M66.7884,44.73624 C67.75627,44.19279 68.49144,43.31178 68.47599,42.384 C68.49144,41.45621 67.75627,40.57519 66.7884,40.03175 C64.98685,38.75694 60.44152,38.75694 58.63998,40.03175 C56.43195,41.07187 56.43195,43.69612 58.63998,44.73624 L59.31916,45.07175 C61.10736,45.9136 64.32125,45.91356 66.10938,45.07169 z" stroke="Black" stroke-width="0" fill="#EEE3C3" fill-opacity="1" />
  <path d="M66.7884,44.73624 L66.10938,45.07169 C64.32125,45.91356 61.10736,45.9136 59.31916,45.07175 L58.63998,44.73624 C56.43195,43.69612 56.43195,41.07187 58.63998,40.03175 C60.44152,38.75694 64.98685,38.75694 66.7884,40.03175 C67.75627,40.57519 68.49144,41.45621 68.47599,42.384 C68.49144,43.31178 67.75627,44.19279 66.7884,44.73624 z" stroke="Black" stroke-width="0" fill="#FFE28A" fill-opacity="1" />
  <path d="M62.12019,35.00543 L62.12019,35.24187 L54.53051,27.72436 L54.65294,27.3407 C54.83867,27.20928 55.30725,27.20928 55.49298,27.3407 L62.90991,34.68163 L62.29401,34.76302 z" stroke="Black" stroke-width="0" fill="#555555" fill-opacity="1" />
  <path d="M55.07296,61.53313 L55.49298,61.77563 C55.30725,61.90705 54.83867,61.90705 54.65294,61.77563 z" stroke="Black" stroke-width="0" fill="#555555" fill-opacity="1" />
  <path d="M62.12019,35.00543 L62.29401,34.76302 L62.90991,34.68163 L63.13405,34.76284 L63.30819,35.00543 L63.13437,35.24784 C62.94873,35.3793 62.48014,35.3794 62.29433,35.24802 z" stroke="Black" stroke-width="0" fill="#555555" fill-opacity="1" />
  <path d="M62.12019,36.23904 L62.12029,35.01431 L62.29433,35.24802 C62.48014,35.3794 62.94873,35.3793 63.13437,35.24784 L63.30809,35.0143 L63.30819,37.58917 L63.13437,37.83158 L62.71419,37.93212 L62.29433,37.83176 L62.12019,37.58917 z" stroke="Black" stroke-width="0" fill="#777777" fill-opacity="1" />
  <path d="M62.12019,35.24187 L62.12019,36.23904 L55.66696,29.83676 L55.66695,61.53313 L55.49295,61.77565 C55.30801,61.90631 54.84224,61.90742 54.65532,61.777 L54.47896,61.53313 L54.47906,27.59241 z" stroke="Black" stroke-width="0" fill="#777777" fill-opacity="1" />
  <path d="M62.90991,34.68163 L63.13405,34.76284 L63.30819,35.00543" stroke="#000000" stroke-width="0.24" fill="none" />
  <path d="M66.64465,44.95531 L66.9144,44.80899 C67.91221,44.24874 68.67012,43.34047 68.65419,42.384" stroke="#000000" stroke-width="0.24" fill="none" />
  <path d="M56.77419,42.384 C56.75826,43.34047 57.51617,44.24874 58.51397,44.80899 C60.28717,46.04322 64.66644,46.15626 66.64465,44.95531" stroke="#000000" stroke-width="0.24" fill="none" />
  <path d="M63.30819,37.58917 L63.13437,37.83158 C62.94873,37.96304 62.48014,37.96315 62.29433,37.83176 L62.12019,37.58917" stroke="#000000" stroke-width="0.24" fill="none" />
  <path d="M62.12021,35.2419 L62.12021,35.01433 L62.29401,34.76302 L62.90991,34.68163" stroke="#000000" stroke-width="0.24" fill="none" />
  <path d="M59.31926,45.07159 L62.01165,43.51714" stroke="#000000" stroke-width="0.1" fill="none" />
  <path d="M63.41677,42.70589 L66.78842,40.75927" stroke="#000000" stroke-width="0.1" fill="none" />
  <path d="M63.41677,43.51714 L66.10941,45.07174" stroke="#000000" stroke-width="0.1" fill="none" />
  <path d="M58.64,40.75927 L62.01165,42.70589" stroke="#000000" stroke-width="0.1" fill="none" />
  <path d="M56.77419,51.47988 C56.75826,52.43636 57.51617,53.34462 58.51397,53.90488 C60.37123,55.21911 65.05714,55.21911 66.9144,53.90488 C67.91221,53.34462 68.67012,52.43636 68.65419,51.47988" stroke="#000000" stroke-width="0.24" fill="none" />
  <path d="M56.77419,45.41581 C56.75818,46.37234 57.51611,47.28067 58.51397,47.84095 C60.37123,49.15519 65.05714,49.15519 66.9144,47.84095 C67.91223,47.28069 68.67015,46.37239 68.65419,45.41589" stroke="#000000" stroke-width="0.24" fill="none" />
  <path d="M56.77419,48.44769 C56.75814,49.40425 57.51608,50.31262 58.51397,50.87291 C60.37123,52.18715 65.05714,52.18715 66.9144,50.87291 C67.91226,50.31264 68.6702,49.4043 68.65419,48.44778" stroke="#000000" stroke-width="0.24" fill="none" />
  <path d="M62.01163,42.70587 C62.32229,42.48604 63.10609,42.48604 63.41674,42.70587 C63.7975,42.88523 63.7975,43.33775 63.41674,43.51711 C63.10609,43.73694 62.32229,43.73694 62.01163,43.51711 C61.63088,43.33775 61.63088,42.88523 62.01163,42.70587 z" stroke="#000000" stroke-width="0.1" fill="none" />
  <path d="M62.12021,37.5892 L62.12021,36.23907" stroke="#000000" stroke-width="0.24" fill="none" />
  <path d="M63.30819,35.00543 L63.30819,37.58917" stroke="#000000" stroke-width="0.24" fill="none" />
  <path d="M54.65294,61.77563 C54.83867,61.90705 55.30725,61.90705 55.49298,61.77563" stroke="#111111" stroke-width="0.24" fill="none" />
  <path d="M66.9144,56.93684 C67.91221,56.37659 68.67012,55.46832 68.65419,54.51184" stroke="#111111" stroke-width="0.24" fill="none" />
  <path d="M58.51397,39.959 C57.51617,40.51925 56.75826,41.42752 56.77419,42.384" stroke="#111111" stroke-width="0.24" fill="none" />
  <path d="M56.77419,54.51184 C56.75826,55.46832 57.51617,56.37659 58.51397,56.93684 C60.37123,58.25107 65.05714,58.25107 66.9144,56.93684" stroke="#111111" stroke-width="0.24" fill="none" />
  <path d="M68.47599,42.384 C68.49144,43.31178 67.75627,44.19279 66.7884,44.73624" stroke="#111111" stroke-width="0.24" fill="none" />
  <path d="M55.63139,27.46631 L55.49298,27.3407 C55.30725,27.20928 54.83867,27.20928 54.65294,27.3407 L54.47896,27.5832" stroke="#111111" stroke-width="0.24" fill="none" />
  <path d="M58.63998,40.03175 C60.44152,38.75694 64.98685,38.75694 66.7884,40.03175 C67.75627,40.57519 68.49144,41.45621 68.47599,42.384" stroke="#111111" stroke-width="0.24" fill="none" />
  <path d="M58.63998,40.03175 C56.43195,41.07187 56.43195,43.69612 58.63998,44.73624 C60.44152,46.01104 64.98685,46.01104 66.7884,44.73624" stroke="#111111" stroke-width="0.24" fill="none" />
  <path d="M68.65419,42.384 C68.67012,41.42752 67.91221,40.51925 66.9144,39.959 C65.05714,38.64476 60.37123,38.64476 58.51397,39.959" stroke="#111111" stroke-width="0.24" fill="none" />
  <path d="M56.77419,54.51184 L56.77419,42.384" stroke="#111111" stroke-width="0.24" fill="none" />
  <path d="M55.49295,61.77565 L55.66695,61.53313 C55.30801,61.90631 54.84224,61.90742 54.65532,61.777 L54.47898,27.58323" stroke="#111111" stroke-width="0.24" fill="none" />
  <path d="M55.66698,29.83634 L55.66698,61.53316" stroke="#111111" stroke-width="0.24" fill="none" />
  <path d="M63.13437,35.24784 C62.94873,35.3793 62.48014,35.3794 62.29433,35.24802 L62.12019,35.00543" stroke="#111111" stroke-width="0.24" fill="none" />
  <path d="M63.30819,35.00543 L63.13437,35.24784" stroke="#111111" stroke-width="0.24" fill="none" />
  <path d="M62.90993,34.68166 L55.6241,27.45638" stroke="#111111" stroke-width="0.24" fill="none" />
  <path d="M54.65295,61.77563 L54.47896,61.53313" stroke="#111111" stroke-width="0.24" fill="none" />
  <path d="M68.65419,42.384 L68.65419,54.51184" stroke="#111111" stroke-width="0.24" fill="none" />
  <path d="M54.53054,27.72438 L62.07299,35.20414" stroke="#111111" stroke-width="0.24" fill="none" />
  <path d="M58.51397,39.959 C60.37123,38.64476 65.05714,38.64476 66.9144,39.959 C67.91221,40.51925 68.67012,41.42752 68.65419,42.384 L68.65419,54.51184 C68.67012,55.46832 67.91221,56.37659 66.9144,56.93684 C65.05714,58.25107 60.37123,58.25107 58.51397,56.93684 C57.51617,56.37659 56.75826,55.46832 56.77419,54.51184 L56.77419,42.384 C56.75826,41.42752 57.51617,40.51925 58.51397,39.959 z" stroke="#000000" stroke-width="0.24" fill="none" />
  <path d="M54.47896,27.5832 L54.65294,27.3407 C54.83867,27.20928 55.30725,27.20928 55.49298,27.3407" stroke="#000000" stroke-width="0.24" fill="none" />
  <path d="M62.71421,37.93214 L62.71421,43.11152" stroke="#000000" stroke-width="0.1" fill="none" />
  <path d="M54.61114,28.78928 L62.12021,36.23907" stroke="#000000" stroke-width="0.24" fill="none" />
  <path d="M54.47898,61.3911 L54.47898,27.58323" stroke="#000000" stroke-width="0.24" fill="none" />
  <path d="M55.62645,27.45872 L62.90993,34.68166" stroke="#000000" stroke-width="0.24" fill="none" />
  <path d="M62.12021,36.23907 L55.66698,29.83678 L55.66698,61.3911" stroke="#000000" stroke-width="0.24" fill="none" />
</svg>