<?xml version="1.0" encoding="utf-8" standalone="no"?><!DOCTYPE svg PUBLIC "-//W3C//DTD SVG 1.1//EN" "http://www.w3.org/Graphics/SVG/1.1/DTD/svg11.dtd"><svg xmlns="http://www.w3.org/2000/svg" version="1.1" width="120pt" height="120pt" viewBox="0 0 120 120" overflow="visible">
  <path d="M60.99912,42.63413 C60.98367,41.70635 61.71884,40.82533 62.68671,40.28189 C64.48826,39.00708 69.03359,39.00708 70.83513,40.28189 C73.04316,41.32201 73.04316,43.94625 70.83513,44.98637 L70.15606,45.32184 C68.36787,46.16373 65.15392,46.16372 63.36576,45.32183 L62.68671,44.98637 C61.71884,44.44293 60.98367,43.56191 60.99912,42.63413 z" stroke="Black" stroke-width="0" fill="#FFE28A" fill-opacity="1"/>
  <path d="M60.82092,54.76198 L60.82092,42.63413 C60.80499,41.67765 61.5629,40.76939 62.56071,40.20914 C64.41797,38.8949 69.10387,38.8949 70.96114,40.20914 C71.95895,40.76939 72.71686,41.67765 72.70092,42.63413 L72.70092,54.76198 C72.71686,55.71846 71.95895,56.62672 70.96114,57.18697 C69.10387,58.50121 64.41797,58.50121 62.56071,57.18697 C61.5629,56.62672 60.80499,55.71846 60.82092,54.76198 z M70.83513,40.28189 C69.03359,39.00708 64.48826,39.00708 62.68671,40.28189 C61.71884,40.82533 60.98367,41.70635 60.99912,42.63413 C60.98367,43.56191 61.71884,44.44293 62.68671,44.98637 L63.36576,45.32183 C65.15392,46.16372 68.36787,46.16373 70.15606,45.32184 L70.83513,44.98637 C73.04316,43.94625 73.04316,41.32201 70.83513,40.28189 z" stroke="Black" stroke-width="0" fill="#EEE3C3" fill-opacity="1"/>
  <path d="M67.33161,35.26183 L67.1578,35.50424 C66.97215,35.63571 66.50356,35.63581 66.31775,35.50443 L66.14362,35.26183 L66.31744,35.01943 C66.50307,34.88796 66.97166,34.88786 67.15748,35.01925 z" stroke="Black" stroke-width="0" fill="#555555" fill-opacity="1"/>
  <path d="M48.96271,42.97439 C48.74363,43.03768 48.44112,42.99573 48.2986,42.90424 L48.12482,42.67061 L48.2986,42.41924 L48.49881,42.34313 L66.14362,35.26183 L66.31775,35.66905 C66.46408,35.76374 66.78095,35.80373 67.00047,35.734 z" stroke="Black" stroke-width="0" fill="#555555" fill-opacity="1"/>
  <path d="M66.14362,37.06234 L49.31262,43.81956 L49.31262,74.32872 L49.31262,76.61392 L49.14101,76.85292 C48.95263,76.98562 48.48426,76.98553 48.2986,76.85416 L48.12462,76.61166 L48.12477,42.67061 L48.2986,42.90424 C48.44112,42.99573 48.74363,43.03768 48.96271,42.97439 L67.00047,35.734 C66.78095,35.80373 66.46408,35.76374 66.31775,35.66905 L66.14362,35.42646 L66.31775,35.50443 C66.50356,35.63581 66.97215,35.63571 67.1578,35.50424 L67.33151,35.27071 L67.33161,37.84558 L67.1578,38.08799 C66.97215,38.21945 66.50356,38.21955 66.31775,38.08817 L66.14362,37.84558 z" stroke="Black" stroke-width="0" fill="#777777" fill-opacity="1"/>
  <path d="M60.82092,42.63413 C60.80499,41.67765 61.5629,40.76939 62.56071,40.20914 C64.41797,38.8949 69.10387,38.8949 70.96114,40.20914 C71.95895,40.76939 72.71686,41.67765 72.70092,42.63413 L72.70092,54.76198 C72.71686,55.71846 71.95895,56.62672 70.96114,57.18697 C69.10387,58.50121 64.41797,58.50121 62.56071,57.18697 C61.5629,56.62672 60.80499,55.71846 60.82092,54.76198 z" stroke="#000000" stroke-width="0.24" fill="none"/>
  <path d="M48.12464,76.61169 L48.12474,42.67064 L48.49881,42.34313 L48.2986,42.41924" stroke="#000000" stroke-width="0.24" fill="none"/>
  <path d="M49.31264,43.81958 L49.31264,74.32874" stroke="#000000" stroke-width="0.24" fill="none"/>
  <path d="M49.31264,76.61395 L49.31264,43.81958" stroke="#000000" stroke-width="0.24" fill="none"/>
  <path d="M66.14364,37.06237 L49.31264,43.81958" stroke="#000000" stroke-width="0.24" fill="none"/>
  <path d="M48.5015,42.34254 L66.14364,35.26186" stroke="#000000" stroke-width="0.24" fill="none"/>
  <path d="M66.05836,43.76725 C65.67761,43.58789 65.67761,43.13536 66.05836,42.95601 C66.36903,42.73618 67.15282,42.73618 67.46348,42.95601 C67.84423,43.13536 67.84423,43.58789 67.46348,43.76725 C67.15282,43.98708 66.36903,43.98708 66.05836,43.76725 z" stroke="#000000" stroke-width="0.1" fill="none"/>
  <path d="M60.82092,45.66579 C60.80484,46.62238 61.56279,47.53078 62.56071,48.09109 C64.41797,49.40532 69.10387,49.40532 70.96114,48.09109 C71.95895,47.53084 72.71686,46.62257 72.70092,45.66609" stroke="#000000" stroke-width="0.24" fill="none"/>
  <path d="M60.82092,48.69806 C60.80499,49.65453 61.5629,50.5628 62.56071,51.12305 C64.41797,52.43728 69.10387,52.43728 70.96114,51.12305 C71.95895,50.5628 72.71686,49.65453 72.70092,48.69806" stroke="#000000" stroke-width="0.24" fill="none"/>
  <path d="M60.82092,51.72997 C60.80497,52.68646 61.56289,53.59475 62.56071,54.15501 C64.41797,55.46925 69.10387,55.46925 70.96114,54.15501 C71.95895,53.59476 72.71686,52.6865 72.70092,51.73002" stroke="#000000" stroke-width="0.24" fill="none"/>
  <path d="M66.05839,42.95603 L62.68674,41.00941" stroke="#000000" stroke-width="0.1" fill="none"/>
  <path d="M67.4635,42.95603 L70.83515,41.00941" stroke="#000000" stroke-width="0.1" fill="none"/>
  <path d="M70.15607,45.32183 L67.4635,43.76727" stroke="#000000" stroke-width="0.1" fill="none"/>
  <path d="M63.36578,45.32185 L66.05839,43.76727" stroke="#000000" stroke-width="0.1" fill="none"/>
  <path d="M66.76095,38.18829 L66.76095,43.36165" stroke="#000000" stroke-width="0.1" fill="none"/>
  <path d="M72.70092,54.76198 L72.70092,42.63413" stroke="#111111" stroke-width="0.24" fill="none"/>
  <path d="M60.82092,42.63413 L60.82092,54.76198" stroke="#111111" stroke-width="0.24" fill="none"/>
  <path d="M70.96114,40.20914 C69.10387,38.8949 64.41797,38.8949 62.56071,40.20914 C61.5629,40.76939 60.80499,41.67765 60.82092,42.63413 C60.80499,43.59061 61.5629,44.49887 62.56071,45.05912 C64.80867,46.4064 69.18794,46.29335 70.96114,45.05912 C71.95895,44.49887 72.71686,43.59061 72.70092,42.63413" stroke="#111111" stroke-width="0.24" fill="none"/>
  <path d="M62.56071,45.05912 L62.83046,45.20545" stroke="#111111" stroke-width="0.24" fill="none"/>
  <path d="M72.70092,42.63413 C72.71686,41.67765 71.95895,40.76939 70.96114,40.20914" stroke="#111111" stroke-width="0.24" fill="none"/>
  <path d="M60.82092,54.76198 C60.80499,55.71846 61.5629,56.62672 62.56071,57.18697 C64.41797,58.50121 69.10387,58.50121 70.96114,57.18697 C71.95895,56.62672 72.71686,55.71846 72.70092,54.76198" stroke="#111111" stroke-width="0.24" fill="none"/>
  <path d="M48.12462,42.66174 L48.2986,42.90424 C48.44112,42.99573 48.74363,43.03768 48.96271,42.97439" stroke="#111111" stroke-width="0.24" fill="none"/>
  <path d="M48.49881,42.34313 L48.2986,42.41924 L48.12462,42.66174" stroke="#111111" stroke-width="0.24" fill="none"/>
  <path d="M67.33161,37.84558 L67.1578,38.08799 C66.97215,38.21945 66.50356,38.21955 66.31775,38.08817 L66.14362,37.84558" stroke="#111111" stroke-width="0.24" fill="none"/>
  <path d="M67.33161,35.26183 L67.1578,35.50424 C66.97215,35.63571 66.50356,35.63581 66.31775,35.50443 L66.14362,35.26183 L66.31744,35.01943 C66.50307,34.88796 66.97166,34.88786 67.15748,35.01925 L67.33161,37.84558" stroke="#111111" stroke-width="0.24" fill="none"/>
  <path d="M67.15748,35.01925 L67.33161,35.26183" stroke="#111111" stroke-width="0.24" fill="none"/>
  <path d="M49.31264,43.81958 L66.14364,37.06237" stroke="#111111" stroke-width="0.24" fill="none"/>
  <path d="M66.14364,35.26186 L48.5015,42.34254" stroke="#111111" stroke-width="0.24" fill="none"/>
  <path d="M66.14364,37.8456 L66.14364,37.06237" stroke="#111111" stroke-width="0.24" fill="none"/>
  <path d="M48.96273,42.97441 L67.0005,35.73402 C66.78095,35.80373 66.46408,35.76374 66.31775,35.66905 L66.14362,35.42646" stroke="#111111" stroke-width="0.24" fill="none"/>
  <path d="M48.12462,76.61166 L48.2986,76.85416 C48.48426,76.98553 48.95263,76.98562 49.13845,76.85427 L49.31262,76.61392" stroke="#111111" stroke-width="0.24" fill="none"/>
  <path d="M62.68671,44.98637 C61.71884,44.44293 60.98367,43.56191 60.99912,42.63413" stroke="#111111" stroke-width="0.24" fill="none"/>
  <path d="M62.68671,44.98637 C64.48826,46.26118 69.03359,46.26118 70.83513,44.98637 C73.04316,43.94625 73.04316,41.32201 70.83513,40.28189" stroke="#111111" stroke-width="0.24" fill="none"/>
  <path d="M60.99912,42.63413 C60.98367,41.70635 61.71884,40.82533 62.68671,40.28189 C64.48826,39.00708 69.03359,39.00708 70.83513,40.28189" stroke="#111111" stroke-width="0.24" fill="none"/>
</svg>