<?xml version="1.0" encoding="utf-8" standalone="no"?><!DOCTYPE svg PUBLIC "-//W3C//DTD SVG 1.1//EN" "http://www.w3.org/Graphics/SVG/1.1/DTD/svg11.dtd"><svg xmlns="http://www.w3.org/2000/svg" version="1.1" width="120pt" height="120pt" viewBox="0 0 120 120" overflow="visible">
  <path d="M64.92999,63.78521 C64.91454,62.85743 65.64971,61.97641 66.61758,61.43297 C68.41913,60.15816 72.96446,60.15816 74.766,61.43297 C76.97403,62.47309 76.97403,65.09734 74.766,66.13746 L74.08696,66.47292 C72.2988,67.3148 69.08485,67.31482 67.29667,66.47293 L66.61758,66.13746 C65.64971,65.59402 64.91454,64.713 64.92999,63.78521 z" stroke="Black" stroke-width="0" fill="#FFE28A" fill-opacity="1"/>
  <path d="M66.49158,61.36022 C68.34884,60.04599 73.03474,60.04599 74.89201,61.36022 C75.88982,61.92047 76.64773,62.82874 76.63179,63.78521 L76.63179,66.81718 L76.63179,69.84914 L76.63179,72.8811 L76.63179,75.91306 C76.64773,76.86954 75.88982,77.77781 74.89201,78.33806 C73.03474,79.65229 68.34884,79.65229 66.49158,78.33806 C65.49377,77.77781 64.73586,76.86954 64.75179,75.91306 L64.75204,72.92549 L64.75204,69.89353 L64.75204,66.86156 L64.75204,63.82961 C64.73586,62.82874 65.49377,61.92047 66.49158,61.36022 z M64.92999,63.78521 C64.91454,64.713 65.64971,65.59402 66.61758,66.13746 L67.29667,66.47293 C69.08485,67.31482 72.2988,67.3148 74.08696,66.47292 L74.766,66.13746 C76.97403,65.09734 76.97403,62.47309 74.766,61.43297 C72.96446,60.15816 68.41913,60.15816 66.61758,61.43297 C65.64971,61.97641 64.91454,62.85743 64.92999,63.78521 z" stroke="Black" stroke-width="0" fill="#EEE3C3" fill-opacity="1"/>
  <path d="M56.77141,51.66408 L57.30422,51.68401 C57.49722,51.64292 57.67474,51.50588 57.66612,51.36833 L70.50057,55.99638 C70.29919,56.03955 70.12165,56.17659 70.13027,56.31414 L70.34792,56.73824 z" stroke="Black" stroke-width="0" fill="#555555" fill-opacity="1"/>
  <path d="M57.66592,51.13396 C57.66481,51.26796 57.49057,51.39683 57.30422,51.43703 C57.04675,51.51872 56.61227,51.41737 56.52534,51.25535 C56.4695,50.9838 56.64703,50.84676 56.84003,50.80567 C57.0975,50.72398 57.53197,50.82533 57.6189,50.98735" stroke="Black" stroke-width="0" fill="#555555" fill-opacity="1"/>
  <path d="M71.31808,56.32675 C71.31696,56.46075 71.14272,56.58962 70.95637,56.62983 C70.69889,56.71151 70.26443,56.61016 70.1775,56.44814 C70.12165,56.17659 70.29919,56.03955 70.49218,55.99846 C70.75928,55.918 71.18478,56.02045 71.27106,56.18014" stroke="Black" stroke-width="0" fill="#555555" fill-opacity="1"/>
  <path d="M57.66612,85.05906 C57.67474,85.19662 57.49722,85.33366 57.30422,85.37475 C57.04675,85.45643 56.61227,85.35509 56.52534,85.19306 L56.47823,51.13041 C56.61227,51.41737 57.04675,51.51872 57.30422,51.43703 C57.49057,51.39683 57.66481,51.26796 57.66592,51.13396 C57.67474,51.50588 57.49722,51.64292 57.30422,51.68401 L56.77141,51.66408 L70.34792,56.73824 L70.1775,56.60691 C70.26443,56.61016 70.69889,56.71151 70.95637,56.62983 C71.14272,56.58962 71.31696,56.46075 71.31808,56.32675 L71.31828,58.89789 C71.3269,59.03544 71.14937,59.17248 70.95637,59.21357 C70.69889,59.29525 70.26443,59.19391 70.1775,59.03189 L70.13027,57.64185 L57.66612,52.98344 z" stroke="Black" stroke-width="0" fill="#777777" fill-opacity="1"/>
  <path d="M57.66615,85.05909 L57.66615,52.98342" stroke="#000000" stroke-width="0.24" fill="none"/>
  <path d="M56.47815,51.12138 L56.47815,85.05909" stroke="#000000" stroke-width="0.24" fill="none"/>
  <path d="M70.95637,59.21357 C71.14937,59.17248 71.3269,59.03544 71.31828,58.89789 L71.31828,56.31414" stroke="#000000" stroke-width="0.24" fill="none"/>
  <path d="M70.4361,57.75617 L56.77233,52.6494" stroke="#000000" stroke-width="0.24" fill="none"/>
  <path d="M70.1775,59.03189 C70.26443,59.19391 70.69889,59.29525 70.95637,59.21357" stroke="#000000" stroke-width="0.24" fill="none"/>
  <path d="M66.49158,61.36022 C68.34884,60.04599 73.03474,60.04599 74.89201,61.36022 C75.88982,61.92047 76.64773,62.82874 76.63179,63.78521 L76.63179,66.81718 L76.63179,69.84914 L76.63179,72.8811 L76.63179,75.91306 C76.64773,76.86954 75.88982,77.77781 74.89201,78.33806 C73.03474,79.65229 68.34884,79.65229 66.49158,78.33806 C65.49377,77.77781 64.73586,76.86954 64.75179,75.91306 L64.75204,72.92549 L64.75204,69.89353 L64.75204,66.86156 L64.75204,63.82961 C64.73586,62.82874 65.49377,61.92047 66.49158,61.36022 z" stroke="#000000" stroke-width="0.24" fill="none"/>
  <path d="M71.27106,56.18014 C71.18478,56.02045 70.75928,55.918 70.50059,55.99644 C70.29919,56.03955 70.12165,56.17659 70.13027,56.31414" stroke="#000000" stroke-width="0.24" fill="none"/>
  <path d="M70.13027,57.64185 L70.13027,58.89789" stroke="#000000" stroke-width="0.24" fill="none"/>
  <path d="M57.6189,50.98735 C57.53197,50.82533 57.0975,50.72398 56.84003,50.80567 C56.64703,50.84676 56.4695,50.9838 56.47812,51.12135" stroke="#000000" stroke-width="0.24" fill="none"/>
  <path d="M57.66597,51.19947 L70.50058,55.99635" stroke="#000000" stroke-width="0.24" fill="none"/>
  <path d="M69.98926,64.91836 L67.29671,66.4729" stroke="#000000" stroke-width="0.1" fill="none"/>
  <path d="M76.63179,72.8811 C76.64773,73.83758 75.88982,74.74584 74.89201,75.3061 C73.03474,76.62033 68.34884,76.62033 66.49158,75.3061 C65.49377,74.74584 64.73586,73.83758 64.75179,72.8811" stroke="#000000" stroke-width="0.24" fill="none"/>
  <path d="M76.63179,69.84914 C76.64773,70.80562 75.88982,71.71388 74.89201,72.27413 C73.03474,73.58837 68.34884,73.58837 66.49158,72.27413 C65.49377,71.71388 64.73586,70.80562 64.75179,69.84914" stroke="#000000" stroke-width="0.24" fill="none"/>
  <path d="M66.61761,62.16049 L69.98926,64.10712 C69.60848,64.28645 69.60848,64.73898 69.98923,64.91833 C70.2999,65.13816 71.08369,65.13816 71.39435,64.91833 C71.7751,64.73898 71.7751,64.28645 71.39435,64.10709 C71.08369,63.88726 70.2999,63.88726 69.98923,64.10709" stroke="#000000" stroke-width="0.1" fill="none"/>
  <path d="M70.69182,59.24035 L70.69182,64.51273" stroke="#000000" stroke-width="0.1" fill="none"/>
  <path d="M76.63179,66.81718 C76.64773,67.77365 75.88982,68.68192 74.89201,69.24217 C73.03474,70.5564 68.34884,70.5564 66.49158,69.24217 C65.49377,68.68192 64.73586,67.77365 64.75179,66.81718" stroke="#000000" stroke-width="0.24" fill="none"/>
  <path d="M74.76602,62.16049 L71.39437,64.10712" stroke="#000000" stroke-width="0.1" fill="none"/>
  <path d="M71.39437,64.91836 L74.08698,66.47294" stroke="#000000" stroke-width="0.1" fill="none"/>
  <path d="M57.30422,85.37475 C57.49722,85.33366 57.67474,85.19662 57.66612,85.05906" stroke="#111111" stroke-width="0.24" fill="none"/>
  <path d="M56.52534,85.19306 C56.61227,85.35509 57.04675,85.45643 57.30422,85.37475" stroke="#111111" stroke-width="0.24" fill="none"/>
  <path d="M70.95637,56.62983 C71.14937,56.58873 71.3269,56.45169 71.31828,56.31414" stroke="#111111" stroke-width="0.24" fill="none"/>
  <path d="M70.1775,56.44814 C70.26443,56.61016 70.69889,56.71151 70.95637,56.62983" stroke="#111111" stroke-width="0.24" fill="none"/>
  <path d="M70.1775,56.60691 L70.34792,56.73824" stroke="#111111" stroke-width="0.24" fill="none"/>
  <path d="M74.89201,78.33806 C73.03474,79.65229 68.34884,79.65229 66.49158,78.33806 C65.49377,77.77781 64.73586,76.86954 64.75179,75.91306" stroke="#111111" stroke-width="0.24" fill="none"/>
  <path d="M66.61758,61.43297 C65.64971,61.97641 64.91454,62.85743 64.92999,63.78521" stroke="#111111" stroke-width="0.24" fill="none"/>
  <path d="M74.62225,66.35654 C72.64404,67.55748 68.26477,67.44444 66.49158,66.21021 C65.49377,65.64996 64.73586,64.74169 64.75179,63.78521" stroke="#111111" stroke-width="0.24" fill="none"/>
  <path d="M76.63179,63.78521 C76.64773,64.74169 75.88982,65.64996 74.89201,66.21021 L74.62225,66.35654" stroke="#111111" stroke-width="0.24" fill="none"/>
  <path d="M66.49158,61.36022 C68.34884,60.04599 73.03474,60.04599 74.89201,61.36022 C75.88982,61.92047 76.64773,62.82874 76.63179,63.78521" stroke="#111111" stroke-width="0.24" fill="none"/>
  <path d="M64.75179,75.91306 L64.75179,63.78521" stroke="#111111" stroke-width="0.24" fill="none"/>
  <path d="M76.63179,63.78521 L76.63179,75.91306" stroke="#111111" stroke-width="0.24" fill="none"/>
  <path d="M64.92999,63.78521 C64.91454,64.713 65.64971,65.59402 66.61758,66.13746 C68.41913,67.41227 72.96446,67.41227 74.766,66.13746" stroke="#111111" stroke-width="0.24" fill="none"/>
  <path d="M56.77141,51.66408 L57.30422,51.68401 C57.49722,51.64292 57.67474,51.50588 57.66612,51.36833 C57.49722,51.39594 57.67474,51.2589 57.66612,51.12135" stroke="#111111" stroke-width="0.24" fill="none"/>
  <path d="M56.52534,51.25535 C56.61227,51.41737 57.04675,51.51872 57.30422,51.43703" stroke="#111111" stroke-width="0.24" fill="none"/>
  <path d="M64.75179,63.78521 C64.73586,62.82874 65.49377,61.92047 66.49158,61.36022" stroke="#111111" stroke-width="0.24" fill="none"/>
  <path d="M70.34795,56.73826 L56.77143,51.6641" stroke="#111111" stroke-width="0.24" fill="none"/>
  <path d="M66.61758,61.43297 C68.41913,60.15816 72.96446,60.15816 74.766,61.43297 C76.97403,62.47309 76.97403,65.09734 74.766,66.13746" stroke="#111111" stroke-width="0.24" fill="none"/>
  <path d="M76.63179,75.91306 C76.64773,76.86954 75.88982,77.77781 74.89201,78.33806" stroke="#111111" stroke-width="0.24" fill="none"/>
</svg>