<?xml version="1.0" encoding="utf-8" standalone="no"?><!DOCTYPE svg PUBLIC "-//W3C//DTD SVG 1.1//EN" "http://www.w3.org/Graphics/SVG/1.1/DTD/svg11.dtd"><svg xmlns="http://www.w3.org/2000/svg" version="1.1" width="120pt" height="120pt" viewBox="0 0 120 120" overflow="visible">
  <path d="M63.2273,25.30481 C63.24324,26.26129 62.48532,27.16955 61.48752,27.7298 C59.63026,29.04404 54.94435,29.04404 53.08709,27.7298 C52.08928,27.16955 51.33137,26.26129 51.34731,25.30481 L51.34731,13.17696 C51.33137,12.22048 52.08928,11.31222 53.08709,10.75196 C54.94435,9.437732 59.63026,9.437732 61.48752,10.75196 C62.48532,11.31222 63.24324,12.22048 63.2273,13.17696 z M53.2131,10.82471 C51.00507,11.86484 51.00507,14.48908 53.2131,15.52921 L53.89217,15.86467 C55.68035,16.70656 58.89431,16.70655 60.68247,15.86466 L61.36151,15.52921 C62.32938,14.98576 63.06456,14.10474 63.0491,13.17696 C63.06456,12.24918 62.32938,11.36816 61.36151,10.82471 C59.55997,9.549909 55.01464,9.549909 53.2131,10.82471 z" stroke="Black" stroke-width="0" fill="#EEE3C3" fill-opacity="1"/>
  <path d="M63.0491,13.17696 C63.06456,14.10474 62.32938,14.98576 61.36151,15.52921 L60.68247,15.86466 C58.89431,16.70655 55.68035,16.70656 53.89217,15.86467 L53.2131,15.52921 C51.00507,14.48908 51.00507,11.86484 53.2131,10.82471 C55.01464,9.549909 59.55997,9.549909 61.36151,10.82471 C62.32938,11.36816 63.06456,12.24918 63.0491,13.17696 z" stroke="Black" stroke-width="0" fill="#FFE28A" fill-opacity="1"/>
  <path d="M56.71661,5.804664 L56.89075,5.562073 C57.07656,5.43069 57.54515,5.430792 57.73079,5.562256 L57.90461,5.804664 L57.73048,6.047256 C57.54466,6.178638 57.07607,6.178536 56.89043,6.047072 z" stroke="Black" stroke-width="0" fill="#555555" fill-opacity="1"/>
  <path d="M75.08552,13.51722 L57.04775,6.276826 C57.26727,6.346561 57.58414,6.306566 57.73048,6.211879 L57.90461,5.969288 L75.54675,12.88535 L75.74963,12.96207 L75.92361,13.20457 L75.74963,13.44707 C75.6071,13.53856 75.3046,13.58051 75.08552,13.51722 z" stroke="Black" stroke-width="0" fill="#555555" fill-opacity="1"/>
  <path d="M57.90461,7.605173 L57.90461,8.388409 L57.73048,8.631 C57.54466,8.762383 57.07607,8.76228 56.89043,8.630816 L56.71661,8.388409 L56.71671,5.813537 L56.89043,6.047072 C57.07607,6.178536 57.54466,6.178638 57.73048,6.047256 L57.90451,5.813545 L57.73048,6.211879 C57.58414,6.306566 57.26727,6.346561 57.04775,6.276826 L75.08552,13.51722 C75.3046,13.58051 75.6071,13.53856 75.74963,13.44707 L75.92346,13.21344 L75.92361,47.1545 L75.74963,47.39699 C75.56397,47.52835 75.0956,47.52845 74.90978,47.3971 L74.73561,47.15675 L74.73561,44.87155 L74.73561,14.36239 z" stroke="Black" stroke-width="0" fill="#777777" fill-opacity="1"/>
  <path d="M74.73563,47.15677 L74.73563,14.36241" stroke="#000000" stroke-width="0.24" fill="none"/>
  <path d="M75.54678,12.88538 L57.90464,5.804687" stroke="#000000" stroke-width="0.24" fill="none"/>
  <path d="M63.2273,13.17696 C63.24324,12.22048 62.48532,11.31222 61.48752,10.75196 C59.63026,9.437732 54.94435,9.437732 53.08709,10.75196 C52.08928,11.31222 51.33137,12.22048 51.34731,13.17696 L51.34731,25.30481 C51.33137,26.26129 52.08928,27.16955 53.08709,27.7298 C54.94435,29.04404 59.63026,29.04404 61.48752,27.7298 C62.48532,27.16955 63.24324,26.26129 63.2273,25.30481 z" stroke="#000000" stroke-width="0.24" fill="none"/>
  <path d="M74.73563,14.36241 L74.73563,44.87157" stroke="#000000" stroke-width="0.24" fill="none"/>
  <path d="M75.92363,47.15452 L75.92354,13.21347 L75.74963,12.96207 L75.54942,12.88596" stroke="#000000" stroke-width="0.24" fill="none"/>
  <path d="M57.90464,7.605196 L74.73563,14.36241" stroke="#000000" stroke-width="0.24" fill="none"/>
  <path d="M63.2273,19.24088 C63.24324,20.19736 62.48532,21.10563 61.48752,21.66588 C59.63026,22.98011 54.94435,22.98011 53.08709,21.66588 C52.08928,21.10563 51.33137,20.19736 51.34731,19.24088" stroke="#000000" stroke-width="0.24" fill="none"/>
  <path d="M60.6825,15.86468 L57.98988,14.3101 C58.37061,14.13072 58.37061,13.6782 57.98986,13.49884 C57.6792,13.27901 56.8954,13.27901 56.58475,13.49884 C56.20399,13.6782 56.20399,14.13072 56.58475,14.31008 C56.8954,14.52991 57.6792,14.52991 57.98986,14.31008" stroke="#000000" stroke-width="0.1" fill="none"/>
  <path d="M63.2273,22.2728 C63.24326,23.22929 62.48534,24.13758 61.48752,24.69784 C59.63026,26.01208 54.94435,26.01208 53.08709,24.69784 C52.08928,24.13759 51.33137,23.22933 51.34731,22.27285" stroke="#000000" stroke-width="0.24" fill="none"/>
  <path d="M57.98988,13.49886 L61.36153,11.55224" stroke="#000000" stroke-width="0.1" fill="none"/>
  <path d="M57.28733,8.731113 L57.28733,13.90448" stroke="#000000" stroke-width="0.1" fill="none"/>
  <path d="M56.58477,13.49886 L53.21312,11.55224" stroke="#000000" stroke-width="0.1" fill="none"/>
  <path d="M63.2273,16.20863 C63.24339,17.16521 62.48544,18.07361 61.48752,18.63392 C59.63026,19.94815 54.94435,19.94815 53.08709,18.63392 C52.08928,18.07367 51.33137,17.1654 51.34731,16.20892" stroke="#000000" stroke-width="0.24" fill="none"/>
  <path d="M53.89221,15.86465 L56.58477,14.3101" stroke="#000000" stroke-width="0.1" fill="none"/>
  <path d="M61.48752,15.60195 L61.21777,15.74828" stroke="#111111" stroke-width="0.24" fill="none"/>
  <path d="M56.71661,8.388409 L56.89043,8.630816 C57.07607,8.76228 57.54466,8.762383 57.73048,8.631 L57.90461,8.388409" stroke="#111111" stroke-width="0.24" fill="none"/>
  <path d="M57.90461,5.804664 L57.73079,5.562256 C57.54515,5.430792 57.07656,5.43069 56.89075,5.562073 L56.71661,8.388409" stroke="#111111" stroke-width="0.24" fill="none"/>
  <path d="M51.34731,13.17696 C51.33137,12.22048 52.08928,11.31222 53.08709,10.75196" stroke="#111111" stroke-width="0.24" fill="none"/>
  <path d="M56.89075,5.562073 L56.71661,5.804664" stroke="#111111" stroke-width="0.24" fill="none"/>
  <path d="M63.0491,13.17696 C63.06456,12.24918 62.32938,11.36816 61.36151,10.82471 C59.55997,9.549909 55.01464,9.549909 53.2131,10.82471" stroke="#111111" stroke-width="0.24" fill="none"/>
  <path d="M74.73563,14.36241 L57.90464,7.605196" stroke="#111111" stroke-width="0.24" fill="none"/>
  <path d="M63.2273,25.30481 C63.24324,26.26129 62.48532,27.16955 61.48752,27.7298 C59.63026,29.04404 54.94435,29.04404 53.08709,27.7298 C52.08928,27.16955 51.33137,26.26129 51.34731,25.30481" stroke="#111111" stroke-width="0.24" fill="none"/>
  <path d="M61.36151,15.52921 C59.55997,16.80401 55.01464,16.80401 53.2131,15.52921 C51.00507,14.48908 51.00507,11.86484 53.2131,10.82471" stroke="#111111" stroke-width="0.24" fill="none"/>
  <path d="M57.90464,5.804687 L75.54678,12.88538 L75.74963,13.44707 C75.6071,13.53856 75.3046,13.58051 75.08552,13.51722" stroke="#111111" stroke-width="0.24" fill="none"/>
  <path d="M57.90464,8.388434 L57.90464,7.605196" stroke="#111111" stroke-width="0.24" fill="none"/>
  <path d="M63.2273,13.17696 C63.24324,14.13344 62.48532,15.0417 61.48752,15.60195" stroke="#111111" stroke-width="0.24" fill="none"/>
  <path d="M75.54942,12.88596 L75.74963,12.96207 L75.92361,13.20457" stroke="#111111" stroke-width="0.24" fill="none"/>
  <path d="M57.04775,6.276826 C57.26727,6.346561 57.58414,6.306566 57.73048,6.211879 L57.90461,5.969287" stroke="#111111" stroke-width="0.24" fill="none"/>
  <path d="M75.08554,13.51724 L57.04778,6.27685" stroke="#111111" stroke-width="0.24" fill="none"/>
  <path d="M61.36151,15.52921 C62.32938,14.98576 63.06456,14.10474 63.0491,13.17696" stroke="#111111" stroke-width="0.24" fill="none"/>
  <path d="M75.92361,47.1545 L75.74963,47.39699 C75.56397,47.52835 75.0956,47.52845 74.90978,47.3971 L74.73561,47.15675" stroke="#111111" stroke-width="0.24" fill="none"/>
  <path d="M51.34731,25.30481 L51.34731,13.17696" stroke="#111111" stroke-width="0.24" fill="none"/>
  <path d="M53.08709,10.75196 C54.94435,9.437732 59.63026,9.437732 61.48752,10.75196 C62.48532,11.31222 63.24324,12.22048 63.2273,13.17696" stroke="#111111" stroke-width="0.24" fill="none"/>
  <path d="M61.21777,15.74828 C59.23956,16.94923 54.86028,16.83619 53.08709,15.60195 C52.08928,15.0417 51.33137,14.13344 51.34731,13.17696" stroke="#111111" stroke-width="0.24" fill="none"/>
  <path d="M63.2273,13.17696 L63.2273,25.30481" stroke="#111111" stroke-width="0.24" fill="none"/>
  <path d="M56.71661,5.804664 L56.89043,6.047072 C57.07607,6.178536 57.54466,6.178638 57.73048,6.047256 L57.90461,5.804664" stroke="#111111" stroke-width="0.24" fill="none"/>
</svg>