<?xml version="1.0" encoding="utf-8" standalone="no"?>
<!DOCTYPE svg PUBLIC "-//W3C//DTD SVG 1.1//EN" "http://www.w3.org/Graphics/SVG/1.1/DTD/svg11.dtd">
<svg version="1.1" width="120pt" height="120pt" viewBox="0 0 120 120" overflow="visible" xmlns="http://www.w3.org/2000/svg">
  <path d="M62.91022,54.08726 C62.9257,55.01692 62.18905,55.89972 61.21922,56.44426 L60.53881,56.78039 C58.74703,57.62399 55.52658,57.62399 53.73479,56.78041 L53.05434,56.44426 C50.84185,55.40204 50.84185,52.77249 53.05434,51.73027 C54.85952,50.45288 59.41404,50.45288 61.21922,51.73027 C62.18905,52.27481 62.9257,53.1576 62.91022,54.08726 z" stroke="Black" stroke-width="0" fill="#FFE28A" fill-opacity="1" />
  <path d="M63.08878,66.23962 C63.10474,67.19802 62.3453,68.10812 61.34548,68.66951 C59.48447,69.9864 54.78909,69.9864 52.92808,68.66951 C51.92826,68.10812 51.16882,67.19802 51.18478,66.23962 L51.18478,54.08726 C51.16882,53.12885 51.92826,52.21875 52.92808,51.65737 C54.78909,50.34048 59.48447,50.34048 61.34548,51.65737 C62.3453,52.21875 63.10474,53.12885 63.08878,54.08726 z M53.05434,51.73027 C50.84185,52.77249 50.84185,55.40204 53.05434,56.44426 L53.73479,56.78041 C55.52658,57.62399 58.74703,57.62399 60.53881,56.78039 L61.21922,56.44426 C62.18905,55.89972 62.9257,55.01692 62.91022,54.08726 C62.9257,53.1576 62.18905,52.27481 61.21922,51.73027 C59.41404,50.45288 54.85952,50.45288 53.05434,51.73027 z" stroke="Black" stroke-width="0" fill="#EEE3C3" fill-opacity="1" />
  <path d="M74.62034,85.84589 L74.62033,86.6755 L74.79228,86.91711 C74.97466,87.04437 75.42219,87.05279 75.6173,86.92928 L64.82002,93.16333 C64.63392,93.29502 64.16438,93.29502 63.97828,93.16333 L63.80415,92.92924 L63.97828,92.67735 L74.37379,86.6755 L45.20751,69.83633 L45.03337,69.60224 L45.20751,69.35036 C45.39361,69.21867 45.86315,69.21867 46.04925,69.35036 z" stroke="Black" stroke-width="0" fill="#555555" fill-opacity="1" />
  <path d="M57.16534,47.28096 L56.98008,47.17732 L56.81268,46.85456 L56.98381,46.64731 C57.12316,46.5672 57.41392,46.55726 57.62954,46.64959 L75.43311,53.79506 L75.63641,53.87194 L75.81074,54.11493 L75.63641,54.35791 C75.49359,54.44959 75.19048,54.49163 74.97095,54.42821 z" stroke="Black" stroke-width="0" fill="#555555" fill-opacity="1" />
  <path d="M73.53206,87.16148 L46.04925,71.29427 C45.86315,71.42596 45.39361,71.42596 45.20751,71.29427 L45.03318,71.05128 L45.03333,69.60224 L45.20751,69.83633 L74.37379,86.6755 z" stroke="Black" stroke-width="0" fill="#777777" fill-opacity="1" />
  <path d="M74.62034,55.27509 L56.97777,48.19205 L56.7874,48.08829 L56.62214,47.75479 L56.81268,46.85456 L56.98008,47.17732 L57.16534,47.28096 L74.97095,54.42821 C75.19048,54.49163 75.49359,54.44959 75.63641,54.35791 L75.81059,54.12382 L75.81074,88.13344 L75.63641,88.37643 C75.45037,88.50806 74.98103,88.5081 74.79481,88.37646 L64.99435,94.03465 L64.99435,94.37828 L64.82002,94.62127 C64.63392,94.75296 64.16438,94.75296 63.97828,94.62127 L63.80395,94.37828 L63.8041,92.92924 L63.97828,93.16333 C64.16438,93.29502 64.63392,93.29502 64.82002,93.16333 L75.6173,86.92928 C75.42219,87.05279 74.97466,87.04437 74.79465,86.91848 L74.62033,86.6755 z" stroke="Black" stroke-width="0" fill="#777777" fill-opacity="1" />
  <path d="M56.62214,47.75479 L56.7874,48.08829" stroke="#000000" stroke-width="0.24" fill="none" />
  <path d="M56.81486,46.84379 L56.62216,47.75481" stroke="#000000" stroke-width="0.24" fill="none" />
  <path d="M64.99438,94.3783 L64.99438,94.03467" stroke="#000000" stroke-width="0.24" fill="none" />
  <path d="M56.98381,46.64731 L56.81483,46.84376" stroke="#000000" stroke-width="0.24" fill="none" />
  <path d="M63.97828,92.67735 L63.80395,92.92034" stroke="#000000" stroke-width="0.24" fill="none" />
  <path d="M63.08878,54.08726 C63.10474,53.12885 62.3453,52.21875 61.34548,51.65737 C59.48447,50.34048 54.78909,50.34048 52.92808,51.65737 C51.92826,52.21875 51.16882,53.12885 51.18478,54.08726 L51.18478,66.23962 C51.16882,67.19802 51.92826,68.10812 52.92808,68.66951 C54.78909,69.9864 59.48447,69.9864 61.34548,68.66951 C62.3453,68.10812 63.10474,67.19802 63.08878,66.23962 z" stroke="#000000" stroke-width="0.24" fill="none" />
  <path d="M57.62954,46.64959 C57.41392,46.55726 57.12316,46.5672 56.98381,46.64731" stroke="#000000" stroke-width="0.24" fill="none" />
  <path d="M75.43314,53.79509 L57.62956,46.64961" stroke="#000000" stroke-width="0.24" fill="none" />
  <path d="M75.63641,87.89049 L64.99438,94.03467" stroke="#000000" stroke-width="0.24" fill="none" />
  <path d="M63.80407,92.92927 L63.80397,94.3783" stroke="#000000" stroke-width="0.24" fill="none" />
  <path d="M73.53208,87.16151 L63.97831,92.67738" stroke="#000000" stroke-width="0.24" fill="none" />
  <path d="M46.04927,71.2943 L73.53208,87.16151" stroke="#000000" stroke-width="0.24" fill="none" />
  <path d="M45.0333,69.60226 L45.0332,71.05131" stroke="#000000" stroke-width="0.24" fill="none" />
  <path d="M75.63641,53.87194 L75.43578,53.79568" stroke="#000000" stroke-width="0.24" fill="none" />
  <path d="M45.20751,69.35036 L45.03318,69.59335" stroke="#000000" stroke-width="0.24" fill="none" />
  <path d="M75.81074,54.11493 L75.63641,53.87194" stroke="#000000" stroke-width="0.24" fill="none" />
  <path d="M46.04925,69.35036 C45.86315,69.21867 45.39361,69.21867 45.20751,69.35036" stroke="#000000" stroke-width="0.24" fill="none" />
  <path d="M74.62036,85.84591 L46.04927,69.35038" stroke="#000000" stroke-width="0.24" fill="none" />
  <path d="M75.81076,88.13346 L75.81066,54.12384" stroke="#000000" stroke-width="0.24" fill="none" />
  <path d="M74.62036,55.27511 L74.62036,85.84591" stroke="#000000" stroke-width="0.24" fill="none" />
  <path d="M45.20753,70.80832 L73.53208,87.16151" stroke="#000000" stroke-width="0.24" fill="none" />
  <path d="M56.97779,48.19207 L74.62036,55.27511" stroke="#000000" stroke-width="0.24" fill="none" />
  <path d="M56.7874,48.08829 L56.97668,48.19351" stroke="#000000" stroke-width="0.24" fill="none" />
  <path d="M60.53883,56.78041 L57.84078,55.22269" stroke="#000000" stroke-width="0.1" fill="none" />
  <path d="M63.08878,57.12505 C63.1049,58.08356 62.34541,58.9938 61.34548,59.55524 C59.48447,60.87213 54.78909,60.87213 52.92808,59.55524 C51.92826,58.99386 51.16882,58.08376 51.18478,57.12535" stroke="#000000" stroke-width="0.24" fill="none" />
  <path d="M57.84076,55.22267 C58.22228,55.04295 58.22228,54.58951 57.84076,54.40979 C57.52947,54.18952 56.74409,54.18952 56.4328,54.40979 C56.05128,54.58951 56.05128,55.04295 56.4328,55.22267 C56.74409,55.44294 57.52947,55.44294 57.84076,55.22267 z" stroke="#000000" stroke-width="0.1" fill="none" />
  <path d="M57.1368,48.25591 L57.1368,54.81625" stroke="#000000" stroke-width="0.1" fill="none" />
  <path d="M63.08878,60.16344 C63.10474,61.12185 62.3453,62.03195 61.34548,62.59333 C59.48447,63.91022 54.78909,63.91022 52.92808,62.59333 C51.92826,62.03195 51.16882,61.12185 51.18478,60.16344" stroke="#000000" stroke-width="0.24" fill="none" />
  <path d="M63.08878,63.20148 C63.10477,64.1599 62.34532,65.07003 61.34548,65.63142 C59.48447,66.94831 54.78909,66.94831 52.92808,65.63142 C51.92826,65.07004 51.16882,64.15993 51.18478,63.20153" stroke="#000000" stroke-width="0.24" fill="none" />
  <path d="M53.73483,56.78039 L56.43283,55.22269" stroke="#000000" stroke-width="0.1" fill="none" />
  <path d="M56.43283,54.40981 L53.05437,52.45926" stroke="#000000" stroke-width="0.1" fill="none" />
  <path d="M57.84078,54.40981 L61.21924,52.45926" stroke="#000000" stroke-width="0.1" fill="none" />
  <path d="M64.99438,94.03467 L74.79483,88.37648" stroke="#000000" stroke-width="0.24" fill="none" />
  <path d="M61.07518,56.66378 C59.09298,57.86715 54.70486,57.75388 52.92808,56.51716 C51.92826,55.95577 51.16882,55.04567 51.18478,54.08726" stroke="#111111" stroke-width="0.24" fill="none" />
  <path d="M61.21922,56.44426 C62.18905,55.89972 62.9257,55.01692 62.91022,54.08726 C63.10474,55.04567 62.3453,55.95577 61.34548,56.51716" stroke="#111111" stroke-width="0.24" fill="none" />
  <path d="M74.97097,54.42823 L57.16535,47.28102" stroke="#111111" stroke-width="0.24" fill="none" />
  <path d="M74.62045,85.84596 L46.04927,69.35038" stroke="#111111" stroke-width="0.24" fill="none" />
  <path d="M46.04925,71.29427 C45.86315,71.42596 45.39361,71.42596 45.20751,71.29427 L45.03318,71.05128" stroke="#111111" stroke-width="0.24" fill="none" />
  <path d="M57.62954,46.64959 C57.41392,46.55726 57.12316,46.5672 56.98381,46.64731" stroke="#111111" stroke-width="0.24" fill="none" />
  <path d="M56.62214,47.75479 L56.81483,46.84376" stroke="#111111" stroke-width="0.24" fill="none" />
  <path d="M64.99435,94.37828 L64.82002,94.62127 C64.63392,94.75296 64.16438,94.75296 63.97828,94.62127 L63.80395,94.37828" stroke="#111111" stroke-width="0.24" fill="none" />
  <path d="M61.21922,56.44426 C59.41404,57.72164 54.85952,57.72164 53.05434,56.44426 C50.84185,55.40204 50.84185,52.77249 53.05434,51.73027" stroke="#111111" stroke-width="0.24" fill="none" />
  <path d="M63.08878,54.08726 L63.08878,66.23962" stroke="#111111" stroke-width="0.24" fill="none" />
  <path d="M51.18478,66.23962 L51.18478,54.08726" stroke="#111111" stroke-width="0.24" fill="none" />
  <path d="M52.92808,51.65737 C54.78909,50.34048 59.48447,50.34048 61.34548,51.65737 C62.3453,52.21875 63.10474,53.12885 63.08878,54.08726 C62.9257,53.1576 62.18905,52.27481 61.21922,51.73027 C59.41404,50.45288 54.85952,50.45288 53.05434,51.73027" stroke="#111111" stroke-width="0.24" fill="none" />
  <path d="M63.97831,92.67738 L74.37382,86.67553" stroke="#111111" stroke-width="0.24" fill="none" />
  <path d="M57.62956,46.64961 L75.43314,53.79509" stroke="#111111" stroke-width="0.24" fill="none" />
  <path d="M75.81074,88.13344 L75.63641,88.37643 C75.45037,88.50806 74.98106,88.50815 74.79485,88.37654" stroke="#111111" stroke-width="0.24" fill="none" />
  <path d="M64.99435,94.03465 L64.99435,94.37828" stroke="#111111" stroke-width="0.24" fill="none" />
  <path d="M75.81074,54.11493 L75.81074,88.13344" stroke="#111111" stroke-width="0.24" fill="none" />
  <path d="M75.43578,53.79568 L75.63641,53.87194 L75.81074,54.11493" stroke="#111111" stroke-width="0.24" fill="none" />
  <path d="M74.62036,55.27511 L56.97779,48.19207" stroke="#111111" stroke-width="0.24" fill="none" />
  <path d="M74.62034,86.6755 L74.62034,55.27509" stroke="#111111" stroke-width="0.24" fill="none" />
  <path d="M75.81074,54.11493 L75.63641,54.35791 C75.49359,54.44959 75.19048,54.49163 74.97095,54.42821" stroke="#111111" stroke-width="0.24" fill="none" />
  <path d="M56.98381,46.64731 L56.81483,46.84376" stroke="#111111" stroke-width="0.24" fill="none" />
  <path d="M45.03318,71.05128 L45.03318,69.59335 L45.20751,69.35036 C45.39361,69.21867 45.86315,69.21867 46.04925,69.35036" stroke="#111111" stroke-width="0.24" fill="none" />
  <path d="M56.62214,47.75479 L56.7874,48.08829 L56.97668,48.19351" stroke="#111111" stroke-width="0.24" fill="none" />
  <path d="M63.80395,94.37828 L63.80395,92.92034 L63.97828,92.67735" stroke="#111111" stroke-width="0.24" fill="none" />
  <path d="M45.20753,69.83636 L74.37382,86.67553" stroke="#111111" stroke-width="0.24" fill="none" />
  <path d="M45.20751,69.83633 L45.03318,69.59335" stroke="#111111" stroke-width="0.24" fill="none" />
  <path d="M75.63641,86.91853 L64.82005,93.16336 C64.63392,93.29502 64.16438,93.29502 63.97828,93.16333 L63.80395,92.92034" stroke="#111111" stroke-width="0.24" fill="none" />
  <path d="M56.81483,46.84376 L56.98008,47.17732 L57.16544,47.281" stroke="#111111" stroke-width="0.24" fill="none" />
  <path d="M74.62032,86.6755 L74.79228,86.91711 C74.98075,87.05017 75.45027,87.05019 75.63638,86.9185" stroke="#111111" stroke-width="0.24" fill="none" />
  <path d="M61.34548,68.66951 C59.48447,69.9864 54.78909,69.9864 52.92808,68.66951 C51.92826,68.10812 51.16882,67.19802 51.18478,66.23962" stroke="#111111" stroke-width="0.24" fill="none" />
  <path d="M63.08878,66.23962 C63.10474,67.19802 62.3453,68.10812 61.34548,68.66951" stroke="#111111" stroke-width="0.24" fill="none" />
  <path d="M51.18478,54.08726 C51.16882,53.12885 51.92826,52.21875 52.92808,51.65737" stroke="#111111" stroke-width="0.24" fill="none" />
  <path d="M61.34548,56.51716 L61.07518,56.66378" stroke="#111111" stroke-width="0.24" fill="none" />
</svg>