<?xml version="1.0" encoding="utf-8" standalone="no"?><!DOCTYPE svg PUBLIC "-//W3C//DTD SVG 1.1//EN" "http://www.w3.org/Graphics/SVG/1.1/DTD/svg11.dtd"><svg xmlns="http://www.w3.org/2000/svg" version="1.1" width="120pt" height="120pt" viewBox="0 0 120 120" overflow="visible">
  <path d="M30.66321,50.38219 C30.67867,51.30997 29.94349,52.19099 28.97562,52.73444 L28.29654,53.06991 C26.50835,53.91179 23.29441,53.91178 21.50625,53.06989 L20.82721,52.73444 C18.61918,51.69432 18.61918,49.07007 20.82721,48.02995 C22.62875,46.75514 27.17408,46.75514 28.97562,48.02995 C29.94349,48.57339 30.67867,49.45441 30.66321,50.38219 z" stroke="Black" stroke-width="0" fill="#FFE28A" fill-opacity="1"/>
  <path d="M29.10163,47.9572 C30.09944,48.51745 30.85735,49.42571 30.84141,50.38219 L30.84141,53.41415 L30.84141,56.44612 L30.84141,59.47808 L30.84141,62.51004 C30.85735,63.46652 30.09944,64.37479 29.10163,64.93504 C27.24437,66.24927 22.55846,66.24927 20.7012,64.93504 C19.70339,64.37479 18.94548,63.46652 18.96141,62.51004 L18.96166,59.52247 L18.96166,56.49051 L18.96166,53.45854 L18.96166,50.42658 C18.94548,49.42571 19.70339,48.51745 20.7012,47.9572 C22.55846,46.64296 27.24437,46.64296 29.10163,47.9572 z M30.66321,50.38219 C30.67867,49.45441 29.94349,48.57339 28.97562,48.02995 C27.17408,46.75514 22.62875,46.75514 20.82721,48.02995 C18.61918,49.07007 18.61918,51.69432 20.82721,52.73444 L21.50625,53.06989 C23.29441,53.91178 26.50835,53.91179 28.29654,53.06991 L28.97562,52.73444 C29.94349,52.19099 30.67867,51.30997 30.66321,50.38219 z" stroke="Black" stroke-width="0" fill="#EEE3C3" fill-opacity="1"/>
  <path d="M37.9743,37.58433 C38.06123,37.42231 38.4957,37.32096 38.75318,37.40265 C38.94617,37.44374 39.12371,37.58078 39.11508,37.71833 C38.98093,38.01435 38.54646,38.1157 38.28899,38.03401 C38.10264,37.99381 37.9284,37.86493 37.92728,37.73093" stroke="Black" stroke-width="0" fill="#555555" fill-opacity="1"/>
  <path d="M24.32215,42.77712 C24.40842,42.61743 24.83393,42.51497 25.09262,42.59342 C25.29402,42.63653 25.47155,42.77357 25.46293,42.91112 C25.32878,43.20714 24.89431,43.30849 24.63684,43.2268 C24.45049,43.1866 24.27625,43.05772 24.27513,42.92373" stroke="Black" stroke-width="0" fill="#555555" fill-opacity="1"/>
  <path d="M38.8218,38.26105 L25.24528,43.33522 L25.41571,43.20389 C25.47155,42.77357 25.29402,42.63653 25.10103,42.59544 L37.92708,37.79649 C37.91846,38.10286 38.09599,38.23989 38.28899,38.28099 z" stroke="Black" stroke-width="0" fill="#555555" fill-opacity="1"/>
  <path d="M37.92708,71.65604 L37.92708,39.58041 L25.46293,44.23883 L25.46293,45.49487 C25.32878,45.79089 24.89431,45.89223 24.63684,45.81055 C24.44384,45.76945 24.26631,45.63242 24.27493,45.49487 L24.27513,42.92373 C24.27625,43.05772 24.45049,43.1866 24.63684,43.2268 C24.89431,43.30849 25.32878,43.20714 25.41571,43.04512 L25.24528,43.33522 L38.8218,38.26105 L38.28899,38.28099 C38.09599,38.23989 37.91846,38.10286 37.92708,37.96531 C37.9284,37.86493 38.10264,37.99381 38.28899,38.03401 C38.54646,38.1157 38.98093,38.01435 39.06786,37.85233 L39.11508,71.65604 C38.98093,71.95206 38.54646,72.05341 38.28899,71.97173 C38.09599,71.93063 37.91846,71.79359 37.92708,71.65604 z" stroke="Black" stroke-width="0" fill="#777777" fill-opacity="1"/>
  <path d="M25.10103,42.59544 C25.29402,42.63653 25.47155,42.77357 25.46293,42.91112" stroke="#000000" stroke-width="0.24" fill="none"/>
  <path d="M24.32215,42.77712 C24.40842,42.61743 24.83393,42.51497 25.09262,42.59342" stroke="#000000" stroke-width="0.24" fill="none"/>
  <path d="M29.10163,47.9572 C27.24437,46.64296 22.55846,46.64296 20.7012,47.9572 C19.70339,48.51745 18.94548,49.42571 18.96141,50.38219 L18.96141,53.41415 L18.96141,56.44612 L18.96141,59.47808 L18.96141,62.51004 C18.94548,63.46652 19.70339,64.37479 20.7012,64.93504 C22.55846,66.24927 27.24437,66.24927 29.10163,64.93504 C30.09944,64.37479 30.85735,63.46652 30.84141,62.51004 L30.84117,59.52247 L30.84117,56.49051 L30.84117,53.45854 L30.84117,50.42658 C30.85735,49.42571 30.09944,48.51745 29.10163,47.9572 z" stroke="#000000" stroke-width="0.24" fill="none"/>
  <path d="M25.41571,45.62886 C25.32878,45.79089 24.89431,45.89223 24.63684,45.81055" stroke="#000000" stroke-width="0.24" fill="none"/>
  <path d="M25.15716,44.35315 L38.82092,39.24638" stroke="#000000" stroke-width="0.24" fill="none"/>
  <path d="M37.92728,37.79645 L25.09268,42.59332" stroke="#000000" stroke-width="0.24" fill="none"/>
  <path d="M25.46293,44.23883 L25.46293,45.49487" stroke="#000000" stroke-width="0.24" fill="none"/>
  <path d="M24.63684,45.81055 C24.44384,45.76945 24.26631,45.63242 24.27493,45.49487" stroke="#000000" stroke-width="0.24" fill="none"/>
  <path d="M39.11511,37.71835 L39.11511,71.65607" stroke="#000000" stroke-width="0.24" fill="none"/>
  <path d="M37.92711,71.65607 L37.92711,39.58039" stroke="#000000" stroke-width="0.24" fill="none"/>
  <path d="M24.27493,45.49487 L24.27493,42.91112" stroke="#000000" stroke-width="0.24" fill="none"/>
  <path d="M37.9743,37.58433 C38.06123,37.42231 38.4957,37.32096 38.75318,37.40265 C38.94617,37.44374 39.12371,37.58078 39.11508,37.71833" stroke="#000000" stroke-width="0.24" fill="none"/>
  <path d="M24.90144,45.83732 L24.90144,51.10971" stroke="#000000" stroke-width="0.1" fill="none"/>
  <path d="M25.60397,50.70407 C25.98472,50.88343 25.98472,51.33595 25.60397,51.51531 C25.29331,51.73514 24.50952,51.73514 24.19886,51.51531 C23.8181,51.33595 23.8181,50.88343 24.19886,50.70407 C24.50952,50.48424 25.29331,50.48424 25.60397,50.70407 z" stroke="#000000" stroke-width="0.1" fill="none"/>
  <path d="M20.82723,48.75747 L24.19888,50.70409" stroke="#000000" stroke-width="0.1" fill="none"/>
  <path d="M28.97565,48.75747 L25.604,50.70409" stroke="#000000" stroke-width="0.1" fill="none"/>
  <path d="M18.96141,53.41415 C18.94548,54.37063 19.70339,55.2789 20.7012,55.83915 C22.55846,57.15338 27.24437,57.15338 29.10163,55.83915 C30.09944,55.2789 30.85735,54.37063 30.84141,53.41415" stroke="#000000" stroke-width="0.24" fill="none"/>
  <path d="M18.96141,56.44612 C18.94548,57.4026 19.70339,58.31086 20.7012,58.87111 C22.55846,60.18534 27.24437,60.18534 29.10163,58.87111 C30.09944,58.31086 30.85735,57.4026 30.84141,56.44612" stroke="#000000" stroke-width="0.24" fill="none"/>
  <path d="M18.96141,59.47808 C18.94548,60.43456 19.70339,61.34282 20.7012,61.90307 C22.55846,63.21731 27.24437,63.21731 29.10163,61.90307 C30.09944,61.34282 30.85735,60.43456 30.84141,59.47808" stroke="#000000" stroke-width="0.24" fill="none"/>
  <path d="M25.604,51.51534 L28.29654,53.06987" stroke="#000000" stroke-width="0.1" fill="none"/>
  <path d="M24.19888,51.51534 L21.50627,53.06992" stroke="#000000" stroke-width="0.1" fill="none"/>
  <path d="M39.06786,37.85233 C38.98093,38.01435 38.54646,38.1157 38.28899,38.03401 C38.09599,37.99292 37.91846,37.85588 37.92708,37.71833" stroke="#111111" stroke-width="0.24" fill="none"/>
  <path d="M38.28899,38.28099 C38.09599,38.23989 37.91846,38.10286 37.92708,37.96531" stroke="#111111" stroke-width="0.24" fill="none"/>
  <path d="M38.8218,38.26105 L38.28899,38.28099" stroke="#111111" stroke-width="0.24" fill="none"/>
  <path d="M25.24531,43.33524 L38.82182,38.26108" stroke="#111111" stroke-width="0.24" fill="none"/>
  <path d="M30.66321,50.38219 C30.67867,51.30997 29.94349,52.19099 28.97562,52.73444 C27.17408,54.00924 22.62875,54.00924 20.82721,52.73444" stroke="#111111" stroke-width="0.24" fill="none"/>
  <path d="M18.96141,50.38219 L18.96141,62.51004" stroke="#111111" stroke-width="0.24" fill="none"/>
  <path d="M30.84141,62.51004 L30.84141,50.38219" stroke="#111111" stroke-width="0.24" fill="none"/>
  <path d="M29.10163,47.9572 C27.24437,46.64296 22.55846,46.64296 20.7012,47.9572 C19.70339,48.51745 18.94548,49.42571 18.96141,50.38219" stroke="#111111" stroke-width="0.24" fill="none"/>
  <path d="M20.97095,52.95351 C22.94916,54.15446 27.32844,54.04142 29.10163,52.80719 C30.09944,52.24694 30.85735,51.33867 30.84141,50.38219" stroke="#111111" stroke-width="0.24" fill="none"/>
  <path d="M18.96141,62.51004 C18.94548,63.46652 19.70339,64.37479 20.7012,64.93504" stroke="#111111" stroke-width="0.24" fill="none"/>
  <path d="M30.84141,50.38219 C30.85735,49.42571 30.09944,48.51745 29.10163,47.9572 C29.94349,48.57339 30.67867,49.45441 30.66321,50.38219" stroke="#111111" stroke-width="0.24" fill="none"/>
  <path d="M20.7012,64.93504 C22.55846,66.24927 27.24437,66.24927 29.10163,64.93504 C30.09944,64.37479 30.85735,63.46652 30.84141,62.51004" stroke="#111111" stroke-width="0.24" fill="none"/>
  <path d="M25.41571,43.20389 L25.24528,43.33522 C25.32878,43.20714 24.89431,43.30849 24.63684,43.2268 C24.44384,43.18571 24.26631,43.04867 24.27493,42.91112" stroke="#111111" stroke-width="0.24" fill="none"/>
  <path d="M39.06786,71.79004 C38.98093,71.95206 38.54646,72.05341 38.28899,71.97173 C38.09599,71.93063 37.91846,71.79359 37.92708,71.65604" stroke="#111111" stroke-width="0.24" fill="none"/>
  <path d="M18.96141,50.38219 C18.94548,51.33867 19.70339,52.24694 20.7012,52.80719 L20.97095,52.95351" stroke="#111111" stroke-width="0.24" fill="none"/>
  <path d="M28.97562,48.02995 C27.17408,46.75514 22.62875,46.75514 20.82721,48.02995 C18.61918,49.07007 18.61918,51.69432 20.82721,52.73444" stroke="#111111" stroke-width="0.24" fill="none"/>
</svg>