<?xml version="1.0" encoding="utf-8" standalone="no"?><!DOCTYPE svg PUBLIC "-//W3C//DTD SVG 1.1//EN" "http://www.w3.org/Graphics/SVG/1.1/DTD/svg11.dtd"><svg xmlns="http://www.w3.org/2000/svg" version="1.1" width="120pt" height="120pt" viewBox="0 0 120 120" overflow="visible">
  <path d="M62.78435,53.97918 C62.79981,54.90697 62.06463,55.78799 61.09676,56.33143 L60.41772,56.66688 C58.62955,57.50878 55.4156,57.50879 53.62742,56.6669 L52.94835,56.33143 C50.74031,55.29131 50.74031,52.66706 52.94835,51.62694 C54.74989,50.35213 59.29522,50.35213 61.09676,51.62694 C62.06463,52.17038 62.79981,53.0514 62.78435,53.97918 z" stroke="Black" stroke-width="0" fill="#FFE28A" fill-opacity="1"/>
  <path d="M62.96255,66.10703 C62.97849,67.06351 62.22057,67.97178 61.22277,68.53203 C59.36551,69.84626 54.6796,69.84626 52.82234,68.53203 C51.82453,67.97178 51.06662,67.06351 51.08255,66.10703 L51.08255,53.97918 C51.06662,53.02271 51.82453,52.11444 52.82234,51.55419 C54.6796,50.23996 59.36551,50.23996 61.22277,51.55419 C62.22057,52.11444 62.97849,53.02271 62.96255,53.97918 z M52.94835,51.62694 C50.74031,52.66706 50.74031,55.29131 52.94835,56.33143 L53.62742,56.6669 C55.4156,57.50879 58.62955,57.50878 60.41772,56.66688 L61.09676,56.33143 C62.06463,55.78799 62.79981,54.90697 62.78435,53.97918 C62.79981,53.0514 62.06463,52.17038 61.09676,51.62694 C59.29522,50.35213 54.74989,50.35213 52.94835,51.62694 z" stroke="Black" stroke-width="0" fill="#EEE3C3" fill-opacity="1"/>
  <path d="M56.45186,46.60689 L56.626,46.3643 C56.81181,46.23291 57.2804,46.23302 57.46604,46.36448 L57.63986,46.60689 L57.46572,46.84948 C57.27991,46.98086 56.81132,46.98076 56.62568,46.8493 z" stroke="Black" stroke-width="0" fill="#555555" fill-opacity="1"/>
  <path d="M74.82077,54.31944 L56.783,47.07905 C57.00252,47.14878 57.31939,47.10879 57.46572,47.0141 L57.63986,46.77151 L75.282,53.68758 L75.48488,53.76429 L75.65886,54.00679 L75.48488,54.24929 C75.34235,54.34078 75.03985,54.38274 74.82077,54.31944 z" stroke="Black" stroke-width="0" fill="#555555" fill-opacity="1"/>
  <path d="M57.63986,48.4074 L57.63986,49.19063 L57.46572,49.43322 C57.27991,49.56461 56.81132,49.5645 56.62568,49.43304 L56.45186,49.19063 L56.45196,46.61576 L56.62568,46.8493 C56.81132,46.98076 57.27991,46.98086 57.46572,46.84948 L57.63976,46.61577 L57.46572,47.0141 C57.31939,47.10879 57.00252,47.14878 56.783,47.07905 L74.82077,54.31944 C75.03985,54.38274 75.34235,54.34078 75.48488,54.24929 L75.65871,54.01566 L75.65886,87.95672 L75.48488,88.19922 C75.29922,88.33058 74.83086,88.33067 74.64503,88.19933 L74.47086,87.95897 L74.47086,85.67377 L74.47086,55.16461 z" stroke="Black" stroke-width="0" fill="#777777" fill-opacity="1"/>
  <path d="M62.96255,53.97918 C62.97849,53.02271 62.22057,52.11444 61.22277,51.55419 C59.36551,50.23996 54.6796,50.23996 52.82234,51.55419 C51.82453,52.11444 51.06662,53.02271 51.08255,53.97918 L51.08255,66.10703 C51.06662,67.06351 51.82453,67.97178 52.82234,68.53203 C54.6796,69.84626 59.36551,69.84626 61.22277,68.53203 C62.22057,67.97178 62.97849,67.06351 62.96255,66.10703 z" stroke="#000000" stroke-width="0.24" fill="none"/>
  <path d="M75.65886,54.00679 L75.48488,53.76429 L75.28466,53.68819" stroke="#000000" stroke-width="0.24" fill="none"/>
  <path d="M74.47089,87.959 L74.47089,55.16464" stroke="#000000" stroke-width="0.24" fill="none"/>
  <path d="M57.63988,48.40742 L74.47089,55.16463" stroke="#000000" stroke-width="0.24" fill="none"/>
  <path d="M75.28202,53.6876 L57.63988,46.60691" stroke="#000000" stroke-width="0.24" fill="none"/>
  <path d="M75.65888,87.95674 L75.65878,54.01569" stroke="#000000" stroke-width="0.24" fill="none"/>
  <path d="M74.47089,55.16463 L74.47089,85.6738" stroke="#000000" stroke-width="0.24" fill="none"/>
  <path d="M57.72511,55.1123 C58.10586,54.93295 58.10586,54.48042 57.72511,54.30106 C57.41445,54.08123 56.63065,54.08123 56.32,54.30106 C55.93924,54.48042 55.93924,54.93295 56.32,55.1123 C56.63065,55.33213 57.41445,55.33213 57.72511,55.1123 z" stroke="#000000" stroke-width="0.1" fill="none"/>
  <path d="M62.96255,57.01085 C62.97864,57.96743 62.22068,58.87584 61.22277,59.43614 C59.36551,60.75037 54.6796,60.75037 52.82234,59.43614 C51.82453,58.87589 51.06662,57.96762 51.08255,57.01115" stroke="#000000" stroke-width="0.24" fill="none"/>
  <path d="M62.96255,60.04311 C62.97849,60.99959 62.22057,61.90785 61.22277,62.46811 C59.36551,63.78234 54.6796,63.78234 52.82234,62.46811 C51.82453,61.90785 51.06662,60.99959 51.08255,60.04311" stroke="#000000" stroke-width="0.24" fill="none"/>
  <path d="M62.96255,63.07502 C62.97851,64.03152 62.22059,64.9398 61.22277,65.50007 C59.36551,66.8143 54.6796,66.8143 52.82234,65.50007 C51.82453,64.93981 51.06662,64.03155 51.08255,63.07507" stroke="#000000" stroke-width="0.24" fill="none"/>
  <path d="M57.72513,54.30109 L61.09679,52.35446" stroke="#000000" stroke-width="0.1" fill="none"/>
  <path d="M56.32002,54.30109 L52.94837,52.35446" stroke="#000000" stroke-width="0.1" fill="none"/>
  <path d="M53.62746,56.66688 L56.32002,55.11233" stroke="#000000" stroke-width="0.1" fill="none"/>
  <path d="M60.41774,56.66691 L57.72513,55.11233" stroke="#000000" stroke-width="0.1" fill="none"/>
  <path d="M57.02258,49.53334 L57.02258,54.70671" stroke="#000000" stroke-width="0.1" fill="none"/>
  <path d="M60.95301,56.55051 C58.9748,57.75145 54.59553,57.63841 52.82234,56.40418 C51.82453,55.84393 51.06662,54.93566 51.08255,53.97918" stroke="#111111" stroke-width="0.24" fill="none"/>
  <path d="M61.22277,56.40418 L60.95301,56.55051" stroke="#111111" stroke-width="0.24" fill="none"/>
  <path d="M51.08255,53.97918 C51.06662,53.02271 51.82453,52.11444 52.82234,51.55419" stroke="#111111" stroke-width="0.24" fill="none"/>
  <path d="M61.22277,68.53203 C59.36551,69.84626 54.6796,69.84626 52.82234,68.53203 C51.82453,67.97178 51.06662,67.06351 51.08255,66.10703" stroke="#111111" stroke-width="0.24" fill="none"/>
  <path d="M75.65886,54.00679 L75.48488,54.24929 C75.34235,54.34078 75.03985,54.38274 74.82077,54.31944" stroke="#111111" stroke-width="0.24" fill="none"/>
  <path d="M75.28466,53.68819 L75.48488,53.76429 L75.65886,54.00679" stroke="#111111" stroke-width="0.24" fill="none"/>
  <path d="M56.45186,46.60689 L56.62568,46.8493 C56.81132,46.98076 57.27991,46.98086 57.46572,46.84948 L57.63986,46.60689 L57.46604,46.36448 C57.2804,46.23302 56.81181,46.23291 56.626,46.3643 z" stroke="#111111" stroke-width="0.24" fill="none"/>
  <path d="M74.47089,55.16463 L57.63988,48.40742" stroke="#111111" stroke-width="0.24" fill="none"/>
  <path d="M57.63988,49.19065 L57.63988,48.40742" stroke="#111111" stroke-width="0.24" fill="none"/>
  <path d="M56.783,47.07905 C57.00252,47.14878 57.31939,47.10879 57.46572,47.0141 L57.63986,46.77151" stroke="#111111" stroke-width="0.24" fill="none"/>
  <path d="M75.65886,87.95672 L75.48488,88.19922 C75.29922,88.33058 74.83086,88.33067 74.64503,88.19933 L74.47086,87.95897" stroke="#111111" stroke-width="0.24" fill="none"/>
  <path d="M74.82079,54.31947 L56.78302,47.07907" stroke="#111111" stroke-width="0.24" fill="none"/>
  <path d="M57.63988,46.60691 L75.28202,53.6876" stroke="#111111" stroke-width="0.24" fill="none"/>
  <path d="M56.45186,46.60689 L56.45186,49.19063 L56.62568,49.43304 C56.81132,49.5645 57.27991,49.56461 57.46572,49.43322 L57.63986,49.19063" stroke="#111111" stroke-width="0.24" fill="none"/>
  <path d="M62.96255,66.10703 C62.97849,67.06351 62.22057,67.97178 61.22277,68.53203" stroke="#111111" stroke-width="0.24" fill="none"/>
  <path d="M61.09676,56.33143 C62.06463,55.78799 62.79981,54.90697 62.78435,53.97918 C62.97849,54.93566 62.22057,55.84393 61.22277,56.40418" stroke="#111111" stroke-width="0.24" fill="none"/>
  <path d="M62.78435,53.97918 C62.79981,53.0514 62.06463,52.17038 61.09676,51.62694 C59.29522,50.35213 54.74989,50.35213 52.94835,51.62694" stroke="#111111" stroke-width="0.24" fill="none"/>
  <path d="M51.08255,66.10703 L51.08255,53.97918" stroke="#111111" stroke-width="0.24" fill="none"/>
  <path d="M62.96255,53.97918 L62.96255,66.10703" stroke="#111111" stroke-width="0.24" fill="none"/>
  <path d="M61.09676,56.33143 C59.29522,57.60624 54.74989,57.60624 52.94835,56.33143 C50.74031,55.29131 50.74031,52.66706 52.94835,51.62694 C54.6796,50.23996 59.36551,50.23996 61.22277,51.55419 C62.22057,52.11444 62.97849,53.02271 62.96255,53.97918" stroke="#111111" stroke-width="0.24" fill="none"/>
</svg>