<?xml version="1.0" encoding="utf-8" standalone="no"?><!DOCTYPE svg PUBLIC "-//W3C//DTD SVG 1.1//EN" "http://www.w3.org/Graphics/SVG/1.1/DTD/svg11.dtd"><svg xmlns="http://www.w3.org/2000/svg" version="1.1" width="120pt" height="120pt" viewBox="0 0 120 120" overflow="visible">
  <path d="M51.04025,25.30509 L51.04025,13.17724 C51.02432,12.22077 51.78223,11.3125 52.78004,10.75225 C54.6373,9.438016 59.32321,9.438016 61.18047,10.75225 C62.17828,11.3125 62.93619,12.22077 62.92025,13.17724 L62.92025,25.30509 C62.93619,26.26157 62.17828,27.16984 61.18047,27.73009 C59.32321,29.04432 54.6373,29.04432 52.78004,27.73009 C51.78223,27.16984 51.02432,26.26157 51.04025,25.30509 z M61.05446,10.825 C59.25292,9.550193 54.70759,9.550193 52.90604,10.825 C51.93817,11.36844 51.203,12.24946 51.21845,13.17724 C51.203,14.10503 51.93817,14.98605 52.90604,15.52949 L53.58509,15.86494 C55.37325,16.70684 58.58721,16.70685 60.37539,15.86496 L61.05446,15.52949 C63.26249,14.48937 63.26249,11.86512 61.05446,10.825 z" stroke="Black" stroke-width="0" fill="#EEE3C3" fill-opacity="1"/>
  <path d="M51.21845,13.17724 C51.203,12.24946 51.93817,11.36844 52.90604,10.825 C54.70759,9.550193 59.25292,9.550193 61.05446,10.825 C63.26249,11.86512 63.26249,14.48937 61.05446,15.52949 L60.37539,15.86496 C58.58721,16.70685 55.37325,16.70684 53.58509,15.86494 L52.90604,15.52949 C51.93817,14.98605 51.203,14.10503 51.21845,13.17724 z" stroke="Black" stroke-width="0" fill="#FFE28A" fill-opacity="1"/>
  <path d="M39.18204,13.5175 C38.96296,13.5808 38.66045,13.53884 38.51793,13.44735 L38.34415,13.21372 L38.51793,12.96235 L38.71814,12.88625 L56.36295,5.804949 L56.53708,6.212163 C56.68341,6.306851 57.00029,6.346846 57.21981,6.277111 z" stroke="Black" stroke-width="0" fill="#555555" fill-opacity="1"/>
  <path d="M57.55095,5.804949 L57.37712,6.047357 C57.19149,6.178821 56.7229,6.178923 56.53708,6.04754 L56.36295,5.804949 L56.53677,5.562541 C56.7224,5.431077 57.19099,5.430975 57.37681,5.562357 z" stroke="Black" stroke-width="0" fill="#555555" fill-opacity="1"/>
  <path d="M56.36295,7.605458 L39.53195,14.36267 L39.53195,44.87184 L39.53195,47.15703 L39.36034,47.39603 C39.17196,47.52873 38.70359,47.52864 38.51793,47.39728 L38.34395,47.15478 L38.3441,13.21373 L38.51793,13.44735 C38.66045,13.53884 38.96296,13.5808 39.18204,13.5175 L57.21981,6.277111 C57.00029,6.346846 56.68341,6.306851 56.53708,6.212163 L56.36295,5.969573 L56.53708,6.04754 C56.7229,6.178923 57.19149,6.178821 57.37712,6.047357 L57.55085,5.813821 L57.55095,8.388693 L57.37712,8.631101 C57.19149,8.762565 56.7229,8.762667 56.53708,8.631285 L56.36295,8.388693 z" stroke="Black" stroke-width="0" fill="#777777" fill-opacity="1"/>
  <path d="M39.53197,47.15705 L39.53197,14.36269" stroke="#000000" stroke-width="0.24" fill="none"/>
  <path d="M56.36297,7.605482 L39.53197,14.36269" stroke="#000000" stroke-width="0.24" fill="none"/>
  <path d="M38.72083,12.88566 L56.36297,5.804972" stroke="#000000" stroke-width="0.24" fill="none"/>
  <path d="M51.04025,13.17724 C51.02432,12.22077 51.78223,11.3125 52.78004,10.75225 C54.6373,9.438016 59.32321,9.438016 61.18047,10.75225 C62.17828,11.3125 62.93619,12.22077 62.92025,13.17724 L62.92025,25.30509 C62.93619,26.26157 62.17828,27.16984 61.18047,27.73009 C59.32321,29.04432 54.6373,29.04432 52.78004,27.73009 C51.78223,27.16984 51.02432,26.26157 51.04025,25.30509 z" stroke="#000000" stroke-width="0.24" fill="none"/>
  <path d="M39.53197,14.36269 L39.53197,44.87186" stroke="#000000" stroke-width="0.24" fill="none"/>
  <path d="M38.34397,47.1548 L38.34407,13.21375 L38.51793,12.96235 L38.71814,12.88625" stroke="#000000" stroke-width="0.24" fill="none"/>
  <path d="M51.04025,16.20891 C51.02417,17.16549 51.78212,18.07389 52.78004,18.6342 C54.6373,19.94843 59.32321,19.94843 61.18047,18.6342 C62.17828,18.07395 62.93619,17.16569 62.92025,16.20921" stroke="#000000" stroke-width="0.24" fill="none"/>
  <path d="M60.3754,15.86494 L57.68283,14.31039" stroke="#000000" stroke-width="0.1" fill="none"/>
  <path d="M51.04025,19.24117 C51.02432,20.19765 51.78223,21.10591 52.78004,21.66616 C54.6373,22.9804 59.32321,22.9804 61.18047,21.66616 C62.17828,21.10591 62.93619,20.19765 62.92025,19.24117" stroke="#000000" stroke-width="0.24" fill="none"/>
  <path d="M53.58511,15.86497 L56.27772,14.31039 C55.89694,14.13101 55.89694,13.67848 56.2777,13.49912 C56.58836,13.27929 57.37215,13.27929 57.68281,13.49912 C58.06356,13.67848 58.06356,14.13101 57.68281,14.31036 C57.37215,14.53019 56.58836,14.53019 56.2777,14.31036" stroke="#000000" stroke-width="0.1" fill="none"/>
  <path d="M51.04025,22.27308 C51.0243,23.22958 51.78222,24.13787 52.78004,24.69813 C54.6373,26.01236 59.32321,26.01236 61.18047,24.69813 C62.17828,24.13788 62.93619,23.22961 62.92025,22.27313" stroke="#000000" stroke-width="0.24" fill="none"/>
  <path d="M56.27772,13.49914 L52.90607,11.55252" stroke="#000000" stroke-width="0.1" fill="none"/>
  <path d="M56.98028,8.731399 L56.98028,13.90477" stroke="#000000" stroke-width="0.1" fill="none"/>
  <path d="M57.68283,13.49914 L61.05449,11.55252" stroke="#000000" stroke-width="0.1" fill="none"/>
  <path d="M52.90604,15.52949 C51.93817,14.98605 51.203,14.10503 51.21845,13.17724" stroke="#111111" stroke-width="0.24" fill="none"/>
  <path d="M61.18047,10.75225 C59.32321,9.438016 54.6373,9.438016 52.78004,10.75225 C51.78223,11.3125 51.02432,12.22077 51.04025,13.17724" stroke="#111111" stroke-width="0.24" fill="none"/>
  <path d="M53.04979,15.74857 C55.028,16.94951 59.40728,16.83647 61.18047,15.60224 C62.17828,15.04199 62.93619,14.13372 62.92025,13.17724" stroke="#111111" stroke-width="0.24" fill="none"/>
  <path d="M52.78004,15.60224 L53.04979,15.74857" stroke="#111111" stroke-width="0.24" fill="none"/>
  <path d="M57.55095,8.388693 L57.37712,8.631101 C57.19149,8.762565 56.7229,8.762667 56.53708,8.631285 L56.36295,8.388693" stroke="#111111" stroke-width="0.24" fill="none"/>
  <path d="M57.55095,5.804949 L57.37712,6.047357 C57.19149,6.178821 56.7229,6.178923 56.53708,6.04754 L56.36295,5.804949 L56.53677,5.562541 C56.7224,5.431077 57.19099,5.430975 57.37681,5.562357 z" stroke="#111111" stroke-width="0.24" fill="none"/>
  <path d="M62.92025,13.17724 C62.93619,12.22077 62.17828,11.3125 61.18047,10.75225" stroke="#111111" stroke-width="0.24" fill="none"/>
  <path d="M39.53197,14.36269 L56.36297,7.605482" stroke="#111111" stroke-width="0.24" fill="none"/>
  <path d="M51.04025,25.30509 C51.02432,26.26157 51.78223,27.16984 52.78004,27.73009 C54.6373,29.04432 59.32321,29.04432 61.18047,27.73009 C62.17828,27.16984 62.93619,26.26157 62.92025,25.30509" stroke="#111111" stroke-width="0.24" fill="none"/>
  <path d="M56.36297,5.804972 L38.72083,12.88566" stroke="#111111" stroke-width="0.24" fill="none"/>
  <path d="M56.36297,8.388716 L56.36297,7.605482" stroke="#111111" stroke-width="0.24" fill="none"/>
  <path d="M51.04025,13.17724 L51.04025,25.30509" stroke="#111111" stroke-width="0.24" fill="none"/>
  <path d="M38.34395,13.20485 L38.51793,13.44735 C38.66045,13.53884 38.96296,13.5808 39.18204,13.5175 L57.21983,6.277135" stroke="#111111" stroke-width="0.24" fill="none"/>
  <path d="M38.71814,12.88625 L38.51793,12.96235 L38.34395,13.20485" stroke="#111111" stroke-width="0.24" fill="none"/>
  <path d="M57.21981,6.277111 C57.00029,6.346846 56.68341,6.306851 56.53708,6.212163 L56.36295,5.969572" stroke="#111111" stroke-width="0.24" fill="none"/>
  <path d="M52.90604,15.52949 C54.70759,16.8043 59.25292,16.8043 61.05446,15.52949 C63.26249,14.48937 63.26249,11.86512 61.05446,10.825" stroke="#111111" stroke-width="0.24" fill="none"/>
  <path d="M51.21845,13.17724 C51.203,12.24946 51.93817,11.36844 52.90604,10.825 C54.70759,9.550193 59.25292,9.550193 61.05446,10.825" stroke="#111111" stroke-width="0.24" fill="none"/>
  <path d="M51.04025,13.17724 C51.02432,14.13372 51.78223,15.04199 52.78004,15.60224" stroke="#111111" stroke-width="0.24" fill="none"/>
  <path d="M57.55095,5.804949 L57.55095,8.388693" stroke="#111111" stroke-width="0.24" fill="none"/>
  <path d="M38.34395,47.15478 L38.51793,47.39728 C38.70359,47.52864 39.17196,47.52873 39.35778,47.39739 L39.53195,47.15703" stroke="#111111" stroke-width="0.24" fill="none"/>
  <path d="M62.92025,25.30509 L62.92025,13.17724" stroke="#111111" stroke-width="0.24" fill="none"/>
</svg>