<?xml version="1.0" encoding="utf-8" standalone="no"?><!DOCTYPE svg PUBLIC "-//W3C//DTD SVG 1.1//EN" "http://www.w3.org/Graphics/SVG/1.1/DTD/svg11.dtd"><svg xmlns="http://www.w3.org/2000/svg" version="1.1" width="120pt" height="120pt" viewBox="0 0 120 120" overflow="visible">
  <path d="M78.79896,46.47762 C78.78351,45.54984 79.51868,44.66882 80.48656,44.12538 C82.28809,42.85057 86.83343,42.85057 88.63497,44.12538 C90.843,45.1655 90.843,47.78975 88.63497,48.82987 L87.95592,49.16533 C86.16776,50.00721 82.95382,50.00723 81.16564,49.16534 L80.48656,48.82987 C79.51868,48.28643 78.78351,47.40541 78.79896,46.47762 z" stroke="Black" stroke-width="0" fill="#FFE28A" fill-opacity="1"/>
  <path d="M80.36055,44.05263 C82.21781,42.7384 86.90372,42.7384 88.76098,44.05263 C89.75878,44.61288 90.51669,45.52114 90.50076,46.47762 L90.50076,49.50959 L90.50076,52.54155 L90.50076,55.57351 L90.50076,58.60547 C90.51669,59.56195 89.75878,60.47022 88.76098,61.03047 C86.90372,62.3447 82.21781,62.3447 80.36055,61.03047 C79.36274,60.47022 78.60483,59.56195 78.62076,58.60547 L78.62101,55.6179 L78.62101,52.58594 L78.62101,49.55398 L78.62101,46.52201 C78.60483,45.52114 79.36274,44.61288 80.36055,44.05263 z M78.79896,46.47762 C78.78351,47.40541 79.51868,48.28643 80.48656,48.82987 L81.16564,49.16534 C82.95382,50.00723 86.16776,50.00721 87.95592,49.16533 L88.63497,48.82987 C90.843,47.78975 90.843,45.1655 88.63497,44.12538 C86.83343,42.85057 82.28809,42.85057 80.48656,44.12538 C79.51868,44.66882 78.78351,45.54984 78.79896,46.47762 z" stroke="Black" stroke-width="0" fill="#EEE3C3" fill-opacity="1"/>
  <path d="M71.53489,33.82637 C71.53378,33.96037 71.35954,34.08924 71.17319,34.12944 C70.91571,34.21113 70.48124,34.10978 70.39431,33.94776 C70.33847,33.67621 70.516,33.53917 70.709,33.49808 C70.96647,33.41639 71.40094,33.51774 71.48787,33.67976" stroke="Black" stroke-width="0" fill="#555555" fill-opacity="1"/>
  <path d="M85.18704,39.01916 C85.18592,39.15316 85.01169,39.28203 84.82534,39.32224 C84.56786,39.40392 84.13339,39.30257 84.04646,39.14055 C83.99062,38.869 84.16815,38.73196 84.36115,38.69087 C84.62824,38.6104 85.05376,38.71286 85.14002,38.87255" stroke="Black" stroke-width="0" fill="#555555" fill-opacity="1"/>
  <path d="M70.64037,34.35649 L71.17319,34.37642 C71.36618,34.33533 71.54372,34.19829 71.5351,34.06074 L84.36954,38.68879 C84.16815,38.73196 83.99062,38.869 83.99924,39.00655 L84.2169,39.43065 z" stroke="Black" stroke-width="0" fill="#555555" fill-opacity="1"/>
  <path d="M71.5351,67.75147 C71.54372,67.88902 71.36618,68.02606 71.17319,68.06715 C70.91571,68.14884 70.48124,68.04749 70.39431,67.88548 L70.3472,33.82281 C70.48124,34.10978 70.91571,34.21113 71.17319,34.12944 C71.35954,34.08924 71.53378,33.96037 71.53489,33.82637 C71.54372,34.19829 71.36618,34.33533 71.17319,34.37642 L70.64037,34.35649 L84.2169,39.43065 L84.04646,39.29932 C84.13339,39.30257 84.56786,39.40392 84.82534,39.32224 C85.01169,39.28203 85.18592,39.15316 85.18704,39.01916 L85.18724,41.5903 C85.19586,41.72785 85.01833,41.86489 84.82534,41.90598 C84.56786,41.98767 84.13339,41.88632 84.04646,41.7243 L83.99924,40.33426 L71.5351,35.67585 z" stroke="Black" stroke-width="0" fill="#777777" fill-opacity="1"/>
  <path d="M85.18724,41.5903 L85.18724,39.00655" stroke="#000000" stroke-width="0.24" fill="none"/>
  <path d="M84.82534,41.90598 C85.01833,41.86489 85.19586,41.72785 85.18724,41.5903" stroke="#000000" stroke-width="0.24" fill="none"/>
  <path d="M70.34711,33.81379 L70.34711,67.7515" stroke="#000000" stroke-width="0.24" fill="none"/>
  <path d="M71.53512,67.7515 L71.53512,35.67583" stroke="#000000" stroke-width="0.24" fill="none"/>
  <path d="M84.36115,38.69087 C84.16815,38.73196 83.99062,38.869 83.99924,39.00655" stroke="#000000" stroke-width="0.24" fill="none"/>
  <path d="M85.14002,38.87255 C85.05376,38.71286 84.62824,38.6104 84.36955,38.68885" stroke="#000000" stroke-width="0.24" fill="none"/>
  <path d="M71.48787,33.67976 C71.40094,33.51774 70.96647,33.41639 70.709,33.49808 C70.516,33.53917 70.33847,33.67621 70.34709,33.81376" stroke="#000000" stroke-width="0.24" fill="none"/>
  <path d="M80.36055,44.05263 C82.21781,42.7384 86.90372,42.7384 88.76098,44.05263 C89.75878,44.61288 90.51669,45.52114 90.50076,46.47762 L90.50076,49.50959 L90.50076,52.54155 L90.50076,55.57351 L90.50076,58.60547 C90.51669,59.56195 89.75878,60.47022 88.76098,61.03047 C86.90372,62.3447 82.21781,62.3447 80.36055,61.03047 C79.36274,60.47022 78.60483,59.56195 78.62076,58.60547 L78.62101,55.6179 L78.62101,52.58594 L78.62101,49.55398 L78.62101,46.52201 C78.60483,45.52114 79.36274,44.61288 80.36055,44.05263 z" stroke="#000000" stroke-width="0.24" fill="none"/>
  <path d="M84.04646,41.7243 C84.13339,41.88632 84.56786,41.98767 84.82534,41.90598" stroke="#000000" stroke-width="0.24" fill="none"/>
  <path d="M84.30506,40.44858 L70.6413,35.34181" stroke="#000000" stroke-width="0.24" fill="none"/>
  <path d="M71.53494,33.89188 L84.36954,38.68876" stroke="#000000" stroke-width="0.24" fill="none"/>
  <path d="M84.56078,41.93275 L84.56078,47.20515" stroke="#000000" stroke-width="0.1" fill="none"/>
  <path d="M83.85821,46.7995 C83.47746,46.97886 83.47746,47.43139 83.85821,47.61074 C84.16886,47.83057 84.95266,47.83057 85.26332,47.61074 C85.64407,47.43139 85.64407,46.97886 85.26332,46.7995 C84.95266,46.57967 84.16886,46.57967 83.85821,46.7995 z" stroke="#000000" stroke-width="0.1" fill="none"/>
  <path d="M88.63499,44.8529 L85.26334,46.79953" stroke="#000000" stroke-width="0.1" fill="none"/>
  <path d="M80.48658,44.8529 L83.85823,46.79953" stroke="#000000" stroke-width="0.1" fill="none"/>
  <path d="M90.50076,49.50959 C90.51669,50.46606 89.75878,51.37433 88.76098,51.93458 C86.90372,53.24881 82.21781,53.24881 80.36055,51.93458 C79.36274,51.37433 78.60483,50.46606 78.62076,49.50959" stroke="#000000" stroke-width="0.24" fill="none"/>
  <path d="M83.99924,40.33426 L83.99924,41.5903" stroke="#000000" stroke-width="0.24" fill="none"/>
  <path d="M90.50076,52.54155 C90.51669,53.49803 89.75878,54.40629 88.76098,54.96655 C86.90372,56.28078 82.21781,56.28078 80.36055,54.96655 C79.36274,54.40629 78.60483,53.49803 78.62076,52.54155" stroke="#000000" stroke-width="0.24" fill="none"/>
  <path d="M90.50076,55.57351 C90.51669,56.52999 89.75878,57.43826 88.76098,57.99851 C86.90372,59.31274 82.21781,59.31274 80.36055,57.99851 C79.36274,57.43826 78.60483,56.52999 78.62076,55.57351" stroke="#000000" stroke-width="0.24" fill="none"/>
  <path d="M83.85823,47.61077 L81.16569,49.16531" stroke="#000000" stroke-width="0.1" fill="none"/>
  <path d="M85.26334,47.61077 L87.95596,49.16535" stroke="#000000" stroke-width="0.1" fill="none"/>
  <path d="M70.39431,33.94776 C70.48124,34.10978 70.91571,34.21113 71.17319,34.12944 C71.36618,34.08835 71.54372,33.95131 71.5351,33.81376" stroke="#111111" stroke-width="0.24" fill="none"/>
  <path d="M71.17319,34.37642 C71.36618,34.33533 71.54372,34.19829 71.5351,34.06074" stroke="#111111" stroke-width="0.24" fill="none"/>
  <path d="M70.64037,34.35649 L71.17319,34.37642" stroke="#111111" stroke-width="0.24" fill="none"/>
  <path d="M84.21692,39.43067 L70.6404,34.35651" stroke="#111111" stroke-width="0.24" fill="none"/>
  <path d="M78.79896,46.47762 C78.78351,47.40541 79.51868,48.28643 80.48656,48.82987 C82.28809,50.10468 86.83343,50.10468 88.63497,48.82987" stroke="#111111" stroke-width="0.24" fill="none"/>
  <path d="M90.50076,46.47762 L90.50076,58.60547" stroke="#111111" stroke-width="0.24" fill="none"/>
  <path d="M78.62076,58.60547 L78.62076,46.47762" stroke="#111111" stroke-width="0.24" fill="none"/>
  <path d="M80.48656,44.12538 C82.28809,42.85057 86.83343,42.85057 88.63497,44.12538 C90.843,45.1655 90.843,47.78975 88.63497,48.82987" stroke="#111111" stroke-width="0.24" fill="none"/>
  <path d="M80.36055,44.05263 C82.21781,42.7384 86.90372,42.7384 88.76098,44.05263 C89.75878,44.61288 90.51669,45.52114 90.50076,46.47762 C90.51669,47.4341 89.75878,48.34237 88.76098,48.90262 L88.49122,49.04895 C86.51302,50.24989 82.13374,50.13685 80.36055,48.90262 C79.36274,48.34237 78.60483,47.4341 78.62076,46.47762" stroke="#111111" stroke-width="0.24" fill="none"/>
  <path d="M90.50076,58.60547 C90.51669,59.56195 89.75878,60.47022 88.76098,61.03047" stroke="#111111" stroke-width="0.24" fill="none"/>
  <path d="M78.62076,46.47762 C78.60483,45.52114 79.36274,44.61288 80.36055,44.05263 C79.51868,44.66882 78.78351,45.54984 78.79896,46.47762" stroke="#111111" stroke-width="0.24" fill="none"/>
  <path d="M88.76098,61.03047 C86.90372,62.3447 82.21781,62.3447 80.36055,61.03047 C79.36274,60.47022 78.60483,59.56195 78.62076,58.60547" stroke="#111111" stroke-width="0.24" fill="none"/>
  <path d="M84.04646,39.29932 L84.2169,39.43065 C84.13339,39.30257 84.56786,39.40392 84.82534,39.32224 C85.01833,39.28114 85.19586,39.1441 85.18724,39.00655" stroke="#111111" stroke-width="0.24" fill="none"/>
  <path d="M70.39431,67.88548 C70.48124,68.04749 70.91571,68.14884 71.17319,68.06715 C71.36618,68.02606 71.54372,67.88902 71.5351,67.75147" stroke="#111111" stroke-width="0.24" fill="none"/>
</svg>