<?xml version="1.0" encoding="utf-8" standalone="no"?><!DOCTYPE svg PUBLIC "-//W3C//DTD SVG 1.1//EN" "http://www.w3.org/Graphics/SVG/1.1/DTD/svg11.dtd"><svg xmlns="http://www.w3.org/2000/svg" version="1.1" width="120pt" height="120pt" viewBox="0 0 120 120" overflow="visible">
  <path d="M60.31388,14.91066 C62.17114,13.59643 66.85705,13.59643 68.71431,14.91066 C69.71212,15.47091 70.47003,16.37918 70.45409,17.33566 L70.45409,29.4635 C70.47003,30.41998 69.71212,31.32825 68.71431,31.8885 C66.85705,33.20274 62.17114,33.20274 60.31388,31.8885 C59.31607,31.32825 58.55817,30.41998 58.5741,29.4635 L58.5741,17.33566 C58.55817,16.37918 59.31607,15.47091 60.31388,14.91066 z M68.5883,19.6879 C69.55618,19.14446 70.29135,18.26344 70.27589,17.33566 C70.29135,16.40787 69.55618,15.52685 68.5883,14.98341 C66.78677,13.7086 62.24143,13.7086 60.43989,14.98341 C58.23186,16.02353 58.23186,18.64778 60.43989,19.6879 L61.11907,20.02341 C62.90727,20.86527 66.12115,20.86523 67.90929,20.02335 z" stroke="Black" stroke-width="0" fill="#EEE3C3" fill-opacity="1"/>
  <path d="M68.5883,19.6879 L67.90929,20.02335 C66.12115,20.86523 62.90727,20.86527 61.11907,20.02341 L60.43989,19.6879 C58.23186,18.64778 58.23186,16.02353 60.43989,14.98341 C62.24143,13.7086 66.78677,13.7086 68.5883,14.98341 C69.55618,15.52685 70.29135,16.40787 70.27589,17.33566 C70.29135,18.26344 69.55618,19.14446 68.5883,19.6879 z" stroke="Black" stroke-width="0" fill="#FFE28A" fill-opacity="1"/>
  <path d="M63.9201,9.95709 L64.09392,9.714683 L64.70982,9.633296 L64.93396,9.714499 L65.1081,9.95709 L64.93428,10.1995 C64.74863,10.33096 64.28004,10.33106 64.09424,10.19968 z" stroke="Black" stroke-width="0" fill="#555555" fill-opacity="1"/>
  <path d="M63.9201,9.95709 L63.9201,10.19353 L56.33042,2.676018 L56.45285,2.292367 C56.63857,2.160944 57.10717,2.160944 57.29289,2.292367 L64.70982,9.633296 L64.09392,9.714683 z" stroke="Black" stroke-width="0" fill="#555555" fill-opacity="1"/>
  <path d="M56.87287,36.48479 L57.29289,36.72729 C57.10717,36.85872 56.63857,36.85872 56.45285,36.72729 z" stroke="Black" stroke-width="0" fill="#555555" fill-opacity="1"/>
  <path d="M63.9201,11.19071 L63.9202,9.965972 L64.09424,10.19968 C64.28004,10.33106 64.74863,10.33096 64.93428,10.1995 L65.10799,9.965963 L65.1081,12.54084 L64.93428,12.78324 L64.5141,12.88378 L64.09424,12.78343 L63.9201,12.54084 z" stroke="Black" stroke-width="0" fill="#777777" fill-opacity="1"/>
  <path d="M63.9201,10.19353 L63.9201,11.19071 L57.46687,4.788423 L57.46686,36.48479 L57.29287,36.72731 C57.10792,36.85798 56.64215,36.85908 56.45522,36.72866 L56.27887,36.48479 L56.27898,2.544077 z" stroke="Black" stroke-width="0" fill="#777777" fill-opacity="1"/>
  <path d="M64.70982,9.633296 L64.93396,9.714499 L65.1081,9.95709" stroke="#000000" stroke-width="0.24" fill="none"/>
  <path d="M63.9201,9.95709 L64.09392,9.714683 L64.70982,9.633296" stroke="#000000" stroke-width="0.24" fill="none"/>
  <path d="M63.92012,10.19356 L63.92012,9.965995" stroke="#000000" stroke-width="0.24" fill="none"/>
  <path d="M63.92012,12.54086 L63.92012,11.19073" stroke="#000000" stroke-width="0.24" fill="none"/>
  <path d="M65.1081,9.95709 L65.1081,12.54084 C64.74863,12.91471 64.28004,12.91481 64.09424,12.78343 L63.9201,12.54084" stroke="#000000" stroke-width="0.24" fill="none"/>
  <path d="M65.1081,12.54084 L64.93428,12.78324" stroke="#000000" stroke-width="0.24" fill="none"/>
  <path d="M58.5741,17.33566 C58.55817,18.29213 59.31607,19.2004 60.31388,19.76065 C62.08707,20.99488 66.46635,21.10792 68.44456,19.90698 L68.71431,19.76065 C69.71212,19.2004 70.47003,18.29213 70.45409,17.33566" stroke="#000000" stroke-width="0.24" fill="none"/>
  <path d="M63.81154,17.65753 C64.1222,17.4377 64.906,17.4377 65.21665,17.65753 C65.5974,17.83689 65.5974,18.28942 65.21665,18.46877 C64.906,18.6886 64.1222,18.6886 63.81154,18.46877 C63.43079,18.28942 63.43079,17.83689 63.81154,17.65753 z" stroke="#000000" stroke-width="0.1" fill="none"/>
  <path d="M58.5741,23.39935 C58.55805,24.35591 59.31599,25.26428 60.31388,25.82458 C62.17114,27.13881 66.85705,27.13881 68.71431,25.82458 C69.71217,25.2643 70.4701,24.35596 70.45409,23.39944" stroke="#000000" stroke-width="0.24" fill="none"/>
  <path d="M58.5741,20.36747 C58.55809,21.324 59.31602,22.23233 60.31388,22.79261 C62.17114,24.10685 66.85705,24.10685 68.71431,22.79261 C69.71214,22.23235 70.47006,21.32405 70.45409,20.36755" stroke="#000000" stroke-width="0.24" fill="none"/>
  <path d="M58.5741,26.43154 C58.55817,27.38802 59.31607,28.29629 60.31388,28.85654 C62.17114,30.17077 66.85705,30.17077 68.71431,28.85654 C69.71212,28.29629 70.47003,27.38802 70.45409,26.43154" stroke="#000000" stroke-width="0.24" fill="none"/>
  <path d="M60.43991,15.71093 L63.81157,17.65756" stroke="#000000" stroke-width="0.1" fill="none"/>
  <path d="M65.21667,18.4688 L67.90932,20.0234" stroke="#000000" stroke-width="0.1" fill="none"/>
  <path d="M65.21667,17.65756 L68.58833,15.71093" stroke="#000000" stroke-width="0.1" fill="none"/>
  <path d="M61.11917,20.02325 L63.81157,18.4688" stroke="#000000" stroke-width="0.1" fill="none"/>
  <path d="M64.70984,9.63332 L57.424,2.408042" stroke="#111111" stroke-width="0.24" fill="none"/>
  <path d="M65.1081,9.95709 L64.93428,10.1995 C64.74863,10.33096 64.28004,10.33106 64.09424,10.19968 L63.9201,9.95709" stroke="#111111" stroke-width="0.24" fill="none"/>
  <path d="M57.46689,4.788007 L57.46689,36.48482" stroke="#111111" stroke-width="0.24" fill="none"/>
  <path d="M56.27889,36.48482 L56.27889,2.534889" stroke="#111111" stroke-width="0.24" fill="none"/>
  <path d="M57.29287,36.72731 C57.10792,36.85798 56.64215,36.85908 56.45522,36.72866 L56.27887,36.48479" stroke="#111111" stroke-width="0.24" fill="none"/>
  <path d="M57.29287,36.72731 L57.46686,36.48479" stroke="#111111" stroke-width="0.24" fill="none"/>
  <path d="M58.5741,29.4635 L58.5741,17.33566" stroke="#111111" stroke-width="0.24" fill="none"/>
  <path d="M70.45409,17.33566 C70.47003,16.37918 69.71212,15.47091 68.71431,14.91066 C66.85705,13.59643 62.17114,13.59643 60.31388,14.91066" stroke="#111111" stroke-width="0.24" fill="none"/>
  <path d="M70.45409,17.33566 L70.45409,29.4635" stroke="#111111" stroke-width="0.24" fill="none"/>
  <path d="M60.43989,14.98341 C58.23186,16.02353 58.23186,18.64778 60.43989,19.6879 C62.24143,20.96271 66.78677,20.96271 68.5883,19.6879" stroke="#111111" stroke-width="0.24" fill="none"/>
  <path d="M60.43989,14.98341 C62.24143,13.7086 66.78677,13.7086 68.5883,14.98341 C69.55618,15.52685 70.29135,16.40787 70.27589,17.33566" stroke="#111111" stroke-width="0.24" fill="none"/>
  <path d="M57.4313,2.417971 L57.29289,2.292367 C57.10717,2.160944 56.63857,2.160944 56.45285,2.292367 L56.27887,2.534866 L63.8729,10.1558" stroke="#111111" stroke-width="0.24" fill="none"/>
  <path d="M70.27589,17.33566 C70.29135,18.26344 69.55618,19.14446 68.5883,19.6879" stroke="#111111" stroke-width="0.24" fill="none"/>
  <path d="M58.5741,29.4635 C58.55817,30.41998 59.31607,31.32825 60.31388,31.8885 C62.17114,33.20274 66.85705,33.20274 68.71431,31.8885" stroke="#111111" stroke-width="0.24" fill="none"/>
  <path d="M60.31388,14.91066 C59.31607,15.47091 58.55817,16.37918 58.5741,17.33566" stroke="#111111" stroke-width="0.24" fill="none"/>
  <path d="M68.71431,31.8885 C69.71212,31.32825 70.47003,30.41998 70.45409,29.4635" stroke="#111111" stroke-width="0.24" fill="none"/>
  <path d="M56.45285,36.72729 C56.63857,36.85872 57.10717,36.85872 57.29289,36.72729" stroke="#111111" stroke-width="0.24" fill="none"/>
  <path d="M60.31388,14.91066 C62.17114,13.59643 66.85705,13.59643 68.71431,14.91066 C69.71212,15.47091 70.47003,16.37918 70.45409,17.33566 L70.45409,29.4635 C70.47003,30.41998 69.71212,31.32825 68.71431,31.8885 C66.85705,33.20274 62.17114,33.20274 60.31388,31.8885 C59.31607,31.32825 58.55817,30.41998 58.5741,29.4635 L58.5741,17.33566 C58.55817,16.37918 59.31607,15.47091 60.31388,14.91066 z" stroke="#000000" stroke-width="0.24" fill="none"/>
  <path d="M56.27887,2.534866 L56.45285,2.292367 C56.63857,2.160944 57.10717,2.160944 57.29289,2.292367" stroke="#000000" stroke-width="0.24" fill="none"/>
  <path d="M64.51412,12.88381 L64.51412,18.06318" stroke="#000000" stroke-width="0.1" fill="none"/>
  <path d="M56.41105,3.740939 L63.92012,11.19073" stroke="#000000" stroke-width="0.24" fill="none"/>
  <path d="M56.27889,36.34277 L56.27889,2.534889" stroke="#000000" stroke-width="0.24" fill="none"/>
  <path d="M57.42636,2.41038 L64.70984,9.63332" stroke="#000000" stroke-width="0.24" fill="none"/>
  <path d="M63.92012,11.19073 L57.46689,4.788445 L57.46689,36.34277" stroke="#000000" stroke-width="0.24" fill="none"/>
</svg>