<?xml version="1.0" encoding="utf-8" standalone="no"?><!DOCTYPE svg PUBLIC "-//W3C//DTD SVG 1.1//EN" "http://www.w3.org/Graphics/SVG/1.1/DTD/svg11.dtd"><svg xmlns="http://www.w3.org/2000/svg" version="1.1" width="120pt" height="120pt" viewBox="0 0 120 120" overflow="visible">
  <path d="M54.83001,63.78521 C54.84546,64.713 54.11029,65.59402 53.14241,66.13746 L52.46333,66.47293 C50.67515,67.31482 47.4612,67.3148 45.67304,66.47292 L44.994,66.13746 C42.78597,65.09734 42.78597,62.47309 44.994,61.43297 C46.79554,60.15816 51.34087,60.15816 53.14241,61.43297 C54.11029,61.97641 54.84546,62.85743 54.83001,63.78521 z" stroke="Black" stroke-width="0" fill="#FFE28A" fill-opacity="1"/>
  <path d="M53.26842,61.36022 C54.26623,61.92047 55.02414,62.82874 55.00821,63.78521 L55.00821,66.81718 L55.00821,69.84914 L55.00821,72.8811 L55.00821,75.91306 C55.02414,76.86954 54.26623,77.77781 53.26842,78.33806 C51.41116,79.65229 46.72525,79.65229 44.86799,78.33806 C43.87019,77.77781 43.11227,76.86954 43.1282,75.91306 L43.12846,72.92549 L43.12846,69.89353 L43.12846,66.86156 L43.12846,63.82961 C43.11227,62.82874 43.87019,61.92047 44.86799,61.36022 C46.72525,60.04599 51.41116,60.04599 53.26842,61.36022 z M54.83001,63.78521 C54.84546,62.85743 54.11029,61.97641 53.14241,61.43297 C51.34087,60.15816 46.79554,60.15816 44.994,61.43297 C42.78597,62.47309 42.78597,65.09734 44.994,66.13746 L45.67304,66.47292 C47.4612,67.3148 50.67515,67.31482 52.46333,66.47293 L53.14241,66.13746 C54.11029,65.59402 54.84546,64.713 54.83001,63.78521 z" stroke="Black" stroke-width="0" fill="#EEE3C3" fill-opacity="1"/>
  <path d="M62.1411,50.98735 C62.22803,50.82533 62.66249,50.72398 62.91997,50.80567 C63.11296,50.84676 63.2905,50.9838 63.28188,51.12135 C63.14773,51.41737 62.71326,51.51872 62.45578,51.43703 C62.26943,51.39683 62.0952,51.26796 62.09408,51.13396" stroke="Black" stroke-width="0" fill="#555555" fill-opacity="1"/>
  <path d="M48.48895,56.18014 C48.57521,56.02045 49.00072,55.918 49.25941,55.99644 C49.46082,56.03955 49.63835,56.17659 49.62973,56.31414 C49.49557,56.61016 49.06111,56.71151 48.80363,56.62983 C48.61728,56.58962 48.44304,56.46075 48.44193,56.32675" stroke="Black" stroke-width="0" fill="#555555" fill-opacity="1"/>
  <path d="M62.98859,51.66408 L49.41208,56.73824 L49.5825,56.60691 C49.63835,56.17659 49.46082,56.03955 49.26782,55.99846 L62.09388,51.19951 C62.08525,51.50588 62.26279,51.64292 62.45578,51.68401 z" stroke="Black" stroke-width="0" fill="#555555" fill-opacity="1"/>
  <path d="M62.09388,85.05906 L62.09388,52.98344 L49.62973,57.64185 L49.62973,58.89789 C49.49557,59.19391 49.06111,59.29525 48.80363,59.21357 C48.61063,59.17248 48.43311,59.03544 48.44173,58.89789 L48.44193,56.32675 C48.44304,56.46075 48.61728,56.58962 48.80363,56.62983 C49.06111,56.71151 49.49557,56.61016 49.5825,56.44814 L49.41208,56.73824 L62.98859,51.66408 L62.45578,51.68401 C62.26279,51.64292 62.08525,51.50588 62.09388,51.36833 C62.0952,51.26796 62.26943,51.39683 62.45578,51.43703 C62.71326,51.51872 63.14773,51.41737 63.23466,51.25535 L63.28188,85.05906 C63.14773,85.35509 62.71326,85.45643 62.45578,85.37475 C62.26279,85.33366 62.08525,85.19662 62.09388,85.05906 z" stroke="Black" stroke-width="0" fill="#777777" fill-opacity="1"/>
  <path d="M49.26782,55.99846 C49.46082,56.03955 49.63835,56.17659 49.62973,56.31414" stroke="#000000" stroke-width="0.24" fill="none"/>
  <path d="M48.48895,56.18014 C48.57521,56.02045 49.00072,55.918 49.25941,55.99644" stroke="#000000" stroke-width="0.24" fill="none"/>
  <path d="M62.1411,50.98735 C62.22803,50.82533 62.66249,50.72398 62.91997,50.80567 C63.11296,50.84676 63.2905,50.9838 63.28188,51.12135" stroke="#000000" stroke-width="0.24" fill="none"/>
  <path d="M53.26842,61.36022 C51.41116,60.04599 46.72525,60.04599 44.86799,61.36022 C43.87019,61.92047 43.11227,62.82874 43.1282,63.78521 L43.1282,66.81718 L43.1282,69.84914 L43.1282,72.8811 L43.1282,75.91306 C43.11227,76.86954 43.87019,77.77781 44.86799,78.33806 C46.72525,79.65229 51.41116,79.65229 53.26842,78.33806 C54.26623,77.77781 55.02414,76.86954 55.00821,75.91306 L55.00796,72.92549 L55.00796,69.89353 L55.00796,66.86156 L55.00796,63.82961 C55.02414,62.82874 54.26623,61.92047 53.26842,61.36022 z" stroke="#000000" stroke-width="0.24" fill="none"/>
  <path d="M49.32395,57.75617 L62.98772,52.6494" stroke="#000000" stroke-width="0.24" fill="none"/>
  <path d="M62.09407,51.19947 L49.25947,55.99635" stroke="#000000" stroke-width="0.24" fill="none"/>
  <path d="M49.62973,57.64185 L49.62973,58.89789" stroke="#000000" stroke-width="0.24" fill="none"/>
  <path d="M48.44173,58.89789 L48.44173,56.31414" stroke="#000000" stroke-width="0.24" fill="none"/>
  <path d="M48.80363,59.21357 C48.61063,59.17248 48.43311,59.03544 48.44173,58.89789" stroke="#000000" stroke-width="0.24" fill="none"/>
  <path d="M63.2819,51.12138 L63.2819,85.05909" stroke="#000000" stroke-width="0.24" fill="none"/>
  <path d="M62.0939,85.05909 L62.0939,52.98342" stroke="#000000" stroke-width="0.24" fill="none"/>
  <path d="M49.5825,59.03189 C49.49557,59.19391 49.06111,59.29525 48.80363,59.21357" stroke="#000000" stroke-width="0.24" fill="none"/>
  <path d="M49.06823,59.24035 L49.06823,64.51273" stroke="#000000" stroke-width="0.1" fill="none"/>
  <path d="M49.77076,64.10709 C50.15152,64.28645 50.15152,64.73898 49.77076,64.91833 C49.46011,65.13816 48.67631,65.13816 48.36565,64.91833 C47.9849,64.73898 47.9849,64.28645 48.36565,64.10709 C48.67631,63.88726 49.46011,63.88726 49.77076,64.10709 z" stroke="#000000" stroke-width="0.1" fill="none"/>
  <path d="M44.99402,62.16049 L48.36567,64.10712" stroke="#000000" stroke-width="0.1" fill="none"/>
  <path d="M53.14244,62.16049 L49.77079,64.10712" stroke="#000000" stroke-width="0.1" fill="none"/>
  <path d="M43.1282,66.81718 C43.11227,67.77365 43.87019,68.68192 44.86799,69.24217 C46.72525,70.5564 51.41116,70.5564 53.26842,69.24217 C54.26623,68.68192 55.02414,67.77365 55.00821,66.81718" stroke="#000000" stroke-width="0.24" fill="none"/>
  <path d="M43.1282,69.84914 C43.11227,70.80562 43.87019,71.71388 44.86799,72.27413 C46.72525,73.58837 51.41116,73.58837 53.26842,72.27413 C54.26623,71.71388 55.02414,70.80562 55.00821,69.84914" stroke="#000000" stroke-width="0.24" fill="none"/>
  <path d="M43.1282,72.8811 C43.11227,73.83758 43.87019,74.74584 44.86799,75.3061 C46.72525,76.62033 51.41116,76.62033 53.26842,75.3061 C54.26623,74.74584 55.02414,73.83758 55.00821,72.8811" stroke="#000000" stroke-width="0.24" fill="none"/>
  <path d="M49.77079,64.91836 L52.46333,66.4729" stroke="#000000" stroke-width="0.1" fill="none"/>
  <path d="M48.36567,64.91836 L45.67306,66.47294" stroke="#000000" stroke-width="0.1" fill="none"/>
  <path d="M63.23466,51.25535 C63.14773,51.41737 62.71326,51.51872 62.45578,51.43703 C62.26279,51.39594 62.08525,51.2589 62.09388,51.12135" stroke="#111111" stroke-width="0.24" fill="none"/>
  <path d="M62.45578,51.68401 C62.26279,51.64292 62.08525,51.50588 62.09388,51.36833" stroke="#111111" stroke-width="0.24" fill="none"/>
  <path d="M62.98859,51.66408 L62.45578,51.68401" stroke="#111111" stroke-width="0.24" fill="none"/>
  <path d="M49.4121,56.73826 L62.98862,51.6641" stroke="#111111" stroke-width="0.24" fill="none"/>
  <path d="M43.1282,63.78521 L43.1282,75.91306" stroke="#111111" stroke-width="0.24" fill="none"/>
  <path d="M55.00821,75.91306 L55.00821,63.78521" stroke="#111111" stroke-width="0.24" fill="none"/>
  <path d="M53.14241,61.43297 C51.34087,60.15816 46.79554,60.15816 44.994,61.43297 C42.78597,62.47309 42.78597,65.09734 44.994,66.13746" stroke="#111111" stroke-width="0.24" fill="none"/>
  <path d="M53.26842,61.36022 C51.41116,60.04599 46.72525,60.04599 44.86799,61.36022 C43.87019,61.92047 43.11227,62.82874 43.1282,63.78521" stroke="#111111" stroke-width="0.24" fill="none"/>
  <path d="M45.13774,66.35654 C47.11596,67.55748 51.49523,67.44444 53.26842,66.21021 C54.26623,65.64996 55.02414,64.74169 55.00821,63.78521" stroke="#111111" stroke-width="0.24" fill="none"/>
  <path d="M43.1282,75.91306 C43.11227,76.86954 43.87019,77.77781 44.86799,78.33806" stroke="#111111" stroke-width="0.24" fill="none"/>
  <path d="M53.14241,61.43297 C54.11029,61.97641 54.84546,62.85743 54.83001,63.78521" stroke="#111111" stroke-width="0.24" fill="none"/>
  <path d="M44.86799,78.33806 C46.72525,79.65229 51.41116,79.65229 53.26842,78.33806 C54.26623,77.77781 55.02414,76.86954 55.00821,75.91306" stroke="#111111" stroke-width="0.24" fill="none"/>
  <path d="M49.5825,56.60691 L49.41208,56.73824" stroke="#111111" stroke-width="0.24" fill="none"/>
  <path d="M55.00821,63.78521 C55.02414,62.82874 54.26623,61.92047 53.26842,61.36022" stroke="#111111" stroke-width="0.24" fill="none"/>
  <path d="M49.5825,56.44814 C49.49557,56.61016 49.06111,56.71151 48.80363,56.62983 C48.61063,56.58873 48.43311,56.45169 48.44173,56.31414" stroke="#111111" stroke-width="0.24" fill="none"/>
  <path d="M63.23466,85.19306 C63.14773,85.35509 62.71326,85.45643 62.45578,85.37475 C62.26279,85.33366 62.08525,85.19662 62.09388,85.05906" stroke="#111111" stroke-width="0.24" fill="none"/>
  <path d="M43.1282,63.78521 C43.11227,64.74169 43.87019,65.64996 44.86799,66.21021 L45.13774,66.35654" stroke="#111111" stroke-width="0.24" fill="none"/>
  <path d="M54.83001,63.78521 C54.84546,64.713 54.11029,65.59402 53.14241,66.13746 C51.34087,67.41227 46.79554,67.41227 44.994,66.13746" stroke="#111111" stroke-width="0.24" fill="none"/>
</svg>