<?xml version="1.0" encoding="utf-8" standalone="no"?>
<!DOCTYPE svg PUBLIC "-//W3C//DTD SVG 1.1//EN" "http://www.w3.org/Graphics/SVG/1.1/DTD/svg11.dtd">
<svg version="1.1" width="120pt" height="120pt" viewBox="0 0 120 120" overflow="visible" xmlns="http://www.w3.org/2000/svg">
  <path d="M57.21338,40.25246 C58.2132,40.81384 58.97265,41.72395 58.95668,42.68235 L58.95668,45.72044 L58.95668,48.75853 L58.95668,51.79662 L58.95668,54.83471 C58.97265,55.79312 58.2132,56.70322 57.21338,57.2646 C55.35237,58.58149 50.65699,58.58149 48.79598,57.2646 C47.79616,56.70322 47.03672,55.79312 47.05268,54.83471 L47.05293,51.8411 L47.05293,48.80301 L47.05293,45.76492 L47.05293,42.72683 C47.03672,41.72395 47.79616,40.81384 48.79598,40.25246 C50.65699,38.93557 55.35237,38.93557 57.21338,40.25246 z M58.77812,42.68235 C58.79361,41.7527 58.05695,40.8699 57.08712,40.32536 C55.28194,39.04798 50.72742,39.04798 48.92225,40.32536 C46.70975,41.36758 46.70975,43.99713 48.92225,45.03935 L49.60266,45.37548 C51.39443,46.21907 54.61487,46.21909 56.40667,45.3755 L57.08712,45.03935 C58.05695,44.49481 58.79361,43.61201 58.77812,42.68235 z" stroke="Black" stroke-width="0" fill="#EEE3C3" fill-opacity="1" />
  <path d="M58.77812,42.68235 C58.79361,43.61201 58.05695,44.49481 57.08712,45.03935 L56.40667,45.3755 C54.61487,46.21909 51.39443,46.21907 49.60266,45.37548 L48.92225,45.03935 C46.70975,43.99713 46.70975,41.36758 48.92225,40.32536 C50.72742,39.04798 55.28194,39.04798 57.08712,40.32536 C58.05695,40.8699 58.79361,41.7527 58.77812,42.68235 z" stroke="Black" stroke-width="0" fill="#FFE28A" fill-opacity="1" />
  <path d="M53.45055,35.77066 L52.85171,35.61449 L52.67901,35.34859 L52.84798,35.17465 L53.0335,35.13352 L70.84219,33.55471 C71.06155,33.49242 71.36215,33.53476 71.50431,33.62587 L71.67863,33.86886 L71.50431,34.11185 L71.30667,34.18742 z" stroke="Black" stroke-width="0" fill="#555555" fill-opacity="1" />
  <path d="M70.2417,66.42944 L59.84618,60.42759 L59.67195,60.19349 L59.84618,59.94161 C60.03228,59.80992 60.50182,59.80992 60.68792,59.94161 L70.48816,65.59973 L70.48823,66.42944 L70.66254,66.67241 C70.84255,66.7983 71.29009,66.80672 71.48521,66.68321 L41.91715,83.75459 C41.73105,83.88627 41.26151,83.88627 41.07541,83.75459 L40.90118,83.52048 L41.07541,83.2686 z" stroke="Black" stroke-width="0" fill="#555555" fill-opacity="1" />
  <path d="M60.68773,61.88556 C60.50146,62.01719 60.0322,62.01714 59.84618,61.88552 L59.67185,61.64253 L59.67195,60.19349 L59.84618,60.42759 L70.2417,66.42944 L69.39978,66.91538 z" stroke="Black" stroke-width="0" fill="#777777" fill-opacity="1" />
  <path d="M70.48824,35.24693 L53.3401,36.76703 L53.00468,36.75271 L52.65901,36.61752 L52.48788,36.3428 L52.67901,35.34859 L52.85171,35.61449 L53.45055,35.77066 L71.30667,34.18742 L71.50431,34.11185 L71.67854,33.87775 L71.67863,67.88737 L71.50431,68.13036 C71.31821,68.26205 70.84867,68.26205 70.66257,68.13036 L42.09148,84.62589 L42.09148,84.96953 L41.91715,85.21252 C41.73105,85.34421 41.26151,85.34421 41.07541,85.21252 L40.90108,84.96953 L40.90118,83.52048 L41.07541,83.75459 C41.26151,83.88627 41.73105,83.88627 41.91715,83.75459 L71.48521,66.68321 C71.29009,66.80672 70.84255,66.7983 70.66254,66.67241 L70.48823,66.42944 z" stroke="Black" stroke-width="0" fill="#777777" fill-opacity="1" />
  <path d="M59.84618,59.94161 L59.67185,60.1846" stroke="#000000" stroke-width="0.24" fill="none" />
  <path d="M40.9011,83.51161 L40.9011,84.96955" stroke="#000000" stroke-width="0.24" fill="none" />
  <path d="M42.0915,84.96955 L42.0915,84.62592 L70.66259,68.13039" stroke="#000000" stroke-width="0.24" fill="none" />
  <path d="M71.67867,67.8874 L71.67867,33.86889 L71.50431,33.62587 C71.36215,33.53476 71.06155,33.49242 70.84219,33.55471 L53.03353,35.13354 L52.84798,35.17465 L52.68057,35.33982 L52.4879,36.34282 L52.65901,36.61752" stroke="#000000" stroke-width="0.24" fill="none" />
  <path d="M71.5043,67.64442 L41.91718,84.72656" stroke="#000000" stroke-width="0.24" fill="none" />
  <path d="M52.65901,36.61752 L53.00468,36.75271 L53.30752,36.77034 L70.48826,35.24696 L70.48819,65.59976 L60.68795,59.94163" stroke="#000000" stroke-width="0.24" fill="none" />
  <path d="M59.67188,60.18462 L59.67188,61.64256" stroke="#000000" stroke-width="0.24" fill="none" />
  <path d="M60.68776,61.88558 L69.3998,66.91541" stroke="#000000" stroke-width="0.24" fill="none" />
  <path d="M53.30782,36.77029 L71.11333,35.19154" stroke="#000000" stroke-width="0.24" fill="none" />
  <path d="M70.48824,35.24693 L70.48824,66.42944" stroke="#000000" stroke-width="0.24" fill="none" />
  <path d="M41.07541,83.2686 L40.90108,83.51159" stroke="#000000" stroke-width="0.24" fill="none" />
  <path d="M69.3998,66.91541 L41.07543,83.26862" stroke="#000000" stroke-width="0.24" fill="none" />
  <path d="M60.68792,59.94161 C60.50182,59.80992 60.03228,59.80992 59.84618,59.94161" stroke="#000000" stroke-width="0.24" fill="none" />
  <path d="M57.21338,40.25246 C55.35237,38.93557 50.65699,38.93557 48.79598,40.25246 C47.79616,40.81384 47.03672,41.72395 47.05268,42.68235 L47.05268,45.72044 L47.05268,48.75853 L47.05268,51.79662 L47.05268,54.83471 C47.03672,55.79312 47.79616,56.70322 48.79598,57.2646 C50.65699,58.58149 55.35237,58.58149 57.21338,57.2646 C58.2132,56.70322 58.97265,55.79312 58.95668,54.83471 L58.95643,51.8411 L58.95643,48.80301 L58.95643,45.76492 L58.95643,42.72683 C58.97265,41.72395 58.2132,40.81384 57.21338,40.25246 z" stroke="#000000" stroke-width="0.24" fill="none" />
  <path d="M57.08714,41.05435 L53.70868,43.00491" stroke="#000000" stroke-width="0.1" fill="none" />
  <path d="M52.30073,43.81779 L49.60268,45.37551" stroke="#000000" stroke-width="0.1" fill="none" />
  <path d="M53.70866,43.00488 C54.09018,43.1846 54.09018,43.63804 53.70866,43.81776 C53.39737,44.03804 52.61199,44.03804 52.3007,43.81776 C51.91919,43.63804 51.91919,43.1846 52.3007,43.00488 C52.61199,42.78461 53.39737,42.78461 53.70866,43.00488 z" stroke="#000000" stroke-width="0.1" fill="none" />
  <path d="M53.00471,36.75273 L53.00471,43.41135" stroke="#000000" stroke-width="0.1" fill="none" />
  <path d="M53.70868,43.81779 L56.40667,45.37547" stroke="#000000" stroke-width="0.1" fill="none" />
  <path d="M48.92227,41.05435 L52.30073,43.00491" stroke="#000000" stroke-width="0.1" fill="none" />
  <path d="M47.05268,45.72044 C47.03672,46.67885 47.79616,47.58895 48.79598,48.15034 C50.65699,49.46722 55.35237,49.46722 57.21338,48.15034 C58.2132,47.58895 58.97265,46.67885 58.95668,45.72044" stroke="#000000" stroke-width="0.24" fill="none" />
  <path d="M47.05268,48.75853 C47.03672,49.71694 47.79616,50.62704 48.79598,51.18842 C50.65699,52.50531 55.35237,52.50531 57.21338,51.18842 C58.2132,50.62704 58.97265,49.71694 58.95668,48.75853" stroke="#000000" stroke-width="0.24" fill="none" />
  <path d="M47.05268,51.79662 C47.03672,52.75503 47.79616,53.66513 48.79598,54.22651 C50.65699,55.5434 55.35237,55.5434 57.21338,54.22651 C58.2132,53.66513 58.97265,52.75503 58.95668,51.79662" stroke="#000000" stroke-width="0.24" fill="none" />
  <path d="M53.45057,35.77069 L71.30669,34.18744" stroke="#111111" stroke-width="0.24" fill="none" />
  <path d="M52.68057,35.33982 L52.48788,36.3428" stroke="#111111" stroke-width="0.24" fill="none" />
  <path d="M58.95668,42.68235 C58.97265,41.72395 58.2132,40.81384 57.21338,40.25246" stroke="#111111" stroke-width="0.24" fill="none" />
  <path d="M47.05268,54.83471 C47.03672,55.79312 47.79616,56.70322 48.79598,57.2646" stroke="#111111" stroke-width="0.24" fill="none" />
  <path d="M52.68057,35.33982 L52.84798,35.17465 L53.03334,35.13329" stroke="#111111" stroke-width="0.24" fill="none" />
  <path d="M59.84621,61.39957 L69.39974,66.91531" stroke="#111111" stroke-width="0.24" fill="none" />
  <path d="M59.67185,60.1846 L59.67185,61.64253" stroke="#111111" stroke-width="0.24" fill="none" />
  <path d="M49.06628,45.25887 C51.04849,46.46224 55.43661,46.34897 57.21338,45.11225 C58.2132,44.55087 58.97265,43.64077 58.95668,42.68235" stroke="#111111" stroke-width="0.24" fill="none" />
  <path d="M70.48811,65.59976 L60.68795,59.94163" stroke="#111111" stroke-width="0.24" fill="none" />
  <path d="M47.05268,42.68235 C47.03672,43.64077 47.79616,44.55087 48.79598,45.11225 L49.06628,45.25887" stroke="#111111" stroke-width="0.24" fill="none" />
  <path d="M41.07543,83.26862 L70.24172,66.42947" stroke="#111111" stroke-width="0.24" fill="none" />
  <path d="M70.84222,33.55474 L53.03369,35.13377" stroke="#111111" stroke-width="0.24" fill="none" />
  <path d="M71.5043,66.67247 L41.91718,83.75461" stroke="#111111" stroke-width="0.24" fill="none" />
  <path d="M70.66257,68.13036 C70.84867,68.26205 71.31821,68.26205 71.50431,68.13036 L71.67863,67.88737" stroke="#111111" stroke-width="0.24" fill="none" />
  <path d="M59.84621,60.42761 L70.24172,66.42947" stroke="#111111" stroke-width="0.24" fill="none" />
  <path d="M53.3078,36.77031 L52.65901,36.61752" stroke="#111111" stroke-width="0.24" fill="none" />
  <path d="M60.68792,59.94161 C60.50182,59.80992 60.03228,59.80992 59.84618,59.94161 L59.67185,60.1846" stroke="#111111" stroke-width="0.24" fill="none" />
  <path d="M52.85171,35.61449 L52.68057,35.33982" stroke="#111111" stroke-width="0.24" fill="none" />
  <path d="M41.07541,83.2686 L40.90108,83.51159 L41.07541,83.75459 C41.26151,83.88627 41.73105,83.88627 41.91715,83.75459" stroke="#111111" stroke-width="0.24" fill="none" />
  <path d="M70.66254,66.67241 L70.48823,66.42944" stroke="#111111" stroke-width="0.24" fill="none" />
  <path d="M59.67185,61.64253 L59.84618,61.88552" stroke="#111111" stroke-width="0.24" fill="none" />
  <path d="M59.67185,60.1846 L59.84618,60.42759" stroke="#111111" stroke-width="0.24" fill="none" />
  <path d="M57.21338,40.25246 C55.35237,38.93557 50.65699,38.93557 48.79598,40.25246 C47.79616,40.81384 47.03672,41.72395 47.05268,42.68235" stroke="#111111" stroke-width="0.24" fill="none" />
  <path d="M40.90108,84.96953 L41.07541,85.21252 C41.26151,85.34421 41.73105,85.34421 41.91715,85.21252 L42.09148,84.96953" stroke="#111111" stroke-width="0.24" fill="none" />
  <path d="M57.08712,40.32536 C55.28194,39.04798 50.72742,39.04798 48.92225,40.32536 C46.70975,41.36758 46.70975,43.99713 48.92225,45.03935" stroke="#111111" stroke-width="0.24" fill="none" />
  <path d="M70.66254,66.67241 C70.84864,66.8041 71.31816,66.80412 71.50428,66.67245" stroke="#111111" stroke-width="0.24" fill="none" />
  <path d="M42.09148,84.96953 L42.09148,84.62576" stroke="#111111" stroke-width="0.24" fill="none" />
  <path d="M58.95668,54.83471 L58.95668,42.68235" stroke="#111111" stroke-width="0.24" fill="none" />
  <path d="M71.67863,33.86886 L71.50431,33.62587 C71.36215,33.53476 71.06155,33.49242 70.84219,33.55471" stroke="#111111" stroke-width="0.24" fill="none" />
  <path d="M47.05268,42.68235 L47.05268,54.83471" stroke="#111111" stroke-width="0.24" fill="none" />
  <path d="M59.84618,61.88552 C60.0322,62.01713 60.50143,62.01725 60.68767,61.88567" stroke="#111111" stroke-width="0.24" fill="none" />
  <path d="M40.90108,83.51159 L40.90108,84.96953" stroke="#111111" stroke-width="0.24" fill="none" />
  <path d="M58.77812,42.68235 C58.79361,43.61201 58.05695,44.49481 57.08712,45.03935 C55.28194,46.31673 50.72742,46.31673 48.92225,45.03935" stroke="#111111" stroke-width="0.24" fill="none" />
  <path d="M48.79598,57.2646 C50.65699,58.58149 55.35237,58.58149 57.21338,57.2646 C58.2132,56.70322 58.97265,55.79312 58.95668,54.83471" stroke="#111111" stroke-width="0.24" fill="none" />
  <path d="M57.08712,40.32536 C58.05695,40.8699 58.79361,41.7527 58.77812,42.68235" stroke="#111111" stroke-width="0.24" fill="none" />
  <path d="M53.45055,35.77066 L52.85171,35.61449" stroke="#111111" stroke-width="0.24" fill="none" />
  <path d="M71.67863,67.88737 L71.67863,33.86886 L71.50431,34.11185 L71.67863,33.86886" stroke="#111111" stroke-width="0.24" fill="none" />
  <path d="M52.65901,36.61752 L52.48788,36.3428" stroke="#111111" stroke-width="0.24" fill="none" />
</svg>