<?xml version="1.0" encoding="utf-8" standalone="no"?><!DOCTYPE svg PUBLIC "-//W3C//DTD SVG 1.1//EN" "http://www.w3.org/Graphics/SVG/1.1/DTD/svg11.dtd"><svg xmlns="http://www.w3.org/2000/svg" version="1.1" width="120pt" height="120pt" viewBox="0 0 120 120" overflow="visible">
  <path d="M60.85991,14.91066 C62.71717,13.59643 67.40308,13.59643 69.26034,14.91066 C70.25815,15.47091 71.01606,16.37918 71.00012,17.33566 L71.00012,29.4635 C71.01606,30.41998 70.25815,31.32825 69.26034,31.8885 C67.40308,33.20274 62.71717,33.20274 60.85991,31.8885 C59.8621,31.32825 59.10419,30.41998 59.12012,29.4635 L59.12012,17.33566 C59.10419,16.37918 59.8621,15.47091 60.85991,14.91066 z M69.13433,19.6879 C70.1022,19.14446 70.83738,18.26344 70.82192,17.33566 C70.83738,16.40787 70.1022,15.52685 69.13433,14.98341 C67.33279,13.7086 62.78746,13.7086 60.98592,14.98341 C58.77789,16.02353 58.77789,18.64778 60.98592,19.6879 L61.6651,20.02341 C63.4533,20.86527 66.66718,20.86523 68.45531,20.02335 z" stroke="Black" stroke-width="0" fill="#EEE3C3" fill-opacity="1"/>
  <path d="M69.13433,19.6879 L68.45531,20.02335 C66.66718,20.86523 63.4533,20.86527 61.6651,20.02341 L60.98592,19.6879 C58.77789,18.64778 58.77789,16.02353 60.98592,14.98341 C62.78746,13.7086 67.33279,13.7086 69.13433,14.98341 C70.1022,15.52685 70.83738,16.40787 70.82192,17.33566 C70.83738,18.26344 70.1022,19.14446 69.13433,19.6879 z" stroke="Black" stroke-width="0" fill="#FFE28A" fill-opacity="1"/>
  <path d="M64.46613,9.95709 L64.63995,9.714683 L65.25584,9.633296 L65.47999,9.714499 L65.65412,9.95709 L65.48031,10.1995 C65.29466,10.33096 64.82607,10.33106 64.64026,10.19968 z" stroke="Black" stroke-width="0" fill="#555555" fill-opacity="1"/>
  <path d="M64.46613,9.95709 L64.46613,10.19353 L56.87645,2.676018 L56.99887,2.292367 C57.1846,2.160944 57.65319,2.160944 57.83892,2.292367 L65.25584,9.633296 L64.63995,9.714683 z" stroke="Black" stroke-width="0" fill="#555555" fill-opacity="1"/>
  <path d="M57.4189,36.48479 L57.83892,36.72729 C57.65319,36.85872 57.1846,36.85872 56.99887,36.72729 z" stroke="Black" stroke-width="0" fill="#555555" fill-opacity="1"/>
  <path d="M64.46613,11.19071 L64.46622,9.965972 L64.64026,10.19968 C64.82607,10.33106 65.29466,10.33096 65.48031,10.1995 L65.65402,9.965963 L65.65412,12.54084 L65.48031,12.78324 L65.06013,12.88378 L64.64026,12.78343 L64.46613,12.54084 z" stroke="Black" stroke-width="0" fill="#777777" fill-opacity="1"/>
  <path d="M64.46613,10.19353 L64.46613,11.19071 L58.0129,4.788423 L58.01289,36.48479 L57.83889,36.72731 C57.65395,36.85798 57.18818,36.85908 57.00125,36.72866 L56.8249,36.48479 L56.825,2.544077 z" stroke="Black" stroke-width="0" fill="#777777" fill-opacity="1"/>
  <path d="M65.25584,9.633296 L65.47999,9.714499 L65.65412,9.95709" stroke="#000000" stroke-width="0.24" fill="none"/>
  <path d="M64.46613,9.95709 L64.63995,9.714683 L65.25584,9.633296" stroke="#000000" stroke-width="0.24" fill="none"/>
  <path d="M64.46615,10.19356 L64.46615,9.965995" stroke="#000000" stroke-width="0.24" fill="none"/>
  <path d="M64.46615,12.54086 L64.46615,11.19073" stroke="#000000" stroke-width="0.24" fill="none"/>
  <path d="M65.65412,9.95709 L65.65412,12.54084 L65.48031,12.78324" stroke="#000000" stroke-width="0.24" fill="none"/>
  <path d="M59.12012,17.33566 C59.10419,18.29213 59.8621,19.2004 60.85991,19.76065 C62.6331,20.99488 67.01237,21.10792 68.99059,19.90698 L69.26034,19.76065 C70.25815,19.2004 71.01606,18.29213 71.00012,17.33566" stroke="#000000" stroke-width="0.24" fill="none"/>
  <path d="M65.48031,12.78324 C65.29466,12.91471 64.82607,12.91481 64.64026,12.78343 L64.46613,12.54084" stroke="#000000" stroke-width="0.24" fill="none"/>
  <path d="M64.35757,17.65753 C64.66823,17.4377 65.45203,17.4377 65.76268,17.65753 C66.14343,17.83689 66.14343,18.28942 65.76268,18.46877 C65.45203,18.6886 64.66823,18.6886 64.35757,18.46877 C63.97681,18.28942 63.97681,17.83689 64.35757,17.65753 z" stroke="#000000" stroke-width="0.1" fill="none"/>
  <path d="M59.12012,23.39935 C59.10408,24.35591 59.86202,25.26428 60.85991,25.82458 C62.71717,27.13881 67.40308,27.13881 69.26034,25.82458 C70.2582,25.2643 71.01613,24.35596 71.00012,23.39944" stroke="#000000" stroke-width="0.24" fill="none"/>
  <path d="M59.12012,20.36747 C59.10411,21.324 59.86205,22.23233 60.85991,22.79261 C62.71717,24.10685 67.40308,24.10685 69.26034,22.79261 C70.25817,22.23235 71.01609,21.32405 71.00012,20.36755" stroke="#000000" stroke-width="0.24" fill="none"/>
  <path d="M59.12012,26.43154 C59.10419,27.38802 59.8621,28.29629 60.85991,28.85654 C62.71717,30.17077 67.40308,30.17077 69.26034,28.85654 C70.25815,28.29629 71.01606,27.38802 71.00012,26.43154" stroke="#000000" stroke-width="0.24" fill="none"/>
  <path d="M60.98594,15.71093 L64.35759,17.65756" stroke="#000000" stroke-width="0.1" fill="none"/>
  <path d="M65.7627,18.4688 L68.45535,20.0234" stroke="#000000" stroke-width="0.1" fill="none"/>
  <path d="M65.7627,17.65756 L69.13435,15.71093" stroke="#000000" stroke-width="0.1" fill="none"/>
  <path d="M61.6652,20.02325 L64.35759,18.4688" stroke="#000000" stroke-width="0.1" fill="none"/>
  <path d="M65.25587,9.63332 L57.97003,2.408042" stroke="#111111" stroke-width="0.24" fill="none"/>
  <path d="M58.01292,4.788007 L58.01292,36.48482" stroke="#111111" stroke-width="0.24" fill="none"/>
  <path d="M56.82492,36.48482 L56.82492,2.534889" stroke="#111111" stroke-width="0.24" fill="none"/>
  <path d="M57.83889,36.72731 C57.65395,36.85798 57.18818,36.85908 57.00125,36.72866 L56.8249,36.48479" stroke="#111111" stroke-width="0.24" fill="none"/>
  <path d="M57.83889,36.72731 L58.01288,36.48479" stroke="#111111" stroke-width="0.24" fill="none"/>
  <path d="M65.48031,10.1995 C65.29466,10.33096 64.82607,10.33106 64.64026,10.19968 L64.46613,9.95709" stroke="#111111" stroke-width="0.24" fill="none"/>
  <path d="M59.12012,29.4635 L59.12012,17.33566" stroke="#111111" stroke-width="0.24" fill="none"/>
  <path d="M65.65412,9.95709 L65.48031,10.1995" stroke="#111111" stroke-width="0.24" fill="none"/>
  <path d="M71.00012,17.33566 C71.01606,16.37918 70.25815,15.47091 69.26034,14.91066 C67.40308,13.59643 62.71717,13.59643 60.85991,14.91066" stroke="#111111" stroke-width="0.24" fill="none"/>
  <path d="M71.00012,17.33566 L71.00012,29.4635" stroke="#111111" stroke-width="0.24" fill="none"/>
  <path d="M60.98592,14.98341 C58.77789,16.02353 58.77789,18.64778 60.98592,19.6879 C62.78746,20.96271 67.33279,20.96271 69.13433,19.6879" stroke="#111111" stroke-width="0.24" fill="none"/>
  <path d="M60.98592,14.98341 C62.78746,13.7086 67.33279,13.7086 69.13433,14.98341 C70.1022,15.52685 70.83738,16.40787 70.82192,17.33566" stroke="#111111" stroke-width="0.24" fill="none"/>
  <path d="M57.97733,2.417971 L57.83892,2.292367 C57.65319,2.160944 57.1846,2.160944 56.99887,2.292367 L56.8249,2.534866 L64.41892,10.1558" stroke="#111111" stroke-width="0.24" fill="none"/>
  <path d="M70.82192,17.33566 C70.83738,18.26344 70.1022,19.14446 69.13433,19.6879" stroke="#111111" stroke-width="0.24" fill="none"/>
  <path d="M59.12012,29.4635 C59.10419,30.41998 59.8621,31.32825 60.85991,31.8885 C62.71717,33.20274 67.40308,33.20274 69.26034,31.8885" stroke="#111111" stroke-width="0.24" fill="none"/>
  <path d="M60.85991,14.91066 C59.8621,15.47091 59.10419,16.37918 59.12012,17.33566" stroke="#111111" stroke-width="0.24" fill="none"/>
  <path d="M69.26034,31.8885 C70.25815,31.32825 71.01606,30.41998 71.00012,29.4635" stroke="#111111" stroke-width="0.24" fill="none"/>
  <path d="M56.99887,36.72729 C57.1846,36.85872 57.65319,36.85872 57.83892,36.72729" stroke="#111111" stroke-width="0.24" fill="none"/>
  <path d="M60.85991,14.91066 C62.71717,13.59643 67.40308,13.59643 69.26034,14.91066 C70.25815,15.47091 71.01606,16.37918 71.00012,17.33566 L71.00012,29.4635 C71.01606,30.41998 70.25815,31.32825 69.26034,31.8885 C67.40308,33.20274 62.71717,33.20274 60.85991,31.8885 C59.8621,31.32825 59.10419,30.41998 59.12012,29.4635 L59.12012,17.33566 C59.10419,16.37918 59.8621,15.47091 60.85991,14.91066 z" stroke="#000000" stroke-width="0.24" fill="none"/>
  <path d="M56.8249,2.534866 L56.99887,2.292367 C57.1846,2.160944 57.65319,2.160944 57.83892,2.292367" stroke="#000000" stroke-width="0.24" fill="none"/>
  <path d="M65.06015,12.88381 L65.06015,18.06318" stroke="#000000" stroke-width="0.1" fill="none"/>
  <path d="M56.95708,3.740939 L64.46615,11.19073" stroke="#000000" stroke-width="0.24" fill="none"/>
  <path d="M56.82492,36.34277 L56.82492,2.534889" stroke="#000000" stroke-width="0.24" fill="none"/>
  <path d="M57.97239,2.41038 L65.25587,9.63332" stroke="#000000" stroke-width="0.24" fill="none"/>
  <path d="M64.46615,11.19073 L58.01292,4.788445 L58.01292,36.34277" stroke="#000000" stroke-width="0.24" fill="none"/>
</svg>