<?xml version="1.0" encoding="utf-8" standalone="no"?>
<!DOCTYPE svg PUBLIC "-//W3C//DTD SVG 1.1//EN" "http://www.w3.org/Graphics/SVG/1.1/DTD/svg11.dtd">
<svg version="1.1" width="120pt" height="120pt" viewBox="0 0 120 120" overflow="visible" xmlns="http://www.w3.org/2000/svg">
  <path d="M50.90325,46.59481 C50.88776,45.66515 51.62442,44.78235 52.59425,44.23781 C54.39943,42.96043 58.95395,42.96043 60.75913,44.23781 C62.97162,45.28003 62.97162,47.90958 60.75913,48.95181 L60.07872,49.28794 C58.28694,50.13153 55.0665,50.13154 53.27471,49.28796 L52.59425,48.95181 C51.62442,48.40726 50.88776,47.52447 50.90325,46.59481 z" stroke="Black" stroke-width="0" fill="#FFE28A" fill-opacity="1" />
  <path d="M52.46799,44.16492 C54.329,42.84803 59.02438,42.84803 60.88539,44.16492 C61.88521,44.7263 62.64465,45.6364 62.62869,46.59481 L62.62869,49.6329 L62.62869,52.67099 L62.62869,55.70907 L62.62869,58.74716 C62.64465,59.70557 61.88521,60.61567 60.88539,61.17706 C59.02438,62.49394 54.329,62.49394 52.46799,61.17706 C51.46817,60.61567 50.70872,59.70557 50.72469,58.74716 L50.72494,55.75355 L50.72494,52.71547 L50.72494,49.67738 L50.72494,46.63929 C50.70872,45.6364 51.46817,44.7263 52.46799,44.16492 z M50.90325,46.59481 C50.88776,47.52447 51.62442,48.40726 52.59425,48.95181 L53.27471,49.28796 C55.0665,50.13154 58.28694,50.13153 60.07872,49.28794 L60.75913,48.95181 C62.97162,47.90958 62.97162,45.28003 60.75913,44.23781 C58.95395,42.96043 54.39943,42.96043 52.59425,44.23781 C51.62442,44.78235 50.88776,45.66515 50.90325,46.59481 z" stroke="Black" stroke-width="0" fill="#EEE3C3" fill-opacity="1" />
  <path d="M39.43967,70.3419 L68.60596,87.18106 L68.78029,87.42405 L68.60596,87.66704 C68.41986,87.79873 67.95033,87.79873 67.76422,87.66704 L38.19616,70.59566 C38.39128,70.71918 38.83882,70.71075 39.01883,70.58487 L39.19314,70.3419 L39.19321,69.51219 L48.99345,63.85406 C49.17955,63.72237 49.64909,63.72237 49.83519,63.85406 L50.00952,64.09705 L49.83519,64.34004 z" stroke="Black" stroke-width="0" fill="#555555" fill-opacity="1" />
  <path d="M56.23082,39.68312 L38.3747,38.09987 L38.17706,38.02431 L38.00283,37.79021 L38.17706,37.53833 C38.31922,37.44722 38.61982,37.40487 38.83918,37.46717 L56.64787,39.04597 L56.83339,39.0871 L57.0008,39.25227 L56.82966,39.52695 z" stroke="Black" stroke-width="0" fill="#555555" fill-opacity="1" />
  <path d="M48.99364,65.79801 L40.28159,70.82784 L39.43967,70.3419 L49.83519,64.34004 L50.00942,64.10594 L50.00952,65.55499 L49.83519,65.79797 C49.64918,65.92959 49.1799,65.92965 48.99364,65.79801 z" stroke="Black" stroke-width="0" fill="#777777" fill-opacity="1" />
  <path d="M39.19313,39.15939 L39.19314,70.3419 L39.01883,70.58487 C38.83882,70.71075 38.39128,70.71918 38.19616,70.59566 L67.76422,87.66704 C67.95033,87.79873 68.41986,87.79873 68.60596,87.66704 L68.78019,87.43294 L68.78029,88.88198 L68.60596,89.12497 C68.41986,89.25666 67.95033,89.25666 67.76422,89.12497 L67.58989,88.88198 L67.58989,88.53835 L39.0188,72.04282 C38.8327,72.17451 38.36317,72.17451 38.17706,72.04282 L38.00274,71.79983 L38.00283,37.79021 L38.17706,38.02431 L38.3747,38.09987 L56.23082,39.68312 L56.82966,39.52695 L57.00236,39.26104 L57.19349,40.25526 L57.02236,40.52998 L56.67669,40.66516 L56.37388,40.68253 z" stroke="Black" stroke-width="0" fill="#777777" fill-opacity="1" />
  <path d="M38.17712,71.55688 L67.76424,88.63902" stroke="#000000" stroke-width="0.24" fill="none" />
  <path d="M56.3736,40.68275 L38.56809,39.10399" stroke="#000000" stroke-width="0.24" fill="none" />
  <path d="M39.19313,39.15939 L39.19313,70.3419" stroke="#000000" stroke-width="0.24" fill="none" />
  <path d="M57.02236,40.52998 L56.67669,40.66516 L56.37386,40.68279" stroke="#000000" stroke-width="0.24" fill="none" />
  <path d="M52.46799,44.16492 C54.329,42.84803 59.02438,42.84803 60.88539,44.16492 C61.88521,44.7263 62.64465,45.6364 62.62869,46.59481 L62.62869,49.6329 L62.62869,52.67099 L62.62869,55.70907 L62.62869,58.74716 C62.64465,59.70557 61.88521,60.61567 60.88539,61.17706 C59.02438,62.49394 54.329,62.49394 52.46799,61.17706 C51.46817,60.61567 50.70872,59.70557 50.72469,58.74716 L50.72494,55.75355 L50.72494,52.71547 L50.72494,49.67738 L50.72494,46.63929 C50.70872,45.6364 51.46817,44.7263 52.46799,44.16492 z" stroke="#000000" stroke-width="0.24" fill="none" />
  <path d="M57.00082,39.2523 L57.19352,40.25528" stroke="#000000" stroke-width="0.24" fill="none" />
  <path d="M56.83339,39.0871 L57.0008,39.25227" stroke="#000000" stroke-width="0.24" fill="none" />
  <path d="M67.58992,88.88201 L67.58992,88.53837 L39.01883,72.04285" stroke="#000000" stroke-width="0.24" fill="none" />
  <path d="M38.00276,71.79985 L38.00276,37.78134 L38.17706,37.53833 C38.31922,37.44722 38.61982,37.40487 38.83918,37.46717" stroke="#000000" stroke-width="0.24" fill="none" />
  <path d="M56.64787,39.04597 L56.83339,39.0871" stroke="#000000" stroke-width="0.24" fill="none" />
  <path d="M57.19349,40.25526 L57.02236,40.52998" stroke="#000000" stroke-width="0.24" fill="none" />
  <path d="M56.3413,40.67951 L39.19316,39.15941" stroke="#000000" stroke-width="0.24" fill="none" />
  <path d="M48.99345,63.85406 C49.17955,63.72237 49.64909,63.72237 49.83519,63.85406 L50.00954,65.55501" stroke="#000000" stroke-width="0.24" fill="none" />
  <path d="M48.99366,65.79803 L40.28161,70.82787 L68.60599,87.18108 L68.78029,87.42405" stroke="#000000" stroke-width="0.24" fill="none" />
  <path d="M49.83519,63.85406 L50.00952,64.09705" stroke="#000000" stroke-width="0.24" fill="none" />
  <path d="M39.19323,69.51221 L48.99347,63.85408" stroke="#000000" stroke-width="0.24" fill="none" />
  <path d="M38.8392,37.46719 L56.6479,39.04599" stroke="#000000" stroke-width="0.24" fill="none" />
  <path d="M68.78032,87.42407 L68.78032,88.88201" stroke="#000000" stroke-width="0.24" fill="none" />
  <path d="M52.59428,44.9668 L55.97274,46.91736" stroke="#000000" stroke-width="0.1" fill="none" />
  <path d="M60.75915,44.9668 L57.38069,46.91736" stroke="#000000" stroke-width="0.1" fill="none" />
  <path d="M62.62869,49.6329 C62.64465,50.59131 61.88521,51.50141 60.88539,52.06279 C59.02438,53.37968 54.329,53.37968 52.46799,52.06279 C51.46817,51.50141 50.70872,50.59131 50.72469,49.6329" stroke="#000000" stroke-width="0.24" fill="none" />
  <path d="M62.62869,52.67099 C62.64465,53.62939 61.88521,54.5395 60.88539,55.10088 C59.02438,56.41777 54.329,56.41777 52.46799,55.10088 C51.46817,54.5395 50.70872,53.62939 50.72469,52.67099" stroke="#000000" stroke-width="0.24" fill="none" />
  <path d="M55.97274,47.73024 L53.27476,49.28792" stroke="#000000" stroke-width="0.1" fill="none" />
  <path d="M57.38069,47.73024 L60.07874,49.28796" stroke="#000000" stroke-width="0.1" fill="none" />
  <path d="M55.97271,46.91734 C55.59119,47.09706 55.59119,47.5505 55.97271,47.73022 C56.284,47.95049 57.06938,47.95049 57.38066,47.73022 C57.76219,47.5505 57.76219,47.09706 57.38066,46.91734 C57.06938,46.69706 56.284,46.69706 55.97271,46.91734 z" stroke="#000000" stroke-width="0.1" fill="none" />
  <path d="M56.67671,40.66519 L56.67671,47.3238" stroke="#000000" stroke-width="0.1" fill="none" />
  <path d="M62.62869,55.70907 C62.64465,56.66748 61.88521,57.57758 60.88539,58.13897 C59.02438,59.45586 54.329,59.45586 52.46799,58.13897 C51.46817,57.57758 50.70872,56.66748 50.72469,55.70907" stroke="#000000" stroke-width="0.24" fill="none" />
  <path d="M39.19316,39.15941 L39.19323,69.51221" stroke="#000000" stroke-width="0.24" fill="none" />
  <path d="M50.72469,46.59481 C50.70872,45.6364 51.46817,44.7263 52.46799,44.16492" stroke="#111111" stroke-width="0.24" fill="none" />
  <path d="M62.62869,58.74716 C62.64465,59.70557 61.88521,60.61567 60.88539,61.17706" stroke="#111111" stroke-width="0.24" fill="none" />
  <path d="M60.61509,49.17133 C58.63288,50.3747 54.24476,50.26143 52.46799,49.0247 C51.46817,48.46332 50.70872,47.55322 50.72469,46.59481" stroke="#111111" stroke-width="0.24" fill="none" />
  <path d="M62.62869,46.59481 C62.64465,47.55322 61.88521,48.46332 60.88539,49.0247 L60.61509,49.17133" stroke="#111111" stroke-width="0.24" fill="none" />
  <path d="M68.60599,87.18108 L39.4397,70.34192" stroke="#111111" stroke-width="0.24" fill="none" />
  <path d="M49.83521,65.31202 L40.28167,70.82776" stroke="#111111" stroke-width="0.24" fill="none" />
  <path d="M39.0188,72.04282 C38.8327,72.17451 38.36317,72.17451 38.17706,72.04282 L38.00274,71.79983" stroke="#111111" stroke-width="0.24" fill="none" />
  <path d="M56.37357,40.68277 L57.02236,40.52998" stroke="#111111" stroke-width="0.24" fill="none" />
  <path d="M68.78029,88.88198 L68.60596,89.12497 C68.41986,89.25666 67.95033,89.25666 67.76422,89.12497 L67.58989,88.88198" stroke="#111111" stroke-width="0.24" fill="none" />
  <path d="M50.00952,65.55499 L49.83519,65.79797" stroke="#111111" stroke-width="0.24" fill="none" />
  <path d="M52.46799,44.16492 C54.329,42.84803 59.02438,42.84803 60.88539,44.16492 C61.88521,44.7263 62.64465,45.6364 62.62869,46.59481" stroke="#111111" stroke-width="0.24" fill="none" />
  <path d="M52.59425,44.23781 C54.39943,42.96043 58.95395,42.96043 60.75913,44.23781 C62.97162,45.28003 62.97162,47.90958 60.75913,48.95181" stroke="#111111" stroke-width="0.24" fill="none" />
  <path d="M62.62869,46.59481 L62.62869,58.74716" stroke="#111111" stroke-width="0.24" fill="none" />
  <path d="M50.90325,46.59481 C50.88776,47.52447 51.62442,48.40726 52.59425,48.95181 C54.39943,50.22919 58.95395,50.22919 60.75913,48.95181" stroke="#111111" stroke-width="0.24" fill="none" />
  <path d="M56.23082,39.68312 L56.82966,39.52695" stroke="#111111" stroke-width="0.24" fill="none" />
  <path d="M56.23085,39.68314 L38.37473,38.0999 L38.17706,37.53833 C38.31922,37.44722 38.61982,37.40487 38.83918,37.46717" stroke="#111111" stroke-width="0.24" fill="none" />
  <path d="M57.02236,40.52998 L57.19349,40.25526" stroke="#111111" stroke-width="0.24" fill="none" />
  <path d="M49.83519,65.79797 C49.64917,65.92958 49.17994,65.9297 48.99371,65.79813" stroke="#111111" stroke-width="0.24" fill="none" />
  <path d="M48.99345,63.85406 C49.17955,63.72237 49.64909,63.72237 49.83519,63.85406 L50.00952,64.09705" stroke="#111111" stroke-width="0.24" fill="none" />
  <path d="M39.01883,70.58487 L39.19315,70.3419" stroke="#111111" stroke-width="0.24" fill="none" />
  <path d="M67.58989,88.88198 L67.58989,88.53822" stroke="#111111" stroke-width="0.24" fill="none" />
  <path d="M68.78029,87.42405 L68.78029,88.88198" stroke="#111111" stroke-width="0.24" fill="none" />
  <path d="M68.60596,87.18106 L68.78029,87.42405" stroke="#111111" stroke-width="0.24" fill="none" />
  <path d="M57.0008,39.25227 L57.19349,40.25526" stroke="#111111" stroke-width="0.24" fill="none" />
  <path d="M57.0008,39.25227 L56.83339,39.0871 L56.64803,39.04575" stroke="#111111" stroke-width="0.24" fill="none" />
  <path d="M38.00274,71.79983 L38.00274,37.78131" stroke="#111111" stroke-width="0.24" fill="none" />
  <path d="M38.8392,37.46719 L56.64773,39.04622" stroke="#111111" stroke-width="0.24" fill="none" />
  <path d="M50.00952,64.09705 L50.00952,65.55499" stroke="#111111" stroke-width="0.24" fill="none" />
  <path d="M39.19331,69.51221 L48.99347,63.85408" stroke="#111111" stroke-width="0.24" fill="none" />
  <path d="M38.17712,70.58492 L67.76424,87.66706" stroke="#111111" stroke-width="0.24" fill="none" />
  <path d="M49.83521,64.34007 L39.4397,70.34192" stroke="#111111" stroke-width="0.24" fill="none" />
  <path d="M56.82966,39.52695 L57.0008,39.25227" stroke="#111111" stroke-width="0.24" fill="none" />
  <path d="M39.01883,70.58487 C38.83273,70.71655 38.36321,70.71657 38.17709,70.5849" stroke="#111111" stroke-width="0.24" fill="none" />
  <path d="M68.78029,87.42405 L68.60596,87.66704 C68.41986,87.79873 67.95033,87.79873 67.76422,87.66704" stroke="#111111" stroke-width="0.24" fill="none" />
  <path d="M50.00952,64.09705 L49.83519,64.34004" stroke="#111111" stroke-width="0.24" fill="none" />
  <path d="M38.3747,38.09987 L38.17706,38.02431 L38.00274,37.78131" stroke="#111111" stroke-width="0.24" fill="none" />
  <path d="M60.88539,61.17706 C59.02438,62.49394 54.329,62.49394 52.46799,61.17706 C51.46817,60.61567 50.70872,59.70557 50.72469,58.74716 L50.72469,46.59481" stroke="#111111" stroke-width="0.24" fill="none" />
  <path d="M52.59425,44.23781 C51.62442,44.78235 50.88776,45.66515 50.90325,46.59481" stroke="#111111" stroke-width="0.24" fill="none" />
</svg>