<?xml version="1.0" encoding="utf-8" standalone="no"?><!DOCTYPE svg PUBLIC "-//W3C//DTD SVG 1.1//EN" "http://www.w3.org/Graphics/SVG/1.1/DTD/svg11.dtd"><svg xmlns="http://www.w3.org/2000/svg" version="1.1" width="120pt" height="120pt" viewBox="0 0 120 120" overflow="visible">
  <path d="M70.3649,39.959 C71.36271,40.51925 72.12062,41.42752 72.10469,42.384 L72.10469,54.51184 C72.12062,55.46832 71.36271,56.37659 70.3649,56.93684 C68.50764,58.25107 63.82174,58.25107 61.96447,56.93684 C60.96667,56.37659 60.20876,55.46832 60.22469,54.51184 L60.22469,42.384 C60.20876,41.42752 60.96667,40.51925 61.96447,39.959 C63.82174,38.64476 68.50764,38.64476 70.3649,39.959 z M62.09048,44.73624 L62.7695,45.07169 C64.55762,45.91356 67.77151,45.9136 69.55972,45.07175 L70.23889,44.73624 C72.44692,43.69612 72.44692,41.07187 70.23889,40.03175 C68.43736,38.75694 63.89202,38.75694 62.09048,40.03175 C61.12261,40.57519 60.38743,41.45621 60.40289,42.384 C60.38743,43.31178 61.12261,44.19279 62.09048,44.73624 z" stroke="Black" stroke-width="0" fill="#EEE3C3" fill-opacity="1"/>
  <path d="M62.09048,44.73624 C61.12261,44.19279 60.38743,43.31178 60.40289,42.384 C60.38743,41.45621 61.12261,40.57519 62.09048,40.03175 C63.89202,38.75694 68.43736,38.75694 70.23889,40.03175 C72.44692,41.07187 72.44692,43.69612 70.23889,44.73624 L69.55972,45.07175 C67.77151,45.9136 64.55762,45.91356 62.7695,45.07169 z" stroke="Black" stroke-width="0" fill="#FFE28A" fill-opacity="1"/>
  <path d="M66.75869,35.00543 L66.58487,34.76302 L65.96896,34.68163 L73.25245,27.45869 C73.57162,27.20928 74.04021,27.20928 74.22594,27.3407 L74.39992,27.5832 L66.80592,35.20411 z" stroke="Black" stroke-width="0" fill="#555555" fill-opacity="1"/>
  <path d="M73.80592,61.53313 L74.22594,61.77563 C74.04021,61.90705 73.57162,61.90705 73.38589,61.77563 z" stroke="Black" stroke-width="0" fill="#555555" fill-opacity="1"/>
  <path d="M66.75849,35.0143 L66.58455,35.24802 C66.39874,35.3794 65.93015,35.3793 65.74451,35.24784 L65.57069,35.00543 L65.74483,34.76284 L65.96896,34.68163 L66.58487,34.76302 z" stroke="Black" stroke-width="0" fill="#555555" fill-opacity="1"/>
  <path d="M66.80592,35.20411 L74.34837,27.72436 L74.39992,61.53313 L74.22592,61.77564 C74.03663,61.90742 73.57086,61.90631 73.38592,61.77565 L73.21192,61.53313 L73.21191,29.83676 L66.75869,36.23904 z" stroke="Black" stroke-width="0" fill="#777777" fill-opacity="1"/>
  <path d="M66.75869,36.23904 L66.75869,37.58917 L66.58455,37.83176 L66.16469,37.93212 L65.74451,37.83158 L65.57069,37.58917 L65.57079,35.0143 L65.74451,35.24784 C65.93015,35.3793 66.39874,35.3794 66.58455,35.24802 L66.75859,35.01431 z" stroke="Black" stroke-width="0" fill="#777777" fill-opacity="1"/>
  <path d="M62.23423,44.95531 L61.96447,44.80899 C60.96667,44.24874 60.20876,43.34047 60.22469,42.384" stroke="#000000" stroke-width="0.24" fill="none"/>
  <path d="M72.10469,42.384 C72.12062,43.34047 71.36271,44.24874 70.3649,44.80899 C68.59171,46.04322 64.21243,46.15626 62.23423,44.95531" stroke="#000000" stroke-width="0.24" fill="none"/>
  <path d="M65.57069,37.58917 L65.74451,37.83158 C65.93015,37.96304 66.39874,37.96315 66.58455,37.83176 L66.75869,37.58917" stroke="#000000" stroke-width="0.24" fill="none"/>
  <path d="M65.57069,35.00543 L65.57069,37.58917" stroke="#000000" stroke-width="0.24" fill="none"/>
  <path d="M66.75871,37.5892 L66.75871,36.23907" stroke="#000000" stroke-width="0.24" fill="none"/>
  <path d="M66.75871,35.2419 L66.75871,35.01433" stroke="#000000" stroke-width="0.24" fill="none"/>
  <path d="M65.96896,34.68163 L65.74483,34.76284 L65.57069,35.00543" stroke="#000000" stroke-width="0.24" fill="none"/>
  <path d="M65.46216,42.70589 L62.0905,40.75927" stroke="#000000" stroke-width="0.1" fill="none"/>
  <path d="M66.75869,35.00543 L66.58487,34.76302 L65.96896,34.68163" stroke="#000000" stroke-width="0.24" fill="none"/>
  <path d="M70.23892,40.75927 L66.86727,42.70589" stroke="#000000" stroke-width="0.1" fill="none"/>
  <path d="M69.55966,45.07159 L66.86727,43.51714" stroke="#000000" stroke-width="0.1" fill="none"/>
  <path d="M65.46216,43.51714 L62.76951,45.07174" stroke="#000000" stroke-width="0.1" fill="none"/>
  <path d="M72.10469,51.47988 C72.12062,52.43636 71.36271,53.34462 70.3649,53.90488 C68.50764,55.21911 63.82174,55.21911 61.96447,53.90488 C60.96667,53.34462 60.20876,52.43636 60.22469,51.47988" stroke="#000000" stroke-width="0.24" fill="none"/>
  <path d="M72.10469,45.41581 C72.1207,46.37234 71.36276,47.28067 70.3649,47.84095 C68.50764,49.15519 63.82174,49.15519 61.96447,47.84095 C60.96664,47.28069 60.20872,46.37239 60.22469,45.41589" stroke="#000000" stroke-width="0.24" fill="none"/>
  <path d="M72.10469,48.44769 C72.12074,49.40425 71.36279,50.31262 70.3649,50.87291 C68.50764,52.18715 63.82174,52.18715 61.96447,50.87291 C60.96661,50.31264 60.20868,49.4043 60.22469,48.44778" stroke="#000000" stroke-width="0.24" fill="none"/>
  <path d="M66.86724,42.70587 C66.55659,42.48604 65.77279,42.48604 65.46213,42.70587 C65.08138,42.88523 65.08138,43.33775 65.46213,43.51711 C65.77279,43.73694 66.55659,43.73694 66.86724,43.51711 C67.24799,43.33775 67.24799,42.88523 66.86724,42.70587 z" stroke="#000000" stroke-width="0.1" fill="none"/>
  <path d="M65.57069,35.00543 L65.74451,35.24784" stroke="#111111" stroke-width="0.24" fill="none"/>
  <path d="M60.22469,42.384 C60.20876,41.42752 60.96667,40.51925 61.96447,39.959 C63.82174,38.64476 68.50764,38.64476 70.3649,39.959" stroke="#111111" stroke-width="0.24" fill="none"/>
  <path d="M72.10469,54.51184 C72.12062,55.46832 71.36271,56.37659 70.3649,56.93684 C68.50764,58.25107 63.82174,58.25107 61.96447,56.93684" stroke="#111111" stroke-width="0.24" fill="none"/>
  <path d="M74.22594,61.77563 C74.04021,61.90705 73.57162,61.90705 73.38589,61.77563" stroke="#111111" stroke-width="0.24" fill="none"/>
  <path d="M61.96447,56.93684 C60.96667,56.37659 60.20876,55.46832 60.22469,54.51184" stroke="#111111" stroke-width="0.24" fill="none"/>
  <path d="M60.40289,42.384 C60.38743,43.31178 61.12261,44.19279 62.09048,44.73624" stroke="#111111" stroke-width="0.24" fill="none"/>
  <path d="M74.34839,27.72438 L66.80594,35.20414" stroke="#111111" stroke-width="0.24" fill="none"/>
  <path d="M73.24749,27.46631 L73.38589,27.3407 C73.57162,27.20928 74.04021,27.20928 74.22594,27.3407 L74.39992,27.5832" stroke="#111111" stroke-width="0.24" fill="none"/>
  <path d="M70.23889,40.03175 C68.43736,38.75694 63.89202,38.75694 62.09048,40.03175 C61.12261,40.57519 60.38743,41.45621 60.40289,42.384" stroke="#111111" stroke-width="0.24" fill="none"/>
  <path d="M70.23889,40.03175 C72.44692,41.07187 72.44692,43.69612 70.23889,44.73624 C68.43736,46.01104 63.89202,46.01104 62.09048,44.73624" stroke="#111111" stroke-width="0.24" fill="none"/>
  <path d="M60.22469,42.384 L60.22469,54.51184" stroke="#111111" stroke-width="0.24" fill="none"/>
  <path d="M72.10469,54.51184 L72.10469,42.384" stroke="#111111" stroke-width="0.24" fill="none"/>
  <path d="M74.22593,61.77563 L74.39992,61.53313" stroke="#111111" stroke-width="0.24" fill="none"/>
  <path d="M73.38592,61.77565 C73.57086,61.90631 74.03663,61.90742 74.22356,61.777 L74.39994,27.58323" stroke="#111111" stroke-width="0.24" fill="none"/>
  <path d="M65.74451,35.24784 C65.93015,35.3793 66.39874,35.3794 66.58455,35.24802 L66.75869,35.00543" stroke="#111111" stroke-width="0.24" fill="none"/>
  <path d="M65.96899,34.68166 L73.25483,27.45638" stroke="#111111" stroke-width="0.24" fill="none"/>
  <path d="M73.21194,29.83634 L73.21194,61.53316 L73.21193,61.53313" stroke="#111111" stroke-width="0.24" fill="none"/>
  <path d="M70.3649,39.959 C71.36271,40.51925 72.12062,41.42752 72.10469,42.384" stroke="#111111" stroke-width="0.24" fill="none"/>
  <path d="M70.3649,39.959 C68.50764,38.64476 63.82174,38.64476 61.96447,39.959 C60.96667,40.51925 60.20876,41.42752 60.22469,42.384 L60.22469,54.51184 C60.20876,55.46832 60.96667,56.37659 61.96447,56.93684 C63.82174,58.25107 68.50764,58.25107 70.3649,56.93684 C71.36271,56.37659 72.12062,55.46832 72.10469,54.51184 L72.10469,42.384 C72.12062,41.42752 71.36271,40.51925 70.3649,39.959 z" stroke="#000000" stroke-width="0.24" fill="none"/>
  <path d="M74.39992,27.5832 L74.22594,27.3407 C74.04021,27.20928 73.57162,27.20928 73.38589,27.3407" stroke="#000000" stroke-width="0.24" fill="none"/>
  <path d="M66.16471,37.93214 L66.16471,43.11152" stroke="#000000" stroke-width="0.1" fill="none"/>
  <path d="M74.26778,28.78928 L66.75871,36.23907" stroke="#000000" stroke-width="0.24" fill="none"/>
  <path d="M74.39994,61.3911 L74.39994,27.58323" stroke="#000000" stroke-width="0.24" fill="none"/>
  <path d="M73.25247,27.45872 L65.96899,34.68166" stroke="#000000" stroke-width="0.24" fill="none"/>
  <path d="M66.75871,36.23907 L73.21194,29.83678 L73.21194,61.3911" stroke="#000000" stroke-width="0.24" fill="none"/>
</svg>