<?xml version="1.0" encoding="utf-8" standalone="no"?><!DOCTYPE svg PUBLIC "-//W3C//DTD SVG 1.1//EN" "http://www.w3.org/Graphics/SVG/1.1/DTD/svg11.dtd"><svg xmlns="http://www.w3.org/2000/svg" version="1.1" width="120pt" height="120pt" viewBox="0 0 120 120" overflow="visible">
  <path d="M70.47459,77.71185 L70.47459,78.29384 L64.68426,74.95079 L64.68426,74.36879 z" stroke="Black" stroke-width="0" fill="#BBBBBB" fill-opacity="1"/>
  <path d="M46.20329,64.28079 L46.20329,63.6988 L63.49626,73.6829 L63.49626,74.26489 z" stroke="Black" stroke-width="0" fill="#BBBBBB" fill-opacity="1"/>
  <path d="M63.49636,58.92702 L63.49626,59.47243 L46.20329,49.48833 L46.20329,48.90633 z" stroke="Black" stroke-width="0" fill="#BBBBBB" fill-opacity="1"/>
  <path d="M45.01529,63.01291 L45.01529,63.5949 L40.35903,60.90661 L40.35903,60.32462 z" stroke="Black" stroke-width="0" fill="#BBBBBB" fill-opacity="1"/>
  <path d="M45.01539,48.25702 L45.01529,48.80243 L40.35903,46.11414 L40.35903,45.53215 z" stroke="Black" stroke-width="0" fill="#BBBBBB" fill-opacity="1"/>
  <path d="M64.68426,60.15832 L64.68429,59.57635 L70.47459,62.91937 L70.47459,63.50137 z" stroke="Black" stroke-width="0" fill="#BBBBBB" fill-opacity="1"/>
  <path d="M70.47459,77.71185 L80.13509,72.13435 L80.13509,72.71635 L70.47459,78.29384 z" stroke="Black" stroke-width="0" fill="#CCCCCC" fill-opacity="1"/>
  <path d="M70.47459,63.50137 L70.47459,62.91937 L80.13509,57.34188 L80.13509,57.92389 z" stroke="Black" stroke-width="0" fill="#CCCCCC" fill-opacity="1"/>
  <path d="M64.68426,74.36879 L64.68426,63.21381 L80.13509,72.13435 L70.47459,77.71185 z" stroke="Black" stroke-width="0" fill="#EEEEEE" fill-opacity="1"/>
  <path d="M63.49626,62.52792 L63.49626,73.6829 L46.20329,63.6988 L46.20329,56.95043 L50.01952,54.74713 z" stroke="Black" stroke-width="0" fill="#EEEEEE" fill-opacity="1"/>
  <path d="M46.20329,48.90633 L46.20319,48.25702 L46.02931,48.00565 C45.84358,47.87423 45.37499,47.87423 45.18927,48.00565 L45.01709,48.22147 L40.35903,45.53215 L50.01952,39.95466 L80.13509,57.34188 L70.47459,62.91937 L64.68429,59.57635 L64.68416,58.92702 L64.51028,58.67564 C64.32455,58.54422 63.85596,58.54422 63.67023,58.67564 L63.49806,58.89147 z" stroke="Black" stroke-width="0" fill="#EEEEEE" fill-opacity="1"/>
  <path d="M40.35903,60.32462 L45.01529,57.63633 L45.01529,63.01291 z" stroke="Black" stroke-width="0" fill="#EEEEEE" fill-opacity="1"/>
  <path d="M65.07732,75.17772 L64.68427,75.4046 L64.68426,74.95079 z" stroke="Black" stroke-width="0" fill="#555555" fill-opacity="1"/>
  <path d="M55.80984,42.01591 L55.98382,41.77341 C56.16954,41.64199 56.63813,41.64199 56.82386,41.77341 L56.99784,42.01591 L56.82386,42.25841 C56.63813,42.38984 56.16954,42.38984 55.98382,42.25841 z" stroke="Black" stroke-width="0" fill="#555555" fill-opacity="1"/>
  <path d="M45.01709,48.22147 L45.18927,48.00565 C45.37499,47.87423 45.84358,47.87423 46.02931,48.00565 L46.20329,48.24815 L46.02931,48.49065 C45.84358,48.62207 45.37499,48.62207 45.18927,48.49065 z" stroke="Black" stroke-width="0" fill="#555555" fill-opacity="1"/>
  <path d="M46.20329,49.48833 L46.59635,49.71526 L46.20329,49.9422 z" stroke="Black" stroke-width="0" fill="#555555" fill-opacity="1"/>
  <path d="M46.20329,64.73466 L46.20329,64.28079 L46.59635,64.50773 z" stroke="Black" stroke-width="0" fill="#555555" fill-opacity="1"/>
  <path d="M64.68426,60.15832 L65.07732,60.38525 L64.68426,60.61219 z" stroke="Black" stroke-width="0" fill="#555555" fill-opacity="1"/>
  <path d="M74.29081,52.6859 L74.46478,52.44341 C74.65051,52.31198 75.1191,52.31198 75.30483,52.44341 L75.47881,52.6859 L75.30483,52.9284 C75.1191,53.05983 74.65051,53.05983 74.46478,52.9284 z" stroke="Black" stroke-width="0" fill="#555555" fill-opacity="1"/>
  <path d="M63.49805,58.89147 L63.67023,58.67564 C63.85596,58.54422 64.32455,58.54422 64.51028,58.67564 L64.68426,58.91814 L64.51028,59.16064 C64.32455,59.29206 63.85596,59.29206 63.67023,59.16064 z" stroke="Black" stroke-width="0" fill="#555555" fill-opacity="1"/>
  <path d="M64.68427,75.4046 L65.07732,75.17772 L65.91737,75.66272 L64.68426,76.37466 L64.68426,79.38509 L64.51028,79.62759 C64.32455,79.75902 63.85596,79.75902 63.67023,79.62759 L63.49626,79.38509 L63.49636,58.92701 L63.67023,59.16064 C63.85596,59.29206 64.32455,59.29206 64.51028,59.16064 L64.68416,58.92701 L64.68426,60.61219 L65.07732,60.38525 L65.91737,60.87025 L64.68426,61.58219 z" stroke="Black" stroke-width="0" fill="#777777" fill-opacity="1"/>
  <path d="M45.01538,48.25702 L45.18927,48.49065 C45.37499,48.62207 45.84358,48.62207 46.02931,48.49065 L46.20319,48.25702 L46.20329,49.9422 L46.59635,49.71526 L47.43639,50.20026 L46.20329,50.91219 L46.20329,64.73466 L46.59635,64.50773 L47.43639,64.99273 L46.20329,65.70467 L46.20329,68.7151 L46.02931,68.9576 C45.84358,69.08903 45.37499,69.08903 45.18927,68.9576 L45.01529,68.7151 z" stroke="Black" stroke-width="0" fill="#777777" fill-opacity="1"/>
  <path d="M55.80984,58.09016 L55.80984,55.03467 L56.99784,55.72056 L56.99784,58.77606 z" stroke="Black" stroke-width="0" fill="#777777" fill-opacity="1"/>
  <path d="M56.82386,42.25841 L56.99774,42.02479 L56.99784,43.98359 L55.80984,43.2977 L55.80994,42.02478 L55.98382,42.25841 C56.16954,42.38984 56.63813,42.38984 56.82386,42.25841 z" stroke="Black" stroke-width="0" fill="#777777" fill-opacity="1"/>
  <path d="M74.29079,68.76012 L74.29081,61.29808 L75.47881,60.61219 L75.47881,69.44605 z" stroke="Black" stroke-width="0" fill="#777777" fill-opacity="1"/>
  <path d="M75.47871,52.69478 L75.47881,54.65358 L74.29081,53.96769 L74.29091,52.69478 L74.46478,52.9284 C74.65051,53.05983 75.1191,53.05983 75.30483,52.9284 z" stroke="Black" stroke-width="0" fill="#777777" fill-opacity="1"/>
  <path d="M46.02933,64.83514 L46.59656,64.50764" stroke="#111111" stroke-width="0.24" fill="none"/>
  <path d="M46.02933,65.80514 L47.4365,64.99271" stroke="#111111" stroke-width="0.24" fill="none"/>
  <path d="M74.46478,52.44341 L74.29081,52.6859" stroke="#111111" stroke-width="0.24" fill="none"/>
  <path d="M75.47883,52.68593 L75.47883,54.6536" stroke="#111111" stroke-width="0.24" fill="none"/>
  <path d="M75.47881,52.6859 L75.30483,52.44341 C75.1191,52.31198 74.65051,52.31198 74.46478,52.44341 L74.46478,52.9284 C74.65051,53.05983 75.1191,53.05983 75.30483,52.9284 z" stroke="#111111" stroke-width="0.24" fill="none"/>
  <path d="M80.13512,72.71638 L80.13512,72.13438" stroke="#111111" stroke-width="0.24" fill="none"/>
  <path d="M80.13512,72.71638 L70.47462,78.29386 L70.47462,77.71187" stroke="#111111" stroke-width="0.24" fill="none"/>
  <path d="M80.13512,72.13438 L70.47462,77.71187" stroke="#111111" stroke-width="0.24" fill="none"/>
  <path d="M74.29083,68.76013 L74.29083,61.29811" stroke="#111111" stroke-width="0.24" fill="none"/>
  <path d="M70.47462,63.5014 L70.47462,62.9194" stroke="#111111" stroke-width="0.24" fill="none"/>
  <path d="M75.47883,60.61221 L75.47883,69.44608" stroke="#111111" stroke-width="0.24" fill="none"/>
  <path d="M80.13512,57.34191 L70.47462,62.9194" stroke="#111111" stroke-width="0.24" fill="none"/>
  <path d="M63.49626,79.38509 L63.67023,79.62759 C63.85596,79.75902 64.32455,79.75902 64.51028,79.62759 L64.68426,79.38509" stroke="#111111" stroke-width="0.24" fill="none"/>
  <path d="M64.68428,76.37468 L64.68428,79.38512" stroke="#111111" stroke-width="0.24" fill="none"/>
  <path d="M63.49626,58.91814 L63.67023,59.16064 C63.85596,59.29206 64.32455,59.29206 64.51028,59.16064 L64.68426,58.91814" stroke="#111111" stroke-width="0.24" fill="none"/>
  <path d="M50.01955,54.74715 L63.4963,62.52795" stroke="#111111" stroke-width="0.24" fill="none"/>
  <path d="M64.68428,63.21384 L80.13512,72.13438" stroke="#111111" stroke-width="0.24" fill="none"/>
  <path d="M70.47462,78.29386 L64.68428,74.95081" stroke="#111111" stroke-width="0.24" fill="none"/>
  <path d="M63.49628,74.26492 L46.20331,64.28082" stroke="#111111" stroke-width="0.24" fill="none"/>
  <path d="M80.13512,57.92391 L70.47462,63.5014 L64.68428,60.15834" stroke="#111111" stroke-width="0.24" fill="none"/>
  <path d="M63.49628,59.47245 L46.20331,49.48835" stroke="#111111" stroke-width="0.24" fill="none"/>
  <path d="M70.47462,62.9194 L64.68434,59.57638" stroke="#111111" stroke-width="0.24" fill="none"/>
  <path d="M63.49809,58.89149 L46.20331,48.90635" stroke="#111111" stroke-width="0.24" fill="none"/>
  <path d="M65.0775,75.17766 L64.5103,75.50513" stroke="#111111" stroke-width="0.24" fill="none"/>
  <path d="M65.91743,75.66271 L64.5103,76.47513" stroke="#111111" stroke-width="0.24" fill="none"/>
  <path d="M63.67023,58.67564 L63.49626,58.91814" stroke="#111111" stroke-width="0.24" fill="none"/>
  <path d="M65.07755,60.38516 L64.5103,60.71266" stroke="#111111" stroke-width="0.24" fill="none"/>
  <path d="M65.91749,60.87022 L64.5103,61.68266" stroke="#111111" stroke-width="0.24" fill="none"/>
  <path d="M50.01955,39.95468 L80.13512,57.34191" stroke="#111111" stroke-width="0.24" fill="none"/>
  <path d="M63.49628,73.68292 L46.20331,63.69882" stroke="#111111" stroke-width="0.24" fill="none"/>
  <path d="M70.47462,77.71187 L64.68428,74.36881" stroke="#111111" stroke-width="0.24" fill="none"/>
  <path d="M74.29081,53.96769 L74.29081,52.6859" stroke="#111111" stroke-width="0.24" fill="none"/>
  <path d="M80.13512,57.92391 L80.13512,57.34191" stroke="#111111" stroke-width="0.24" fill="none"/>
  <path d="M40.35905,60.32464 L45.01538,57.63631" stroke="#111111" stroke-width="0.24" fill="none"/>
  <path d="M40.35905,60.90664 L40.35905,60.32464" stroke="#111111" stroke-width="0.24" fill="none"/>
  <path d="M40.35905,45.53217 L50.01955,39.95468" stroke="#111111" stroke-width="0.24" fill="none"/>
  <path d="M40.35905,46.11417 L40.35905,45.53217" stroke="#111111" stroke-width="0.24" fill="none"/>
  <path d="M46.02931,68.9576 L46.20329,68.7151" stroke="#111111" stroke-width="0.24" fill="none"/>
  <path d="M45.01529,68.7151 L45.18927,68.9576 C45.37499,69.08903 45.84358,69.08903 46.02931,68.9576" stroke="#111111" stroke-width="0.24" fill="none"/>
  <path d="M46.02931,48.49065 L46.20329,48.24815" stroke="#111111" stroke-width="0.24" fill="none"/>
  <path d="M45.01531,48.80246 L40.35905,46.11417" stroke="#111111" stroke-width="0.24" fill="none"/>
  <path d="M45.01711,48.2215 L40.35905,45.53217" stroke="#111111" stroke-width="0.24" fill="none"/>
  <path d="M45.01529,48.24815 L45.18927,48.49065 C45.37499,48.62207 45.84358,48.62207 46.02931,48.49065" stroke="#111111" stroke-width="0.24" fill="none"/>
  <path d="M46.20332,56.95045 L50.01955,54.74715" stroke="#111111" stroke-width="0.24" fill="none"/>
  <path d="M45.01531,63.59492 L40.35905,60.90664" stroke="#111111" stroke-width="0.24" fill="none"/>
  <path d="M45.01531,63.01293 L40.35905,60.32464" stroke="#111111" stroke-width="0.24" fill="none"/>
  <path d="M56.99784,42.01591 L56.99784,43.98359" stroke="#111111" stroke-width="0.24" fill="none"/>
  <path d="M56.99784,42.01591 L56.82386,41.77341 C56.63813,41.64199 56.16954,41.64199 55.98382,41.77341 L55.80984,42.01591" stroke="#111111" stroke-width="0.24" fill="none"/>
  <path d="M56.82386,42.25841 L56.99784,42.01591" stroke="#111111" stroke-width="0.24" fill="none"/>
  <path d="M55.80984,42.01591 L55.98382,42.25841 C56.16954,42.38984 56.63813,42.38984 56.82386,42.25841" stroke="#111111" stroke-width="0.24" fill="none"/>
  <path d="M46.20329,65.70458 L46.20329,68.7151" stroke="#111111" stroke-width="0.24" fill="none"/>
  <path d="M55.80984,58.09016 L55.80984,55.03467" stroke="#111111" stroke-width="0.24" fill="none"/>
  <path d="M56.99784,55.72031 L56.99784,58.77606" stroke="#111111" stroke-width="0.24" fill="none"/>
  <path d="M55.80984,43.2977 L55.80984,42.01591" stroke="#111111" stroke-width="0.24" fill="none"/>
  <path d="M45.01529,68.7151 L45.01529,48.24815" stroke="#111111" stroke-width="0.24" fill="none"/>
  <path d="M46.20329,48.24815 L46.20329,49.9422" stroke="#111111" stroke-width="0.24" fill="none"/>
  <path d="M46.20329,50.91219 L46.20329,64.73466" stroke="#111111" stroke-width="0.24" fill="none"/>
  <path d="M46.02933,50.04267 L46.59661,49.71515" stroke="#111111" stroke-width="0.24" fill="none"/>
  <path d="M46.02933,51.01266 L47.43655,50.20021" stroke="#111111" stroke-width="0.24" fill="none"/>
  <path d="M46.20329,48.24815 L46.02931,48.00565 C45.84358,47.87423 45.37499,47.87423 45.18927,48.00565 L45.01529,48.24815" stroke="#000000" stroke-width="0.24" fill="none"/>
  <path d="M70.47459,78.29384 L80.13509,72.71635 L80.13509,72.13435 L75.47881,69.44605 L75.47881,60.61219 L80.13509,57.92389 L80.13509,57.34188 L75.47881,54.65358 L75.47871,52.69478 L75.30483,52.44341 C75.1191,52.31198 74.65051,52.31198 74.46478,52.44341 L74.29081,52.6859 L74.29081,53.96769 L56.99784,43.98359 L56.99774,42.02479 L56.82386,41.77341 C56.63813,41.64199 56.16954,41.64199 55.98382,41.77341 L55.80984,42.01591 L55.80984,43.2977 L50.01952,39.95466 L40.35903,45.53215 L40.35903,46.11414 L45.01529,48.80243 L45.01529,57.63633 L40.35903,60.32462 L40.35903,60.90661 L45.01529,63.5949 L45.01529,68.7151 L45.18927,68.9576 C45.37499,69.08903 45.84358,69.08903 46.02931,68.9576 L46.20329,68.7151 L46.20329,65.70467 L47.43639,64.99273 L63.49626,74.26489 L63.49626,79.38509 L63.67023,79.62759 C63.85596,79.75902 64.32455,79.75902 64.51028,79.62759 L64.68426,79.38509 L64.68426,76.37466 L65.91737,75.66272 z" stroke="#000000" stroke-width="0.24" fill="none"/>
  <path d="M64.68426,58.91814 L64.51028,58.67564 C64.32455,58.54422 63.85596,58.54422 63.67023,58.67564" stroke="#000000" stroke-width="0.24" fill="none"/>
  <path d="M46.20331,50.91222 L47.43642,50.20028 L55.80986,55.03469 L55.80986,58.09019 L50.01955,54.74715 L46.20332,56.95045 z" stroke="#000000" stroke-width="0.24" fill="none"/>
  <path d="M70.47462,63.5014 L74.29083,61.29811 L74.29082,68.76015 L64.68428,63.21384 L64.68428,61.58221 L65.91739,60.87028 z" stroke="#000000" stroke-width="0.24" fill="none"/>
  <path d="M56.99786,58.77608 L56.99786,55.72058 L63.49628,59.47245 L63.49628,62.52794 z" stroke="#000000" stroke-width="0.24" fill="none"/>
  <path d="M63.49628,79.38512 L63.49628,58.91816" stroke="#000000" stroke-width="0.24" fill="none"/>
  <path d="M64.68428,61.58208 L64.68428,75.40459" stroke="#000000" stroke-width="0.24" fill="none"/>
  <path d="M64.68428,58.91816 L64.68428,60.61221" stroke="#000000" stroke-width="0.24" fill="none"/>
</svg>