<?xml version="1.0" encoding="utf-8" standalone="no"?><!DOCTYPE svg PUBLIC "-//W3C//DTD SVG 1.1//EN" "http://www.w3.org/Graphics/SVG/1.1/DTD/svg11.dtd"><svg xmlns="http://www.w3.org/2000/svg" version="1.1" width="120pt" height="120pt" viewBox="0 0 120 120" overflow="visible">
  <path d="M56.26195,60.28419 L73.55662,50.29915 L73.55666,50.8811 L56.26374,60.86516 z" stroke="Black" stroke-width="0" fill="#BBBBBB" fill-opacity="1"/>
  <path d="M79.40097,47.50687 L74.74469,50.19518 L74.74469,49.64086 L79.40097,46.92487 z" stroke="Black" stroke-width="0" fill="#BBBBBB" fill-opacity="1"/>
  <path d="M55.07574,61.55105 L49.28543,64.89409 L49.28543,64.31209 L55.07574,60.96905 z" stroke="Black" stroke-width="0" fill="#BBBBBB" fill-opacity="1"/>
  <path d="M39.62494,59.3166 L39.62494,58.7346 L49.28543,64.31209 L49.28543,64.89409 z" stroke="Black" stroke-width="0" fill="#CCCCCC" fill-opacity="1"/>
  <path d="M56.26195,60.28419 L56.08976,60.06834 C55.90404,59.93692 55.43545,59.93692 55.24972,60.06834 L55.07574,60.31084 L55.07574,60.96905 L49.28543,64.31209 L39.62494,58.7346 L69.74047,41.34739 L79.40097,46.92487 L74.74289,49.61422 L74.57071,49.39836 C74.38498,49.26694 73.91639,49.26694 73.73067,49.39836 L73.55669,49.64086 L73.55662,50.29915 z" stroke="Black" stroke-width="0" fill="#EEEEEE" fill-opacity="1"/>
  <path d="M63.95006,43.41751 L63.77618,43.65114 C63.59046,43.78256 63.12187,43.78256 62.93614,43.65114 L62.76236,43.41751 L62.93614,43.16614 C63.12187,43.03472 63.59046,43.03472 63.77618,43.16614 z" stroke="Black" stroke-width="0" fill="#555555" fill-opacity="1"/>
  <path d="M55.07574,61.55105 L55.07574,62.00489 L54.6827,61.77797 z" stroke="Black" stroke-width="0" fill="#555555" fill-opacity="1"/>
  <path d="M55.07574,60.31084 L55.24972,60.06834 C55.43545,59.93692 55.90404,59.93692 56.08976,60.06834 L56.26195,60.28419 L56.08976,60.55334 C55.90404,60.68476 55.43545,60.68476 55.24972,60.55334 z" stroke="Black" stroke-width="0" fill="#555555" fill-opacity="1"/>
  <path d="M73.55669,49.64086 L73.73067,49.39836 C73.91639,49.26694 74.38498,49.26694 74.57071,49.39836 L74.7429,49.61425 L74.57071,49.88336 C74.38498,50.01479 73.91639,50.01479 73.73067,49.88336 z" stroke="Black" stroke-width="0" fill="#555555" fill-opacity="1"/>
  <path d="M45.46912,54.08749 L45.29524,54.32112 C45.10952,54.45254 44.64092,54.45254 44.4552,54.32112 L44.28142,54.08749 L44.4552,53.83612 C44.64092,53.70469 45.10952,53.70469 45.29524,53.83612 z" stroke="Black" stroke-width="0" fill="#555555" fill-opacity="1"/>
  <path d="M73.55666,50.8811 L73.55669,51.33491 L73.16365,51.10799 z" stroke="Black" stroke-width="0" fill="#555555" fill-opacity="1"/>
  <path d="M62.76216,45.37632 L62.76231,43.41751 L62.93614,43.65114 C63.12187,43.78256 63.59046,43.78256 63.77618,43.65114 L63.95006,43.41751 L63.95019,44.69034 z" stroke="Black" stroke-width="0" fill="#777777" fill-opacity="1"/>
  <path d="M62.76216,57.11329 L63.95016,56.4274 L63.95016,58.05561 L63.77618,58.29811 C63.59046,58.42953 63.12187,58.42953 62.93614,58.29811 L62.76216,58.05561 z" stroke="Black" stroke-width="0" fill="#777777" fill-opacity="1"/>
  <path d="M45.46922,55.3604 L44.28127,56.04623 L44.28137,54.08749 L44.4552,54.32112 C44.64092,54.45254 45.10952,54.45254 45.29524,54.32112 L45.46912,54.08749 z" stroke="Black" stroke-width="0" fill="#777777" fill-opacity="1"/>
  <path d="M45.46922,62.6908 L45.46922,68.72559 L45.29524,68.96809 C45.10952,69.09951 44.64092,69.09951 44.4552,68.96809 L44.28122,68.72559 L44.28122,62.00491 z" stroke="Black" stroke-width="0" fill="#777777" fill-opacity="1"/>
  <path d="M55.07574,62.97489 L53.84266,62.26297 L54.6827,61.77797 L55.07574,62.00489 L55.07584,60.31971 L55.24972,60.55334 C55.43545,60.68476 55.90404,60.68476 56.08976,60.55334 L56.26365,60.31971 L56.26374,74.95781 L56.08976,75.20031 C55.90404,75.33173 55.43545,75.33173 55.24972,75.20031 L55.07574,74.95781 z" stroke="Black" stroke-width="0" fill="#777777" fill-opacity="1"/>
  <path d="M73.55669,52.30491 L72.32361,51.59299 L73.16365,51.10799 L73.55669,51.33491 L73.55679,49.64973 L73.73067,49.88336 C73.91639,50.01479 74.38498,50.01479 74.57071,49.88336 L74.74458,49.64973 L74.74469,64.28783 L74.57071,64.53033 C74.38498,64.66175 73.91639,64.66175 73.73067,64.53033 L73.55669,64.28783 z" stroke="Black" stroke-width="0" fill="#777777" fill-opacity="1"/>
  <path d="M45.46924,54.07864 L45.46925,55.36042" stroke="#000000" stroke-width="0.24" fill="none"/>
  <path d="M44.4552,53.83612 C44.64092,53.70469 45.10952,53.70469 45.29524,53.83612" stroke="#000000" stroke-width="0.24" fill="none"/>
  <path d="M44.28122,54.07862 L44.4552,53.83612" stroke="#000000" stroke-width="0.24" fill="none"/>
  <path d="M74.74471,50.1952 L79.40099,47.5069" stroke="#000000" stroke-width="0.24" fill="none"/>
  <path d="M63.95021,44.69037 L69.7405,41.34741" stroke="#000000" stroke-width="0.24" fill="none"/>
  <path d="M44.28127,56.04623 L44.28134,54.08752" stroke="#000000" stroke-width="0.24" fill="none"/>
  <path d="M39.62496,58.73462 L44.28127,56.04623" stroke="#000000" stroke-width="0.24" fill="none"/>
  <path d="M39.62496,59.31662 L39.62496,58.73462" stroke="#000000" stroke-width="0.24" fill="none"/>
  <path d="M55.07574,60.31084 L55.24972,60.06834 C55.43545,59.93692 55.90404,59.93692 56.08976,60.06834" stroke="#000000" stroke-width="0.24" fill="none"/>
  <path d="M63.95019,43.40866 L63.95021,44.69037" stroke="#000000" stroke-width="0.24" fill="none"/>
  <path d="M74.74471,64.28786 L74.74471,49.64088" stroke="#000000" stroke-width="0.24" fill="none"/>
  <path d="M73.55669,49.64086 L73.55669,51.33491" stroke="#000000" stroke-width="0.24" fill="none"/>
  <path d="M63.77618,43.16614 L63.95016,43.40864" stroke="#000000" stroke-width="0.24" fill="none"/>
  <path d="M62.93614,43.16614 C63.12187,43.03472 63.59046,43.03472 63.77618,43.16614" stroke="#000000" stroke-width="0.24" fill="none"/>
  <path d="M62.76219,57.11332 L56.26377,60.86518" stroke="#000000" stroke-width="0.24" fill="none"/>
  <path d="M73.55669,49.64086 L73.73067,49.39836 C73.91639,49.26694 74.38498,49.26694 74.57071,49.39836 L74.74469,49.64086" stroke="#000000" stroke-width="0.24" fill="none"/>
  <path d="M56.26374,74.95781 L56.26374,60.31084" stroke="#000000" stroke-width="0.24" fill="none"/>
  <path d="M62.76216,43.40864 L62.93614,43.16614" stroke="#000000" stroke-width="0.24" fill="none"/>
  <path d="M73.73071,52.4054 L72.32348,51.59293" stroke="#000000" stroke-width="0.24" fill="none"/>
  <path d="M39.62496,59.31662 L49.28545,64.89411 L55.07577,61.55107" stroke="#000000" stroke-width="0.24" fill="none"/>
  <path d="M53.84269,62.26299 L55.24977,63.07537" stroke="#000000" stroke-width="0.24" fill="none"/>
  <path d="M63.95019,56.42743 L63.95019,58.05563" stroke="#000000" stroke-width="0.24" fill="none"/>
  <path d="M56.26369,60.86522 L73.55666,50.88113" stroke="#000000" stroke-width="0.24" fill="none"/>
  <path d="M45.46925,55.36042 L62.76218,45.37634" stroke="#000000" stroke-width="0.24" fill="none"/>
  <path d="M72.32363,51.59301 L63.95019,56.42743" stroke="#000000" stroke-width="0.24" fill="none"/>
  <path d="M69.7405,41.34741 L39.62496,58.73462" stroke="#000000" stroke-width="0.24" fill="none"/>
  <path d="M62.76219,45.37634 L62.76229,43.41754" stroke="#000000" stroke-width="0.24" fill="none"/>
  <path d="M73.55671,52.30493 L72.32363,51.59301" stroke="#000000" stroke-width="0.24" fill="none"/>
  <path d="M55.07574,60.31084 L55.07574,62.00489" stroke="#000000" stroke-width="0.24" fill="none"/>
  <path d="M73.55671,64.28786 L73.55671,52.30493" stroke="#000000" stroke-width="0.24" fill="none"/>
  <path d="M44.28124,62.00493 L39.62496,59.31662" stroke="#000000" stroke-width="0.24" fill="none"/>
  <path d="M56.08976,60.06834 L56.26374,60.31084" stroke="#000000" stroke-width="0.24" fill="none"/>
  <path d="M44.28124,68.72561 L44.28124,62.00493" stroke="#000000" stroke-width="0.24" fill="none"/>
  <path d="M45.46924,62.69082 L45.46924,68.72561" stroke="#000000" stroke-width="0.24" fill="none"/>
  <path d="M49.28545,64.89411 L45.46924,62.69082" stroke="#000000" stroke-width="0.24" fill="none"/>
  <path d="M79.40099,46.9249 L69.7405,41.34741" stroke="#000000" stroke-width="0.24" fill="none"/>
  <path d="M53.84269,62.26299 L49.28545,64.89411" stroke="#000000" stroke-width="0.24" fill="none"/>
  <path d="M55.07577,62.97491 L53.84269,62.26299" stroke="#000000" stroke-width="0.24" fill="none"/>
  <path d="M74.74471,50.1952 L74.74471,64.28786" stroke="#000000" stroke-width="0.24" fill="none"/>
  <path d="M55.07577,74.95783 L55.07577,62.97491" stroke="#000000" stroke-width="0.24" fill="none"/>
  <path d="M56.26377,60.86518 L56.26377,74.95783" stroke="#000000" stroke-width="0.24" fill="none"/>
  <path d="M79.40099,46.9249 L79.40099,47.5069" stroke="#000000" stroke-width="0.24" fill="none"/>
  <path d="M73.73071,51.4354 L73.16342,51.10787" stroke="#111111" stroke-width="0.24" fill="none"/>
  <path d="M56.26374,74.95781 L56.08976,75.20031 C55.90404,75.33173 55.43545,75.33173 55.24972,75.20031 L55.07574,74.95781" stroke="#111111" stroke-width="0.24" fill="none"/>
  <path d="M45.46922,68.72559 L45.29524,68.96809 C45.10952,69.09951 44.64092,69.09951 44.4552,68.96809 L44.28122,68.72559" stroke="#111111" stroke-width="0.24" fill="none"/>
  <path d="M62.93614,58.29811 L62.76216,58.05561" stroke="#111111" stroke-width="0.24" fill="none"/>
  <path d="M63.95016,58.05561 L63.77618,58.29811 C63.59046,58.42953 63.12187,58.42953 62.93614,58.29811" stroke="#111111" stroke-width="0.24" fill="none"/>
  <path d="M54.6825,61.77786 L55.24977,62.10537" stroke="#111111" stroke-width="0.24" fill="none"/>
  <path d="M73.73067,49.88336 L73.55669,49.64086" stroke="#111111" stroke-width="0.24" fill="none"/>
  <path d="M62.76219,43.40866 L62.76219,45.37634" stroke="#111111" stroke-width="0.24" fill="none"/>
  <path d="M62.76216,43.40864 L62.93614,43.16614 C63.12187,43.03472 63.59046,43.03472 63.77618,43.16614 L63.95016,43.40864" stroke="#111111" stroke-width="0.24" fill="none"/>
  <path d="M62.93614,43.65114 L62.76216,43.40864" stroke="#111111" stroke-width="0.24" fill="none"/>
  <path d="M63.95016,43.40864 L63.77618,43.65114 C63.59046,43.78256 63.12187,43.78256 62.93614,43.65114" stroke="#111111" stroke-width="0.24" fill="none"/>
  <path d="M49.28545,64.31211 L55.07577,60.96907" stroke="#111111" stroke-width="0.24" fill="none"/>
  <path d="M62.76219,57.11332 L62.76219,58.05563" stroke="#111111" stroke-width="0.24" fill="none"/>
  <path d="M74.74469,49.64086 L74.57071,49.88336 C74.38498,50.01479 73.91639,50.01479 73.73067,49.88336" stroke="#111111" stroke-width="0.24" fill="none"/>
  <path d="M56.26197,60.28422 L73.55657,50.29918" stroke="#111111" stroke-width="0.24" fill="none"/>
  <path d="M73.73067,64.53033 L73.55669,64.28783" stroke="#111111" stroke-width="0.24" fill="none"/>
  <path d="M45.46922,68.72559 L45.46922,62.6908" stroke="#111111" stroke-width="0.24" fill="none"/>
  <path d="M44.28122,54.07862 L44.28122,56.04615" stroke="#111111" stroke-width="0.24" fill="none"/>
  <path d="M44.28122,54.07862 L44.4552,53.83612 C44.64092,53.70469 45.10952,53.70469 45.29524,53.83612 L45.29524,54.32112 C45.10952,54.45254 44.64092,54.45254 44.4552,54.32112 z" stroke="#111111" stroke-width="0.24" fill="none"/>
  <path d="M49.28545,64.89411 L49.28545,64.31211" stroke="#111111" stroke-width="0.24" fill="none"/>
  <path d="M45.29524,53.83612 L45.46922,54.07862" stroke="#111111" stroke-width="0.24" fill="none"/>
  <path d="M73.55671,52.30476 L73.55671,64.28786" stroke="#111111" stroke-width="0.24" fill="none"/>
  <path d="M45.46922,55.3604 L45.46922,54.07862" stroke="#111111" stroke-width="0.24" fill="none"/>
  <path d="M44.28122,62.00491 L44.28122,68.72559" stroke="#111111" stroke-width="0.24" fill="none"/>
  <path d="M56.26374,60.31084 L56.08976,60.55334 C55.90404,60.68476 55.43545,60.68476 55.24972,60.55334 L55.07574,60.31084" stroke="#111111" stroke-width="0.24" fill="none"/>
  <path d="M74.74469,64.28783 L74.57071,64.53033 C74.38498,64.66175 73.91639,64.66175 73.73067,64.53033" stroke="#111111" stroke-width="0.24" fill="none"/>
  <path d="M39.62496,58.73462 L49.28545,64.31211" stroke="#111111" stroke-width="0.24" fill="none"/>
  <path d="M55.07574,62.97489 L55.07574,74.95781" stroke="#111111" stroke-width="0.24" fill="none"/>
  <path d="M74.74283,49.61429 L79.40099,46.9249" stroke="#111111" stroke-width="0.24" fill="none"/>
</svg>