<?xml version="1.0" encoding="utf-8" standalone="no"?>
<!DOCTYPE svg PUBLIC "-//W3C//DTD SVG 1.1//EN" "http://www.w3.org/Graphics/SVG/1.1/DTD/svg11.dtd">
<svg version="1.1" width="119.76pt" height="119.76pt" viewBox="0 0 119.76 119.76" overflow="visible" xmlns="http://www.w3.org/2000/svg">
  <path d="M45.01529,63.01291 L45.01529,63.5949 L44.49623,63.29521 L44.49623,62.71321 z" stroke="#000000" stroke-width="0" fill="#BBBBBB" fill-opacity="1" />
  <path d="M66.33736,75.32319 L66.33736,75.90519 L64.68426,74.95079 L64.68426,74.36879 z" stroke="#000000" stroke-width="0" fill="#BBBBBB" fill-opacity="1" />
  <path d="M64.68426,60.15832 L64.68429,59.57635 L66.33736,60.53074 L66.33736,61.11274 z" stroke="#000000" stroke-width="0" fill="#BBBBBB" fill-opacity="1" />
  <path d="M46.20329,64.28079 L46.20329,63.6988 L63.49626,73.6829 L63.49626,74.26489 z" stroke="#000000" stroke-width="0" fill="#BBBBBB" fill-opacity="1" />
  <path d="M63.49636,58.92702 L63.49626,59.47243 L46.20329,49.48833 L46.20329,48.90633 z" stroke="#000000" stroke-width="0" fill="#BBBBBB" fill-opacity="1" />
  <path d="M45.01539,48.25702 L45.01529,48.80243 L44.49623,48.50274 L44.49623,47.92075 z" stroke="#000000" stroke-width="0" fill="#BBBBBB" fill-opacity="1" />
  <path d="M66.33736,75.32319 L75.99784,69.74571 L75.99784,70.32771 L66.33736,75.90519 z" stroke="#000000" stroke-width="0" fill="#CCCCCC" fill-opacity="1" />
  <path d="M66.33736,61.11274 L66.33736,60.53074 L75.99784,54.95326 L75.99784,55.53526 z" stroke="#000000" stroke-width="0" fill="#CCCCCC" fill-opacity="1" />
  <path d="M46.20329,48.90633 L46.20319,48.25702 L46.02931,48.00565 C45.84358,47.87423 45.37499,47.87423 45.18927,48.00565 L45.01709,48.22147 L44.49623,47.92075 L54.15672,42.34327 L75.99784,54.95326 L66.33736,60.53074 L64.68429,59.57635 L64.68416,58.92702 L64.51028,58.67564 C64.32455,58.54422 63.85596,58.54422 63.67023,58.67564 L63.49806,58.89147 z" stroke="#000000" stroke-width="0" fill="#EEEEEE" fill-opacity="1" />
  <path d="M63.49626,62.52792 L63.49626,73.6829 L46.20329,63.6988 L46.20329,61.72766 L54.15672,57.13574 z" stroke="#000000" stroke-width="0" fill="#EEEEEE" fill-opacity="1" />
  <path d="M44.49623,62.71321 L45.01529,62.41353 L45.01529,63.01291 z" stroke="#000000" stroke-width="0" fill="#EEEEEE" fill-opacity="1" />
  <path d="M64.68426,74.36879 L64.68426,63.21381 L75.99784,69.74571 L66.33736,75.32319 z" stroke="#000000" stroke-width="0" fill="#EEEEEE" fill-opacity="1" />
  <path d="M64.68426,60.15832 L65.07732,60.38525 L64.68426,60.61219 z" stroke="#000000" stroke-width="0" fill="#555555" fill-opacity="1" />
  <path d="M63.49805,58.89147 L63.67023,58.67564 C63.85596,58.54422 64.32455,58.54422 64.51028,58.67564 L64.68426,58.91814 L64.51028,59.16064 C64.32455,59.29206 63.85596,59.29206 63.67023,59.16064 z" stroke="#000000" stroke-width="0" fill="#555555" fill-opacity="1" />
  <path d="M74.29081,52.6859 L74.46478,52.44341 C74.65051,52.31198 75.1191,52.31198 75.30483,52.44341 L75.47881,52.6859 L75.30483,52.9284 C75.1191,53.05983 74.65051,53.05983 74.46478,52.9284 z" stroke="#000000" stroke-width="0" fill="#555555" fill-opacity="1" />
  <path d="M65.07732,75.17772 L64.68427,75.4046 L64.68426,74.95079 z" stroke="#000000" stroke-width="0" fill="#555555" fill-opacity="1" />
  <path d="M55.80984,42.01591 L55.98382,41.77341 C56.16954,41.64199 56.63813,41.64199 56.82386,41.77341 L56.99784,42.01591 L56.82386,42.25841 C56.63813,42.38984 56.16954,42.38984 55.98382,42.25841 z" stroke="#000000" stroke-width="0" fill="#555555" fill-opacity="1" />
  <path d="M46.20329,49.48833 L46.59635,49.71526 L46.20329,49.9422 z" stroke="#000000" stroke-width="0" fill="#555555" fill-opacity="1" />
  <path d="M46.20329,64.73466 L46.20329,64.28079 L46.59635,64.50773 z" stroke="#000000" stroke-width="0" fill="#555555" fill-opacity="1" />
  <path d="M45.01709,48.22147 L45.18927,48.00565 C45.37499,47.87423 45.84358,47.87423 46.02931,48.00565 L46.20329,48.24815 L46.02931,48.49065 C45.84358,48.62207 45.37499,48.62207 45.18927,48.49065 z" stroke="#000000" stroke-width="0" fill="#555555" fill-opacity="1" />
  <path d="M74.29082,71.31326 L75.47881,70.62737 L75.47881,73.15286 L75.30483,73.39536 C75.1191,73.52678 74.65051,73.52678 74.46478,73.39536 L74.29081,73.15286 z" stroke="#000000" stroke-width="0" fill="#777777" fill-opacity="1" />
  <path d="M74.29079,68.76012 L74.29077,56.52083 L75.47877,55.83493 L75.47881,69.44605 z" stroke="#000000" stroke-width="0" fill="#777777" fill-opacity="1" />
  <path d="M75.47871,52.69478 L75.47881,54.65358 L74.29081,53.96769 L74.29091,52.69478 L74.46478,52.9284 C74.65051,53.05983 75.1191,53.05983 75.30483,52.9284 z" stroke="#000000" stroke-width="0" fill="#777777" fill-opacity="1" />
  <path d="M64.68427,75.4046 L65.07732,75.17772 L65.91737,75.66272 L64.68426,76.37466 L64.68426,79.38509 L64.51028,79.62759 C64.32455,79.75902 63.85596,79.75902 63.67023,79.62759 L63.49626,79.38509 L63.49636,58.92701 L63.67023,59.16064 C63.85596,59.29206 64.32455,59.29206 64.51028,59.16064 L64.68416,58.92701 L64.68426,60.61219 L65.07732,60.38525 L65.91737,60.87025 L64.68426,61.58219 z" stroke="#000000" stroke-width="0" fill="#777777" fill-opacity="1" />
  <path d="M56.82386,42.25841 L56.99774,42.02479 L56.99784,43.98359 L55.80984,43.2977 L55.80994,42.02478 L55.98382,42.25841 C56.16954,42.38984 56.63813,42.38984 56.82386,42.25841 z" stroke="#000000" stroke-width="0" fill="#777777" fill-opacity="1" />
  <path d="M45.01538,48.25702 L45.18927,48.49065 C45.37499,48.62207 45.84358,48.62207 46.02931,48.49065 L46.20319,48.25702 L46.20329,49.9422 L46.59635,49.71526 L47.43639,50.20026 L46.20329,50.91219 L46.20329,64.73466 L46.59635,64.50773 L47.43639,64.99273 L46.20329,65.70467 L46.20329,68.7151 L46.02931,68.9576 C45.84358,69.08903 45.37499,69.08903 45.18927,68.9576 L45.01529,68.7151 z" stroke="#000000" stroke-width="0" fill="#777777" fill-opacity="1" />
  <path d="M55.80984,58.09016 L55.80984,55.03467 L56.99784,55.72056 L56.99784,58.77606 z" stroke="#000000" stroke-width="0" fill="#777777" fill-opacity="1" />
  <path d="M74.29081,73.15286 L74.46478,73.39536 C74.65051,73.52678 75.1191,73.52678 75.30483,73.39536 L75.47881,73.15286" stroke="#111111" stroke-width="0.24" fill="none" />
  <path d="M44.49625,47.92077 L54.15675,42.3433" stroke="#111111" stroke-width="0.24" fill="none" />
  <path d="M44.49625,48.50277 L44.49625,47.92077" stroke="#111111" stroke-width="0.24" fill="none" />
  <path d="M45.01531,48.80246 L44.49625,48.50277" stroke="#111111" stroke-width="0.24" fill="none" />
  <path d="M45.01711,48.2215 L44.49625,47.92077" stroke="#111111" stroke-width="0.24" fill="none" />
  <path d="M54.15675,42.3433 L75.99786,54.95328" stroke="#111111" stroke-width="0.24" fill="none" />
  <path d="M46.20332,61.72768 L54.15675,57.13576 L63.4963,62.52795" stroke="#111111" stroke-width="0.24" fill="none" />
  <path d="M44.49625,62.71323 L45.01538,62.41351" stroke="#111111" stroke-width="0.24" fill="none" />
  <path d="M45.01531,63.59492 L44.49625,63.29523" stroke="#111111" stroke-width="0.24" fill="none" />
  <path d="M45.01531,63.01293 L44.49625,62.71323" stroke="#111111" stroke-width="0.24" fill="none" />
  <path d="M75.99786,70.32774 L66.33738,75.90521" stroke="#111111" stroke-width="0.24" fill="none" />
  <path d="M75.99786,70.32774 L75.99786,69.74574" stroke="#111111" stroke-width="0.24" fill="none" />
  <path d="M64.68428,63.21384 L75.99786,69.74574" stroke="#111111" stroke-width="0.24" fill="none" />
  <path d="M66.33738,75.90521 L66.33738,75.32321 L64.68428,74.36881" stroke="#111111" stroke-width="0.24" fill="none" />
  <path d="M66.33738,75.90521 L64.68428,74.95081" stroke="#111111" stroke-width="0.24" fill="none" />
  <path d="M66.33738,61.11276 L64.68428,60.15834" stroke="#111111" stroke-width="0.24" fill="none" />
  <path d="M66.33738,60.53076 L64.68434,59.57638" stroke="#111111" stroke-width="0.24" fill="none" />
  <path d="M75.99786,54.95328 L66.33738,60.53076" stroke="#111111" stroke-width="0.24" fill="none" />
  <path d="M75.99786,55.53528 L66.33738,61.11276 L66.33738,60.53076" stroke="#111111" stroke-width="0.24" fill="none" />
  <path d="M75.99786,55.53528 L75.99786,54.95328" stroke="#111111" stroke-width="0.24" fill="none" />
  <path d="M74.46478,52.44341 L74.29081,52.6859" stroke="#111111" stroke-width="0.24" fill="none" />
  <path d="M75.47883,52.68593 L75.47883,54.6536" stroke="#111111" stroke-width="0.24" fill="none" />
  <path d="M75.47881,52.6859 L75.30483,52.44341 C75.1191,52.31198 74.65051,52.31198 74.46478,52.44341 L74.46478,52.9284 C74.65051,53.05983 75.1191,53.05983 75.30483,52.9284 z" stroke="#111111" stroke-width="0.24" fill="none" />
  <path d="M74.29083,68.76013 L74.29083,61.29811" stroke="#111111" stroke-width="0.24" fill="none" />
  <path d="M75.47883,60.61221 L75.47883,69.44608" stroke="#111111" stroke-width="0.24" fill="none" />
  <path d="M74.29081,53.96769 L74.29081,52.6859" stroke="#111111" stroke-width="0.24" fill="none" />
  <path d="M63.49626,79.38509 L63.67023,79.62759 C63.85596,79.75902 64.32455,79.75902 64.51028,79.62759 L64.68426,79.38509" stroke="#111111" stroke-width="0.24" fill="none" />
  <path d="M64.68428,76.37468 L64.68428,79.38512" stroke="#111111" stroke-width="0.24" fill="none" />
  <path d="M63.49626,58.91814 L63.67023,59.16064 C63.85596,59.29206 64.32455,59.29206 64.51028,59.16064 L64.68426,58.91814" stroke="#111111" stroke-width="0.24" fill="none" />
  <path d="M63.49628,74.26492 L46.20331,64.28082" stroke="#111111" stroke-width="0.24" fill="none" />
  <path d="M63.49628,73.68292 L46.20331,63.69882" stroke="#111111" stroke-width="0.24" fill="none" />
  <path d="M63.49628,59.47245 L46.20331,49.48835" stroke="#111111" stroke-width="0.24" fill="none" />
  <path d="M63.49809,58.89149 L46.20331,48.90635" stroke="#111111" stroke-width="0.24" fill="none" />
  <path d="M65.0775,75.17766 L64.5103,75.50513" stroke="#111111" stroke-width="0.24" fill="none" />
  <path d="M65.91743,75.66271 L64.5103,76.47513" stroke="#111111" stroke-width="0.24" fill="none" />
  <path d="M63.67023,58.67564 L63.49626,58.91814" stroke="#111111" stroke-width="0.24" fill="none" />
  <path d="M65.07755,60.38516 L64.5103,60.71266" stroke="#111111" stroke-width="0.24" fill="none" />
  <path d="M65.91749,60.87022 L64.5103,61.68266" stroke="#111111" stroke-width="0.24" fill="none" />
  <path d="M46.02931,68.9576 L46.20329,68.7151" stroke="#111111" stroke-width="0.24" fill="none" />
  <path d="M45.01529,68.7151 L45.18927,68.9576 C45.37499,69.08903 45.84358,69.08903 46.02931,68.9576" stroke="#111111" stroke-width="0.24" fill="none" />
  <path d="M46.02931,48.49065 L46.20329,48.24815" stroke="#111111" stroke-width="0.24" fill="none" />
  <path d="M45.01529,48.24815 L45.18927,48.49065 C45.37499,48.62207 45.84358,48.62207 46.02931,48.49065" stroke="#111111" stroke-width="0.24" fill="none" />
  <path d="M56.99784,42.01591 L56.99784,43.98359" stroke="#111111" stroke-width="0.24" fill="none" />
  <path d="M56.99784,42.01591 L56.82386,41.77341 C56.63813,41.64199 56.16954,41.64199 55.98382,41.77341 L55.80984,42.01591" stroke="#111111" stroke-width="0.24" fill="none" />
  <path d="M56.82386,42.25841 L56.99784,42.01591" stroke="#111111" stroke-width="0.24" fill="none" />
  <path d="M55.80984,42.01591 L55.98382,42.25841 C56.16954,42.38984 56.63813,42.38984 56.82386,42.25841" stroke="#111111" stroke-width="0.24" fill="none" />
  <path d="M46.20329,65.70458 L46.20329,68.7151" stroke="#111111" stroke-width="0.24" fill="none" />
  <path d="M55.80984,58.09016 L55.80984,55.03467" stroke="#111111" stroke-width="0.24" fill="none" />
  <path d="M56.99784,55.72031 L56.99784,58.77606" stroke="#111111" stroke-width="0.24" fill="none" />
  <path d="M55.80984,43.2977 L55.80984,42.01591" stroke="#111111" stroke-width="0.24" fill="none" />
  <path d="M45.01529,68.7151 L45.01529,48.24815" stroke="#111111" stroke-width="0.24" fill="none" />
  <path d="M46.20329,48.24815 L46.20329,49.9422" stroke="#111111" stroke-width="0.24" fill="none" />
  <path d="M46.20329,50.91219 L46.20329,64.73466" stroke="#111111" stroke-width="0.24" fill="none" />
  <path d="M46.02933,50.04267 L46.59661,49.71515" stroke="#111111" stroke-width="0.24" fill="none" />
  <path d="M46.02933,51.01266 L47.43655,50.20021" stroke="#111111" stroke-width="0.24" fill="none" />
  <path d="M46.02933,64.83514 L46.59656,64.50764" stroke="#111111" stroke-width="0.24" fill="none" />
  <path d="M46.02933,65.80514 L47.4365,64.99271" stroke="#111111" stroke-width="0.24" fill="none" />
  <path d="M75.99786,69.74574 L66.33738,75.32321" stroke="#111111" stroke-width="0.24" fill="none" />
  <path d="M44.49625,63.29523 L44.49625,62.71323" stroke="#111111" stroke-width="0.24" fill="none" />
  <path d="M75.47883,70.6274 L75.47883,73.15289" stroke="#111111" stroke-width="0.24" fill="none" />
  <path d="M46.20329,48.24815 L46.02931,48.00565 C45.84358,47.87423 45.37499,47.87423 45.18927,48.00565 L45.01529,48.24815" stroke="#000000" stroke-width="0.24" fill="none" />
  <path d="M66.33736,75.90519 L75.99784,70.32771 L75.99784,69.74571 L75.47881,69.44605 L75.47878,55.83493 L75.99784,55.53526 L75.99784,54.95326 L75.47881,54.65358 L75.47871,52.69478 L75.30483,52.44341 C75.1191,52.31198 74.65051,52.31198 74.46478,52.44341 L74.29081,52.6859 L74.29081,53.96769 L56.99784,43.98359 L56.99774,42.02479 L56.82386,41.77341 C56.63813,41.64199 56.16954,41.64199 55.98382,41.77341 L55.80984,42.01591 L55.80984,43.2977 L54.15672,42.34327 L44.49623,47.92075 L44.49623,48.50274 L45.01529,48.80243 L45.01529,62.41353 L44.49623,62.71321 L44.49623,63.29521 L45.01529,63.5949 L45.01529,68.7151 L45.18927,68.9576 C45.37499,69.08903 45.84358,69.08903 46.02931,68.9576 L46.20329,68.7151 L46.20329,65.70467 L47.43639,64.99273 L63.49626,74.26489 L63.49626,79.38509 L63.67023,79.62759 C63.85596,79.75902 64.32455,79.75902 64.51028,79.62759 L64.68426,79.38509 L64.68426,76.37466 L65.91737,75.66272 z" stroke="#000000" stroke-width="0.24" fill="none" />
  <path d="M74.29081,71.31326 L74.29081,73.15286 L74.46478,73.39536 C74.65051,73.52678 75.1191,73.52678 75.30483,73.39536 L75.47881,73.15286 L75.47881,70.62737" stroke="#000000" stroke-width="0.24" fill="none" />
  <path d="M64.68426,58.91814 L64.51028,58.67564 C64.32455,58.54422 63.85596,58.54422 63.67023,58.67564" stroke="#000000" stroke-width="0.24" fill="none" />
  <path d="M46.20331,50.91222 L47.43642,50.20028 L55.80986,55.03469 L55.80986,58.09019 L54.15675,57.13576 L46.20332,61.72768 z" stroke="#000000" stroke-width="0.24" fill="none" />
  <path d="M55.80986,42.57022 L55.80986,43.29772" stroke="#000000" stroke-width="0.24" fill="none" />
  <path d="M66.33738,61.11276 L74.2908,56.52085 L74.29082,68.76015 L64.68428,63.21384 L64.68428,61.58221 L65.91739,60.87028 z" stroke="#000000" stroke-width="0.24" fill="none" />
  <path d="M56.99786,58.77608 L56.99786,55.72058 L63.49628,59.47245 L63.49628,62.52794 z" stroke="#000000" stroke-width="0.24" fill="none" />
  <path d="M63.49628,79.38512 L63.49628,58.91816" stroke="#000000" stroke-width="0.24" fill="none" />
  <path d="M74.29083,73.15289 L74.29083,71.31329" stroke="#000000" stroke-width="0.24" fill="none" />
  <path d="M74.29083,53.96771 L74.29083,52.68593" stroke="#000000" stroke-width="0.24" fill="none" />
  <path d="M64.68428,61.58208 L64.68428,75.40459" stroke="#000000" stroke-width="0.24" fill="none" />
  <path d="M64.68428,58.91816 L64.68428,60.61221" stroke="#000000" stroke-width="0.24" fill="none" />
</svg>