<?xml version="1.0" encoding="utf-8" standalone="no"?>
<!DOCTYPE svg PUBLIC "-//W3C//DTD SVG 1.1//EN" "http://www.w3.org/Graphics/SVG/1.1/DTD/svg11.dtd">
<svg version="1.1" width="119.76pt" height="119.76pt" viewBox="0 0 119.76 119.76" overflow="visible" xmlns="http://www.w3.org/2000/svg">
  <path d="M74.74471,63.01291 L79.40097,60.32462 L79.40097,60.90661 L74.74471,63.5949 z" stroke="#000000" stroke-width="0" fill="#BBBBBB" fill-opacity="1" />
  <path d="M74.74291,48.22147 L79.40097,45.53215 L79.40097,46.11414 L74.74471,48.80243 z" stroke="#000000" stroke-width="0" fill="#BBBBBB" fill-opacity="1" />
  <path d="M49.2854,77.71185 L55.07574,74.36879 L55.07574,74.95079 L49.2854,78.29384 z" stroke="#000000" stroke-width="0" fill="#BBBBBB" fill-opacity="1" />
  <path d="M73.55671,64.28079 L56.26374,74.26489 L56.26374,73.6829 L73.55671,63.6988 z" stroke="#000000" stroke-width="0" fill="#BBBBBB" fill-opacity="1" />
  <path d="M56.26194,58.89147 L73.55671,48.90633 L73.55671,49.48833 L56.26374,59.47243 z" stroke="#000000" stroke-width="0" fill="#BBBBBB" fill-opacity="1" />
  <path d="M55.07574,60.15832 L49.2854,63.50137 L49.2854,62.91937 L55.07571,59.57635 z" stroke="#000000" stroke-width="0" fill="#BBBBBB" fill-opacity="1" />
  <path d="M49.2854,77.71185 L49.2854,78.29384 L39.62491,72.71635 L39.62491,72.13435 z" stroke="#000000" stroke-width="0" fill="#CCCCCC" fill-opacity="1" />
  <path d="M49.2854,63.50137 L39.62491,57.92389 L39.62491,57.34188 L49.2854,62.91937 z" stroke="#000000" stroke-width="0" fill="#CCCCCC" fill-opacity="1" />
  <path d="M79.40097,60.32462 L74.74471,63.01291 L74.74471,57.63633 z" stroke="#000000" stroke-width="0" fill="#EEEEEE" fill-opacity="1" />
  <path d="M55.07574,74.36879 L49.2854,77.71185 L39.62491,72.13435 L55.07574,63.21381 z" stroke="#000000" stroke-width="0" fill="#EEEEEE" fill-opacity="1" />
  <path d="M56.26374,62.52792 L69.74047,54.74713 L73.55671,56.95043 L73.55671,63.6988 L56.26374,73.6829 z" stroke="#000000" stroke-width="0" fill="#EEEEEE" fill-opacity="1" />
  <path d="M73.55671,48.90633 L56.26194,58.89147 L56.08976,58.67564 C55.90404,58.54422 55.43545,58.54422 55.24972,58.67564 L55.07574,58.91814 L55.07571,59.57635 L49.2854,62.91937 L39.62491,57.34188 L69.74047,39.95466 L79.40097,45.53215 L74.74291,48.22147 L74.57073,48.00565 C74.38501,47.87423 73.91642,47.87423 73.73069,48.00565 L73.55671,48.24815 z" stroke="#000000" stroke-width="0" fill="#EEEEEE" fill-opacity="1" />
  <path d="M55.07574,60.15832 L55.07574,60.61219 L54.68268,60.38525 z" stroke="#000000" stroke-width="0" fill="#555555" fill-opacity="1" />
  <path d="M56.26365,58.92701 L56.08976,59.16064 C55.90404,59.29206 55.43545,59.29206 55.24972,59.16064 L55.07584,58.92701 L55.24972,58.67564 C55.43545,58.54422 55.90404,58.54422 56.08976,58.67564 z" stroke="#000000" stroke-width="0" fill="#555555" fill-opacity="1" />
  <path d="M45.46909,52.69478 L45.29522,52.9284 C45.10949,53.05983 44.6409,53.05983 44.45517,52.9284 L44.28119,52.6859 L44.45517,52.44341 C44.6409,52.31198 45.10949,52.31198 45.29522,52.44341 z" stroke="#000000" stroke-width="0" fill="#555555" fill-opacity="1" />
  <path d="M54.68268,75.17772 L55.07574,74.95079 L55.07572,75.4046 z" stroke="#000000" stroke-width="0" fill="#555555" fill-opacity="1" />
  <path d="M63.95006,42.02478 L63.77618,42.25841 C63.59046,42.38984 63.12187,42.38984 62.93614,42.25841 L62.76216,42.01591 L62.93614,41.77341 C63.12187,41.64199 63.59046,41.64199 63.77618,41.77341 z" stroke="#000000" stroke-width="0" fill="#555555" fill-opacity="1" />
  <path d="M74.74461,48.25702 L74.57073,48.49065 C74.38501,48.62207 73.91642,48.62207 73.73069,48.49065 L73.55682,48.25702 L73.73069,48.00565 C73.91642,47.87423 74.38501,47.87423 74.57073,48.00565 z" stroke="#000000" stroke-width="0" fill="#555555" fill-opacity="1" />
  <path d="M73.55671,49.48833 L73.55671,49.9422 L73.16365,49.71526 z" stroke="#000000" stroke-width="0" fill="#555555" fill-opacity="1" />
  <path d="M73.55671,64.73466 L73.16365,64.50773 L73.55671,64.28079 z" stroke="#000000" stroke-width="0" fill="#555555" fill-opacity="1" />
  <path d="M63.95016,58.09016 L62.76216,58.77606 L62.76216,55.72056 L63.95016,55.03467 z" stroke="#000000" stroke-width="0" fill="#777777" fill-opacity="1" />
  <path d="M44.28129,52.69478 L44.45517,52.9284 C44.6409,53.05983 45.10949,53.05983 45.29522,52.9284 L45.46909,52.69478 L45.46919,53.96769 L44.28119,54.65358 z" stroke="#000000" stroke-width="0" fill="#777777" fill-opacity="1" />
  <path d="M55.07572,75.4046 L55.07574,61.58219 L53.84264,60.87025 L54.68268,60.38525 L55.07574,60.61219 L55.07584,58.92701 L55.24972,59.16064 C55.43545,59.29206 55.90404,59.29206 56.08976,59.16064 L56.26365,58.92701 L56.26374,79.38509 L56.08976,79.62759 C55.90404,79.75902 55.43545,79.75902 55.24972,79.62759 L55.07574,79.38509 L55.07574,76.37466 L53.84264,75.66272 L54.68268,75.17772 z" stroke="#000000" stroke-width="0" fill="#777777" fill-opacity="1" />
  <path d="M45.4692,68.76012 L44.28119,69.44605 L44.28119,60.61219 L45.46919,61.29808 z" stroke="#000000" stroke-width="0" fill="#777777" fill-opacity="1" />
  <path d="M62.93614,42.25841 C63.12187,42.38984 63.59046,42.38984 63.77618,42.25841 L63.95006,42.02478 L63.95016,43.2977 L62.76216,43.98359 L62.76226,42.02479 z" stroke="#000000" stroke-width="0" fill="#777777" fill-opacity="1" />
  <path d="M74.74461,48.25702 L74.74471,68.7151 L74.57073,68.9576 C74.38501,69.08903 73.91642,69.08903 73.73069,68.9576 L73.55671,68.7151 L73.55671,65.70467 L72.32361,64.99273 L73.16365,64.50773 L73.55671,64.73466 L73.55671,50.91219 L72.32361,50.20026 L73.16365,49.71526 L73.55671,49.9422 L73.55682,48.25702 L73.73069,48.49065 C73.91642,48.62207 74.38501,48.62207 74.57073,48.49065 z" stroke="#000000" stroke-width="0" fill="#777777" fill-opacity="1" />
  <path d="M44.28122,52.68593 L44.28122,54.6536" stroke="#111111" stroke-width="0.24" fill="none" />
  <path d="M44.28119,52.6859 L44.45517,52.44341 C44.6409,52.31198 45.10949,52.31198 45.29522,52.44341 L45.29522,52.9284 C45.10949,53.05983 44.6409,53.05983 44.45517,52.9284 z" stroke="#111111" stroke-width="0.24" fill="none" />
  <path d="M39.62494,72.71638 L39.62494,72.13438" stroke="#111111" stroke-width="0.24" fill="none" />
  <path d="M39.62494,72.71638 L49.28543,78.29386 L49.28543,77.71187" stroke="#111111" stroke-width="0.24" fill="none" />
  <path d="M45.46922,68.76013 L45.46922,61.29811" stroke="#111111" stroke-width="0.24" fill="none" />
  <path d="M39.62494,57.92391 L39.62494,57.34191" stroke="#111111" stroke-width="0.24" fill="none" />
  <path d="M49.28543,63.5014 L49.28543,62.9194" stroke="#111111" stroke-width="0.24" fill="none" />
  <path d="M44.28122,60.61221 L44.28122,69.44608" stroke="#111111" stroke-width="0.24" fill="none" />
  <path d="M45.46919,53.96769 L45.46919,52.6859" stroke="#111111" stroke-width="0.24" fill="none" />
  <path d="M55.07577,76.37468 L55.07577,79.38512" stroke="#111111" stroke-width="0.24" fill="none" />
  <path d="M49.28543,77.71187 L55.07577,74.36881" stroke="#111111" stroke-width="0.24" fill="none" />
  <path d="M56.26374,58.91814 L56.08976,59.16064 C55.90404,59.29206 55.43545,59.29206 55.24972,59.16064 L55.07574,58.91814" stroke="#111111" stroke-width="0.24" fill="none" />
  <path d="M69.7405,54.74715 L56.26375,62.52795" stroke="#111111" stroke-width="0.24" fill="none" />
  <path d="M55.07577,63.21384 L39.62494,72.13438" stroke="#111111" stroke-width="0.24" fill="none" />
  <path d="M49.28543,78.29386 L55.07577,74.95081" stroke="#111111" stroke-width="0.24" fill="none" />
  <path d="M56.26377,74.26492 L73.55674,64.28082" stroke="#111111" stroke-width="0.24" fill="none" />
  <path d="M56.26377,73.68292 L73.55674,63.69882" stroke="#111111" stroke-width="0.24" fill="none" />
  <path d="M39.62494,57.92391 L49.28543,63.5014 L55.07577,60.15834" stroke="#111111" stroke-width="0.24" fill="none" />
  <path d="M49.28543,62.9194 L55.0757,59.57638" stroke="#111111" stroke-width="0.24" fill="none" />
  <path d="M53.84261,75.66271 L55.24974,76.47513" stroke="#111111" stroke-width="0.24" fill="none" />
  <path d="M56.08976,58.67564 L56.26374,58.91814" stroke="#111111" stroke-width="0.24" fill="none" />
  <path d="M53.84256,60.87022 L55.24974,61.68266" stroke="#111111" stroke-width="0.24" fill="none" />
  <path d="M54.6825,60.38516 L55.24974,60.71266" stroke="#111111" stroke-width="0.24" fill="none" />
  <path d="M54.68255,75.17766 L55.24974,75.50513" stroke="#111111" stroke-width="0.24" fill="none" />
  <path d="M56.26196,58.89149 L73.55674,48.90635" stroke="#111111" stroke-width="0.24" fill="none" />
  <path d="M79.40099,60.32464 L74.74467,57.63631" stroke="#111111" stroke-width="0.24" fill="none" />
  <path d="M56.26377,59.47245 L73.55674,49.48835" stroke="#111111" stroke-width="0.24" fill="none" />
  <path d="M79.40099,60.90664 L79.40099,60.32464" stroke="#111111" stroke-width="0.24" fill="none" />
  <path d="M79.40099,45.53217 L69.7405,39.95468 L39.62494,57.34191" stroke="#111111" stroke-width="0.24" fill="none" />
  <path d="M79.40099,46.11417 L79.40099,45.53217" stroke="#111111" stroke-width="0.24" fill="none" />
  <path d="M73.73069,68.9576 L73.55671,68.7151" stroke="#111111" stroke-width="0.24" fill="none" />
  <path d="M74.74471,68.7151 L74.57073,68.9576 C74.38501,69.08903 73.91642,69.08903 73.73069,68.9576" stroke="#111111" stroke-width="0.24" fill="none" />
  <path d="M73.73069,48.49065 L73.55671,48.24815" stroke="#111111" stroke-width="0.24" fill="none" />
  <path d="M74.74474,48.80246 L79.40099,46.11417" stroke="#111111" stroke-width="0.24" fill="none" />
  <path d="M74.74294,48.2215 L79.40099,45.53217" stroke="#111111" stroke-width="0.24" fill="none" />
  <path d="M74.74471,48.24815 L74.57073,48.49065 C74.38501,48.62207 73.91642,48.62207 73.73069,48.49065" stroke="#111111" stroke-width="0.24" fill="none" />
  <path d="M56.26374,79.38509 L56.08976,79.62759 C55.90404,79.75902 55.43545,79.75902 55.24972,79.62759 L55.07574,79.38509" stroke="#111111" stroke-width="0.24" fill="none" />
  <path d="M73.55672,56.95045 L69.7405,54.74715" stroke="#111111" stroke-width="0.24" fill="none" />
  <path d="M39.62494,57.34191 L49.28543,62.9194" stroke="#111111" stroke-width="0.24" fill="none" />
  <path d="M74.74474,63.59492 L79.40099,60.90664" stroke="#111111" stroke-width="0.24" fill="none" />
  <path d="M74.74474,63.01293 L79.40099,60.32464" stroke="#111111" stroke-width="0.24" fill="none" />
  <path d="M62.76216,42.01591 L62.76216,43.98359" stroke="#111111" stroke-width="0.24" fill="none" />
  <path d="M62.76216,42.01591 L62.93614,41.77341 C63.12187,41.64199 63.59046,41.64199 63.77618,41.77341 L63.95016,42.01591" stroke="#111111" stroke-width="0.24" fill="none" />
  <path d="M62.93614,42.25841 L62.76216,42.01591" stroke="#111111" stroke-width="0.24" fill="none" />
  <path d="M63.95016,42.01591 L63.77618,42.25841 C63.59046,42.38984 63.12187,42.38984 62.93614,42.25841" stroke="#111111" stroke-width="0.24" fill="none" />
  <path d="M39.62494,72.13438 L49.28543,77.71187" stroke="#111111" stroke-width="0.24" fill="none" />
  <path d="M73.55671,65.70458 L73.55671,68.7151" stroke="#111111" stroke-width="0.24" fill="none" />
  <path d="M45.29522,52.44341 L45.46919,52.6859" stroke="#111111" stroke-width="0.24" fill="none" />
  <path d="M63.95016,58.09016 L63.95016,55.03467" stroke="#111111" stroke-width="0.24" fill="none" />
  <path d="M62.76216,55.72031 L62.76216,58.77606" stroke="#111111" stroke-width="0.24" fill="none" />
  <path d="M63.95016,43.2977 L63.95016,42.01591" stroke="#111111" stroke-width="0.24" fill="none" />
  <path d="M74.74471,68.7151 L74.74471,48.24815" stroke="#111111" stroke-width="0.24" fill="none" />
  <path d="M73.55671,48.24815 L73.55671,49.9422" stroke="#111111" stroke-width="0.24" fill="none" />
  <path d="M73.55671,50.91219 L73.55671,64.73466" stroke="#111111" stroke-width="0.24" fill="none" />
  <path d="M73.73071,50.04267 L73.16344,49.71515" stroke="#111111" stroke-width="0.24" fill="none" />
  <path d="M73.73071,51.01266 L72.32349,50.20021" stroke="#111111" stroke-width="0.24" fill="none" />
  <path d="M73.73071,64.83514 L73.16349,64.50764" stroke="#111111" stroke-width="0.24" fill="none" />
  <path d="M73.73071,65.80514 L72.32355,64.99271" stroke="#111111" stroke-width="0.24" fill="none" />
  <path d="M73.55671,48.24815 L73.73069,48.00565 C73.91642,47.87423 74.38501,47.87423 74.57073,48.00565 L74.74471,48.24815" stroke="#000000" stroke-width="0.24" fill="none" />
  <path d="M49.2854,78.29384 L39.62491,72.71635 L39.62491,72.13435 L44.28119,69.44605 L44.28119,60.61219 L39.62491,57.92389 L39.62491,57.34188 L44.28119,54.65358 L44.28129,52.69478 L44.45517,52.44341 C44.6409,52.31198 45.10949,52.31198 45.29522,52.44341 L45.46919,52.6859 L45.46919,53.96769 L62.76216,43.98359 L62.76226,42.02479 L62.93614,41.77341 C63.12187,41.64199 63.59046,41.64199 63.77618,41.77341 L63.95016,42.01591 L63.95016,43.2977 L69.74047,39.95466 L79.40097,45.53215 L79.40097,46.11414 L74.74471,48.80243 L74.74471,57.63633 L79.40097,60.32462 L79.40097,60.90661 L74.74471,63.5949 L74.74471,68.7151 L74.57073,68.9576 C74.38501,69.08903 73.91642,69.08903 73.73069,68.9576 L73.55671,68.7151 L73.55671,65.70467 L72.32361,64.99273 L56.26374,74.26489 L56.26374,79.38509 L56.08976,79.62759 C55.90404,79.75902 55.43545,79.75902 55.24972,79.62759 L55.07574,79.38509 L55.07574,76.37466 L53.84264,75.66272 z" stroke="#000000" stroke-width="0.24" fill="none" />
  <path d="M55.07574,58.91814 L55.24972,58.67564 C55.43545,58.54422 55.90404,58.54422 56.08976,58.67564" stroke="#000000" stroke-width="0.24" fill="none" />
  <path d="M73.55674,50.91222 L72.32363,50.20028 L63.95019,55.03469 L63.95019,58.09019 L69.7405,54.74715 L73.55673,56.95045 z" stroke="#000000" stroke-width="0.24" fill="none" />
  <path d="M49.28543,63.5014 L45.46922,61.29811 L45.46923,68.76015 L55.07577,63.21384 L55.07577,61.58221 L53.84266,60.87028 z" stroke="#000000" stroke-width="0.24" fill="none" />
  <path d="M62.76219,58.77608 L62.76219,55.72058 L56.26377,59.47245 L56.26377,62.52794 z" stroke="#000000" stroke-width="0.24" fill="none" />
  <path d="M56.26377,79.38512 L56.26377,58.91816" stroke="#000000" stroke-width="0.24" fill="none" />
  <path d="M55.07577,61.58208 L55.07577,75.40459" stroke="#000000" stroke-width="0.24" fill="none" />
  <path d="M55.07577,58.91816 L55.07577,60.61221" stroke="#000000" stroke-width="0.24" fill="none" />
</svg>