<?xml version="1.0" encoding="utf-8" standalone="no"?>
<!DOCTYPE svg PUBLIC "-//W3C//DTD SVG 1.1//EN" "http://www.w3.org/Graphics/SVG/1.1/DTD/svg11.dtd">
<svg version="1.1" width="119.76pt" height="119.76pt" viewBox="0 0 119.76 119.76" overflow="visible" xmlns="http://www.w3.org/2000/svg">
  <path d="M44.49623,49.89548 L44.49624,49.31349 L45.01711,49.61422 L45.01531,50.19518 z" stroke="#000000" stroke-width="0" fill="#BBBBBB" fill-opacity="1" />
  <path d="M63.49626,60.31084 L63.49626,60.86516 L46.20334,50.8811 L46.20338,50.29915 z" stroke="#000000" stroke-width="0" fill="#BBBBBB" fill-opacity="1" />
  <path d="M64.68426,61.55105 L64.68426,60.96905 L66.33736,61.92347 L66.33736,62.50547 z" stroke="#000000" stroke-width="0" fill="#BBBBBB" fill-opacity="1" />
  <path d="M75.99784,56.92799 L66.33736,62.50547 L66.33736,61.92347 L75.99784,56.34599 z" stroke="#000000" stroke-width="0" fill="#CCCCCC" fill-opacity="1" />
  <path d="M63.49805,60.28419 L46.20338,50.29915 L46.20331,49.64086 L46.02934,49.39836 C45.84361,49.26694 45.37502,49.26694 45.18929,49.39836 L45.01711,49.61422 C46.22255,50.31019 46.04892,50.20995 44.49623,49.3135 L54.15672,43.73602 L75.99784,56.34599 L66.33736,61.92347 L64.68426,60.96905 L64.68426,60.31084 L64.51028,60.06834 C64.32455,59.93692 63.85596,59.93692 63.67023,60.06834 z" stroke="#000000" stroke-width="0" fill="#EEEEEE" fill-opacity="1" />
  <path d="M55.80984,43.40864 L55.98382,43.16614 C56.16954,43.03472 56.63813,43.03472 56.82386,43.16614 L56.99784,43.40864 L56.82386,43.65114 C56.63813,43.78256 56.16954,43.78256 55.98382,43.65114 z" stroke="#000000" stroke-width="0" fill="#555555" fill-opacity="1" />
  <path d="M46.20334,50.8811 L46.59635,51.10799 L46.20331,51.33491 z" stroke="#000000" stroke-width="0" fill="#555555" fill-opacity="1" />
  <path d="M46.20321,49.64973 L46.02934,49.88336 C45.84361,50.01479 45.37502,50.01479 45.18929,49.88336 L45.01541,49.64973 L45.18929,49.39836 C45.37502,49.26694 45.84361,49.26694 46.02934,49.39836 z" stroke="#000000" stroke-width="0" fill="#555555" fill-opacity="1" />
  <path d="M64.68416,60.31971 L64.51028,60.55334 C64.32455,60.68476 63.85596,60.68476 63.67023,60.55334 L63.49636,60.31971 L63.67023,60.06834 C63.85596,59.93692 64.32455,59.93692 64.51028,60.06834 z" stroke="#000000" stroke-width="0" fill="#555555" fill-opacity="1" />
  <path d="M74.29078,54.07862 L74.46476,53.83612 C74.65048,53.70469 75.11908,53.70469 75.3048,53.83612 L75.47878,54.07862 L75.3048,54.32112 C75.11908,54.45254 74.65048,54.45254 74.46476,54.32112 z" stroke="#000000" stroke-width="0" fill="#555555" fill-opacity="1" />
  <path d="M64.68426,61.55105 L65.07729,61.77797 L64.68426,62.00489 z" stroke="#000000" stroke-width="0" fill="#555555" fill-opacity="1" />
  <path d="M46.20331,52.30491 L46.20331,64.28783 L46.02934,64.53033 C45.84361,64.66175 45.37502,64.66175 45.18929,64.53033 L45.01531,64.28783 L45.01541,49.64973 L45.18929,49.88336 C45.37502,50.01479 45.84361,50.01479 46.02934,49.88336 L46.20321,49.64973 L46.20331,51.33491 L46.59635,51.10799 L47.43639,51.59299 z" stroke="#000000" stroke-width="0" fill="#777777" fill-opacity="1" />
  <path d="M56.99784,57.11329 L56.99784,58.05561 L56.82386,58.29811 C56.63813,58.42953 56.16954,58.42953 55.98382,58.29811 L55.80984,58.05561 L55.80984,56.4274 z" stroke="#000000" stroke-width="0" fill="#777777" fill-opacity="1" />
  <path d="M74.29078,55.3604 L74.29088,54.08749 L74.46476,54.32112 C74.65048,54.45254 75.11908,54.45254 75.3048,54.32112 L75.47863,54.08749 L75.47874,56.04623 z" stroke="#000000" stroke-width="0" fill="#777777" fill-opacity="1" />
  <path d="M64.68426,62.97489 L64.68426,74.95781 L64.51028,75.20031 C64.32455,75.33173 63.85596,75.33173 63.67023,75.20031 L63.49626,74.95781 L63.49636,60.31971 L63.67023,60.55334 C63.85596,60.68476 64.32455,60.68476 64.51028,60.55334 L64.68416,60.31971 L64.68426,62.00489 L65.07729,61.77797 L65.91734,62.26297 z" stroke="#000000" stroke-width="0" fill="#777777" fill-opacity="1" />
  <path d="M56.99784,45.37632 L55.80981,44.69034 L55.80994,43.41751 L55.98382,43.65114 C56.16954,43.78256 56.63813,43.78256 56.82386,43.65114 L56.99769,43.41751 z" stroke="#000000" stroke-width="0" fill="#777777" fill-opacity="1" />
  <path d="M74.29078,57.91356 L75.47878,57.22766 L75.47878,68.72559 L75.3048,68.96809 C75.11908,69.09951 74.65048,69.09951 74.46476,68.96809 L74.29078,68.72559 z" stroke="#000000" stroke-width="0" fill="#777777" fill-opacity="1" />
  <path d="M75.47881,57.22769 L75.47881,68.72561" stroke="#111111" stroke-width="0.24" fill="none" />
  <path d="M74.2908,68.72561 L74.2908,57.91358" stroke="#111111" stroke-width="0.24" fill="none" />
  <path d="M75.99786,56.34601 L66.33738,61.92349" stroke="#111111" stroke-width="0.24" fill="none" />
  <path d="M66.33738,62.50549 L66.33738,61.92349 L64.68428,60.96907" stroke="#111111" stroke-width="0.24" fill="none" />
  <path d="M45.01722,49.61429 L44.49625,49.31353" stroke="#111111" stroke-width="0.24" fill="none" />
  <path d="M46.02934,49.88336 L46.20331,49.64086" stroke="#111111" stroke-width="0.24" fill="none" />
  <path d="M56.99786,43.40866 L56.99786,45.37634" stroke="#111111" stroke-width="0.24" fill="none" />
  <path d="M56.99784,43.40864 L56.82386,43.16614 C56.63813,43.03472 56.16954,43.03472 55.98382,43.16614 L55.80984,43.40864" stroke="#111111" stroke-width="0.24" fill="none" />
  <path d="M56.82386,43.65114 L56.99784,43.40864" stroke="#111111" stroke-width="0.24" fill="none" />
  <path d="M55.80984,43.40864 L55.98382,43.65114 C56.16954,43.78256 56.63813,43.78256 56.82386,43.65114" stroke="#111111" stroke-width="0.24" fill="none" />
  <path d="M56.99786,57.11332 L56.99786,58.05563" stroke="#111111" stroke-width="0.24" fill="none" />
  <path d="M45.01531,49.64086 L45.18929,49.88336 C45.37502,50.01479 45.84361,50.01479 46.02934,49.88336" stroke="#111111" stroke-width="0.24" fill="none" />
  <path d="M63.49808,60.28422 L46.20348,50.29918" stroke="#111111" stroke-width="0.24" fill="none" />
  <path d="M46.02934,64.53033 L46.20331,64.28783" stroke="#111111" stroke-width="0.24" fill="none" />
  <path d="M46.20334,52.30476 L46.20334,64.28786" stroke="#111111" stroke-width="0.24" fill="none" />
  <path d="M45.01531,64.28783 L45.18929,64.53033 C45.37502,64.66175 45.84361,64.66175 46.02934,64.53033" stroke="#111111" stroke-width="0.24" fill="none" />
  <path d="M46.02933,51.4354 L46.59663,51.10787" stroke="#111111" stroke-width="0.24" fill="none" />
  <path d="M56.82386,58.29811 L56.99784,58.05561" stroke="#111111" stroke-width="0.24" fill="none" />
  <path d="M55.80984,58.05561 L55.98382,58.29811 C56.16954,58.42953 56.63813,58.42953 56.82386,58.29811" stroke="#111111" stroke-width="0.24" fill="none" />
  <path d="M74.46476,53.83612 L74.29078,54.07862" stroke="#111111" stroke-width="0.24" fill="none" />
  <path d="M75.47878,54.07862 L75.47878,56.04615" stroke="#111111" stroke-width="0.24" fill="none" />
  <path d="M75.47878,54.07862 L75.3048,53.83612 C75.11908,53.70469 74.65048,53.70469 74.46476,53.83612 L74.46476,54.32112 C74.65048,54.45254 75.11908,54.45254 75.3048,54.32112 z" stroke="#111111" stroke-width="0.24" fill="none" />
  <path d="M74.29078,55.3604 L74.29078,54.07862" stroke="#111111" stroke-width="0.24" fill="none" />
  <path d="M63.49626,60.31084 L63.67023,60.55334 C63.85596,60.68476 64.32455,60.68476 64.51028,60.55334 L64.68426,60.31084" stroke="#111111" stroke-width="0.24" fill="none" />
  <path d="M64.68426,62.97489 L64.68426,74.95781" stroke="#111111" stroke-width="0.24" fill="none" />
  <path d="M63.49626,74.95781 L63.67023,75.20031 C63.85596,75.33173 64.32455,75.33173 64.51028,75.20031 L64.68426,74.95781" stroke="#111111" stroke-width="0.24" fill="none" />
  <path d="M74.29078,68.72559 L74.46476,68.96809 C74.65048,69.09951 75.11908,69.09951 75.3048,68.96809 L75.47878,68.72559" stroke="#111111" stroke-width="0.24" fill="none" />
  <path d="M65.07755,61.77786 L64.51028,62.10537" stroke="#111111" stroke-width="0.24" fill="none" />
  <path d="M64.68426,60.31084 L64.68426,62.00489" stroke="#000000" stroke-width="0.24" fill="none" />
  <path d="M63.49626,74.95781 L63.49626,60.31084 L63.49626,60.31084" stroke="#000000" stroke-width="0.24" fill="none" />
  <path d="M64.68426,60.31084 L64.51028,60.06834 C64.32455,59.93692 63.85596,59.93692 63.67023,60.06834" stroke="#000000" stroke-width="0.24" fill="none" />
  <path d="M75.47878,54.07862 L75.3048,53.83612 C75.11908,53.70469 74.65048,53.70469 74.46476,53.83612" stroke="#000000" stroke-width="0.24" fill="none" />
  <path d="M46.20331,49.64086 L46.02934,49.39836 C45.84361,49.26694 45.37502,49.26694 45.18929,49.39836 L45.01531,49.64086" stroke="#000000" stroke-width="0.24" fill="none" />
  <path d="M46.20331,49.64086 L46.20331,51.33491" stroke="#000000" stroke-width="0.24" fill="none" />
  <path d="M56.99784,43.40864 L56.82386,43.16614 C56.63813,43.03472 56.16954,43.03472 55.98382,43.16614 L55.80984,43.40864" stroke="#000000" stroke-width="0.24" fill="none" />
  <path d="M65.91736,62.26299 L64.51028,63.07537" stroke="#000000" stroke-width="0.24" fill="none" />
  <path d="M66.33738,62.50549 L64.68428,61.55107" stroke="#000000" stroke-width="0.24" fill="none" />
  <path d="M75.99786,56.92801 L66.33738,62.50549" stroke="#000000" stroke-width="0.24" fill="none" />
  <path d="M75.99786,56.92801 L75.99786,56.34601 L75.47878,56.04623 L75.47871,54.08752 L75.47881,54.07864" stroke="#000000" stroke-width="0.24" fill="none" />
  <path d="M74.2908,54.07864 L74.2908,55.36042" stroke="#000000" stroke-width="0.24" fill="none" />
  <path d="M63.49628,60.86518 L63.49628,74.95783" stroke="#000000" stroke-width="0.24" fill="none" />
  <path d="M64.68428,74.95783 L64.68428,62.97491 L65.91736,62.26299 L66.33738,62.50549 L74.2908,57.91358 L74.2908,68.72561" stroke="#000000" stroke-width="0.24" fill="none" />
  <path d="M75.47881,68.72561 L75.47881,57.22769 L75.99786,56.92801" stroke="#000000" stroke-width="0.24" fill="none" />
  <path d="M63.49636,60.86522 L46.20339,50.88113" stroke="#000000" stroke-width="0.24" fill="none" />
  <path d="M54.15675,43.73604 L75.99786,56.34601" stroke="#000000" stroke-width="0.24" fill="none" />
  <path d="M46.02933,52.4054 L47.43657,51.59293" stroke="#000000" stroke-width="0.24" fill="none" />
  <path d="M45.01534,64.28786 L45.01534,49.64088" stroke="#000000" stroke-width="0.24" fill="none" />
  <path d="M45.01534,50.1952 L44.49625,49.89553" stroke="#000000" stroke-width="0.24" fill="none" />
  <path d="M44.49625,49.31353 L54.15675,43.73604" stroke="#000000" stroke-width="0.24" fill="none" />
  <path d="M74.2908,55.36042 L56.99786,45.37634 L56.99786,43.40866" stroke="#000000" stroke-width="0.24" fill="none" />
  <path d="M55.80986,43.40866 L55.80983,44.69037 L54.15675,43.73604" stroke="#000000" stroke-width="0.24" fill="none" />
  <path d="M44.49625,49.31353 L44.49625,49.89553" stroke="#000000" stroke-width="0.24" fill="none" />
  <path d="M45.01534,50.1952 L45.01534,64.28786" stroke="#000000" stroke-width="0.24" fill="none" />
  <path d="M46.20334,64.28786 L46.20334,52.30493 L47.43642,51.59301 L55.80986,56.42743 L55.80986,58.05563" stroke="#000000" stroke-width="0.24" fill="none" />
  <path d="M56.99786,57.11332 L63.49628,60.86518" stroke="#000000" stroke-width="0.24" fill="none" />
</svg>