<?xml version="1.0" encoding="utf-8" standalone="no"?><!DOCTYPE svg PUBLIC "-//W3C//DTD SVG 1.1//EN" "http://www.w3.org/Graphics/SVG/1.1/DTD/svg11.dtd"><svg xmlns="http://www.w3.org/2000/svg" version="1.1" width="120pt" height="120pt" viewBox="0 0 120 120" overflow="visible">
  <path d="M66.9836,49.93303 L67.15759,49.69053 C67.34331,49.55911 67.8119,49.55911 67.99763,49.69053 L68.1716,49.93303 L67.99763,50.17553 C67.67078,50.31252 67.31403,50.27935 67.15759,50.17553 z" stroke="Black" stroke-width="0" fill="#555555" fill-opacity="1"/>
  <path d="M57.37708,57.8593 L57.37708,56.89945 L66.9836,51.35312 L67.15766,51.74087 C67.31409,51.84467 67.67075,51.87786 67.88805,51.79078 z" stroke="Black" stroke-width="0" fill="#555555" fill-opacity="1"/>
  <path d="M56.18908,56.16525 L56.36306,55.92275 C56.54878,55.79133 57.01738,55.79133 57.2031,55.92275 L57.37708,56.16525 L57.2031,56.40775 C57.01738,56.53918 56.54878,56.53918 56.36306,56.40775 z" stroke="Black" stroke-width="0" fill="#555555" fill-opacity="1"/>
  <path d="M57.37708,70.81223 L57.2031,71.05473 C57.01738,71.18614 56.54878,71.18614 56.36306,71.05473 L56.18908,70.81223 L56.18918,56.17413 L56.36306,56.40775 C56.54878,56.53918 57.01738,56.53918 57.2031,56.40775 L57.37698,56.17413 L57.37708,57.8593 L67.88807,51.79078 C67.67075,51.87786 67.31409,51.84467 67.15766,51.74087 L66.98364,51.49837 L66.9837,49.94191 L67.15759,50.17553 C67.31403,50.27935 67.67078,50.31252 67.88806,50.22541 L68.1714,49.94191 L68.1716,64.58 L67.99763,64.8225 C67.8119,64.95393 67.34331,64.95393 67.15759,64.8225 L66.9836,64.58 L66.9836,53.28297 L57.37708,58.8293 z" stroke="Black" stroke-width="0" fill="#777777" fill-opacity="1"/>
  <path d="M66.98363,53.283 L66.98363,64.58002" stroke="#000000" stroke-width="0.24" fill="none"/>
  <path d="M68.17162,64.58002 L68.17162,49.93306" stroke="#000000" stroke-width="0.24" fill="none"/>
  <path d="M57.3771,56.89948 L66.98363,51.35315" stroke="#000000" stroke-width="0.24" fill="none"/>
  <path d="M57.2031,58.92979 L67.88809,52.7608" stroke="#000000" stroke-width="0.24" fill="none"/>
  <path d="M57.3771,70.81225 L57.3771,58.82933" stroke="#000000" stroke-width="0.24" fill="none"/>
  <path d="M67.15759,49.69053 L66.9836,49.93303" stroke="#000000" stroke-width="0.24" fill="none"/>
  <path d="M67.99763,49.69053 C67.8119,49.55911 67.34331,49.55911 67.15759,49.69053" stroke="#000000" stroke-width="0.24" fill="none"/>
  <path d="M57.37708,56.16525 L57.37708,57.8593" stroke="#000000" stroke-width="0.24" fill="none"/>
  <path d="M57.37708,56.16525 L57.2031,55.92275 C57.01738,55.79133 56.54878,55.79133 56.36306,55.92275" stroke="#000000" stroke-width="0.24" fill="none"/>
  <path d="M56.18908,70.81223 L56.18908,56.16525 L56.18908,56.16525" stroke="#000000" stroke-width="0.24" fill="none"/>
  <path d="M66.98363,49.93306 L66.98363,51.49839" stroke="#000000" stroke-width="0.24" fill="none"/>
  <path d="M68.1716,49.93303 L67.99763,49.69053" stroke="#000000" stroke-width="0.24" fill="none"/>
  <path d="M66.98368,51.49837 L67.15766,51.74087 C67.31409,51.84468 67.67078,51.87786 67.88807,51.79077" stroke="#111111" stroke-width="0.24" fill="none"/>
  <path d="M57.2031,57.95979 L67.88809,51.7908" stroke="#111111" stroke-width="0.24" fill="none"/>
  <path d="M66.9836,51.21482 L66.9836,49.93303" stroke="#111111" stroke-width="0.24" fill="none"/>
  <path d="M56.18908,70.81223 L56.36306,71.05473 C56.54878,71.18614 57.01738,71.18614 57.2031,71.05473 L57.37708,70.81223" stroke="#111111" stroke-width="0.24" fill="none"/>
  <path d="M56.18908,56.16525 L56.36306,56.40775 C56.54878,56.53918 57.01738,56.53918 57.2031,56.40775 L57.37708,56.16525" stroke="#111111" stroke-width="0.24" fill="none"/>
  <path d="M66.9836,49.93303 L67.15759,50.17553 C67.34331,50.30695 67.8119,50.30695 67.99763,50.17553 L68.1716,49.93303" stroke="#111111" stroke-width="0.24" fill="none"/>
  <path d="M66.9836,64.58 L67.15759,64.8225 C67.34331,64.95393 67.8119,64.95393 67.99763,64.8225 L68.1716,64.58" stroke="#111111" stroke-width="0.24" fill="none"/>
  <path d="M68.1716,49.93303 L67.99763,49.69053 C67.8119,49.55911 67.34331,49.55911 67.15759,49.69053" stroke="#111111" stroke-width="0.24" fill="none"/>
</svg>