<?xml version="1.0" encoding="utf-8" standalone="no"?>
<!DOCTYPE svg PUBLIC "-//W3C//DTD SVG 1.1//EN" "http://www.w3.org/Graphics/SVG/1.1/DTD/svg11.dtd">
<svg version="1.1" width="119.76pt" height="119.76pt" viewBox="0 0 119.76 119.76" overflow="visible" xmlns="http://www.w3.org/2000/svg">
  <path d="M80.80418,61.81219 L81.32325,61.51254 L81.32325,62.09454 L80.80418,62.39419 z" stroke="#000000" stroke-width="0" fill="#BBBBBB" fill-opacity="1" />
  <path d="M48.43557,80.50024 L50.08867,79.5458 L50.08867,80.1278 L48.43557,81.08224 z" stroke="#000000" stroke-width="0" fill="#BBBBBB" fill-opacity="1" />
  <path d="M50.08867,65.33533 L48.43557,66.28978 L48.43557,65.70778 L50.08864,64.75336 z" stroke="#000000" stroke-width="0" fill="#BBBBBB" fill-opacity="1" />
  <path d="M51.27487,64.06848 L79.61618,47.70562 L79.61618,48.28761 L51.27667,64.64944 z" stroke="#000000" stroke-width="0" fill="#BBBBBB" fill-opacity="1" />
  <path d="M79.61618,63.08008 L51.27667,79.4419 L51.27667,78.85991 L79.61618,62.49809 z" stroke="#000000" stroke-width="0" fill="#BBBBBB" fill-opacity="1" />
  <path d="M48.43557,80.50024 L48.43557,81.08224 L38.77508,75.50476 L38.77508,74.92276 z" stroke="#000000" stroke-width="0" fill="#CCCCCC" fill-opacity="1" />
  <path d="M48.43557,66.28978 L38.77508,60.71229 L38.77508,60.13029 L48.43557,65.70778 z" stroke="#000000" stroke-width="0" fill="#CCCCCC" fill-opacity="1" />
  <path d="M81.32325,61.51254 L80.80418,61.81219 L80.80418,61.21285 z" stroke="#000000" stroke-width="0" fill="#EEEEEE" fill-opacity="1" />
  <path d="M51.27667,67.70493 L71.66274,55.93503 L79.61617,60.52684 L79.61618,62.49809 L51.27667,78.85991 z" stroke="#000000" stroke-width="0" fill="#EEEEEE" fill-opacity="1" />
  <path d="M50.08867,79.5458 L48.43557,80.50024 L38.77508,74.92276 L50.08867,68.39082 z" stroke="#000000" stroke-width="0" fill="#EEEEEE" fill-opacity="1" />
  <path d="M51.1027,63.85265 C50.91697,63.72123 50.44838,63.72123 50.26265,63.85265 L50.08867,64.09515 L50.08864,64.75336 L48.43557,65.70778 L38.77508,60.13029 L39.29412,59.83059 L39.29422,57.87179 L39.4681,58.10541 C39.65383,58.23684 40.12242,58.23684 40.30814,58.10541 L40.48203,57.87179 L40.48212,59.1447 L68.82163,42.78288 L68.82173,40.82407 L68.99561,41.0577 C69.18134,41.18912 69.64993,41.18912 69.83565,41.0577 L70.00953,40.82407 L70.00963,42.09698 L71.66276,41.14258 L81.32325,46.72007 L81.32325,47.30207 L80.80418,47.60172 L80.80418,47.04744 L80.6302,46.80494 C80.44447,46.67351 79.97588,46.67351 79.79016,46.80494 L79.61618,47.04744 L79.61618,47.70562 L51.27487,64.06848 z" stroke="#000000" stroke-width="0" fill="#EEEEEE" fill-opacity="1" />
  <path d="M80.80408,47.05631 L80.6302,47.28994 C80.44447,47.42136 79.97588,47.42136 79.79016,47.28994 L79.61628,47.05631 L79.79016,46.80494 C79.97588,46.67351 80.44447,46.67351 80.6302,46.80494 z" stroke="#000000" stroke-width="0" fill="#555555" fill-opacity="1" />
  <path d="M79.61618,48.28761 L79.61618,48.74149 L79.22311,48.51455 z" stroke="#000000" stroke-width="0" fill="#555555" fill-opacity="1" />
  <path d="M51.27657,64.10403 L51.1027,64.33765 C50.91697,64.46907 50.44838,64.46907 50.26265,64.33765 L50.08877,64.10403 L50.26265,63.85265 C50.44838,63.72123 50.91697,63.72123 51.1027,63.85265 z" stroke="#000000" stroke-width="0" fill="#555555" fill-opacity="1" />
  <path d="M40.48203,57.87179 L40.30814,58.10541 C40.12242,58.23684 39.65383,58.23684 39.4681,58.10541 L39.29412,57.86291 L39.4681,57.62041 C39.65383,57.48899 40.12242,57.48899 40.30814,57.62041 z" stroke="#000000" stroke-width="0" fill="#555555" fill-opacity="1" />
  <path d="M49.69561,80.35473 L50.08867,80.1278 L50.08865,80.58161 z" stroke="#000000" stroke-width="0" fill="#555555" fill-opacity="1" />
  <path d="M79.61618,63.53395 L79.22311,63.30702 L79.61618,63.08008 z" stroke="#000000" stroke-width="0" fill="#555555" fill-opacity="1" />
  <path d="M50.08867,65.33533 L50.08867,65.7892 L49.69561,65.56226 z" stroke="#000000" stroke-width="0" fill="#555555" fill-opacity="1" />
  <path d="M70.00953,40.82407 L69.83565,41.0577 C69.64993,41.18912 69.18134,41.18912 68.99561,41.0577 L68.82163,40.8152 L68.99561,40.5727 C69.18134,40.44128 69.64993,40.44128 69.83565,40.5727 z" stroke="#000000" stroke-width="0" fill="#555555" fill-opacity="1" />
  <path d="M39.29422,57.87179 L39.4681,58.10541 C39.65383,58.23684 40.12242,58.23684 40.30814,58.10541 L40.48203,57.87179 L40.48212,59.1447 L39.29412,59.83059 z" stroke="#000000" stroke-width="0" fill="#777777" fill-opacity="1" />
  <path d="M68.99561,41.0577 C69.18134,41.18912 69.64993,41.18912 69.83565,41.0577 L70.00953,40.82407 L70.00963,42.09698 L68.82163,42.78288 L68.82173,40.82407 z" stroke="#000000" stroke-width="0" fill="#777777" fill-opacity="1" />
  <path d="M50.08865,80.58161 L50.08867,66.75919 L48.85557,66.04726 L49.69561,65.56226 L50.08867,65.7892 L50.08877,64.10403 L50.26265,64.33765 C50.44838,64.46907 50.91697,64.46907 51.1027,64.33765 L51.27657,64.10403 L51.27667,84.5621 L51.1027,84.8046 C50.91697,84.93603 50.44838,84.93603 50.26265,84.8046 L50.08867,84.5621 L50.08867,81.55167 L48.85557,80.83973 L49.69561,80.35473 z" stroke="#000000" stroke-width="0" fill="#777777" fill-opacity="1" />
  <path d="M80.80408,47.05631 L80.80418,67.51439 L80.6302,67.75689 C80.44447,67.88831 79.97588,67.88831 79.79016,67.75689 L79.61618,67.51439 L79.61618,64.50395 L78.38307,63.79202 L79.22311,63.30702 L79.61618,63.53395 L79.61618,49.71148 L78.38307,48.99955 L79.22311,48.51455 L79.61618,48.74149 L79.61628,47.05631 L79.79016,47.28994 C79.97588,47.42136 80.44447,47.42136 80.6302,47.28994 z" stroke="#000000" stroke-width="0" fill="#777777" fill-opacity="1" />
  <path d="M70.00963,56.88945 L68.82163,57.57534 L68.82163,54.51985 L70.00963,53.83396 z" stroke="#000000" stroke-width="0" fill="#777777" fill-opacity="1" />
  <path d="M40.48213,73.93713 L39.29412,74.62305 L39.29413,61.01196 L40.48213,61.69785 z" stroke="#000000" stroke-width="0" fill="#777777" fill-opacity="1" />
  <path d="M39.29412,78.32987 L39.29412,75.80443 L40.48212,76.49032 L40.48212,78.32987 L40.36206,78.5363 C40.12242,78.70379 39.65383,78.70379 39.4681,78.57236 z" stroke="#000000" stroke-width="0" fill="#777777" fill-opacity="1" />
  <path d="M81.32327,47.30209 L81.32327,46.72009" stroke="#111111" stroke-width="0.24" fill="none" />
  <path d="M81.32327,61.51256 L80.80413,61.21283" stroke="#111111" stroke-width="0.24" fill="none" />
  <path d="M79.61619,60.52686 L71.66277,55.93505" stroke="#111111" stroke-width="0.24" fill="none" />
  <path d="M81.32327,62.09456 L81.32327,61.51256" stroke="#111111" stroke-width="0.24" fill="none" />
  <path d="M80.80421,61.81222 L81.32327,61.51256" stroke="#111111" stroke-width="0.24" fill="none" />
  <path d="M71.66277,55.93505 L51.27668,67.70496" stroke="#111111" stroke-width="0.24" fill="none" />
  <path d="M38.7751,75.50478 L38.7751,74.92278" stroke="#111111" stroke-width="0.24" fill="none" />
  <path d="M38.7751,75.50478 L48.4356,81.08227 L48.4356,80.50027" stroke="#111111" stroke-width="0.24" fill="none" />
  <path d="M38.7751,74.92278 L48.4356,80.50027" stroke="#111111" stroke-width="0.24" fill="none" />
  <path d="M48.4356,66.2898 L48.4356,65.7078" stroke="#111111" stroke-width="0.24" fill="none" />
  <path d="M38.7751,60.13031 L48.4356,65.7078" stroke="#111111" stroke-width="0.24" fill="none" />
  <path d="M48.4356,80.50027 L50.0887,79.54582" stroke="#111111" stroke-width="0.24" fill="none" />
  <path d="M48.4356,81.08227 L50.0887,80.12782" stroke="#111111" stroke-width="0.24" fill="none" />
  <path d="M38.7751,60.71231 L48.4356,66.2898 L50.0887,65.33535" stroke="#111111" stroke-width="0.24" fill="none" />
  <path d="M48.4356,65.7078 L50.08863,64.75339" stroke="#111111" stroke-width="0.24" fill="none" />
  <path d="M40.30814,57.62041 L40.48212,57.86291" stroke="#111111" stroke-width="0.24" fill="none" />
  <path d="M39.29412,57.86291 L39.29412,59.83059" stroke="#111111" stroke-width="0.24" fill="none" />
  <path d="M39.29412,57.86291 L39.4681,57.62041 C39.65383,57.48899 40.12242,57.48899 40.30814,57.62041 L40.30814,58.10541 C40.12242,58.23684 39.65383,58.23684 39.4681,58.10541 z" stroke="#111111" stroke-width="0.24" fill="none" />
  <path d="M79.79016,67.75689 L79.61618,67.51439" stroke="#111111" stroke-width="0.24" fill="none" />
  <path d="M80.80418,67.51439 L80.6302,67.75689 C80.44447,67.88831 79.97588,67.88831 79.79016,67.75689" stroke="#111111" stroke-width="0.24" fill="none" />
  <path d="M79.79016,47.28994 L79.61618,47.04744" stroke="#111111" stroke-width="0.24" fill="none" />
  <path d="M80.80418,47.04744 L80.6302,47.28994 C80.44447,47.42136 79.97588,47.42136 79.79016,47.28994" stroke="#111111" stroke-width="0.24" fill="none" />
  <path d="M40.48212,59.1447 L40.48212,57.86291" stroke="#111111" stroke-width="0.24" fill="none" />
  <path d="M51.27667,84.5621 L51.1027,84.8046 C50.91697,84.93603 50.44838,84.93603 50.26265,84.8046 L50.08867,84.5621" stroke="#111111" stroke-width="0.24" fill="none" />
  <path d="M50.08867,81.55167 L50.08867,84.5621" stroke="#111111" stroke-width="0.24" fill="none" />
  <path d="M51.27667,64.09515 L51.1027,64.33765 C50.91697,64.46907 50.44838,64.46907 50.26265,64.33765 L50.08867,64.09515" stroke="#111111" stroke-width="0.24" fill="none" />
  <path d="M38.7751,60.71231 L38.7751,60.13031" stroke="#111111" stroke-width="0.24" fill="none" />
  <path d="M68.82163,40.8152 L68.82163,42.78288" stroke="#111111" stroke-width="0.24" fill="none" />
  <path d="M80.80421,62.39421 L81.32327,62.09456" stroke="#111111" stroke-width="0.24" fill="none" />
  <path d="M68.82163,40.8152 L68.99561,40.5727 C69.18134,40.44128 69.64993,40.44128 69.83565,40.5727 L70.00963,40.8152" stroke="#111111" stroke-width="0.24" fill="none" />
  <path d="M68.99561,41.0577 L68.82163,40.8152" stroke="#111111" stroke-width="0.24" fill="none" />
  <path d="M70.00963,40.8152 L69.83565,41.0577 C69.64993,41.18912 69.18134,41.18912 68.99561,41.0577" stroke="#111111" stroke-width="0.24" fill="none" />
  <path d="M79.61618,64.50388 L79.61618,67.51439" stroke="#111111" stroke-width="0.24" fill="none" />
  <path d="M70.00963,56.88945 L70.00963,53.83396" stroke="#111111" stroke-width="0.24" fill="none" />
  <path d="M68.82163,54.5196 L68.82163,57.57534" stroke="#111111" stroke-width="0.24" fill="none" />
  <path d="M70.00963,42.09698 L70.00963,40.8152" stroke="#111111" stroke-width="0.24" fill="none" />
  <path d="M51.2767,78.85993 L79.6162,62.49811" stroke="#111111" stroke-width="0.24" fill="none" />
  <path d="M51.2767,64.64946 L79.6162,48.28764" stroke="#111111" stroke-width="0.24" fill="none" />
  <path d="M40.48212,78.32987 L40.30814,78.57236 C40.12242,78.70379 39.65383,78.70379 39.4681,78.57236 L39.29412,78.32987" stroke="#111111" stroke-width="0.24" fill="none" />
  <path d="M51.27489,64.0685 L79.6162,47.70564" stroke="#111111" stroke-width="0.24" fill="none" />
  <path d="M80.80418,67.51439 L80.80418,47.04744" stroke="#111111" stroke-width="0.24" fill="none" />
  <path d="M79.61618,47.04744 L79.61618,48.74149" stroke="#111111" stroke-width="0.24" fill="none" />
  <path d="M79.61618,49.71148 L79.61618,63.53395" stroke="#111111" stroke-width="0.24" fill="none" />
  <path d="M49.69548,80.35467 L50.26268,80.68214" stroke="#111111" stroke-width="0.24" fill="none" />
  <path d="M48.85554,80.83973 L50.26268,81.65214" stroke="#111111" stroke-width="0.24" fill="none" />
  <path d="M51.1027,63.85265 L51.27667,64.09515" stroke="#111111" stroke-width="0.24" fill="none" />
  <path d="M49.69543,65.56217 L50.26268,65.88967" stroke="#111111" stroke-width="0.24" fill="none" />
  <path d="M48.85549,66.04723 L50.26268,66.85966" stroke="#111111" stroke-width="0.24" fill="none" />
  <path d="M79.79018,48.84196 L79.2229,48.51443" stroke="#111111" stroke-width="0.24" fill="none" />
  <path d="M79.79018,49.81195 L78.38296,48.99949" stroke="#111111" stroke-width="0.24" fill="none" />
  <path d="M79.79018,63.63443 L79.22295,63.30694" stroke="#111111" stroke-width="0.24" fill="none" />
  <path d="M79.79018,64.60442 L78.38301,63.79199" stroke="#111111" stroke-width="0.24" fill="none" />
  <path d="M51.27667,84.5621 L51.27667,64.09515" stroke="#000000" stroke-width="0.24" fill="none" />
  <path d="M50.08867,66.75906 L50.08867,80.58157" stroke="#000000" stroke-width="0.24" fill="none" />
  <path d="M50.08867,64.09515 L50.08867,65.7892" stroke="#000000" stroke-width="0.24" fill="none" />
  <path d="M50.08867,64.09515 L50.26265,63.85265 C50.44838,63.72123 50.91697,63.72123 51.1027,63.85265" stroke="#000000" stroke-width="0.24" fill="none" />
  <path d="M79.61618,47.04744 L79.79016,46.80494 C79.97588,46.67351 80.44447,46.67351 80.6302,46.80494 L80.80418,47.04744" stroke="#000000" stroke-width="0.24" fill="none" />
  <path d="M48.43557,81.08224 L38.77508,75.50476 L38.77508,74.92276 L39.29412,74.62305 L39.29412,61.01196 L38.77508,60.71229 L38.77508,60.13029 L39.29412,59.83059 L39.29422,57.87179 L39.4681,57.62041 C39.65383,57.48899 40.12242,57.48899 40.30814,57.62041 L40.48212,57.86291 L40.48212,59.1447 L68.82163,42.78288 L68.82173,40.82407 L68.99561,40.5727 C69.18134,40.44128 69.64993,40.44128 69.83565,40.5727 L70.00963,40.8152 L70.00963,42.09698 L71.66276,41.14258 L81.32325,46.72007 L81.32325,47.30207 L80.80418,47.60172 L80.80418,61.21285 L81.32325,61.51254 L81.32325,62.09454 L80.80418,62.39419 L80.80418,67.51439 L80.6302,67.75689 C80.44447,67.88831 79.97588,67.88831 79.79016,67.75689 L79.61618,67.51439 L79.61618,64.50395 L78.38307,63.79202 L51.27667,79.4419 L51.27667,84.5621 L51.1027,84.8046 C50.91697,84.93603 50.44838,84.93603 50.26265,84.8046 L50.08867,84.5621 L50.08867,81.55167 L48.85557,80.83973 z" stroke="#000000" stroke-width="0.24" fill="none" />
  <path d="M40.48212,76.49032 L40.48212,78.32987 L40.30814,78.57236 C40.12242,78.70379 39.65383,78.70379 39.4681,78.57236 L39.29412,78.32987 L39.29412,75.80443" stroke="#000000" stroke-width="0.24" fill="none" />
  <path d="M68.82166,57.57537 L68.82166,54.51987 L51.2767,64.64946 L51.2767,67.70496 z" stroke="#000000" stroke-width="0.24" fill="none" />
  <path d="M48.4356,66.2898 L40.48215,61.69788 L40.48216,73.93716 L50.0887,68.39085 L50.0887,66.75922 L48.85559,66.04729 z" stroke="#000000" stroke-width="0.24" fill="none" />
  <path d="M79.6162,49.71151 L78.38309,48.99957 L70.00965,53.83398 L70.00965,56.88948 L71.66277,55.93505 L79.6162,60.52686 z" stroke="#000000" stroke-width="0.24" fill="none" />
</svg>