<?xml version="1.0" encoding="utf-8" standalone="no"?>
<!DOCTYPE svg PUBLIC "-//W3C//DTD SVG 1.1//EN" "http://www.w3.org/Graphics/SVG/1.1/DTD/svg11.dtd">
<svg version="1.1" width="120pt" height="120pt" viewBox="0 0 120 120" overflow="visible" xmlns="http://www.w3.org/2000/svg">
  <path d="M75.61311,83.05534 L75.61311,83.63851 L69.81108,80.2887 L69.81108,79.70553 z" stroke="Black" stroke-width="0" fill="#BBBBBB" fill-opacity="1" />
  <path d="M69.81108,65.46635 L69.81111,64.88321 L75.61311,68.23298 L75.61311,68.81615 z" stroke="Black" stroke-width="0" fill="#BBBBBB" fill-opacity="1" />
  <path d="M68.62078,64.23256 L68.62068,64.77907 L40.22392,48.38419 L40.22392,47.80102 z" stroke="Black" stroke-width="0" fill="#BBBBBB" fill-opacity="1" />
  <path d="M40.22392,63.20655 L40.22392,62.62337 L68.62068,79.01825 L68.62068,79.60143 z" stroke="Black" stroke-width="0" fill="#BBBBBB" fill-opacity="1" />
  <path d="M39.03362,47.15041 L39.03352,47.69692 L34.36786,45.0032 L34.36786,44.42002 z" stroke="Black" stroke-width="0" fill="#BBBBBB" fill-opacity="1" />
  <path d="M39.03352,61.9361 L39.03352,62.51927 L34.36786,59.82555 L34.36786,59.24237 z" stroke="Black" stroke-width="0" fill="#BBBBBB" fill-opacity="1" />
  <path d="M75.61311,83.05534 L85.29313,77.46658 L85.29313,78.04975 L75.61311,83.63851 z" stroke="Black" stroke-width="0" fill="#CCCCCC" fill-opacity="1" />
  <path d="M75.61311,68.81615 L75.61311,68.23298 L85.29313,62.64423 L85.29313,63.2274 z" stroke="Black" stroke-width="0" fill="#CCCCCC" fill-opacity="1" />
  <path d="M69.81108,79.70553 L69.81108,68.52802 L85.29313,77.46658 L75.61311,83.05534 z" stroke="Black" stroke-width="0" fill="#EEEEEE" fill-opacity="1" />
  <path d="M68.62068,67.84074 L68.62068,79.01825 L40.22392,62.62337 L40.22393,55.86137 L44.04787,53.65362 z" stroke="Black" stroke-width="0" fill="#EEEEEE" fill-opacity="1" />
  <path d="M40.22392,47.80102 L40.22382,47.15041 L40.04959,46.89852 C39.86349,46.76683 39.39395,46.76683 39.20785,46.89852 L39.03532,47.11478 L34.36786,44.42002 L44.04787,38.83127 L85.29313,62.64423 L75.61311,68.23298 L69.81111,64.88321 L69.81098,64.23256 L69.63675,63.98067 C69.45065,63.84899 68.98111,63.84899 68.79501,63.98067 L68.62249,64.19695 z" stroke="Black" stroke-width="0" fill="#EEEEEE" fill-opacity="1" />
  <path d="M34.36786,59.24237 L39.03352,56.54865 L39.03352,61.9361 z" stroke="Black" stroke-width="0" fill="#EEEEEE" fill-opacity="1" />
  <path d="M49.84988,40.89668 L50.02421,40.65369 C50.21031,40.52201 50.67985,40.52201 50.86595,40.65369 L51.04028,40.89668 L50.86595,41.13968 C50.67985,41.27136 50.21031,41.27136 50.02421,41.13968 z" stroke="Black" stroke-width="0" fill="#555555" fill-opacity="1" />
  <path d="M40.22392,48.38419 L40.61778,48.61159 L40.22392,48.83898 z" stroke="Black" stroke-width="0" fill="#555555" fill-opacity="1" />
  <path d="M68.62248,64.19695 L68.79501,63.98067 C68.98111,63.84899 69.45065,63.84899 69.63675,63.98067 L69.81108,64.22366 L69.63675,64.46665 C69.45065,64.59834 68.98111,64.59834 68.79501,64.46665 z" stroke="Black" stroke-width="0" fill="#555555" fill-opacity="1" />
  <path d="M70.20494,80.5161 L69.8111,80.74343 L69.81108,80.2887 z" stroke="Black" stroke-width="0" fill="#555555" fill-opacity="1" />
  <path d="M39.03532,47.11478 L39.20785,46.89852 C39.39395,46.76683 39.86349,46.76683 40.04959,46.89852 L40.22392,47.14151 L40.04959,47.3845 C39.86349,47.51619 39.39395,47.51619 39.20785,47.3845 z" stroke="Black" stroke-width="0" fill="#555555" fill-opacity="1" />
  <path d="M79.43703,57.97884 L79.61137,57.73585 C79.79747,57.60416 80.26701,57.60416 80.45311,57.73585 L80.62743,57.97884 L80.45311,58.22183 C80.26701,58.35352 79.79747,58.35352 79.61137,58.22183 z" stroke="Black" stroke-width="0" fill="#555555" fill-opacity="1" />
  <path d="M40.22392,63.66133 L40.22392,63.20655 L40.61778,63.43394 z" stroke="Black" stroke-width="0" fill="#555555" fill-opacity="1" />
  <path d="M69.81108,65.46635 L70.20494,65.69374 L69.81108,65.92113 z" stroke="Black" stroke-width="0" fill="#555555" fill-opacity="1" />
  <path d="M80.62733,57.98773 L80.62743,59.95049 L79.43703,59.26321 L79.43713,57.98773 L79.61137,58.22183 C79.79747,58.35352 80.26701,58.35352 80.45311,58.22183 z" stroke="Black" stroke-width="0" fill="#777777" fill-opacity="1" />
  <path d="M39.03362,47.1504 L39.20785,47.3845 C39.39395,47.51619 39.86349,47.51619 40.04959,47.3845 L40.22382,47.1504 L40.22392,48.83898 L40.61778,48.61159 L41.45952,49.09757 L40.22392,49.81094 L40.22392,63.66133 L40.61778,63.43394 L41.45952,63.91992 L40.22392,64.63329 L40.22392,67.64982 L40.04959,67.89281 C39.86349,68.02449 39.39395,68.02449 39.20785,67.89281 L39.03352,67.64982 z" stroke="Black" stroke-width="0" fill="#777777" fill-opacity="1" />
  <path d="M79.43703,74.08553 L79.43703,66.60841 L80.62743,65.92113 L80.62743,74.77284 z" stroke="Black" stroke-width="0" fill="#777777" fill-opacity="1" />
  <path d="M49.84988,57.00341 L49.84988,53.94175 L51.04028,54.62902 L51.04028,57.69069 z" stroke="Black" stroke-width="0" fill="#777777" fill-opacity="1" />
  <path d="M50.86595,41.13968 L51.04018,40.90558 L51.04028,42.86834 L49.84988,42.18106 L49.84998,40.90557 L50.02421,41.13968 C50.21031,41.27136 50.67985,41.27136 50.86595,41.13968 z" stroke="Black" stroke-width="0" fill="#777777" fill-opacity="1" />
  <path d="M69.8111,80.74343 L70.20494,80.5161 L71.04668,81.00208 L69.81108,81.71545 L69.81108,84.73197 L69.63675,84.97496 C69.45065,85.10664 68.98111,85.10664 68.79501,84.97496 L68.62068,84.73197 L68.62078,64.23256 L68.79501,64.46665 C68.98111,64.59834 69.45065,64.59834 69.63675,64.46665 L69.81098,64.23256 L69.81108,65.92113 L70.20494,65.69374 L71.04668,66.17972 L69.81108,66.8931 z" stroke="Black" stroke-width="0" fill="#777777" fill-opacity="1" />
  <path d="M40.22395,49.81097 L41.45955,49.09759 L49.8499,53.94177 L49.8499,57.00343 L44.04789,53.65364 L40.22395,55.86139 z" stroke="#000000" stroke-width="0.24" fill="none" />
  <path d="M40.22392,47.14151 L40.22392,48.83898" stroke="#000000" stroke-width="0.24" fill="none" />
  <path d="M68.62068,84.73197 L68.62068,64.22366" stroke="#000000" stroke-width="0.24" fill="none" />
  <path d="M51.0403,57.69071 L51.0403,54.62905 L68.6207,64.7791 L68.6207,67.84076 z" stroke="#000000" stroke-width="0.24" fill="none" />
  <path d="M69.81108,64.22366 L69.81108,65.92113" stroke="#000000" stroke-width="0.24" fill="none" />
  <path d="M40.22392,49.81094 L40.22392,63.66133" stroke="#000000" stroke-width="0.24" fill="none" />
  <path d="M75.61314,68.81618 L79.43706,66.60844 L79.43705,74.08556 L69.8111,68.52804 L69.8111,66.89312 L71.0467,66.17975 z" stroke="#000000" stroke-width="0.24" fill="none" />
  <path d="M69.81108,66.89296 L69.81108,80.7434" stroke="#000000" stroke-width="0.24" fill="none" />
  <path d="M39.03352,67.64982 L39.03352,47.14151" stroke="#000000" stroke-width="0.24" fill="none" />
  <path d="M75.61311,83.63851 L85.29313,78.04975 L85.29313,77.46658 L80.62743,74.77284 L80.62743,65.92113 L85.29313,63.2274 L85.29313,62.64423 L80.62743,59.95049 L80.62733,57.98773 L80.45311,57.73585 C80.26701,57.60416 79.79747,57.60416 79.61137,57.73585 L79.43703,57.97884 L79.43703,59.26321 L51.04028,42.86834 L51.04018,40.90558 L50.86595,40.65369 C50.67985,40.52201 50.21031,40.52201 50.02421,40.65369 L49.84988,40.89668 L49.84988,42.18106 L44.04787,38.83127 L34.36786,44.42002 L34.36786,45.0032 L39.03352,47.69692 L39.03352,56.54865 L34.36786,59.24237 L34.36786,59.82555 L39.03352,62.51927 L39.03352,67.64982 L39.20785,67.89281 C39.39395,68.02449 39.86349,68.02449 40.04959,67.89281 L40.22392,67.64982 L40.22392,64.63329 L41.45952,63.91992 L68.62068,79.60143 L68.62068,84.73197 L68.79501,84.97496 C68.98111,85.10664 69.45065,85.10664 69.63675,84.97496 L69.81108,84.73197 L69.81108,81.71545 L71.04668,81.00208 z" stroke="#000000" stroke-width="0.24" fill="none" />
  <path d="M71.04681,66.17969 L69.63677,66.99377" stroke="#111111" stroke-width="0.24" fill="none" />
  <path d="M68.62068,84.73197 L68.62068,64.22366" stroke="#111111" stroke-width="0.24" fill="none" />
  <path d="M40.22392,47.14151 L40.04959,46.89852 C39.86349,46.76683 39.39395,46.76683 39.20785,46.89852 L39.03352,47.14151" stroke="#111111" stroke-width="0.24" fill="none" />
  <path d="M68.62251,64.19697 L40.22395,47.80104" stroke="#111111" stroke-width="0.24" fill="none" />
  <path d="M85.29315,63.22742 L75.61314,68.81618" stroke="#111111" stroke-width="0.24" fill="none" />
  <path d="M75.61314,83.63853 L69.8111,80.28873" stroke="#111111" stroke-width="0.24" fill="none" />
  <path d="M69.8111,68.52804 L85.29315,77.46661" stroke="#111111" stroke-width="0.24" fill="none" />
  <path d="M49.84988,42.18106 L49.84988,40.89668" stroke="#111111" stroke-width="0.24" fill="none" />
  <path d="M50.86595,41.13968 L51.04028,40.89668" stroke="#111111" stroke-width="0.24" fill="none" />
  <path d="M75.61314,83.05536 L69.8111,79.70555" stroke="#111111" stroke-width="0.24" fill="none" />
  <path d="M85.29315,62.64425 L75.61314,68.23301" stroke="#111111" stroke-width="0.24" fill="none" />
  <path d="M51.04028,40.89668 L50.86595,40.65369 C50.67985,40.52201 50.21031,40.52201 50.02421,40.65369 L49.84988,40.89668" stroke="#111111" stroke-width="0.24" fill="none" />
  <path d="M39.03355,61.93612 L34.36789,59.2424" stroke="#111111" stroke-width="0.24" fill="none" />
  <path d="M68.62068,84.73197 L68.79501,84.97496 C68.98111,85.10664 69.45065,85.10664 69.63675,84.97496 L69.81108,84.73197" stroke="#111111" stroke-width="0.24" fill="none" />
  <path d="M44.04789,38.83129 L85.29315,62.64425" stroke="#111111" stroke-width="0.24" fill="none" />
  <path d="M75.61314,68.23301 L69.81116,64.88323" stroke="#111111" stroke-width="0.24" fill="none" />
  <path d="M40.22392,49.81094 L40.22392,63.66133" stroke="#111111" stroke-width="0.24" fill="none" />
  <path d="M68.79501,63.98067 L68.62068,64.22366" stroke="#111111" stroke-width="0.24" fill="none" />
  <path d="M70.20517,65.69365 L69.63677,66.02181" stroke="#111111" stroke-width="0.24" fill="none" />
  <path d="M40.04961,49.91161 L41.45968,49.09751" stroke="#111111" stroke-width="0.24" fill="none" />
  <path d="M40.04961,63.76201 L40.61799,63.43386" stroke="#111111" stroke-width="0.24" fill="none" />
  <path d="M69.81108,81.71545 L69.81108,84.73197" stroke="#111111" stroke-width="0.24" fill="none" />
  <path d="M39.03535,47.11481 L34.36789,44.42005" stroke="#111111" stroke-width="0.24" fill="none" />
  <path d="M51.04028,40.89668 L51.04028,42.86834" stroke="#111111" stroke-width="0.24" fill="none" />
  <path d="M39.03352,67.64982 L39.20785,67.89281 C39.39395,68.02449 39.86349,68.02449 40.04959,67.89281" stroke="#111111" stroke-width="0.24" fill="none" />
  <path d="M40.22392,64.63322 L40.22392,67.64982" stroke="#111111" stroke-width="0.24" fill="none" />
  <path d="M49.84988,57.00341 L49.84988,53.94175" stroke="#111111" stroke-width="0.24" fill="none" />
  <path d="M85.29315,77.46661 L75.61314,83.05536" stroke="#111111" stroke-width="0.24" fill="none" />
  <path d="M51.04028,54.62877 L51.04028,57.69069" stroke="#111111" stroke-width="0.24" fill="none" />
  <path d="M75.61314,83.63853 L75.61314,83.05536" stroke="#111111" stroke-width="0.24" fill="none" />
  <path d="M44.04789,53.65364 L68.62072,67.84077" stroke="#111111" stroke-width="0.24" fill="none" />
  <path d="M68.6207,79.01827 L40.22395,62.6234" stroke="#111111" stroke-width="0.24" fill="none" />
  <path d="M68.6207,64.7791 L40.22395,48.38422" stroke="#111111" stroke-width="0.24" fill="none" />
  <path d="M40.22392,47.14151 L40.22392,48.83898" stroke="#111111" stroke-width="0.24" fill="none" />
  <path d="M71.04675,81.00207 L69.63677,81.81612" stroke="#111111" stroke-width="0.24" fill="none" />
  <path d="M69.81108,66.89296 L69.81108,80.7434" stroke="#111111" stroke-width="0.24" fill="none" />
  <path d="M34.36789,59.2424 L39.03362,56.54864" stroke="#111111" stroke-width="0.24" fill="none" />
  <path d="M34.36789,59.82557 L34.36789,59.2424" stroke="#111111" stroke-width="0.24" fill="none" />
  <path d="M85.29315,63.22742 L85.29315,62.64425" stroke="#111111" stroke-width="0.24" fill="none" />
  <path d="M40.04959,47.3845 L40.22392,47.14151" stroke="#111111" stroke-width="0.24" fill="none" />
  <path d="M80.62743,65.92113 L80.62743,74.77284" stroke="#111111" stroke-width="0.24" fill="none" />
  <path d="M79.43703,59.26321 L79.43703,57.97884" stroke="#111111" stroke-width="0.24" fill="none" />
  <path d="M69.81108,64.22366 L69.63675,63.98067 C69.45065,63.84899 68.98111,63.84899 68.79501,63.98067 L68.79501,64.46665 C68.98111,64.59834 69.45065,64.59834 69.63675,64.46665 z" stroke="#111111" stroke-width="0.24" fill="none" />
  <path d="M49.84988,40.89668 L50.02421,41.13968 C50.21031,41.27136 50.67985,41.27136 50.86595,41.13968" stroke="#111111" stroke-width="0.24" fill="none" />
  <path d="M68.6207,79.60145 L40.22395,63.20657" stroke="#111111" stroke-width="0.24" fill="none" />
  <path d="M75.61314,68.81618 L69.8111,65.46637" stroke="#111111" stroke-width="0.24" fill="none" />
  <path d="M79.61137,57.73585 L79.43703,57.97884" stroke="#111111" stroke-width="0.24" fill="none" />
  <path d="M39.03352,67.64982 L39.03352,47.14151" stroke="#111111" stroke-width="0.24" fill="none" />
  <path d="M80.62743,57.97884 L80.62743,59.95049" stroke="#111111" stroke-width="0.24" fill="none" />
  <path d="M70.20512,80.51603 L69.63677,80.84416" stroke="#111111" stroke-width="0.24" fill="none" />
  <path d="M69.81108,64.22366 L69.81108,65.92113" stroke="#111111" stroke-width="0.24" fill="none" />
  <path d="M80.62743,57.97884 L80.45311,57.73585 C80.26701,57.60416 79.79747,57.60416 79.61137,57.73585 L79.61137,58.22183 C79.79747,58.35352 80.26701,58.35352 80.45311,58.22183 z" stroke="#111111" stroke-width="0.24" fill="none" />
  <path d="M40.04961,48.93966 L40.61804,48.61148" stroke="#111111" stroke-width="0.24" fill="none" />
  <path d="M40.04961,64.73396 L41.45963,63.9199" stroke="#111111" stroke-width="0.24" fill="none" />
  <path d="M85.29315,78.04977 L85.29315,77.46661" stroke="#111111" stroke-width="0.24" fill="none" />
  <path d="M85.29315,78.04977 L75.61314,83.63853" stroke="#111111" stroke-width="0.24" fill="none" />
  <path d="M79.43703,74.08552 L79.43703,66.60841" stroke="#111111" stroke-width="0.24" fill="none" />
  <path d="M34.36789,44.42005 L44.04789,38.83129" stroke="#111111" stroke-width="0.24" fill="none" />
  <path d="M34.36789,45.00322 L34.36789,44.42005" stroke="#111111" stroke-width="0.24" fill="none" />
  <path d="M75.61314,68.81618 L75.61314,68.23301" stroke="#111111" stroke-width="0.24" fill="none" />
  <path d="M40.04959,67.89281 L40.22392,67.64982" stroke="#111111" stroke-width="0.24" fill="none" />
  <path d="M39.03355,47.69694 L34.36789,45.00322" stroke="#111111" stroke-width="0.24" fill="none" />
  <path d="M39.03352,47.14151 L39.20785,47.3845 C39.39395,47.51619 39.86349,47.51619 40.04959,47.3845" stroke="#111111" stroke-width="0.24" fill="none" />
  <path d="M40.22396,55.86139 L44.04789,53.65364" stroke="#111111" stroke-width="0.24" fill="none" />
  <path d="M39.03355,62.51929 L34.36789,59.82557" stroke="#111111" stroke-width="0.24" fill="none" />
</svg>