<?xml version="1.0" encoding="utf-8" standalone="no"?>
<!DOCTYPE svg PUBLIC "-//W3C//DTD SVG 1.1//EN" "http://www.w3.org/Graphics/SVG/1.1/DTD/svg11.dtd">
<svg version="1.1" width="119.76pt" height="119.76pt" viewBox="0 0 119.76 119.76" overflow="visible" xmlns="http://www.w3.org/2000/svg">
  <path d="M43.99493,49.68694 L43.99493,49.10493 L44.51577,49.40564 L44.51397,49.98661 z" stroke="#000000" stroke-width="0" fill="#BBBBBB" fill-opacity="1" />
  <path d="M76.88261,68.09264 L76.88261,68.67464 L75.22948,67.72021 L75.22948,67.13822 z" stroke="#000000" stroke-width="0" fill="#BBBBBB" fill-opacity="1" />
  <path d="M74.04147,66.48003 L74.04147,67.03432 L45.70197,50.6725 L45.702,50.09054 z" stroke="#000000" stroke-width="0" fill="#BBBBBB" fill-opacity="1" />
  <path d="M76.88261,68.67464 L76.88261,68.09264 L86.5431,62.51516 L86.5431,63.09716 z" stroke="#000000" stroke-width="0" fill="#CCCCCC" fill-opacity="1" />
  <path d="M45.702,50.09054 L45.70187,49.4412 L45.52799,49.18982 C45.34227,49.0584 44.87367,49.0584 44.68795,49.18982 L44.51577,49.40564 L43.99493,49.10493 L53.65542,43.52745 L86.5431,62.51516 L76.88261,68.09264 L75.22948,67.13822 L75.22938,66.48891 L75.0555,66.23753 C74.86977,66.10611 74.40118,66.10611 74.21545,66.23753 L74.04327,66.45336 z" stroke="#000000" stroke-width="0" fill="#EEEEEE" fill-opacity="1" />
  <path d="M75.22948,68.17408 L75.22948,67.72021 L75.62254,67.94714 z" stroke="#000000" stroke-width="0" fill="#555555" fill-opacity="1" />
  <path d="M55.30855,43.20007 L55.48252,42.95757 C55.66825,42.82615 56.13684,42.82615 56.32257,42.95757 L56.49655,43.20007 L56.32257,43.44257 C56.13684,43.57399 55.66825,43.57399 55.48252,43.44257 z" stroke="#000000" stroke-width="0" fill="#555555" fill-opacity="1" />
  <path d="M45.70197,51.12637 L45.70197,50.6725 L46.09503,50.89943 z" stroke="#000000" stroke-width="0" fill="#555555" fill-opacity="1" />
  <path d="M44.51577,49.40565 L44.68795,49.18982 C44.87367,49.0584 45.34227,49.0584 45.52799,49.18982 L45.70197,49.43232 L45.52799,49.67482 C45.34227,49.80624 44.87367,49.80624 44.68795,49.67482 z" stroke="#000000" stroke-width="0" fill="#555555" fill-opacity="1" />
  <path d="M74.04327,66.45336 L74.21545,66.23753 C74.40118,66.10611 74.86977,66.10611 75.0555,66.23753 L75.22948,66.48003 L75.0555,66.72253 C74.86977,66.85396 74.40118,66.85396 74.21545,66.72253 z" stroke="#000000" stroke-width="0" fill="#555555" fill-opacity="1" />
  <path d="M86.02406,60.24778 L85.85007,60.49028 C85.66435,60.6217 85.19576,60.6217 85.01003,60.49028 L84.83615,60.25665 L85.01003,60.00528 C85.19576,59.87386 85.66435,59.87386 85.85007,60.00528 z" stroke="#000000" stroke-width="0" fill="#555555" fill-opacity="1" />
  <path d="M45.70197,52.09637 L45.70197,64.07928 L45.58322,64.28502 C45.34227,64.45321 44.87367,64.45321 44.68795,64.32178 L44.51397,64.07928 L44.51407,49.44119 L44.68795,49.67482 C44.87367,49.80624 45.34227,49.80624 45.52799,49.67482 L45.70187,49.44119 L45.70197,51.12637 L46.09503,50.89943 L46.93508,51.38443 z" stroke="#000000" stroke-width="0" fill="#777777" fill-opacity="1" />
  <path d="M84.83605,64.08272 L86.02406,63.39683 L86.02406,74.89475 L85.90525,75.10052 C85.66435,75.26867 85.19576,75.26867 85.01003,75.13725 L84.83605,74.89475 z" stroke="#000000" stroke-width="0" fill="#777777" fill-opacity="1" />
  <path d="M56.32257,43.44257 L56.49645,43.20894 L56.49655,45.16777 L55.30855,44.48188 L55.30865,43.20894 L55.48252,43.44257 C55.66825,43.57399 56.13684,43.57399 56.32257,43.44257 z" stroke="#000000" stroke-width="0" fill="#777777" fill-opacity="1" />
  <path d="M86.02396,60.25666 L86.02406,62.21549 L84.83605,61.52959 L84.83615,60.25665 L85.01003,60.49028 C85.19576,60.6217 85.66435,60.6217 85.85007,60.49028 z" stroke="#000000" stroke-width="0" fill="#777777" fill-opacity="1" />
  <path d="M75.22948,81.127 L75.11069,81.33276 C74.86977,81.50092 74.40118,81.50092 74.21545,81.3695 L74.04147,81.127 L74.04157,66.48891 L74.21545,66.72253 C74.40118,66.85396 74.86977,66.85396 75.0555,66.72253 L75.22938,66.48891 L75.22948,68.17408 L75.62254,67.94714 L76.46259,68.43214 L75.22948,69.14408 z" stroke="#000000" stroke-width="0" fill="#777777" fill-opacity="1" />
  <path d="M55.30855,57.84703 L55.30855,56.21886 L56.49655,56.90475 L56.49655,57.84703 L56.37775,58.0528 C56.13684,58.22096 55.66825,58.22096 55.48252,58.08953 z" stroke="#000000" stroke-width="0" fill="#777777" fill-opacity="1" />
  <path d="M44.51581,49.40568 L43.99495,49.10496" stroke="#111111" stroke-width="0.24" fill="none" />
  <path d="M44.51399,49.98663 L43.99495,49.68696 L43.99495,49.10496" stroke="#111111" stroke-width="0.24" fill="none" />
  <path d="M53.65544,43.52747 L86.54312,62.51518" stroke="#111111" stroke-width="0.24" fill="none" />
  <path d="M76.88263,68.09267 L75.22952,67.13824" stroke="#111111" stroke-width="0.24" fill="none" />
  <path d="M86.54312,62.51518 L76.88263,68.09267" stroke="#111111" stroke-width="0.24" fill="none" />
  <path d="M86.54312,63.09718 L76.88263,68.67467 L76.88263,68.09267" stroke="#111111" stroke-width="0.24" fill="none" />
  <path d="M86.54312,63.09718 L86.54312,62.51518" stroke="#111111" stroke-width="0.24" fill="none" />
  <path d="M76.46268,68.43213 L75.05552,69.24455" stroke="#111111" stroke-width="0.24" fill="none" />
  <path d="M75.62274,67.94707 L75.05552,68.27455" stroke="#111111" stroke-width="0.24" fill="none" />
  <path d="M84.83605,74.89475 L85.01003,75.13725 C85.19576,75.26867 85.66435,75.26867 85.85007,75.13725 L86.02406,74.89475" stroke="#111111" stroke-width="0.24" fill="none" />
  <path d="M55.30855,57.84703 L55.48252,58.08953 C55.66825,58.22096 56.13684,58.22096 56.32257,58.08953 L56.49655,57.84703" stroke="#111111" stroke-width="0.24" fill="none" />
  <path d="M45.52802,52.19684 L46.93521,51.3844" stroke="#111111" stroke-width="0.24" fill="none" />
  <path d="M45.52802,51.22684 L46.09526,50.89934" stroke="#111111" stroke-width="0.24" fill="none" />
  <path d="M44.51397,64.07928 L44.68795,64.32178 C44.87367,64.45321 45.34227,64.45321 45.52799,64.32178 L45.70197,64.07928" stroke="#111111" stroke-width="0.24" fill="none" />
  <path d="M74.04147,81.127 L74.21545,81.3695 C74.40118,81.50092 74.86977,81.50092 75.0555,81.3695 L75.22948,81.127" stroke="#111111" stroke-width="0.24" fill="none" />
  <path d="M74.21545,66.23753 L74.04147,66.48003" stroke="#111111" stroke-width="0.24" fill="none" />
  <path d="M74.0415,67.03434 L45.70199,50.67252" stroke="#111111" stroke-width="0.24" fill="none" />
  <path d="M84.83605,61.52959 L84.83605,60.24778" stroke="#111111" stroke-width="0.24" fill="none" />
  <path d="M45.70197,52.09637 L45.70197,64.07928" stroke="#111111" stroke-width="0.24" fill="none" />
  <path d="M75.22948,69.14402 L75.22948,81.127" stroke="#111111" stroke-width="0.24" fill="none" />
  <path d="M84.83605,60.24778 L85.01003,60.49028 C85.19576,60.6217 85.66435,60.6217 85.85007,60.49028 L86.02406,60.24778 L85.85007,60.00528 C85.66435,59.87386 85.19576,59.87386 85.01003,60.00528 z" stroke="#111111" stroke-width="0.24" fill="none" />
  <path d="M55.30855,43.20007 L55.48252,43.44257 C55.66825,43.57399 56.13684,43.57399 56.32257,43.44257 L56.49655,43.20007 L56.32257,42.95757 C56.13684,42.82615 55.66825,42.82615 55.48252,42.95757 z" stroke="#111111" stroke-width="0.24" fill="none" />
  <path d="M56.49655,43.20007 L56.49655,45.16777" stroke="#111111" stroke-width="0.24" fill="none" />
  <path d="M74.04147,66.48003 L74.21545,66.72253 C74.40118,66.85396 74.86977,66.85396 75.0555,66.72253 L75.22948,66.48003 L75.0555,66.23753 C74.86977,66.10611 74.40118,66.10611 74.21545,66.23753" stroke="#111111" stroke-width="0.24" fill="none" />
  <path d="M45.52799,49.67482 L45.70197,49.43232" stroke="#111111" stroke-width="0.24" fill="none" />
  <path d="M44.51397,49.43232 L44.68795,49.67482 C44.87367,49.80624 45.34227,49.80624 45.52799,49.67482" stroke="#111111" stroke-width="0.24" fill="none" />
  <path d="M55.30855,57.84703 L55.30855,56.21883" stroke="#111111" stroke-width="0.24" fill="none" />
  <path d="M55.30855,44.48188 L55.30855,43.20007" stroke="#111111" stroke-width="0.24" fill="none" />
  <path d="M56.49655,56.90475 L56.49655,57.84703" stroke="#111111" stroke-width="0.24" fill="none" />
  <path d="M74.0433,66.45338 L45.70206,50.09056" stroke="#111111" stroke-width="0.24" fill="none" />
  <path d="M76.88263,68.67467 L75.2295,67.72024" stroke="#111111" stroke-width="0.24" fill="none" />
  <path d="M43.99495,49.10496 L53.65544,43.52747" stroke="#111111" stroke-width="0.24" fill="none" />
  <path d="M45.70197,49.43232 L45.70197,51.12637" stroke="#000000" stroke-width="0.24" fill="none" />
  <path d="M75.22948,66.48003 L75.22948,68.17408" stroke="#000000" stroke-width="0.24" fill="none" />
  <path d="M45.70197,49.43232 L45.52799,49.18982 C45.34227,49.0584 44.87367,49.0584 44.68795,49.18982 L44.51397,49.43232" stroke="#000000" stroke-width="0.24" fill="none" />
  <path d="M44.51397,64.07928 L44.51397,49.43232" stroke="#000000" stroke-width="0.24" fill="none" />
  <path d="M74.04147,81.127 L74.04147,66.48003" stroke="#000000" stroke-width="0.24" fill="none" />
  <path d="M86.02406,74.89475 L86.02406,63.39683 L86.5431,63.09716 L86.5431,62.51516 L86.02406,62.21549 L86.02396,60.25666 L85.85007,60.00528 C85.66435,59.87386 85.19576,59.87386 85.01003,60.00528 L84.83605,60.24778 L84.83605,61.52959 L56.49655,45.16777 L56.49645,43.20894 L56.32257,42.95757 C56.13684,42.82615 55.66825,42.82615 55.48252,42.95757 L55.30855,43.20007 L55.30855,44.48188 L53.65542,43.52745 L43.99493,49.10493 L43.99493,49.68694 L44.51397,49.98661 L44.51397,64.07928" stroke="#000000" stroke-width="0.24" fill="none" />
  <path d="M45.70199,64.07932 L45.70199,52.09639 L46.9351,51.38446 L55.30857,56.21888 L55.30857,57.84706" stroke="#000000" stroke-width="0.24" fill="none" />
  <path d="M56.49657,57.84706 L56.49657,56.90477 L74.0415,67.03434 L74.0415,81.12702" stroke="#000000" stroke-width="0.24" fill="none" />
  <path d="M75.2295,81.12702 L75.2295,69.1441 L76.46261,68.43217 L76.88263,68.67467 L84.83607,64.08274 L84.83607,74.89478" stroke="#000000" stroke-width="0.24" fill="none" />
</svg>