<?xml version="1.0" encoding="utf-8" standalone="no"?>
<!DOCTYPE svg PUBLIC "-//W3C//DTD SVG 1.1//EN" "http://www.w3.org/Graphics/SVG/1.1/DTD/svg11.dtd">
<svg version="1.1" width="119.76pt" height="119.76pt" viewBox="0 0 119.76 119.76" overflow="visible" xmlns="http://www.w3.org/2000/svg">
  <path d="M45.71672,66.45336 L74.058,50.09054 L74.05803,50.6725 L45.71852,67.03432 z" stroke="#000000" stroke-width="0" fill="#BBBBBB" fill-opacity="1" />
  <path d="M75.76508,49.68694 L75.24603,49.98661 L75.24593,49.4412 L75.76508,49.10493 z" stroke="#000000" stroke-width="0" fill="#BBBBBB" fill-opacity="1" />
  <path d="M42.8774,68.09264 L44.53052,67.13822 L44.53053,67.72021 L42.8774,68.67464 z" stroke="#000000" stroke-width="0" fill="#BBBBBB" fill-opacity="1" />
  <path d="M42.8774,68.67464 L33.2169,63.09716 L33.2169,62.51516 L42.8774,68.09264 z" stroke="#000000" stroke-width="0" fill="#CCCCCC" fill-opacity="1" />
  <path d="M74.058,50.09054 L45.71672,66.45336 L45.54454,66.23753 C45.35882,66.10611 44.89023,66.10611 44.7045,66.23753 L44.53053,66.48003 L44.53052,67.13822 L42.8774,68.09264 L33.2169,62.51516 L66.10458,43.52745 L75.76508,49.10493 L75.24423,49.40564 L75.07205,49.18982 C74.88632,49.0584 74.41773,49.0584 74.23201,49.18982 L74.05803,49.43232 z" stroke="#000000" stroke-width="0" fill="#EEEEEE" fill-opacity="1" />
  <path d="M44.53053,68.17408 L44.13746,67.94714 L44.53053,67.72021 z" stroke="#000000" stroke-width="0" fill="#555555" fill-opacity="1" />
  <path d="M64.45135,43.20894 L64.27747,43.44257 C64.09175,43.57399 63.62316,43.57399 63.43743,43.44257 L63.26345,43.20007 L63.43743,42.95757 C63.62316,42.82615 64.09175,42.82615 64.27747,42.95757 z" stroke="#000000" stroke-width="0" fill="#555555" fill-opacity="1" />
  <path d="M75.24593,49.44119 L75.07205,49.67482 C74.88632,49.80624 74.41773,49.80624 74.23201,49.67482 L74.05813,49.44119 L74.23201,49.18982 C74.41773,49.0584 74.88632,49.0584 75.07205,49.18982 z" stroke="#000000" stroke-width="0" fill="#555555" fill-opacity="1" />
  <path d="M45.71843,66.48891 L45.54454,66.72253 C45.35882,66.85396 44.89023,66.85396 44.7045,66.72253 L44.53062,66.48891 L44.7045,66.23753 C44.89023,66.10611 45.35882,66.10611 45.54454,66.23753 z" stroke="#000000" stroke-width="0" fill="#555555" fill-opacity="1" />
  <path d="M33.73595,60.24778 L33.90992,60.00528 C34.09565,59.87386 34.56424,59.87386 34.74997,60.00528 L34.92395,60.24778 L34.74997,60.49028 C34.56424,60.6217 34.09565,60.6217 33.90992,60.49028 z" stroke="#000000" stroke-width="0" fill="#555555" fill-opacity="1" />
  <path d="M74.05803,51.12637 L73.66497,50.89943 L74.05803,50.6725 z" stroke="#000000" stroke-width="0" fill="#555555" fill-opacity="1" />
  <path d="M63.43743,43.44257 C63.62316,43.57399 64.09175,43.57399 64.27747,43.44257 L64.45135,43.20894 L64.45145,44.48188 L63.26345,45.16777 L63.26355,43.20894 z" stroke="#000000" stroke-width="0" fill="#777777" fill-opacity="1" />
  <path d="M74.05803,52.09637 L72.82492,51.38443 L73.66497,50.89943 L74.05803,51.12637 L74.05813,49.44119 L74.23201,49.67482 C74.41773,49.80624 74.88632,49.80624 75.07205,49.67482 L75.24593,49.44119 L75.24603,64.07928 L75.12723,64.28506 C74.88632,64.45321 74.41773,64.45321 74.23201,64.32178 L74.05803,64.07928 z" stroke="#000000" stroke-width="0" fill="#777777" fill-opacity="1" />
  <path d="M33.73605,60.25666 L33.90992,60.49028 C34.09565,60.6217 34.56424,60.6217 34.74997,60.49028 L34.92385,60.25665 L34.92395,61.52959 L33.73595,62.21549 z" stroke="#000000" stroke-width="0" fill="#777777" fill-opacity="1" />
  <path d="M64.45145,57.84703 L64.33265,58.0528 C64.09175,58.22096 63.62316,58.22096 63.43743,58.08953 L63.26345,57.84703 L63.26345,56.90475 L64.45145,56.21886 z" stroke="#000000" stroke-width="0" fill="#777777" fill-opacity="1" />
  <path d="M44.53053,81.127 L44.53053,69.14408 L43.29742,68.43214 L44.13746,67.94714 L44.53053,68.17408 L44.53062,66.48891 L44.7045,66.72253 C44.89023,66.85396 45.35882,66.85396 45.54454,66.72253 L45.71843,66.48891 L45.71852,81.127 L45.59972,81.33277 C45.35882,81.50092 44.89023,81.50092 44.7045,81.3695 z" stroke="#000000" stroke-width="0" fill="#777777" fill-opacity="1" />
  <path d="M34.92395,64.08272 L34.92395,74.89475 L34.80515,75.10052 C34.56424,75.26867 34.09565,75.26867 33.90992,75.13725 L33.73595,74.89475 L33.73595,63.39683 z" stroke="#000000" stroke-width="0" fill="#777777" fill-opacity="1" />
  <path d="M75.24424,49.40568 L75.7651,49.10496" stroke="#111111" stroke-width="0.24" fill="none" />
  <path d="M75.24606,49.98663 L75.7651,49.68696 L75.7651,49.10496 L66.10461,43.52747 L33.21693,62.51518" stroke="#111111" stroke-width="0.24" fill="none" />
  <path d="M42.87742,68.09267 L44.53054,67.13824" stroke="#111111" stroke-width="0.24" fill="none" />
  <path d="M42.87742,68.67467 L44.53055,67.72024" stroke="#111111" stroke-width="0.24" fill="none" />
  <path d="M33.21693,62.51518 L42.87742,68.09267" stroke="#111111" stroke-width="0.24" fill="none" />
  <path d="M33.21693,63.09718 L42.87742,68.67467 L42.87742,68.09267" stroke="#111111" stroke-width="0.24" fill="none" />
  <path d="M33.21693,63.09718 L33.21693,62.51518" stroke="#111111" stroke-width="0.24" fill="none" />
  <path d="M43.29737,68.43213 L44.70452,69.24455" stroke="#111111" stroke-width="0.24" fill="none" />
  <path d="M44.13731,67.94707 L44.70452,68.27455" stroke="#111111" stroke-width="0.24" fill="none" />
  <path d="M64.45145,57.84703 L64.27747,58.08953 C64.09175,58.22096 63.62316,58.22096 63.43743,58.08953 L63.26345,57.84703" stroke="#111111" stroke-width="0.24" fill="none" />
  <path d="M74.23203,52.19684 L72.82484,51.3844" stroke="#111111" stroke-width="0.24" fill="none" />
  <path d="M74.23203,51.22684 L73.66478,50.89934" stroke="#111111" stroke-width="0.24" fill="none" />
  <path d="M75.24603,64.07928 L75.07205,64.32178 C74.88632,64.45321 74.41773,64.45321 74.23201,64.32178 L74.05803,64.07928" stroke="#111111" stroke-width="0.24" fill="none" />
  <path d="M45.71852,81.127 L45.54454,81.3695 C45.35882,81.50092 44.89023,81.50092 44.7045,81.3695 L44.53053,81.127" stroke="#111111" stroke-width="0.24" fill="none" />
  <path d="M45.54454,66.23753 L45.71852,66.48003 L74.05798,50.09056" stroke="#111111" stroke-width="0.24" fill="none" />
  <path d="M45.71855,67.03434 L74.05805,50.67252" stroke="#111111" stroke-width="0.24" fill="none" />
  <path d="M34.92395,61.52959 L34.92395,60.24778" stroke="#111111" stroke-width="0.24" fill="none" />
  <path d="M63.26345,56.90475 L63.26345,57.84703" stroke="#111111" stroke-width="0.24" fill="none" />
  <path d="M74.05803,52.09637 L74.05803,64.07928" stroke="#111111" stroke-width="0.24" fill="none" />
  <path d="M34.92395,60.24778 L34.74997,60.49028 C34.56424,60.6217 34.09565,60.6217 33.90992,60.49028 L33.73595,60.24778 L33.90992,60.00528 C34.09565,59.87386 34.56424,59.87386 34.74997,60.00528" stroke="#111111" stroke-width="0.24" fill="none" />
  <path d="M64.45145,43.20007 L64.27747,43.44257 C64.09175,43.57399 63.62316,43.57399 63.43743,43.44257 L63.26345,43.20007 L63.43743,42.95757 C63.62316,42.82615 64.09175,42.82615 64.27747,42.95757 z" stroke="#111111" stroke-width="0.24" fill="none" />
  <path d="M63.26345,43.20007 L63.26345,45.16777" stroke="#111111" stroke-width="0.24" fill="none" />
  <path d="M64.45145,57.84703 L64.45145,56.21883" stroke="#111111" stroke-width="0.24" fill="none" />
  <path d="M75.24603,49.43232 L75.07205,49.67482 C74.88632,49.80624 74.41773,49.80624 74.23201,49.67482" stroke="#111111" stroke-width="0.24" fill="none" />
  <path d="M45.71852,66.48003 L45.54454,66.72253 C45.35882,66.85396 44.89023,66.85396 44.7045,66.72253 L44.53053,66.48003" stroke="#111111" stroke-width="0.24" fill="none" />
  <path d="M74.23201,49.67482 L74.05803,49.43232" stroke="#111111" stroke-width="0.24" fill="none" />
  <path d="M44.53053,66.48003 L44.7045,66.23753 C44.89023,66.10611 45.35882,66.10611 45.54454,66.23753" stroke="#111111" stroke-width="0.24" fill="none" />
  <path d="M34.74997,60.00528 L34.92395,60.24778" stroke="#111111" stroke-width="0.24" fill="none" />
  <path d="M44.53053,69.14402 L44.53053,81.127" stroke="#111111" stroke-width="0.24" fill="none" />
  <path d="M64.45145,44.48188 L64.45145,43.20007" stroke="#111111" stroke-width="0.24" fill="none" />
  <path d="M34.92395,74.89475 L34.74997,75.13725 C34.56424,75.26867 34.09565,75.26867 33.90992,75.13725 L33.73595,74.89475" stroke="#111111" stroke-width="0.24" fill="none" />
  <path d="M74.05803,49.43232 L74.05803,51.12637" stroke="#000000" stroke-width="0.24" fill="none" />
  <path d="M44.53053,66.48003 L44.53053,68.17408" stroke="#000000" stroke-width="0.24" fill="none" />
  <path d="M74.05803,49.43232 L74.23201,49.18982 C74.41773,49.0584 74.88632,49.0584 75.07205,49.18982 L75.24603,49.43232" stroke="#000000" stroke-width="0.24" fill="none" />
  <path d="M75.24603,64.07928 L75.24603,49.43232" stroke="#000000" stroke-width="0.24" fill="none" />
  <path d="M45.71852,81.127 L45.71852,66.48003" stroke="#000000" stroke-width="0.24" fill="none" />
  <path d="M33.73595,74.89475 L33.73595,63.39683 L33.2169,63.09716 L33.2169,62.51516 L33.73595,62.21549 L33.73605,60.25666 L33.90992,60.00528 C34.09565,59.87386 34.56424,59.87386 34.74997,60.00528 L34.92395,60.24778 L34.92395,61.52959 L63.26345,45.16777 L63.26355,43.20894 L63.43743,42.95757 C63.62316,42.82615 64.09175,42.82615 64.27747,42.95757 L64.45145,43.20007 L64.45145,44.48188 L66.10458,43.52745 L75.76508,49.10493 L75.76508,49.68694 L75.24603,49.98661 L75.24603,64.07928" stroke="#000000" stroke-width="0.24" fill="none" />
  <path d="M74.05805,64.07932 L74.05805,52.09639 L72.82495,51.38446 L64.45148,56.21888 L64.45148,57.84706" stroke="#000000" stroke-width="0.24" fill="none" />
  <path d="M63.26348,57.84706 L63.26348,56.90477 L45.71855,67.03434 L45.71855,81.12702" stroke="#000000" stroke-width="0.24" fill="none" />
  <path d="M44.53055,81.12702 L44.53055,69.1441 L43.29744,68.43217 L42.87742,68.67467 L34.92397,64.08274 L34.92397,74.89478" stroke="#000000" stroke-width="0.24" fill="none" />
</svg>