<?xml version="1.0" encoding="utf-8" standalone="no"?><!DOCTYPE svg PUBLIC "-//W3C//DTD SVG 1.1//EN" "http://www.w3.org/Graphics/SVG/1.1/DTD/svg11.dtd"><svg xmlns="http://www.w3.org/2000/svg" version="1.1" width="120pt" height="120pt" viewBox="0 0 120 120" overflow="visible">
  <path d="M63.57082,56.17413 L63.39694,56.40775 C63.21122,56.53918 62.74263,56.53918 62.5569,56.40775 L62.38302,56.17413 L62.5569,55.92275 C62.74263,55.79133 63.21122,55.79133 63.39694,55.92275 z" stroke="Black" stroke-width="0" fill="#555555" fill-opacity="1"/>
  <path d="M52.7763,49.94191 L52.60242,50.17553 C52.44597,50.27935 52.08923,50.31252 51.87194,50.22541 L51.5886,49.94191 L51.76237,49.69053 C51.9481,49.55911 52.41669,49.55911 52.60242,49.69053 z" stroke="Black" stroke-width="0" fill="#555555" fill-opacity="1"/>
  <path d="M62.38292,57.8593 L51.87193,51.79078 C52.08925,51.87786 52.44591,51.84467 52.60234,51.74087 L52.77636,51.49837 L62.38292,56.89945 z" stroke="Black" stroke-width="0" fill="#555555" fill-opacity="1"/>
  <path d="M62.38292,70.81223 L62.38292,58.8293 L52.7764,53.28297 L52.7764,64.58 L52.60242,64.8225 C52.41669,64.95393 51.9481,64.95393 51.76237,64.8225 L51.5884,64.58 L51.5885,49.94191 L51.76237,50.17553 C52.08923,50.31252 52.44597,50.27935 52.60242,50.17553 L52.7763,49.94191 L52.77636,51.49837 L52.60234,51.74087 C52.44591,51.84467 52.08925,51.87786 51.87195,51.79078 L62.38292,57.8593 L62.38302,56.17413 L62.5569,56.40775 C62.74263,56.53918 63.21122,56.53918 63.39694,56.40775 L63.57082,56.17413 L63.57092,70.81223 L63.39694,71.05473 C63.21122,71.18614 62.74263,71.18614 62.5569,71.05473 z" stroke="Black" stroke-width="0" fill="#777777" fill-opacity="1"/>
  <path d="M52.77642,53.283 L52.77642,64.58002" stroke="#000000" stroke-width="0.24" fill="none"/>
  <path d="M51.58842,64.58002 L51.58842,49.93306" stroke="#000000" stroke-width="0.24" fill="none"/>
  <path d="M62.38295,56.89948 L52.77642,51.35315" stroke="#000000" stroke-width="0.24" fill="none"/>
  <path d="M62.55695,58.92979 L51.87195,52.7608" stroke="#000000" stroke-width="0.24" fill="none"/>
  <path d="M62.38295,70.81225 L62.38295,58.82933" stroke="#000000" stroke-width="0.24" fill="none"/>
  <path d="M62.38292,56.16525 L62.38292,57.8593" stroke="#000000" stroke-width="0.24" fill="none"/>
  <path d="M63.39694,55.92275 L63.57092,56.16525" stroke="#000000" stroke-width="0.24" fill="none"/>
  <path d="M63.57092,70.81223 L63.57092,56.16525" stroke="#000000" stroke-width="0.24" fill="none"/>
  <path d="M62.38292,56.16525 L62.5569,55.92275 C62.74263,55.79133 63.21122,55.79133 63.39694,55.92275" stroke="#000000" stroke-width="0.24" fill="none"/>
  <path d="M51.5884,49.93303 L51.76237,49.69053 C51.9481,49.55911 52.41669,49.55911 52.60242,49.69053 L52.77642,51.49839" stroke="#000000" stroke-width="0.24" fill="none"/>
  <path d="M52.77632,51.49837 L52.60234,51.74087 C52.4459,51.84468 52.08922,51.87786 51.87193,51.79077" stroke="#111111" stroke-width="0.24" fill="none"/>
  <path d="M52.7764,51.21482 L52.7764,49.93303" stroke="#111111" stroke-width="0.24" fill="none"/>
  <path d="M63.57092,70.81223 L63.39694,71.05473 C63.21122,71.18614 62.74263,71.18614 62.5569,71.05473 L62.38292,70.81223" stroke="#111111" stroke-width="0.24" fill="none"/>
  <path d="M63.57092,56.16525 L63.39694,56.40775 C63.21122,56.53918 62.74263,56.53918 62.5569,56.40775 L62.38292,56.16525" stroke="#111111" stroke-width="0.24" fill="none"/>
  <path d="M51.5884,49.93303 L51.76237,49.69053 C51.9481,49.55911 52.41669,49.55911 52.60242,49.69053 L52.7764,49.93303" stroke="#111111" stroke-width="0.24" fill="none"/>
  <path d="M52.7764,64.58 L52.60242,64.8225 C52.41669,64.95393 51.9481,64.95393 51.76237,64.8225 L51.5884,64.58" stroke="#111111" stroke-width="0.24" fill="none"/>
  <path d="M52.7764,49.93303 L52.60242,50.17553 C52.41669,50.30695 51.9481,50.30695 51.76237,50.17553 L51.5884,49.93303" stroke="#111111" stroke-width="0.24" fill="none"/>
  <path d="M62.55695,57.95979 L51.87195,51.7908" stroke="#111111" stroke-width="0.24" fill="none"/>
</svg>