<?xml version="1.0" encoding="utf-8" standalone="no"?>
<!DOCTYPE svg PUBLIC "-//W3C//DTD SVG 1.1//EN" "http://www.w3.org/Graphics/SVG/1.1/DTD/svg11.dtd">
<svg version="1.1" width="119.76pt" height="119.76pt" viewBox="0 0 119.76 119.76" overflow="visible" xmlns="http://www.w3.org/2000/svg">
  <path d="M68.48343,64.10403 L68.48333,64.64944 L40.14382,48.28761 L40.14382,47.70562 z" stroke="#000000" stroke-width="0" fill="#BBBBBB" fill-opacity="1" />
  <path d="M40.14382,63.08008 L40.14382,62.49809 L68.48333,78.85991 L68.48333,79.4419 z" stroke="#000000" stroke-width="0" fill="#BBBBBB" fill-opacity="1" />
  <path d="M71.32442,80.50024 L71.32442,81.08224 L69.67133,80.1278 L69.67133,79.5458 z" stroke="#000000" stroke-width="0" fill="#BBBBBB" fill-opacity="1" />
  <path d="M38.95582,61.81219 L38.95582,62.39419 L38.43675,62.09454 L38.43675,61.51254 z" stroke="#000000" stroke-width="0" fill="#BBBBBB" fill-opacity="1" />
  <path d="M69.67133,65.33533 L69.67136,64.75336 L71.32442,65.70778 L71.32442,66.28978 z" stroke="#000000" stroke-width="0" fill="#BBBBBB" fill-opacity="1" />
  <path d="M71.32442,80.50024 L80.98492,74.92276 L80.98492,75.50476 L71.32442,81.08224 z" stroke="#000000" stroke-width="0" fill="#CCCCCC" fill-opacity="1" />
  <path d="M71.32442,66.28978 L71.32442,65.70778 L80.98492,60.13029 L80.98492,60.71229 z" stroke="#000000" stroke-width="0" fill="#CCCCCC" fill-opacity="1" />
  <path d="M69.67133,79.5458 L69.67133,68.39082 L80.98492,74.92276 L71.32442,80.50024 z" stroke="#000000" stroke-width="0" fill="#EEEEEE" fill-opacity="1" />
  <path d="M68.48333,67.70493 L68.48333,78.85991 L40.14382,62.49809 L40.14383,60.52684 L48.09726,55.93503 z" stroke="#000000" stroke-width="0" fill="#EEEEEE" fill-opacity="1" />
  <path d="M68.6573,63.85265 L68.48513,64.06848 L40.14382,47.70562 L40.14382,47.04744 L39.96984,46.80494 C39.78411,46.67351 39.31553,46.67351 39.1298,46.80494 L38.95582,47.04744 L38.95582,47.60172 L38.43675,47.30207 L38.43675,46.72007 L48.09724,41.14258 L49.75037,42.09698 L49.75047,40.82407 L49.92435,41.0577 C50.11007,41.18912 50.57867,41.18912 50.76439,41.0577 L50.93827,40.82407 L50.93837,42.78288 L79.27788,59.1447 L79.27798,57.87179 L79.45186,58.10541 C79.63758,58.23684 80.10617,58.23684 80.2919,58.10541 L80.46577,57.87179 L80.46587,59.83059 L80.98492,60.13029 L71.32442,65.70778 L69.67136,64.75336 L69.67123,64.10403 L69.49734,63.85265 C69.31162,63.72123 68.84303,63.72123 68.6573,63.85265 z" stroke="#000000" stroke-width="0" fill="#EEEEEE" fill-opacity="1" />
  <path d="M38.43675,61.51254 L38.95582,61.21285 L38.95582,61.81219 z" stroke="#000000" stroke-width="0" fill="#EEEEEE" fill-opacity="1" />
  <path d="M38.95762,47.02076 L39.1298,46.80494 C39.31553,46.67351 39.78411,46.67351 39.96984,46.80494 L40.14382,47.04744 L39.96984,47.28994 C39.78411,47.42136 39.31553,47.42136 39.1298,47.28994 z" stroke="#000000" stroke-width="0" fill="#555555" fill-opacity="1" />
  <path d="M49.75037,40.8152 L49.92435,40.5727 C50.11007,40.44128 50.57867,40.44128 50.76439,40.5727 L50.93837,40.8152 L50.76439,41.0577 C50.57867,41.18912 50.11007,41.18912 49.92435,41.0577 z" stroke="#000000" stroke-width="0" fill="#555555" fill-opacity="1" />
  <path d="M40.14382,48.28761 L40.53688,48.51455 L40.14382,48.74149 z" stroke="#000000" stroke-width="0" fill="#555555" fill-opacity="1" />
  <path d="M69.67133,65.33533 L70.06439,65.56226 L69.67133,65.7892 z" stroke="#000000" stroke-width="0" fill="#555555" fill-opacity="1" />
  <path d="M68.48512,64.06848 L68.6573,63.85265 C68.84303,63.72123 69.31162,63.72123 69.49734,63.85265 L69.67133,64.09515 L69.49734,64.33765 C69.31162,64.46907 68.84303,64.46907 68.6573,64.33765 z" stroke="#000000" stroke-width="0" fill="#555555" fill-opacity="1" />
  <path d="M79.27788,57.86291 L79.45186,57.62041 C79.63758,57.48899 80.10617,57.48899 80.2919,57.62041 L80.46587,57.86291 L80.2919,58.10541 C80.10617,58.23684 79.63758,58.23684 79.45186,58.10541 z" stroke="#000000" stroke-width="0" fill="#555555" fill-opacity="1" />
  <path d="M70.06439,80.35473 L69.67135,80.58161 L69.67133,80.1278 z" stroke="#000000" stroke-width="0" fill="#555555" fill-opacity="1" />
  <path d="M40.14382,63.53395 L40.14382,63.08008 L40.53688,63.30702 z" stroke="#000000" stroke-width="0" fill="#555555" fill-opacity="1" />
  <path d="M80.46577,57.87179 L80.46587,59.83059 L79.27788,59.1447 L79.27798,57.87179 L79.45186,58.10541 C79.63758,58.23684 80.10617,58.23684 80.2919,58.10541 z" stroke="#000000" stroke-width="0" fill="#777777" fill-opacity="1" />
  <path d="M50.76439,41.0577 L50.93827,40.82407 L50.93837,42.78288 L49.75037,42.09698 L49.75047,40.82407 L49.92435,41.0577 C50.11007,41.18912 50.57867,41.18912 50.76439,41.0577 z" stroke="#000000" stroke-width="0" fill="#777777" fill-opacity="1" />
  <path d="M69.67135,80.58161 L70.06439,80.35473 L70.90443,80.83973 L69.67133,81.55167 L69.67133,84.5621 L69.49734,84.8046 C69.31162,84.93603 68.84303,84.93603 68.6573,84.8046 L68.48333,84.5621 L68.48343,64.10403 L68.6573,64.33765 C68.84303,64.46907 69.31162,64.46907 69.49734,64.33765 L69.67123,64.10403 L69.67133,65.7892 L70.06439,65.56226 L70.90443,66.04726 L69.67133,66.75919 z" stroke="#000000" stroke-width="0" fill="#777777" fill-opacity="1" />
  <path d="M38.95592,47.05631 L39.1298,47.28994 C39.31553,47.42136 39.78411,47.42136 39.96984,47.28994 L40.14372,47.05631 L40.14382,48.74149 L40.53688,48.51455 L41.37693,48.99955 L40.14382,49.71148 L40.14382,63.53395 L40.53688,63.30702 L41.37693,63.79202 L40.14382,64.50395 L40.14382,67.51439 L39.96984,67.75689 C39.78411,67.88831 39.31553,67.88831 39.1298,67.75689 L38.95582,67.51439 z" stroke="#000000" stroke-width="0" fill="#777777" fill-opacity="1" />
  <path d="M49.75037,56.88945 L49.75037,53.83396 L50.93837,54.51985 L50.93837,57.57534 z" stroke="#000000" stroke-width="0" fill="#777777" fill-opacity="1" />
  <path d="M80.46587,78.32987 L80.2919,78.57236 C80.10617,78.70379 79.63758,78.70379 79.45186,78.57236 L79.28397,78.37753 L79.27788,76.49032 L80.46587,75.80443 z" stroke="#000000" stroke-width="0" fill="#777777" fill-opacity="1" />
  <path d="M79.27786,73.93713 L79.27787,61.69785 L80.46587,61.01196 L80.46587,74.62305 z" stroke="#000000" stroke-width="0" fill="#777777" fill-opacity="1" />
  <path d="M79.27788,78.32987 L79.45186,78.57236 C79.63758,78.70379 80.10617,78.70379 80.2919,78.57236 L80.46587,78.32987" stroke="#111111" stroke-width="0.24" fill="none" />
  <path d="M38.43677,47.30209 L38.43677,46.72009" stroke="#111111" stroke-width="0.24" fill="none" />
  <path d="M38.43677,61.51256 L38.95591,61.21283" stroke="#111111" stroke-width="0.24" fill="none" />
  <path d="M40.14386,60.52686 L48.09728,55.93505" stroke="#111111" stroke-width="0.24" fill="none" />
  <path d="M38.43677,62.09456 L38.43677,61.51256" stroke="#111111" stroke-width="0.24" fill="none" />
  <path d="M38.95584,62.39421 L38.43677,62.09456" stroke="#111111" stroke-width="0.24" fill="none" />
  <path d="M38.95584,61.81222 L38.43677,61.51256" stroke="#111111" stroke-width="0.24" fill="none" />
  <path d="M48.09728,55.93505 L68.48337,67.70496" stroke="#111111" stroke-width="0.24" fill="none" />
  <path d="M80.98495,75.50478 L80.98495,74.92278" stroke="#111111" stroke-width="0.24" fill="none" />
  <path d="M80.98495,75.50478 L71.32445,81.08227 L71.32445,80.50027" stroke="#111111" stroke-width="0.24" fill="none" />
  <path d="M80.98495,74.92278 L71.32445,80.50027" stroke="#111111" stroke-width="0.24" fill="none" />
  <path d="M80.98495,60.71231 L80.98495,60.13031" stroke="#111111" stroke-width="0.24" fill="none" />
  <path d="M71.32445,66.2898 L71.32445,65.7078" stroke="#111111" stroke-width="0.24" fill="none" />
  <path d="M80.98495,60.13031 L71.32445,65.7078" stroke="#111111" stroke-width="0.24" fill="none" />
  <path d="M71.32445,80.50027 L69.67135,79.54582" stroke="#111111" stroke-width="0.24" fill="none" />
  <path d="M71.32445,81.08227 L69.67135,80.12782" stroke="#111111" stroke-width="0.24" fill="none" />
  <path d="M80.98495,60.71231 L71.32445,66.2898 L69.67135,65.33535" stroke="#111111" stroke-width="0.24" fill="none" />
  <path d="M71.32445,65.7078 L69.67142,64.75339" stroke="#111111" stroke-width="0.24" fill="none" />
  <path d="M79.45186,57.62041 L79.27788,57.86291" stroke="#111111" stroke-width="0.24" fill="none" />
  <path d="M80.46587,57.86291 L80.46587,59.83059" stroke="#111111" stroke-width="0.24" fill="none" />
  <path d="M80.46587,57.86291 L80.2919,57.62041 C80.10617,57.48899 79.63758,57.48899 79.45186,57.62041 L79.45186,58.10541 C79.63758,58.23684 80.10617,58.23684 80.2919,58.10541 z" stroke="#111111" stroke-width="0.24" fill="none" />
  <path d="M39.96984,67.75689 L40.14382,67.51439" stroke="#111111" stroke-width="0.24" fill="none" />
  <path d="M38.95582,67.51439 L39.1298,67.75689 C39.31553,67.88831 39.78411,67.88831 39.96984,67.75689" stroke="#111111" stroke-width="0.24" fill="none" />
  <path d="M39.96984,47.28994 L40.14382,47.04744" stroke="#111111" stroke-width="0.24" fill="none" />
  <path d="M38.95582,47.04744 L39.1298,47.28994 C39.31553,47.42136 39.78411,47.42136 39.96984,47.28994" stroke="#111111" stroke-width="0.24" fill="none" />
  <path d="M79.27788,59.1447 L79.27788,57.86291" stroke="#111111" stroke-width="0.24" fill="none" />
  <path d="M68.48333,84.5621 L68.6573,84.8046 C68.84303,84.93603 69.31162,84.93603 69.49734,84.8046 L69.67133,84.5621" stroke="#111111" stroke-width="0.24" fill="none" />
  <path d="M50.93837,40.8152 L50.93837,42.78288" stroke="#111111" stroke-width="0.24" fill="none" />
  <path d="M50.93837,40.8152 L50.76439,40.5727 C50.57867,40.44128 50.11007,40.44128 49.92435,40.5727 L49.75037,40.8152 L49.92435,41.0577 C50.11007,41.18912 50.57867,41.18912 50.76439,41.0577" stroke="#111111" stroke-width="0.24" fill="none" />
  <path d="M49.75037,56.88945 L49.75037,53.83396" stroke="#111111" stroke-width="0.24" fill="none" />
  <path d="M49.75037,42.09698 L49.75037,40.8152" stroke="#111111" stroke-width="0.24" fill="none" />
  <path d="M68.48335,64.64946 L40.14384,48.28764" stroke="#111111" stroke-width="0.24" fill="none" />
  <path d="M68.48516,64.0685 L40.14384,47.70564" stroke="#111111" stroke-width="0.24" fill="none" />
  <path d="M38.95582,67.51439 L38.95582,47.04744" stroke="#111111" stroke-width="0.24" fill="none" />
  <path d="M40.14382,47.04744 L40.14382,48.74149" stroke="#111111" stroke-width="0.24" fill="none" />
  <path d="M40.14382,49.71148 L40.14382,63.53395" stroke="#111111" stroke-width="0.24" fill="none" />
  <path d="M70.06457,80.35467 L69.49737,80.68214" stroke="#111111" stroke-width="0.24" fill="none" />
  <path d="M70.90451,80.83973 L69.49737,81.65214" stroke="#111111" stroke-width="0.24" fill="none" />
  <path d="M68.6573,63.85265 L68.48333,64.09515" stroke="#111111" stroke-width="0.24" fill="none" />
  <path d="M70.06462,65.56217 L69.49737,65.88967" stroke="#111111" stroke-width="0.24" fill="none" />
  <path d="M70.90456,66.04723 L69.49737,66.85966" stroke="#111111" stroke-width="0.24" fill="none" />
  <path d="M39.96986,48.84196 L40.53714,48.51443" stroke="#111111" stroke-width="0.24" fill="none" />
  <path d="M39.96986,49.81195 L41.37709,48.99949" stroke="#111111" stroke-width="0.24" fill="none" />
  <path d="M39.96986,63.63443 L40.53709,63.30694" stroke="#111111" stroke-width="0.24" fill="none" />
  <path d="M39.96986,64.60442 L41.37703,63.79199" stroke="#111111" stroke-width="0.24" fill="none" />
  <path d="M68.48335,78.85993 L40.14384,62.49811" stroke="#111111" stroke-width="0.24" fill="none" />
  <path d="M50.93837,54.5196 L50.93837,57.57534" stroke="#111111" stroke-width="0.24" fill="none" />
  <path d="M40.14382,64.50388 L40.14382,67.51439" stroke="#111111" stroke-width="0.24" fill="none" />
  <path d="M50.76439,41.0577 L50.93837,40.8152" stroke="#111111" stroke-width="0.24" fill="none" />
  <path d="M68.48333,64.09515 L68.6573,64.33765 C68.84303,64.46907 69.31162,64.46907 69.49734,64.33765 L69.67133,64.09515" stroke="#111111" stroke-width="0.24" fill="none" />
  <path d="M69.67133,81.55167 L69.67133,84.5621" stroke="#111111" stroke-width="0.24" fill="none" />
  <path d="M68.48333,84.5621 L68.48333,64.09515" stroke="#000000" stroke-width="0.24" fill="none" />
  <path d="M69.67133,66.75906 L69.67133,80.58157" stroke="#000000" stroke-width="0.24" fill="none" />
  <path d="M69.67133,64.09515 L69.67133,65.7892" stroke="#000000" stroke-width="0.24" fill="none" />
  <path d="M69.67133,64.09515 L69.49734,63.85265 C69.31162,63.72123 68.84303,63.72123 68.6573,63.85265" stroke="#000000" stroke-width="0.24" fill="none" />
  <path d="M40.14382,47.04744 L39.96984,46.80494 C39.78411,46.67351 39.31553,46.67351 39.1298,46.80494 L38.95582,47.04744" stroke="#000000" stroke-width="0.24" fill="none" />
  <path d="M71.32442,81.08224 L80.98492,75.50476 L80.98492,74.92276 L80.46587,74.62305 L80.46587,61.01196 L80.98492,60.71229 L80.98492,60.13029 L80.46587,59.83059 L80.46577,57.87179 L80.2919,57.62041 C80.10617,57.48899 79.63758,57.48899 79.45186,57.62041 L79.27788,57.86291 L79.27788,59.1447 L50.93837,42.78288 L50.93827,40.82407 L50.76439,40.5727 C50.57867,40.44128 50.11007,40.44128 49.92435,40.5727 L49.75037,40.8152 L49.75037,42.09698 L48.09724,41.14258 L38.43675,46.72007 L38.43675,47.30207 L38.95582,47.60172 L38.95582,61.21285 L38.43675,61.51254 L38.43675,62.09454 L38.95582,62.39419 L38.95582,67.51439 L39.1298,67.75689 C39.31553,67.88831 39.78411,67.88831 39.96984,67.75689 L40.14382,67.51439 L40.14382,64.50395 L41.37693,63.79202 L68.48333,79.4419 L68.48333,84.5621 L68.6573,84.8046 C68.84303,84.93603 69.31162,84.93603 69.49734,84.8046 L69.67133,84.5621 L69.67133,81.55167 L70.90443,80.83973 z" stroke="#000000" stroke-width="0.24" fill="none" />
  <path d="M79.27788,76.49032 L79.27788,78.32987 L79.45186,78.57236 C79.63758,78.70379 80.10617,78.70379 80.2919,78.57236 L80.46587,78.32987 L80.46587,75.80443" stroke="#000000" stroke-width="0.24" fill="none" />
  <path d="M50.93839,57.57537 L50.93839,54.51987 L68.48335,64.64946 L68.48335,67.70496 z" stroke="#000000" stroke-width="0.24" fill="none" />
  <path d="M71.32445,66.2898 L79.2779,61.69788 L79.27789,73.93716 L69.67135,68.39085 L69.67135,66.75922 L70.90446,66.04729 z" stroke="#000000" stroke-width="0.24" fill="none" />
  <path d="M40.14384,49.71151 L41.37695,48.99957 L49.75039,53.83398 L49.75039,56.88948 L48.09728,55.93505 L40.14385,60.52686 z" stroke="#000000" stroke-width="0.24" fill="none" />
</svg>