<?xml version="1.0" encoding="utf-8" standalone="no"?>
<!DOCTYPE svg PUBLIC "-//W3C//DTD SVG 1.1//EN" "http://www.w3.org/Graphics/SVG/1.1/DTD/svg11.dtd">
<svg version="1.1" width="120pt" height="120pt" viewBox="0 0 120 120" overflow="visible" xmlns="http://www.w3.org/2000/svg">
  <path d="M39.93727,47.3929 L39.93727,46.80972 L44.60474,49.50449 L44.60293,50.08662 z" stroke="Black" stroke-width="0" fill="#BBBBBB" fill-opacity="1" />
  <path d="M74.19009,66.61337 L74.19009,67.16877 L45.79333,50.7739 L45.79336,50.19076 z" stroke="Black" stroke-width="0" fill="#BBBBBB" fill-opacity="1" />
  <path d="M81.18252,70.62268 L81.18252,71.20586 L75.38049,67.85605 L75.38049,67.27288 z" stroke="Black" stroke-width="0" fill="#BBBBBB" fill-opacity="1" />
  <path d="M81.18252,71.20586 L81.18252,70.62268 L90.86253,65.03393 L90.86253,65.6171 z" stroke="Black" stroke-width="0" fill="#CCCCCC" fill-opacity="1" />
  <path d="M90.86253,65.03393 L81.18252,70.62268 L75.38049,67.27288 L75.38049,66.61337 L75.20615,66.37038 C75.02005,66.23869 74.55051,66.23869 74.36442,66.37038 L74.19189,66.58664 L45.79336,50.19076 L45.79333,49.53121 L45.619,49.28822 C45.4329,49.15653 44.96336,49.15653 44.77726,49.28822 L44.60474,49.50449 L39.93727,46.80972 L49.61728,41.22097 z" stroke="Black" stroke-width="0" fill="#EEEEEE" fill-opacity="1" />
  <path d="M74.19189,66.58664 L74.36442,66.37038 C74.55051,66.23869 75.02005,66.23869 75.20615,66.37038 L75.38049,66.61337 L75.20615,66.85635 C75.02005,66.98804 74.55051,66.98804 74.36442,66.85635 z" stroke="Black" stroke-width="0" fill="#555555" fill-opacity="1" />
  <path d="M55.41931,43.28637 L55.59364,43.04338 C55.77974,42.91169 56.24928,42.91169 56.43538,43.04338 L56.60971,43.28637 L56.43538,43.52936 C56.24928,43.66105 55.77974,43.66105 55.59364,43.52936 z" stroke="Black" stroke-width="0" fill="#555555" fill-opacity="1" />
  <path d="M75.38049,68.31084 L75.38049,67.85605 L75.77435,68.08344 z" stroke="Black" stroke-width="0" fill="#555555" fill-opacity="1" />
  <path d="M44.60473,49.50449 L44.77726,49.28822 C44.96336,49.15653 45.4329,49.15653 45.619,49.28822 L45.79333,49.53121 L45.619,49.7742 C45.4329,49.90589 44.96336,49.90589 44.77726,49.7742 z" stroke="Black" stroke-width="0" fill="#555555" fill-opacity="1" />
  <path d="M45.79333,51.22868 L45.79333,50.7739 L46.18718,51.00129 z" stroke="Black" stroke-width="0" fill="#555555" fill-opacity="1" />
  <path d="M86.19687,60.36852 L86.02254,60.61151 C85.83644,60.7432 85.3669,60.7432 85.1808,60.61151 L85.00657,60.37741 L85.1808,60.12553 C85.3669,59.99384 85.83644,59.99384 86.02254,60.12553 z" stroke="Black" stroke-width="0" fill="#555555" fill-opacity="1" />
  <path d="M56.43538,43.52936 L56.60961,43.29527 L56.60971,45.25805 L55.41931,44.57077 L55.41941,43.29526 L55.59364,43.52936 C55.77974,43.66105 56.24928,43.66105 56.43538,43.52936 z" stroke="Black" stroke-width="0" fill="#777777" fill-opacity="1" />
  <path d="M86.19677,60.37742 L86.19687,62.34021 L85.00647,61.65293 L85.00657,60.37741 L85.1808,60.61151 C85.3669,60.7432 85.83644,60.7432 86.02254,60.61151 z" stroke="Black" stroke-width="0" fill="#777777" fill-opacity="1" />
  <path d="M55.41931,57.96293 L55.41931,56.33146 L56.60971,57.01874 L56.60971,57.96293 L56.49067,58.16911 C56.24928,58.33761 55.77974,58.33761 55.59364,58.20592 z" stroke="Black" stroke-width="0" fill="#777777" fill-opacity="1" />
  <path d="M85.00647,68.9981 L86.19687,68.31082 L86.19687,75.04508 L86.07783,75.25127 C85.83644,75.41976 85.3669,75.41976 85.1808,75.28807 L85.00647,75.04508 z" stroke="Black" stroke-width="0" fill="#777777" fill-opacity="1" />
  <path d="M45.79333,52.20064 L45.79333,64.20777 L45.67434,64.41392 C45.4329,64.58245 44.96336,64.58245 44.77726,64.45076 L44.60293,64.20777 L44.60303,49.5401 L44.77726,49.7742 C44.96336,49.90589 45.4329,49.90589 45.619,49.7742 L45.79323,49.5401 L45.79333,51.22868 L46.18718,51.00129 L47.02892,51.48727 z" stroke="Black" stroke-width="0" fill="#777777" fill-opacity="1" />
  <path d="M75.38049,81.28992 L75.26146,81.4961 C75.02005,81.6646 74.55051,81.6646 74.36442,81.53291 L74.19009,81.28992 L74.19019,66.62226 L74.36442,66.85635 C74.55051,66.98804 75.02005,66.98804 75.20615,66.85635 L75.38039,66.62226 L75.38049,68.31084 L75.77435,68.08344 L76.61608,68.56942 L75.38049,69.2828 z" stroke="Black" stroke-width="0" fill="#777777" fill-opacity="1" />
  <path d="M45.79333,49.53121 L45.619,49.28822 C45.4329,49.15653 44.96336,49.15653 44.77726,49.28822 L44.60293,49.53121" stroke="#000000" stroke-width="0.24" fill="none" />
  <path d="M45.79333,49.53121 L45.79333,51.22868" stroke="#000000" stroke-width="0.24" fill="none" />
  <path d="M75.38049,66.61337 L75.20615,66.37038 C75.02005,66.23869 74.55051,66.23869 74.36442,66.37038" stroke="#000000" stroke-width="0.24" fill="none" />
  <path d="M75.38051,81.28995 L75.38051,69.28282 L76.6161,68.56945 L81.18255,71.20588 L85.00649,68.99812 L85.00649,75.0451" stroke="#000000" stroke-width="0.24" fill="none" />
  <path d="M86.19687,75.04508 L86.19687,68.31082 L90.86253,65.6171 L90.86253,65.03393 L86.19687,62.34021 L86.19677,60.37742 L86.02254,60.12553 C85.83644,59.99384 85.3669,59.99384 85.1808,60.12553 L85.00647,60.36852 L85.00647,61.65293 L56.60971,45.25805 L56.60961,43.29527 L56.43538,43.04338 C56.24928,42.91169 55.77974,42.91169 55.59364,43.04338 L55.41931,43.28637 L55.41931,44.57077 L49.61728,41.22097 L39.93727,46.80972 L39.93727,47.3929 L44.60293,50.08662 L44.60293,64.20777 L44.60293,49.53121" stroke="#000000" stroke-width="0.24" fill="none" />
  <path d="M45.79335,64.20779 L45.79335,52.20066 L47.02895,51.48729 L55.41933,56.33149 L55.41933,57.96295" stroke="#000000" stroke-width="0.24" fill="none" />
  <path d="M74.36442,66.37038 L74.19009,66.61337" stroke="#000000" stroke-width="0.24" fill="none" />
  <path d="M75.38049,66.61337 L75.38049,68.31084" stroke="#000000" stroke-width="0.24" fill="none" />
  <path d="M56.60974,57.96295 L56.60974,57.01876 L74.19011,67.16879 L74.19011,81.28995 L74.19009,66.61337" stroke="#000000" stroke-width="0.24" fill="none" />
  <path d="M90.86256,65.61713 L81.18255,71.20588" stroke="#111111" stroke-width="0.24" fill="none" />
  <path d="M45.61902,52.30132 L47.02906,51.48723" stroke="#111111" stroke-width="0.24" fill="none" />
  <path d="M45.79333,49.53121 L45.79333,51.22868" stroke="#111111" stroke-width="0.24" fill="none" />
  <path d="M74.19009,81.28992 L74.36442,81.53291 C74.55051,81.6646 75.02005,81.6646 75.20615,81.53291 L75.38049,81.28992" stroke="#111111" stroke-width="0.24" fill="none" />
  <path d="M75.38049,66.61337 L75.38049,68.31084" stroke="#111111" stroke-width="0.24" fill="none" />
  <path d="M81.18255,70.6227 L75.38052,67.2729" stroke="#111111" stroke-width="0.24" fill="none" />
  <path d="M74.19011,67.16879 L45.79335,50.77392" stroke="#111111" stroke-width="0.24" fill="none" />
  <path d="M81.18255,71.20588 L75.38051,67.85607" stroke="#111111" stroke-width="0.24" fill="none" />
  <path d="M90.86256,65.03395 L81.18255,70.6227" stroke="#111111" stroke-width="0.24" fill="none" />
  <path d="M56.60971,57.01874 L56.60971,57.96293" stroke="#111111" stroke-width="0.24" fill="none" />
  <path d="M75.38049,69.28273 L75.38049,81.28992" stroke="#111111" stroke-width="0.24" fill="none" />
  <path d="M85.00647,60.36852 L85.1808,60.61151 C85.3669,60.7432 85.83644,60.7432 86.02254,60.61151 L86.19687,60.36852" stroke="#111111" stroke-width="0.24" fill="none" />
  <path d="M85.1808,60.12553 L85.00647,60.36852" stroke="#111111" stroke-width="0.24" fill="none" />
  <path d="M56.60971,43.28637 L56.43538,43.04338 C56.24928,42.91169 55.77974,42.91169 55.59364,43.04338 L55.41931,43.28637" stroke="#111111" stroke-width="0.24" fill="none" />
  <path d="M56.60971,43.28637 L56.60971,45.25805" stroke="#111111" stroke-width="0.24" fill="none" />
  <path d="M49.6173,41.22099 L90.86256,65.03395" stroke="#111111" stroke-width="0.24" fill="none" />
  <path d="M44.60477,49.50452 L39.93729,46.80975" stroke="#111111" stroke-width="0.24" fill="none" />
  <path d="M75.38049,66.61337 L75.20615,66.37038 C75.02005,66.23869 74.55051,66.23869 74.36442,66.37038" stroke="#111111" stroke-width="0.24" fill="none" />
  <path d="M81.18255,71.20588 L81.18255,70.6227" stroke="#111111" stroke-width="0.24" fill="none" />
  <path d="M56.43538,58.20592 L56.60971,57.96293" stroke="#111111" stroke-width="0.24" fill="none" />
  <path d="M55.41931,57.96293 L55.59364,58.20592 C55.77974,58.33761 56.24928,58.33761 56.43538,58.20592" stroke="#111111" stroke-width="0.24" fill="none" />
  <path d="M85.00647,75.04508 L85.1808,75.28807 C85.3669,75.41976 85.83644,75.41976 86.02254,75.28807 L86.19687,75.04508" stroke="#111111" stroke-width="0.24" fill="none" />
  <path d="M75.77454,68.08337 L75.20618,68.41151" stroke="#111111" stroke-width="0.24" fill="none" />
  <path d="M39.93729,46.80975 L49.6173,41.22099" stroke="#111111" stroke-width="0.24" fill="none" />
  <path d="M39.93729,47.39292 L39.93729,46.80975" stroke="#111111" stroke-width="0.24" fill="none" />
  <path d="M90.86256,65.61713 L90.86256,65.03395" stroke="#111111" stroke-width="0.24" fill="none" />
  <path d="M45.619,49.7742 L45.79333,49.53121" stroke="#111111" stroke-width="0.24" fill="none" />
  <path d="M44.60295,50.08664 L39.93729,47.39292" stroke="#111111" stroke-width="0.24" fill="none" />
  <path d="M74.19009,66.61337 L74.36442,66.85635 C74.55051,66.98804 75.02005,66.98804 75.20615,66.85635 L75.38049,66.61337" stroke="#111111" stroke-width="0.24" fill="none" />
  <path d="M44.60293,49.53121 L44.77726,49.7742 C44.96336,49.90589 45.4329,49.90589 45.619,49.7742" stroke="#111111" stroke-width="0.24" fill="none" />
  <path d="M55.41931,57.96293 L55.41931,56.33143" stroke="#111111" stroke-width="0.24" fill="none" />
  <path d="M56.43538,43.52936 L56.60971,43.28637" stroke="#111111" stroke-width="0.24" fill="none" />
  <path d="M55.41931,43.28637 L55.59364,43.52936 C55.77974,43.66105 56.24928,43.66105 56.43538,43.52936" stroke="#111111" stroke-width="0.24" fill="none" />
  <path d="M76.61618,68.5694 L75.20618,69.38347" stroke="#111111" stroke-width="0.24" fill="none" />
  <path d="M85.00647,75.04508 L85.00647,68.9981" stroke="#111111" stroke-width="0.24" fill="none" />
  <path d="M86.19687,60.36852 L86.19687,62.34021" stroke="#111111" stroke-width="0.24" fill="none" />
  <path d="M86.19687,60.36852 L86.02254,60.12553 C85.83644,59.99384 85.3669,59.99384 85.1808,60.12553" stroke="#111111" stroke-width="0.24" fill="none" />
  <path d="M45.79333,52.20064 L45.79333,64.20777" stroke="#111111" stroke-width="0.24" fill="none" />
  <path d="M55.41931,44.57077 L55.41931,43.28637" stroke="#111111" stroke-width="0.24" fill="none" />
  <path d="M86.19687,68.31082 L86.19687,75.04508" stroke="#111111" stroke-width="0.24" fill="none" />
  <path d="M85.00647,61.65293 L85.00647,60.36852" stroke="#111111" stroke-width="0.24" fill="none" />
  <path d="M74.19191,66.58666 L45.79342,50.19078" stroke="#111111" stroke-width="0.24" fill="none" />
  <path d="M74.36442,66.37038 L74.19009,66.61337" stroke="#111111" stroke-width="0.24" fill="none" />
  <path d="M74.19009,81.28992 L74.19009,66.61337" stroke="#111111" stroke-width="0.24" fill="none" />
  <path d="M45.619,64.45076 L45.79333,64.20777" stroke="#111111" stroke-width="0.24" fill="none" />
  <path d="M44.60293,64.20777 L44.60293,49.53121" stroke="#111111" stroke-width="0.24" fill="none" />
  <path d="M44.60293,64.20777 L44.77726,64.45076 C44.96336,64.58245 45.4329,64.58245 45.619,64.45076" stroke="#111111" stroke-width="0.24" fill="none" />
  <path d="M45.79333,49.53121 L45.619,49.28822 C45.4329,49.15653 44.96336,49.15653 44.77726,49.28822 L44.60293,49.53121" stroke="#111111" stroke-width="0.24" fill="none" />
  <path d="M45.61902,51.32936 L46.18742,51.00119" stroke="#111111" stroke-width="0.24" fill="none" />
</svg>