<?xml version="1.0" encoding="utf-8" standalone="no"?>
<!DOCTYPE svg PUBLIC "-//W3C//DTD SVG 1.1//EN" "http://www.w3.org/Graphics/SVG/1.1/DTD/svg11.dtd">
<svg version="1.1" width="120pt" height="120pt" viewBox="0 0 120 120" overflow="visible" xmlns="http://www.w3.org/2000/svg">
  <path d="M51.37749,64.19695 L79.77605,47.80102 L79.77605,48.38419 L51.3793,64.77907 z" stroke="Black" stroke-width="0" fill="#BBBBBB" fill-opacity="1" />
  <path d="M44.38686,83.05534 L50.18889,79.70553 L50.18889,80.2887 L44.38686,83.63851 z" stroke="Black" stroke-width="0" fill="#BBBBBB" fill-opacity="1" />
  <path d="M80.96645,61.9361 L85.63211,59.24237 L85.63211,59.82555 L80.96645,62.51927 z" stroke="Black" stroke-width="0" fill="#BBBBBB" fill-opacity="1" />
  <path d="M79.77605,63.20655 L51.3793,79.60143 L51.3793,79.01825 L79.77605,62.62337 z" stroke="Black" stroke-width="0" fill="#BBBBBB" fill-opacity="1" />
  <path d="M50.18889,65.46635 L44.38686,68.81615 L44.38686,68.23298 L50.18886,64.88321 z" stroke="Black" stroke-width="0" fill="#BBBBBB" fill-opacity="1" />
  <path d="M80.96465,47.11478 L85.63211,44.42002 L85.63211,45.0032 L80.96645,47.69692 z" stroke="Black" stroke-width="0" fill="#BBBBBB" fill-opacity="1" />
  <path d="M44.38686,68.81615 L34.70685,63.2274 L34.70685,62.64423 L44.38686,68.23298 z" stroke="Black" stroke-width="0" fill="#CCCCCC" fill-opacity="1" />
  <path d="M44.38686,83.05534 L44.38686,83.63851 L34.70685,78.04975 L34.70685,77.46658 z" stroke="Black" stroke-width="0" fill="#CCCCCC" fill-opacity="1" />
  <path d="M50.18889,79.70553 L44.38686,83.05534 L34.70685,77.46658 L50.18889,68.52802 z" stroke="Black" stroke-width="0" fill="#EEEEEE" fill-opacity="1" />
  <path d="M79.77605,47.80102 L51.37749,64.19695 L51.20496,63.98067 C51.01886,63.84899 50.54932,63.84899 50.36322,63.98067 L50.18889,64.22366 L50.18886,64.88321 L44.38686,68.23298 L34.70685,62.64423 L75.9521,38.83127 L85.63211,44.42002 L80.96465,47.11478 L80.79212,46.89852 C80.60602,46.76683 80.13648,46.76683 79.95038,46.89852 L79.77605,47.14151 z" stroke="Black" stroke-width="0" fill="#EEEEEE" fill-opacity="1" />
  <path d="M51.3793,67.84074 L75.9521,53.65362 L79.77605,55.86137 L79.77605,62.62337 L51.3793,79.01825 z" stroke="Black" stroke-width="0" fill="#EEEEEE" fill-opacity="1" />
  <path d="M85.63211,59.24237 L80.96645,61.9361 L80.96645,56.54865 z" stroke="Black" stroke-width="0" fill="#EEEEEE" fill-opacity="1" />
  <path d="M79.77605,48.38419 L79.77605,48.83898 L79.38219,48.61159 z" stroke="Black" stroke-width="0" fill="#555555" fill-opacity="1" />
  <path d="M70.14999,40.90557 L69.97576,41.13968 C69.78967,41.27136 69.32012,41.27136 69.13403,41.13968 L68.95969,40.89668 L69.13403,40.65369 C69.32012,40.52201 69.78967,40.52201 69.97576,40.65369 z" stroke="Black" stroke-width="0" fill="#555555" fill-opacity="1" />
  <path d="M50.18889,65.46635 L50.18889,65.92113 L49.79504,65.69374 z" stroke="Black" stroke-width="0" fill="#555555" fill-opacity="1" />
  <path d="M40.56284,57.98773 L40.38861,58.22183 C40.2025,58.35352 39.73297,58.35352 39.54687,58.22183 L39.37254,57.97884 L39.54687,57.73585 C39.73297,57.60416 40.2025,57.60416 40.38861,57.73585 z" stroke="Black" stroke-width="0" fill="#555555" fill-opacity="1" />
  <path d="M51.37919,64.23256 L51.20496,64.46665 C51.01886,64.59834 50.54932,64.59834 50.36322,64.46665 L50.18899,64.23256 L50.36322,63.98067 C50.54932,63.84899 51.01886,63.84899 51.20496,63.98067 z" stroke="Black" stroke-width="0" fill="#555555" fill-opacity="1" />
  <path d="M49.79504,80.5161 L50.18889,80.2887 L50.18887,80.74343 z" stroke="Black" stroke-width="0" fill="#555555" fill-opacity="1" />
  <path d="M80.96635,47.1504 L80.79212,47.3845 C80.60602,47.51619 80.13648,47.51619 79.95038,47.3845 L79.77615,47.1504 L79.95038,46.89852 C80.13648,46.76683 80.60602,46.76683 80.79212,46.89852 z" stroke="Black" stroke-width="0" fill="#555555" fill-opacity="1" />
  <path d="M79.77605,63.66133 L79.38219,63.43394 L79.77605,63.20655 z" stroke="Black" stroke-width="0" fill="#555555" fill-opacity="1" />
  <path d="M40.56295,74.08553 L39.37254,74.77284 L39.37254,65.92113 L40.56293,66.60841 z" stroke="Black" stroke-width="0" fill="#777777" fill-opacity="1" />
  <path d="M69.13403,41.13968 C69.32012,41.27136 69.78967,41.27136 69.97576,41.13968 L70.14999,40.90557 L70.15009,42.18106 L68.95969,42.86834 L68.95979,40.90558 z" stroke="Black" stroke-width="0" fill="#777777" fill-opacity="1" />
  <path d="M70.15009,57.00341 L68.95969,57.69069 L68.95969,54.62902 L70.15009,53.94175 z" stroke="Black" stroke-width="0" fill="#777777" fill-opacity="1" />
  <path d="M39.37263,57.98773 L39.54687,58.22183 C39.73297,58.35352 40.2025,58.35352 40.38861,58.22183 L40.56284,57.98773 L40.56293,59.26321 L39.37254,59.95049 z" stroke="Black" stroke-width="0" fill="#777777" fill-opacity="1" />
  <path d="M80.96635,47.1504 L80.96645,67.64982 L80.79212,67.89281 C80.60602,68.02449 80.13648,68.02449 79.95038,67.89281 L79.77605,67.64982 L79.77605,64.63329 L78.54045,63.91992 L79.38219,63.43394 L79.77605,63.66133 L79.77605,49.81094 L78.54045,49.09757 L79.38219,48.61159 L79.77605,48.83898 L79.77615,47.1504 L79.95038,47.3845 C80.13648,47.51619 80.60602,47.51619 80.79212,47.3845 z" stroke="Black" stroke-width="0" fill="#777777" fill-opacity="1" />
  <path d="M50.18887,80.74343 L50.18889,66.8931 L48.9533,66.17972 L49.79504,65.69374 L50.18889,65.92113 L50.18899,64.23256 L50.36322,64.46665 C50.54932,64.59834 51.01886,64.59834 51.20496,64.46665 L51.37919,64.23256 L51.3793,84.73197 L51.20496,84.97496 C51.01886,85.10664 50.54932,85.10664 50.36322,84.97496 L50.18889,84.73197 L50.18889,81.71545 L48.9533,81.00208 L49.79504,80.5161 z" stroke="Black" stroke-width="0" fill="#777777" fill-opacity="1" />
  <path d="M79.77608,49.81097 L78.54047,49.09759 L70.15012,53.94177 L70.15012,57.00343 L75.95213,53.65364 L79.77607,55.86139 z" stroke="#000000" stroke-width="0.24" fill="none" />
  <path d="M79.77605,47.14151 L79.95038,46.89852 C80.13648,46.76683 80.60602,46.76683 80.79212,46.89852 L80.96645,47.14151" stroke="#000000" stroke-width="0.24" fill="none" />
  <path d="M50.18889,64.22366 L50.36322,63.98067 C50.54932,63.84899 51.01886,63.84899 51.20496,63.98067 L51.3793,64.22366" stroke="#000000" stroke-width="0.24" fill="none" />
  <path d="M50.18889,66.89296 L50.18889,80.7434" stroke="#000000" stroke-width="0.24" fill="none" />
  <path d="M68.95972,57.69071 L68.95972,54.62905 L51.37932,64.7791 L51.37932,67.84076 z" stroke="#000000" stroke-width="0.24" fill="none" />
  <path d="M79.77605,47.14151 L79.77605,48.83898" stroke="#000000" stroke-width="0.24" fill="none" />
  <path d="M50.18889,64.22366 L50.18889,65.92113" stroke="#000000" stroke-width="0.24" fill="none" />
  <path d="M51.3793,84.73197 L51.3793,64.22366" stroke="#000000" stroke-width="0.24" fill="none" />
  <path d="M79.77605,49.81094 L79.77605,63.66133" stroke="#000000" stroke-width="0.24" fill="none" />
  <path d="M80.96645,67.64982 L80.96645,47.14151" stroke="#000000" stroke-width="0.24" fill="none" />
  <path d="M44.38686,83.63851 L34.70685,78.04975 L34.70685,77.46658 L39.37254,74.77284 L39.37254,65.92113 L34.70685,63.2274 L34.70685,62.64423 L39.37254,59.95049 L39.37263,57.98773 L39.54687,57.73585 C39.73297,57.60416 40.2025,57.60416 40.38861,57.73585 L40.56293,57.97884 L40.56293,59.26321 L68.95969,42.86834 L68.95979,40.90558 L69.13403,40.65369 C69.32012,40.52201 69.78967,40.52201 69.97576,40.65369 L70.15009,40.89668 L70.15009,42.18106 L75.9521,38.83127 L85.63211,44.42002 L85.63211,45.0032 L80.96645,47.69692 L80.96645,56.54865 L85.63211,59.24237 L85.63211,59.82555 L80.96645,62.51927 L80.96645,67.64982 L80.79212,67.89281 C80.60602,68.02449 80.13648,68.02449 79.95038,67.89281 L79.77605,67.64982 L79.77605,64.63329 L78.54045,63.91992 L51.3793,79.60143 L51.3793,84.73197 L51.20496,84.97496 C51.01886,85.10664 50.54932,85.10664 50.36322,84.97496 L50.18889,84.73197 L50.18889,81.71545 L48.9533,81.00208 z" stroke="#000000" stroke-width="0.24" fill="none" />
  <path d="M44.38688,68.81618 L40.56296,66.60844 L40.56297,74.08556 L50.18892,68.52804 L50.18892,66.89312 L48.95332,66.17975 z" stroke="#000000" stroke-width="0.24" fill="none" />
  <path d="M40.56293,59.26321 L40.56293,57.97884" stroke="#111111" stroke-width="0.24" fill="none" />
  <path d="M44.38688,68.81618 L50.18892,65.46637" stroke="#111111" stroke-width="0.24" fill="none" />
  <path d="M79.95041,63.76201 L79.38203,63.43386" stroke="#111111" stroke-width="0.24" fill="none" />
  <path d="M79.95041,64.73396 L78.5404,63.9199" stroke="#111111" stroke-width="0.24" fill="none" />
  <path d="M79.95041,49.91161 L78.54034,49.09751" stroke="#111111" stroke-width="0.24" fill="none" />
  <path d="M79.95041,48.93966 L79.38198,48.61148" stroke="#111111" stroke-width="0.24" fill="none" />
  <path d="M49.79491,80.51603 L50.36325,80.84416" stroke="#111111" stroke-width="0.24" fill="none" />
  <path d="M50.18889,66.89296 L50.18889,80.7434" stroke="#111111" stroke-width="0.24" fill="none" />
  <path d="M70.15009,42.18106 L70.15009,40.89668" stroke="#111111" stroke-width="0.24" fill="none" />
  <path d="M51.20496,63.98067 L51.3793,64.22366" stroke="#111111" stroke-width="0.24" fill="none" />
  <path d="M48.95327,81.00207 L50.36325,81.81612" stroke="#111111" stroke-width="0.24" fill="none" />
  <path d="M79.77605,47.14151 L79.77605,48.83898" stroke="#111111" stroke-width="0.24" fill="none" />
  <path d="M44.38688,68.23301 L50.18885,64.88323" stroke="#111111" stroke-width="0.24" fill="none" />
  <path d="M51.37932,64.7791 L79.77608,48.38422" stroke="#111111" stroke-width="0.24" fill="none" />
  <path d="M51.37932,79.01827 L79.77608,62.6234" stroke="#111111" stroke-width="0.24" fill="none" />
  <path d="M50.18892,68.52804 L34.70687,77.46661" stroke="#111111" stroke-width="0.24" fill="none" />
  <path d="M75.95213,53.65364 L51.3793,67.84077" stroke="#111111" stroke-width="0.24" fill="none" />
  <path d="M51.3793,64.22366 L51.20496,64.46665 C51.01886,64.59834 50.54932,64.59834 50.36322,64.46665 L50.18889,64.22366" stroke="#111111" stroke-width="0.24" fill="none" />
  <path d="M79.77605,64.63322 L79.77605,67.64982" stroke="#111111" stroke-width="0.24" fill="none" />
  <path d="M69.13403,41.13968 L68.95969,40.89668 L69.13403,40.65369 C69.32012,40.52201 69.78967,40.52201 69.97576,40.65369 L70.15009,40.89668" stroke="#111111" stroke-width="0.24" fill="none" />
  <path d="M79.95038,47.3845 L79.77605,47.14151" stroke="#111111" stroke-width="0.24" fill="none" />
  <path d="M68.95969,40.89668 L68.95969,42.86834" stroke="#111111" stroke-width="0.24" fill="none" />
  <path d="M34.70687,77.46661 L44.38688,83.05536" stroke="#111111" stroke-width="0.24" fill="none" />
  <path d="M50.18889,81.71545 L50.18889,84.73197" stroke="#111111" stroke-width="0.24" fill="none" />
  <path d="M40.38861,57.73585 L40.56293,57.97884" stroke="#111111" stroke-width="0.24" fill="none" />
  <path d="M44.38688,83.63853 L44.38688,83.05536" stroke="#111111" stroke-width="0.24" fill="none" />
  <path d="M34.70687,62.64425 L44.38688,68.23301" stroke="#111111" stroke-width="0.24" fill="none" />
  <path d="M79.77606,55.86139 L75.95213,53.65364" stroke="#111111" stroke-width="0.24" fill="none" />
  <path d="M80.96468,47.11481 L85.63213,44.42005" stroke="#111111" stroke-width="0.24" fill="none" />
  <path d="M80.96648,47.69694 L85.63213,45.00322" stroke="#111111" stroke-width="0.24" fill="none" />
  <path d="M80.96645,67.64982 L80.79212,67.89281 C80.60602,68.02449 80.13648,68.02449 79.95038,67.89281 L79.77605,67.64982" stroke="#111111" stroke-width="0.24" fill="none" />
  <path d="M44.38688,68.81618 L44.38688,68.23301" stroke="#111111" stroke-width="0.24" fill="none" />
  <path d="M80.96645,47.14151 L80.79212,47.3845 C80.60602,47.51619 80.13648,47.51619 79.95038,47.3845" stroke="#111111" stroke-width="0.24" fill="none" />
  <path d="M39.37254,65.92113 L39.37254,74.77284" stroke="#111111" stroke-width="0.24" fill="none" />
  <path d="M34.70687,63.22742 L34.70687,62.64425" stroke="#111111" stroke-width="0.24" fill="none" />
  <path d="M80.96648,62.51929 L85.63213,59.82557" stroke="#111111" stroke-width="0.24" fill="none" />
  <path d="M80.96648,61.93612 L85.63213,59.2424" stroke="#111111" stroke-width="0.24" fill="none" />
  <path d="M39.37254,57.97884 L39.54687,57.73585 C39.73297,57.60416 40.2025,57.60416 40.38861,57.73585" stroke="#111111" stroke-width="0.24" fill="none" />
  <path d="M85.63213,45.00322 L85.63213,44.42005" stroke="#111111" stroke-width="0.24" fill="none" />
  <path d="M51.3793,84.73197 L51.20496,84.97496 C51.01886,85.10664 50.54932,85.10664 50.36322,84.97496 L50.18889,84.73197" stroke="#111111" stroke-width="0.24" fill="none" />
  <path d="M50.18889,64.22366 L50.36322,63.98067 C50.54932,63.84899 51.01886,63.84899 51.20496,63.98067" stroke="#111111" stroke-width="0.24" fill="none" />
  <path d="M85.63213,44.42005 L75.95213,38.83129" stroke="#111111" stroke-width="0.24" fill="none" />
  <path d="M44.38688,83.05536 L50.18892,79.70555" stroke="#111111" stroke-width="0.24" fill="none" />
  <path d="M39.37254,57.97884 L39.37254,59.95049" stroke="#111111" stroke-width="0.24" fill="none" />
  <path d="M40.56293,74.08552 L40.56293,66.60841" stroke="#111111" stroke-width="0.24" fill="none" />
  <path d="M40.56293,57.97884 L40.38861,58.22183 C40.2025,58.35352 39.73297,58.35352 39.54687,58.22183 L39.37254,57.97884" stroke="#111111" stroke-width="0.24" fill="none" />
  <path d="M70.15009,40.89668 L69.97576,41.13968 C69.78967,41.27136 69.32012,41.27136 69.13403,41.13968" stroke="#111111" stroke-width="0.24" fill="none" />
  <path d="M85.63213,59.2424 L80.96641,56.54864" stroke="#111111" stroke-width="0.24" fill="none" />
  <path d="M70.15009,57.00341 L70.15009,53.94175" stroke="#111111" stroke-width="0.24" fill="none" />
  <path d="M68.95969,54.62877 L68.95969,57.69069" stroke="#111111" stroke-width="0.24" fill="none" />
  <path d="M44.38688,83.63853 L50.18892,80.28873" stroke="#111111" stroke-width="0.24" fill="none" />
  <path d="M51.37932,79.60145 L79.77608,63.20657" stroke="#111111" stroke-width="0.24" fill="none" />
  <path d="M75.95213,38.83129 L34.70687,62.64425" stroke="#111111" stroke-width="0.24" fill="none" />
  <path d="M34.70687,63.22742 L44.38688,68.81618" stroke="#111111" stroke-width="0.24" fill="none" />
  <path d="M85.63213,59.82557 L85.63213,59.2424" stroke="#111111" stroke-width="0.24" fill="none" />
  <path d="M51.37751,64.19697 L79.77608,47.80104" stroke="#111111" stroke-width="0.24" fill="none" />
  <path d="M80.96645,67.64982 L80.96645,47.14151" stroke="#111111" stroke-width="0.24" fill="none" />
  <path d="M34.70687,78.04977 L34.70687,77.46661" stroke="#111111" stroke-width="0.24" fill="none" />
  <path d="M79.77605,49.81094 L79.77605,63.66133" stroke="#111111" stroke-width="0.24" fill="none" />
  <path d="M79.77605,47.14151 L79.95038,46.89852 C80.13648,46.76683 80.60602,46.76683 80.79212,46.89852 L80.96645,47.14151" stroke="#111111" stroke-width="0.24" fill="none" />
  <path d="M51.3793,84.73197 L51.3793,64.22366" stroke="#111111" stroke-width="0.24" fill="none" />
  <path d="M50.18889,64.22366 L50.18889,65.92113" stroke="#111111" stroke-width="0.24" fill="none" />
  <path d="M34.70687,78.04977 L44.38688,83.63853" stroke="#111111" stroke-width="0.24" fill="none" />
  <path d="M49.79485,65.69365 L50.36325,66.02181" stroke="#111111" stroke-width="0.24" fill="none" />
  <path d="M48.95322,66.17969 L50.36325,66.99377" stroke="#111111" stroke-width="0.24" fill="none" />
</svg>