<?xml version="1.0" encoding="utf-8" standalone="no"?>
<!DOCTYPE svg PUBLIC "-//W3C//DTD SVG 1.1//EN" "http://www.w3.org/Graphics/SVG/1.1/DTD/svg11.dtd">
<svg version="1.1" width="120pt" height="120pt" viewBox="0 0 120 120" overflow="visible" xmlns="http://www.w3.org/2000/svg">
  <path d="M45.80981,66.62226 L45.63559,66.85635 C45.44948,66.98804 44.97995,66.98804 44.79385,66.85635 L44.61951,66.61337 L44.79385,66.37038 C44.97995,66.23869 45.44948,66.23869 45.63559,66.37038 z" stroke="Black" stroke-width="0" fill="#555555" fill-opacity="1" />
  <path d="M34.99358,60.36855 L34.81925,60.61154 C34.63315,60.74323 34.16362,60.74323 33.97751,60.61154 L33.80328,60.37745 L33.97751,60.12556 C34.16362,59.99388 34.63315,59.99388 34.81925,60.12556 z" stroke="Black" stroke-width="0" fill="#555555" fill-opacity="1" />
  <path d="M64.58074,43.2864 L64.40641,43.52939 C64.22031,43.66108 63.75077,43.66108 63.56467,43.52939 L63.39044,43.29529 L63.56467,43.04341 C63.75077,42.91172 64.22031,42.91172 64.40641,43.04341 z" stroke="Black" stroke-width="0" fill="#555555" fill-opacity="1" />
  <path d="M35.661,62.16668 L44.61948,67.33884 L44.61951,68.31084 L33.99659,62.17744 C34.19169,62.30097 34.63924,62.29256 34.81925,62.16668 L34.99358,61.92369 L34.99358,61.58005 L63.56467,45.08452 C63.75078,45.21621 64.22031,45.21621 64.40641,45.08452 L64.58074,44.84153 L74.2066,50.25665 L74.20667,51.22868 L64.40652,45.57056 z" stroke="Black" stroke-width="0" fill="#555555" fill-opacity="1" />
  <path d="M74.20667,49.53121 L74.381,49.28822 C74.5671,49.15653 75.03664,49.15653 75.22274,49.28822 L75.39707,49.53121 L75.22274,49.7742 C75.03664,49.90589 74.5671,49.90589 74.381,49.7742 z" stroke="Black" stroke-width="0" fill="#555555" fill-opacity="1" />
  <path d="M44.61951,69.2828 L34.99358,63.72526 L34.99358,75.04511 L34.81925,75.2881 C34.63315,75.41979 34.16362,75.41979 33.97751,75.2881 L33.80318,75.04511 L33.80328,60.37745 L33.97751,60.61154 C34.16362,60.74323 34.63315,60.74323 34.81925,60.61154 L34.99348,60.37745 L34.99358,61.78135 L34.81925,62.16668 C34.63924,62.29256 34.19169,62.30097 33.99659,62.17744 L44.61951,68.31084 L44.61961,66.62226 L44.79385,66.85635 C44.97995,66.98804 45.44948,66.98804 45.63559,66.85635 L45.80981,66.62226 L45.80991,81.28992 L45.63559,81.53291 C45.44948,81.6646 44.97995,81.6646 44.79385,81.53291 L44.61951,81.28992 z" stroke="Black" stroke-width="0" fill="#777777" fill-opacity="1" />
  <path d="M64.40652,45.57056 L74.20667,51.22868 L74.20677,49.54011 L74.381,49.7742 C74.5671,49.90589 75.03664,49.90589 75.22274,49.7742 L75.39697,49.5401 L75.39707,64.20777 L75.22274,64.45076 C75.03664,64.58245 74.5671,64.58245 74.381,64.45076 L74.20667,64.20777 L74.20667,52.20064 L64.58074,46.64311 L64.58074,57.96296 L64.40641,58.20595 C64.22031,58.33764 63.75077,58.33764 63.56467,58.20595 L63.39034,57.96296 L63.39034,47.12909 L36.50274,62.65265 L35.661,62.16668 z" stroke="Black" stroke-width="0" fill="#777777" fill-opacity="1" />
  <path d="M63.56467,43.52939 C63.75077,43.66108 64.22031,43.66108 64.40641,43.52939 L64.58064,43.2953 L64.58074,44.69919 L64.40641,45.08452 C64.22031,45.21621 63.75078,45.21621 63.56468,45.08453 L63.39036,45.18512 L63.39044,43.29529 z" stroke="Black" stroke-width="0" fill="#777777" fill-opacity="1" />
  <path d="M64.58067,43.29532 L64.58076,44.69921" stroke="#000000" stroke-width="0.24" fill="none" />
  <path d="M64.40641,43.04341 L64.58074,43.2864" stroke="#000000" stroke-width="0.24" fill="none" />
  <path d="M33.97754,63.13866 L44.79387,69.38347" stroke="#000000" stroke-width="0.24" fill="none" />
  <path d="M34.99361,63.72528 L34.99361,75.04514" stroke="#000000" stroke-width="0.24" fill="none" />
  <path d="M44.61954,69.28282 L34.99361,63.72528" stroke="#000000" stroke-width="0.24" fill="none" />
  <path d="M74.38103,52.30132 L64.40646,46.5425" stroke="#000000" stroke-width="0.24" fill="none" />
  <path d="M63.56467,43.04341 C63.75077,42.91172 64.22031,42.91172 64.40641,43.04341" stroke="#000000" stroke-width="0.24" fill="none" />
  <path d="M63.39034,43.2864 L63.56467,43.04341" stroke="#000000" stroke-width="0.24" fill="none" />
  <path d="M44.79385,66.37038 C44.97995,66.23869 45.44948,66.23869 45.63559,66.37038" stroke="#000000" stroke-width="0.24" fill="none" />
  <path d="M63.39038,45.18514 L63.39037,43.28643" stroke="#000000" stroke-width="0.24" fill="none" />
  <path d="M34.99361,61.58007 L63.39038,45.18514" stroke="#000000" stroke-width="0.24" fill="none" />
  <path d="M64.58076,46.64313 L64.58076,57.96298" stroke="#000000" stroke-width="0.24" fill="none" />
  <path d="M34.99351,60.37747 L34.99361,61.58007" stroke="#000000" stroke-width="0.24" fill="none" />
  <path d="M44.61951,66.61337 L44.79385,66.37038" stroke="#000000" stroke-width="0.24" fill="none" />
  <path d="M74.2067,52.20066 L64.58076,46.64313" stroke="#000000" stroke-width="0.24" fill="none" />
  <path d="M34.81925,60.12556 L34.99358,60.36855" stroke="#000000" stroke-width="0.24" fill="none" />
  <path d="M74.2067,64.20779 L74.2067,52.20066" stroke="#000000" stroke-width="0.24" fill="none" />
  <path d="M33.97751,60.12556 C34.16362,59.99388 34.63315,59.99388 34.81925,60.12556" stroke="#000000" stroke-width="0.24" fill="none" />
  <path d="M33.80318,60.36855 L33.97751,60.12556" stroke="#000000" stroke-width="0.24" fill="none" />
  <path d="M33.80321,75.04514 L33.80321,60.36858" stroke="#000000" stroke-width="0.24" fill="none" />
  <path d="M44.61954,81.28995 L44.61954,69.28282" stroke="#000000" stroke-width="0.24" fill="none" />
  <path d="M75.39709,49.53123 L75.39709,64.20779" stroke="#000000" stroke-width="0.24" fill="none" />
  <path d="M44.61951,67.33887 L44.61964,66.62228" stroke="#000000" stroke-width="0.24" fill="none" />
  <path d="M75.22274,49.28822 L75.39707,49.53121" stroke="#000000" stroke-width="0.24" fill="none" />
  <path d="M36.50276,62.65268 L44.61951,67.33887" stroke="#000000" stroke-width="0.24" fill="none" />
  <path d="M74.381,49.28822 C74.5671,49.15653 75.03664,49.15653 75.22274,49.28822" stroke="#000000" stroke-width="0.24" fill="none" />
  <path d="M45.80994,66.61339 L45.80994,81.28995" stroke="#000000" stroke-width="0.24" fill="none" />
  <path d="M63.39037,47.12911 L36.50276,62.65268" stroke="#000000" stroke-width="0.24" fill="none" />
  <path d="M74.20667,49.53121 L74.381,49.28822" stroke="#000000" stroke-width="0.24" fill="none" />
  <path d="M44.61951,66.61337 L44.61951,68.31084" stroke="#000000" stroke-width="0.24" fill="none" />
  <path d="M64.40643,46.54248 L36.50271,62.65271" stroke="#000000" stroke-width="0.24" fill="none" />
  <path d="M45.63559,66.37038 L45.80991,66.61337" stroke="#000000" stroke-width="0.24" fill="none" />
  <path d="M74.20663,50.25667 L74.20679,49.54013" stroke="#000000" stroke-width="0.24" fill="none" />
  <path d="M63.39037,57.96298 L63.39037,47.12911" stroke="#000000" stroke-width="0.24" fill="none" />
  <path d="M74.20667,49.53121 L74.20667,51.22868" stroke="#000000" stroke-width="0.24" fill="none" />
  <path d="M64.58076,44.69921 L74.20663,50.25667" stroke="#000000" stroke-width="0.24" fill="none" />
  <path d="M63.39034,47.12909 L63.39034,57.96296" stroke="#111111" stroke-width="0.24" fill="none" />
  <path d="M44.61951,69.2828 L44.61951,81.28992" stroke="#111111" stroke-width="0.24" fill="none" />
  <path d="M45.63559,81.53291 C45.44948,81.6646 44.97995,81.6646 44.79385,81.53291" stroke="#111111" stroke-width="0.24" fill="none" />
  <path d="M64.58074,43.2864 L64.40641,43.52939 C64.22031,43.66108 63.75077,43.66108 63.56467,43.52939 L63.39034,43.2864 L63.56467,43.04341 C63.75077,42.91172 64.22031,42.91172 64.40641,43.04341 z" stroke="#111111" stroke-width="0.24" fill="none" />
  <path d="M63.39034,43.2864 L63.39034,45.18509" stroke="#111111" stroke-width="0.24" fill="none" />
  <path d="M64.58074,57.96296 L64.58074,46.64288" stroke="#111111" stroke-width="0.24" fill="none" />
  <path d="M74.381,49.7742 L74.20667,49.53121 L74.381,49.28822 C74.5671,49.15653 75.03664,49.15653 75.22274,49.28822 L75.39707,49.53121" stroke="#111111" stroke-width="0.24" fill="none" />
  <path d="M33.97751,75.2881 L33.80318,75.04511" stroke="#111111" stroke-width="0.24" fill="none" />
  <path d="M75.39707,64.20777 L75.39707,49.53121" stroke="#111111" stroke-width="0.24" fill="none" />
  <path d="M75.22274,64.45076 C75.03664,64.58245 74.5671,64.58245 74.381,64.45076" stroke="#111111" stroke-width="0.24" fill="none" />
  <path d="M34.99358,75.04511 L34.99358,63.72522" stroke="#111111" stroke-width="0.24" fill="none" />
  <path d="M64.40643,45.57053 L64.40643,46.54248" stroke="#111111" stroke-width="0.24" fill="none" />
  <path d="M45.80991,66.61337 L45.63559,66.85635 C45.44948,66.98804 44.97995,66.98804 44.79385,66.85635 L44.61951,66.61337" stroke="#111111" stroke-width="0.24" fill="none" />
  <path d="M34.99358,75.04511 L34.81925,75.2881" stroke="#111111" stroke-width="0.24" fill="none" />
  <path d="M44.61951,66.61337 L44.79385,66.37038 C44.97995,66.23869 45.44948,66.23869 45.63559,66.37038" stroke="#111111" stroke-width="0.24" fill="none" />
  <path d="M45.80991,81.28992 L45.80991,66.61337" stroke="#111111" stroke-width="0.24" fill="none" />
  <path d="M75.39707,64.20777 L75.22274,64.45076" stroke="#111111" stroke-width="0.24" fill="none" />
  <path d="M33.80318,60.36855 L33.97751,60.12556 C34.16362,59.99388 34.63315,59.99388 34.81925,60.12556" stroke="#111111" stroke-width="0.24" fill="none" />
  <path d="M33.80318,60.36855 L33.80318,75.04511" stroke="#111111" stroke-width="0.24" fill="none" />
  <path d="M34.81925,60.12556 L34.99358,60.36855" stroke="#111111" stroke-width="0.24" fill="none" />
  <path d="M45.80991,81.28992 L45.63559,81.53291" stroke="#111111" stroke-width="0.24" fill="none" />
  <path d="M34.99358,60.36855 L34.81925,60.61154 C34.63315,60.74323 34.16362,60.74323 33.97751,60.61154 L33.80318,60.36855" stroke="#111111" stroke-width="0.24" fill="none" />
  <path d="M45.63559,66.37038 L45.80991,66.61337" stroke="#111111" stroke-width="0.24" fill="none" />
  <path d="M34.81925,75.2881 C34.63315,75.41979 34.16362,75.41979 33.97751,75.2881" stroke="#111111" stroke-width="0.24" fill="none" />
  <path d="M74.381,64.45076 L74.20667,64.20777" stroke="#111111" stroke-width="0.24" fill="none" />
  <path d="M64.58074,44.69919 L64.58074,43.2864" stroke="#111111" stroke-width="0.24" fill="none" />
  <path d="M75.39707,49.53121 L75.22274,49.7742 C75.03664,49.90589 74.5671,49.90589 74.381,49.7742" stroke="#111111" stroke-width="0.24" fill="none" />
  <path d="M64.58074,44.84153 L64.40641,45.08452 C64.22031,45.21621 63.75077,45.21621 63.56467,45.08452" stroke="#111111" stroke-width="0.24" fill="none" />
  <path d="M44.61947,67.33887 L35.66102,62.1667" stroke="#111111" stroke-width="0.24" fill="none" />
  <path d="M34.99358,61.92369 L34.81925,62.16668 C34.63315,62.29836 34.16362,62.29836 33.97751,62.16668" stroke="#111111" stroke-width="0.24" fill="none" />
  <path d="M64.5806,44.69912 L74.20656,50.25667" stroke="#111111" stroke-width="0.24" fill="none" />
  <path d="M74.20667,52.20064 L74.20667,64.20777" stroke="#111111" stroke-width="0.24" fill="none" />
  <path d="M34.99358,61.78135 L34.99358,60.36855" stroke="#111111" stroke-width="0.24" fill="none" />
  <path d="M34.99358,75.04511 L34.81925,75.2881 C34.63315,75.41979 34.16362,75.41979 33.97751,75.2881 L33.80318,75.04511" stroke="#111111" stroke-width="0.24" fill="none" />
  <path d="M64.58074,57.96296 L64.40641,58.20595 C64.22031,58.33764 63.75077,58.33764 63.56467,58.20595 L63.39034,57.96296" stroke="#111111" stroke-width="0.24" fill="none" />
  <path d="M75.39707,64.20777 L75.22274,64.45076 C75.03664,64.58245 74.5671,64.58245 74.381,64.45076" stroke="#111111" stroke-width="0.24" fill="none" />
  <path d="M64.40641,58.20595 C64.22031,58.33764 63.75077,58.33764 63.56467,58.20595" stroke="#111111" stroke-width="0.24" fill="none" />
  <path d="M44.79385,81.53291 L44.61951,81.28992" stroke="#111111" stroke-width="0.24" fill="none" />
  <path d="M33.97754,62.1667 L44.79387,68.41151" stroke="#111111" stroke-width="0.24" fill="none" />
  <path d="M74.381,64.45076 L74.20667,64.20777" stroke="#111111" stroke-width="0.24" fill="none" />
  <path d="M74.38103,51.32936 L64.40665,45.57065" stroke="#111111" stroke-width="0.24" fill="none" />
  <path d="M64.58074,57.96296 L64.40641,58.20595" stroke="#111111" stroke-width="0.24" fill="none" />
  <path d="M34.99361,61.58007 L63.5647,45.08455" stroke="#111111" stroke-width="0.24" fill="none" />
  <path d="M64.40643,45.57053 L35.66102,62.1667" stroke="#111111" stroke-width="0.24" fill="none" />
  <path d="M45.80991,81.28992 L45.63559,81.53291 C45.44948,81.6646 44.97995,81.6646 44.79385,81.53291 L44.61951,81.28992" stroke="#111111" stroke-width="0.24" fill="none" />
  <path d="M63.56467,58.20595 L63.39034,57.96296" stroke="#111111" stroke-width="0.24" fill="none" />
</svg>