<?xml version="1.0" encoding="utf-8" standalone="no"?>
<!DOCTYPE svg PUBLIC "-//W3C//DTD SVG 1.1//EN" "http://www.w3.org/Graphics/SVG/1.1/DTD/svg11.dtd">
<svg version="1.1" width="120pt" height="120pt" viewBox="0 0 120 120" overflow="visible" xmlns="http://www.w3.org/2000/svg">
  <path d="M84.33906,62.16665 L55.59353,45.57053 L45.79338,51.22865 L45.79345,50.25661 L55.41931,44.69916 L55.59364,45.08449 C55.77974,45.21618 56.24927,45.21618 56.43538,45.0845 L85.00647,61.58002 L85.00647,61.78131 L85.1808,62.16665 C85.36081,62.29253 85.80836,62.30094 86.00346,62.17741 L75.38054,68.31081 L75.38057,67.33881 z" stroke="Black" stroke-width="0" fill="#555555" fill-opacity="1" />
  <path d="M85.00647,60.36852 L85.1808,60.12553 C85.3669,59.99384 85.83644,59.99384 86.02254,60.12553 L86.19687,60.36852 L86.02254,60.61151 C85.83644,60.7432 85.3669,60.7432 85.1808,60.61151 z" stroke="Black" stroke-width="0" fill="#555555" fill-opacity="1" />
  <path d="M74.19014,66.61333 L74.36447,66.37035 C74.55057,66.23866 75.02011,66.23866 75.20621,66.37035 L75.38054,66.61333 L75.20621,66.85632 C75.02011,66.98801 74.55057,66.98801 74.36447,66.85632 z" stroke="Black" stroke-width="0" fill="#555555" fill-opacity="1" />
  <path d="M55.41931,43.28637 L55.59364,43.04338 C55.77974,42.91169 56.24928,42.91169 56.43538,43.04338 L56.60971,43.28637 L56.43538,43.52936 C56.24928,43.66105 55.77974,43.66105 55.59364,43.52936 z" stroke="Black" stroke-width="0" fill="#555555" fill-opacity="1" />
  <path d="M45.79338,49.53118 L45.61905,49.77417 C45.43295,49.90586 44.96341,49.90586 44.77731,49.77417 L44.60308,49.54007 L44.77731,49.28819 C44.96341,49.1565 45.43295,49.1565 45.61905,49.28819 z" stroke="Black" stroke-width="0" fill="#555555" fill-opacity="1" />
  <path d="M75.38054,69.28276 L75.38054,81.28989 L75.20621,81.53288 C75.02011,81.66457 74.55057,81.66457 74.36447,81.53288 L74.19014,81.28989 L74.19024,66.62223 L74.36447,66.85632 C74.55057,66.98801 75.02011,66.98801 75.20621,66.85632 L75.38044,66.62223 L75.38054,68.31081 L86.00346,62.17741 C85.80836,62.30094 85.36081,62.29253 85.1808,62.16665 L85.00647,61.92366 L85.00657,60.37742 L85.1808,60.61151 C85.3669,60.7432 85.83644,60.7432 86.02254,60.61151 L86.19677,60.37741 L86.19687,75.04508 L86.02254,75.28807 C85.83644,75.41976 85.3669,75.41976 85.1808,75.28807 L85.00647,75.04508 L85.00647,63.72523 z" stroke="Black" stroke-width="0" fill="#777777" fill-opacity="1" />
  <path d="M55.59353,45.57053 L84.33906,62.16665 L83.49732,62.65262 L56.60971,47.12906 L56.60971,57.96293 L56.43538,58.20592 C56.24928,58.33761 55.77974,58.33761 55.59364,58.20592 L55.41931,57.96293 L55.41931,46.64308 L45.79338,52.20061 L45.79338,64.20774 L45.61905,64.45073 C45.43295,64.58242 44.96341,64.58242 44.77731,64.45073 L44.60298,64.20774 L44.60308,49.54007 L44.77731,49.77417 C44.96341,49.90586 45.43295,49.90586 45.61905,49.77417 L45.79328,49.54008 L45.79338,51.22865 z" stroke="Black" stroke-width="0" fill="#777777" fill-opacity="1" />
  <path d="M56.43538,43.52936 L56.60961,43.29526 L56.6097,45.18509 L56.43538,45.08449 C56.24927,45.21618 55.77974,45.21618 55.59364,45.08449 L55.41931,44.8415 L55.41941,43.29527 L55.59364,43.52936 C55.77974,43.66105 56.24928,43.66105 56.43538,43.52936 z" stroke="Black" stroke-width="0" fill="#777777" fill-opacity="1" />
  <path d="M74.36447,66.37035 L74.19014,66.61333" stroke="#000000" stroke-width="0.24" fill="none" />
  <path d="M45.79338,49.53118 L45.79338,51.22865" stroke="#000000" stroke-width="0.24" fill="none" />
  <path d="M86.02256,63.13863 L75.20623,69.38344" stroke="#000000" stroke-width="0.24" fill="none" />
  <path d="M85.00649,63.72525 L85.00649,75.0451" stroke="#000000" stroke-width="0.24" fill="none" />
  <path d="M75.38056,69.28279 L85.00649,63.72525" stroke="#000000" stroke-width="0.24" fill="none" />
  <path d="M55.59364,43.04338 L55.41931,43.28637" stroke="#000000" stroke-width="0.24" fill="none" />
  <path d="M45.61908,52.30128 L55.59364,46.54247" stroke="#000000" stroke-width="0.24" fill="none" />
  <path d="M75.20621,66.37035 C75.02011,66.23866 74.55057,66.23866 74.36447,66.37035" stroke="#000000" stroke-width="0.24" fill="none" />
  <path d="M55.59367,46.54245 L83.49739,62.65268" stroke="#000000" stroke-width="0.24" fill="none" />
  <path d="M85.00649,61.58004 L56.60972,45.18511" stroke="#000000" stroke-width="0.24" fill="none" />
  <path d="M55.41933,46.6431 L55.41933,57.96295" stroke="#000000" stroke-width="0.24" fill="none" />
  <path d="M85.00659,60.37744 L85.00649,61.58004" stroke="#000000" stroke-width="0.24" fill="none" />
  <path d="M45.7934,52.20063 L55.41933,46.6431" stroke="#000000" stroke-width="0.24" fill="none" />
  <path d="M85.1808,60.12553 L85.00647,60.36852" stroke="#000000" stroke-width="0.24" fill="none" />
  <path d="M86.02254,60.12553 C85.83644,59.99384 85.3669,59.99384 85.1808,60.12553" stroke="#000000" stroke-width="0.24" fill="none" />
  <path d="M45.7934,64.20776 L45.7934,52.20063" stroke="#000000" stroke-width="0.24" fill="none" />
  <path d="M86.19687,60.36852 L86.02254,60.12553" stroke="#000000" stroke-width="0.24" fill="none" />
  <path d="M75.38056,81.28992 L75.38056,69.28279" stroke="#000000" stroke-width="0.24" fill="none" />
  <path d="M75.38059,67.33884 L75.38046,66.62225" stroke="#000000" stroke-width="0.24" fill="none" />
  <path d="M44.603,49.5312 L44.603,64.20776" stroke="#000000" stroke-width="0.24" fill="none" />
  <path d="M86.19689,75.0451 L86.19689,60.36855" stroke="#000000" stroke-width="0.24" fill="none" />
  <path d="M83.49734,62.65265 L75.38059,67.33884" stroke="#000000" stroke-width="0.24" fill="none" />
  <path d="M44.77731,49.28819 L44.60298,49.53118" stroke="#000000" stroke-width="0.24" fill="none" />
  <path d="M45.61905,49.28819 C45.43295,49.1565 44.96341,49.1565 44.77731,49.28819" stroke="#000000" stroke-width="0.24" fill="none" />
  <path d="M74.19016,66.61336 L74.19016,81.28992" stroke="#000000" stroke-width="0.24" fill="none" />
  <path d="M45.79338,49.53118 L45.61905,49.28819" stroke="#000000" stroke-width="0.24" fill="none" />
  <path d="M56.60974,47.12908 L83.49734,62.65265" stroke="#000000" stroke-width="0.24" fill="none" />
  <path d="M75.38054,66.61333 L75.20621,66.37035 L75.38054,68.31081" stroke="#000000" stroke-width="0.24" fill="none" />
  <path d="M56.60972,45.18511 L56.60974,43.28639 L56.43538,43.04338" stroke="#000000" stroke-width="0.24" fill="none" />
  <path d="M45.79348,50.25664 L45.7933,49.5401" stroke="#000000" stroke-width="0.24" fill="none" />
  <path d="M56.43538,43.04338 C56.24928,42.91169 55.77974,42.91169 55.59364,43.04338" stroke="#000000" stroke-width="0.24" fill="none" />
  <path d="M55.41933,44.69918 L45.79348,50.25664" stroke="#000000" stroke-width="0.24" fill="none" />
  <path d="M56.60974,57.96295 L56.60974,47.12908" stroke="#000000" stroke-width="0.24" fill="none" />
  <path d="M55.41944,43.29529 L55.41933,44.69918" stroke="#000000" stroke-width="0.24" fill="none" />
  <path d="M55.59367,45.5705 L84.33908,62.16667" stroke="#111111" stroke-width="0.24" fill="none" />
  <path d="M74.19014,81.28989 L74.36447,81.53288 C74.55057,81.66457 75.02011,81.66457 75.20621,81.53288 L75.38054,81.28989" stroke="#111111" stroke-width="0.24" fill="none" />
  <path d="M85.00647,75.04508 L85.1808,75.28807 C85.3669,75.41976 85.83644,75.41976 86.02254,75.28807 L86.19687,75.04508" stroke="#111111" stroke-width="0.24" fill="none" />
  <path d="M75.38054,69.28276 L75.38054,81.28989" stroke="#111111" stroke-width="0.24" fill="none" />
  <path d="M74.36447,81.53288 C74.55057,81.66457 75.02011,81.66457 75.20621,81.53288" stroke="#111111" stroke-width="0.24" fill="none" />
  <path d="M45.79338,52.20061 L45.79338,64.20774" stroke="#111111" stroke-width="0.24" fill="none" />
  <path d="M55.4195,44.69909 L45.79354,50.25664" stroke="#111111" stroke-width="0.24" fill="none" />
  <path d="M55.41931,43.28637 L55.59364,43.52936 C55.77974,43.66105 56.24928,43.66105 56.43538,43.52936 L56.60971,43.28637 L56.43538,43.04338 C56.24928,42.91169 55.77974,42.91169 55.59364,43.04338 z" stroke="#111111" stroke-width="0.24" fill="none" />
  <path d="M56.60971,43.28637 L56.60971,45.18506" stroke="#111111" stroke-width="0.24" fill="none" />
  <path d="M44.60298,49.53118 L44.77731,49.77417 C44.96341,49.90586 45.43295,49.90586 45.61905,49.77417" stroke="#111111" stroke-width="0.24" fill="none" />
  <path d="M45.61905,64.45073 L45.79338,64.20774" stroke="#111111" stroke-width="0.24" fill="none" />
  <path d="M45.61905,49.77417 L45.79338,49.53118 L45.61905,49.28819 C45.43295,49.1565 44.96341,49.1565 44.77731,49.28819 L44.60298,49.53118" stroke="#111111" stroke-width="0.24" fill="none" />
  <path d="M86.02254,75.28807 L86.19687,75.04508" stroke="#111111" stroke-width="0.24" fill="none" />
  <path d="M44.60298,64.20774 L44.60298,49.53118" stroke="#111111" stroke-width="0.24" fill="none" />
  <path d="M44.77731,64.45073 C44.96341,64.58242 45.43295,64.58242 45.61905,64.45073" stroke="#111111" stroke-width="0.24" fill="none" />
  <path d="M85.00647,75.04508 L85.00647,63.72519" stroke="#111111" stroke-width="0.24" fill="none" />
  <path d="M55.59367,45.5705 L55.59367,46.54245" stroke="#111111" stroke-width="0.24" fill="none" />
  <path d="M85.00647,75.04508 L85.1808,75.28807" stroke="#111111" stroke-width="0.24" fill="none" />
  <path d="M74.19014,66.61333 L74.36447,66.85632 C74.55057,66.98801 75.02011,66.98801 75.20621,66.85632 L75.38054,66.61333 L75.20621,66.37035 C75.02011,66.23866 74.55057,66.23866 74.36447,66.37035" stroke="#111111" stroke-width="0.24" fill="none" />
  <path d="M44.60298,64.20774 L44.77731,64.45073" stroke="#111111" stroke-width="0.24" fill="none" />
  <path d="M74.36447,66.37035 L74.19014,66.61333" stroke="#111111" stroke-width="0.24" fill="none" />
  <path d="M86.19687,60.36852 L86.02254,60.12553 C85.83644,59.99384 85.3669,59.99384 85.1808,60.12553" stroke="#111111" stroke-width="0.24" fill="none" />
  <path d="M86.19687,60.36852 L86.19687,75.04508" stroke="#111111" stroke-width="0.24" fill="none" />
  <path d="M85.1808,60.12553 L85.00647,60.36852" stroke="#111111" stroke-width="0.24" fill="none" />
  <path d="M74.19014,81.28989 L74.36447,81.53288" stroke="#111111" stroke-width="0.24" fill="none" />
  <path d="M85.00647,60.36852 L85.1808,60.61151 C85.3669,60.7432 85.83644,60.7432 86.02254,60.61151 L86.19687,60.36852" stroke="#111111" stroke-width="0.24" fill="none" />
  <path d="M74.19014,81.28989 L74.19014,66.61333" stroke="#111111" stroke-width="0.24" fill="none" />
  <path d="M85.1808,75.28807 C85.3669,75.41976 85.83644,75.41976 86.02254,75.28807" stroke="#111111" stroke-width="0.24" fill="none" />
  <path d="M55.41931,57.96293 L55.41931,46.64285" stroke="#111111" stroke-width="0.24" fill="none" />
  <path d="M55.41931,44.69916 L55.41931,43.28637" stroke="#111111" stroke-width="0.24" fill="none" />
  <path d="M55.41931,44.8415 L55.59364,45.08449 C55.77974,45.21618 56.24928,45.21618 56.43538,45.08449" stroke="#111111" stroke-width="0.24" fill="none" />
  <path d="M75.38063,67.33884 L84.33908,62.16667" stroke="#111111" stroke-width="0.24" fill="none" />
  <path d="M85.00647,61.92366 L85.1808,62.16665 C85.3669,62.29833 85.83644,62.29833 86.02254,62.16665" stroke="#111111" stroke-width="0.24" fill="none" />
  <path d="M56.60971,47.12906 L56.60971,57.96293" stroke="#111111" stroke-width="0.24" fill="none" />
  <path d="M85.00647,61.78131 L85.00647,60.36852" stroke="#111111" stroke-width="0.24" fill="none" />
  <path d="M55.41931,57.96293 L55.59364,58.20592 C55.77974,58.33761 56.24928,58.33761 56.43538,58.20592 L56.60971,57.96293" stroke="#111111" stroke-width="0.24" fill="none" />
  <path d="M44.60298,64.20774 L44.77731,64.45073 C44.96341,64.58242 45.43295,64.58242 45.61905,64.45073" stroke="#111111" stroke-width="0.24" fill="none" />
  <path d="M56.43538,58.20592 L56.60971,57.96293" stroke="#111111" stroke-width="0.24" fill="none" />
  <path d="M55.59364,58.20592 C55.77974,58.33761 56.24928,58.33761 56.43538,58.20592" stroke="#111111" stroke-width="0.24" fill="none" />
  <path d="M75.20621,81.53288 L75.38054,81.28989" stroke="#111111" stroke-width="0.24" fill="none" />
  <path d="M86.02256,62.16667 L75.20623,68.41148" stroke="#111111" stroke-width="0.24" fill="none" />
  <path d="M45.61905,64.45073 L45.79338,64.20774" stroke="#111111" stroke-width="0.24" fill="none" />
  <path d="M45.61908,51.32933 L55.59345,45.57062" stroke="#111111" stroke-width="0.24" fill="none" />
  <path d="M85.00649,61.58004 L56.43541,45.08451" stroke="#111111" stroke-width="0.24" fill="none" />
  <path d="M55.41931,57.96293 L55.59364,58.20592" stroke="#111111" stroke-width="0.24" fill="none" />
</svg>