<?xml version="1.0" encoding="utf-8" standalone="no"?><!DOCTYPE svg PUBLIC "-//W3C//DTD SVG 1.1//EN" "http://www.w3.org/Graphics/SVG/1.1/DTD/svg11.dtd"><svg xmlns="http://www.w3.org/2000/svg" version="1.1" width="120pt" height="120pt" viewBox="0 0 120 120" overflow="visible">
  <path d="M40.81285,69.37932 L87.98125,42.14663 L83.95502,39.82208 L83.78104,39.57958 L83.95502,39.33708 C84.14075,39.20566 84.60934,39.20566 84.79507,39.33708 L88.99528,41.76207 C89.20196,41.85721 89.43625,42.26302 89.4153,42.48957 L89.29227,42.76149 L40.45142,70.95966 L40.56681,70.69226 C40.58776,70.46571 40.35347,70.0599 40.14679,69.96477 L35.94657,67.53977 L35.77269,67.30614 L35.94657,67.05477 C36.1323,66.92335 36.60089,66.92335 36.78662,67.05477 z" stroke="Black" stroke-width="0" fill="#555555" fill-opacity="1"/>
  <path d="M84.96904,43.88573 L83.78104,44.57162 L83.78114,39.58846 L83.95502,39.82208 L87.98125,42.14663 L87.14117,42.63162 L84.96904,41.37752 z" stroke="Black" stroke-width="0" fill="#777777" fill-opacity="1"/>
  <path d="M83.78104,45.94341 L84.96904,45.25751 L84.96904,47.82456 L84.79507,48.06706 C84.60934,48.19849 84.14075,48.19849 83.95502,48.06706 L83.78104,47.82456 z" stroke="Black" stroke-width="0" fill="#777777" fill-opacity="1"/>
  <path d="M36.96059,69.09521 L36.96059,75.54225 L36.78661,75.78475 C36.60089,75.91618 36.1323,75.91618 35.94657,75.78475 L35.77259,75.54225 L35.77269,67.30614 L35.94657,67.53977 L40.14679,69.96477 C40.35347,70.0599 40.58776,70.46571 40.56681,70.69226 L40.45142,70.95966 L40.14679,70.93476 z" stroke="Black" stroke-width="0" fill="#777777" fill-opacity="1"/>
  <path d="M35.94659,67.53979 L40.14681,69.96479" stroke="#000000" stroke-width="0.24" fill="none"/>
  <path d="M40.98685,69.47979 L36.78664,67.05479" stroke="#000000" stroke-width="0.24" fill="none"/>
  <path d="M40.14679,69.96477 C40.35347,70.0599 40.58776,70.46571 40.56681,70.69226 L40.44379,70.96418" stroke="#000000" stroke-width="0.24" fill="none"/>
  <path d="M35.77259,67.29727 L35.94657,67.05477 C36.1323,66.92335 36.60089,66.92335 36.78661,67.05477" stroke="#000000" stroke-width="0.24" fill="none"/>
  <path d="M35.77259,67.29727 L35.77259,75.54225" stroke="#000000" stroke-width="0.24" fill="none"/>
  <path d="M40.44379,70.96418 L40.14679,70.93476" stroke="#000000" stroke-width="0.24" fill="none"/>
  <path d="M87.98128,42.14665 L83.95505,39.8221 L83.95502,39.82208" stroke="#000000" stroke-width="0.24" fill="none"/>
  <path d="M88.99528,41.76207 C89.20196,41.85721 89.43625,42.26302 89.4153,42.48957 L89.29227,42.76149" stroke="#000000" stroke-width="0.24" fill="none"/>
  <path d="M83.78104,45.94341 L83.78104,47.82456" stroke="#000000" stroke-width="0.24" fill="none"/>
  <path d="M84.79509,39.3371 L88.9953,41.7621" stroke="#000000" stroke-width="0.24" fill="none"/>
  <path d="M87.98125,42.14663 L40.81272,69.37939" stroke="#000000" stroke-width="0.24" fill="none"/>
  <path d="M40.44379,70.96418 L89.29227,42.76149" stroke="#000000" stroke-width="0.24" fill="none"/>
  <path d="M84.96904,43.88573 L84.96904,41.37752" stroke="#000000" stroke-width="0.24" fill="none"/>
  <path d="M36.96059,75.54225 L36.96059,69.09521" stroke="#000000" stroke-width="0.24" fill="none"/>
  <path d="M84.96904,47.82456 L84.96904,45.25736" stroke="#000000" stroke-width="0.24" fill="none"/>
  <path d="M87.14117,42.63161 L83.95505,40.7921" stroke="#000000" stroke-width="0.24" fill="none"/>
  <path d="M83.78104,39.57958 L83.78104,44.57162" stroke="#000000" stroke-width="0.24" fill="none"/>
  <path d="M84.79507,39.33708 C84.60934,39.20566 84.14075,39.20566 83.95502,39.33708 L83.78104,39.57958" stroke="#000000" stroke-width="0.24" fill="none"/>
  <path d="M35.94657,67.53977 L35.77259,67.29727" stroke="#000000" stroke-width="0.24" fill="none"/>
  <path d="M35.94659,68.5098 L40.14681,70.93478" stroke="#000000" stroke-width="0.24" fill="none"/>
  <path d="M36.96059,75.54225 L36.78661,75.78475 C36.60089,75.91618 36.1323,75.91618 35.94657,75.78475 L35.77259,75.54225" stroke="#111111" stroke-width="0.24" fill="none"/>
  <path d="M83.95502,48.06706 C84.14075,48.19849 84.60934,48.19849 84.79507,48.06706 L84.96904,47.82456" stroke="#111111" stroke-width="0.24" fill="none"/>
  <path d="M83.78104,47.82456 L83.95502,48.06706" stroke="#111111" stroke-width="0.24" fill="none"/>
</svg>