<?xml version="1.0" encoding="utf-8" standalone="no"?><!DOCTYPE svg PUBLIC "-//W3C//DTD SVG 1.1//EN" "http://www.w3.org/Graphics/SVG/1.1/DTD/svg11.dtd"><svg xmlns="http://www.w3.org/2000/svg" version="1.1" width="120pt" height="120pt" viewBox="0 0 120 120" overflow="visible">
  <path d="M49.73794,65.81322 L78.42536,49.25043 L74.39912,46.92588 L74.22514,46.68339 L74.39912,46.44089 C74.58485,46.30946 75.05344,46.30946 75.23917,46.44089 L79.43938,48.86588 C79.64606,48.96101 79.88036,49.36683 79.85941,49.59338 L79.73638,49.8653 L49.37651,67.39357 L49.4919,67.12617 C49.51285,66.89961 49.27856,66.4938 49.07188,66.39867 L44.87166,63.97368 L44.69778,63.74005 L44.87166,63.48868 C45.05739,63.35725 45.52598,63.35725 45.71171,63.48868 z" stroke="Black" stroke-width="0" fill="#555555" fill-opacity="1"/>
  <path d="M74.22514,53.04721 L75.41315,52.36132 L75.41315,54.92837 L75.23917,55.17087 C75.05344,55.30229 74.58485,55.30229 74.39912,55.17087 L74.22514,54.92837 z" stroke="Black" stroke-width="0" fill="#777777" fill-opacity="1"/>
  <path d="M45.88568,65.52912 L45.88568,71.97616 L45.7117,72.21866 C45.52598,72.35008 45.05739,72.35008 44.87166,72.21866 L44.69769,71.97616 L44.69778,63.74005 L44.87166,63.97368 L49.07188,66.39867 C49.27856,66.4938 49.51285,66.89961 49.4919,67.12617 L49.37651,67.39357 L49.07188,67.36867 z" stroke="Black" stroke-width="0" fill="#777777" fill-opacity="1"/>
  <path d="M75.41315,50.98954 L74.22514,51.67543 L74.22524,46.69226 L74.39912,46.92588 L78.42536,49.25043 L77.58527,49.73542 L75.41315,48.48133 z" stroke="Black" stroke-width="0" fill="#777777" fill-opacity="1"/>
  <path d="M44.69769,63.73118 L44.87166,63.48868 C45.05739,63.35725 45.52598,63.35725 45.7117,63.48868" stroke="#000000" stroke-width="0.24" fill="none"/>
  <path d="M75.23919,46.44091 L79.43941,48.86591" stroke="#000000" stroke-width="0.24" fill="none"/>
  <path d="M49.91195,65.9137 L45.71173,63.4887" stroke="#000000" stroke-width="0.24" fill="none"/>
  <path d="M44.87169,63.9737 L49.0719,66.3987" stroke="#000000" stroke-width="0.24" fill="none"/>
  <path d="M78.42538,49.25046 L49.73783,65.81332" stroke="#000000" stroke-width="0.24" fill="none"/>
  <path d="M75.41315,54.92837 L75.41315,52.36116" stroke="#000000" stroke-width="0.24" fill="none"/>
  <path d="M77.58528,49.73542 L74.39915,47.89591" stroke="#000000" stroke-width="0.24" fill="none"/>
  <path d="M74.22517,46.68341 L74.22517,51.67545" stroke="#000000" stroke-width="0.24" fill="none"/>
  <path d="M74.22514,46.68339 L74.39912,46.92588" stroke="#000000" stroke-width="0.24" fill="none"/>
  <path d="M75.23917,46.44089 C75.05344,46.30946 74.58485,46.30946 74.39912,46.44089 L74.22514,46.68339" stroke="#000000" stroke-width="0.24" fill="none"/>
  <path d="M79.43938,48.86588 C79.64606,48.96101 79.88036,49.36683 79.85941,49.59338 L79.73638,49.8653" stroke="#000000" stroke-width="0.24" fill="none"/>
  <path d="M44.87166,63.97368 L44.69769,63.73118" stroke="#000000" stroke-width="0.24" fill="none"/>
  <path d="M49.3689,67.39812 L79.7364,49.86532" stroke="#000000" stroke-width="0.24" fill="none"/>
  <path d="M75.41317,50.98956 L75.41317,48.48135" stroke="#000000" stroke-width="0.24" fill="none"/>
  <path d="M49.36888,67.39809 L49.07188,67.36867" stroke="#000000" stroke-width="0.24" fill="none"/>
  <path d="M44.87169,64.9437 L49.0719,67.36869" stroke="#000000" stroke-width="0.24" fill="none"/>
  <path d="M78.42538,49.25046 L74.39915,46.92591" stroke="#000000" stroke-width="0.24" fill="none"/>
  <path d="M45.88568,71.97616 L45.88568,65.52912" stroke="#000000" stroke-width="0.24" fill="none"/>
  <path d="M74.22517,53.04724 L74.22517,54.92839" stroke="#000000" stroke-width="0.24" fill="none"/>
  <path d="M44.69769,63.73118 L44.69769,71.97616" stroke="#000000" stroke-width="0.24" fill="none"/>
  <path d="M49.07188,66.39867 C49.27856,66.4938 49.51285,66.89961 49.4919,67.12617 L49.36888,67.39809" stroke="#000000" stroke-width="0.24" fill="none"/>
  <path d="M45.88568,71.97616 L45.7117,72.21866 C45.52598,72.35008 45.05739,72.35008 44.87166,72.21866 L44.69769,71.97616" stroke="#111111" stroke-width="0.24" fill="none"/>
  <path d="M74.39912,55.17087 C74.58485,55.30229 75.05344,55.30229 75.23917,55.17087 L75.41315,54.92837" stroke="#111111" stroke-width="0.24" fill="none"/>
  <path d="M74.22514,54.92837 L74.39912,55.17087" stroke="#111111" stroke-width="0.24" fill="none"/>
</svg>