<?xml version="1.0" encoding="utf-8" standalone="no"?><!DOCTYPE svg PUBLIC "-//W3C//DTD SVG 1.1//EN" "http://www.w3.org/Graphics/SVG/1.1/DTD/svg11.dtd"><svg xmlns="http://www.w3.org/2000/svg" version="1.1" width="120pt" height="120pt" viewBox="0 0 120 120" overflow="visible">
  <path d="M70.02206,65.81322 L74.04829,63.48868 C74.23402,63.35725 74.70261,63.35725 74.88834,63.48868 L75.06232,63.73118 L74.88834,63.97368 L70.68813,66.39867 C70.48145,66.4938 70.24715,66.89961 70.2681,67.12617 L70.38348,67.39357 L40.02362,49.8653 L39.9006,49.59338 C39.87965,49.36683 40.11394,48.96101 40.32062,48.86588 L44.52083,46.44089 C44.70656,46.30946 45.17515,46.30946 45.36087,46.44089 L45.53485,46.68339 L45.36087,46.92588 L41.33464,49.25043 z" stroke="Black" stroke-width="0" fill="#555555" fill-opacity="1"/>
  <path d="M44.34686,50.98954 L44.34686,48.48133 L42.17473,49.73542 L41.33464,49.25043 L45.36087,46.92588 L45.53476,46.69226 L45.53485,51.67543 z" stroke="Black" stroke-width="0" fill="#777777" fill-opacity="1"/>
  <path d="M45.53485,53.04721 L45.53485,54.92837 L45.36087,55.17087 C45.17515,55.30229 44.70656,55.30229 44.52083,55.17087 L44.34686,54.92837 L44.34686,52.36132 z" stroke="Black" stroke-width="0" fill="#777777" fill-opacity="1"/>
  <path d="M73.87431,65.52912 L70.68813,67.36867 L70.39112,67.39809 L70.2681,67.12617 C70.24715,66.89961 70.48145,66.4938 70.68813,66.39867 L74.88834,63.97368 L75.06222,63.74005 L75.06232,71.97616 L74.88834,72.21866 C74.70261,72.35008 74.23402,72.35008 74.04829,72.21866 L73.87431,71.97616 z" stroke="Black" stroke-width="0" fill="#777777" fill-opacity="1"/>
  <path d="M44.52083,46.44089 C44.70656,46.30946 45.17515,46.30946 45.36087,46.44089 L45.53485,46.68339" stroke="#000000" stroke-width="0.24" fill="none"/>
  <path d="M41.33466,49.25046 L45.3609,46.92591" stroke="#000000" stroke-width="0.24" fill="none"/>
  <path d="M44.34686,54.92837 L44.34686,52.36116" stroke="#000000" stroke-width="0.24" fill="none"/>
  <path d="M45.53488,46.68341 L45.53488,51.67545" stroke="#000000" stroke-width="0.24" fill="none"/>
  <path d="M44.34688,50.98956 L44.34688,48.48135" stroke="#000000" stroke-width="0.24" fill="none"/>
  <path d="M45.53488,53.04724 L45.53488,54.92839" stroke="#000000" stroke-width="0.24" fill="none"/>
  <path d="M44.52086,46.44091 L40.32064,48.86591" stroke="#000000" stroke-width="0.24" fill="none"/>
  <path d="M70.39114,67.39812 L40.02364,49.86532" stroke="#000000" stroke-width="0.24" fill="none"/>
  <path d="M42.17477,49.73542 L45.3609,47.89591" stroke="#000000" stroke-width="0.24" fill="none"/>
  <path d="M74.88834,63.97368 L75.06232,63.73118" stroke="#000000" stroke-width="0.24" fill="none"/>
  <path d="M70.39112,67.39809 L70.68813,67.36867" stroke="#000000" stroke-width="0.24" fill="none"/>
  <path d="M73.87431,71.97616 L73.87431,65.52912" stroke="#000000" stroke-width="0.24" fill="none"/>
  <path d="M75.06232,63.73118 L74.88834,63.48868 C74.70261,63.35725 74.23402,63.35725 74.04829,63.48868" stroke="#000000" stroke-width="0.24" fill="none"/>
  <path d="M70.68813,66.39867 C70.48145,66.4938 70.24715,66.89961 70.2681,67.12617 L70.39112,67.39809" stroke="#000000" stroke-width="0.24" fill="none"/>
  <path d="M74.88836,63.9737 L70.68815,66.3987" stroke="#000000" stroke-width="0.24" fill="none"/>
  <path d="M74.88836,64.9437 L70.68815,67.36869" stroke="#000000" stroke-width="0.24" fill="none"/>
  <path d="M45.53485,46.68339 L45.36087,46.92588" stroke="#000000" stroke-width="0.24" fill="none"/>
  <path d="M69.84811,65.9137 L74.04832,63.4887" stroke="#000000" stroke-width="0.24" fill="none"/>
  <path d="M75.06232,63.73118 L75.06232,71.97616" stroke="#000000" stroke-width="0.24" fill="none"/>
  <path d="M41.33466,49.25046 L70.02222,65.81332" stroke="#000000" stroke-width="0.24" fill="none"/>
  <path d="M40.32062,48.86588 C40.11394,48.96101 39.87965,49.36683 39.9006,49.59338 L40.02362,49.8653" stroke="#000000" stroke-width="0.24" fill="none"/>
  <path d="M45.53485,54.92837 L45.36087,55.17087" stroke="#111111" stroke-width="0.24" fill="none"/>
  <path d="M73.87431,71.97616 L74.04829,72.21866 C74.23402,72.35008 74.70261,72.35008 74.88834,72.21866 L75.06232,71.97616" stroke="#111111" stroke-width="0.24" fill="none"/>
  <path d="M45.36087,55.17087 C45.17515,55.30229 44.70656,55.30229 44.52083,55.17087 L44.34686,54.92837" stroke="#111111" stroke-width="0.24" fill="none"/>
</svg>