<?xml version="1.0" encoding="utf-8" standalone="no"?><!DOCTYPE svg PUBLIC "-//W3C//DTD SVG 1.1//EN" "http://www.w3.org/Graphics/SVG/1.1/DTD/svg11.dtd"><svg xmlns="http://www.w3.org/2000/svg" version="1.1" width="120pt" height="120pt" viewBox="0 0 120 120" overflow="visible">
  <path d="M78.94715,69.37932 L82.97338,67.05477 C83.15911,66.92335 83.6277,66.92335 83.81343,67.05477 L83.9874,67.29727 L83.81343,67.53977 L79.61321,69.96477 C79.40653,70.0599 79.17224,70.46571 79.19319,70.69226 L79.30858,70.95966 L30.46772,42.76149 L30.3447,42.48957 C30.32375,42.26302 30.55804,41.85721 30.76472,41.76207 L34.96494,39.33708 C35.15066,39.20566 35.61926,39.20566 35.80498,39.33708 L35.97896,39.57958 L35.80498,39.82208 L31.77874,42.14663 z" stroke="Black" stroke-width="0" fill="#555555" fill-opacity="1"/>
  <path d="M34.79096,43.88573 L34.79096,41.37752 L32.61883,42.63162 L31.77874,42.14663 L35.80498,39.82208 L35.97886,39.58846 L35.97896,44.57162 z" stroke="Black" stroke-width="0" fill="#777777" fill-opacity="1"/>
  <path d="M35.97896,45.94341 L35.97896,47.82456 L35.80498,48.06706 C35.61926,48.19849 35.15066,48.19849 34.96494,48.06706 L34.79096,47.82456 L34.79096,45.25751 z" stroke="Black" stroke-width="0" fill="#777777" fill-opacity="1"/>
  <path d="M82.79941,69.09521 L79.61321,70.93476 L79.31622,70.96418 L79.19319,70.69226 C79.17224,70.46571 79.40653,70.0599 79.61321,69.96477 L83.81343,67.53977 L83.9873,67.30614 L83.9874,75.54225 L83.81343,75.78475 C83.6277,75.91618 83.15911,75.91618 82.97339,75.78475 L82.79941,75.54225 z" stroke="Black" stroke-width="0" fill="#777777" fill-opacity="1"/>
  <path d="M83.81345,68.5098 L79.61324,70.93478" stroke="#000000" stroke-width="0.24" fill="none"/>
  <path d="M83.81345,67.53979 L79.61324,69.96479" stroke="#000000" stroke-width="0.24" fill="none"/>
  <path d="M78.77319,69.47979 L82.97341,67.05479" stroke="#000000" stroke-width="0.24" fill="none"/>
  <path d="M83.9874,67.29727 L83.81343,67.05477 C83.6277,66.92335 83.15911,66.92335 82.97339,67.05477" stroke="#000000" stroke-width="0.24" fill="none"/>
  <path d="M83.9874,67.29727 L83.9874,75.54225" stroke="#000000" stroke-width="0.24" fill="none"/>
  <path d="M82.79941,75.54225 L82.79941,69.09521" stroke="#000000" stroke-width="0.24" fill="none"/>
  <path d="M83.81343,67.53977 L83.9874,67.29727" stroke="#000000" stroke-width="0.24" fill="none"/>
  <path d="M34.96494,39.33708 C35.15066,39.20566 35.61926,39.20566 35.80498,39.33708 L35.97896,39.57958" stroke="#000000" stroke-width="0.24" fill="none"/>
  <path d="M34.79096,47.82456 L34.79096,45.25736" stroke="#000000" stroke-width="0.24" fill="none"/>
  <path d="M35.97896,39.57958 L35.80498,39.82208" stroke="#000000" stroke-width="0.24" fill="none"/>
  <path d="M30.76472,41.76207 C30.55804,41.85721 30.32375,42.26302 30.3447,42.48957 L30.46772,42.76149" stroke="#000000" stroke-width="0.24" fill="none"/>
  <path d="M34.96496,39.3371 L30.76475,41.7621" stroke="#000000" stroke-width="0.24" fill="none"/>
  <path d="M31.77874,42.14663 L78.94728,69.37939" stroke="#000000" stroke-width="0.24" fill="none"/>
  <path d="M32.61887,42.63161 L35.805,40.7921" stroke="#000000" stroke-width="0.24" fill="none"/>
  <path d="M35.97896,45.94341 L35.97896,47.82456" stroke="#000000" stroke-width="0.24" fill="none"/>
  <path d="M35.97896,39.57958 L35.97896,44.57162" stroke="#000000" stroke-width="0.24" fill="none"/>
  <path d="M79.31622,70.96418 L79.61321,70.93476 L30.46772,42.76149" stroke="#000000" stroke-width="0.24" fill="none"/>
  <path d="M34.79096,43.88573 L34.79096,41.37752" stroke="#000000" stroke-width="0.24" fill="none"/>
  <path d="M31.77877,42.14665 L35.805,39.8221" stroke="#000000" stroke-width="0.24" fill="none"/>
  <path d="M79.61321,69.96477 C79.40653,70.0599 79.17224,70.46571 79.19319,70.69226 L79.31622,70.96418" stroke="#000000" stroke-width="0.24" fill="none"/>
  <path d="M82.79941,75.54225 L82.97339,75.78475 C83.15911,75.91618 83.6277,75.91618 83.81343,75.78475 L83.9874,75.54225" stroke="#111111" stroke-width="0.24" fill="none"/>
  <path d="M35.80498,48.06706 C35.61926,48.19849 35.15066,48.19849 34.96494,48.06706 L34.79096,47.82456" stroke="#111111" stroke-width="0.24" fill="none"/>
  <path d="M35.97896,47.82456 L35.80498,48.06706" stroke="#111111" stroke-width="0.24" fill="none"/>
</svg>