<?xml version="1.0" encoding="utf-8" standalone="no"?><!DOCTYPE svg PUBLIC "-//W3C//DTD SVG 1.1//EN" "http://www.w3.org/Graphics/SVG/1.1/DTD/svg11.dtd"><svg xmlns="http://www.w3.org/2000/svg" version="1.1" width="120pt" height="120pt" viewBox="0 0 120 120" overflow="visible">
  <path d="M51.96801,47.39244 L51.79413,47.62606 C51.63768,47.72988 51.28094,47.76305 51.06365,47.67594 L50.78031,47.39243 L50.95409,47.14106 C51.13981,47.00964 51.6084,47.00964 51.79413,47.14106 z" stroke="Black" stroke-width="0" fill="#555555" fill-opacity="1"/>
  <path d="M69.90295,57.74718 L69.72907,57.9808 C69.54334,58.11223 69.07475,58.11223 68.88903,57.9808 L68.71515,57.74718 L68.88903,57.4958 C69.07475,57.36438 69.54334,57.36438 69.72907,57.4958 z" stroke="Black" stroke-width="0" fill="#555555" fill-opacity="1"/>
  <path d="M68.71505,59.43235 L51.06364,49.2413 C51.28096,49.32839 51.63762,49.2952 51.79405,49.1914 L51.96807,48.9489 L68.71505,58.4725 z" stroke="Black" stroke-width="0" fill="#555555" fill-opacity="1"/>
  <path d="M68.71505,72.38527 L68.71505,60.40235 L51.96811,50.7335 L51.96811,62.03053 L51.79413,62.27303 C51.6084,62.40445 51.13981,62.40445 50.95409,62.27303 L50.78011,62.03053 L50.78021,47.39243 L50.95409,47.62606 C51.28094,47.76305 51.63768,47.72988 51.79413,47.62606 L51.96801,47.39244 L51.96807,48.9489 L51.79405,49.1914 C51.63762,49.2952 51.28096,49.32839 51.06366,49.24131 L68.71505,59.43235 L68.71515,57.74718 L68.88903,57.9808 C69.07475,58.11223 69.54334,58.11223 69.72907,57.9808 L69.90295,57.74718 L69.90305,72.38527 L69.72907,72.62777 C69.54334,72.75919 69.07475,72.75919 68.88903,72.62777 z" stroke="Black" stroke-width="0" fill="#777777" fill-opacity="1"/>
  <path d="M68.71505,57.7383 L68.88903,57.4958 C69.07475,57.36438 69.54334,57.36438 69.72907,57.4958 L69.90305,57.7383" stroke="#000000" stroke-width="0.24" fill="none"/>
  <path d="M69.90305,72.38527 L69.90305,57.7383" stroke="#000000" stroke-width="0.24" fill="none"/>
  <path d="M68.71505,57.7383 L68.71505,59.43235" stroke="#000000" stroke-width="0.24" fill="none"/>
  <path d="M68.71507,72.3853 L68.71507,60.40237" stroke="#000000" stroke-width="0.24" fill="none"/>
  <path d="M50.78011,47.38356 L50.95409,47.14106 C51.13981,47.00964 51.6084,47.00964 51.79413,47.14106" stroke="#000000" stroke-width="0.24" fill="none"/>
  <path d="M68.88908,60.50284 L51.06366,50.21133" stroke="#000000" stroke-width="0.24" fill="none"/>
  <path d="M68.71507,58.47252 L51.96813,48.80367" stroke="#000000" stroke-width="0.24" fill="none"/>
  <path d="M50.78013,62.03055 L50.78013,47.38358" stroke="#000000" stroke-width="0.24" fill="none"/>
  <path d="M51.96813,50.73352 L51.96813,62.03055" stroke="#000000" stroke-width="0.24" fill="none"/>
  <path d="M51.96813,47.38358 L51.96813,48.94892" stroke="#000000" stroke-width="0.24" fill="none"/>
  <path d="M51.79413,47.14106 L51.96811,47.38356" stroke="#000000" stroke-width="0.24" fill="none"/>
  <path d="M69.90305,57.7383 L69.72907,57.9808 C69.54334,58.11223 69.07475,58.11223 68.88903,57.9808 L68.71505,57.7383" stroke="#111111" stroke-width="0.24" fill="none"/>
  <path d="M69.90305,72.38527 L69.72907,72.62777 C69.54334,72.75919 69.07475,72.75919 68.88903,72.62777 L68.71505,72.38527" stroke="#111111" stroke-width="0.24" fill="none"/>
  <path d="M50.78011,47.38356 L50.95409,47.14106 C51.13981,47.00964 51.6084,47.00964 51.79413,47.14106 L51.79413,47.62606 C51.6084,47.75748 51.13981,47.75748 50.95409,47.62606 z" stroke="#111111" stroke-width="0.24" fill="none"/>
  <path d="M51.96813,48.66537 L51.96813,47.38358" stroke="#111111" stroke-width="0.24" fill="none"/>
  <path d="M68.88908,59.53284 L51.06366,49.24133" stroke="#111111" stroke-width="0.24" fill="none"/>
  <path d="M51.96803,48.9489 L51.79405,49.1914 C51.63762,49.2952 51.28093,49.32839 51.06364,49.2413" stroke="#111111" stroke-width="0.24" fill="none"/>
  <path d="M51.96811,62.03053 L51.79413,62.27303 C51.6084,62.40445 51.13981,62.40445 50.95409,62.27303 L50.78011,62.03053" stroke="#111111" stroke-width="0.24" fill="none"/>
</svg>