<?xml version="1.0" encoding="utf-8" standalone="no"?>
<!DOCTYPE svg PUBLIC "-//W3C//DTD SVG 1.1//EN" "http://www.w3.org/Graphics/SVG/1.1/DTD/svg11.dtd">
<svg version="1.1" width="120pt" height="120pt" viewBox="0 0 120 120" overflow="visible" xmlns="http://www.w3.org/2000/svg">
  <path d="M87.25855,65.42243 L39.99475,38.13478 L30.19459,43.79291 L30.19466,42.82087 L39.82053,37.26342 L39.99485,37.64875 C40.18095,37.78043 40.65049,37.78043 40.83659,37.64875 L87.92596,64.8358 L87.92596,65.0371 L88.10029,65.42243 C88.2803,65.54832 88.72786,65.55672 88.92296,65.4332 L78.30003,71.5666 L78.30006,70.5946 z" stroke="Black" stroke-width="0" fill="#555555" fill-opacity="1" />
  <path d="M77.10963,69.86913 L77.28396,69.62613 C77.47006,69.49445 77.9396,69.49445 78.1257,69.62613 L78.30003,69.86913 L78.1257,70.11211 C77.9396,70.2438 77.47006,70.2438 77.28396,70.11211 z" stroke="Black" stroke-width="0" fill="#555555" fill-opacity="1" />
  <path d="M87.92596,63.62431 L88.10029,63.38132 C88.28639,63.24963 88.75593,63.24963 88.94203,63.38132 L89.11636,63.62431 L88.94203,63.8673 C88.75593,63.99899 88.28639,63.99899 88.10029,63.8673 z" stroke="Black" stroke-width="0" fill="#555555" fill-opacity="1" />
  <path d="M30.19459,42.09544 L30.02026,42.33842 C29.83416,42.47011 29.36463,42.47011 29.17852,42.33842 L29.00429,42.10433 L29.17852,41.85245 C29.36463,41.72076 29.83416,41.72076 30.02026,41.85245 z" stroke="Black" stroke-width="0" fill="#555555" fill-opacity="1" />
  <path d="M39.82053,35.85062 L39.99485,35.60764 C40.18096,35.47594 40.65049,35.47594 40.83659,35.60764 L41.01093,35.85062 L40.83659,36.09361 C40.65049,36.2253 40.18096,36.2253 39.99485,36.09361 z" stroke="Black" stroke-width="0" fill="#555555" fill-opacity="1" />
  <path d="M78.30003,72.53855 L78.30003,84.54568 L78.1257,84.78867 C77.9396,84.92036 77.47006,84.92036 77.28396,84.78867 L77.10963,84.54568 L77.10973,69.87801 L77.28396,70.11211 C77.47006,70.2438 77.9396,70.2438 78.1257,70.11211 L78.29993,69.87801 L78.30003,71.5666 L88.92296,65.4332 C88.72786,65.55672 88.2803,65.54832 88.10029,65.42243 L87.92596,65.17944 L87.92606,63.63321 L88.10029,63.8673 C88.28639,63.99899 88.75593,63.99899 88.94203,63.8673 L89.11626,63.6332 L89.11636,78.30087 L88.94203,78.54386 C88.75593,78.67554 88.28639,78.67554 88.10029,78.54386 L87.92596,78.30087 L87.92596,66.98102 z" stroke="Black" stroke-width="0" fill="#777777" fill-opacity="1" />
  <path d="M40.83659,36.09361 L41.01083,35.85952 L41.01091,37.74934 L40.83659,37.64875 C40.65049,37.78043 40.18095,37.78043 39.99485,37.64875 L39.82053,37.40575 L39.82063,35.85952 L39.99485,36.09361 C40.18096,36.2253 40.65049,36.2253 40.83659,36.09361 z" stroke="Black" stroke-width="0" fill="#777777" fill-opacity="1" />
  <path d="M39.99475,38.13478 L87.25855,65.42243 L86.41681,65.90841 L41.01093,39.69331 L41.01093,50.52718 L40.83659,50.77017 C40.65049,50.90186 40.18096,50.90186 39.99485,50.77017 L39.82053,50.52718 L39.82053,39.20733 L30.19459,44.76487 L30.19459,56.772 L30.02026,57.01498 C29.83416,57.14667 29.36463,57.14667 29.17852,57.01498 L29.00419,56.772 L29.00429,42.10433 L29.17852,42.33842 C29.36463,42.47011 29.83416,42.47011 30.02026,42.33842 L30.19449,42.10433 L30.19459,43.79291 z" stroke="Black" stroke-width="0" fill="#777777" fill-opacity="1" />
  <path d="M87.92599,64.83583 L41.01093,37.74937 L41.01095,35.85065 L40.83659,35.60764 C40.65049,35.47594 40.18096,35.47594 39.99485,35.60764 L39.82053,35.85062 L39.82055,37.26344" stroke="#000000" stroke-width="0.24" fill="none" />
  <path d="M30.02029,44.86554 L39.99485,39.10672" stroke="#000000" stroke-width="0.24" fill="none" />
  <path d="M39.82055,37.26344 L30.19469,42.82089" stroke="#000000" stroke-width="0.24" fill="none" />
  <path d="M89.11639,78.3009 L89.11639,63.62433" stroke="#000000" stroke-width="0.24" fill="none" />
  <path d="M30.19469,42.82089 L30.19452,42.10435" stroke="#000000" stroke-width="0.24" fill="none" />
  <path d="M89.11636,63.62431 L88.94203,63.38132" stroke="#000000" stroke-width="0.24" fill="none" />
  <path d="M30.19462,42.09546 L30.19462,43.79293" stroke="#000000" stroke-width="0.24" fill="none" />
  <path d="M88.94203,63.38132 C88.75593,63.24963 88.28639,63.24963 88.10029,63.38132 L87.92596,63.62431" stroke="#000000" stroke-width="0.24" fill="none" />
  <path d="M30.19459,42.09544 L30.02026,41.85245" stroke="#000000" stroke-width="0.24" fill="none" />
  <path d="M87.92609,63.63323 L87.92599,64.83583" stroke="#000000" stroke-width="0.24" fill="none" />
  <path d="M30.02026,41.85245 C29.83416,41.72076 29.36463,41.72076 29.17852,41.85245" stroke="#000000" stroke-width="0.24" fill="none" />
  <path d="M78.30009,70.59462 L78.29996,69.87804 L78.1257,69.62613" stroke="#000000" stroke-width="0.24" fill="none" />
  <path d="M29.17852,41.85245 L29.00419,42.09544 L29.00422,56.77202" stroke="#000000" stroke-width="0.24" fill="none" />
  <path d="M78.1257,69.62613 C77.9396,69.49445 77.47006,69.49445 77.28396,69.62613" stroke="#000000" stroke-width="0.24" fill="none" />
  <path d="M86.41684,65.90843 L78.30009,70.59462" stroke="#000000" stroke-width="0.24" fill="none" />
  <path d="M77.28396,69.62613 L77.10963,69.86913 L77.10966,84.5457" stroke="#000000" stroke-width="0.24" fill="none" />
  <path d="M78.30006,84.5457 L78.30006,72.53857 L87.92599,66.98104" stroke="#000000" stroke-width="0.24" fill="none" />
  <path d="M30.19462,56.77202 L30.19462,44.76489" stroke="#000000" stroke-width="0.24" fill="none" />
  <path d="M87.92599,66.98104 L87.92599,78.3009" stroke="#000000" stroke-width="0.24" fill="none" />
  <path d="M30.19462,44.76489 L39.82055,39.20736 L39.82055,50.52721" stroke="#000000" stroke-width="0.24" fill="none" />
  <path d="M41.01095,50.52721 L41.01095,39.69333 L86.41684,65.90843" stroke="#000000" stroke-width="0.24" fill="none" />
  <path d="M78.30003,69.86913 L78.30003,71.5666" stroke="#000000" stroke-width="0.24" fill="none" />
  <path d="M39.99488,39.1067 L86.41689,65.90846" stroke="#000000" stroke-width="0.24" fill="none" />
  <path d="M87.92596,78.30087 L88.10029,78.54386" stroke="#111111" stroke-width="0.24" fill="none" />
  <path d="M30.02026,57.01498 L30.19459,56.772" stroke="#111111" stroke-width="0.24" fill="none" />
  <path d="M88.94203,78.54386 L89.11636,78.30087" stroke="#111111" stroke-width="0.24" fill="none" />
  <path d="M40.83659,36.09361 L41.01093,35.85062" stroke="#111111" stroke-width="0.24" fill="none" />
  <path d="M30.02026,42.33842 L30.19459,42.09544" stroke="#111111" stroke-width="0.24" fill="none" />
  <path d="M39.82053,35.85062 L39.99485,36.09361 C40.18096,36.2253 40.65049,36.2253 40.83659,36.09361" stroke="#111111" stroke-width="0.24" fill="none" />
  <path d="M29.00419,56.772 L29.17852,57.01498 C29.36463,57.14667 29.83416,57.14667 30.02026,57.01498" stroke="#111111" stroke-width="0.24" fill="none" />
  <path d="M40.83659,50.77017 L41.01093,50.52718" stroke="#111111" stroke-width="0.24" fill="none" />
  <path d="M29.00419,56.772 L29.17852,57.01498" stroke="#111111" stroke-width="0.24" fill="none" />
  <path d="M77.10963,84.54568 L77.28396,84.78867" stroke="#111111" stroke-width="0.24" fill="none" />
  <path d="M29.00419,42.09544 L29.17852,42.33842 C29.36463,42.47011 29.83416,42.47011 30.02026,42.33842" stroke="#111111" stroke-width="0.24" fill="none" />
  <path d="M77.28396,84.78867 C77.47006,84.92036 77.9396,84.92036 78.1257,84.78867 L78.30003,84.54568" stroke="#111111" stroke-width="0.24" fill="none" />
  <path d="M39.82053,50.52718 L39.99485,50.77017 C40.18096,50.90186 40.65049,50.90186 40.83659,50.77017" stroke="#111111" stroke-width="0.24" fill="none" />
  <path d="M30.02026,57.01498 L30.19459,56.772" stroke="#111111" stroke-width="0.24" fill="none" />
  <path d="M39.82071,37.26335 L30.19476,42.82089" stroke="#111111" stroke-width="0.24" fill="none" />
  <path d="M88.94205,66.39441 L78.12572,72.63922" stroke="#111111" stroke-width="0.24" fill="none" />
  <path d="M39.82053,37.40575 L39.99485,37.64875 C40.18096,37.78043 40.65049,37.78043 40.83659,37.64875" stroke="#111111" stroke-width="0.24" fill="none" />
  <path d="M39.82053,50.52718 L39.99485,50.77017 C40.18096,50.90186 40.65049,50.90186 40.83659,50.77017" stroke="#111111" stroke-width="0.24" fill="none" />
  <path d="M39.82053,37.26342 L39.82053,35.85062" stroke="#111111" stroke-width="0.24" fill="none" />
  <path d="M29.00422,56.77202 L29.00422,42.09546" stroke="#111111" stroke-width="0.24" fill="none" />
  <path d="M30.19462,44.76489 L30.19462,56.77202" stroke="#111111" stroke-width="0.24" fill="none" />
  <path d="M40.83659,50.77017 L41.01093,50.52718" stroke="#111111" stroke-width="0.24" fill="none" />
  <path d="M39.82055,50.52721 L39.82055,39.20712" stroke="#111111" stroke-width="0.24" fill="none" />
  <path d="M29.17852,57.01498 C29.36463,57.14667 29.83416,57.14667 30.02026,57.01498" stroke="#111111" stroke-width="0.24" fill="none" />
  <path d="M41.01095,39.69333 L41.01095,50.52721" stroke="#111111" stroke-width="0.24" fill="none" />
  <path d="M88.10029,63.38132 L87.92596,63.62431" stroke="#111111" stroke-width="0.24" fill="none" />
  <path d="M89.11636,63.62431 L89.11636,78.30087" stroke="#111111" stroke-width="0.24" fill="none" />
  <path d="M39.99488,38.13475 L87.25858,65.42245" stroke="#111111" stroke-width="0.24" fill="none" />
  <path d="M89.11636,63.62431 L88.94203,63.38132 C88.75593,63.24963 88.28639,63.24963 88.10029,63.38132 L88.10029,63.8673 C88.28639,63.99899 88.75593,63.99899 88.94203,63.8673 z" stroke="#111111" stroke-width="0.24" fill="none" />
  <path d="M77.28396,69.62613 L77.10963,69.86913" stroke="#111111" stroke-width="0.24" fill="none" />
  <path d="M77.10963,84.54568 L77.10963,69.86913" stroke="#111111" stroke-width="0.24" fill="none" />
  <path d="M88.10029,78.54386 C88.28639,78.67554 88.75593,78.67554 88.94203,78.54386" stroke="#111111" stroke-width="0.24" fill="none" />
  <path d="M41.01093,35.85062 L41.01093,37.74931" stroke="#111111" stroke-width="0.24" fill="none" />
  <path d="M78.30003,69.86913 L78.1257,69.62613 C77.9396,69.49445 77.47006,69.49445 77.28396,69.62613 L77.28396,70.11211 C77.47006,70.2438 77.9396,70.2438 78.1257,70.11211 z" stroke="#111111" stroke-width="0.24" fill="none" />
  <path d="M87.92596,78.30087 L88.10029,78.54386 C88.28639,78.67554 88.75593,78.67554 88.94203,78.54386 L89.11636,78.30087" stroke="#111111" stroke-width="0.24" fill="none" />
  <path d="M87.92599,64.83583 L40.83662,37.64877" stroke="#111111" stroke-width="0.24" fill="none" />
  <path d="M30.19459,42.09544 L30.02026,41.85245 C29.83416,41.72076 29.36463,41.72076 29.17852,41.85245 L29.00419,42.09544" stroke="#111111" stroke-width="0.24" fill="none" />
  <path d="M77.10963,84.54568 L77.28396,84.78867 C77.47006,84.92036 77.9396,84.92036 78.1257,84.78867 L78.30003,84.54568" stroke="#111111" stroke-width="0.24" fill="none" />
  <path d="M88.94205,65.42245 L78.12572,71.66727" stroke="#111111" stroke-width="0.24" fill="none" />
  <path d="M30.02029,43.89358 L39.99466,38.13487 L39.99488,39.1067" stroke="#111111" stroke-width="0.24" fill="none" />
  <path d="M87.92596,65.0371 L87.92596,63.62431" stroke="#111111" stroke-width="0.24" fill="none" />
  <path d="M87.92596,65.17944 L88.10029,65.42243 C88.28639,65.55412 88.75593,65.55412 88.94203,65.42243" stroke="#111111" stroke-width="0.24" fill="none" />
  <path d="M78.30003,72.53855 L78.30003,84.54568" stroke="#111111" stroke-width="0.24" fill="none" />
  <path d="M78.30012,70.59462 L87.25858,65.42245" stroke="#111111" stroke-width="0.24" fill="none" />
  <path d="M41.01093,35.85062 L40.83659,35.60764 C40.65049,35.47594 40.18096,35.47594 39.99485,35.60764 L39.82053,35.85062" stroke="#111111" stroke-width="0.24" fill="none" />
  <path d="M87.92596,78.30087 L87.92596,66.98098" stroke="#111111" stroke-width="0.24" fill="none" />
</svg>