<?xml version="1.0" encoding="utf-8" standalone="no"?>
<!DOCTYPE svg PUBLIC "-//W3C//DTD SVG 1.1//EN" "http://www.w3.org/Graphics/SVG/1.1/DTD/svg11.dtd">
<svg version="1.1" width="120pt" height="120pt" viewBox="0 0 120 120" overflow="visible" xmlns="http://www.w3.org/2000/svg">
  <path d="M88.34512,42.09544 L88.51945,41.85245 C88.70556,41.72076 89.17509,41.72076 89.36119,41.85245 L89.53552,42.09544 L89.36119,42.33842 C89.17509,42.47011 88.70556,42.47011 88.51945,42.33842 z" stroke="Black" stroke-width="0" fill="#555555" fill-opacity="1" />
  <path d="M78.71919,35.85062 L78.54486,36.09361 C78.35876,36.2253 77.88922,36.2253 77.70313,36.09361 L77.52889,35.85952 L77.70313,35.60764 C77.88922,35.47594 78.35876,35.47594 78.54486,35.60764 z" stroke="Black" stroke-width="0" fill="#555555" fill-opacity="1" />
  <path d="M31.28117,65.42243 L40.23965,70.5946 L40.23969,71.5666 L29.61676,65.4332 C29.81186,65.55672 30.25942,65.54832 30.43943,65.42243 L30.61376,65.17944 L30.61376,64.8358 L77.70313,37.64875 C77.88923,37.78043 78.35876,37.78043 78.54486,37.64875 L78.71919,37.40575 L88.34505,42.82087 L88.34512,43.79291 L78.54497,38.13478 z" stroke="Black" stroke-width="0" fill="#555555" fill-opacity="1" />
  <path d="M41.42999,69.87801 L41.25576,70.11211 C41.06966,70.2438 40.60012,70.2438 40.41402,70.11211 L40.23969,69.86913 L40.41402,69.62613 C40.60012,69.49445 41.06966,69.49445 41.25576,69.62613 z" stroke="Black" stroke-width="0" fill="#555555" fill-opacity="1" />
  <path d="M30.61376,63.62431 L30.43943,63.8673 C30.25333,63.99899 29.78379,63.99899 29.59769,63.8673 L29.42346,63.6332 L29.59769,63.38132 C29.78379,63.24963 30.25333,63.24963 30.43943,63.38132 z" stroke="Black" stroke-width="0" fill="#555555" fill-opacity="1" />
  <path d="M77.70313,36.09361 C77.88922,36.2253 78.35876,36.2253 78.54486,36.09361 L78.71909,35.85952 L78.71919,37.26342 L78.54486,37.64875 C78.35876,37.78043 77.88923,37.78043 77.70313,37.64875 L77.52881,37.74934 L77.52889,35.85952 z" stroke="Black" stroke-width="0" fill="#777777" fill-opacity="1" />
  <path d="M78.54497,38.13478 L88.34512,43.79291 L88.34522,42.10433 L88.51945,42.33842 C88.70556,42.47011 89.17509,42.47011 89.36119,42.33842 L89.53542,42.10433 L89.53552,56.772 L89.36119,57.01498 C89.17509,57.14667 88.70556,57.14667 88.51945,57.01498 L88.34512,56.772 L88.34512,44.76487 L78.71919,39.20733 L78.71919,50.52718 L78.54486,50.77017 C78.35876,50.90186 77.88922,50.90186 77.70313,50.77017 L77.52879,50.52718 L77.52879,39.69331 L32.12291,65.90841 L31.28117,65.42243 z" stroke="Black" stroke-width="0" fill="#777777" fill-opacity="1" />
  <path d="M40.23969,72.53855 L30.61376,66.98102 L30.61376,78.30087 L30.43943,78.54386 C30.25333,78.67554 29.78379,78.67554 29.59769,78.54386 L29.42336,78.30087 L29.42346,63.6332 L29.59769,63.8673 C29.78379,63.99899 30.25333,63.99899 30.43943,63.8673 L30.61366,63.63321 L30.61376,65.0371 L30.43943,65.42243 C30.25942,65.54832 29.81186,65.55672 29.61676,65.4332 L40.23969,71.5666 L40.23979,69.87801 L40.41402,70.11211 C40.60012,70.2438 41.06966,70.2438 41.25576,70.11211 L41.42999,69.87801 L41.43009,84.54568 L41.25576,84.78867 C41.06966,84.92036 40.60012,84.92036 40.41402,84.78867 L40.23969,84.54568 z" stroke="Black" stroke-width="0" fill="#777777" fill-opacity="1" />
  <path d="M30.61378,64.83583 L77.52884,37.74937 L77.52882,35.85065 C77.88922,35.47594 78.35876,35.47594 78.54486,35.60764 L78.71919,35.85062 L78.71922,37.26344" stroke="#000000" stroke-width="0.24" fill="none" />
  <path d="M88.34512,42.09544 L88.51945,41.85245 C88.70556,41.72076 89.17509,41.72076 89.36119,41.85245 L89.53552,42.09544 L89.53555,56.77202" stroke="#000000" stroke-width="0.24" fill="none" />
  <path d="M88.34515,56.77202 L88.34515,44.76489 L78.71922,39.20736 L78.71922,50.52721" stroke="#000000" stroke-width="0.24" fill="none" />
  <path d="M77.52882,50.52721 L77.52882,39.69333 L32.12293,65.90843" stroke="#000000" stroke-width="0.24" fill="none" />
  <path d="M29.59771,66.39441 L40.41404,72.63922" stroke="#000000" stroke-width="0.24" fill="none" />
  <path d="M29.42338,78.3009 L29.42338,63.62433 L29.59769,63.38132 C29.78379,63.24963 30.25333,63.24963 30.43943,63.38132 L30.61376,63.62431 L30.61378,64.83583" stroke="#000000" stroke-width="0.24" fill="none" />
  <path d="M32.12293,65.90843 L40.23968,70.59462" stroke="#000000" stroke-width="0.24" fill="none" />
  <path d="M40.23969,69.86913 L40.23969,71.5666" stroke="#000000" stroke-width="0.24" fill="none" />
  <path d="M40.23968,70.59462 L40.23981,69.87804 L40.41402,69.62613 C40.60012,69.49445 41.06966,69.49445 41.25576,69.62613 L41.43009,69.86913 L41.43011,84.5457" stroke="#000000" stroke-width="0.24" fill="none" />
  <path d="M40.23971,84.5457 L40.23971,72.53857 L30.61378,66.98104 L30.61378,78.3009" stroke="#000000" stroke-width="0.24" fill="none" />
  <path d="M78.54488,39.1067 L32.12288,65.90846" stroke="#000000" stroke-width="0.24" fill="none" />
  <path d="M88.51948,44.86554 L78.54491,39.10672" stroke="#000000" stroke-width="0.24" fill="none" />
  <path d="M88.34515,42.09546 L88.34515,43.79293" stroke="#000000" stroke-width="0.24" fill="none" />
  <path d="M88.34508,42.82089 L88.34525,42.10435" stroke="#000000" stroke-width="0.24" fill="none" />
  <path d="M78.71922,37.26344 L88.34508,42.82089" stroke="#000000" stroke-width="0.24" fill="none" />
  <path d="M77.52879,35.85062 L77.70313,35.60764" stroke="#000000" stroke-width="0.24" fill="none" />
  <path d="M30.43943,63.38132 L30.61376,63.62431" stroke="#111111" stroke-width="0.24" fill="none" />
  <path d="M29.42336,63.62431 L29.42336,78.30087" stroke="#111111" stroke-width="0.24" fill="none" />
  <path d="M29.42336,63.62431 L29.59769,63.38132 C29.78379,63.24963 30.25333,63.24963 30.43943,63.38132 L30.43943,63.8673 C30.25333,63.99899 29.78379,63.99899 29.59769,63.8673 z" stroke="#111111" stroke-width="0.24" fill="none" />
  <path d="M41.25576,69.62613 L41.43009,69.86913" stroke="#111111" stroke-width="0.24" fill="none" />
  <path d="M41.43009,84.54568 L41.43009,69.86913" stroke="#111111" stroke-width="0.24" fill="none" />
  <path d="M40.23969,69.86913 L40.41402,69.62613 C40.60012,69.49445 41.06966,69.49445 41.25576,69.62613 L41.25576,70.11211 C41.06966,70.2438 40.60012,70.2438 40.41402,70.11211 z" stroke="#111111" stroke-width="0.24" fill="none" />
  <path d="M30.61376,78.30087 L30.61376,66.98098" stroke="#111111" stroke-width="0.24" fill="none" />
  <path d="M40.23969,72.53855 L40.23969,84.54568" stroke="#111111" stroke-width="0.24" fill="none" />
  <path d="M30.61376,78.30087 L30.43943,78.54386 C30.25333,78.67554 29.78379,78.67554 29.59769,78.54386 L29.42336,78.30087" stroke="#111111" stroke-width="0.24" fill="none" />
  <path d="M41.43009,84.54568 L41.25576,84.78867 C41.06966,84.92036 40.60012,84.92036 40.41402,84.78867 L40.23969,84.54568" stroke="#111111" stroke-width="0.24" fill="none" />
  <path d="M29.59771,65.42245 L40.41404,71.66727" stroke="#111111" stroke-width="0.24" fill="none" />
  <path d="M30.61376,65.0371 L30.61376,63.62431" stroke="#111111" stroke-width="0.24" fill="none" />
  <path d="M40.23965,70.59462 L31.28119,65.42245" stroke="#111111" stroke-width="0.24" fill="none" />
  <path d="M30.61376,78.30087 L30.43943,78.54386 C30.25333,78.67554 29.78379,78.67554 29.59769,78.54386 L29.42336,78.30087" stroke="#111111" stroke-width="0.24" fill="none" />
  <path d="M41.43009,84.54568 L41.25576,84.78867 C41.06966,84.92036 40.60012,84.92036 40.41402,84.78867" stroke="#111111" stroke-width="0.24" fill="none" />
  <path d="M78.54488,38.13475 L78.54488,39.1067" stroke="#111111" stroke-width="0.24" fill="none" />
  <path d="M89.53555,56.77202 L89.53555,42.09546" stroke="#111111" stroke-width="0.24" fill="none" />
  <path d="M88.51945,42.33842 L88.34512,42.09544" stroke="#111111" stroke-width="0.24" fill="none" />
  <path d="M89.53552,42.09544 L89.36119,42.33842 C89.17509,42.47011 88.70556,42.47011 88.51945,42.33842 L88.51945,41.85245 C88.70556,41.72076 89.17509,41.72076 89.36119,41.85245 z" stroke="#111111" stroke-width="0.24" fill="none" />
  <path d="M78.71922,50.52721 L78.71922,39.20712" stroke="#111111" stroke-width="0.24" fill="none" />
  <path d="M77.52879,35.85062 L77.52879,37.74931" stroke="#111111" stroke-width="0.24" fill="none" />
  <path d="M77.52879,35.85062 L77.70313,35.60764 C77.88922,35.47594 78.35876,35.47594 78.54486,35.60764 L78.71919,35.85062" stroke="#111111" stroke-width="0.24" fill="none" />
  <path d="M77.70313,36.09361 L77.52879,35.85062" stroke="#111111" stroke-width="0.24" fill="none" />
  <path d="M78.71919,35.85062 L78.54486,36.09361 C78.35876,36.2253 77.88922,36.2253 77.70313,36.09361" stroke="#111111" stroke-width="0.24" fill="none" />
  <path d="M40.41402,84.78867 L40.23969,84.54568" stroke="#111111" stroke-width="0.24" fill="none" />
  <path d="M78.71906,37.26335 L88.34501,42.82089" stroke="#111111" stroke-width="0.24" fill="none" />
  <path d="M88.34515,44.76489 L88.34515,56.77202" stroke="#111111" stroke-width="0.24" fill="none" />
  <path d="M77.52882,39.69333 L77.52882,50.52721" stroke="#111111" stroke-width="0.24" fill="none" />
  <path d="M78.54488,38.13475 L31.28119,65.42245" stroke="#111111" stroke-width="0.24" fill="none" />
  <path d="M30.61378,64.83583 L77.70315,37.64877" stroke="#111111" stroke-width="0.24" fill="none" />
  <path d="M30.61376,65.17944 L30.43943,65.42243 C30.25333,65.55412 29.78379,65.55412 29.59769,65.42243" stroke="#111111" stroke-width="0.24" fill="none" />
  <path d="M88.51948,43.89358 L78.5451,38.13487" stroke="#111111" stroke-width="0.24" fill="none" />
  <path d="M88.51945,57.01498 L88.34512,56.772" stroke="#111111" stroke-width="0.24" fill="none" />
  <path d="M89.53552,56.772 L89.36119,57.01498 C89.17509,57.14667 88.70556,57.14667 88.51945,57.01498" stroke="#111111" stroke-width="0.24" fill="none" />
  <path d="M77.70313,50.77017 L77.52879,50.52718" stroke="#111111" stroke-width="0.24" fill="none" />
  <path d="M78.71919,50.52718 L78.54486,50.77017 C78.35876,50.90186 77.88922,50.90186 77.70313,50.77017" stroke="#111111" stroke-width="0.24" fill="none" />
  <path d="M78.71919,37.40575 L78.54486,37.64875 C78.35876,37.78043 77.88922,37.78043 77.70313,37.64875" stroke="#111111" stroke-width="0.24" fill="none" />
  <path d="M78.71919,37.26342 L78.71919,35.85062" stroke="#111111" stroke-width="0.24" fill="none" />
  <path d="M89.53552,56.772 L89.36119,57.01498 C89.17509,57.14667 88.70556,57.14667 88.51945,57.01498 L88.34512,56.772" stroke="#111111" stroke-width="0.24" fill="none" />
  <path d="M78.71919,50.52718 L78.54486,50.77017 C78.35876,50.90186 77.88922,50.90186 77.70313,50.77017 L77.52879,50.52718" stroke="#111111" stroke-width="0.24" fill="none" />
</svg>