<?xml version="1.0" encoding="utf-8" standalone="no"?>
<!DOCTYPE svg PUBLIC "-//W3C//DTD SVG 1.1//EN" "http://www.w3.org/Graphics/SVG/1.1/DTD/svg11.dtd">
<svg version="1.1" width="120pt" height="120pt" viewBox="0 0 120 120" overflow="visible" xmlns="http://www.w3.org/2000/svg">
  <path d="M24.75767,68.87287 L24.75767,68.2897 L34.43768,73.87846 L34.43768,74.46163 z" stroke="Black" stroke-width="0" fill="#BBBBBB" fill-opacity="1" />
  <path d="M94.20121,39.95714 L89.53552,42.65087 L89.53552,42.09544 L94.20121,39.37396 z" stroke="Black" stroke-width="0" fill="#CCCCCC" fill-opacity="1" />
  <path d="M34.43768,73.87846 L40.23969,70.52866 L40.23969,71.11184 L34.43768,74.46163 z" stroke="Black" stroke-width="0" fill="#CCCCCC" fill-opacity="1" />
  <path d="M88.34505,42.75505 L88.3451,43.33818 L41.43009,70.42456 L41.43009,69.86913 z" stroke="Black" stroke-width="0" fill="#CCCCCC" fill-opacity="1" />
  <path d="M41.42829,69.84242 L41.25576,69.62613 C41.06966,69.49445 40.60012,69.49445 40.41402,69.62613 L40.23969,69.86913 L40.23969,70.52866 L34.43768,73.87846 L24.75767,68.2897 L84.5212,33.78521 L94.20121,39.37396 L89.53372,42.06874 L89.36119,41.85245 C89.17509,41.72076 88.70556,41.72076 88.51945,41.85245 L88.34512,42.09544 L88.34505,42.75505 z" stroke="Black" stroke-width="0" fill="#EEEEEE" fill-opacity="1" />
  <path d="M88.3451,43.33818 L88.34512,43.79291 L87.95129,43.56553 z" stroke="Black" stroke-width="0" fill="#555555" fill-opacity="1" />
  <path d="M78.71909,35.85952 L78.54486,36.09361 C78.35876,36.2253 77.88922,36.2253 77.70313,36.09361 L77.52899,35.85951 L77.70313,35.60764 C77.88922,35.47594 78.35876,35.47594 78.54486,35.60764 z" stroke="Black" stroke-width="0" fill="#555555" fill-opacity="1" />
  <path d="M30.61366,63.6332 L30.43943,63.8673 C30.25333,63.99899 29.78379,63.99899 29.59769,63.8673 L29.42356,63.6332 L29.59769,63.38132 C29.78379,63.24963 30.25333,63.24963 30.43943,63.38132 z" stroke="Black" stroke-width="0" fill="#555555" fill-opacity="1" />
  <path d="M40.23969,71.11184 L40.23969,71.5666 L39.84586,71.33922 z" stroke="Black" stroke-width="0" fill="#555555" fill-opacity="1" />
  <path d="M40.23969,69.86913 L40.41402,69.62613 C40.60012,69.49445 41.06966,69.49445 41.25576,69.62613 L41.42829,69.84242 L41.25576,70.11211 C41.06966,70.2438 40.60012,70.2438 40.41402,70.11211 z" stroke="Black" stroke-width="0" fill="#555555" fill-opacity="1" />
  <path d="M88.34512,42.09544 L88.51945,41.85245 C88.70556,41.72076 89.17509,41.72076 89.36119,41.85245 L89.53373,42.06878 L89.36119,42.33842 C89.17509,42.47011 88.70556,42.47011 88.51945,42.33842 z" stroke="Black" stroke-width="0" fill="#555555" fill-opacity="1" />
  <path d="M40.23969,72.53855 L39.00412,71.8252 L39.84586,71.33922 L40.23969,71.5666 L40.23979,69.87801 L40.41402,70.11211 C40.60012,70.2438 41.06966,70.2438 41.25576,70.11211 L41.42999,69.87801 L41.43009,84.54568 L41.25576,84.78867 C41.06966,84.92036 40.60012,84.92036 40.41402,84.78867 L40.23969,84.54568 z" stroke="Black" stroke-width="0" fill="#777777" fill-opacity="1" />
  <path d="M30.61376,72.25388 L30.61376,78.30087 L30.43943,78.54386 C30.25333,78.67554 29.78379,78.67554 29.59769,78.54386 L29.42336,78.30087 L29.42336,71.56661 z" stroke="Black" stroke-width="0" fill="#777777" fill-opacity="1" />
  <path d="M88.34512,44.76487 L87.10955,44.05151 L87.95129,43.56553 L88.34512,43.79291 L88.34522,42.10433 L88.51945,42.33842 C88.70556,42.47011 89.17509,42.47011 89.36119,42.33842 L89.53542,42.10433 L89.53552,56.772 L89.36119,57.01498 C89.17509,57.14667 88.70556,57.14667 88.51945,57.01498 L88.34512,56.772 z" stroke="Black" stroke-width="0" fill="#777777" fill-opacity="1" />
  <path d="M77.52879,49.58296 L78.71919,48.89568 L78.71919,50.52718 L78.54486,50.77017 C78.35876,50.90186 77.88922,50.90186 77.70313,50.77017 L77.52879,50.52718 z" stroke="Black" stroke-width="0" fill="#777777" fill-opacity="1" />
  <path d="M77.52879,37.82228 L77.52895,35.85952 L77.70313,36.09361 C77.88922,36.2253 78.35876,36.2253 78.54486,36.09361 L78.71909,35.85952 L78.71922,37.13492 z" stroke="Black" stroke-width="0" fill="#777777" fill-opacity="1" />
  <path d="M30.61376,64.90868 L29.4234,65.5959 L29.42351,63.6332 L29.59769,63.8673 C29.78379,63.99899 30.25333,63.99899 30.43943,63.8673 L30.61366,63.6332 z" stroke="Black" stroke-width="0" fill="#777777" fill-opacity="1" />
  <path d="M41.43003,70.42463 L88.34509,43.33821" stroke="#000000" stroke-width="0.24" fill="none" />
  <path d="M24.75769,68.87289 L34.4377,74.46165" stroke="#000000" stroke-width="0.24" fill="none" />
  <path d="M88.51951,44.86555 L87.10942,44.05144" stroke="#000000" stroke-width="0.24" fill="none" />
  <path d="M88.34512,42.09544 L88.34512,43.79291" stroke="#000000" stroke-width="0.24" fill="none" />
  <path d="M89.53552,56.772 L89.53552,42.09544" stroke="#000000" stroke-width="0.24" fill="none" />
  <path d="M40.23969,69.86913 L40.23969,71.5666" stroke="#000000" stroke-width="0.24" fill="none" />
  <path d="M41.43009,84.54568 L41.43009,69.86913 L41.43009,69.86913" stroke="#000000" stroke-width="0.24" fill="none" />
  <path d="M24.75769,68.87289 L24.75769,68.28973 L29.42341,65.59589 L29.42348,63.63323" stroke="#000000" stroke-width="0.24" fill="none" />
  <path d="M30.43943,63.38132 L30.61376,63.62431" stroke="#000000" stroke-width="0.24" fill="none" />
  <path d="M30.61378,64.90871 L77.52882,37.8223 L77.52892,35.85954 C77.88922,35.47594 78.35876,35.47594 78.54486,35.60764 L78.71919,35.85062 L78.71925,37.13494" stroke="#000000" stroke-width="0.24" fill="none" />
  <path d="M94.20123,39.37399 L94.20123,39.95716 L89.53555,42.6509 L89.53555,56.77202" stroke="#000000" stroke-width="0.24" fill="none" />
  <path d="M88.34515,56.77202 L88.34515,44.76489 L87.10958,44.05153 L78.71922,48.89571" stroke="#000000" stroke-width="0.24" fill="none" />
  <path d="M77.52882,50.52721 L77.52882,49.58298" stroke="#000000" stroke-width="0.24" fill="none" />
  <path d="M41.43011,70.42458 L41.43011,84.5457" stroke="#000000" stroke-width="0.24" fill="none" />
  <path d="M40.23971,72.53857 L39.00414,71.82522 L34.4377,74.46165" stroke="#000000" stroke-width="0.24" fill="none" />
  <path d="M29.42338,78.3009 L29.42338,71.56664 L24.75769,68.87289" stroke="#000000" stroke-width="0.24" fill="none" />
  <path d="M78.71922,48.89571 L78.71922,50.52721" stroke="#000000" stroke-width="0.24" fill="none" />
  <path d="M30.61378,72.25391 L30.61378,78.3009" stroke="#000000" stroke-width="0.24" fill="none" />
  <path d="M40.23971,84.5457 L40.23971,72.53857" stroke="#000000" stroke-width="0.24" fill="none" />
  <path d="M78.71925,37.13494 L84.52122,33.78523" stroke="#000000" stroke-width="0.24" fill="none" />
  <path d="M77.52879,35.85062 L77.70313,35.60764" stroke="#000000" stroke-width="0.24" fill="none" />
  <path d="M40.23969,69.86913 L40.41402,69.62613 C40.60012,69.49445 41.06966,69.49445 41.25576,69.62613" stroke="#000000" stroke-width="0.24" fill="none" />
  <path d="M84.52122,33.78523 L24.75769,68.28972" stroke="#000000" stroke-width="0.24" fill="none" />
  <path d="M29.59769,63.38132 C29.78379,63.24963 30.25333,63.24963 30.43943,63.38132 L30.61378,64.90871" stroke="#000000" stroke-width="0.24" fill="none" />
  <path d="M34.4377,74.46165 L30.61378,72.25391" stroke="#000000" stroke-width="0.24" fill="none" />
  <path d="M77.52882,49.58298 L41.43011,70.42458" stroke="#000000" stroke-width="0.24" fill="none" />
  <path d="M84.52122,33.78523 L94.20123,39.37399" stroke="#000000" stroke-width="0.24" fill="none" />
  <path d="M29.42336,63.62431 L29.59769,63.38132" stroke="#000000" stroke-width="0.24" fill="none" />
  <path d="M88.34512,42.09544 L88.51945,41.85245 C88.70556,41.72076 89.17509,41.72076 89.36119,41.85245 L89.53552,42.09544" stroke="#000000" stroke-width="0.24" fill="none" />
  <path d="M34.4377,74.46165 L40.23971,71.11186" stroke="#000000" stroke-width="0.24" fill="none" />
  <path d="M39.00414,71.82522 L40.41407,72.63924" stroke="#000000" stroke-width="0.24" fill="none" />
  <path d="M39.84565,71.3391 L40.41407,71.66728" stroke="#111111" stroke-width="0.24" fill="none" />
  <path d="M34.4377,73.87848 L40.23971,70.52869" stroke="#111111" stroke-width="0.24" fill="none" />
  <path d="M78.71919,50.52718 L78.54486,50.77017 C78.35876,50.90186 77.88922,50.90186 77.70313,50.77017 L77.52879,50.52718" stroke="#111111" stroke-width="0.24" fill="none" />
  <path d="M88.51951,43.8936 L87.95107,43.56541" stroke="#111111" stroke-width="0.24" fill="none" />
  <path d="M89.53552,56.772 L89.36119,57.01498 C89.17509,57.14667 88.70556,57.14667 88.51945,57.01498" stroke="#111111" stroke-width="0.24" fill="none" />
  <path d="M88.34512,44.76469 L88.34512,56.772 L88.34512,56.772" stroke="#111111" stroke-width="0.24" fill="none" />
  <path d="M41.43009,84.54568 L41.25576,84.78867 C41.06966,84.92036 40.60012,84.92036 40.41402,84.78867 L40.23969,84.54568" stroke="#111111" stroke-width="0.24" fill="none" />
  <path d="M41.42831,69.84245 L88.34501,42.75508" stroke="#111111" stroke-width="0.24" fill="none" />
  <path d="M24.75769,68.28973 L34.4377,73.87848" stroke="#111111" stroke-width="0.24" fill="none" />
  <path d="M89.53552,42.09544 L89.36119,42.33842 C89.17509,42.47011 88.70556,42.47011 88.51945,42.33842" stroke="#111111" stroke-width="0.24" fill="none" />
  <path d="M41.43009,69.86913 L41.25576,70.11211 C41.06966,70.2438 40.60012,70.2438 40.41402,70.11211 L40.23969,69.86913" stroke="#111111" stroke-width="0.24" fill="none" />
  <path d="M89.53366,42.06881 L94.20123,39.37399" stroke="#111111" stroke-width="0.24" fill="none" />
  <path d="M29.42336,71.56661 L29.42336,78.30087" stroke="#111111" stroke-width="0.24" fill="none" />
  <path d="M30.61376,64.90868 L30.61376,63.62431" stroke="#111111" stroke-width="0.24" fill="none" />
  <path d="M77.52879,49.58296 L77.52879,50.52718" stroke="#111111" stroke-width="0.24" fill="none" />
  <path d="M34.4377,74.46165 L34.4377,73.87848" stroke="#111111" stroke-width="0.24" fill="none" />
  <path d="M24.75769,68.87289 L24.75769,68.28973" stroke="#111111" stroke-width="0.24" fill="none" />
  <path d="M94.20123,39.95716 L94.20123,39.37399 L84.52122,33.78523" stroke="#111111" stroke-width="0.24" fill="none" />
  <path d="M78.71919,35.85062 L78.54486,36.09361 C78.35876,36.2253 77.88922,36.2253 77.70313,36.09361 L77.52879,35.85062 L77.52879,37.82228" stroke="#111111" stroke-width="0.24" fill="none" />
  <path d="M30.61376,63.62431 L30.43943,63.8673 C30.25333,63.99899 29.78379,63.99899 29.59769,63.8673 L29.42336,63.62431 L29.42336,65.59582" stroke="#111111" stroke-width="0.24" fill="none" />
  <path d="M30.61376,78.30087 L30.61376,72.25388" stroke="#111111" stroke-width="0.24" fill="none" />
  <path d="M30.43943,63.38132 L30.61376,63.62431" stroke="#111111" stroke-width="0.24" fill="none" />
  <path d="M88.51945,42.33842 L88.34512,42.09544" stroke="#111111" stroke-width="0.24" fill="none" />
  <path d="M29.42336,63.62431 L29.59769,63.38132 C29.78379,63.24963 30.25333,63.24963 30.43943,63.38132" stroke="#111111" stroke-width="0.24" fill="none" />
  <path d="M78.71919,50.52718 L78.71919,48.89568" stroke="#111111" stroke-width="0.24" fill="none" />
  <path d="M77.52879,35.85062 L77.70313,35.60764 C77.88922,35.47594 78.35876,35.47594 78.54486,35.60764 L78.71919,35.85062" stroke="#111111" stroke-width="0.24" fill="none" />
  <path d="M78.71919,37.13487 L78.71919,35.85062" stroke="#111111" stroke-width="0.24" fill="none" />
  <path d="M89.53555,42.6509 L94.20123,39.95716" stroke="#111111" stroke-width="0.24" fill="none" />
  <path d="M40.23969,72.53855 L40.23969,84.54568" stroke="#111111" stroke-width="0.24" fill="none" />
  <path d="M30.61376,78.30087 L30.43943,78.54386 C30.25333,78.67554 29.78379,78.67554 29.59769,78.54386 L29.42336,78.30087" stroke="#111111" stroke-width="0.24" fill="none" />
</svg>