<?xml version="1.0" encoding="utf-8" standalone="no"?>
<!DOCTYPE svg PUBLIC "-//W3C//DTD SVG 1.1//EN" "http://www.w3.org/Graphics/SVG/1.1/DTD/svg11.dtd">
<svg version="1.1" width="120pt" height="120pt" viewBox="0 0 120 120" overflow="visible" xmlns="http://www.w3.org/2000/svg">
  <path d="M33.57525,43.9715 L33.57513,43.38818 L61.97368,59.7841 L61.97189,60.36623 z" stroke="Black" stroke-width="0" fill="#BBBBBB" fill-opacity="1" />
  <path d="M80.49026,70.51122 L80.49017,71.05776 L63.1623,61.05352 L63.16234,60.4704 z" stroke="Black" stroke-width="0" fill="#BBBBBB" fill-opacity="1" />
  <path d="M81.68058,71.74506 L81.68063,71.16194 L87.48257,74.51166 L87.48257,75.09483 z" stroke="Black" stroke-width="0" fill="#BBBBBB" fill-opacity="1" />
  <path d="M32.38483,42.73754 L32.38473,43.28408 L27.71904,40.59034 L27.71904,40.00717 z" stroke="Black" stroke-width="0" fill="#BBBBBB" fill-opacity="1" />
  <path d="M87.48257,75.09483 L87.48257,74.51166 L97.16258,68.9229 L97.16258,69.50608 z" stroke="Black" stroke-width="0" fill="#CCCCCC" fill-opacity="1" />
  <path d="M80.66449,70.25934 L80.49196,70.47563 L63.16234,60.4704 L63.16219,59.81969 L62.98795,59.56781 C62.80185,59.43612 62.33232,59.43612 62.14621,59.56781 L61.97368,59.7841 L33.57513,43.38818 L33.57503,42.73754 L33.4008,42.48565 C33.21469,42.35396 32.74516,42.35396 32.55906,42.48565 L32.38652,42.70194 L27.71904,40.00717 L37.39905,34.41841 L97.16258,68.9229 L87.48257,74.51166 L81.68063,71.16194 L81.68047,70.51122 L81.50623,70.25934 C81.32013,70.12765 80.85059,70.12765 80.66449,70.25934 z" stroke="Black" stroke-width="0" fill="#EEEEEE" fill-opacity="1" />
  <path d="M44.39126,36.49272 L44.21713,36.72682 C44.03102,36.85851 43.56149,36.85851 43.37539,36.72682 L43.20106,36.48383 L43.37539,36.24084 C43.56149,36.10915 44.03102,36.10915 44.21713,36.24084 z" stroke="Black" stroke-width="0" fill="#555555" fill-opacity="1" />
  <path d="M81.68056,70.50233 L81.50623,70.74532 C81.32013,70.87701 80.85059,70.87701 80.66449,70.74532 L80.49017,70.50233 L80.66449,70.25934 C80.85059,70.12765 81.32013,70.12765 81.50623,70.25934 z" stroke="Black" stroke-width="0" fill="#555555" fill-opacity="1" />
  <path d="M81.68058,71.74506 L82.07439,71.97242 L81.68056,72.1998 z" stroke="Black" stroke-width="0" fill="#555555" fill-opacity="1" />
  <path d="M91.3065,64.25751 L91.48083,64.01453 C91.66692,63.88284 92.13646,63.88284 92.32256,64.01453 L92.49689,64.25751 L92.32256,64.5005 C92.13646,64.63219 91.66692,64.63219 91.48083,64.5005 z" stroke="Black" stroke-width="0" fill="#555555" fill-opacity="1" />
  <path d="M63.16228,59.81079 L62.98795,60.05378 C62.80185,60.18547 62.33232,60.18547 62.14621,60.05378 L61.97198,59.81969 L62.14621,59.56781 C62.33232,59.43612 62.80185,59.43612 62.98795,59.56781 z" stroke="Black" stroke-width="0" fill="#555555" fill-opacity="1" />
  <path d="M63.1623,61.05352 L63.55611,61.28089 L63.16228,61.50827 z" stroke="Black" stroke-width="0" fill="#555555" fill-opacity="1" />
  <path d="M72.78822,53.56598 L72.96255,53.32299 C73.14864,53.1913 73.61819,53.1913 73.80428,53.32299 L73.97861,53.56598 L73.80428,53.80897 C73.61819,53.94066 73.14864,53.94066 72.96255,53.80897 z" stroke="Black" stroke-width="0" fill="#555555" fill-opacity="1" />
  <path d="M33.96896,44.19873 L33.57513,44.4261 L33.57525,43.9715 z" stroke="Black" stroke-width="0" fill="#555555" fill-opacity="1" />
  <path d="M33.57513,42.72864 L33.4008,42.97163 C33.21469,43.10332 32.74516,43.10332 32.55906,42.97163 L32.38473,42.72864 L32.55906,42.48565 C32.74516,42.35396 33.21469,42.35396 33.4008,42.48565 z" stroke="Black" stroke-width="0" fill="#555555" fill-opacity="1" />
  <path d="M44.21713,36.72682 L44.39126,36.49272 L44.39146,38.45548 L43.20106,37.7682 L43.20116,36.49273 L43.37539,36.72682 C43.56149,36.85851 44.03102,36.85851 44.21713,36.72682 z" stroke="Black" stroke-width="0" fill="#777777" fill-opacity="1" />
  <path d="M91.3065,72.88709 L92.49689,72.19981 L92.49689,78.93407 L92.32256,79.17706 C92.13646,79.30875 91.66692,79.30875 91.48083,79.17706 L91.3065,78.93407 z" stroke="Black" stroke-width="0" fill="#777777" fill-opacity="1" />
  <path d="M81.68056,73.17176 L81.68056,85.17889 L81.50623,85.42188 C81.32013,85.55357 80.85059,85.55357 80.66449,85.42188 L80.49017,85.17889 L80.49026,70.51122 L80.66449,70.74532 C80.85059,70.87701 81.32013,70.87701 81.50623,70.74532 L81.68047,70.51122 L81.68056,72.1998 L82.07439,71.97242 L82.91613,72.4584 z" stroke="Black" stroke-width="0" fill="#777777" fill-opacity="1" />
  <path d="M91.3065,65.54189 L91.30659,64.26641 L91.48083,64.5005 C91.66692,64.63219 92.13646,64.63219 92.32256,64.5005 L92.4967,64.2664 L92.49689,66.22917 z" stroke="Black" stroke-width="0" fill="#777777" fill-opacity="1" />
  <path d="M61.97189,62.33788 L61.97198,59.81969 L62.14621,60.05378 C62.33232,60.18547 62.80185,60.18547 62.98795,60.05378 L63.16219,59.81969 L63.16228,61.50827 L63.55611,61.28089 L64.39786,61.76687 L62.98794,62.58088 C62.80181,62.71257 62.33231,62.71255 62.14621,62.58088 z" stroke="Black" stroke-width="0" fill="#777777" fill-opacity="1" />
  <path d="M73.80428,53.80897 L73.97842,53.57487 L73.97861,55.53764 L72.78822,54.85036 L72.78831,53.57488 L72.96255,53.80897 C73.14864,53.94066 73.61819,53.94066 73.80428,53.80897 z" stroke="Black" stroke-width="0" fill="#777777" fill-opacity="1" />
  <path d="M44.39146,50.21617 L44.39146,51.16039 L44.21713,51.40338 C44.03102,51.53506 43.56149,51.53506 43.37539,51.40338 L43.20106,51.16039 L43.20106,49.52889 z" stroke="Black" stroke-width="0" fill="#777777" fill-opacity="1" />
  <path d="M33.57513,45.39807 L33.57513,57.4052 L33.4008,57.64819 C33.21469,57.77988 32.74516,57.77988 32.55906,57.64819 L32.38473,57.4052 L32.38483,42.73754 L32.55906,42.97163 C32.74516,43.10332 33.21469,43.10332 33.4008,42.97163 L33.57503,42.73754 L33.57513,44.4261 L33.96896,44.19873 L34.8107,44.68471 z" stroke="Black" stroke-width="0" fill="#777777" fill-opacity="1" />
  <path d="M80.49019,71.05779 L80.49019,85.17891" stroke="#000000" stroke-width="0.24" fill="none" />
  <path d="M64.39788,61.76689 L80.49019,71.05779" stroke="#000000" stroke-width="0.24" fill="none" />
  <path d="M62.14621,62.58088 C62.33231,62.71255 62.80181,62.71257 62.98793,62.58089" stroke="#000000" stroke-width="0.24" fill="none" />
  <path d="M61.97189,62.33788 L62.14621,62.58088" stroke="#000000" stroke-width="0.24" fill="none" />
  <path d="M61.97191,60.36626 L61.97191,62.33791" stroke="#000000" stroke-width="0.24" fill="none" />
  <path d="M44.39148,50.21619 L61.97191,60.36626" stroke="#000000" stroke-width="0.24" fill="none" />
  <path d="M44.39148,51.16041 L44.39148,50.21619" stroke="#000000" stroke-width="0.24" fill="none" />
  <path d="M43.20108,49.52892 L43.20108,51.16041" stroke="#000000" stroke-width="0.24" fill="none" />
  <path d="M34.81072,44.68474 L43.20108,49.52892" stroke="#000000" stroke-width="0.24" fill="none" />
  <path d="M33.57515,45.39809 L34.81072,44.68474" stroke="#000000" stroke-width="0.24" fill="none" />
  <path d="M33.57515,57.40522 L33.57515,45.39809" stroke="#000000" stroke-width="0.24" fill="none" />
  <path d="M32.38473,57.4052 L32.55906,57.64819" stroke="#000000" stroke-width="0.24" fill="none" />
  <path d="M32.38475,43.2841 L32.38475,57.40522" stroke="#000000" stroke-width="0.24" fill="none" />
  <path d="M27.71906,40.59037 L32.38475,43.2841" stroke="#000000" stroke-width="0.24" fill="none" />
  <path d="M27.71906,40.00719 L27.71906,40.59037" stroke="#000000" stroke-width="0.24" fill="none" />
  <path d="M37.39907,34.41843 L27.71906,40.00719" stroke="#000000" stroke-width="0.24" fill="none" />
  <path d="M43.20108,37.76823 L37.39907,34.41843" stroke="#000000" stroke-width="0.24" fill="none" />
  <path d="M43.37539,36.24084 L43.20106,36.48383" stroke="#000000" stroke-width="0.24" fill="none" />
  <path d="M44.21713,36.24084 C44.03102,36.10915 43.56149,36.10915 43.37539,36.24084" stroke="#000000" stroke-width="0.24" fill="none" />
  <path d="M44.39146,36.48383 L44.21713,36.24084" stroke="#000000" stroke-width="0.24" fill="none" />
  <path d="M72.78824,54.85038 L44.39148,38.45551" stroke="#000000" stroke-width="0.24" fill="none" />
  <path d="M72.78824,53.56601 L72.78824,54.85038" stroke="#000000" stroke-width="0.24" fill="none" />
  <path d="M73.97861,53.56598 L73.80428,53.32299" stroke="#000000" stroke-width="0.24" fill="none" />
  <path d="M73.97864,55.53766 L73.97854,53.5749" stroke="#000000" stroke-width="0.24" fill="none" />
  <path d="M91.30652,65.54192 L73.97864,55.53766" stroke="#000000" stroke-width="0.24" fill="none" />
  <path d="M91.30652,64.25754 L91.30652,65.54192" stroke="#000000" stroke-width="0.24" fill="none" />
  <path d="M91.48083,64.01453 L91.3065,64.25751" stroke="#000000" stroke-width="0.24" fill="none" />
  <path d="M92.32256,64.01453 C92.13646,63.88284 91.66692,63.88284 91.48083,64.01453" stroke="#000000" stroke-width="0.24" fill="none" />
  <path d="M92.49689,64.25751 L92.32256,64.01453" stroke="#000000" stroke-width="0.24" fill="none" />
  <path d="M92.49692,66.22919 L92.49682,64.26643" stroke="#000000" stroke-width="0.24" fill="none" />
  <path d="M97.16261,68.92293 L92.49692,66.22919" stroke="#000000" stroke-width="0.24" fill="none" />
  <path d="M97.16261,69.5061 L97.16261,68.92293" stroke="#000000" stroke-width="0.24" fill="none" />
  <path d="M33.40079,45.49876 L34.81089,44.68464" stroke="#000000" stroke-width="0.24" fill="none" />
  <path d="M33.40079,44.5268 L33.96899,44.19875" stroke="#000000" stroke-width="0.24" fill="none" />
  <path d="M63.16228,59.81079 L62.98795,59.56781 C62.80185,59.43612 62.33232,59.43612 62.14621,59.56781 L61.97189,59.81079" stroke="#000000" stroke-width="0.24" fill="none" />
  <path d="M63.16228,59.81079 L63.16228,61.50827" stroke="#000000" stroke-width="0.24" fill="none" />
  <path d="M61.97189,62.33788 L61.97189,59.81079" stroke="#000000" stroke-width="0.24" fill="none" />
  <path d="M61.97191,60.36626 L33.57541,43.97153" stroke="#000000" stroke-width="0.24" fill="none" />
  <path d="M80.49019,71.05779 L63.16233,61.05355" stroke="#000000" stroke-width="0.24" fill="none" />
  <path d="M97.16261,69.5061 L87.4826,75.09486" stroke="#000000" stroke-width="0.24" fill="none" />
  <path d="M37.39907,34.41843 L97.16261,68.92293" stroke="#000000" stroke-width="0.24" fill="none" />
  <path d="M33.57513,42.72864 L33.4008,42.48565 C33.21469,42.35396 32.74516,42.35396 32.55906,42.48565 L32.38473,42.72864" stroke="#000000" stroke-width="0.24" fill="none" />
  <path d="M33.57513,42.72864 L33.57513,44.42609" stroke="#000000" stroke-width="0.24" fill="none" />
  <path d="M32.38473,57.4052 L32.38473,42.72864" stroke="#000000" stroke-width="0.24" fill="none" />
  <path d="M81.68056,70.50233 L81.68056,72.1998" stroke="#000000" stroke-width="0.24" fill="none" />
  <path d="M80.66449,70.25934 L80.49017,70.50233" stroke="#000000" stroke-width="0.24" fill="none" />
  <path d="M81.68056,70.50233 L81.50623,70.25934 C81.32013,70.12765 80.85059,70.12765 80.66449,70.25934" stroke="#000000" stroke-width="0.24" fill="none" />
  <path d="M87.4826,75.09486 L81.68063,71.74509" stroke="#000000" stroke-width="0.24" fill="none" />
  <path d="M80.49017,85.17889 L80.49017,70.50233" stroke="#000000" stroke-width="0.24" fill="none" />
  <path d="M73.80428,53.32299 C73.61819,53.1913 73.14864,53.1913 72.96255,53.32299 L72.78822,53.56598" stroke="#000000" stroke-width="0.24" fill="none" />
  <path d="M44.39148,38.45551 L44.39138,36.49275" stroke="#000000" stroke-width="0.24" fill="none" />
  <path d="M43.20108,36.48385 L43.20108,37.76823" stroke="#000000" stroke-width="0.24" fill="none" />
  <path d="M33.4008,57.64819 L33.57513,57.4052" stroke="#000000" stroke-width="0.24" fill="none" />
  <path d="M92.49692,72.19984 L97.16261,69.5061" stroke="#000000" stroke-width="0.24" fill="none" />
  <path d="M92.49692,78.9341 L92.49692,72.19984" stroke="#000000" stroke-width="0.24" fill="none" />
  <path d="M91.30652,72.88712 L91.30652,78.9341" stroke="#000000" stroke-width="0.24" fill="none" />
  <path d="M87.4826,75.09486 L91.30652,72.88712" stroke="#000000" stroke-width="0.24" fill="none" />
  <path d="M81.68059,85.17891 L81.68059,73.17178" stroke="#000000" stroke-width="0.24" fill="none" />
  <path d="M82.91616,72.45842 L87.4826,75.09486" stroke="#000000" stroke-width="0.24" fill="none" />
  <path d="M81.68059,73.17178 L82.91616,72.45842" stroke="#000000" stroke-width="0.24" fill="none" />
  <path d="M62.98796,62.58091 L64.39788,61.76689" stroke="#000000" stroke-width="0.24" fill="none" />
  <path d="M81.50623,73.27245 L82.91639,72.45829" stroke="#111111" stroke-width="0.24" fill="none" />
  <path d="M81.50623,72.30049 L82.07449,71.9724" stroke="#111111" stroke-width="0.24" fill="none" />
  <path d="M87.4826,74.51168 L81.68071,71.16196" stroke="#111111" stroke-width="0.24" fill="none" />
  <path d="M32.38473,57.4052 L32.55906,57.64819 C32.74516,57.77988 33.21469,57.77988 33.4008,57.64819 L33.57513,57.4052" stroke="#111111" stroke-width="0.24" fill="none" />
  <path d="M80.49017,85.17889 L80.66449,85.42188 C80.85059,85.55357 81.32013,85.55357 81.50623,85.42188 L81.68056,85.17889" stroke="#111111" stroke-width="0.24" fill="none" />
  <path d="M43.20106,51.16039 L43.37539,51.40338 C43.56149,51.53506 44.03102,51.53506 44.21713,51.40338 L44.39146,51.16039" stroke="#111111" stroke-width="0.24" fill="none" />
  <path d="M62.98795,61.60896 L63.55629,61.28083" stroke="#111111" stroke-width="0.24" fill="none" />
  <path d="M72.78822,54.85036 L72.78822,53.56598" stroke="#111111" stroke-width="0.24" fill="none" />
  <path d="M33.57513,45.39807 L33.57513,57.4052" stroke="#111111" stroke-width="0.24" fill="none" />
  <path d="M72.78822,53.56598 L72.96255,53.80897 C73.14864,53.94066 73.61819,53.94066 73.80428,53.80897 L73.97861,53.56598 L73.80428,53.32299 C73.61819,53.1913 73.14864,53.1913 72.96255,53.32299 z" stroke="#111111" stroke-width="0.24" fill="none" />
  <path d="M73.97861,53.56598 L73.97861,55.53764" stroke="#111111" stroke-width="0.24" fill="none" />
  <path d="M62.98795,60.05378 L63.16228,59.81079" stroke="#111111" stroke-width="0.24" fill="none" />
  <path d="M61.97189,62.33788 L62.14621,62.58088 C62.33232,62.71256 62.80185,62.71256 62.98795,62.58088" stroke="#111111" stroke-width="0.24" fill="none" />
  <path d="M80.49206,70.47569 L63.16242,60.47042" stroke="#111111" stroke-width="0.24" fill="none" />
  <path d="M97.16261,68.92293 L87.4826,74.51168" stroke="#111111" stroke-width="0.24" fill="none" />
  <path d="M80.49017,70.50233 L80.66449,70.74532 C80.85059,70.87701 81.32013,70.87701 81.50623,70.74532 L81.68056,70.50233" stroke="#111111" stroke-width="0.24" fill="none" />
  <path d="M92.49689,72.19978 L92.49689,78.93407" stroke="#111111" stroke-width="0.24" fill="none" />
  <path d="M91.3065,65.54189 L91.3065,64.25751" stroke="#111111" stroke-width="0.24" fill="none" />
  <path d="M43.20106,37.7682 L43.20106,36.48383" stroke="#111111" stroke-width="0.24" fill="none" />
  <path d="M32.38473,42.72864 L32.55906,42.97163 C32.74516,43.10332 33.21469,43.10332 33.4008,42.97163" stroke="#111111" stroke-width="0.24" fill="none" />
  <path d="M32.38655,42.70197 L27.71906,40.00719" stroke="#111111" stroke-width="0.24" fill="none" />
  <path d="M87.4826,75.09486 L87.4826,74.51168" stroke="#111111" stroke-width="0.24" fill="none" />
  <path d="M97.16261,69.5061 L97.16261,68.92293" stroke="#111111" stroke-width="0.24" fill="none" />
  <path d="M27.71906,40.59037 L27.71906,40.00719 L37.39907,34.41843" stroke="#111111" stroke-width="0.24" fill="none" />
  <path d="M33.4008,42.97163 L33.57513,42.72864" stroke="#111111" stroke-width="0.24" fill="none" />
  <path d="M91.3065,64.25751 L91.48083,64.5005 C91.66692,64.63219 92.13646,64.63219 92.32256,64.5005 L92.49689,64.25751 L92.32256,64.01453 C92.13646,63.88284 91.66692,63.88284 91.48083,64.01453" stroke="#111111" stroke-width="0.24" fill="none" />
  <path d="M92.49689,64.25751 L92.49689,66.22917" stroke="#111111" stroke-width="0.24" fill="none" />
  <path d="M91.3065,78.93407 L91.3065,72.88709" stroke="#111111" stroke-width="0.24" fill="none" />
  <path d="M91.48083,64.01453 L91.3065,64.25751" stroke="#111111" stroke-width="0.24" fill="none" />
  <path d="M43.20106,36.48383 L43.37539,36.72682 C43.56149,36.85851 44.03102,36.85851 44.21713,36.72682 L44.39146,36.48383 L44.21713,36.24084 C44.03102,36.10915 43.56149,36.10915 43.37539,36.24084 z" stroke="#111111" stroke-width="0.24" fill="none" />
  <path d="M44.39146,36.48383 L44.39146,38.45548" stroke="#111111" stroke-width="0.24" fill="none" />
  <path d="M43.20106,51.16039 L43.20106,49.52889" stroke="#111111" stroke-width="0.24" fill="none" />
  <path d="M62.98795,62.58091 L64.39793,61.76686" stroke="#111111" stroke-width="0.24" fill="none" />
  <path d="M91.3065,78.93407 L91.48083,79.17706 C91.66692,79.30875 92.13646,79.30875 92.32256,79.17706 L92.49689,78.93407" stroke="#111111" stroke-width="0.24" fill="none" />
  <path d="M44.39146,50.21606 L44.39146,51.16039" stroke="#111111" stroke-width="0.24" fill="none" />
  <path d="M32.38475,43.2841 L27.71906,40.59037" stroke="#111111" stroke-width="0.24" fill="none" />
  <path d="M81.68056,73.17176 L81.68056,85.17889" stroke="#111111" stroke-width="0.24" fill="none" />
  <path d="M61.97377,59.78415 L33.57515,43.38821" stroke="#111111" stroke-width="0.24" fill="none" />
  <path d="M61.97189,59.81079 L62.14621,60.05378 C62.33232,60.18547 62.80185,60.18547 62.98795,60.05378" stroke="#111111" stroke-width="0.24" fill="none" />
</svg>