<?xml version="1.0" encoding="utf-8" standalone="no"?>
<!DOCTYPE svg PUBLIC "-//W3C//DTD SVG 1.1//EN" "http://www.w3.org/Graphics/SVG/1.1/DTD/svg11.dtd">
<svg version="1.1" width="120pt" height="120pt" viewBox="0 0 120 120" overflow="visible" xmlns="http://www.w3.org/2000/svg">
  <path d="M37.91973,74.75117 L28.23972,69.16241 L28.23972,68.57924 L37.91973,74.16799 z" stroke="Black" stroke-width="0" fill="#BBBBBB" fill-opacity="1" />
  <path d="M28.23972,83.98476 L28.23972,83.40159 L37.91973,88.99034 L37.91973,89.57352 z" stroke="Black" stroke-width="0" fill="#BBBBBB" fill-opacity="1" />
  <path d="M45.10682,84.84087 L73.50358,68.446 L73.50358,69.02917 L45.10682,85.42405 z" stroke="Black" stroke-width="0" fill="#CCCCCC" fill-opacity="1" />
  <path d="M45.10502,70.01956 L73.50358,53.62365 L73.50358,54.20683 L45.10682,70.6017 z" stroke="Black" stroke-width="0" fill="#CCCCCC" fill-opacity="1" />
  <path d="M43.91642,86.11133 L37.91973,89.57352 L37.91973,88.99034 L43.91642,85.52815 z" stroke="Black" stroke-width="0" fill="#CCCCCC" fill-opacity="1" />
  <path d="M74.69398,53.51954 L74.69398,52.96411 L89.2322,44.54272 L89.2322,45.1259 z" stroke="Black" stroke-width="0" fill="#CCCCCC" fill-opacity="1" />
  <path d="M74.69398,67.75872 L89.2322,59.36508 L89.2322,59.94825 L74.69398,68.3419 z" stroke="Black" stroke-width="0" fill="#CCCCCC" fill-opacity="1" />
  <path d="M43.91642,71.28898 L37.91973,74.75117 L37.91973,74.16799 L43.9164,70.70582 z" stroke="Black" stroke-width="0" fill="#CCCCCC" fill-opacity="1" />
  <path d="M45.10682,73.66336 L73.50351,57.26857 L73.50358,68.446 L45.10682,84.84087 z" stroke="Black" stroke-width="0" fill="#EEEEEE" fill-opacity="1" />
  <path d="M28.23972,83.40159 L43.91638,74.35069 L43.91642,85.52815 L37.91973,88.99034 z" stroke="Black" stroke-width="0" fill="#EEEEEE" fill-opacity="1" />
  <path d="M74.69398,67.75872 L74.69398,56.58121 L79.55219,53.77632 L89.2322,59.36508 z" stroke="Black" stroke-width="0" fill="#EEEEEE" fill-opacity="1" />
  <path d="M74.69218,52.93741 L74.51965,52.72112 C74.33355,52.58943 73.86401,52.58943 73.67791,52.72112 L73.50358,52.96411 L73.50358,53.62365 L45.10502,70.01956 L44.93249,69.80327 C44.74639,69.67159 44.27686,69.67159 44.09075,69.80327 L43.91642,70.04626 L43.9164,70.70582 L37.91973,74.16799 L28.23972,68.57924 L79.55219,38.95397 L89.2322,44.54272 z" stroke="Black" stroke-width="0" fill="#EEEEEE" fill-opacity="1" />
  <path d="M43.52259,86.33871 L43.91642,86.11133 L43.91642,86.56609 z" stroke="Black" stroke-width="0" fill="#555555" fill-opacity="1" />
  <path d="M45.10672,70.05515 L44.93249,70.28925 C44.74639,70.42094 44.27686,70.42094 44.09075,70.28925 L43.91652,70.05515 L44.09075,69.80327 C44.27686,69.67159 44.74639,69.67159 44.93249,69.80327 z" stroke="Black" stroke-width="0" fill="#555555" fill-opacity="1" />
  <path d="M43.52259,71.51635 L43.91642,71.28898 L43.91642,71.74373 z" stroke="Black" stroke-width="0" fill="#555555" fill-opacity="1" />
  <path d="M34.29026,63.81032 L34.11613,64.04443 C33.93003,64.17611 33.46049,64.17611 33.27439,64.04443 L33.10006,63.80143 L33.27439,63.55844 C33.46049,63.42675 33.93003,63.42675 34.11613,63.55844 z" stroke="Black" stroke-width="0" fill="#555555" fill-opacity="1" />
  <path d="M74.69388,52.973 L74.51965,53.2071 C74.33355,53.33878 73.86401,53.33878 73.67791,53.2071 L73.50368,52.973 L73.67791,52.72112 C73.86401,52.58943 74.33355,52.58943 74.51965,52.72112 z" stroke="Black" stroke-width="0" fill="#555555" fill-opacity="1" />
  <path d="M73.10975,54.4342 L73.50358,54.20683 L73.50358,54.66158 z" stroke="Black" stroke-width="0" fill="#555555" fill-opacity="1" />
  <path d="M73.10975,69.25655 L73.50358,69.02917 L73.50358,69.48393 z" stroke="Black" stroke-width="0" fill="#555555" fill-opacity="1" />
  <path d="M62.68722,46.71928 L62.86155,46.47629 C63.04765,46.3446 63.51719,46.3446 63.70329,46.47629 L63.87762,46.71928 L63.70329,46.96227 C63.51719,47.09396 63.04765,47.09396 62.86155,46.96227 z" stroke="Black" stroke-width="0" fill="#555555" fill-opacity="1" />
  <path d="M63.87768,62.82587 L62.68722,63.51331 L62.68722,60.45165 L63.87762,59.76437 z" stroke="Black" stroke-width="0" fill="#777777" fill-opacity="1" />
  <path d="M34.29047,72.65581 L34.29047,79.90819 L33.10006,80.59547 L33.10006,71.96853 z" stroke="Black" stroke-width="0" fill="#777777" fill-opacity="1" />
  <path d="M34.29047,65.08584 L33.10006,65.77312 L33.10016,63.81033 L33.27439,64.04443 C33.46049,64.17611 33.93003,64.17611 34.11613,64.04443 L34.29026,63.81032 z" stroke="Black" stroke-width="0" fill="#777777" fill-opacity="1" />
  <path d="M62.86155,46.96227 C63.04765,47.09396 63.51719,47.09396 63.70329,46.96227 L63.87752,46.72817 L63.87762,48.00368 L62.68722,48.69096 L62.68732,46.72817 z" stroke="Black" stroke-width="0" fill="#777777" fill-opacity="1" />
  <path d="M43.91642,71.74373 L43.91652,70.05515 L44.09075,70.28925 C44.27686,70.42094 44.74639,70.42094 44.93249,70.28925 L45.10672,70.05515 L45.10682,90.55457 L44.93249,90.79755 C44.74639,90.92924 44.27686,90.92924 44.09075,90.79755 L43.91642,90.55457 L43.91642,87.53804 L42.68085,86.82468 L43.52259,86.33871 L43.91642,86.56609 L43.91642,72.71569 L42.68085,72.00233 L43.52259,71.51635 z" stroke="Black" stroke-width="0" fill="#777777" fill-opacity="1" />
  <path d="M74.69388,52.973 L74.69398,73.47241 L74.51965,73.7154 C74.33355,73.84709 73.86401,73.84709 73.67791,73.7154 L73.50358,73.47241 L73.50358,70.45589 L72.26801,69.74253 L73.10975,69.25655 L73.50358,69.48393 L73.50358,55.63354 L72.26801,54.92018 L73.10975,54.4342 L73.50358,54.66158 L73.50368,52.973 L73.67791,53.2071 C73.86401,53.33878 74.33355,53.33878 74.51965,53.2071 z" stroke="Black" stroke-width="0" fill="#777777" fill-opacity="1" />
  <path d="M43.91645,87.53806 L42.68087,86.82471" stroke="#000000" stroke-width="0.24" fill="none" />
  <path d="M45.10685,85.42407 L45.10685,90.55459" stroke="#000000" stroke-width="0.24" fill="none" />
  <path d="M73.67791,73.7154 L73.50358,73.47241" stroke="#000000" stroke-width="0.24" fill="none" />
  <path d="M62.68725,60.45167 L45.10685,70.60172" stroke="#000000" stroke-width="0.24" fill="none" />
  <path d="M79.55222,38.95399 L89.23222,44.54275" stroke="#000000" stroke-width="0.24" fill="none" />
  <path d="M63.8777,62.82589 L73.50353,57.2686" stroke="#000000" stroke-width="0.24" fill="none" />
  <path d="M62.68725,63.51334 L62.68725,60.45167" stroke="#000000" stroke-width="0.24" fill="none" />
  <path d="M37.91975,74.75119 L34.29049,72.65583" stroke="#000000" stroke-width="0.24" fill="none" />
  <path d="M43.91645,72.71571 L42.68087,72.00236" stroke="#000000" stroke-width="0.24" fill="none" />
  <path d="M79.55222,53.77635 L89.23222,59.3651" stroke="#000000" stroke-width="0.24" fill="none" />
  <path d="M34.29049,65.08586 L62.68725,48.69099 L62.68735,46.7282 L62.86155,46.47629 C63.04765,46.3446 63.51719,46.3446 63.70329,46.47629" stroke="#000000" stroke-width="0.24" fill="none" />
  <path d="M34.29049,79.90821 L43.9164,74.35072" stroke="#000000" stroke-width="0.24" fill="none" />
  <path d="M63.70329,46.47629 L63.87762,46.71928 L63.87765,48.00371" stroke="#000000" stroke-width="0.24" fill="none" />
  <path d="M73.50353,57.2686 L73.5036,55.63356" stroke="#000000" stroke-width="0.24" fill="none" />
  <path d="M45.10685,73.66338 L62.68724,63.51334" stroke="#000000" stroke-width="0.24" fill="none" />
  <path d="M89.23222,45.12592 L74.69401,53.51957" stroke="#000000" stroke-width="0.24" fill="none" />
  <path d="M72.26804,69.74255 L73.5036,69.0292" stroke="#000000" stroke-width="0.24" fill="none" />
  <path d="M45.10685,70.60172 L45.10685,73.66338" stroke="#000000" stroke-width="0.24" fill="none" />
  <path d="M73.5036,55.63356 L72.26804,54.9202" stroke="#000000" stroke-width="0.24" fill="none" />
  <path d="M74.69401,68.34192 L74.69401,73.47243" stroke="#000000" stroke-width="0.24" fill="none" />
  <path d="M72.26804,54.9202 L63.87765,59.76439" stroke="#000000" stroke-width="0.24" fill="none" />
  <path d="M37.91975,89.57354 L28.23975,83.98479" stroke="#000000" stroke-width="0.24" fill="none" />
  <path d="M73.5036,73.47243 L73.5036,70.45591" stroke="#000000" stroke-width="0.24" fill="none" />
  <path d="M45.10682,90.55457 L44.93249,90.79755" stroke="#000000" stroke-width="0.24" fill="none" />
  <path d="M74.69401,53.51957 L74.69401,56.58123" stroke="#000000" stroke-width="0.24" fill="none" />
  <path d="M89.23222,44.54275 L89.23222,45.12592" stroke="#000000" stroke-width="0.24" fill="none" />
  <path d="M63.87765,59.7644 L63.8777,62.82589" stroke="#000000" stroke-width="0.24" fill="none" />
  <path d="M63.87765,48.00371 L79.55222,38.95399" stroke="#000000" stroke-width="0.24" fill="none" />
  <path d="M28.23975,69.16244 L28.23975,68.57926" stroke="#000000" stroke-width="0.24" fill="none" />
  <path d="M33.27439,63.55844 C33.46049,63.42675 33.93003,63.42675 34.11613,63.55844 L34.29047,63.80143" stroke="#000000" stroke-width="0.24" fill="none" />
  <path d="M73.5036,54.20685 L45.10685,70.60172" stroke="#000000" stroke-width="0.24" fill="none" />
  <path d="M28.23975,83.40161 L43.91636,74.35072" stroke="#000000" stroke-width="0.24" fill="none" />
  <path d="M74.69398,73.47241 L74.69398,52.96411" stroke="#000000" stroke-width="0.24" fill="none" />
  <path d="M43.91645,71.289 L37.91975,74.75119" stroke="#000000" stroke-width="0.24" fill="none" />
  <path d="M28.23975,83.40161 L33.10009,80.59549" stroke="#000000" stroke-width="0.24" fill="none" />
  <path d="M43.91642,72.71569 L43.91642,86.56609" stroke="#000000" stroke-width="0.24" fill="none" />
  <path d="M43.91642,70.04626 L43.91642,71.74373" stroke="#000000" stroke-width="0.24" fill="none" />
  <path d="M42.68087,86.82471 L37.91975,89.57354" stroke="#000000" stroke-width="0.24" fill="none" />
  <path d="M28.23975,83.98479 L28.23975,83.40161" stroke="#000000" stroke-width="0.24" fill="none" />
  <path d="M43.91645,90.55459 L43.91645,87.53806" stroke="#000000" stroke-width="0.24" fill="none" />
  <path d="M33.10009,80.59549 L33.10009,71.96855 L28.23975,69.16244" stroke="#000000" stroke-width="0.24" fill="none" />
  <path d="M72.26804,69.74255 L45.10685,85.42407" stroke="#000000" stroke-width="0.24" fill="none" />
  <path d="M44.93249,90.79755 C44.74639,90.92924 44.27686,90.92924 44.09075,90.79755" stroke="#000000" stroke-width="0.24" fill="none" />
  <path d="M73.5036,70.45591 L72.26804,69.74255" stroke="#000000" stroke-width="0.24" fill="none" />
  <path d="M74.69398,73.47241 L74.51965,73.7154" stroke="#000000" stroke-width="0.24" fill="none" />
  <path d="M45.10682,90.55457 L45.10682,70.04626" stroke="#000000" stroke-width="0.24" fill="none" />
  <path d="M74.69401,56.58123 L79.55222,53.77635" stroke="#000000" stroke-width="0.24" fill="none" />
  <path d="M73.50358,55.63338 L73.50358,69.48393" stroke="#000000" stroke-width="0.24" fill="none" />
  <path d="M89.23222,59.3651 L89.23222,59.94828" stroke="#000000" stroke-width="0.24" fill="none" />
  <path d="M44.09075,90.79755 L43.91642,90.55457" stroke="#000000" stroke-width="0.24" fill="none" />
  <path d="M74.51965,73.7154 C74.33355,73.84709 73.86401,73.84709 73.67791,73.7154" stroke="#000000" stroke-width="0.24" fill="none" />
  <path d="M45.10685,73.66338 L73.50346,57.2686" stroke="#000000" stroke-width="0.24" fill="none" />
  <path d="M73.50358,52.96411 L73.50358,54.66158" stroke="#000000" stroke-width="0.24" fill="none" />
  <path d="M43.91645,86.11135 L37.91975,89.57354" stroke="#000000" stroke-width="0.24" fill="none" />
  <path d="M37.91975,74.75119 L28.23975,69.16244" stroke="#000000" stroke-width="0.24" fill="none" />
  <path d="M73.50358,52.96411 L73.67791,52.72112 C73.86401,52.58943 74.33355,52.58943 74.51965,52.72112 L74.69398,52.96411" stroke="#000000" stroke-width="0.24" fill="none" />
  <path d="M34.29049,72.65583 L34.29049,79.90821" stroke="#000000" stroke-width="0.24" fill="none" />
  <path d="M44.93249,69.80327 L45.10682,70.04626" stroke="#000000" stroke-width="0.24" fill="none" />
  <path d="M42.68087,72.00236 L37.91975,74.75119" stroke="#000000" stroke-width="0.24" fill="none" />
  <path d="M43.9164,74.35072 L43.91645,72.71571" stroke="#000000" stroke-width="0.24" fill="none" />
  <path d="M28.23975,68.57926 L79.55222,38.95399" stroke="#000000" stroke-width="0.24" fill="none" />
  <path d="M33.10009,65.77314 L33.10009,63.80146" stroke="#000000" stroke-width="0.24" fill="none" />
  <path d="M28.23975,68.57926 L33.10009,65.77314" stroke="#000000" stroke-width="0.24" fill="none" />
  <path d="M34.29039,63.81035 L34.29049,65.08586" stroke="#000000" stroke-width="0.24" fill="none" />
  <path d="M33.10006,63.80143 L33.27439,63.55844" stroke="#000000" stroke-width="0.24" fill="none" />
  <path d="M43.91642,70.04626 L44.09075,69.80327 C44.27686,69.67159 44.74639,69.67159 44.93249,69.80327" stroke="#000000" stroke-width="0.24" fill="none" />
  <path d="M89.23222,59.94828 L74.69401,68.34192" stroke="#000000" stroke-width="0.24" fill="none" />
  <path d="M44.09078,72.81636 L42.68078,72.0023" stroke="#111111" stroke-width="0.24" fill="none" />
  <path d="M44.09078,71.84441 L43.52242,71.51627" stroke="#111111" stroke-width="0.24" fill="none" />
  <path d="M44.09078,87.63872 L42.68083,86.82468" stroke="#111111" stroke-width="0.24" fill="none" />
  <path d="M44.09078,86.66676 L43.52247,86.33865" stroke="#111111" stroke-width="0.24" fill="none" />
  <path d="M43.91642,72.71569 L43.91642,86.56609" stroke="#111111" stroke-width="0.24" fill="none" />
  <path d="M43.91642,70.04626 L43.91642,71.74373" stroke="#111111" stroke-width="0.24" fill="none" />
  <path d="M45.10682,90.55457 L45.10682,70.04626 L45.10682,70.04626" stroke="#111111" stroke-width="0.24" fill="none" />
  <path d="M73.50358,52.96411 L73.67791,52.72112 C73.86401,52.58943 74.33355,52.58943 74.51965,52.72112 L74.69398,52.96411" stroke="#111111" stroke-width="0.24" fill="none" />
  <path d="M73.50358,55.63338 L73.50358,69.48393" stroke="#111111" stroke-width="0.24" fill="none" />
  <path d="M73.50358,52.96411 L73.50358,54.66158" stroke="#111111" stroke-width="0.24" fill="none" />
  <path d="M74.69398,73.47241 L74.69398,52.96411" stroke="#111111" stroke-width="0.24" fill="none" />
  <path d="M45.10685,73.66338 L73.50346,57.2686" stroke="#111111" stroke-width="0.24" fill="none" />
  <path d="M28.23975,83.40161 L43.91636,74.35072" stroke="#111111" stroke-width="0.24" fill="none" />
  <path d="M43.91645,85.52818 L37.91975,88.99036" stroke="#111111" stroke-width="0.24" fill="none" />
  <path d="M43.91645,86.11135 L37.91975,89.57354" stroke="#111111" stroke-width="0.24" fill="none" />
  <path d="M73.5036,69.0292 L45.10685,85.42407" stroke="#111111" stroke-width="0.24" fill="none" />
  <path d="M72.26797,69.74252 L73.67793,70.55656" stroke="#111111" stroke-width="0.24" fill="none" />
  <path d="M73.1096,69.25648 L73.67793,69.5846" stroke="#111111" stroke-width="0.24" fill="none" />
  <path d="M28.23975,68.57926 L79.55222,38.95399" stroke="#111111" stroke-width="0.24" fill="none" />
  <path d="M43.91641,70.70585 L37.91975,74.16801" stroke="#111111" stroke-width="0.24" fill="none" />
  <path d="M37.91975,74.75119 L28.23975,69.16244" stroke="#111111" stroke-width="0.24" fill="none" />
  <path d="M73.5036,53.62367 L45.10505,70.01958" stroke="#111111" stroke-width="0.24" fill="none" />
  <path d="M37.91975,74.16801 L28.23975,68.57926" stroke="#111111" stroke-width="0.24" fill="none" />
  <path d="M43.91645,71.289 L37.91975,74.75119" stroke="#111111" stroke-width="0.24" fill="none" />
  <path d="M73.5036,54.20685 L45.10685,70.60172" stroke="#111111" stroke-width="0.24" fill="none" />
  <path d="M33.10006,71.96835 L33.10006,80.59547" stroke="#111111" stroke-width="0.24" fill="none" />
  <path d="M72.26791,54.92013 L73.67793,55.73421" stroke="#111111" stroke-width="0.24" fill="none" />
  <path d="M73.10955,54.43409 L73.67793,54.76225" stroke="#111111" stroke-width="0.24" fill="none" />
  <path d="M62.68722,60.45165 L62.68722,63.51331" stroke="#111111" stroke-width="0.24" fill="none" />
  <path d="M63.87762,62.82577 L63.87762,59.76429" stroke="#111111" stroke-width="0.24" fill="none" />
  <path d="M62.68722,46.71928 L62.86155,46.47629 C63.04765,46.3446 63.51719,46.3446 63.70329,46.47629 L63.87762,46.71928" stroke="#111111" stroke-width="0.24" fill="none" />
  <path d="M63.87762,48.00368 L63.87762,46.71928" stroke="#111111" stroke-width="0.24" fill="none" />
  <path d="M34.29047,79.90819 L34.29047,72.65581" stroke="#111111" stroke-width="0.24" fill="none" />
  <path d="M62.68722,46.71928 L62.68722,48.69096" stroke="#111111" stroke-width="0.24" fill="none" />
  <path d="M33.10006,63.80143 L33.27439,63.55844 C33.46049,63.42675 33.93003,63.42675 34.11613,63.55844 L34.29047,63.80143" stroke="#111111" stroke-width="0.24" fill="none" />
  <path d="M45.10682,70.04626 L44.93249,70.28925 C44.74639,70.42094 44.27686,70.42094 44.09075,70.28925 L43.91642,70.04626" stroke="#111111" stroke-width="0.24" fill="none" />
  <path d="M74.69398,52.96411 L74.51965,53.2071 C74.33355,53.33878 73.86401,53.33878 73.67791,53.2071" stroke="#111111" stroke-width="0.24" fill="none" />
  <path d="M73.50358,70.45586 L73.50358,73.47241" stroke="#111111" stroke-width="0.24" fill="none" />
  <path d="M74.69395,56.58126 L79.55222,53.77635" stroke="#111111" stroke-width="0.24" fill="none" />
  <path d="M73.5036,68.44602 L45.10685,84.8409" stroke="#111111" stroke-width="0.24" fill="none" />
  <path d="M43.91642,70.04626 L44.09075,69.80327 C44.27686,69.67159 44.74639,69.67159 44.93249,69.80327" stroke="#111111" stroke-width="0.24" fill="none" />
  <path d="M74.69398,73.47241 L74.51965,73.7154 C74.33355,73.84709 73.86401,73.84709 73.67791,73.7154" stroke="#111111" stroke-width="0.24" fill="none" />
  <path d="M89.23222,59.94828 L74.69401,68.34192" stroke="#111111" stroke-width="0.24" fill="none" />
  <path d="M89.23222,44.54275 L74.69221,52.93743" stroke="#111111" stroke-width="0.24" fill="none" />
  <path d="M89.23222,45.12592 L74.69401,53.51957" stroke="#111111" stroke-width="0.24" fill="none" />
  <path d="M89.23222,59.3651 L74.69401,67.75874" stroke="#111111" stroke-width="0.24" fill="none" />
  <path d="M37.91975,88.99036 L28.23975,83.40161" stroke="#111111" stroke-width="0.24" fill="none" />
  <path d="M28.23975,83.98479 L28.23975,83.40161" stroke="#111111" stroke-width="0.24" fill="none" />
  <path d="M37.91975,89.57354 L28.23975,83.98479" stroke="#111111" stroke-width="0.24" fill="none" />
  <path d="M79.55222,53.77635 L89.23222,59.3651" stroke="#111111" stroke-width="0.24" fill="none" />
  <path d="M89.23222,59.94828 L89.23222,59.3651" stroke="#111111" stroke-width="0.24" fill="none" />
  <path d="M28.23975,69.16244 L28.23975,68.57926" stroke="#111111" stroke-width="0.24" fill="none" />
  <path d="M37.91975,74.75119 L37.91975,74.16801" stroke="#111111" stroke-width="0.24" fill="none" />
  <path d="M79.55222,38.95399 L89.23222,44.54275" stroke="#111111" stroke-width="0.24" fill="none" />
  <path d="M89.23222,45.12592 L89.23222,44.54275" stroke="#111111" stroke-width="0.24" fill="none" />
  <path d="M34.29047,63.80143 L34.11613,64.04443 C33.93003,64.17611 33.46049,64.17611 33.27439,64.04443 L33.10006,63.80143" stroke="#111111" stroke-width="0.24" fill="none" />
  <path d="M34.29047,65.08584 L34.29047,63.80143" stroke="#111111" stroke-width="0.24" fill="none" />
  <path d="M33.10006,63.80143 L33.10006,65.77312" stroke="#111111" stroke-width="0.24" fill="none" />
  <path d="M37.91975,89.57354 L37.91975,88.99036" stroke="#111111" stroke-width="0.24" fill="none" />
  <path d="M73.67791,73.7154 L73.50358,73.47241" stroke="#111111" stroke-width="0.24" fill="none" />
  <path d="M73.67791,53.2071 L73.50358,52.96411" stroke="#111111" stroke-width="0.24" fill="none" />
  <path d="M45.10682,90.55457 L44.93249,90.79755 C44.74639,90.92924 44.27686,90.92924 44.09075,90.79755 L43.91642,90.55457" stroke="#111111" stroke-width="0.24" fill="none" />
  <path d="M62.86155,46.96227 L62.68722,46.71928" stroke="#111111" stroke-width="0.24" fill="none" />
  <path d="M63.87762,46.71928 L63.70329,46.96227 C63.51719,47.09396 63.04765,47.09396 62.86155,46.96227" stroke="#111111" stroke-width="0.24" fill="none" />
  <path d="M43.91642,87.53804 L43.91642,90.55457" stroke="#111111" stroke-width="0.24" fill="none" />
</svg>