<?xml version="1.0" encoding="utf-8" standalone="no"?>
<!DOCTYPE svg PUBLIC "-//W3C//DTD SVG 1.1//EN" "http://www.w3.org/Graphics/SVG/1.1/DTD/svg11.dtd">
<svg version="1.1" width="120pt" height="120pt" viewBox="0 0 120 120" overflow="visible" xmlns="http://www.w3.org/2000/svg">
  <path d="M60.94283,54.87164 L60.94283,42.71929 C60.92686,41.76088 61.6863,40.85078 62.68612,40.2894 C64.54713,38.97251 69.24251,38.97251 71.10352,40.2894 C72.10335,40.85078 72.86279,41.76088 72.84682,42.71929 L72.84682,54.87164 C72.86279,55.83005 72.10335,56.74015 71.10352,57.30154 C69.24251,58.61842 64.54713,58.61842 62.68612,57.30154 C61.6863,56.74015 60.92686,55.83005 60.94283,54.87164 z M70.97726,40.36229 C69.17208,39.08491 64.61757,39.08491 62.81239,40.36229 C61.84256,40.90683 61.1059,41.78963 61.12138,42.71929 C61.1059,43.64895 61.84256,44.53175 62.81239,45.07629 L63.4928,45.41242 C65.28458,46.25601 68.50503,46.25602 70.29682,45.41243 L70.97726,45.07629 C73.18975,44.03407 73.18975,41.40451 70.97726,40.36229 z" stroke="Black" stroke-width="0" fill="#EEE3C3" fill-opacity="1" />
  <path d="M61.12138,42.71929 C61.1059,41.78963 61.84256,40.90683 62.81239,40.36229 C64.61757,39.08491 69.17208,39.08491 70.97726,40.36229 C73.18975,41.40451 73.18975,44.03407 70.97726,45.07629 L70.29682,45.41243 C68.50503,46.25602 65.28458,46.25601 63.4928,45.41242 L62.81239,45.07629 C61.84256,44.53175 61.1059,43.64895 61.12138,42.71929 z" stroke="Black" stroke-width="0" fill="#FFE28A" fill-opacity="1" />
  <path d="M66.86622,35.91303 L49.06065,43.06023 C48.84113,43.12366 48.53801,43.08162 48.3952,42.98994 L48.22107,42.75584 L48.3952,42.50396 L48.59582,42.4277 L66.40207,35.28161 C66.61768,35.18929 66.90844,35.19923 67.04779,35.27934 L67.21677,35.47579 L67.05153,35.80935 z" stroke="Black" stroke-width="0" fill="#555555" fill-opacity="1" />
  <path d="M49.41127,74.47791 L77.98236,57.98239 C78.16846,57.8507 78.63799,57.8507 78.8241,57.98239 L78.99843,58.22538 L78.8241,58.46836 L49.65781,75.30753 L60.05333,81.30938 L60.22765,81.55237 L60.05333,81.79536 C59.86722,81.92705 59.39769,81.92705 59.21158,81.79536 L48.4143,75.5613 C48.60941,75.68481 49.05695,75.6764 49.23696,75.55051 L49.41127,75.30753 z" stroke="Black" stroke-width="0" fill="#555555" fill-opacity="1" />
  <path d="M50.49955,75.79351 L49.65781,75.30753 L78.8241,58.46836 L78.99828,58.23427 L78.99843,59.68331 L78.8241,59.9263 C78.63799,60.05799 78.16846,60.05799 77.98236,59.9263 z" stroke="Black" stroke-width="0" fill="#777777" fill-opacity="1" />
  <path d="M49.41127,43.90711 L49.41127,75.30753 L49.23932,75.54914 C49.05695,75.6764 48.60941,75.68481 48.4143,75.5613 L59.21158,81.79536 C59.39769,81.92705 59.86722,81.92705 60.05333,81.79536 L60.2275,81.56126 L60.22765,83.01031 L60.05333,83.2533 C59.86722,83.38499 59.39769,83.38499 59.21158,83.2533 L59.03725,83.01031 L59.03725,82.66667 L49.2368,77.00848 C49.05057,77.14013 48.58123,77.14008 48.3952,77.00845 L48.22087,76.76546 L48.22102,42.75584 L48.3952,42.98994 C48.53801,43.08162 48.84113,43.12366 49.06065,43.06023 L66.86622,35.91303 L67.05153,35.80935 L67.21893,35.48659 L67.40947,36.38681 L67.24421,36.72032 L67.05492,36.82554 z" stroke="Black" stroke-width="0" fill="#777777" fill-opacity="1" />
  <path d="M67.40947,36.38681 L67.24421,36.72032" stroke="#000000" stroke-width="0.24" fill="none" />
  <path d="M59.03728,82.66669 L49.23682,77.00851" stroke="#000000" stroke-width="0.24" fill="none" />
  <path d="M48.59851,42.42712 L66.40209,35.28164" stroke="#000000" stroke-width="0.24" fill="none" />
  <path d="M67.04779,35.27934 L67.21677,35.47579" stroke="#000000" stroke-width="0.24" fill="none" />
  <path d="M59.03728,83.01033 L59.03728,82.66669" stroke="#000000" stroke-width="0.24" fill="none" />
  <path d="M60.94283,42.71929 C60.92686,41.76088 61.6863,40.85078 62.68612,40.2894 C64.54713,38.97251 69.24251,38.97251 71.10352,40.2894 C72.10335,40.85078 72.86279,41.76088 72.84682,42.71929 L72.84682,54.87164 C72.86279,55.83005 72.10335,56.74015 71.10352,57.30154 C69.24251,58.61842 64.54713,58.61842 62.68612,57.30154 C61.6863,56.74015 60.92686,55.83005 60.94283,54.87164 z" stroke="#000000" stroke-width="0.24" fill="none" />
  <path d="M60.22758,81.56129 L60.22768,83.01033" stroke="#000000" stroke-width="0.24" fill="none" />
  <path d="M48.39525,76.52251 L59.03728,82.66669" stroke="#000000" stroke-width="0.24" fill="none" />
  <path d="M66.40207,35.28161 C66.61768,35.18929 66.90844,35.19923 67.04779,35.27934" stroke="#000000" stroke-width="0.24" fill="none" />
  <path d="M60.05333,81.30938 L60.22765,81.55237" stroke="#000000" stroke-width="0.24" fill="none" />
  <path d="M77.98238,59.92633 L50.49957,75.79353" stroke="#000000" stroke-width="0.24" fill="none" />
  <path d="M78.99835,58.23429 L78.99845,59.68333" stroke="#000000" stroke-width="0.24" fill="none" />
  <path d="M48.3952,42.50396 L48.59582,42.4277" stroke="#000000" stroke-width="0.24" fill="none" />
  <path d="M78.8241,57.98239 L78.99843,58.22538" stroke="#000000" stroke-width="0.24" fill="none" />
  <path d="M50.49957,75.79353 L60.05335,81.3094" stroke="#000000" stroke-width="0.24" fill="none" />
  <path d="M48.22087,42.74695 L48.3952,42.50396" stroke="#000000" stroke-width="0.24" fill="none" />
  <path d="M77.98236,57.98239 C78.16846,57.8507 78.63799,57.8507 78.8241,57.98239" stroke="#000000" stroke-width="0.24" fill="none" />
  <path d="M49.41129,74.47794 L77.98238,57.98241" stroke="#000000" stroke-width="0.24" fill="none" />
  <path d="M78.82412,59.44035 L50.49957,75.79353" stroke="#000000" stroke-width="0.24" fill="none" />
  <path d="M67.05386,36.8241 L49.41129,43.90714 L49.41129,74.47794" stroke="#000000" stroke-width="0.24" fill="none" />
  <path d="M48.22089,76.76549 L48.22099,42.75587" stroke="#000000" stroke-width="0.24" fill="none" />
  <path d="M70.29682,45.41241 L67.59882,43.85472" stroke="#000000" stroke-width="0.1" fill="none" />
  <path d="M60.94283,45.75708 C60.92671,46.71559 61.68619,47.62583 62.68612,48.18727 C64.54713,49.50416 69.24251,49.50416 71.10352,48.18727 C72.10335,47.62589 72.86279,46.71579 72.84682,45.75738" stroke="#000000" stroke-width="0.24" fill="none" />
  <path d="M66.89485,36.88794 L66.89485,43.44828" stroke="#000000" stroke-width="0.1" fill="none" />
  <path d="M66.19085,43.8547 C65.80933,43.67498 65.80933,43.22154 66.19085,43.04182 C66.50214,42.82154 67.28751,42.82154 67.5988,43.04182 C67.98032,43.22154 67.98032,43.67498 67.5988,43.8547 C67.28751,44.07497 66.50214,44.07497 66.19085,43.8547 z" stroke="#000000" stroke-width="0.1" fill="none" />
  <path d="M60.94283,48.79547 C60.92686,49.75388 61.6863,50.66397 62.68612,51.22536 C64.54713,52.54225 69.24251,52.54225 71.10352,51.22536 C72.10335,50.66397 72.86279,49.75388 72.84682,48.79547" stroke="#000000" stroke-width="0.24" fill="none" />
  <path d="M60.94283,51.8335 C60.92683,52.79193 61.68628,53.70206 62.68612,54.26345 C64.54713,55.58033 69.24251,55.58033 71.10352,54.26345 C72.10335,53.70206 72.86279,52.79196 72.84682,51.83355" stroke="#000000" stroke-width="0.24" fill="none" />
  <path d="M66.19087,43.04184 L62.81241,41.09129" stroke="#000000" stroke-width="0.1" fill="none" />
  <path d="M63.49282,45.41244 L66.19087,43.85472" stroke="#000000" stroke-width="0.1" fill="none" />
  <path d="M67.59882,43.04184 L70.97729,41.09129" stroke="#000000" stroke-width="0.1" fill="none" />
  <path d="M67.2168,35.47581 L67.40949,36.38684 L67.05492,36.82554" stroke="#000000" stroke-width="0.24" fill="none" />
  <path d="M48.39525,75.55056 L59.21161,81.79539" stroke="#111111" stroke-width="0.24" fill="none" />
  <path d="M49.06068,43.06026 L66.8663,35.91305" stroke="#111111" stroke-width="0.24" fill="none" />
  <path d="M59.21158,81.79536 C59.39769,81.92705 59.86722,81.92705 60.05333,81.79536 L60.22765,81.55237" stroke="#111111" stroke-width="0.24" fill="none" />
  <path d="M67.21677,35.47579 L67.05153,35.80935 L66.86617,35.91303" stroke="#111111" stroke-width="0.24" fill="none" />
  <path d="M49.41128,75.30753 L49.23932,75.54914 C49.05085,75.6822 48.58134,75.68221 48.39523,75.55054" stroke="#111111" stroke-width="0.24" fill="none" />
  <path d="M62.68612,57.30154 C64.54713,58.61842 69.24251,58.61842 71.10352,57.30154 C72.10335,56.74015 72.86279,55.83005 72.84682,54.87164" stroke="#111111" stroke-width="0.24" fill="none" />
  <path d="M60.94283,54.87164 C60.92686,55.83005 61.6863,56.74015 62.68612,57.30154" stroke="#111111" stroke-width="0.24" fill="none" />
  <path d="M72.84682,42.71929 C72.86279,41.76088 72.10335,40.85078 71.10352,40.2894" stroke="#111111" stroke-width="0.24" fill="none" />
  <path d="M62.68612,45.14919 L62.95642,45.29581 C64.93863,46.49918 69.32675,46.38591 71.10352,45.14919 C72.10335,44.5878 72.86279,43.6777 72.84682,42.71929" stroke="#111111" stroke-width="0.24" fill="none" />
  <path d="M62.81239,45.07629 C61.84256,44.53175 61.1059,43.64895 61.12138,42.71929 C60.92686,43.6777 61.6863,44.5878 62.68612,45.14919" stroke="#111111" stroke-width="0.24" fill="none" />
  <path d="M48.22087,42.74695 L48.22087,76.76546" stroke="#111111" stroke-width="0.24" fill="none" />
  <path d="M49.4112,74.47799 L77.98238,57.98241" stroke="#111111" stroke-width="0.24" fill="none" />
  <path d="M48.22087,76.76546 L48.3952,77.00845 C48.58124,77.14008 49.05055,77.14017 49.23675,77.00857" stroke="#111111" stroke-width="0.24" fill="none" />
  <path d="M60.05335,81.3094 L49.65783,75.30756" stroke="#111111" stroke-width="0.24" fill="none" />
  <path d="M66.40207,35.28161 C66.61768,35.18929 66.90844,35.19923 67.04779,35.27934" stroke="#111111" stroke-width="0.24" fill="none" />
  <path d="M67.40947,36.38681 L67.21677,35.47579" stroke="#111111" stroke-width="0.24" fill="none" />
  <path d="M59.03725,83.01031 L59.21158,83.2533 C59.39769,83.38499 59.86722,83.38499 60.05333,83.2533 L60.22765,83.01031" stroke="#111111" stroke-width="0.24" fill="none" />
  <path d="M71.10352,40.2894 C69.24251,38.97251 64.54713,38.97251 62.68612,40.2894 C61.6863,40.85078 60.92686,41.76088 60.94283,42.71929" stroke="#111111" stroke-width="0.24" fill="none" />
  <path d="M62.81239,45.07629 C64.61757,46.35367 69.17208,46.35367 70.97726,45.07629 C73.18975,44.03407 73.18975,41.40451 70.97726,40.36229" stroke="#111111" stroke-width="0.24" fill="none" />
  <path d="M49.41129,43.90714 L67.05386,36.8241" stroke="#111111" stroke-width="0.24" fill="none" />
  <path d="M60.94283,42.71929 L60.94283,54.87164" stroke="#111111" stroke-width="0.24" fill="none" />
  <path d="M72.84682,54.87164 L72.84682,42.71929" stroke="#111111" stroke-width="0.24" fill="none" />
  <path d="M61.12138,42.71929 C61.1059,41.78963 61.84256,40.90683 62.81239,40.36229 C64.61757,39.08491 69.17208,39.08491 70.97726,40.36229" stroke="#111111" stroke-width="0.24" fill="none" />
  <path d="M49.41127,75.30753 L49.41127,43.90711" stroke="#111111" stroke-width="0.24" fill="none" />
  <path d="M48.22087,42.74695 L48.3952,42.98994 C48.53801,43.08162 48.84113,43.12366 49.06065,43.06023" stroke="#111111" stroke-width="0.24" fill="none" />
  <path d="M67.04779,35.27934 L67.21677,35.47579" stroke="#111111" stroke-width="0.24" fill="none" />
  <path d="M78.99843,59.68331 L78.99843,58.22538 L78.8241,57.98239 C78.63799,57.8507 78.16846,57.8507 77.98236,57.98239" stroke="#111111" stroke-width="0.24" fill="none" />
  <path d="M67.40947,36.38681 L67.24421,36.72032 L67.05492,36.82554" stroke="#111111" stroke-width="0.24" fill="none" />
  <path d="M48.59582,42.4277 L48.3952,42.50396 L48.22087,42.74695" stroke="#111111" stroke-width="0.24" fill="none" />
  <path d="M60.22765,83.01031 L60.22765,81.55237 L60.05333,81.30938" stroke="#111111" stroke-width="0.24" fill="none" />
  <path d="M59.03725,82.66667 L59.03725,83.01031" stroke="#111111" stroke-width="0.24" fill="none" />
  <path d="M77.98236,59.9263 C78.16846,60.05799 78.63799,60.05799 78.8241,59.9263 L78.99843,59.68331" stroke="#111111" stroke-width="0.24" fill="none" />
  <path d="M66.40209,35.28164 L48.59851,42.42712" stroke="#111111" stroke-width="0.24" fill="none" />
  <path d="M78.82412,58.46839 L49.65783,75.30756" stroke="#111111" stroke-width="0.24" fill="none" />
  <path d="M78.8241,58.46836 L78.99843,58.22538" stroke="#111111" stroke-width="0.24" fill="none" />
</svg>