<?xml version="1.0" encoding="utf-8" standalone="no"?>
<!DOCTYPE svg PUBLIC "-//W3C//DTD SVG 1.1//EN" "http://www.w3.org/Graphics/SVG/1.1/DTD/svg11.dtd">
<svg version="1.1" width="120pt" height="120pt" viewBox="0 0 120 120" overflow="visible" xmlns="http://www.w3.org/2000/svg">
  <path d="M58.63121,40.03875 C60.49223,38.72187 65.1876,38.72187 67.04861,40.03875 C68.04844,40.60014 68.80788,41.51024 68.79192,42.46865 L68.79192,54.621 C68.80788,55.57941 68.04844,56.48951 67.04861,57.05089 C65.1876,58.36778 60.49223,58.36778 58.63121,57.05089 C57.63139,56.48951 56.87195,55.57941 56.88791,54.621 L56.88791,42.46865 C56.87195,41.51024 57.63139,40.60014 58.63121,40.03875 z M66.92235,44.82565 C67.89218,44.28111 68.62884,43.39831 68.61335,42.46865 C68.62884,41.53899 67.89218,40.65619 66.92235,40.11165 C65.11717,38.83427 60.56266,38.83427 58.75747,40.11165 C56.54498,41.15387 56.54498,43.78342 58.75747,44.82565 L59.43803,45.16183 C61.22984,46.00539 64.45022,46.00535 66.24196,45.16177 z" stroke="Black" stroke-width="0" fill="#FFF5D7" fill-opacity="1" />
  <path d="M66.92235,44.82565 L66.24196,45.16177 C64.45022,46.00535 61.22984,46.00539 59.43803,45.16183 L58.75747,44.82565 C56.54498,43.78342 56.54498,41.15387 58.75747,40.11165 C60.56266,38.83427 65.11717,38.83427 66.92235,40.11165 C67.89218,40.65619 68.62884,41.53899 68.61335,42.46865 C68.62884,43.39831 67.89218,44.28111 66.92235,44.82565 z" stroke="Black" stroke-width="0" fill="#E4D4A4" fill-opacity="1" />
  <path d="M62.13594,42.79118 C62.44722,42.5709 63.2326,42.5709 63.54389,42.79118 C63.92541,42.9709 63.92541,43.42434 63.54389,43.60406 C63.2326,43.82433 62.44722,43.82433 62.13594,43.60406 C61.75441,43.42434 61.75441,42.9709 62.13594,42.79118 z" stroke="#FFFFFF" stroke-width="0.2" fill="none" />
  <path d="M56.88791,51.58291 C56.87195,52.54132 57.63139,53.45142 58.63121,54.01281 C60.49223,55.32969 65.1876,55.32969 67.04861,54.01281 C68.04844,53.45142 68.80788,52.54132 68.79192,51.58291" stroke="#FFFFFF" stroke-width="0.2" fill="none" />
  <path d="M56.88791,42.46865 C56.87195,43.42706 57.63139,44.33716 58.63121,44.89854 C60.40799,46.13527 64.79611,46.24854 66.77831,45.04516" stroke="#FFFFFF" stroke-width="0.2" fill="none" />
  <path d="M63.54391,42.7912 L66.92238,40.84064" stroke="#FFFFFF" stroke-width="0.2" fill="none" />
  <path d="M58.7575,40.84064 L62.13596,42.7912" stroke="#FFFFFF" stroke-width="0.2" fill="none" />
  <path d="M56.88791,45.50658 C56.87187,46.46505 57.63134,47.37522 58.63121,47.93663 C60.49223,49.25352 65.1876,49.25352 67.04861,47.93663 C68.04846,47.37524 68.80791,46.4651 68.79192,45.50667" stroke="#FFFFFF" stroke-width="0.2" fill="none" />
  <path d="M63.54391,43.60408 L66.242,45.16182" stroke="#FFFFFF" stroke-width="0.2" fill="none" />
  <path d="M56.88791,48.54459 C56.87183,49.50308 57.63131,50.41329 58.63121,50.97472 C60.49223,52.29161 65.1876,52.29161 67.04861,50.97472 C68.04848,50.41331 68.80795,49.50314 68.79192,48.54468" stroke="#FFFFFF" stroke-width="0.2" fill="none" />
  <path d="M59.43813,45.16168 L62.13596,43.60408" stroke="#FFFFFF" stroke-width="0.2" fill="none" />
  <path d="M62.19739,35.27427 L54.63971,27.7794 L54.76238,27.39497 C54.94848,27.26328 55.41802,27.26328 55.60412,27.39497 L63.29346,35.00602 L63.16215,35.30306 C62.97508,35.41402 62.50656,35.44037 62.32223,35.3503" stroke="Black" stroke-width="0" fill="#555555" fill-opacity="1" />
  <path d="M84.34953,77.52368 L55.18325,60.68451 L44.78773,66.68637 C44.60163,66.81805 44.1321,66.81805 43.946,66.68637 L43.77186,66.45227 L43.946,66.20039 L54.58805,60.05619 L54.76239,60.44154 C54.95206,60.57358 55.41877,60.57247 55.60409,60.44154 L55.77844,60.19854 L85.19128,77.0377 L85.36561,77.28069 L85.19128,77.52368 C85.00517,77.65536 84.53564,77.65536 84.34953,77.52368 z" stroke="Black" stroke-width="0" fill="#555555" fill-opacity="1" />
  <path d="M55.18325,61.65647 L55.60412,61.89946 C55.41802,62.03115 54.94848,62.03115 54.76238,61.89946 z" stroke="Black" stroke-width="0" fill="#555555" fill-opacity="1" />
  <path d="M62.32223,35.3503 C62.50656,35.44037 62.97508,35.41402 63.16215,35.30306 L63.33875,35.10472 L63.41798,36.16587 L63.24181,36.37136 L62.83991,36.47055 L62.40188,36.4185 L55.77845,29.89607 L55.77844,60.19854 L55.60409,60.44154 C55.41877,60.57247 54.95206,60.57358 54.76476,60.4429 L54.58805,60.19854 L54.58815,27.64719 L62.19739,35.27427" stroke="Black" stroke-width="0" fill="#777777" fill-opacity="1" />
  <path d="M84.17521,78.39499 L55.18325,61.65647 L44.96206,67.55768 L44.96206,67.90131 L44.78773,68.1443 C44.60163,68.27599 44.1321,68.27599 43.946,68.1443 L43.77166,67.90131 L43.77181,66.45227 L43.946,66.68637 C44.1321,66.81805 44.60163,66.81805 44.78773,66.68637 L55.18325,60.68451 L84.34953,77.52368 C84.53564,77.65536 85.00517,77.65536 85.19128,77.52368 L85.36546,77.28958 L85.36561,78.73862 L85.19128,78.98161 C85.00517,79.1133 84.53564,79.1133 84.34953,78.98161 L84.17521,78.73862 z" stroke="Black" stroke-width="0" fill="#777777" fill-opacity="1" />
  <path d="M56.88791,54.621 C56.87195,55.57941 57.63139,56.48951 58.63121,57.05089 C60.49223,58.36778 65.1876,58.36778 67.04861,57.05089" stroke="#111111" stroke-width="0.24" fill="none" />
  <path d="M63.29349,35.00605 L55.7355,27.51088" stroke="#111111" stroke-width="0.24" fill="none" />
  <path d="M44.78773,68.1443 L44.96206,67.90131" stroke="#111111" stroke-width="0.24" fill="none" />
  <path d="M58.75747,40.11165 C56.54498,41.15387 56.54498,43.78342 58.75747,44.82565 C60.56266,46.10303 65.11717,46.10303 66.92235,44.82565" stroke="#111111" stroke-width="0.24" fill="none" />
  <path d="M58.63121,40.03875 C57.63139,40.60014 56.87195,41.51024 56.88791,42.46865" stroke="#111111" stroke-width="0.24" fill="none" />
  <path d="M43.77166,66.44337 L43.946,66.68637 C44.1321,66.81805 44.60163,66.81805 44.78773,66.68637" stroke="#111111" stroke-width="0.24" fill="none" />
  <path d="M63.33833,35.09765 L63.16215,35.30306" stroke="#111111" stroke-width="0.24" fill="none" />
  <path d="M55.60409,60.44154 C55.41877,60.57247 54.95206,60.57358 54.76476,60.4429" stroke="#111111" stroke-width="0.24" fill="none" />
  <path d="M85.36561,77.28069 L85.36561,78.73862" stroke="#111111" stroke-width="0.24" fill="none" />
  <path d="M84.34956,77.5237 L55.18327,60.68454" stroke="#111111" stroke-width="0.24" fill="none" />
  <path d="M54.76238,61.89946 C54.94848,62.03115 55.41802,62.03115 55.60412,61.89946" stroke="#111111" stroke-width="0.24" fill="none" />
  <path d="M43.77166,67.90131 L43.77166,66.44337" stroke="#111111" stroke-width="0.24" fill="none" />
  <path d="M63.33833,35.09765 L63.41798,36.16587" stroke="#111111" stroke-width="0.24" fill="none" />
  <path d="M85.36561,77.28069 L85.19128,77.0377" stroke="#111111" stroke-width="0.24" fill="none" />
  <path d="M56.88791,54.621 L56.88791,42.46865" stroke="#111111" stroke-width="0.24" fill="none" />
  <path d="M68.79192,42.46865 C68.80788,41.51024 68.04844,40.60014 67.04861,40.03875 C65.1876,38.72187 60.49223,38.72187 58.63121,40.03875" stroke="#111111" stroke-width="0.24" fill="none" />
  <path d="M68.79192,42.46865 L68.79192,54.621" stroke="#111111" stroke-width="0.24" fill="none" />
  <path d="M58.75747,40.11165 C60.56266,38.83427 65.11717,38.83427 66.92235,40.11165 C67.89218,40.65619 68.62884,41.53899 68.61335,42.46865" stroke="#111111" stroke-width="0.24" fill="none" />
  <path d="M55.77845,29.89563 L55.77845,60.19854" stroke="#111111" stroke-width="0.24" fill="none" />
  <path d="M54.58805,60.19854 L54.58805,27.63796" stroke="#111111" stroke-width="0.24" fill="none" />
  <path d="M84.17521,78.73862 L84.34953,78.98161 C84.53564,79.1133 85.00517,79.1133 85.19128,78.98161 L85.36561,78.73862" stroke="#111111" stroke-width="0.24" fill="none" />
  <path d="M55.18327,61.65649 L55.18327,60.68454" stroke="#111111" stroke-width="0.24" fill="none" />
  <path d="M55.74281,27.52083 L55.60412,27.39497 C55.41802,27.26328 54.94848,27.26328 54.76238,27.39497 L54.58805,27.63796 L62.19742,35.27429" stroke="#111111" stroke-width="0.24" fill="none" />
  <path d="M63.16215,35.30306 C62.97508,35.41402 62.50656,35.44037 62.32223,35.3503" stroke="#111111" stroke-width="0.24" fill="none" />
  <path d="M63.24181,36.37136 C63.05473,36.4823 62.5862,36.5086 62.40188,36.4185" stroke="#111111" stroke-width="0.24" fill="none" />
  <path d="M66.77831,45.04516 L67.04861,44.89854 C68.04844,44.33716 68.80788,43.42706 68.79192,42.46865 C68.62884,43.39831 67.89218,44.28111 66.92235,44.82565" stroke="#111111" stroke-width="0.24" fill="none" />
  <path d="M67.04861,57.05089 C68.04844,56.48951 68.80788,55.57941 68.79192,54.621" stroke="#111111" stroke-width="0.24" fill="none" />
  <path d="M44.78776,66.68639 L55.18327,60.68454" stroke="#111111" stroke-width="0.24" fill="none" />
  <path d="M84.34953,77.52368 C84.53564,77.65536 85.00517,77.65536 85.19128,77.52368 L85.36561,77.28069" stroke="#111111" stroke-width="0.24" fill="none" />
  <path d="M44.96206,67.55768 L44.96206,67.90131" stroke="#111111" stroke-width="0.24" fill="none" />
  <path d="M54.58829,60.0561 L43.94602,66.20042" stroke="#111111" stroke-width="0.24" fill="none" />
  <path d="M55.77847,60.05622 L85.1913,77.03772" stroke="#111111" stroke-width="0.24" fill="none" />
  <path d="M63.41798,36.16587 L63.24181,36.37136" stroke="#111111" stroke-width="0.24" fill="none" />
  <path d="M84.17521,78.73862 L84.17521,78.39485" stroke="#111111" stroke-width="0.24" fill="none" />
  <path d="M54.76239,60.44153 L54.58805,60.19854" stroke="#111111" stroke-width="0.24" fill="none" />
  <path d="M55.60409,60.44154 L55.77843,60.19854" stroke="#111111" stroke-width="0.24" fill="none" />
  <path d="M43.946,66.20039 L43.77166,66.44337" stroke="#111111" stroke-width="0.24" fill="none" />
  <path d="M43.77166,67.90131 L43.946,68.1443 C44.1321,68.27599 44.60163,68.27599 44.78773,68.1443" stroke="#111111" stroke-width="0.24" fill="none" />
  <path d="M58.63121,40.03875 C60.49223,38.72187 65.1876,38.72187 67.04861,40.03875 C68.04844,40.60014 68.80788,41.51024 68.79192,42.46865 L68.79192,54.621 C68.80788,55.57941 68.04844,56.48951 67.04861,57.05089 C65.1876,58.36778 60.49223,58.36778 58.63121,57.05089 C57.63139,56.48951 56.87195,55.57941 56.88791,54.621 L56.88791,42.46865 C56.87195,41.51024 57.63139,40.60014 58.63121,40.03875 z" stroke="#000000" stroke-width="0.24" fill="none" />
  <path d="M43.77166,66.44337 L43.946,66.20039" stroke="#000000" stroke-width="0.24" fill="none" />
  <path d="M54.58805,27.63796 L54.76238,27.39497 C54.94848,27.26328 55.41802,27.26328 55.60412,27.39497" stroke="#000000" stroke-width="0.24" fill="none" />
  <path d="M63.41798,36.16587 L63.24181,36.37136 L62.83991,36.47055 L62.40188,36.4185" stroke="#000000" stroke-width="0.24" fill="none" />
  <path d="M85.19128,77.0377 L85.36561,77.28069" stroke="#000000" stroke-width="0.24" fill="none" />
  <path d="M62.83994,36.47057 L62.83994,43.19764" stroke="#000000" stroke-width="0.24" fill="none" />
  <path d="M44.78776,67.65835 L55.18327,61.65649" stroke="#000000" stroke-width="0.24" fill="none" />
  <path d="M84.34956,78.49566 L55.18327,61.65649" stroke="#000000" stroke-width="0.24" fill="none" />
  <path d="M54.7205,28.84647 L62.27465,36.34098" stroke="#000000" stroke-width="0.24" fill="none" />
  <path d="M84.17523,78.73865 L84.17523,78.39501 L55.60414,61.89949" stroke="#000000" stroke-width="0.24" fill="none" />
  <path d="M54.7624,61.89949 L44.96209,67.5577 L44.96209,67.90134" stroke="#000000" stroke-width="0.24" fill="none" />
  <path d="M43.77169,67.90134 L43.77169,66.44341 L54.58807,60.05622 L54.58807,27.63798" stroke="#000000" stroke-width="0.24" fill="none" />
  <path d="M55.73786,27.51322 L63.29349,35.00605 L63.41801,36.1659" stroke="#000000" stroke-width="0.24" fill="none" />
  <path d="M62.27465,36.34098 L55.77847,29.89609 L55.77847,60.05622 L85.1913,77.03772 L85.36563,78.73865" stroke="#000000" stroke-width="0.24" fill="none" />
</svg>