<?xml version="1.0" encoding="utf-8" standalone="no"?>
<!DOCTYPE svg PUBLIC "-//W3C//DTD SVG 1.1//EN" "http://www.w3.org/Graphics/SVG/1.1/DTD/svg11.dtd">
<svg version="1.1" width="120pt" height="120pt" viewBox="0 0 120 120" overflow="visible" xmlns="http://www.w3.org/2000/svg">
  <path d="M70.50608,40.03875 C71.50591,40.60014 72.26535,41.51024 72.24938,42.46865 L72.24938,54.621 C72.26535,55.57941 71.50591,56.48951 70.50608,57.05089 C68.64507,58.36778 63.9497,58.36778 62.08868,57.05089 C61.08886,56.48951 60.32942,55.57941 60.34538,54.621 L60.34538,42.46865 C60.32942,41.51024 61.08886,40.60014 62.08868,40.03875 C63.9497,38.72187 68.64507,38.72187 70.50608,40.03875 z M62.21495,44.82565 L62.89534,45.16177 C64.68708,46.00535 67.90746,46.00539 69.69927,45.16183 L70.37982,44.82565 C72.59232,43.78342 72.59232,41.15387 70.37982,40.11165 C68.57464,38.83427 64.02013,38.83427 62.21495,40.11165 C61.24512,40.65619 60.50846,41.53899 60.52394,42.46865 C60.50846,43.39831 61.24512,44.28111 62.21495,44.82565 z" stroke="Black" stroke-width="0" fill="#EEE3C3" fill-opacity="1" />
  <path d="M62.21495,44.82565 C61.24512,44.28111 60.50846,43.39831 60.52394,42.46865 C60.50846,41.53899 61.24512,40.65619 62.21495,40.11165 C64.02013,38.83427 68.57464,38.83427 70.37982,40.11165 C72.59232,41.15387 72.59232,43.78342 70.37982,44.82565 L69.69927,45.16183 C67.90746,46.00539 64.68708,46.00535 62.89534,45.16177 z" stroke="Black" stroke-width="0" fill="#FFE28A" fill-opacity="1" />
  <path d="M66.81506,35.3503 C66.63074,35.44037 66.16222,35.41402 65.97514,35.30306 L65.79865,35.10473 L73.39946,27.5132 C73.71928,27.26328 74.18882,27.26328 74.37492,27.39497 L74.54925,27.63796 L66.9399,35.27427" stroke="Black" stroke-width="0" fill="#555555" fill-opacity="1" />
  <path d="M44.78776,77.52368 C44.60166,77.65536 44.13212,77.65536 43.94602,77.52368 L43.77189,77.28958 L43.94602,77.0377 L73.35885,60.05619 L73.5332,60.44154 C73.71852,60.57247 74.18523,60.57358 74.37254,60.4429 L74.54925,60.19854 L85.1913,66.20039 L85.36563,66.44337 L85.1913,66.68637 C85.0052,66.81805 84.53567,66.81805 84.34956,66.68637 L73.95405,60.68451 z" stroke="Black" stroke-width="0" fill="#555555" fill-opacity="1" />
  <path d="M73.95405,61.65647 L74.37492,61.89946 C74.18882,62.03115 73.71928,62.03115 73.53318,61.89946 z" stroke="Black" stroke-width="0" fill="#555555" fill-opacity="1" />
  <path d="M44.96209,78.39499 L44.96209,78.73862 L44.78776,78.98161 C44.60166,79.1133 44.13212,79.1133 43.94602,78.98161 L43.77169,78.73862 L43.77184,77.28958 L43.94602,77.52368 C44.13212,77.65536 44.60166,77.65536 44.78776,77.52368 L73.95405,60.68451 L84.34956,66.68637 C84.53567,66.81805 85.0052,66.81805 85.1913,66.68637 L85.36549,66.45227 L85.36563,67.90131 L85.1913,68.1443 C85.0052,68.27599 84.53567,68.27599 84.34956,68.1443 L84.17523,67.90131 L84.17523,67.55768 L73.95405,61.65647 z" stroke="Black" stroke-width="0" fill="#777777" fill-opacity="1" />
  <path d="M66.9399,35.27427 L74.49759,27.7794 L74.54925,60.19854 L74.3749,60.44154 C74.18523,60.57358 73.71852,60.57247 73.5332,60.44154 L73.35886,60.19854 L73.35885,29.89607 L66.86267,36.34096 L66.29739,36.47055 L65.89549,36.37136 L65.71931,36.16587 L65.79855,35.10472 L65.97514,35.30306 C66.16222,35.41402 66.63074,35.44037 66.81506,35.3503" stroke="Black" stroke-width="0" fill="#777777" fill-opacity="1" />
  <path d="M72.24938,42.46865 C72.26535,43.42706 71.50591,44.33716 70.50608,44.89854 C68.72931,46.13527 64.34119,46.24854 62.35898,45.04516 L62.08868,44.89854 C61.08886,44.33716 60.32942,43.42706 60.34538,42.46865" stroke="#000000" stroke-width="0.24" fill="none" />
  <path d="M65.59343,43.60408 L62.89535,45.16182" stroke="#000000" stroke-width="0.1" fill="none" />
  <path d="M65.59343,42.7912 L62.21497,40.84064" stroke="#000000" stroke-width="0.1" fill="none" />
  <path d="M72.24938,51.58291 C72.26535,52.54132 71.50591,53.45142 70.50608,54.01281 C68.64507,55.32969 63.9497,55.32969 62.08868,54.01281 C61.08886,53.45142 60.32942,52.54132 60.34538,51.58291" stroke="#000000" stroke-width="0.24" fill="none" />
  <path d="M70.37984,40.84064 L67.00138,42.7912" stroke="#000000" stroke-width="0.1" fill="none" />
  <path d="M72.24938,48.54459 C72.26546,49.50308 71.50599,50.41329 70.50608,50.97472 C68.64507,52.29161 63.9497,52.29161 62.08868,50.97472 C61.08881,50.41331 60.32935,49.50314 60.34538,48.54468" stroke="#000000" stroke-width="0.24" fill="none" />
  <path d="M67.00136,42.79118 C66.69007,42.5709 65.90469,42.5709 65.59341,42.79118 C65.21188,42.9709 65.21188,43.42434 65.59341,43.60406 C65.90469,43.82433 66.69007,43.82433 67.00136,43.60406 C67.38288,43.42434 67.38288,42.9709 67.00136,42.79118 z" stroke="#000000" stroke-width="0.1" fill="none" />
  <path d="M72.24938,45.50658 C72.26543,46.46505 71.50596,47.37522 70.50608,47.93663 C68.64507,49.25352 63.9497,49.25352 62.08868,47.93663 C61.08884,47.37524 60.32939,46.4651 60.34538,45.50667" stroke="#000000" stroke-width="0.24" fill="none" />
  <path d="M69.69922,45.16168 L67.00138,43.60408" stroke="#000000" stroke-width="0.1" fill="none" />
  <path d="M73.39449,27.52083 L73.53318,27.39497 C73.71928,27.26328 74.18882,27.26328 74.37492,27.39497 L74.54925,27.63796" stroke="#111111" stroke-width="0.24" fill="none" />
  <path d="M84.34959,66.68639 L73.95407,60.68454" stroke="#111111" stroke-width="0.24" fill="none" />
  <path d="M44.96209,78.73862 L44.96209,78.39485" stroke="#111111" stroke-width="0.24" fill="none" />
  <path d="M84.17523,67.55768 L84.17523,67.90131" stroke="#111111" stroke-width="0.24" fill="none" />
  <path d="M74.54906,60.0561 L85.19133,66.20042" stroke="#111111" stroke-width="0.24" fill="none" />
  <path d="M72.24938,54.621 L72.24938,42.46865" stroke="#111111" stroke-width="0.24" fill="none" />
  <path d="M60.34538,42.46865 C60.32942,41.51024 61.08886,40.60014 62.08868,40.03875 C63.9497,38.72187 68.64507,38.72187 70.50608,40.03875" stroke="#111111" stroke-width="0.24" fill="none" />
  <path d="M60.34538,42.46865 L60.34538,54.621" stroke="#111111" stroke-width="0.24" fill="none" />
  <path d="M70.37982,40.11165 C72.59232,41.15387 72.59232,43.78342 70.37982,44.82565 C68.57464,46.10303 64.02013,46.10303 62.21495,44.82565" stroke="#111111" stroke-width="0.24" fill="none" />
  <path d="M70.37982,40.11165 C68.57464,38.83427 64.02013,38.83427 62.21495,40.11165 C61.24512,40.65619 60.50846,41.53899 60.52394,42.46865" stroke="#111111" stroke-width="0.24" fill="none" />
  <path d="M73.35885,29.89563 L73.35885,60.19854" stroke="#111111" stroke-width="0.24" fill="none" />
  <path d="M74.54925,60.19854 L74.54925,27.63796" stroke="#111111" stroke-width="0.24" fill="none" />
  <path d="M44.96209,78.73862 L44.78776,78.98161 C44.60166,79.1133 44.13212,79.1133 43.94602,78.98161 L43.77169,78.73862" stroke="#111111" stroke-width="0.24" fill="none" />
  <path d="M73.95407,61.65649 L73.95407,60.68454" stroke="#111111" stroke-width="0.24" fill="none" />
  <path d="M84.34956,68.1443 L84.17523,67.90131" stroke="#111111" stroke-width="0.24" fill="none" />
  <path d="M74.49762,27.77942 L66.93993,35.27429" stroke="#111111" stroke-width="0.24" fill="none" />
  <path d="M65.84386,35.00605 L73.40185,27.51088" stroke="#111111" stroke-width="0.24" fill="none" />
  <path d="M65.97514,35.30306 C66.16222,35.41402 66.63074,35.44037 66.81506,35.3503" stroke="#111111" stroke-width="0.24" fill="none" />
  <path d="M65.89549,36.37136 C66.08257,36.4823 66.55109,36.5086 66.73542,36.4185" stroke="#111111" stroke-width="0.24" fill="none" />
  <path d="M60.52394,42.46865 C60.50846,43.39831 61.24512,44.28111 62.21495,44.82565" stroke="#111111" stroke-width="0.24" fill="none" />
  <path d="M72.24938,54.621 C72.26535,55.57941 71.50591,56.48951 70.50608,57.05089 C68.64507,58.36778 63.9497,58.36778 62.08868,57.05089" stroke="#111111" stroke-width="0.24" fill="none" />
  <path d="M70.50608,40.03875 C71.50591,40.60014 72.26535,41.51024 72.24938,42.46865" stroke="#111111" stroke-width="0.24" fill="none" />
  <path d="M62.08868,57.05089 C61.08886,56.48951 60.32942,55.57941 60.34538,54.621" stroke="#111111" stroke-width="0.24" fill="none" />
  <path d="M85.36563,66.44337 L85.1913,66.68637 C85.0052,66.81805 84.53567,66.81805 84.34956,66.68637" stroke="#111111" stroke-width="0.24" fill="none" />
  <path d="M65.79897,35.09765 L65.97514,35.30306" stroke="#111111" stroke-width="0.24" fill="none" />
  <path d="M73.5332,60.44154 C73.71852,60.57247 74.18523,60.57358 74.37254,60.4429" stroke="#111111" stroke-width="0.24" fill="none" />
  <path d="M44.78776,77.52368 C44.60166,77.65536 44.13212,77.65536 43.94602,77.52368 L43.77169,77.28069" stroke="#111111" stroke-width="0.24" fill="none" />
  <path d="M44.78778,77.5237 L73.95407,60.68454" stroke="#111111" stroke-width="0.24" fill="none" />
  <path d="M74.37492,61.89946 C74.18882,62.03115 73.71928,62.03115 73.53318,61.89946" stroke="#111111" stroke-width="0.24" fill="none" />
  <path d="M73.35887,60.05622 L43.94604,77.03772" stroke="#111111" stroke-width="0.24" fill="none" />
  <path d="M85.36563,67.90131 L85.36563,66.44337" stroke="#111111" stroke-width="0.24" fill="none" />
  <path d="M65.71931,36.16587 L65.89549,36.37136" stroke="#111111" stroke-width="0.24" fill="none" />
  <path d="M65.79897,35.09765 L65.71931,36.16587" stroke="#111111" stroke-width="0.24" fill="none" />
  <path d="M43.77169,77.28069 L43.94602,77.0377 L43.77169,78.73862" stroke="#111111" stroke-width="0.24" fill="none" />
  <path d="M74.37491,60.44153 L74.54925,60.19854" stroke="#111111" stroke-width="0.24" fill="none" />
  <path d="M73.5332,60.44154 L73.35886,60.19854" stroke="#111111" stroke-width="0.24" fill="none" />
  <path d="M85.1913,66.20039 L85.36563,66.44337" stroke="#111111" stroke-width="0.24" fill="none" />
  <path d="M85.36563,67.90131 L85.1913,68.1443 C85.0052,68.27599 84.53567,68.27599 84.34956,68.1443" stroke="#111111" stroke-width="0.24" fill="none" />
  <path d="M70.50608,40.03875 C68.64507,38.72187 63.9497,38.72187 62.08868,40.03875 C61.08886,40.60014 60.32942,41.51024 60.34538,42.46865 L60.34538,54.621 C60.32942,55.57941 61.08886,56.48951 62.08868,57.05089 C63.9497,58.36778 68.64507,58.36778 70.50608,57.05089 C71.50591,56.48951 72.26535,55.57941 72.24938,54.621 L72.24938,42.46865 C72.26535,41.51024 71.50591,40.60014 70.50608,40.03875 z" stroke="#000000" stroke-width="0.24" fill="none" />
  <path d="M85.36563,66.44337 L85.1913,66.20039" stroke="#000000" stroke-width="0.24" fill="none" />
  <path d="M74.54925,27.63796 L74.37492,27.39497 C74.18882,27.26328 73.71928,27.26328 73.53318,27.39497" stroke="#000000" stroke-width="0.24" fill="none" />
  <path d="M65.71931,36.16587 L65.89549,36.37136 L66.29739,36.47055 L66.73542,36.4185" stroke="#000000" stroke-width="0.24" fill="none" />
  <path d="M43.94602,77.0377 L43.77169,77.28069" stroke="#000000" stroke-width="0.24" fill="none" />
  <path d="M66.29741,36.47057 L66.29741,43.19764" stroke="#000000" stroke-width="0.1" fill="none" />
  <path d="M84.34959,67.65835 L73.95407,61.65649" stroke="#000000" stroke-width="0.24" fill="none" />
  <path d="M44.78778,78.49566 L73.95407,61.65649" stroke="#000000" stroke-width="0.24" fill="none" />
  <path d="M74.41685,28.84647 L66.86269,36.34098" stroke="#000000" stroke-width="0.24" fill="none" />
  <path d="M44.96211,78.73865 L44.96211,78.39501 L73.5332,61.89949" stroke="#000000" stroke-width="0.24" fill="none" />
  <path d="M74.37494,61.89949 L84.17525,67.5577 L84.17525,67.90134" stroke="#000000" stroke-width="0.24" fill="none" />
  <path d="M85.36565,67.90134 L85.36565,66.44341 L74.54927,60.05622 L74.54927,27.63798" stroke="#000000" stroke-width="0.24" fill="none" />
  <path d="M73.39948,27.51322 L65.84364,35.00884 L65.71934,36.1659" stroke="#000000" stroke-width="0.24" fill="none" />
  <path d="M66.86269,36.34098 L73.35887,29.89609 L73.35887,60.05622 L43.94604,77.03772 L43.77172,78.73865" stroke="#000000" stroke-width="0.24" fill="none" />
</svg>