<?xml version="1.0" encoding="utf-8" standalone="no"?>
<!DOCTYPE svg PUBLIC "-//W3C//DTD SVG 1.1//EN" "http://www.w3.org/Graphics/SVG/1.1/DTD/svg11.dtd">
<svg version="1.1" width="120pt" height="120pt" viewBox="0 0 120 120" overflow="visible" xmlns="http://www.w3.org/2000/svg">
  <path d="M61.66868,42.38234 L59.40779,46.29049 C58.5813,45.08201 59.33963,43.56162 60.76068,42.80956 z" stroke="Black" stroke-width="0" fill="#FFE28A" fill-opacity="1" />
  <path d="M60.76068,47.52356 L60.57979,47.41427 L62.30583,44.43062 L63.7751,41.89081 C65.70335,41.65878 67.78609,42.1145 68.92555,42.80956 C69.89539,43.3541 70.63204,44.2369 70.61655,45.16656 C70.63204,46.09621 69.89539,46.97902 68.92555,47.52356 L68.24506,47.85972 C66.45326,48.70329 63.23285,48.70327 61.44109,47.85969 z" stroke="Black" stroke-width="0" fill="#FFE28A" fill-opacity="1" />
  <path d="M69.05182,42.73666 C70.05164,43.29805 70.81108,44.20815 70.79511,45.16656 L70.79511,48.20457 L70.79511,51.24273 L70.79511,54.28082 L70.79511,57.31891 C70.81108,58.27732 70.05164,59.18742 69.05182,59.7488 C67.1908,61.06569 62.49543,61.06569 60.63441,59.7488 C59.63459,59.18742 58.87515,58.27732 58.89112,57.31891 L58.89137,54.3253 L58.89137,51.28721 L58.89112,50.33335 L59.35397,49.53325 L60.51534,47.5257 L60.76068,47.52356 L61.44109,47.85969 C63.23285,48.70327 66.45326,48.70329 68.24506,47.85972 L68.92555,47.52356 C69.89539,46.97902 70.63204,46.09621 70.61655,45.16656 C70.63204,44.2369 69.89539,43.3541 68.92555,42.80956 C67.78609,42.1145 65.70335,41.65878 63.77511,41.89079 L64.84312,41.73017 C66.50313,41.72095 68.07948,42.15942 69.05182,42.73666 z" stroke="Black" stroke-width="0" fill="#EEE3C3" fill-opacity="1" />
  <path d="M58.89112,47.18369 L58.89112,45.16656 C58.87515,44.20815 59.63459,43.29805 60.63441,42.73666 L61.75788,42.22795 L60.76068,42.80956 C59.33963,43.56162 58.5813,45.08201 59.40779,46.29049 z" stroke="Black" stroke-width="0" fill="#EEE3C3" fill-opacity="1" />
  <path d="M57.78165,82.94238 L86.35274,66.44685 C86.53884,66.31516 87.00838,66.31516 87.19448,66.44685 L87.36881,66.68984 L87.19448,66.93283 L57.62579,84.00407 L57.78164,83.772 z" stroke="Black" stroke-width="0" fill="#555555" fill-opacity="1" />
  <path d="M65.29601,38.27485 L57.73527,51.34441 C57.42122,51.58609 56.95168,51.58609 56.76558,51.45441 L56.59144,51.22366 L64.20059,38.00564 L64.32544,37.86726 C64.50976,37.69824 64.97828,37.6743 65.16535,37.82433 L65.34058,38.08505 z" stroke="Black" stroke-width="0" fill="#555555" fill-opacity="1" />
  <path d="M46.79094,77.28416 L56.59119,82.94231 L56.59125,83.772 L56.74711,84.00407 L45.9492,77.77014 L45.77497,77.53604 L45.9492,77.28416 C46.1353,77.15247 46.60484,77.15247 46.79094,77.28416 z" stroke="Black" stroke-width="0" fill="#555555" fill-opacity="1" />
  <path d="M65.42023,38.93079 L65.37594,39.12012 L64.84312,40.04462 L63.83951,41.77948 L62.30583,44.43062 L60.5798,47.41426 L59.35397,49.53325 L58.89112,50.33335 L57.78165,52.25118 L57.78164,83.772 L57.62579,84.00407 L87.19448,66.93283 L87.36871,66.69873 L87.36881,68.14777 L87.19448,68.39076 C87.00838,68.52245 86.53884,68.52245 86.35274,68.39076 L57.78165,84.88629 L57.78165,85.22993 L57.60732,85.47292 C57.42122,85.60461 56.95168,85.60461 56.76558,85.47292 L56.59125,85.22993 L56.59125,84.88629 L46.79094,79.22807 C46.60484,79.35976 46.1353,79.35976 45.9492,79.22807 L45.77487,78.98508 L45.77497,77.53604 L45.9492,77.77014 L56.74711,84.00407 L56.59125,83.772 L56.59144,51.22366 L56.68078,51.39267 C56.95168,51.58609 57.42122,51.58609 57.60732,51.45441 L65.29601,38.27485 z" stroke="Black" stroke-width="0" fill="#777777" fill-opacity="1" />
  <path d="M57.78165,83.772 L57.78165,52.25118" stroke="#000000" stroke-width="0.24" fill="none" />
  <path d="M59.3184,46.44508 C59.04279,46.04986 58.89001,45.60885 58.89112,45.16656" stroke="#000000" stroke-width="0.24" fill="none" />
  <path d="M64.84312,41.73017 C66.50313,41.72095 68.07948,42.15942 69.05182,42.73666 C70.05164,43.29805 70.81108,44.20815 70.79511,45.16656 L70.79514,48.20459" stroke="#000000" stroke-width="0.24" fill="none" />
  <path d="M63.83936,41.77939 C65.80289,41.56398 67.89491,42.033 69.05182,42.73666" stroke="#000000" stroke-width="0.24" fill="none" />
  <path d="M70.79489,51.28724 L70.79514,54.28085" stroke="#000000" stroke-width="0.24" fill="none" />
  <path d="M70.79511,45.16656 C70.81108,46.12497 70.05164,47.03507 69.05182,47.59645 C67.27504,48.83318 62.88692,48.94645 60.90472,47.74307" stroke="#000000" stroke-width="0.24" fill="none" />
  <path d="M70.79489,54.32533 L70.79514,57.31893 C70.81108,58.27732 70.05164,59.18742 69.05182,59.7488 C67.1908,61.06569 62.49543,61.06569 60.63441,59.7488" stroke="#000000" stroke-width="0.24" fill="none" />
  <path d="M58.89114,57.31893 L58.89139,54.32533 L58.89139,51.28724" stroke="#000000" stroke-width="0.24" fill="none" />
  <path d="M57.78165,52.25118 L65.37743,39.12099 L65.42023,38.93079" stroke="#000000" stroke-width="0.24" fill="none" />
  <path d="M58.89114,50.33337 L57.78167,52.25121 L57.78167,82.9424 L86.35276,66.44688" stroke="#000000" stroke-width="0.24" fill="none" />
  <path d="M87.19448,66.44685 L87.36881,66.68984 L87.36884,68.1478" stroke="#000000" stroke-width="0.24" fill="none" />
  <path d="M86.35276,68.39079 L57.78168,84.88631 L57.78167,85.22995" stroke="#000000" stroke-width="0.24" fill="none" />
  <path d="M56.59127,85.22995 L56.59127,84.88631" stroke="#000000" stroke-width="0.24" fill="none" />
  <path d="M45.77489,78.98511 L45.77489,77.52718 L45.9492,77.28416 C46.1353,77.15247 46.60484,77.15247 46.79094,77.28416 L56.59122,82.94233 L56.59127,51.21144 L56.59125,83.772" stroke="#000000" stroke-width="0.24" fill="none" />
  <path d="M56.64293,51.07 L58.89114,47.18371 L58.89114,45.16658" stroke="#000000" stroke-width="0.24" fill="none" />
  <path d="M56.59127,84.88631 L46.79096,79.2281" stroke="#000000" stroke-width="0.24" fill="none" />
  <path d="M58.89112,45.16656 C58.87515,44.20815 59.63459,43.29805 60.63441,42.73666" stroke="#000000" stroke-width="0.24" fill="none" />
  <path d="M60.90472,47.74307 L60.63441,47.59645" stroke="#000000" stroke-width="0.24" fill="none" />
  <path d="M60.63441,42.73666 L61.75788,42.22795 L64.19997,38.00677" stroke="#000000" stroke-width="0.24" fill="none" />
  <path d="M86.35274,66.44685 C86.53884,66.31516 87.00838,66.31516 87.19448,66.44685" stroke="#000000" stroke-width="0.24" fill="none" />
  <path d="M64.19983,38.00544 L64.32544,37.86726 C64.50976,37.69824 64.97828,37.6743 65.16535,37.82433" stroke="#000000" stroke-width="0.24" fill="none" />
  <path d="M58.89114,51.24276 L58.89114,50.33337" stroke="#000000" stroke-width="0.24" fill="none" />
  <path d="M65.16535,37.82433 L65.34058,38.08505" stroke="#000000" stroke-width="0.24" fill="none" />
  <path d="M56.64293,51.07 L64.20062,38.00566" stroke="#000000" stroke-width="0.24" fill="none" />
  <path d="M65.34161,38.09706 L65.42025,38.93081" stroke="#000000" stroke-width="0.24" fill="none" />
  <path d="M60.63441,59.7488 C59.63459,59.18742 58.87515,58.27732 58.89112,57.31891" stroke="#000000" stroke-width="0.24" fill="none" />
  <path d="M65.42023,38.93079 L65.37594,39.12012 L64.84314,40.04465" stroke="#000000" stroke-width="0.24" fill="none" />
  <path d="M70.79489,48.24907 L70.79514,51.24276" stroke="#000000" stroke-width="0.24" fill="none" />
  <path d="M56.76558,84.98695 L45.94922,78.74212" stroke="#000000" stroke-width="0.24" fill="none" />
  <path d="M57.60737,84.98695 L87.1945,67.90481" stroke="#000000" stroke-width="0.24" fill="none" />
  <path d="M62.30563,44.43052 L64.13916,45.48911" stroke="#000000" stroke-width="0.1" fill="none" />
  <path d="M64.13914,46.30197 C64.45042,46.52224 65.23581,46.52224 65.54709,46.30197 C65.92861,46.12225 65.92861,45.66881 65.54709,45.48909 C65.23581,45.26881 64.45042,45.26881 64.13914,45.48909 C63.75762,45.66881 63.75762,46.12225 64.13914,46.30197 z" stroke="#000000" stroke-width="0.1" fill="none" />
  <path d="M70.79511,54.28082 C70.81108,55.23923 70.05164,56.14933 69.05182,56.71072 C67.1908,58.0276 62.49543,58.0276 60.63441,56.71072 C59.63459,56.14933 58.87515,55.23923 58.89112,54.28082" stroke="#000000" stroke-width="0.24" fill="none" />
  <path d="M70.79511,51.24273 C70.81108,52.20115 70.05164,53.11124 69.05182,53.67263 C67.1908,54.98952 62.49543,54.98952 60.63441,53.67263 C59.63459,53.11124 58.87515,52.20115 58.89112,51.24273" stroke="#000000" stroke-width="0.24" fill="none" />
  <path d="M64.84314,40.04465 L64.84314,45.89555" stroke="#000000" stroke-width="0.1" fill="none" />
  <path d="M70.79511,48.20457 C70.81112,49.163 70.05167,50.07314 69.05182,50.63454 C67.1908,51.95143 62.49543,51.95143 60.63441,50.63454 C60.12412,50.34072 59.66788,49.96677 59.35397,49.53325" stroke="#000000" stroke-width="0.24" fill="none" />
  <path d="M61.44111,47.85971 L64.13916,46.30199" stroke="#000000" stroke-width="0.1" fill="none" />
  <path d="M65.54712,45.48911 L68.92558,43.53855" stroke="#000000" stroke-width="0.1" fill="none" />
  <path d="M65.54712,46.30199 L68.24504,47.85964" stroke="#000000" stroke-width="0.1" fill="none" />
  <path d="M59.40776,46.29047 C58.58129,45.08201 59.33963,43.56162 60.76068,42.80956 L61.66868,42.38234" stroke="#111111" stroke-width="0.24" fill="none" />
  <path d="M87.36881,68.14777 L87.36881,66.68984" stroke="#111111" stroke-width="0.24" fill="none" />
  <path d="M65.16535,37.82433 C64.97828,37.6743 64.50976,37.69824 64.32544,37.86726 L64.19983,38.00544" stroke="#111111" stroke-width="0.24" fill="none" />
  <path d="M46.79096,77.28419 L56.59116,82.94233" stroke="#111111" stroke-width="0.24" fill="none" />
  <path d="M86.35274,66.44685 C86.53884,66.31516 87.00838,66.31516 87.19448,66.44685 L87.36881,66.68984" stroke="#111111" stroke-width="0.24" fill="none" />
  <path d="M86.35276,66.44688 L57.78168,82.9424" stroke="#111111" stroke-width="0.24" fill="none" />
  <path d="M58.89112,45.16656 C58.87515,44.20815 59.63459,43.29805 60.63441,42.73666 L61.7578,42.2279" stroke="#111111" stroke-width="0.24" fill="none" />
  <path d="M58.89112,45.16656 L58.89112,47.18369" stroke="#111111" stroke-width="0.24" fill="none" />
  <path d="M60.76068,47.52356 L60.57959,47.41415" stroke="#111111" stroke-width="0.24" fill="none" />
  <path d="M70.79511,57.31891 L70.79511,45.16656" stroke="#111111" stroke-width="0.24" fill="none" />
  <path d="M63.77507,41.89079 C65.70332,41.65878 67.78608,42.11449 68.92555,42.80956" stroke="#111111" stroke-width="0.24" fill="none" />
  <path d="M60.7607,43.53855 L60.9398,43.64196" stroke="#111111" stroke-width="0.24" fill="none" />
  <path d="M60.76068,47.52356 C62.56586,48.80094 67.12037,48.80094 68.92555,47.52356 C69.89539,46.97902 70.63204,46.09621 70.61655,45.16656" stroke="#111111" stroke-width="0.24" fill="none" />
  <path d="M58.89112,50.33335 L58.89112,57.31891" stroke="#111111" stroke-width="0.24" fill="none" />
  <path d="M45.77487,77.52715 L45.9492,77.28416 C46.1353,77.15247 46.60484,77.15247 46.79094,77.28416" stroke="#111111" stroke-width="0.24" fill="none" />
  <path d="M46.79094,79.22807 C46.60484,79.35976 46.1353,79.35976 45.9492,79.22807 L45.77487,78.98508" stroke="#111111" stroke-width="0.24" fill="none" />
  <path d="M70.61655,45.16656 C70.63204,44.2369 69.89539,43.3541 68.92555,42.80956" stroke="#111111" stroke-width="0.24" fill="none" />
  <path d="M70.79511,57.31891 C70.81108,58.27732 70.05164,59.18742 69.05182,59.7488 C67.1908,61.06569 62.49543,61.06569 60.63441,59.7488" stroke="#111111" stroke-width="0.24" fill="none" />
  <path d="M57.78165,85.22993 L57.60732,85.47292 C57.42122,85.60461 56.95168,85.60461 56.76558,85.47292 L56.59125,85.22993" stroke="#111111" stroke-width="0.24" fill="none" />
  <path d="M60.63441,59.7488 C59.63459,59.18742 58.87515,58.27732 58.89112,57.31891" stroke="#111111" stroke-width="0.24" fill="none" />
  <path d="M69.05182,42.73666 C70.05164,43.29805 70.81108,44.20815 70.79511,45.16656" stroke="#111111" stroke-width="0.24" fill="none" />
  <path d="M45.9492,77.77014 L45.77487,77.52715" stroke="#111111" stroke-width="0.24" fill="none" />
  <path d="M65.42023,38.93079 L65.34058,38.08505" stroke="#111111" stroke-width="0.24" fill="none" />
  <path d="M87.36881,66.68984 L87.19448,66.93283" stroke="#111111" stroke-width="0.24" fill="none" />
  <path d="M87.36881,68.14777 L87.19448,68.39076 C87.00838,68.52245 86.53884,68.52245 86.35274,68.39076" stroke="#111111" stroke-width="0.24" fill="none" />
  <path d="M56.76558,84.01499 L45.94922,77.77016" stroke="#111111" stroke-width="0.24" fill="none" />
  <path d="M57.60737,84.01499 L87.1945,66.93285" stroke="#111111" stroke-width="0.24" fill="none" />
  <path d="M65.29669,38.27368 L57.73529,51.34444" stroke="#111111" stroke-width="0.24" fill="none" />
  <path d="M65.29604,38.27486 L65.34058,38.08505" stroke="#111111" stroke-width="0.24" fill="none" />
  <path d="M56.59125,84.88617 L56.59125,85.22993" stroke="#111111" stroke-width="0.24" fill="none" />
  <path d="M45.77487,77.52715 L45.77487,78.98508" stroke="#111111" stroke-width="0.24" fill="none" />
  <path d="M56.59125,83.772 L56.76556,84.01497" stroke="#111111" stroke-width="0.24" fill="none" />
  <path d="M57.60732,51.45441 C57.42122,51.58609 56.95168,51.58609 56.76558,51.45441 L56.59125,51.21141" stroke="#111111" stroke-width="0.24" fill="none" />
  <path d="M57.78164,83.772 L57.60735,84.01497" stroke="#111111" stroke-width="0.24" fill="none" />
  <path d="M57.78165,85.22993 L57.78165,84.88616" stroke="#111111" stroke-width="0.24" fill="none" />
  <path d="M65.34058,38.08505 L65.16535,37.82433" stroke="#111111" stroke-width="0.24" fill="none" />
</svg>