<?xml version="1.0" encoding="utf-8" standalone="no"?>
<!DOCTYPE svg PUBLIC "-//W3C//DTD SVG 1.1//EN" "http://www.w3.org/Graphics/SVG/1.1/DTD/svg11.dtd">
<svg version="1.1" width="120pt" height="120pt" viewBox="0 0 120 120" overflow="visible" xmlns="http://www.w3.org/2000/svg">
  <path d="M61.10888,47.18369 L60.59221,46.29049 C61.4187,45.08201 60.66037,43.56162 59.23932,42.80956 L58.33132,42.38234 L59.36559,42.73666 C60.36541,43.29805 61.12485,44.20815 61.10888,45.16656 z" stroke="Black" stroke-width="0" fill="#EEE3C3" fill-opacity="1" />
  <path d="M59.23932,47.52356 L58.55891,47.85969 C56.76715,48.70327 53.54674,48.70329 51.75494,47.85972 L51.07444,47.52356 C50.10462,46.97902 49.36796,46.09621 49.38345,45.16656 C49.36796,44.2369 50.10462,43.3541 51.07444,42.80956 C52.21391,42.1145 54.29665,41.65878 56.22489,41.89079 L57.69417,44.43062 L59.4202,47.41426 z" stroke="Black" stroke-width="0" fill="#FFE28A" fill-opacity="1" />
  <path d="M58.33132,42.38234 L59.23932,42.80956 C60.66037,43.56162 61.4187,45.08201 60.59221,46.29049 z" stroke="Black" stroke-width="0" fill="#FFE28A" fill-opacity="1" />
  <path d="M50.94818,42.73666 C51.92053,42.15942 53.49687,41.72095 55.15688,41.73017 L56.16043,41.77937 C54.29665,41.65878 52.21391,42.1145 51.07444,42.80956 C50.10462,43.3541 49.36796,44.2369 49.38345,45.16656 C49.36796,46.09621 50.10462,46.97902 51.07444,47.52356 L51.75494,47.85972 C53.54674,48.70329 56.76715,48.70327 58.55891,47.85969 L59.23932,47.52356 L59.42021,47.41427 L60.64603,49.53325 L61.10888,50.33335 L61.10888,51.24273 L61.10888,54.28082 L61.10888,57.31891 C61.12485,58.27732 60.36541,59.18742 59.36559,59.7488 C57.50457,61.06569 52.8092,61.06569 50.94818,59.7488 C49.94836,59.18742 49.18892,58.27732 49.20488,57.31891 L49.20513,54.3253 L49.20513,51.28721 L49.20513,48.24905 L49.20513,45.21104 C49.18892,44.20815 49.94836,43.29805 50.94818,42.73666 z" stroke="Black" stroke-width="0" fill="#EEE3C3" fill-opacity="1" />
  <path d="M73.20906,77.28416 C73.39516,77.15247 73.8647,77.15247 74.0508,77.28416 L74.22514,77.52715 L74.0508,77.77014 L63.25289,84.00407 L63.40875,83.772 L63.40881,82.94231 z" stroke="Black" stroke-width="0" fill="#555555" fill-opacity="1" />
  <path d="M62.21835,82.94238 L62.21836,83.772 L62.37421,84.00407 L32.80552,66.93283 L32.63129,66.69873 L32.80552,66.44685 C32.99162,66.31516 33.46116,66.31516 33.64726,66.44685 z" stroke="Black" stroke-width="0" fill="#555555" fill-opacity="1" />
  <path d="M54.70329,38.27369 L54.65942,38.08505 L54.83464,37.82433 C55.02172,37.6743 55.49024,37.69824 55.67456,37.86726 L55.80017,38.00544 L63.35709,51.06998 L63.31922,51.39267 C63.04832,51.58609 62.57878,51.58609 62.39268,51.45441 z" stroke="Black" stroke-width="0" fill="#555555" fill-opacity="1" />
  <path d="M54.57978,38.93079 L54.65842,38.09704 L62.26473,51.34441 C62.57878,51.58609 63.04832,51.58609 63.23442,51.45441 L63.40856,51.22366 L63.40875,83.772 L63.25289,84.00407 L74.0508,77.77014 L74.22504,77.53604 L74.22514,78.98508 L74.0508,79.22807 C73.8647,79.35976 73.39516,79.35976 73.20906,79.22807 L63.40875,84.88629 L63.40875,85.22993 L63.23442,85.47292 C63.04832,85.60461 62.57878,85.60461 62.39268,85.47292 L62.21835,85.22993 L62.21835,84.88629 L33.64726,68.39076 C33.46116,68.52245 32.99162,68.52245 32.80552,68.39076 L32.63119,68.14777 L32.63129,66.69873 L32.80552,66.93283 L62.37421,84.00407 L62.21836,83.772 L62.21835,52.25118 L61.10888,50.33335 L60.64603,49.53325 L59.48466,47.5257 L57.69417,44.43062 L56.2249,41.89081 L55.15688,40.04462 L54.62257,39.12099 z" stroke="Black" stroke-width="0" fill="#777777" fill-opacity="1" />
  <path d="M54.62259,39.12101 L55.15691,40.04465" stroke="#000000" stroke-width="0.24" fill="none" />
  <path d="M63.40883,82.94233 L63.40877,51.21144" stroke="#000000" stroke-width="0.24" fill="none" />
  <path d="M55.80017,38.00544 L55.67456,37.86726" stroke="#000000" stroke-width="0.24" fill="none" />
  <path d="M54.65844,38.09706 L54.5798,38.93081" stroke="#000000" stroke-width="0.24" fill="none" />
  <path d="M61.10891,57.31893 L61.10866,54.32533" stroke="#000000" stroke-width="0.24" fill="none" />
  <path d="M73.20908,77.28419 L63.40883,82.94233" stroke="#000000" stroke-width="0.24" fill="none" />
  <path d="M59.09528,47.74307 L59.36559,47.59645" stroke="#000000" stroke-width="0.24" fill="none" />
  <path d="M59.36559,59.7488 C60.36541,59.18742 61.12485,58.27732 61.10888,57.31891" stroke="#000000" stroke-width="0.24" fill="none" />
  <path d="M56.16064,41.77939 C54.19711,41.56398 52.10509,42.033 50.94818,42.73666" stroke="#000000" stroke-width="0.24" fill="none" />
  <path d="M62.39268,84.98695 L32.80555,67.90481" stroke="#000000" stroke-width="0.24" fill="none" />
  <path d="M63.35712,51.07 L55.79943,38.00566" stroke="#000000" stroke-width="0.24" fill="none" />
  <path d="M74.0508,77.28416 C73.8647,77.15247 73.39516,77.15247 73.20906,77.28416" stroke="#000000" stroke-width="0.24" fill="none" />
  <path d="M50.94818,59.7488 C52.8092,61.06569 57.50457,61.06569 59.36559,59.7488" stroke="#000000" stroke-width="0.24" fill="none" />
  <path d="M49.20516,54.32533 L49.20491,57.31893" stroke="#000000" stroke-width="0.24" fill="none" />
  <path d="M58.24214,42.22797 L55.80007,38.00677" stroke="#000000" stroke-width="0.24" fill="none" />
  <path d="M49.20516,51.28724 L49.20491,54.28085" stroke="#000000" stroke-width="0.24" fill="none" />
  <path d="M63.40877,84.88631 L73.20908,79.2281" stroke="#000000" stroke-width="0.24" fill="none" />
  <path d="M49.20516,48.24907 L49.20491,51.24276" stroke="#000000" stroke-width="0.24" fill="none" />
  <path d="M59.36559,42.73666 L58.24212,42.22795" stroke="#000000" stroke-width="0.24" fill="none" />
  <path d="M49.20516,45.21106 L49.20491,48.20459" stroke="#000000" stroke-width="0.24" fill="none" />
  <path d="M63.40877,85.22995 L63.40877,84.88631" stroke="#000000" stroke-width="0.24" fill="none" />
  <path d="M62.21837,84.88631 L62.21837,85.22995" stroke="#000000" stroke-width="0.24" fill="none" />
  <path d="M61.10888,45.16656 C61.12485,44.20815 60.36541,43.29805 59.36559,42.73666" stroke="#000000" stroke-width="0.24" fill="none" />
  <path d="M50.94818,42.73666 C49.94836,43.29805 49.18892,44.20815 49.20488,45.16656" stroke="#000000" stroke-width="0.24" fill="none" />
  <path d="M55.15688,41.73017 C53.49687,41.72095 51.92053,42.15942 50.94818,42.73666" stroke="#000000" stroke-width="0.24" fill="none" />
  <path d="M33.64729,68.39079 L62.21837,84.88631" stroke="#000000" stroke-width="0.24" fill="none" />
  <path d="M54.57978,38.93079 L54.62407,39.12012" stroke="#000000" stroke-width="0.24" fill="none" />
  <path d="M54.83464,37.82433 L54.65942,38.08505" stroke="#000000" stroke-width="0.24" fill="none" />
  <path d="M62.21835,52.25118 L54.62257,39.12099 L54.57978,38.93079" stroke="#000000" stroke-width="0.24" fill="none" />
  <path d="M61.10891,47.18371 L61.10891,45.16658" stroke="#000000" stroke-width="0.24" fill="none" />
  <path d="M32.63121,66.68987 L32.63121,68.1478" stroke="#000000" stroke-width="0.24" fill="none" />
  <path d="M74.22516,78.98511 L74.22516,77.52718 L74.0508,77.28416" stroke="#000000" stroke-width="0.24" fill="none" />
  <path d="M32.80552,66.44685 L32.63119,66.68984" stroke="#000000" stroke-width="0.24" fill="none" />
  <path d="M33.64726,66.44685 C33.46116,66.31516 32.99162,66.31516 32.80552,66.44685" stroke="#000000" stroke-width="0.24" fill="none" />
  <path d="M49.20488,57.31891 C49.18892,58.27732 49.94836,59.18742 50.94818,59.7488" stroke="#000000" stroke-width="0.24" fill="none" />
  <path d="M49.20488,45.16656 C49.18892,46.12497 49.94836,47.03507 50.94818,47.59645 C52.72496,48.83318 57.11308,48.94645 59.09528,47.74307" stroke="#000000" stroke-width="0.24" fill="none" />
  <path d="M62.21835,83.772 L62.21835,52.25118" stroke="#000000" stroke-width="0.24" fill="none" />
  <path d="M62.21837,82.9424 L33.64729,66.44688" stroke="#000000" stroke-width="0.24" fill="none" />
  <path d="M63.35712,51.07 L61.10891,47.18371" stroke="#000000" stroke-width="0.24" fill="none" />
  <path d="M62.21837,52.25121 L62.21837,82.9424" stroke="#000000" stroke-width="0.24" fill="none" />
  <path d="M55.67456,37.86726 C55.49024,37.69824 55.02172,37.6743 54.83464,37.82433" stroke="#000000" stroke-width="0.24" fill="none" />
  <path d="M63.40875,51.21141 L63.40875,83.772" stroke="#000000" stroke-width="0.24" fill="none" />
  <path d="M60.6816,46.44508 C60.95721,46.04986 61.10999,45.60885 61.10888,45.16656" stroke="#000000" stroke-width="0.24" fill="none" />
  <path d="M63.23447,84.98695 L74.05083,78.74212" stroke="#000000" stroke-width="0.24" fill="none" />
  <path d="M61.10891,54.28085 L61.10866,51.28724" stroke="#000000" stroke-width="0.24" fill="none" />
  <path d="M61.10891,50.33337 L62.21837,52.25121" stroke="#000000" stroke-width="0.24" fill="none" />
  <path d="M54.45293,45.48911 L51.07447,43.53855" stroke="#000000" stroke-width="0.1" fill="none" />
  <path d="M54.45293,46.30199 L51.755,47.85964" stroke="#000000" stroke-width="0.1" fill="none" />
  <path d="M58.55893,47.85971 L55.86089,46.30199 C55.54958,46.52224 54.76419,46.52224 54.45291,46.30197 C54.07138,46.12225 54.07138,45.66881 54.45291,45.48909 C54.76419,45.26881 55.54958,45.26881 55.86086,45.48909 C56.24238,45.66881 56.24238,46.12225 55.86086,46.30197" stroke="#000000" stroke-width="0.1" fill="none" />
  <path d="M49.20488,54.28082 C49.18892,55.23923 49.94836,56.14933 50.94818,56.71072 C52.8092,58.0276 57.50457,58.0276 59.36559,56.71072 C60.36541,56.14933 61.12485,55.23923 61.10888,54.28082" stroke="#000000" stroke-width="0.24" fill="none" />
  <path d="M57.69442,44.43052 L55.86089,45.48911" stroke="#000000" stroke-width="0.1" fill="none" />
  <path d="M61.10891,51.24276 L61.10891,50.33337" stroke="#000000" stroke-width="0.24" fill="none" />
  <path d="M49.20488,48.20457 C49.18888,49.163 49.94833,50.07314 50.94818,50.63454 C52.8092,51.95143 57.50457,51.95143 59.36559,50.63454 C59.87588,50.34072 60.33212,49.96677 60.64603,49.53325" stroke="#000000" stroke-width="0.24" fill="none" />
  <path d="M49.20488,51.24273 C49.18892,52.20115 49.94836,53.11124 50.94818,53.67263 C52.8092,54.98952 57.50457,54.98952 59.36559,53.67263 C60.36541,53.11124 61.12485,52.20115 61.10888,51.24273" stroke="#000000" stroke-width="0.24" fill="none" />
  <path d="M55.15691,40.04465 L55.15691,45.89555" stroke="#000000" stroke-width="0.1" fill="none" />
  <path d="M62.21835,85.22993 L62.39268,85.47292 C62.57878,85.60461 63.04832,85.60461 63.23442,85.47292 L63.40875,85.22993" stroke="#111111" stroke-width="0.24" fill="none" />
  <path d="M62.39268,51.45441 C62.57878,51.58609 63.04832,51.58609 63.23442,51.45441 L63.40875,51.21141" stroke="#111111" stroke-width="0.24" fill="none" />
  <path d="M74.22514,77.52715 L74.0508,77.28416 C73.8647,77.15247 73.39516,77.15247 73.20906,77.28416" stroke="#111111" stroke-width="0.24" fill="none" />
  <path d="M59.23932,47.52356 C57.43414,48.80094 52.87963,48.80094 51.07444,47.52356 C50.10462,46.97902 49.36796,46.09621 49.38345,45.16656" stroke="#111111" stroke-width="0.24" fill="none" />
  <path d="M61.10888,50.33335 L61.10888,57.31891" stroke="#111111" stroke-width="0.24" fill="none" />
  <path d="M60.59224,46.29047 C61.41871,45.08201 60.66037,43.56162 59.23932,42.80956 L58.33132,42.38234" stroke="#111111" stroke-width="0.24" fill="none" />
  <path d="M32.63119,68.14777 L32.80552,68.39076 C32.99162,68.52245 33.46116,68.52245 33.64726,68.39076" stroke="#111111" stroke-width="0.24" fill="none" />
  <path d="M61.10888,45.16656 L61.10888,47.18369" stroke="#111111" stroke-width="0.24" fill="none" />
  <path d="M62.39268,84.01499 L32.80555,66.93285" stroke="#111111" stroke-width="0.24" fill="none" />
  <path d="M73.20906,79.22807 C73.39516,79.35976 73.8647,79.35976 74.0508,79.22807 L74.22514,78.98508" stroke="#111111" stroke-width="0.24" fill="none" />
  <path d="M54.65942,38.08505 L54.83464,37.82433" stroke="#111111" stroke-width="0.24" fill="none" />
  <path d="M63.40875,83.772 L63.23444,84.01497" stroke="#111111" stroke-width="0.24" fill="none" />
  <path d="M33.64729,66.44688 L62.21837,82.9424" stroke="#111111" stroke-width="0.24" fill="none" />
  <path d="M33.64726,66.44685 C33.46116,66.31516 32.99162,66.31516 32.80552,66.44685 L32.63119,66.68984" stroke="#111111" stroke-width="0.24" fill="none" />
  <path d="M73.20908,77.28419 L63.40889,82.94233" stroke="#111111" stroke-width="0.24" fill="none" />
  <path d="M54.83464,37.82433 C55.02172,37.6743 55.49024,37.69824 55.67456,37.86726 L55.80017,38.00544" stroke="#111111" stroke-width="0.24" fill="none" />
  <path d="M32.63119,68.14777 L32.63119,66.68984" stroke="#111111" stroke-width="0.24" fill="none" />
  <path d="M62.21835,85.22993 L62.21835,84.88616" stroke="#111111" stroke-width="0.24" fill="none" />
  <path d="M62.21836,83.772 L62.39265,84.01497" stroke="#111111" stroke-width="0.24" fill="none" />
  <path d="M74.22514,77.52715 L74.22514,78.98508" stroke="#111111" stroke-width="0.24" fill="none" />
  <path d="M63.40875,84.88617 L63.40875,85.22993" stroke="#111111" stroke-width="0.24" fill="none" />
  <path d="M63.23447,84.01499 L74.05083,77.77016" stroke="#111111" stroke-width="0.24" fill="none" />
  <path d="M32.63119,66.68984 L32.80552,66.93283" stroke="#111111" stroke-width="0.24" fill="none" />
  <path d="M50.94818,42.73666 C49.94836,43.29805 49.18892,44.20815 49.20488,45.16656" stroke="#111111" stroke-width="0.24" fill="none" />
  <path d="M59.36559,59.7488 C60.36541,59.18742 61.12485,58.27732 61.10888,57.31891" stroke="#111111" stroke-width="0.24" fill="none" />
  <path d="M49.20488,57.31891 C49.18892,58.27732 49.94836,59.18742 50.94818,59.7488 C52.8092,61.06569 57.50457,61.06569 59.36559,59.7488" stroke="#111111" stroke-width="0.24" fill="none" />
  <path d="M49.38345,45.16656 C49.36796,44.2369 50.10462,43.3541 51.07444,42.80956" stroke="#111111" stroke-width="0.24" fill="none" />
  <path d="M59.23935,43.53855 L59.06025,43.64196" stroke="#111111" stroke-width="0.24" fill="none" />
  <path d="M59.23932,47.52356 L59.42041,47.41415" stroke="#111111" stroke-width="0.24" fill="none" />
  <path d="M61.10888,45.16656 C61.12485,44.20815 60.36541,43.29805 59.36559,42.73666 L58.2422,42.2279" stroke="#111111" stroke-width="0.24" fill="none" />
  <path d="M54.70396,38.27486 L54.65942,38.08505" stroke="#111111" stroke-width="0.24" fill="none" />
  <path d="M54.57978,38.93079 L54.65942,38.08505" stroke="#111111" stroke-width="0.24" fill="none" />
  <path d="M56.22493,41.89079 C54.29668,41.65878 52.21392,42.11449 51.07444,42.80956" stroke="#111111" stroke-width="0.24" fill="none" />
  <path d="M49.20488,57.31891 L49.20488,45.16656" stroke="#111111" stroke-width="0.24" fill="none" />
  <path d="M54.70336,38.27368 L62.26476,51.34444" stroke="#111111" stroke-width="0.24" fill="none" />
  <path d="M74.0508,77.77014 L74.22514,77.52715" stroke="#111111" stroke-width="0.24" fill="none" />
</svg>