<?xml version="1.0" encoding="utf-8" standalone="no"?>
<!DOCTYPE svg PUBLIC "-//W3C//DTD SVG 1.1//EN" "http://www.w3.org/Graphics/SVG/1.1/DTD/svg11.dtd">
<svg version="1.1" width="120pt" height="120pt" viewBox="0 0 120 120" overflow="visible" xmlns="http://www.w3.org/2000/svg">
  <path d="M80.06274,47.3929 L75.39707,50.08662 L75.39707,49.53121 L80.06274,46.80972 z" stroke="Black" stroke-width="0" fill="#BBBBBB" fill-opacity="1" />
  <path d="M38.81748,70.62268 L44.61951,67.27288 L44.61951,67.85605 L38.81748,71.20586 z" stroke="Black" stroke-width="0" fill="#BBBBBB" fill-opacity="1" />
  <path d="M45.80811,66.58664 L74.20663,50.19076 L74.20667,50.7739 L45.80991,67.16877 z" stroke="Black" stroke-width="0" fill="#BBBBBB" fill-opacity="1" />
  <path d="M38.81748,71.20586 L29.13747,65.6171 L29.13747,65.03393 L38.81748,70.62268 z" stroke="Black" stroke-width="0" fill="#CCCCCC" fill-opacity="1" />
  <path d="M29.13747,65.03393 L70.38273,41.22097 L80.06274,46.80972 L75.39526,49.50449 L75.22274,49.28822 C75.03664,49.15653 74.5671,49.15653 74.381,49.28822 L74.20667,49.53121 L74.20663,50.19076 L45.80811,66.58664 L45.63559,66.37038 C45.44948,66.23869 44.97995,66.23869 44.79385,66.37038 L44.61951,66.61337 L44.61951,67.27288 L38.81748,70.62268 z" stroke="Black" stroke-width="0" fill="#EEEEEE" fill-opacity="1" />
  <path d="M74.20667,51.22868 L73.81281,51.00129 L74.20667,50.7739 z" stroke="Black" stroke-width="0" fill="#555555" fill-opacity="1" />
  <path d="M64.58059,43.29526 L64.40636,43.52936 C64.22026,43.66105 63.75072,43.66105 63.56462,43.52936 L63.39029,43.28637 L63.56462,43.04338 C63.75072,42.91169 64.22026,42.91169 64.40636,43.04338 z" stroke="Black" stroke-width="0" fill="#555555" fill-opacity="1" />
  <path d="M33.80313,60.36852 L33.97746,60.12553 C34.16356,59.99384 34.6331,59.99384 34.8192,60.12553 L34.99353,60.36852 L34.8192,60.61151 C34.6331,60.7432 34.16356,60.7432 33.97746,60.61151 z" stroke="Black" stroke-width="0" fill="#555555" fill-opacity="1" />
  <path d="M75.39697,49.5401 L75.22274,49.7742 C75.03664,49.90589 74.5671,49.90589 74.381,49.7742 L74.20677,49.5401 L74.381,49.28822 C74.5671,49.15653 75.03664,49.15653 75.22274,49.28822 z" stroke="Black" stroke-width="0" fill="#555555" fill-opacity="1" />
  <path d="M44.61951,68.31084 L44.22566,68.08344 L44.61951,67.85605 z" stroke="Black" stroke-width="0" fill="#555555" fill-opacity="1" />
  <path d="M45.80981,66.62226 L45.63559,66.85635 C45.44948,66.98804 44.97995,66.98804 44.79385,66.85635 L44.61961,66.62226 L44.79385,66.37038 C44.97995,66.23869 45.44948,66.23869 45.63559,66.37038 z" stroke="Black" stroke-width="0" fill="#555555" fill-opacity="1" />
  <path d="M33.80323,60.37742 L33.97746,60.61151 C34.16356,60.7432 34.6331,60.7432 34.8192,60.61151 L34.99343,60.37741 L34.99353,61.65293 L33.80313,62.34021 z" stroke="Black" stroke-width="0" fill="#777777" fill-opacity="1" />
  <path d="M34.99353,68.9981 L34.99353,75.04508 L34.87449,75.25127 C34.6331,75.41976 34.16356,75.41976 33.97746,75.28807 L33.80313,75.04508 L33.80313,68.31082 z" stroke="Black" stroke-width="0" fill="#777777" fill-opacity="1" />
  <path d="M44.61951,81.28992 L44.61951,69.2828 L43.38392,68.56942 L44.22566,68.08344 L44.61951,68.31084 L44.61961,66.62226 L44.79385,66.85635 C44.97995,66.98804 45.44948,66.98804 45.63559,66.85635 L45.80981,66.62226 L45.80991,81.28992 L45.69088,81.49611 C45.44948,81.6646 44.97995,81.6646 44.79385,81.53291 z" stroke="Black" stroke-width="0" fill="#777777" fill-opacity="1" />
  <path d="M74.20667,52.20064 L72.97108,51.48727 L73.81281,51.00129 L74.20667,51.22868 L74.20677,49.5401 L74.381,49.7742 C74.5671,49.90589 75.03664,49.90589 75.22274,49.7742 L75.39697,49.5401 L75.39707,64.20777 L75.27803,64.41396 C75.03664,64.58245 74.5671,64.58245 74.381,64.45076 L74.20667,64.20777 z" stroke="Black" stroke-width="0" fill="#777777" fill-opacity="1" />
  <path d="M63.56462,43.52936 C63.75072,43.66105 64.22026,43.66105 64.40636,43.52936 L64.58059,43.29526 L64.58069,44.57077 L63.39029,45.25805 L63.39039,43.29527 z" stroke="Black" stroke-width="0" fill="#777777" fill-opacity="1" />
  <path d="M64.58069,57.96293 L64.46165,58.16911 C64.22026,58.33761 63.75072,58.33761 63.56462,58.20592 L63.39029,57.96293 L63.39029,57.01874 L64.58069,56.33146 z" stroke="Black" stroke-width="0" fill="#777777" fill-opacity="1" />
  <path d="M45.63559,66.37038 L45.80991,66.61337" stroke="#000000" stroke-width="0.24" fill="none" />
  <path d="M44.61954,81.28995 L44.61954,69.28282 L43.38394,68.56945 L38.8175,71.20588 L34.99356,68.99812 L34.99356,75.0451" stroke="#000000" stroke-width="0.24" fill="none" />
  <path d="M44.61951,66.61337 L44.61951,68.31084" stroke="#000000" stroke-width="0.24" fill="none" />
  <path d="M74.20667,49.53121 L74.20667,51.22868" stroke="#000000" stroke-width="0.24" fill="none" />
  <path d="M63.39031,57.96295 L63.39031,57.01876 L45.80994,67.16879 L45.80994,81.28995" stroke="#000000" stroke-width="0.24" fill="none" />
  <path d="M74.2067,64.20779 L74.2067,52.20066 L72.9711,51.48729 L64.58071,56.33149 L64.58071,57.96295" stroke="#000000" stroke-width="0.24" fill="none" />
  <path d="M33.80313,75.04508 L33.80313,68.31082 L29.13747,65.6171 L29.13747,65.03393 L33.80313,62.34021 L33.80323,60.37742 L33.97746,60.12553 C34.16356,59.99384 34.6331,59.99384 34.8192,60.12553 L34.99353,60.36852 L34.99353,61.65293 L63.39029,45.25805 L63.39039,43.29527 L63.56462,43.04338 C63.75072,42.91169 64.22026,42.91169 64.40636,43.04338 L64.58069,43.28637 L64.58069,44.57077 L70.38273,41.22097 L80.06274,46.80972 L80.06274,47.3929 L75.39707,50.08662 L75.39707,64.20777 L75.39707,49.53121" stroke="#000000" stroke-width="0.24" fill="none" />
  <path d="M74.20667,49.53121 L74.381,49.28822 C74.5671,49.15653 75.03664,49.15653 75.22274,49.28822 L75.39707,49.53121" stroke="#000000" stroke-width="0.24" fill="none" />
  <path d="M45.80991,81.28992 L45.80991,66.61337" stroke="#000000" stroke-width="0.24" fill="none" />
  <path d="M44.61951,66.61337 L44.79385,66.37038 C44.97995,66.23869 45.44948,66.23869 45.63559,66.37038" stroke="#000000" stroke-width="0.24" fill="none" />
  <path d="M44.22551,68.08337 L44.79387,68.41151" stroke="#111111" stroke-width="0.24" fill="none" />
  <path d="M34.99353,75.04508 L34.8192,75.28807 C34.6331,75.41976 34.16356,75.41976 33.97746,75.28807 L33.80313,75.04508" stroke="#111111" stroke-width="0.24" fill="none" />
  <path d="M63.56462,58.20592 L63.39029,57.96293" stroke="#111111" stroke-width="0.24" fill="none" />
  <path d="M74.38103,52.30132 L72.97099,51.48723" stroke="#111111" stroke-width="0.24" fill="none" />
  <path d="M74.38103,51.32936 L73.81263,51.00119" stroke="#111111" stroke-width="0.24" fill="none" />
  <path d="M74.20667,49.53121 L74.381,49.28822 C74.5671,49.15653 75.03664,49.15653 75.22274,49.28822 L75.39707,49.53121" stroke="#111111" stroke-width="0.24" fill="none" />
  <path d="M75.39707,64.20777 L75.22274,64.45076 C75.03664,64.58245 74.5671,64.58245 74.381,64.45076" stroke="#111111" stroke-width="0.24" fill="none" />
  <path d="M74.20667,49.53121 L74.20667,51.22868" stroke="#111111" stroke-width="0.24" fill="none" />
  <path d="M74.381,64.45076 L74.20667,64.20777" stroke="#111111" stroke-width="0.24" fill="none" />
  <path d="M45.80991,81.28992 L45.63559,81.53291 C45.44948,81.6646 44.97995,81.6646 44.79385,81.53291 L44.61951,81.28992" stroke="#111111" stroke-width="0.24" fill="none" />
  <path d="M44.61951,66.61337 L44.61951,68.31084" stroke="#111111" stroke-width="0.24" fill="none" />
  <path d="M45.80991,81.28992 L45.80991,66.61337 L45.80991,66.61337 L74.20663,50.19078" stroke="#111111" stroke-width="0.24" fill="none" />
  <path d="M45.80994,67.16879 L74.2067,50.77392" stroke="#111111" stroke-width="0.24" fill="none" />
  <path d="M38.8175,71.20588 L44.61954,67.85607" stroke="#111111" stroke-width="0.24" fill="none" />
  <path d="M29.13749,65.03395 L38.8175,70.6227" stroke="#111111" stroke-width="0.24" fill="none" />
  <path d="M29.13749,65.61713 L38.8175,71.20588" stroke="#111111" stroke-width="0.24" fill="none" />
  <path d="M70.38275,41.22099 L29.13749,65.03395" stroke="#111111" stroke-width="0.24" fill="none" />
  <path d="M34.99353,61.65293 L34.99353,60.36852" stroke="#111111" stroke-width="0.24" fill="none" />
  <path d="M33.80313,68.31082 L33.80313,75.04508" stroke="#111111" stroke-width="0.24" fill="none" />
  <path d="M80.06276,47.39292 L80.06276,46.80975" stroke="#111111" stroke-width="0.24" fill="none" />
  <path d="M63.39029,57.01874 L63.39029,57.96293" stroke="#111111" stroke-width="0.24" fill="none" />
  <path d="M64.58069,44.57077 L64.58069,43.28637" stroke="#111111" stroke-width="0.24" fill="none" />
  <path d="M74.381,49.7742 L74.20667,49.53121" stroke="#111111" stroke-width="0.24" fill="none" />
  <path d="M74.20667,52.20064 L74.20667,64.20777" stroke="#111111" stroke-width="0.24" fill="none" />
  <path d="M75.39707,49.53121 L75.22274,49.7742 C75.03664,49.90589 74.5671,49.90589 74.381,49.7742" stroke="#111111" stroke-width="0.24" fill="none" />
  <path d="M44.61951,69.28273 L44.61951,81.28992" stroke="#111111" stroke-width="0.24" fill="none" />
  <path d="M34.99353,60.36852 L34.8192,60.61151 C34.6331,60.7432 34.16356,60.7432 33.97746,60.61151 L33.80313,60.36852 L33.97746,60.12553 C34.16356,59.99384 34.6331,59.99384 34.8192,60.12553" stroke="#111111" stroke-width="0.24" fill="none" />
  <path d="M33.80313,60.36852 L33.80313,62.34021" stroke="#111111" stroke-width="0.24" fill="none" />
  <path d="M34.99353,75.04508 L34.99353,68.9981" stroke="#111111" stroke-width="0.24" fill="none" />
  <path d="M38.8175,70.6227 L44.61953,67.2729" stroke="#111111" stroke-width="0.24" fill="none" />
  <path d="M34.8192,60.12553 L34.99353,60.36852" stroke="#111111" stroke-width="0.24" fill="none" />
  <path d="M64.58069,43.28637 L64.40636,43.52936 C64.22026,43.66105 63.75072,43.66105 63.56462,43.52936 L63.39029,43.28637 L63.56462,43.04338 C63.75072,42.91169 64.22026,42.91169 64.40636,43.04338 z" stroke="#111111" stroke-width="0.24" fill="none" />
  <path d="M63.39029,43.28637 L63.39029,45.25805" stroke="#111111" stroke-width="0.24" fill="none" />
  <path d="M64.58069,57.96293 L64.58069,56.33143" stroke="#111111" stroke-width="0.24" fill="none" />
  <path d="M45.80991,66.61337 L45.63559,66.85635 C45.44948,66.98804 44.97995,66.98804 44.79385,66.85635 L44.61951,66.61337" stroke="#111111" stroke-width="0.24" fill="none" />
  <path d="M75.39528,49.50452 L80.06276,46.80975" stroke="#111111" stroke-width="0.24" fill="none" />
  <path d="M75.39709,50.08664 L80.06276,47.39292" stroke="#111111" stroke-width="0.24" fill="none" />
  <path d="M75.39707,64.20777 L75.39707,49.53121" stroke="#111111" stroke-width="0.24" fill="none" />
  <path d="M44.61951,66.61337 L44.79385,66.37038 C44.97995,66.23869 45.44948,66.23869 45.63559,66.37038" stroke="#111111" stroke-width="0.24" fill="none" />
  <path d="M38.8175,71.20588 L38.8175,70.6227" stroke="#111111" stroke-width="0.24" fill="none" />
  <path d="M29.13749,65.61713 L29.13749,65.03395" stroke="#111111" stroke-width="0.24" fill="none" />
  <path d="M80.06276,46.80975 L70.38275,41.22099" stroke="#111111" stroke-width="0.24" fill="none" />
  <path d="M64.58069,57.96293 L64.40636,58.20592 C64.22026,58.33761 63.75072,58.33761 63.56462,58.20592" stroke="#111111" stroke-width="0.24" fill="none" />
  <path d="M43.38387,68.5694 L44.79387,69.38347" stroke="#111111" stroke-width="0.24" fill="none" />
</svg>