<?xml version="1.0" encoding="utf-8" standalone="no"?>
<!DOCTYPE svg PUBLIC "-//W3C//DTD SVG 1.1//EN" "http://www.w3.org/Graphics/SVG/1.1/DTD/svg11.dtd">
<svg version="1.1" width="240pt" height="240pt" viewBox="0 0 240 240" overflow="visible" xmlns="http://www.w3.org/2000/svg">
  <path d="M71.6275,116.2578 L71.6275,115.0868 L80.99836,109.6765 L80.99836,105.7173 C80.99516,105.5249 81.14766,105.3421 81.34843,105.2294 C81.72213,104.9649 82.66499,104.9649 83.0387,105.2294 C83.23946,105.3421 83.39197,105.5249 83.38876,105.7173 L83.38876,108.2964 L140.4147,75.37246 L140.4147,71.41325 C140.4115,71.2208 140.564,71.03805 140.7648,70.92532 C141.1385,70.66088 142.0814,70.66088 142.4551,70.92532 C142.6558,71.03805 142.8083,71.2208 142.8051,71.41325 L142.8053,73.99205 L154.4506,67.26883 L173.8887,78.49142 L173.8887,79.66247 L164.5233,85.0695 L164.5232,137.3298 L164.2848,137.7434 L164.282,140.2579 C164.2844,140.4121 164.1624,140.5586 164.0019,140.6491 C163.703,140.8614 162.9487,140.8623 162.6497,140.6507 C162.489,140.5605 162.3669,140.4139 162.3697,140.2595 L162.3724,137.7443 L162.1328,137.3298 L162.1328,89.31872 L159.6483,87.88425 L142.8051,97.60858 L142.8051,124.7887 L142.5648,125.2038 L142.562,127.7179 C142.5644,127.872 142.4424,128.0185 142.282,128.109 C141.983,128.3214 141.2287,128.3223 140.9297,128.1107 C140.769,128.0204 140.6469,127.8739 140.6497,127.7195 L140.6525,125.2017 L140.4147,124.7887 L140.4147,98.98868 L105.1069,119.3736 L105.1068,171.6339 L104.8684,172.0475 L104.8656,174.562 C104.868,174.7161 104.746,174.8626 104.5855,174.9531 C104.2866,175.1655 103.5323,175.1664 103.2333,174.9548 C103.0726,174.8645 102.9505,174.718 102.9533,174.5636 L102.9561,172.0484 L102.7164,171.6339 L102.7164,123.6188 L100.2353,122.1863 L91.06558,127.4804 L83.38876,123.0482 L83.38876,159.0928 L83.14846,159.5078 L83.14564,162.0219 C83.14803,162.1761 83.02607,162.3226 82.86558,162.4131 C82.56661,162.6254 81.81232,162.6264 81.51335,162.4147 C81.35261,162.3245 81.23056,162.1779 81.23331,162.0235 L81.23608,159.5058 L80.99836,159.0928 L80.99836,121.6681 z" stroke="Black" stroke-width="0" fill="#FFFFFF" fill-opacity="1" />
  <path d="M71.6275,116.2578 L71.6275,115.0868 L80.99836,109.6765 L80.99836,105.7173 C80.99024,105.5547 81.14349,105.3411 81.34843,105.2294 C81.72213,104.9649 82.66499,104.9649 83.0387,105.2294 C83.23946,105.3421 83.39197,105.5249 83.38876,105.7173 L83.38876,108.2964 L140.4147,75.37246 L140.4147,71.41325 C140.4066,71.25061 140.5599,71.03701 140.7648,70.92532 C141.1385,70.66088 142.0814,70.66088 142.4551,70.92532 C142.6558,71.03805 142.8083,71.2208 142.8051,71.41325 L142.8053,73.99205 L154.4506,67.26883 L173.8887,78.49142 L173.8887,79.66247 L164.5233,85.0695 L164.5232,137.3298 L164.2848,137.7434 L164.282,140.2579 C164.2883,140.3882 164.1658,140.5594 164.0019,140.6491 C163.703,140.8614 162.9487,140.8623 162.6497,140.6507 C162.489,140.5605 162.3669,140.4139 162.3697,140.2595 L162.3724,137.7443 L162.1328,137.3298 L162.1328,89.31872 L159.6483,87.88425 L142.8051,97.60858 L142.8051,124.7887 L142.5648,125.2038 L142.562,127.7179 C142.5684,127.8482 142.4458,128.0194 142.282,128.109 C141.983,128.3214 141.2287,128.3223 140.9297,128.1107 C140.769,128.0204 140.6469,127.8739 140.6497,127.7195 L140.6525,125.2017 L140.4147,124.7887 L140.4147,98.98868 L105.1069,119.3736 L105.1068,171.6339 L104.8684,172.0475 L104.8656,174.562 C104.8719,174.6923 104.7494,174.8635 104.5855,174.9531 C104.2866,175.1655 103.5323,175.1664 103.2333,174.9548 C103.0726,174.8645 102.9505,174.718 102.9533,174.5636 L102.9561,172.0484 L102.7164,171.6339 L102.7164,123.6188 L100.2353,122.1863 L91.06558,127.4804 L83.38876,123.0482 L83.38876,159.0928 L83.14846,159.5078 L83.14564,162.0219 C83.15198,162.1522 83.0294,162.3234 82.86558,162.4131 C82.56661,162.6254 81.81232,162.6264 81.51335,162.4147 C81.35261,162.3245 81.23056,162.1779 81.23331,162.0235 L81.23608,159.5058 L80.99836,159.0928 L80.99836,121.6681 z" stroke="#000000" stroke-width="0.48" fill="none" />
  <path d="M173.8887,79.66249 L164.5235,85.06953" stroke="#000000" stroke-width="0.24" fill="none" />
  <path d="M162.1328,87.36697 L162.1328,83.95435" stroke="#000000" stroke-width="0.24" fill="none" />
  <path d="M164.5232,83.95435 C164.5264,84.1468 164.3739,84.32955 164.1732,84.44228 C163.7995,84.70673 162.8566,84.70673 162.4829,84.44228 C162.2821,84.32955 162.1296,84.1468 162.1328,83.95435" stroke="#000000" stroke-width="0.24" fill="none" />
  <path d="M173.8887,78.49144 L164.5197,83.90066" stroke="#000000" stroke-width="0.24" fill="none" />
  <path d="M103.0665,121.8692 L103.0665,123.8209" stroke="#000000" stroke-width="0.24" fill="none" />
  <path d="M104.5843,117.87 L104.8644,118.2604" stroke="#000000" stroke-width="0.24" fill="none" />
  <path d="M102.7164,118.2584 C102.7132,118.0659 102.8657,117.8832 103.0665,117.7705 C103.4402,117.506 104.3831,117.506 104.7568,117.7705" stroke="#000000" stroke-width="0.24" fill="none" />
  <path d="M142.2807,71.02599 L142.5608,71.41634" stroke="#000000" stroke-width="0.24" fill="none" />
  <path d="M140.4147,100.8847 L140.4147,98.98853" stroke="#000000" stroke-width="0.24" fill="none" />
  <path d="M142.8051,71.41325 L142.8051,73.99187" stroke="#000000" stroke-width="0.24" fill="none" />
  <path d="M140.4147,71.41325 C140.4115,71.2208 140.564,71.03805 140.7648,70.92532 C141.1385,70.66088 142.0814,70.66088 142.4551,70.92532" stroke="#000000" stroke-width="0.24" fill="none" />
  <path d="M142.8051,71.41325 C142.8083,71.60571 142.6558,71.78847 142.4551,71.90119 C142.0814,72.16563 141.1385,72.16563 140.7648,71.90119 C140.564,71.78847 140.4115,71.60571 140.4147,71.41325" stroke="#000000" stroke-width="0.24" fill="none" />
  <path d="M142.5608,71.41634 L142.2807,71.80669 L141.6046,71.96839 L140.9285,71.8067 L140.6484,71.41634 L140.9285,71.02599 L141.6046,70.8643 L142.2807,71.02599" stroke="#000000" stroke-width="0.24" fill="none" />
  <path d="M164.0007,83.56599 L164.2807,83.95634" stroke="#000000" stroke-width="0.24" fill="none" />
  <path d="M162.1328,83.95435 C162.1296,83.76189 162.2821,83.57914 162.4829,83.46641 C162.8566,83.20197 163.7995,83.20197 164.1732,83.46641" stroke="#000000" stroke-width="0.24" fill="none" />
  <path d="M71.62753,116.2579 L71.62753,115.0868" stroke="#000000" stroke-width="0.24" fill="none" />
  <path d="M80.99839,159.0928 L80.99839,121.6681" stroke="#000000" stroke-width="0.24" fill="none" />
  <path d="M104.8644,118.2604 L104.5843,118.6508 L103.9082,118.8124 L103.2321,118.6508 L102.952,118.2604 L103.2321,117.8701 L103.9082,117.7084 L104.5843,117.87" stroke="#000000" stroke-width="0.24" fill="none" />
  <path d="M83.14844,159.5078 L83.14566,162.022" stroke="#000000" stroke-width="0.24" fill="none" />
  <path d="M164.2807,83.95634 L164.0007,84.34669 L163.3246,84.50838 L162.6485,84.3467 L162.3684,83.95634 L162.6485,83.56599 L163.3246,83.4043 L164.0007,83.56599" stroke="#000000" stroke-width="0.24" fill="none" />
  <path d="M102.7165,171.6339 L102.7165,123.6188" stroke="#000000" stroke-width="0.24" fill="none" />
  <path d="M142.8051,97.60858 L142.8051,100.8847" stroke="#000000" stroke-width="0.24" fill="none" />
  <path d="M83.38876,159.0928 C83.39197,159.2852 83.23946,159.468 83.0387,159.5807 C82.66499,159.8452 81.72213,159.8452 81.34843,159.5807 C81.14766,159.468 80.99516,159.2852 80.99836,159.0928" stroke="#000000" stroke-width="0.24" fill="none" />
  <path d="M140.4147,75.37246 L140.4147,71.41325" stroke="#000000" stroke-width="0.24" fill="none" />
  <path d="M142.8051,124.7887 C142.8083,124.9812 142.6558,125.1639 142.4551,125.2767 C142.0814,125.5411 141.1385,125.5411 140.7648,125.2767 C140.564,125.1639 140.4115,124.9812 140.4147,124.7887" stroke="#000000" stroke-width="0.24" fill="none" />
  <path d="M102.9533,174.5636 L102.9561,172.0484" stroke="#000000" stroke-width="0.24" fill="none" />
  <path d="M83.38876,105.7173 C83.39197,105.9098 83.23946,106.0925 83.0387,106.2053 C82.66499,106.4697 81.72213,106.4697 81.34843,106.2053 C81.14766,106.0925 80.99516,105.9098 80.99836,105.7173" stroke="#000000" stroke-width="0.24" fill="none" />
  <path d="M104.7568,117.7705 C104.9576,117.8832 105.1101,118.0659 105.1068,118.2584" stroke="#000000" stroke-width="0.24" fill="none" />
  <path d="M91.06561,127.4805 L71.62753,116.2579" stroke="#000000" stroke-width="0.24" fill="none" />
  <path d="M81.23333,162.0236 L81.23611,159.5058" stroke="#000000" stroke-width="0.24" fill="none" />
  <path d="M91.06561,126.3094 L71.62753,115.0868" stroke="#000000" stroke-width="0.24" fill="none" />
  <path d="M83.14439,105.7204 L82.86433,106.1108 L82.18822,106.2724 L81.51212,106.1108 L81.23206,105.7204 L81.51212,105.3301 L82.18823,105.1684 L82.86434,105.33" stroke="#000000" stroke-width="0.24" fill="none" />
  <path d="M101.926,121.2107 L103.0665,121.8692" stroke="#000000" stroke-width="0.24" fill="none" />
  <path d="M83.14564,162.0219 C83.14803,162.1761 83.02607,162.3226 82.86558,162.4131 C82.56661,162.6254 81.81232,162.6264 81.51335,162.4147 C81.35261,162.3245 81.23056,162.1779 81.23331,162.0235" stroke="#000000" stroke-width="0.24" fill="none" />
  <path d="M91.06561,127.4805 L91.06561,126.3094" stroke="#000000" stroke-width="0.24" fill="none" />
  <path d="M173.8887,79.66249 L173.8887,78.49144" stroke="#000000" stroke-width="0.24" fill="none" />
  <path d="M154.4507,67.26886 L173.8887,78.49144" stroke="#000000" stroke-width="0.24" fill="none" />
  <path d="M102.7168,119.5826 L91.06561,126.3094" stroke="#000000" stroke-width="0.24" fill="none" />
  <path d="M102.7167,120.7537 L91.06561,127.4805" stroke="#000000" stroke-width="0.24" fill="none" />
  <path d="M142.5648,125.2038 L142.562,127.7179" stroke="#000000" stroke-width="0.24" fill="none" />
  <path d="M100.2353,122.1863 L103.0665,123.8209" stroke="#000000" stroke-width="0.24" fill="none" />
  <path d="M164.1732,83.46641 C164.3739,83.57914 164.5264,83.76189 164.5232,83.95435" stroke="#000000" stroke-width="0.24" fill="none" />
  <path d="M71.62753,115.0868 L154.4507,67.26886" stroke="#000000" stroke-width="0.24" fill="none" />
  <path d="M162.1332,86.44955 L105.107,119.3737" stroke="#000000" stroke-width="0.24" fill="none" />
  <path d="M162.1328,137.3298 L162.1328,89.31874" stroke="#000000" stroke-width="0.24" fill="none" />
  <path d="M164.2848,137.7434 L164.282,140.2579" stroke="#000000" stroke-width="0.24" fill="none" />
  <path d="M102.7164,121.667 L102.7164,118.2584" stroke="#000000" stroke-width="0.24" fill="none" />
  <path d="M105.1068,171.6339 C105.1101,171.8263 104.9576,172.0091 104.7568,172.1218 C104.3831,172.3863 103.4402,172.3863 103.0665,172.1218 C102.8657,172.0091 102.7132,171.8263 102.7164,171.6339" stroke="#000000" stroke-width="0.24" fill="none" />
  <path d="M142.562,127.7179 C142.5644,127.872 142.4424,128.0185 142.282,128.109 C141.983,128.3214 141.2287,128.3223 140.9297,128.1107 C140.769,128.0204 140.6469,127.8739 140.6497,127.7195" stroke="#000000" stroke-width="0.24" fill="none" />
  <path d="M164.5232,83.95437 L164.5232,137.3298" stroke="#000000" stroke-width="0.24" fill="none" />
  <path d="M162.4795,89.51886 L159.6484,87.88435" stroke="#000000" stroke-width="0.24" fill="none" />
  <path d="M162.4795,87.56711 L161.3389,86.90861" stroke="#000000" stroke-width="0.24" fill="none" />
  <path d="M104.8684,172.0475 L104.8656,174.562" stroke="#000000" stroke-width="0.24" fill="none" />
  <path d="M83.38876,105.7173 L83.38876,108.2964" stroke="#000000" stroke-width="0.24" fill="none" />
  <path d="M80.99836,109.6765 L80.99836,105.7173 C80.99516,105.5249 81.14766,105.3421 81.34843,105.2294 C81.72213,104.9649 82.66499,104.9649 83.0387,105.2294" stroke="#000000" stroke-width="0.24" fill="none" />
  <path d="M105.1069,118.2584 L105.1069,171.6339" stroke="#000000" stroke-width="0.24" fill="none" />
  <path d="M104.8656,174.562 C104.868,174.7161 104.746,174.8626 104.5855,174.9531 C104.2866,175.1655 103.5323,175.1664 103.2333,174.9548 C103.0726,174.8645 102.9505,174.718 102.9533,174.5636" stroke="#000000" stroke-width="0.24" fill="none" />
  <path d="M140.6497,127.7195 L140.6525,125.2017" stroke="#000000" stroke-width="0.24" fill="none" />
  <path d="M162.3697,140.2596 L162.3725,137.7443" stroke="#000000" stroke-width="0.24" fill="none" />
  <path d="M164.282,140.2579 C164.2844,140.4121 164.1624,140.5586 164.0019,140.6491 C163.703,140.8614 162.9487,140.8623 162.6497,140.6507 C162.489,140.5605 162.3669,140.4139 162.3697,140.2595" stroke="#000000" stroke-width="0.24" fill="none" />
  <path d="M83.0387,105.2294 C83.23946,105.3421 83.39197,105.5249 83.38876,105.7173" stroke="#000000" stroke-width="0.24" fill="none" />
  <path d="M162.133,85.27864 L105.1037,118.2045" stroke="#000000" stroke-width="0.24" fill="none" />
  <path d="M162.4795,87.56711 L162.4795,89.51886" stroke="#000000" stroke-width="0.24" fill="none" />
  <path d="M142.4551,70.92532 C142.6558,71.03805 142.8083,71.2208 142.8051,71.41325" stroke="#000000" stroke-width="0.24" fill="none" />
  <path d="M105.1068,118.2584 C105.1101,118.4509 104.9576,118.6336 104.7568,118.7463 C104.3831,119.0108 103.4402,119.0108 103.0665,118.7463 C102.8657,118.6336 102.7132,118.4509 102.7164,118.2584" stroke="#000000" stroke-width="0.24" fill="none" />
  <path d="M82.86434,105.33 L83.14439,105.7204" stroke="#000000" stroke-width="0.24" fill="none" />
  <path d="M164.5232,137.3298 C164.5264,137.5223 164.3739,137.705 164.1732,137.8178 C163.7995,138.0822 162.8566,138.0822 162.4829,137.8178 C162.2821,137.705 162.1296,137.5223 162.1328,137.3298" stroke="#000000" stroke-width="0.24" fill="none" />
  <path d="M83.38879,123.0482 L83.38879,159.0928" stroke="#000000" stroke-width="0.24" fill="none" />
</svg>