<?xml version="1.0" encoding="utf-8" standalone="no"?>
<!DOCTYPE svg PUBLIC "-//W3C//DTD SVG 1.1//EN" "http://www.w3.org/Graphics/SVG/1.1/DTD/svg11.dtd">
<svg version="1.1" width="120pt" height="120pt" viewBox="0 0 120 120" overflow="visible" xmlns="http://www.w3.org/2000/svg">
  <path d="M24.33851,39.95714 L24.33851,39.37396 L29.00599,42.06874 L29.00419,42.65087 z" stroke="Black" stroke-width="0" fill="#BBBBBB" fill-opacity="1" />
  <path d="M77.10963,69.86913 L77.10963,70.42456 L30.19462,43.33818 L30.19466,42.75505 z" stroke="Black" stroke-width="0" fill="#BBBBBB" fill-opacity="1" />
  <path d="M78.30003,71.11184 L78.30003,70.52866 L84.10204,73.87846 L84.10204,74.46163 z" stroke="Black" stroke-width="0" fill="#BBBBBB" fill-opacity="1" />
  <path d="M93.78205,68.87287 L84.10204,74.46163 L84.10204,73.87846 L93.78205,68.2897 z" stroke="Black" stroke-width="0" fill="#CCCCCC" fill-opacity="1" />
  <path d="M77.11143,69.84242 L30.19466,42.75505 L30.19459,42.09544 L30.02026,41.85245 C29.83416,41.72076 29.36463,41.72076 29.17852,41.85245 L29.00599,42.06874 L24.33851,39.37396 L34.01852,33.78521 L93.78205,68.2897 L84.10204,73.87846 L78.30003,70.52866 L78.30003,69.86913 L78.1257,69.62613 C77.9396,69.49445 77.47006,69.49445 77.28396,69.62613 z" stroke="Black" stroke-width="0" fill="#EEEEEE" fill-opacity="1" />
  <path d="M78.30003,71.11184 L78.69386,71.33922 L78.30003,71.5666 z" stroke="Black" stroke-width="0" fill="#555555" fill-opacity="1" />
  <path d="M78.29993,69.87801 L78.1257,70.11211 C77.9396,70.2438 77.47006,70.2438 77.28396,70.11211 L77.10973,69.87801 L77.28396,69.62613 C77.47006,69.49445 77.9396,69.49445 78.1257,69.62613 z" stroke="Black" stroke-width="0" fill="#555555" fill-opacity="1" />
  <path d="M87.92596,63.62431 L88.10029,63.38132 C88.28639,63.24963 88.75593,63.24963 88.94203,63.38132 L89.11636,63.62431 L88.94203,63.8673 C88.75593,63.99899 88.28639,63.99899 88.10029,63.8673 z" stroke="Black" stroke-width="0" fill="#555555" fill-opacity="1" />
  <path d="M30.19462,43.33818 L30.58842,43.56553 L30.19459,43.79291 z" stroke="Black" stroke-width="0" fill="#555555" fill-opacity="1" />
  <path d="M30.19449,42.10433 L30.02026,42.33842 C29.83416,42.47011 29.36463,42.47011 29.17852,42.33842 L29.00429,42.10433 L29.17852,41.85245 C29.36463,41.72076 29.83416,41.72076 30.02026,41.85245 z" stroke="Black" stroke-width="0" fill="#555555" fill-opacity="1" />
  <path d="M39.82053,35.85062 L39.99485,35.60764 C40.18096,35.47594 40.65049,35.47594 40.83659,35.60764 L41.01093,35.85062 L40.83659,36.09361 C40.65049,36.2253 40.18096,36.2253 39.99485,36.09361 z" stroke="Black" stroke-width="0" fill="#555555" fill-opacity="1" />
  <path d="M87.92596,64.90868 L87.92606,63.6332 L88.10029,63.8673 C88.28639,63.99899 88.75593,63.99899 88.94203,63.8673 L89.11621,63.6332 L89.11632,65.5959 z" stroke="Black" stroke-width="0" fill="#777777" fill-opacity="1" />
  <path d="M78.30003,72.53855 L78.30003,84.54568 L78.1257,84.78867 C77.9396,84.92036 77.47006,84.92036 77.28396,84.78867 L77.10963,84.54568 L77.10973,69.87801 L77.28396,70.11211 C77.47006,70.2438 77.9396,70.2438 78.1257,70.11211 L78.29993,69.87801 L78.30003,71.5666 L78.69386,71.33922 L79.5356,71.8252 z" stroke="Black" stroke-width="0" fill="#777777" fill-opacity="1" />
  <path d="M41.01093,37.82228 L39.8205,37.13492 L39.82063,35.85952 L39.99485,36.09361 C40.18096,36.2253 40.65049,36.2253 40.83659,36.09361 L41.01078,35.85952 z" stroke="Black" stroke-width="0" fill="#777777" fill-opacity="1" />
  <path d="M41.01093,49.58296 L41.01093,50.52718 L40.83659,50.77017 C40.65049,50.90186 40.18096,50.90186 39.99485,50.77017 L39.82053,50.52718 L39.82053,48.89568 z" stroke="Black" stroke-width="0" fill="#777777" fill-opacity="1" />
  <path d="M30.19459,44.76487 L30.19459,56.772 L30.02026,57.01498 C29.83416,57.14667 29.36463,57.14667 29.17852,57.01498 L29.00419,56.772 L29.00429,42.10433 L29.17852,42.33842 C29.36463,42.47011 29.83416,42.47011 30.02026,42.33842 L30.19449,42.10433 L30.19459,43.79291 L30.58842,43.56553 L31.43016,44.05151 z" stroke="Black" stroke-width="0" fill="#777777" fill-opacity="1" />
  <path d="M87.92596,72.25388 L89.11636,71.56661 L89.11636,78.30087 L88.94203,78.54386 C88.75593,78.67554 88.28639,78.67554 88.10029,78.54386 L87.92596,78.30087 z" stroke="Black" stroke-width="0" fill="#777777" fill-opacity="1" />
  <path d="M89.11639,71.56664 L93.78207,68.87289" stroke="#000000" stroke-width="0.24" fill="none" />
  <path d="M89.11639,78.3009 L89.11639,71.56664" stroke="#000000" stroke-width="0.24" fill="none" />
  <path d="M87.92599,72.25391 L87.92599,78.3009" stroke="#000000" stroke-width="0.24" fill="none" />
  <path d="M84.10207,74.46165 L87.92599,72.25391" stroke="#000000" stroke-width="0.24" fill="none" />
  <path d="M79.53562,71.82522 L84.10207,74.46165" stroke="#000000" stroke-width="0.24" fill="none" />
  <path d="M78.30006,72.53857 L79.53562,71.82522" stroke="#000000" stroke-width="0.24" fill="none" />
  <path d="M78.30006,84.5457 L78.30006,72.53857" stroke="#000000" stroke-width="0.24" fill="none" />
  <path d="M77.10966,70.42458 L77.10966,84.5457" stroke="#000000" stroke-width="0.24" fill="none" />
  <path d="M41.01095,49.58298 L77.10966,70.42458" stroke="#000000" stroke-width="0.24" fill="none" />
  <path d="M41.01095,50.52721 L41.01095,49.58298" stroke="#000000" stroke-width="0.24" fill="none" />
  <path d="M39.82055,48.89571 L39.82055,50.52721" stroke="#000000" stroke-width="0.24" fill="none" />
  <path d="M31.43019,44.05153 L39.82055,48.89571" stroke="#000000" stroke-width="0.24" fill="none" />
  <path d="M30.19462,44.76489 L31.43019,44.05153" stroke="#000000" stroke-width="0.24" fill="none" />
  <path d="M30.19462,56.77202 L30.19462,44.76489" stroke="#000000" stroke-width="0.24" fill="none" />
  <path d="M29.00422,42.6509 L29.00422,56.77202" stroke="#000000" stroke-width="0.24" fill="none" />
  <path d="M24.33853,39.95716 L29.00422,42.6509" stroke="#000000" stroke-width="0.24" fill="none" />
  <path d="M24.33853,39.37399 L24.33853,39.95716" stroke="#000000" stroke-width="0.24" fill="none" />
  <path d="M34.01854,33.78523 L24.33853,39.37399" stroke="#000000" stroke-width="0.24" fill="none" />
  <path d="M39.82052,37.13494 L34.01854,33.78523" stroke="#000000" stroke-width="0.24" fill="none" />
  <path d="M39.82055,35.85065 L39.82052,37.13494" stroke="#000000" stroke-width="0.24" fill="none" />
  <path d="M39.99485,35.60764 L39.82053,35.85062" stroke="#000000" stroke-width="0.24" fill="none" />
  <path d="M40.83659,35.60764 C40.65049,35.47594 40.18096,35.47594 39.99485,35.60764" stroke="#000000" stroke-width="0.24" fill="none" />
  <path d="M41.01093,35.85062 L40.83659,35.60764" stroke="#000000" stroke-width="0.24" fill="none" />
  <path d="M41.01095,37.8223 L41.01085,35.85954" stroke="#000000" stroke-width="0.24" fill="none" />
  <path d="M87.92599,64.90871 L41.01095,37.8223" stroke="#000000" stroke-width="0.24" fill="none" />
  <path d="M87.92599,63.62433 L87.92599,64.90871" stroke="#000000" stroke-width="0.24" fill="none" />
  <path d="M88.10029,63.38132 L87.92596,63.62431" stroke="#000000" stroke-width="0.24" fill="none" />
  <path d="M88.94203,63.38132 C88.75593,63.24963 88.28639,63.24963 88.10029,63.38132" stroke="#000000" stroke-width="0.24" fill="none" />
  <path d="M89.11636,63.62431 L88.94203,63.38132" stroke="#000000" stroke-width="0.24" fill="none" />
  <path d="M89.11636,65.59589 L89.11629,63.63323" stroke="#000000" stroke-width="0.24" fill="none" />
  <path d="M93.78207,68.28973 L89.11636,65.59589" stroke="#000000" stroke-width="0.24" fill="none" />
  <path d="M93.78207,68.87289 L93.78207,68.28973" stroke="#000000" stroke-width="0.24" fill="none" />
  <path d="M78.30003,69.86913 L78.1257,69.62613 C77.9396,69.49445 77.47006,69.49445 77.28396,69.62613 L77.10963,69.86913" stroke="#000000" stroke-width="0.24" fill="none" />
  <path d="M77.10963,84.54568 L77.10963,69.86913" stroke="#000000" stroke-width="0.24" fill="none" />
  <path d="M78.30003,69.86913 L78.30003,71.5666" stroke="#000000" stroke-width="0.24" fill="none" />
  <path d="M29.00419,56.772 L29.00419,42.09544" stroke="#000000" stroke-width="0.24" fill="none" />
  <path d="M30.19459,42.09544 L30.19459,43.79291" stroke="#000000" stroke-width="0.24" fill="none" />
  <path d="M30.19459,42.09544 L30.02026,41.85245 C29.83416,41.72076 29.36463,41.72076 29.17852,41.85245 L29.00419,42.09544" stroke="#000000" stroke-width="0.24" fill="none" />
  <path d="M30.02026,44.86555 L31.43034,44.05144" stroke="#000000" stroke-width="0.24" fill="none" />
  <path d="M34.01854,33.78523 L93.78207,68.28972" stroke="#000000" stroke-width="0.24" fill="none" />
  <path d="M93.78207,68.87289 L84.10207,74.46165 L78.30006,71.11186" stroke="#000000" stroke-width="0.24" fill="none" />
  <path d="M77.10973,70.42463 L30.19467,43.33821" stroke="#000000" stroke-width="0.24" fill="none" />
  <path d="M79.53562,71.82522 L78.12569,72.63924" stroke="#000000" stroke-width="0.24" fill="none" />
  <path d="M30.02026,42.33842 L30.19459,42.09544" stroke="#111111" stroke-width="0.24" fill="none" />
  <path d="M88.10029,63.38132 L87.92596,63.62431" stroke="#111111" stroke-width="0.24" fill="none" />
  <path d="M87.92596,78.30087 L87.92596,72.25388" stroke="#111111" stroke-width="0.24" fill="none" />
  <path d="M89.11636,63.62431 L89.11636,65.59582" stroke="#111111" stroke-width="0.24" fill="none" />
  <path d="M89.11636,63.62431 L88.94203,63.38132 C88.75593,63.24963 88.28639,63.24963 88.10029,63.38132 L88.10029,63.8673 C88.28639,63.99899 88.75593,63.99899 88.94203,63.8673 z" stroke="#111111" stroke-width="0.24" fill="none" />
  <path d="M39.82053,50.52718 L39.82053,48.89568" stroke="#111111" stroke-width="0.24" fill="none" />
  <path d="M41.01093,35.85062 L41.01093,37.82228" stroke="#111111" stroke-width="0.24" fill="none" />
  <path d="M41.01093,35.85062 L40.83659,35.60764 C40.65049,35.47594 40.18096,35.47594 39.99485,35.60764 L39.82053,35.85062" stroke="#111111" stroke-width="0.24" fill="none" />
  <path d="M40.83659,36.09361 L41.01093,35.85062" stroke="#111111" stroke-width="0.24" fill="none" />
  <path d="M39.82053,35.85062 L39.99485,36.09361 C40.18096,36.2253 40.65049,36.2253 40.83659,36.09361" stroke="#111111" stroke-width="0.24" fill="none" />
  <path d="M24.33853,39.37399 L34.01854,33.78523" stroke="#111111" stroke-width="0.24" fill="none" />
  <path d="M24.33853,39.95716 L24.33853,39.37399" stroke="#111111" stroke-width="0.24" fill="none" />
  <path d="M93.78207,68.87289 L93.78207,68.28973" stroke="#111111" stroke-width="0.24" fill="none" />
  <path d="M84.10207,74.46165 L84.10207,73.87848" stroke="#111111" stroke-width="0.24" fill="none" />
  <path d="M39.82053,37.13487 L39.82053,35.85062" stroke="#111111" stroke-width="0.24" fill="none" />
  <path d="M41.01093,49.58296 L41.01093,50.52718" stroke="#111111" stroke-width="0.24" fill="none" />
  <path d="M87.92596,64.90868 L87.92596,63.62431" stroke="#111111" stroke-width="0.24" fill="none" />
  <path d="M89.11636,71.56661 L89.11636,78.30087" stroke="#111111" stroke-width="0.24" fill="none" />
  <path d="M29.00611,42.06881 L24.33853,39.37399" stroke="#111111" stroke-width="0.24" fill="none" />
  <path d="M29.00422,42.6509 L24.33853,39.95716" stroke="#111111" stroke-width="0.24" fill="none" />
  <path d="M77.10963,69.86913 L77.28396,70.11211 C77.47006,70.2438 77.9396,70.2438 78.1257,70.11211 L78.30003,69.86913" stroke="#111111" stroke-width="0.24" fill="none" />
  <path d="M29.00419,42.09544 L29.17852,42.33842 C29.36463,42.47011 29.83416,42.47011 30.02026,42.33842" stroke="#111111" stroke-width="0.24" fill="none" />
  <path d="M93.78207,68.28973 L84.10207,73.87848" stroke="#111111" stroke-width="0.24" fill="none" />
  <path d="M77.11145,69.84245 L30.19476,42.75508" stroke="#111111" stroke-width="0.24" fill="none" />
  <path d="M78.30003,72.53855 L78.30003,84.54568" stroke="#111111" stroke-width="0.24" fill="none" />
  <path d="M77.10963,84.54568 L77.28396,84.78867 C77.47006,84.92036 77.9396,84.92036 78.1257,84.78867 L78.30003,84.54568" stroke="#111111" stroke-width="0.24" fill="none" />
  <path d="M30.02026,57.01498 L30.19459,56.772" stroke="#111111" stroke-width="0.24" fill="none" />
  <path d="M30.19459,44.76469 L30.19459,56.772" stroke="#111111" stroke-width="0.24" fill="none" />
  <path d="M29.00419,56.772 L29.17852,57.01498 C29.36463,57.14667 29.83416,57.14667 30.02026,57.01498" stroke="#111111" stroke-width="0.24" fill="none" />
  <path d="M30.02026,43.8936 L30.58871,43.56541" stroke="#111111" stroke-width="0.24" fill="none" />
  <path d="M87.92596,78.30087 L88.10029,78.54386 C88.28639,78.67554 88.75593,78.67554 88.94203,78.54386 L89.11636,78.30087" stroke="#111111" stroke-width="0.24" fill="none" />
  <path d="M40.83659,50.77017 L41.01093,50.52718" stroke="#111111" stroke-width="0.24" fill="none" />
  <path d="M39.82053,50.52718 L39.99485,50.77017 C40.18096,50.90186 40.65049,50.90186 40.83659,50.77017" stroke="#111111" stroke-width="0.24" fill="none" />
  <path d="M84.10207,73.87848 L78.30006,70.52869" stroke="#111111" stroke-width="0.24" fill="none" />
  <path d="M78.69411,71.3391 L78.12569,71.66728" stroke="#111111" stroke-width="0.24" fill="none" />
</svg>